<?xml version="1.0" encoding="utf-8"?>
<!-- Generator: Adobe Illustrator 23.0.2, SVG Export Plug-In . SVG Version: 6.00 Build 0)  -->
<svg version="1.1" id="Layer_1" xmlns="http://www.w3.org/2000/svg" xmlns:xlink="http://www.w3.org/1999/xlink" x="0px" y="0px"
	 viewBox="0 0 200 127.25" enable-background="new 0 0 200 127.25" xml:space="preserve">
<g>
	<g>
		<g>
			<defs>
				<path id="SVGID_1_" d="M8.286,93.983l43.15-26.972l43.147,26.972l-43.147,26.97L8.286,93.983z M151.435,65.215l42.826-26.767
					v53.942l-42.826,26.77V65.215z M5.742,34.859L48.565,8.091v53.944L5.742,88.804V34.859z M101.342,91.436L54.306,62.035V8.091
					l91.388,57.126v53.944C145.694,119.161,101.365,91.45,101.342,91.436 M105.416,33.269l43.148-26.973l43.148,26.973
					l-43.148,26.97L105.416,33.269z M147.157,0.404L100,29.882L52.844,0.406C52.419,0.141,51.932,0,51.436,0
					c-0.498,0-0.985,0.141-1.408,0.404L1.245,30.898C0.466,31.39,0,32.231,0,33.15v60.953c0,0.921,0.467,1.762,1.249,2.252
					l48.77,30.486c0.423,0.268,0.913,0.41,1.417,0.41c0.5,0,0.99-0.139,1.408-0.405L100,97.368l47.153,29.476
					c0.425,0.266,0.912,0.405,1.411,0.405c0.504,0,0.993-0.142,1.408-0.405l48.778-30.488c0.772-0.483,1.25-1.346,1.25-2.254V33.15
					c0-0.923-0.468-1.765-1.25-2.254L149.974,0.406C149.549,0.141,149.061,0,148.564,0C148.065,0,147.578,0.141,147.157,0.404"/>
			</defs>
			<linearGradient id="SVGID_2_" gradientUnits="userSpaceOnUse" x1="34.2109" y1="129.4137" x2="165.7883" y2="-2.1637">
				<stop  offset="0" style="stop-color:#11A1DC"/>
				<stop  offset="1" style="stop-color:#1ABBB6"/>
			</linearGradient>
			<use xlink:href="#SVGID_1_"  overflow="visible" fill="url(#SVGID_2_)"/>
			<clipPath id="SVGID_3_">
				<use xlink:href="#SVGID_1_"  overflow="visible"/>
			</clipPath>
		</g>
	</g>
</g>
</svg>
