<?xml version="1.0" encoding="utf-8"?>
<!-- Generator: Adobe Illustrator 23.0.1, SVG Export Plug-In . SVG Version: 6.00 Build 0)  -->
<svg version="1.1" id="Layer_1" xmlns="http://www.w3.org/2000/svg" xmlns:xlink="http://www.w3.org/1999/xlink" x="0px" y="0px"
	 viewBox="0 0 20 23" style="enable-background:new 0 0 20 23;" xml:space="preserve">
<style type="text/css">
	.st0{fill:#00AEEF;}
</style>
<g>
	<path class="st0" d="M19.85,7.44c-0.01-0.56-0.02-1.09-0.02-1.6c0-0.4-0.37-0.73-0.82-0.73c-3.52,0-6.2-2.86-8.43-4.78
		c-0.32-0.27-0.83-0.27-1.15,0C7.19,2.25,4.51,5.11,1,5.11c-0.45,0-0.82,0.33-0.82,0.73c0,0.51-0.01,1.04-0.02,1.6
		c-0.11,5.22-0.27,12.38,9.58,15.4c0.09,0.03,0.18,0.04,0.27,0.04s0.18-0.01,0.27-0.04C20.12,19.82,19.96,12.66,19.85,7.44z
		 M10,21.38c-8.45-2.71-8.32-8.66-8.21-13.91C1.8,7.15,1.81,6.85,1.81,6.55C5.11,6.43,7.74,3.58,10,1.84
		c2.26,1.74,4.89,4.58,8.19,4.71c0,0.3,0.01,0.6,0.02,0.92C18.32,12.72,18.45,18.66,10,21.38z"/>
	<path class="st0" d="M10,23c-0.1,0-0.21-0.02-0.31-0.05C-0.24,19.91-0.09,12.7,0.03,7.44c0.01-0.56,0.02-1.09,0.02-1.6
		c0-0.47,0.42-0.85,0.95-0.85c3.01,0,5.37-2.1,7.45-3.96c0.31-0.27,0.61-0.54,0.9-0.79c0.37-0.32,0.94-0.32,1.31,0
		c0.29,0.25,0.59,0.52,0.9,0.79c2.08,1.85,4.44,3.96,7.45,3.96c0.52,0,0.95,0.38,0.95,0.85c0,0.51,0.01,1.04,0.02,1.6v0
		c0.11,5.26,0.27,12.47-9.67,15.52C10.21,22.98,10.1,23,10,23z M10,0.25c-0.18,0-0.36,0.06-0.49,0.18c-0.29,0.25-0.59,0.52-0.9,0.79
		C6.6,3,4.1,5.23,1,5.23c-0.39,0-0.7,0.27-0.7,0.6c0,0.51-0.01,1.05-0.02,1.61c-0.11,5.19-0.26,12.28,9.49,15.28
		c0.15,0.05,0.32,0.05,0.47,0c9.76-2.99,9.61-10.09,9.5-15.28l0,0c-0.01-0.56-0.02-1.09-0.02-1.61c0-0.33-0.31-0.6-0.7-0.6
		c-3.11,0-5.61-2.23-7.62-4.02c-0.31-0.27-0.6-0.54-0.89-0.79C10.36,0.31,10.18,0.25,10,0.25z M10,21.51l-0.04-0.01
		c-8.53-2.74-8.4-8.74-8.29-14.03c0.01-0.31,0.01-0.62,0.02-0.92l0-0.12l0.12,0c2.61-0.1,4.81-1.94,6.75-3.57
		c0.47-0.4,0.92-0.77,1.36-1.11L10,1.69l0.08,0.06c0.44,0.34,0.89,0.72,1.36,1.11c1.94,1.63,4.14,3.47,6.75,3.57l0.12,0l0,0.12
		c0,0.27,0.01,0.54,0.02,0.82l0,0.1c0.11,5.29,0.24,11.29-8.29,14.03L10,21.51z M1.93,6.67c0,0.26-0.01,0.53-0.02,0.81
		C1.81,12.67,1.68,18.56,10,21.25c8.32-2.69,8.19-8.58,8.08-13.78l0-0.1c-0.01-0.24-0.01-0.48-0.01-0.71
		c-2.65-0.15-4.84-1.99-6.79-3.62C10.83,2.67,10.41,2.32,10,2C9.59,2.32,9.16,2.67,8.72,3.04C6.78,4.67,4.58,6.52,1.93,6.67z"/>
</g>
<g>
	<polygon class="st0" points="8.83,15.94 4.32,11.42 6.34,9.4 8.83,11.89 13.66,7.06 15.68,9.09 	"/>
</g>
<g>
</g>
<g>
</g>
<g>
</g>
<g>
</g>
<g>
</g>
<g>
</g>
</svg>
