<svg id="b8ba8e6e-5aa3-4d49-999f-59196940c7b6" data-name="Layer 1" xmlns="http://www.w3.org/2000/svg" viewBox="0 0 16 16">
  <defs>
    <style>
      .\38 59e7544-034a-45f0-b44d-39dcca4916e7 {
        fill: #00a2df;
      }

      .ac639627-282f-4968-81b6-226c8a56e91a {
        fill: #fff;
      }
    </style>
  </defs>
  
  <g id="741238ed-6b35-4c05-93a7-d09d01196866" data-name="monitoring">
    <g id="8d230218-2e6c-43ee-8e97-7e1098abd058" data-name="&lt;Group&gt;">
      <path class="859e7544-034a-45f0-b44d-39dcca4916e7" d="M8,16H8c-3.812-1-7-4.062-7-7V4H1A7.982,7.982,0,0,0,7.395.8L7.988,0l.6.8A8.011,8.011,0,0,0,15,4h0V9C15,11.938,11.813,14.917,8,16Z"/>
    </g>
    <g id="e4a1b5b8-a647-464c-97ac-7e2514a3219b" data-name="&lt;Group&gt;">
      <path id="6cf079e1-69fa-447f-8201-d73fccc6115c" data-name="&lt;Path&gt;" class="859e7544-034a-45f0-b44d-39dcca4916e7" d="M8,14H8c-2.723-.75-5-3.047-5-5.25V5H3A5.615,5.615,0,0,0,7.568,2.6L7.992,2l.431.6A5.635,5.635,0,0,0,13,5h0V8.75C13,10.953,10.723,13.188,8,14Z"/>
      <path id="da01c2d7-7813-465d-a967-52f66ff640f6" data-name="&lt;Compound Path&gt;" class="ac639627-282f-4968-81b6-226c8a56e91a" d="M7.994,3.673A6.691,6.691,0,0,0,12,5.922V8.75c0,1.6-1.775,3.436-4.01,4.2C5.8,12.243,4,10.369,4,8.75V5.922A6.668,6.668,0,0,0,7.994,3.673M7.992,2l-.424.6A5.615,5.615,0,0,1,3,5V8.75c0,2.2,2.277,4.5,5,5.25H8c2.723-.812,5-3.047,5-5.25V5h0A5.635,5.635,0,0,1,8.423,2.6L7.992,2Z"/>
    </g>
  </g>
</svg>
