<?xml version="1.0" encoding="utf-8"?>
<!-- Generator: Adobe Illustrator 23.0.1, SVG Export Plug-In . SVG Version: 6.00 Build 0)  -->
<svg version="1.1" id="Layer_1" xmlns="http://www.w3.org/2000/svg" xmlns:xlink="http://www.w3.org/1999/xlink" x="0px" y="0px"
	 viewBox="0 0 24 24" style="enable-background:new 0 0 24 24;" xml:space="preserve">
<style type="text/css">
	.st0{fill:none;}
	.st1{fill:#00A1E4;}
</style>
<title>Icons</title>
<g>
	<path class="st0" d="M15.7,11.4c0,0.1,0,0.3,0,0.4C15.7,11.7,15.7,11.5,15.7,11.4z"/>
	<path class="st0" d="M13.4,2.8h-2.8c-3,0-5.7,1.9-6.7,4.9c0.1,0,0.4,0,0.5,0c2.1,0,3.8,1.6,3.8,3.5c0.1-2,1.8-3.5,3.8-3.5
		s3.7,1.6,3.7,3.5l0,0c0-2,1.7-3.5,3.7-3.5c0.2,0,0.5,0,0.7,0.1C19.2,4.8,16.5,2.8,13.4,2.8z"/>
	<path class="st1" d="M23.3,9.7c0-5.4-4.5-9.7-9.9-9.7h-2.8C5.1,0,0.8,4.4,0.8,9.9v1.4v2.8c0-0.4,0.1-1,0.3-1.4
		c0.3-0.6,0.7-1,1.1-1.3c0.7-0.6,1.6-0.8,2.4-0.8c1.4,0,2.8,0.8,3.4,2.1c0.1,0.4,0.3,1,0.3,1.4c0-0.4,0.1-1,0.3-1.4
		c1-1.8,3.2-2.7,5.2-1.7c0.7,0.4,1.3,1,1.7,1.7c0.1,0.4,0.3,1,0.3,1.4c0-0.4,0.1-1,0.3-1.4l0,0c0.4-0.7,1-1.3,1.7-1.7
		c2-1,4.2-0.1,5.2,1.7l0,0c0.1,0.4,0.3,1,0.3,1.4v-3l0,0L23.3,9.7L23.3,9.7z M15.7,11.8c0-0.1,0-0.3,0-0.4
		C15.7,11.5,15.7,11.7,15.7,11.8z M15.7,11.3L15.7,11.3c0-2-1.7-3.5-3.7-3.5s-3.7,1.6-3.8,3.5c0-2-1.7-3.5-3.8-3.5
		c-0.1,0-0.4,0-0.5,0c1-3,3.6-4.9,6.7-4.9h2.8c3.1,0,5.8,2,6.7,5c-0.2,0-0.5-0.1-0.7-0.1C17.4,7.8,15.7,9.3,15.7,11.3z"/>
	<path class="st1" d="M10.7,19.9c0,0.7-0.6,1.3-1.3,1.3H9.1c-0.7,0-1.3-0.6-1.3-1.3H5C5,22.2,6.8,24,9.1,24h0.3
		c2.3,0,4.1-1.8,4.1-4.1v-5.8h-2.8V19.9z"/>
</g>
</svg>
