<svg id="3f623832-7c9a-4371-81b0-167126a5e264" data-name="Layer 1" xmlns="http://www.w3.org/2000/svg" viewBox="0 0 16 16">
  <defs>
    <style>
      .\32 c34bdc8-73d4-4c5d-afd1-a82603bc7b9e {
        fill: none;
      }

      .\39 0be04ae-2478-4a81-98bf-3d49a7a5c7e5 {
        fill: #8998a3;
      }

      .\32 ed01659-7b5e-47fe-bb7e-49c580323b70 {
        fill: #738593;
      }
    </style>
  </defs>
  <title>icon</title>
  <g id="400be9f4-cfa0-4c41-85d2-89177c5bfc26" data-name="insurance">
    <g>
      <path class="2c34bdc8-73d4-4c5d-afd1-a82603bc7b9e" d="M5.333,8A2.584,2.584,0,0,1,8,5.5,2.584,2.584,0,0,1,10.667,8a2.584,2.584,0,0,1,2.667-2.5,2.815,2.815,0,0,1,.422.035A4.99,4.99,0,0,0,9,2H7A4.99,4.99,0,0,0,2.245,5.535,2.816,2.816,0,0,1,2.667,5.5,2.584,2.584,0,0,1,5.333,8Z"/>
      <path class="90be04ae-2478-4a81-98bf-3d49a7a5c7e5" d="M0,8v2a2.349,2.349,0,0,1,.229-.991A2.36,2.36,0,0,1,0,8Z"/>
      <path class="90be04ae-2478-4a81-98bf-3d49a7a5c7e5" d="M16,10V8a2.36,2.36,0,0,1-.229,1.009A2.349,2.349,0,0,1,16,10Z"/>
      <path class="2ed01659-7b5e-47fe-bb7e-49c580323b70" d="M9,0H7A7,7,0,0,0,0,7V8A2.36,2.36,0,0,0,.229,9.009,2.467,2.467,0,0,1,1,8.05,2.757,2.757,0,0,1,2.667,7.5,2.672,2.672,0,0,1,5.109,9a2.361,2.361,0,0,1,.224,1,2.361,2.361,0,0,1,.224-1A2.672,2.672,0,0,1,8,7.5,2.672,2.672,0,0,1,10.443,9a2.361,2.361,0,0,1,.224,1,2.361,2.361,0,0,1,.224-1,2.672,2.672,0,0,1,2.443-1.5A2.757,2.757,0,0,1,15,8.05a2.467,2.467,0,0,1,.775.959A2.36,2.36,0,0,0,16,8V7A7,7,0,0,0,9,0Zm4.333,5.5A2.584,2.584,0,0,0,10.667,8,2.584,2.584,0,0,0,8,5.5,2.584,2.584,0,0,0,5.333,8,2.584,2.584,0,0,0,2.667,5.5a2.816,2.816,0,0,0-.422.035A4.99,4.99,0,0,1,7,2H9a4.99,4.99,0,0,1,4.755,3.535A2.815,2.815,0,0,0,13.333,5.5Z"/>
    </g>
    <path id="84742d19-c31c-4ebb-922a-64e0f310670d" data-name="&lt;Path&gt;" class="2ed01659-7b5e-47fe-bb7e-49c580323b70" d="M6.114,16H5.886A2.9,2.9,0,0,1,3,13.1H5a.9.9,0,0,0,.886.9h.229A.9.9,0,0,0,7,13.1V9H9v4.1A2.9,2.9,0,0,1,6.114,16Z"/>
  </g>
</svg>
