<?xml version="1.0" encoding="utf-8"?>
<!-- Generator: Adobe Illustrator 19.0.0, SVG Export Plug-In . SVG Version: 6.00 Build 0)  -->
<svg version="1.1" id="Layer_1" xmlns="http://www.w3.org/2000/svg" xmlns:xlink="http://www.w3.org/1999/xlink" x="0px" y="0px"
	 viewBox="0 0 96 93.3" style="enable-background:new 0 0 96 93.3;" xml:space="preserve">
<style type="text/css">
	.st0{fill-rule:evenodd;clip-rule:evenodd;fill:#ED1C24;}
</style>
<g>
	<polygon class="st0" points="1.1,70.7 95.9,70.7 95.9,69.8 1.1,69.8 1.1,70.7 	"/>
	<path class="st0" d="M37.2,79.7c-0.1,1-0.9,4.6-2.4,11c-0.3,1.3-0.9,2.1-1.8,2.6h-3.4c1.2-0.6,2-1.7,2.4-3.2l0.2-0.5
		c-0.3,0.2-0.7,0.3-1.3,0.3c-2,0-3.3-1.1-3.8-3.2l-1.5-6.9c-0.3-1.2-0.8-2-1.5-2.4h2.5c1,0,1.6,0.8,2,2.4L30,86l0.5,1.8
		c0.3,0.7,0.8,1,1.2,1c0.1,0,0.3-0.1,0.5-0.3l1.8-8.9c0.3-1.3,0.2-2.1-0.3-2.4H36c0.4,0,0.7,0.2,1,0.5
		C37.3,78.3,37.3,78.9,37.2,79.7L37.2,79.7z"/>
	<path class="st0" d="M62.8,77.3h2.1c0.8,0,1.3,0.1,1.6,0.4c0.3,0.3,0.5,0.9,0.6,1.8c0.4-1.6,1.3-2.5,2.7-2.5c0.9,0,1.5,0.3,1.7,0.9
		v2.2c-0.4-0.5-1-0.8-1.7-0.9c-0.7-0.1-1.3,0-1.8,0.4c-0.3,0.2-0.5,0.3-0.5,0.4c-0.1,0.2-0.2,0.5-0.3,0.9v6.2c0,0.7,0.2,1.3,0.6,1.8
		l0.7,0.7h-3.4c-0.7,0-1-0.8-1-2.5v-7.4C64.1,78.3,63.6,77.5,62.8,77.3L62.8,77.3z"/>
	<path class="st0" d="M87.4,83.3c0,1.4,0.3,2.6,0.8,3.7c0.5,1,1.2,1.5,1.8,1.5c0.7,0,1.3-0.5,1.9-1.5c0.5-1,0.8-2.2,0.8-3.7
		c0-1.4-0.3-2.6-0.8-3.6c-0.6-1-1.2-1.5-1.9-1.5c-0.7,0-1.3,0.5-1.8,1.5C87.7,80.7,87.4,81.9,87.4,83.3L87.4,83.3z M96,83.4
		c0,1.8-0.6,3.3-1.7,4.5c-1.1,1.2-2.5,1.8-4.1,1.8c-1.7,0-3.1-0.5-4.2-1.6c-1.1-1.1-1.7-2.7-1.7-4.8c0-1.8,0.6-3.2,1.7-4.5
		c1.1-1.2,2.5-1.8,4.2-1.8c1.7,0,3,0.5,4.1,1.6C95.4,79.9,96,81.5,96,83.4L96,83.4z"/>
	<path class="st0" d="M14.8,74.2c1.1,0,1.7,0.9,1.7,2.8v5.5c2.5-2.1,3.7-3.9,3.4-5.3h2.9c0.2,1.3-1.5,3.1-5,5.4
		c1.9,0,3.3,0.8,3.9,2.6l1.1,2.5c0.5,0.9,1.3,1.5,2.1,1.8h-3c-1.3-0.1-2.2-1.4-2.8-3.7c-0.2-0.8-0.5-1.5-1-1.9
		c-0.5-0.7-1.1-0.8-1.7-0.3v3.9c0,0.9,0.4,1.6,1.2,2h-3.2c-0.6-0.1-0.9-0.8-0.9-2.2V77.2c0-1.6-0.4-2.6-1.2-3H14.8L14.8,74.2z"/>
	<path class="st0" d="M2.5,75c1-0.7,2.1-1.1,3.6-1.1c1.7,0,3,0.5,4.1,1.3l0,2.4c-0.6-1.5-1.7-2.3-3.2-2.4c-1.8,0-2.6,0.7-2.6,2
		c0,0.7,0.5,1.3,1.4,1.8c3.6,2,5.5,3.9,5.5,5.8c0,1.5-0.6,2.6-1.8,3.6c-1.2,0.9-2.5,1.4-4.1,1.4c-1.6,0-3-0.4-4.1-1.1V86
		c0.7,1.6,1.8,2.4,3.3,2.4c1.3,0,2.2-0.3,2.9-0.9c0.5-0.5,0.8-1.1,0.8-1.8c0-1.1-1.1-2.2-3.2-3.3c-1.3-0.8-2.4-1.5-2.9-2.2
		c-0.6-0.7-0.9-1.5-0.9-2.5C1.2,76.6,1.6,75.7,2.5,75L2.5,75z"/>
	<path class="st0" d="M75.2,83.9c0,1.3,0.3,2.4,0.8,3.2c0.5,0.9,1.3,1.4,2.4,1.4c0.6,0,1-0.2,1.2-0.7v-7.6c-0.5-1.3-1.2-2-2.2-2
		C75.9,78.2,75.2,80.1,75.2,83.9L75.2,83.9z M73.6,78.9c1-1.3,2.3-1.8,3.8-1.8c1.1,0,1.8,0.4,2.3,1.2c0.1-0.7,0.3-1,0.8-1h2.8
		c-0.4,0.4-0.6,1.1-0.6,2v7.8c0,1.6-0.1,2.7-0.2,3.3c-0.3,1.3-0.9,2.3-1.9,2.9h-3.4c1.6-1.1,2.5-2.6,2.5-4.6l-0.4,0.6
		c-0.4,0.4-0.9,0.5-1.7,0.5c-1.6,0-2.9-0.5-3.9-1.7C72.5,87,72,85.5,72,83.8C72,81.8,72.5,80.2,73.6,78.9L73.6,78.9z"/>
	<path class="st0" d="M56.8,83l0.8-0.6v5.2c-0.4,0.6-1,0.9-1.8,0.9c-0.4,0-0.8-0.2-1.1-0.5c-0.4-0.3-0.5-0.8-0.5-1.3
		c0-1.1,0.5-2.1,1.4-2.9L56.8,83L56.8,83z M53.2,83.5c-1.2,0.8-1.8,1.9-1.8,3.3c0,0.9,0.3,1.6,1,2.2c0.6,0.5,1.4,0.8,2.2,0.8
		c1,0,1.8-0.3,2.4-0.8l0.6-0.9c0.1,0.9,0.5,1.4,0.9,1.5H62c-0.9-0.6-1.3-1.4-1.3-2.4v-6.9c0-0.8-0.4-1.6-1.2-2.2
		c-0.8-0.7-1.7-1-2.8-1c-1.3,0-2.4,0.4-3.2,1.1v2.2c0.6-1.3,1.4-1.9,2.5-1.9c1.3,0,1.9,0.5,1.9,1.5c0,0.9-0.5,1.6-1.4,2l-1.7,0.7
		C54.1,82.8,53.6,83.2,53.2,83.5L53.2,83.5z"/>
	<path class="st0" d="M47,75.2c-1.2,0-2.2,0.6-2.9,1.8c-0.8,1.3-1.2,2.9-1.2,4.9c0,1.5,0.3,2.9,0.8,4.1c0.5,1.1,1.2,1.9,2,2.3
		l1.8,0.2c1-0.2,1.9-0.8,2.6-1.9v2.6c-0.9,0.5-2.2,0.8-3.7,0.8c-2.1,0-3.9-0.7-5.2-2.2c-1.3-1.4-1.9-3.2-1.9-5.4
		c0-2.6,0.7-4.7,2.1-6.1c1.3-1.5,3.2-2.2,5.4-2.2c1.2,0,2.3,0.3,3.4,0.8l0,2.7l-0.8-1.2C48.8,75.5,48,75.2,47,75.2L47,75.2z"/>
	<path class="st0" d="M53.8,3.9c-0.3,0.3-1.2,1.8-1.2,3.6c0,0.4,0,10.6,0,11c0,0.8-0.4,1.9-0.8,2.3c-0.3,0.3-1.9,1.8-2.2,1.9h1
		c0.4-0.3,3.7-3.2,4-3.6c0.4-0.6,1.5-1.8,1.5-3.7c0-0.6,0-10.2,0-10.8c0-1.5,0.7-2.5,1.1-2.9c0.4-0.4,1.7-1.5,1.9-1.7l-1-0.1
		C57.8,0.3,54.3,3.6,53.8,3.9L53.8,3.9z"/>
	<path class="st0" d="M45.7,44.2l4,3.6h2.8c2.8,0,5.2-1.2,6.9-2.9c1.7-1.7,2.2-3.9,2.2-5.9c0-1.5,0-5.5,0-5.8c0-1.9-1.1-3-1.5-3.3
		c-0.1-0.3-1.4-1.4-1.4-1.4v4.4c0,0,1.4,1.4,1.5,1.7c1.2,1.2,1.2,3.6-2.5,7.3c-0.7,0.6-2.6,2.3-5.2,2.3
		C52.2,44.2,45.7,44.2,45.7,44.2L45.7,44.2z"/>
	<path class="st0" d="M56.9,20.6C56.5,21,56,22.2,56,23.2c0,0.6,0,2.2,0,2.2s1.8,0,2.2,0c0.8,0,1.9-0.8,2.2-1.2v-2.1
		c0,0,0.6,0.8,1.2,1.2c0.1-0.3,2.2-2.8,3.9-2.8c2.9,0,2.2,3.5,1.1,4.7c-0.4,0.3-2.1,1.8-2.6,2.3c-1.2,1.2-3.6,0.7-3.6-2.6
		c0,0-2.5,2.3-2.8,2.6c-0.4,0.3-1.7,1.7-1.7,1.7s0,5.1,0,5.7c0,2.8-1,3.7-1.7,4.6c-0.3,0.3-3.5,3.2-3.9,3.5h-1c0,0,1.8-1.7,2.2-1.9
		c0.4-0.6,0.8-1.4,0.8-2.8c0-0.4,0-9.1,0-9.1s-13.5,0-14.1,0c-5,0-5.9-5.4-6.1-6.9c0-0.4,0-4.7,0-5.4c0-1-0.6-2.5-1.4-2.9h1.4
		c0.1,0,1,0.4,1,3.7c0,0,0,3.9,0,4.1c0,1.7,1.2,3.6,3.3,3.6c0.3,0,15.9,0,15.9,0c0-0.4,0.4-2.1,1.2-2.9c0.4-0.6,3.9-3.6,4.3-4h1
		C58.9,18.6,57.3,20.2,56.9,20.6L56.9,20.6z M62.1,23.9c0,0,1,1.2,1.4,1.5c1.8,1.4,2.6-0.1,1.4-1.7C64.5,23.1,62.7,23.3,62.1,23.9
		L62.1,23.9z"/>
	<path class="st0" d="M45,34.1c0,0.8-2.5,2.9-2.6,3c-0.1-0.8-0.7-1.8-2.6-3.6l2.8-2.8C44.3,32.6,45,33,45,34.1L45,34.1z"/>
	<path class="st0" d="M49.7,3.2c0.6,0.6,1.8,2.1,1,2.8c-0.6,0.6-1.5,1.7-1.5,1.7c0-0.4-1-1.2-1-1.2s0,2.6,0,2.9
		c0,1.2-0.4,1.5-0.4,1.5s2.2,2.2,2.2,5c0,1.2,0,2.5,0,2.8c0,0.6-0.3,1.1-0.6,1.5c-0.3,0.1-2.2,2.2-2.6,2.5c-0.6,0.6-1.1,0.6-1.7,0.6
		c-0.3,0-7.2,0-7.5,0c-1.1,0-2.3-0.8-2.3-1.8c0-0.3,0-2.8,0-2.8c0.4,0.4,0.8,1,1.7,1c0.8,0,1.5-0.7,1.8-0.8c0.1-0.3,5.7-5.9,5.7-5.9
		s-2.6-2.3-4.3-3.5c-0.8-0.6-1.9,0.1-2.1,0.8c-0.4,2.3,0,5.7,0,5.7s-1.7-1.7-2.1-2.1c-0.8-0.8-0.8-2.6,0.3-3.7
		c0.1-0.1,1.7-1.8,3.6-1.8c0.3,0,2.6,0,2.9,0c2.1,0,4.3,1.9,4.3,1.9s0.3-0.3,0.3-0.7c0-1,0-3.7,0-3.7c-1.5-1.5-1.8-3-1-3.9
		C47.6,0.6,48.2,0,48.2,0S48.2,1.7,49.7,3.2L49.7,3.2z M40.3,18.2c-0.7,0.8-0.8,1-1.5,1.4c0,0,8.1,0,8.4,0c2.2,0,1.8-1.4,1.4-2.1
		c-0.8-1.5-3.5-4.3-3.5-4.3S40.4,18.1,40.3,18.2L40.3,18.2z"/>
	<path class="st0" d="M30.8,26h-1.5c0,0,1.5,0.8,1.5,2.9c0,0.6,0,6.4,0,6.8c0,4.4,3.6,8.4,8,8.4c0.8,0,3.2,0,3.7,0
		c2.2,0,2.9-0.6,4.3-1.8c0.4-0.4,1.1-1.1,1.4-1.4c0.7-0.8,1.5-1.5,1.5-3.7c0-0.6,0-1.9,0-2.2c0-1.9-1.1-2.8-1.7-3.3
		c-0.3-0.3-1.2-1.2-1.2-1.2v4.6c0,0,1,1,1.4,1.4c1.9,1.4,0.4,4-1.4,4c-0.4,0-7.6,0-8.1,0c-2.9,0.1-6.9-2.5-6.9-6.9
		c0-0.7,0-3.3,0-3.7C31.8,26,30.8,26,30.8,26L30.8,26z"/>
	<path class="st0" d="M39.5,34.1c0,0.8-2.5,2.9-2.5,3c-0.3-0.8-0.8-1.8-2.8-3.6l2.8-2.8C38.8,32.6,39.5,33,39.5,34.1L39.5,34.1z"/>
	<path class="st0" d="M11.3,64.1c-0.4,0-3.9,0-4.3,0c-1.4,0-1.2-1.1-1.4-2.1v-6.2c0,0,1,0,2.1,0c1.1,0,2.6-0.1,4,0.7
		c0,0-1-2.6-4-2.6H5.7c0,0,0-0.3,0-1.1v-0.8c0,0,0-1.7-0.4-2.2c0,0,2.6,0,2.9,0c2.3,0,4.3,0,6.4,1.2c0,0-0.4-3.2-5.2-3.2
		c-2.8,0-8.8,0-9.2,0c0,0,1.7,1.4,1.5,4.1l0.1,11.3c0,2.8,1.1,2.9,1.1,2.9c0.1,0,0.7,0,3.2,0c0.4,0,1,0,1.4,0c1.4,0,3.2,0,4.6,0
		c2.1,0,2.9-1.5,2.9-2.3v-1.1C14.8,62.7,14.1,64.1,11.3,64.1L11.3,64.1z"/>
	<path class="st0" d="M35.8,63.1v-7.9c0-3-2.5-3.9-4.4-3.9c-2.3,0-3.2,2.1-3.5,2.8c-0.6-1.9-2.5-2.8-4-2.8c-3,0-3.7,2.8-3.7,2.8
		s-0.1-2.6-2.5-2.6h-2.3c0,0,1.4,0.6,1.4,2.9v8.7c0,2.9,1.1,3,1.1,3h3.9c-0.1-0.1-1.5-1.1-1.5-3v-7.7c0.1-0.4,0.7-1.5,2.3-1.5
		c1,0,1.9,1,1.9,2.1v7.2c0,2.9,1.1,2.9,1.1,2.9h3.9c0,0-1.4-1-1.4-2.9v-7.7c0.1-0.4,0.6-1.5,2.1-1.5c1.1,0,2.1,1,2.1,2.1
		c0,0,0,6.6,0,7.2c0,3,1.2,2.9,1.2,2.9c1.9,0,3.9,0,3.9,0S35.8,65,35.8,63.1L35.8,63.1z"/>
	<path class="st0" d="M42.5,63.1C42.5,65,44,66,44,66s-1.9,0-3.9,0c0,0-1.2,0.1-1.2-2.9l0,0v-8.7c0-2.3-1.2-2.9-1.2-2.9H40
		c0.8,0,2.5,0,2.5,3.2V63.1L42.5,63.1L42.5,63.1z"/>
	<path class="st0" d="M54.4,52.6c0,0-0.3-1.1-1.9-1.1c-2.5,0-3,2.9-3,2.9c-0.1-2.3-0.8-3-2.5-3h-2.3c0,0,1.4,0.6,1.4,3v8.7
		c0,2.9,1.1,2.9,1.1,2.9h3.9c-0.1,0-1.5-1-1.5-2.9v-7.2c0.1-0.7,0.6-1.1,1-1.5c1.2-0.8,3-0.6,4,0.6C54.4,54.9,54.4,53.4,54.4,52.6
		L54.4,52.6z"/>
	<path class="st0" d="M72.5,53c1.2,0,2.2,0.7,2.2,0.7v-2.2h-3.2V48c0,0-0.8,1.5-2.6,2.9c-1.1,1-3.5,2.1-3.5,2.1h2.5v10.2
		c0,2.8,1.2,2.8,1.2,2.8c2.1,0,3.9,0,3.9,0s-1.5-1-1.5-2.8V53C72.5,53,71.8,53,72.5,53L72.5,53z"/>
	<path class="st0" d="M84.2,57.4C82,59.8,80.3,59.4,79,61c0,0,0.1,2.3,1.9,3c0.6,0.3,3,1.2,4.6-1.5v2.3c0,0-1,1.2-4.1,1.2
		c-3.9,0-6.5-3-6.5-7c0-4,2.2-7.7,6.2-7.7C84.9,51.4,87,54.5,84.2,57.4L84.2,57.4z M81.9,56.6c0.6-1.2,1.1-4.3-1.1-4.1
		c-2.5,0.3-2.1,7-2.1,7C79.5,58.5,80.9,58.4,81.9,56.6L81.9,56.6z"/>
	<path class="st0" d="M40.7,50.2c1,0,1.8-0.8,1.8-1.8c0-1-0.8-1.8-1.8-1.8c-1,0-1.8,0.8-1.8,1.8C38.9,49.4,39.8,50.2,40.7,50.2
		L40.7,50.2z"/>
	<path class="st0" d="M58.4,64.3c-0.8,0-1.5-0.8-1.5-1.8c0-3.6,3-4.1,3.9-5.1v6.1C60.3,63.9,60.1,64.3,58.4,64.3L58.4,64.3z
		 M60.7,56c-1,1.5-7.9,1.8-6.8,7.3c0.4,2.1,1.8,2.8,3.6,2.8c1.8,0,2.8-1,3.2-1.8C61,66,61.8,66,61.8,66c2.1,0,3.9,0,3.9,0
		s-1.5-1-1.5-2.9v-8.1c0-1.9-2.2-3.6-4.4-3.6c-2.2,0-3.7,1.1-3.7,1.1c0,0.7,0,2.6,0,2.6s0.8-2.1,2.9-2.1c1.9,0,2.1,1,2.1,1.5
		C61,54.5,61.2,55.1,60.7,56L60.7,56z"/>
	<path class="st0" d="M92.8,62.1c0,1-1,2.3-2.9,2.3c-2.1,0-2.8-2.1-2.8-2.1V65c0,0,1.4,1.1,3.6,1.1c2.6,0,5.4-2.1,5.2-4.8
		c0-1-0.3-1.8-0.8-2.6c-1-1.1-2.6-1.9-3.9-2.8c-0.7-0.4-1.1-1.2-1.1-1.5c0-0.6,0.3-1.5,2.2-1.5c1.9,0,2.8,2.1,2.8,2.1v-2.5
		c0,0-1.5-1.1-3.7-1.1c-2.3,0-4.4,1.5-4.4,3.5c0.1,1.8,0.8,2.9,2.2,3.9c0.6,0.4,1.2,0.8,2.1,1.2C92.4,60.6,92.8,61.3,92.8,62.1
		L92.8,62.1z"/>
</g>
</svg>
