<?xml version="1.0" encoding="utf-8"?>
<!-- Generator: Adobe Illustrator 19.0.0, SVG Export Plug-In . SVG Version: 6.00 Build 0)  -->
<svg version="1.1" id="Layer_1" xmlns="http://www.w3.org/2000/svg" xmlns:xlink="http://www.w3.org/1999/xlink" x="0px" y="0px"
	 viewBox="0 0 96 17.2" style="enable-background:new 0 0 96 17.2;" xml:space="preserve">
<style type="text/css">
	.st0{fill:url(#XMLID_155_);}
	.st1{fill:url(#XMLID_156_);}
	.st2{fill:url(#XMLID_157_);}
	.st3{fill:url(#XMLID_158_);}
	.st4{fill:url(#XMLID_159_);}
	.st5{fill:#8D734A;}
	.st6{fill:#8E9090;}
	.st7{fill:#006679;}
</style>
<g id="XMLID_21_">
</g>
<g id="XMLID_23_">
</g>
<g id="XMLID_27_">
</g>
<g id="XMLID_30_">
</g>
<g id="XMLID_33_">
</g>
<g id="XMLID_35_">
</g>
<g id="XMLID_37_">
</g>
<g id="XMLID_48_">
	<g>
		<g>
			
				<radialGradient id="XMLID_155_" cx="952.6653" cy="-25.8951" r="36.9241" gradientTransform="matrix(0.1823 0 0 0.183 -121.0427 7.5274)" gradientUnits="userSpaceOnUse">
				<stop  offset="0" style="stop-color:#E3E3E3"/>
				<stop  offset="1.294291e-002" style="stop-color:#E2E2E2"/>
				<stop  offset="0.445" style="stop-color:#BABABA"/>
				<stop  offset="0.789" style="stop-color:#A2A2A2"/>
				<stop  offset="1" style="stop-color:#999999"/>
			</radialGradient>
			<path id="XMLID_147_" class="st0" d="M53.3,17.2c0-6.2-4.5-6.8-4.5-11.3c0,0,0.1-2.3,1.5-3.8c-1.9,3.4,7.5,8.9,7.5,12.1
				C57.8,17.4,53.3,17.2,53.3,17.2z"/>
			
				<radialGradient id="XMLID_156_" cx="952.6644" cy="-25.8914" r="36.9242" gradientTransform="matrix(0.1823 0 0 0.183 -121.0427 7.5274)" gradientUnits="userSpaceOnUse">
				<stop  offset="0" style="stop-color:#E3E3E3"/>
				<stop  offset="1.294291e-002" style="stop-color:#E2E2E2"/>
				<stop  offset="0.445" style="stop-color:#BABABA"/>
				<stop  offset="0.789" style="stop-color:#A2A2A2"/>
				<stop  offset="1" style="stop-color:#999999"/>
			</radialGradient>
			<path id="XMLID_146_" class="st1" d="M55.4,0.2c-3.7-0.2-4.8,1.6-4.8,1.6C48.5,5.4,58,11,58,14c0,1-0.1,1.7-0.9,2.2
				c0,0,4.1-1.9,4.1-4.4c0-3.8-7.3-6.7-7.4-9.7C53.9,0.6,55.4,0.2,55.4,0.2z"/>
			
				<linearGradient id="XMLID_157_" gradientUnits="userSpaceOnUse" x1="-155.9747" y1="-0.3688" x2="-166.5152" y2="3.6227" gradientTransform="matrix(-1 0 0 1 -100.3789 0)">
				<stop  offset="0.4944" style="stop-color:#A29061"/>
				<stop  offset="0.5448" style="stop-color:#A49365"/>
				<stop  offset="0.6096" style="stop-color:#AB9B70"/>
				<stop  offset="0.6823" style="stop-color:#B7A984"/>
				<stop  offset="0.7602" style="stop-color:#CBBFA3"/>
				<stop  offset="0.766" style="stop-color:#CDC1A6"/>
				<stop  offset="0.8933" style="stop-color:#D3C9B2"/>
				<stop  offset="0.9244" style="stop-color:#CEC3A8"/>
				<stop  offset="0.9797" style="stop-color:#C0B390"/>
				<stop  offset="1" style="stop-color:#BBAD87"/>
			</linearGradient>
			<path id="XMLID_145_" class="st2" d="M68.4,0c-1,0.8-2.7,1.2-5,1.2c-2.4,0-6.7-0.9-7.5-0.9c-1.6,0-2.5,2-1.1,3.5
				c0,0,0.7-0.8,1.4-1c1.9-0.6,4.4,0.4,8.5-0.4C67.1,2,68,1,68.4,0z"/>
			
				<linearGradient id="XMLID_158_" gradientUnits="userSpaceOnUse" x1="-155.3956" y1="1.1717" x2="-165.9348" y2="5.1626" gradientTransform="matrix(-1 0 0 1 -100.3789 0)">
				<stop  offset="0.4944" style="stop-color:#A29061"/>
				<stop  offset="0.5448" style="stop-color:#A49365"/>
				<stop  offset="0.6096" style="stop-color:#AB9B70"/>
				<stop  offset="0.6823" style="stop-color:#B7A984"/>
				<stop  offset="0.7602" style="stop-color:#CBBFA3"/>
				<stop  offset="0.766" style="stop-color:#CDC1A6"/>
				<stop  offset="0.8933" style="stop-color:#D3C9B2"/>
				<stop  offset="0.9244" style="stop-color:#CEC3A8"/>
				<stop  offset="0.9797" style="stop-color:#C0B390"/>
				<stop  offset="1" style="stop-color:#BBAD87"/>
			</linearGradient>
			<path id="XMLID_144_" class="st3" d="M64.7,2.6c1.2-0.2,2.1-0.6,2.7-1C67,2.5,66.1,3.7,64,4.5c-1.7,0.6-5.8-0.2-6.4,1.9
				c-1-0.7-2.7-2.5-2.7-2.5s0.7-0.7,1.3-1C58.1,2.3,60.6,3.3,64.7,2.6"/>
			
				<linearGradient id="XMLID_159_" gradientUnits="userSpaceOnUse" x1="-154.7717" y1="2.8349" x2="-165.3087" y2="6.825" gradientTransform="matrix(-1 0 0 1 -100.3789 0)">
				<stop  offset="0.4944" style="stop-color:#A29061"/>
				<stop  offset="0.5448" style="stop-color:#A49365"/>
				<stop  offset="0.6096" style="stop-color:#AB9B70"/>
				<stop  offset="0.6823" style="stop-color:#B7A984"/>
				<stop  offset="0.7602" style="stop-color:#CBBFA3"/>
				<stop  offset="0.766" style="stop-color:#CDC1A6"/>
				<stop  offset="0.8933" style="stop-color:#D3C9B2"/>
				<stop  offset="0.9244" style="stop-color:#CEC3A8"/>
				<stop  offset="0.9797" style="stop-color:#C0B390"/>
				<stop  offset="1" style="stop-color:#BBAD87"/>
			</linearGradient>
			<path id="XMLID_143_" class="st4" d="M60.2,8.9c0-0.3,0.1-0.8,0.5-1.2c0.7-0.7,4.7-1.2,5.5-4.2l0,0c-0.6,0.7-1.8,1.1-2.1,1.2
				c-1.8,0.6-4.3,0.1-5.7,0.9c-0.6,0.3-0.7,0.9-0.7,0.9S59,7.5,60.2,8.9z"/>
		</g>
	</g>
	<g>
		<g>
			<polygon id="XMLID_142_" class="st5" points="44,8.5 45.7,3.5 44.6,3.5 42.9,8.5 			"/>
			<polygon id="XMLID_141_" class="st5" points="28.7,8.5 30.4,3.5 29.4,3.5 27.6,8.5 			"/>
			<polygon id="XMLID_140_" class="st5" points="21.2,8.5 22.9,3.5 21.8,3.5 20.1,8.5 			"/>
			<path class="st5" d="M43,3.5l-1.3,3.9h-0.8L41,6.9c0.2-0.5-0.1-0.9-0.5-0.9h-2.9c-0.2,0-0.4,0.1-0.5,0.2L38,3.5h-1l-1.3,3.9H35
				L35.4,6h-1l-0.5,1.3h-2.5l0.3-0.9h-1.2l-0.7,2.1l-1,0c-0.1,0.3-0.1,0.6,0.1,0.8c0.1,0.2,0.4,0.3,0.7,0.3c0.3,0,0.6-0.1,0.8-0.3
				c0.3-0.2,0.4-0.5,0.5-0.8l0-0.1h11.3v0L44,3.5H43z M39.8,7.4h-3.1C36.7,7.2,36.8,7,37,7h2.5C39.7,7,39.8,7.2,39.8,7.4z"/>
			<path id="XMLID_125_" class="st5" d="M24.7,7.5c-0.6,0.1-0.9,0.7-1,1.1c-0.1,0.3-0.1,0.6,0.1,0.8c0.1,0.2,0.6,0.4,0.9,0.4
				c0.3,0,1,0,1.6-0.4c0.3-0.2,0.6-0.5,0.7-0.8l0-0.1l0.4-1.1l0.3-0.9h-1.2l-0.7,2h-1.4L24.7,7.5z"/>
			<path class="st5" d="M21.2,3.5h-1l-1.3,3.9h-2.4l0-0.1c0.1-0.2,0.3-0.4,0.4-0.4h1.2l0.4-1.1c-0.2,0-0.2,0.1-0.4,0.1h-1.8
				c-0.2,0-0.5,0.2-0.6,0.4l-0.3,1H14c0-0.5-0.3-0.9-0.9-0.9c-0.5,0-1.1,0.4-1.5,0.9h-1.5l1.3-3.9h-1l-1.7,5h2.5
				c0.1,0.4,0.4,0.7,0.9,0.7c0.5,0,1-0.3,1.4-0.7h5.9L21.2,3.5z M13,7.8c-0.1,0.2-0.3,0.4-0.5,0.4c-0.2,0-0.3-0.2-0.2-0.4
				c0.1-0.2,0.3-0.4,0.5-0.4C13,7.4,13.1,7.6,13,7.8z"/>
			<path id="XMLID_122_" class="st5" d="M7.9,6.4l-0.4,1H5.9L5.8,7.5L6,7h0l0.5-1.5c-0.1,0-0.4,0.4-0.8,0.4H3.8
				c-0.2,0-0.5,0.2-0.6,0.4l0,0.1l0,0L3,7L2.8,7.7l0,0L2.5,8.5H1.1l0.3-1c-0.6,0.1-0.9,0.7-1,1.1C0.3,8.9,0.3,9.1,0.5,9.4
				c0.1,0.2,0.6,0.4,0.9,0.4c0.3,0,1,0,1.6-0.4c0.3-0.2,0.6-0.5,0.7-0.8l0-0.1l0.4-1.1L4.2,7h0.7L4.4,8.5h1l0,0h2.4
				c0.1,0,0.1,0,0.2-0.1c0.1-0.1,0.1-0.1,0.2-0.2l0.6-1.7H7.9z"/>
			<path id="XMLID_121_" class="st5" d="M8.1,5.5C8.1,5.8,8.3,6,8.5,6c0.3,0,0.5-0.2,0.6-0.5C9.1,5.2,8.9,5,8.7,5
				C8.4,5,8.2,5.2,8.1,5.5z"/>
			<path id="XMLID_120_" class="st5" d="M1.6,10.4c0,0.3,0.1,0.5,0.4,0.5c0.2,0,0.5-0.2,0.5-0.5c0-0.3-0.1-0.5-0.4-0.5
				C1.8,10,1.6,10.2,1.6,10.4z"/>
			<path id="XMLID_119_" class="st5" d="M0.4,10.4c0,0.3,0.1,0.5,0.4,0.5c0.2,0,0.5-0.2,0.5-0.5c0-0.3-0.1-0.5-0.4-0.5
				C0.7,10,0.5,10.2,0.4,10.4z"/>
			<path id="XMLID_118_" class="st5" d="M33.4,9.4c0,0.3,0.1,0.5,0.4,0.5c0.2,0,0.5-0.2,0.5-0.5c0-0.3-0.1-0.5-0.4-0.5
				C33.7,8.9,33.5,9.1,33.4,9.4z"/>
			<path id="XMLID_117_" class="st5" d="M32.3,9.4c0,0.3,0.1,0.5,0.4,0.5c0.2,0,0.5-0.2,0.5-0.5c0-0.3-0.1-0.5-0.4-0.5
				C32.6,8.9,32.3,9.1,32.3,9.4z"/>
			<path id="XMLID_116_" class="st5" d="M25,6.2c0,0.3,0.1,0.5,0.4,0.5c0.3,0,0.5-0.2,0.6-0.5c0-0.3-0.1-0.5-0.4-0.5
				C25.3,5.7,25.1,6,25,6.2z"/>
			<path class="st5" d="M16.3,4.4c-0.3,0-0.5,0.2-0.6,0.5c0,0,0,0.1,0,0.1v0c0,0.1-0.6,0.1-0.6,0.1l-0.1,0.4c0,0,0.7-0.1,1.1-0.1
				c0,0,0,0,0.1,0h0h0c0.2-0.1,0.4-0.3,0.5-0.5C16.8,4.7,16.6,4.4,16.3,4.4z M16.4,5c0,0.1-0.1,0.2-0.2,0.2c-0.1,0-0.2-0.1-0.1-0.2
				c0-0.1,0.1-0.2,0.2-0.2C16.3,4.8,16.4,4.9,16.4,5z"/>
		</g>
		<g>
			<path class="st6" d="M0.1,15.3L0.5,14c0.4-1.4,1.7-1.7,3.3-1.7c1.6,0,2.7,0.3,2.2,1.7l-0.4,1.3c-0.4,1.4-1.7,1.7-3.3,1.7
				C0.7,16.9-0.3,16.7,0.1,15.3z M4,15.1l0.3-1c0.2-0.7-0.1-0.7-0.9-0.7c-0.8,0-1.1,0.1-1.3,0.7l-0.3,1c-0.2,0.7,0.1,0.7,0.9,0.7
				C3.5,15.9,3.8,15.8,4,15.1z"/>
			<path class="st6" d="M7.4,16.9H5.8l1.4-4.6h2.5l0.2,2.9H10l2-2.9h2.6l-1.4,4.6h-1.6l1.3-3.5h-0.1l-2.6,3.5H8.8l-0.4-3.5h0
				L7.4,16.9z"/>
			<path class="st6" d="M15.8,16.1l-0.5,0.8h-1.6l3.2-4.6h2.4l0.4,4.6H18l-0.1-0.8H15.8z M17.8,13.2L17.8,13.2l-1.4,2h1.5L17.8,13.2
				z"/>
			<path class="st6" d="M21.6,16.9H20l1.4-4.6h2.7l0.6,3.5h0.1l1-3.5h1.6l-1.4,4.6h-2.7l-0.6-3.5h-0.1L21.6,16.9z"/>
			<path class="st6" d="M31.1,16.1l-0.5,0.8h-1.6l3.2-4.6h2.4l0.4,4.6h-1.6l-0.1-0.8H31.1z M33.1,13.2L33.1,13.2l-1.4,2h1.5
				L33.1,13.2z"/>
			<path class="st6" d="M36.8,16.9h-1.6l1.4-4.6h1.6L36.8,16.9z"/>
			<path class="st6" d="M39.2,12.3h3c1.4,0,2,0.2,1.6,1.4c-0.2,0.8-0.4,1.2-1.6,1.4l0,0c0.6,0,1,0.3,0.8,0.8l-0.3,0.9h-1.6l0.2-0.6
				c0.1-0.3,0-0.6-0.5-0.6h-1.2l-0.4,1.2h-1.6L39.2,12.3z M41.3,14.6c0.7,0,0.7-0.2,0.9-0.7c0.1-0.4,0-0.5-0.5-0.5h-1.2l-0.4,1.2
				H41.3z"/>
		</g>
	</g>
	<g id="XMLID_14_">
		<polyline id="XMLID_49_" class="st6" points="70.6,3.5 70.6,17.2 70.7,17.2 70.7,3.5 		"/>
	</g>
	<g id="XMLID_16_">
		<path id="XMLID_17_" class="st7" d="M78.3,16.7c-0.3,0.2-0.7,0.3-1.2,0.3c-0.7,0-1.2-0.2-1.6-0.7c-0.4-0.4-0.6-1-0.6-1.7
			c0-0.8,0.2-1.4,0.6-1.9s1-0.7,1.7-0.7c0.4,0,0.8,0.1,1.1,0.2v1c-0.3-0.2-0.6-0.3-1-0.3c-0.4,0-0.7,0.1-1,0.4
			C76.1,13.6,76,14,76,14.5c0,0.5,0.1,0.8,0.4,1.1c0.2,0.3,0.6,0.4,1,0.4c0.4,0,0.7-0.1,1.1-0.3V16.7z"/>
		<path id="XMLID_36_" class="st7" d="M82.9,16.8h-1.1l-0.3-1.1H80l-0.3,1.1h-1.1l1.6-4.8h1.2L82.9,16.8z M81.3,14.9l-0.5-1.6
			c0-0.1-0.1-0.3-0.1-0.4h0c0,0.1,0,0.3-0.1,0.4l-0.5,1.6H81.3z"/>
		<path id="XMLID_40_" class="st7" d="M87.1,16.8H86l-0.7-1.2c-0.1-0.1-0.1-0.2-0.1-0.3c0-0.1-0.1-0.1-0.1-0.2
			c0-0.1-0.1-0.1-0.1-0.1c-0.1,0-0.1,0-0.2,0h-0.3v1.8h-1V12H85c1.1,0,1.6,0.4,1.6,1.3c0,0.2,0,0.3-0.1,0.5c0,0.1-0.1,0.3-0.2,0.4
			c-0.1,0.1-0.2,0.2-0.3,0.3c-0.1,0.1-0.3,0.1-0.4,0.2v0c0.1,0,0.1,0.1,0.2,0.1c0.1,0.1,0.1,0.1,0.2,0.2c0.1,0.1,0.1,0.1,0.2,0.2
			c0.1,0.1,0.1,0.2,0.1,0.2L87.1,16.8z M84.5,12.9v1.3h0.4c0.2,0,0.4-0.1,0.5-0.2c0.1-0.1,0.2-0.3,0.2-0.5c0-0.4-0.2-0.6-0.7-0.6
			H84.5z"/>
		<path id="XMLID_43_" class="st7" d="M91.1,16.5c-0.4,0.3-1,0.4-1.6,0.4c-0.7,0-1.3-0.2-1.7-0.6c-0.4-0.4-0.6-1-0.6-1.8
			c0-0.8,0.2-1.4,0.7-1.8c0.4-0.5,1-0.7,1.8-0.7c0.5,0,0.9,0.1,1.2,0.2v1c-0.3-0.2-0.7-0.3-1.2-0.3c-0.4,0-0.7,0.1-1,0.4
			c-0.3,0.3-0.4,0.7-0.4,1.2c0,0.5,0.1,0.9,0.3,1.1c0.2,0.3,0.5,0.4,0.9,0.4c0.2,0,0.4,0,0.6-0.1V15h-0.9v-0.9h1.9V16.5z"/>
		<path id="XMLID_45_" class="st7" d="M93.8,16.9c-0.6,0-1.1-0.2-1.5-0.7c-0.4-0.4-0.6-1-0.6-1.8c0-0.8,0.2-1.4,0.6-1.8
			c0.4-0.5,0.9-0.7,1.6-0.7c0.6,0,1.1,0.2,1.5,0.7c0.4,0.4,0.6,1,0.6,1.8c0,0.8-0.2,1.4-0.6,1.8C95,16.7,94.5,16.9,93.8,16.9z
			 M93.9,12.9c-0.3,0-0.6,0.1-0.8,0.4s-0.3,0.7-0.3,1.1c0,0.5,0.1,0.9,0.3,1.1c0.2,0.3,0.5,0.4,0.8,0.4c0.3,0,0.6-0.1,0.8-0.4
			s0.3-0.6,0.3-1.1c0-0.5-0.1-0.9-0.3-1.2C94.5,13,94.2,12.9,93.9,12.9z"/>
	</g>
	<g id="XMLID_19_">
		<g id="XMLID_235_">
			<g id="XMLID_245_">
				<rect id="XMLID_246_" x="95.2" y="3.5" class="st7" width="0.7" height="4.5"/>
			</g>
			<path id="XMLID_244_" class="st7" d="M93.5,8H79.1"/>
			<g id="XMLID_241_">
				<path id="XMLID_243_" class="st7" d="M84,8"/>
				<path id="XMLID_242_" class="st7" d="M79.5,8"/>
			</g>
			<rect id="XMLID_240_" x="76.7" y="3.5" class="st7" width="0.7" height="0.7"/>
			<rect id="XMLID_239_" x="88.4" y="3.5" class="st7" width="0.7" height="0.7"/>
			<rect id="XMLID_238_" x="89.8" y="3.5" class="st7" width="0.7" height="0.7"/>
			<rect id="XMLID_237_" x="89.1" y="2.4" class="st7" width="0.7" height="0.7"/>
			<path id="XMLID_236_" class="st7" d="M91.7,4.8l0,2.3c0,0,0,0.2,0.2,0.2h1.7c0.2,0,0.2-0.2,0.2-0.2l0-3.6h0.7v3.6
				c0,0,0,0.9-1,0.9H79c0,0-0.5,1-1.9,1c-1.4,0-2.1-1.2-2.1-2.1V4.8h0.7v1.9c0,0.4,0.2,1.5,1.5,1.5c1.3,0,1.4-1.5,1.4-1.5v-2h0.7
				v2.3c0,0,0,0.2,0.2,0.2H84c0.2,0,0.2-0.2,0.2-0.2l0-0.2c0,0-0.1-1.2-1.2-1.4c-1-0.2-1.5,0.4-1.6,0.6L81,5.5c0,0,0.6-0.7,1.6-0.7
				s2.2,0.5,2.3,2.1l0,0.2c0,0,0,0.2,0.2,0.2h1.7c0.4,0,0.4-0.4,0.4-0.4l0-2.1h0.7l0,2.3c0,0,0,0.2,0.2,0.2h0.6
				c0.4,0,0.4-0.4,0.4-0.4l0-2.1h0.7l0,2.3c0,0,0,0.2,0.2,0.2h0.6C91,7.2,91,6.9,91,6.9l0-2.1H91.7z"/>
		</g>
	</g>
</g>
<g id="XMLID_148_">
</g>
<g id="XMLID_149_">
</g>
<g id="XMLID_150_">
</g>
<g id="XMLID_151_">
</g>
<g id="XMLID_152_">
</g>
<g id="XMLID_153_">
</g>
</svg>
