<?xml version="1.0" encoding="utf-8"?>
<!-- Generator: Adobe Illustrator 22.1.0, SVG Export Plug-In . SVG Version: 6.00 Build 0)  -->
<svg version="1.1" id="Layer_1" xmlns="http://www.w3.org/2000/svg" xmlns:xlink="http://www.w3.org/1999/xlink" x="0px" y="0px"
	 viewBox="0 0 96 38.7" style="enable-background:new 0 0 96 38.7;" xml:space="preserve">
<style type="text/css">
	.st0{fill-rule:evenodd;clip-rule:evenodd;fill:#FFCB05;}
	.st1{fill-rule:evenodd;clip-rule:evenodd;fill:#3D1A6F;}
	.st2{fill-rule:evenodd;clip-rule:evenodd;fill:#C6168D;}
	.st3{fill:#3D1A6F;}
</style>
<g>
	<g>
		<path class="st0" d="M29,17.4c-0.3-0.6-0.6-1.1-1-1.6c-0.4-0.5-0.8-0.9-1.3-1.2c-0.2-0.2-0.5-0.3-0.8-0.5l0,0
			c-0.1-0.1-0.3-0.2-0.4-0.2c0.1,0,0.3-0.1,0.4-0.2l0,0c0.3-0.1,0.5-0.3,0.8-0.5c0.5-0.3,0.9-0.7,1.3-1.2c0.4-0.5,0.7-1,1-1.6
			c0.3-0.6,0.5-1.2,0.6-1.9c0-0.5,0.1-0.9,0.1-1.4c0-0.2,0-0.4,0-0.6c0-0.5-0.2-1.1-0.3-1.6c-0.2-0.5-0.4-1-0.7-1.5
			c-0.3-0.5-0.7-0.9-1.1-1.4c-0.4-0.4-0.9-0.8-1.4-1.1c-0.5-0.3-1.1-0.5-1.7-0.7C23.8,0.1,23.2,0,22.5,0c-0.7,0-1.3,0-1.9,0.2
			c-0.6,0.2-1.2,0.4-1.7,0.7c-0.5,0.3-1,0.6-1.4,1c-0.4,0.4-0.7,0.9-1,1.4c-0.3,0.5-0.5,1-0.5,1.6c-0.1,0.3-0.1,0.6-0.1,0.9
			c0,0.3,0,0.5,0,0.7c-0.5-0.3-1.1-0.6-1.6-0.7c-0.7-0.2-1.4-0.3-2.2-0.4c-0.7,0-1.4,0.1-2.1,0.2C9.3,5.7,8.7,5.9,8.1,6.3
			c-0.5,0.3-1,0.6-1.6,1C6.3,7.6,6,7.8,5.7,8.2c0,0-0.5,0.5-0.7,0.8c-0.3,0.3-0.5,0.6-0.8,1l-0.6,0.8c-0.2,0.2-0.3,0.4-0.5,0.6
			c-0.2,0.3-0.5,0.6-0.8,0.9c-0.5,0.5-1,0.9-1.5,1.2c-0.1,0.1-0.2,0.2-0.3,0.2c-0.1,0-0.2,0.1-0.2,0.1c-0.1,0-0.2,0.1-0.2,0.2l0,0
			l0,0C0,14,0.1,14,0.2,14.1c0.1,0,0.2,0.1,0.2,0.1c0.1,0.1,0.2,0.2,0.3,0.2c0.5,0.3,1,0.8,1.5,1.2c0.3,0.3,0.5,0.5,0.8,0.9
			c0.2,0.2,0.3,0.4,0.5,0.6l0.6,0.8c0.3,0.3,0.5,0.7,0.8,1c0.2,0.3,0.7,0.7,0.7,0.7C6,20,6.3,20.2,6.6,20.5c0.5,0.4,1,0.8,1.6,1
			c0.6,0.3,1.2,0.5,1.8,0.7c0.7,0.2,1.4,0.2,2.1,0.2c0.8,0,1.6-0.2,2.2-0.4c0.5-0.2,1.1-0.4,1.6-0.7c0,0.2,0,0.5,0,0.7
			c0,0.3,0,0.6,0.1,0.9c0.1,0.6,0.3,1.1,0.5,1.6c0.3,0.5,0.6,1,1,1.4c0.4,0.4,0.9,0.8,1.4,1c0.5,0.3,1.1,0.5,1.7,0.7
			c0.6,0.1,1.2,0.2,1.9,0.2c0.7,0,1.3-0.1,1.9-0.3c0.6-0.2,1.2-0.4,1.7-0.7c0.5-0.3,1-0.7,1.4-1.1c0.4-0.4,0.8-0.9,1.1-1.4
			c0.3-0.5,0.5-1,0.7-1.5c0.2-0.5,0.3-1.1,0.3-1.7c0-0.2,0-0.4,0-0.6c0-0.4,0-0.9-0.1-1.4C29.5,18.6,29.3,18,29,17.4L29,17.4z"/>
		<path class="st1" d="M27.4,18c-0.2-0.5-0.5-1-0.9-1.4c-0.3-0.4-0.8-0.8-1.2-1c-0.5-0.3-1-0.5-1.6-0.7c-0.5-0.2-1.1-0.3-1.7-0.3
			c-0.6,0-1.2,0.1-1.8,0.2c-0.5,0.1-1,0.3-1.4,0.5c-0.4,0.2-0.8,0.5-1.2,0.7c-0.3,0.2-0.7,0.5-1,0.8c-0.3,0.2-0.7,0.5-1,0.7
			c-0.3,0.2-0.7,0.4-1,0.5c-0.4,0.1-0.9,0.2-1.3,0.2c-0.6,0-1.2-0.1-1.7-0.3c-0.5-0.2-1-0.5-1.4-1c-0.4-0.4-0.7-0.9-0.9-1.4
			C9,15,8.9,14.5,8.9,13.9c0-0.5,0.1-1.1,0.3-1.6c0.2-0.5,0.5-1,0.9-1.4c0.4-0.4,0.9-0.7,1.4-1c0.5-0.2,1.1-0.3,1.7-0.3
			c0.4,0,0.9,0.1,1.3,0.2c0.4,0.2,0.7,0.3,1,0.5c0.3,0.2,0.7,0.5,1,0.7c0.3,0.2,0.7,0.5,1,0.8c0.3,0.2,0.7,0.5,1.2,0.7
			c0.5,0.2,0.9,0.4,1.4,0.5c0.6,0.2,1.2,0.2,1.8,0.2c0.6,0,1.2-0.1,1.7-0.2c0.5-0.2,1-0.4,1.6-0.7c0.5-0.3,0.9-0.6,1.2-1
			c0.4-0.4,0.7-0.9,0.9-1.4c0.2-0.5,0.4-1.1,0.5-1.7c0.1-0.6,0.1-1.2,0-1.9c-0.1-0.6-0.3-1.2-0.6-1.7c-0.3-0.5-0.6-0.9-1-1.3
			c-0.4-0.4-0.9-0.7-1.4-1c-0.5-0.2-1-0.4-1.6-0.5c-0.5-0.1-1.2-0.2-1.7-0.1c-0.5,0.1-1.1,0.2-1.6,0.5c-0.5,0.2-0.9,0.6-1.3,1
			C18.3,3.5,18,4,17.8,4.5c-0.2,0.5-0.3,1-0.4,1.6c0,0.5,0,1.1,0.2,1.7c0,0.1,0,0.2,0.1,0.2c0,0,0,0.1,0,0.1c0,0,0,0.1,0,0.1
			c0,0,0,0,0.1,0c0,0,0,0,0-0.1c0-0.1,0-0.2,0-0.2c0-0.3,0.1-0.6,0.2-0.9c0.2-0.5,0.6-0.9,1-1.2c0.5-0.3,1-0.4,1.6-0.5
			c0.6,0,1.2,0,1.7,0.3c0.5,0.2,0.9,0.6,1.1,1.1c0.3,0.5,0.4,1,0.4,1.6c0,0.5-0.2,1.1-0.5,1.6c-0.3,0.5-0.7,0.9-1.2,1.1
			c-0.5,0.2-1.1,0.3-1.6,0.3c-0.4,0-0.8-0.2-1.1-0.3c-0.3-0.2-0.7-0.4-1-0.6c-0.3-0.3-0.7-0.5-1-0.8c-0.3-0.3-0.7-0.6-1-0.9
			C16,8.4,15.6,8.2,15.2,8c-0.5-0.3-0.9-0.5-1.4-0.6c-0.5-0.2-1.1-0.2-1.7-0.2c-0.6,0-1.2,0-1.7,0.2c-0.5,0.1-1,0.3-1.4,0.5
			C8.4,8,8.1,8.3,7.7,8.6c-0.3,0.3-0.7,0.6-1,1c-0.3,0.3-0.6,0.7-0.9,1C5.5,11,5.3,11.4,5,11.7c-0.3,0.3-0.6,0.7-0.9,1
			c-0.3,0.3-0.6,0.6-1,0.9c-0.1,0-0.2,0.1-0.2,0.1c0,0-0.1,0.1-0.2,0.1c0,0-0.1,0-0.1,0.1l0,0l0,0l0,0l0,0C2.6,14,2.6,14,2.7,14
			c0,0,0.1,0,0.2,0.1c0.1,0,0.2,0.1,0.2,0.2c0.4,0.2,0.7,0.5,1,0.8c0.3,0.3,0.6,0.7,0.9,1c0.3,0.3,0.5,0.7,0.9,1.1
			c0.3,0.3,0.5,0.7,0.9,1c0.3,0.3,0.6,0.7,1,1c0.4,0.3,0.8,0.6,1.2,0.8c0.5,0.2,0.9,0.4,1.4,0.5c0.6,0.2,1.2,0.2,1.7,0.2
			c0.6,0,1.2-0.1,1.7-0.2c0.5-0.2,1-0.3,1.4-0.6c0.4-0.2,0.8-0.5,1.2-0.8c0.3-0.3,0.7-0.6,1-0.9c0.3-0.3,0.7-0.6,1-0.9
			c0.3-0.2,0.7-0.5,1-0.6c0.3-0.2,0.7-0.3,1.1-0.3c0.5-0.1,1.1,0,1.6,0.3c0.5,0.2,0.9,0.7,1.2,1.1c0.3,0.5,0.5,1,0.5,1.6
			c0,0.6-0.1,1.1-0.4,1.6c-0.3,0.5-0.7,0.9-1.1,1.1c-0.5,0.3-1.1,0.3-1.7,0.3c-0.5,0-1.1-0.2-1.6-0.5c-0.4-0.3-0.8-0.7-1-1.2
			c-0.1-0.3-0.2-0.5-0.2-0.9c0-0.1,0-0.2,0-0.2c0,0,0-0.1,0-0.1c0,0-0.1,0-0.1,0c0,0,0,0.1,0,0.1c0,0,0,0.1,0,0.1
			c0,0.1-0.1,0.2-0.1,0.2c-0.2,0.5-0.2,1.1-0.2,1.7c0,0.5,0.2,1.1,0.4,1.6c0.2,0.5,0.5,1,0.9,1.4c0.3,0.4,0.8,0.7,1.3,1
			c0.5,0.3,1.1,0.4,1.6,0.5c0.6,0.1,1.2,0,1.7-0.1c0.5-0.1,1.1-0.3,1.6-0.5c0.5-0.3,0.9-0.6,1.4-1c0.4-0.4,0.7-0.8,1-1.3
			c0.3-0.5,0.5-1.1,0.6-1.7c0.1-0.6,0.1-1.2,0-1.9C27.8,19.1,27.6,18.5,27.4,18L27.4,18z"/>
		<path class="st2" d="M19.1,13.9L19.1,13.9L19.1,13.9L19.1,13.9L19.1,13.9c-0.7-0.2-1.4-0.6-1.9-1c-0.6-0.5-1.2-0.9-1.8-1.4
			c-0.6-0.4-1.3-0.8-2.1-0.8c-0.6,0-1.2,0.1-1.7,0.4c-0.5,0.3-0.9,0.7-1.1,1.1c-0.3,0.5-0.4,1.1-0.4,1.6l0,0c0,0,0,0,0,0
			c0,0.5,0.1,1.1,0.4,1.6c0.3,0.5,0.7,0.9,1.1,1.1c0.5,0.3,1.1,0.4,1.7,0.4c0.7,0,1.4-0.4,2.1-0.8c0.6-0.4,1.2-0.9,1.8-1.4
			C17.8,14.5,18.4,14.1,19.1,13.9L19.1,13.9C19.1,14,19.1,13.9,19.1,13.9L19.1,13.9L19.1,13.9L19.1,13.9z"/>
		<path class="st1" d="M75.4,14.9L78,8.8l2.4,6.1H75.4L75.4,14.9z M81.7,22.5h6.8c-1.4-0.8-1.8-1.6-2.6-3.6
			C81.2,8,79.5,4.2,79.5,4.2s-1,1.7-4.4,2.4c0.2,0.2,0.5,0.6,0.5,1c0,0.3-0.1,0.7-0.3,1.2l-4.5,10c-1,2.1-1.5,3-2.8,3.4
			c-1-0.6-1.2-1.2-1.2-3.3V8.7c0-2.2,0.2-2.7,1.3-3.3h-6.1c1.1,0.6,1.3,1.2,1.3,3.3v3.5h-8.5V8.7c0-2.2,0.2-2.7,1.4-3.3h-6.1
			c1.2,0.6,1.4,1.2,1.4,3.3v10.3c0,2.2-0.2,2.7-1.4,3.4h6.1c-1.1-0.7-1.4-1.2-1.4-3.4v-4.4h8.5v4.4c0,2.2-0.2,2.7-1.4,3.4h12.1
			c-0.6-0.3-1-0.9-1-1.5c0-0.5,0.2-0.8,0.5-1.6l1-2.3h6.7l1,2.6c0.3,0.7,0.4,1,0.4,1.4C82.7,21.6,82.2,22.1,81.7,22.5L81.7,22.5z"/>
		<path class="st1" d="M93.3,19.1V8.7c0-2.2,0.2-2.7,1.3-3.3h-6c1.1,0.6,1.3,1.2,1.3,3.3v10.3c0,2.2-0.2,2.7-1.3,3.4h6
			C93.5,21.8,93.3,21.3,93.3,19.1L93.3,19.1z"/>
		<path class="st1" d="M49.6,4.2L49.6,4.2L49.6,4.2c-0.6,0.5-1.6,1.2-4.3,1.2h-7.6c-1.5,0-2.1-0.9-2.4-1.4c-0.6,1.3-2.1,3.2-2.9,3.9
			h7.1c0,0.3,0,0.5,0,0.9v10.1c0,2.2-0.3,2.9-1.4,3.6h6.1c-1.1-0.7-1.3-1.2-1.3-3.4V8.7c0-0.3,0-0.5,0-0.9h1c1.5,0,2.3-0.2,2.9-0.4
			C48.5,6.9,49.5,5.7,49.6,4.2L49.6,4.2L49.6,4.2L49.6,4.2z"/>
	</g>
	<g>
		<g>
			<g>
				<g>
					<path class="st3" d="M43.1,27.6c0,0-5.5-0.5-5.4,4.5c0,0.7,0.1,1.3,0.4,1.9c0.2,0.6,0.6,1.1,1,1.6c0.9,1,2.2,1.5,3.6,1.5
						c2.3,0,3.6-1.2,3.6-1.2l-0.9,2.4c-0.5,0.3-1.5,0.4-2.8,0.4c-1.2,0-2.1-0.1-3-0.4c-0.8-0.3-1.6-0.7-2.2-1.3
						c-1.3-1.2-2-2.8-2-4.7c0-0.4,0-1.1,0.4-2.1c0.3-0.9,0.8-1.7,1.4-2.3c1.2-1.2,2.8-1.7,4.9-1.7c0.4,0,1.3,0,2.3,0.2
						c0.4,0.1,0.5,0.2,0.7,0.2l0.6,2.2C44.5,27.5,43.1,27.6,43.1,27.6z M45.6,27C45.6,27,45.6,27,45.6,27L45.6,27z"/>
				</g>
			</g>
		</g>
		<g>
			<g>
				<g>
					<path class="st3" d="M53.8,26.1c0.1,0.1,4,10.2,4,10.2s0.8,2.1,1.6,2.4l-4.2,0c0.9-0.4,0.9-1,0.9-1l-1.5-3.5h-4.4
						c0,0-1.1,3-1.1,3.1c-0.1,0.3-0.1,0.9,0.7,1.3l-4.1,0c1.2-0.2,1.9-2.2,1.9-2.2l3.6-9.5c0,0,0.1-0.8-0.7-0.8
						C50.4,26.2,53.8,26.1,53.8,26.1z M54,34.1C54,34.1,54,34.1,54,34.1L54,34.1z M51.2,33.4L51.2,33.4
						C51.2,33.4,51.2,33.4,51.2,33.4z M50.8,32.7l3.1,0L52.4,28L50.8,32.7z"/>
				</g>
			</g>
		</g>
		<g>
			<g>
				<g>
					<path class="st3" d="M88.9,38.7c-1.1,0-2.1-0.3-3-0.7c-0.8-0.4-1.5-0.9-2-1.6c-0.9-1.2-1.4-2.7-1.4-4.3c0.1-1.4,0.7-3,1.8-4.1
						c0.9-1,2.6-2.1,5.3-2c0.9,0,1.8,0.2,2.6,0.5c0.8,0.3,1.5,0.8,2.1,1.3c1.2,1.2,1.8,2.7,1.7,4.5c-0.1,1.8-0.8,3.4-2.1,4.6
						c-0.6,0.6-1.4,1-2.2,1.3C90.8,38.6,89.9,38.8,88.9,38.7z M89.3,27.4c-1.2-0.1-2.4,0.3-3.2,1c-0.4,0.4-0.7,0.8-0.9,1.4
						c-0.2,0.6-0.4,1.3-0.4,2c0,0.8,0.1,1.6,0.3,2.3c0.2,0.7,0.5,1.2,0.9,1.7c0.8,0.9,2.1,1.5,3.4,1.5c0.4,0,1.5,0,2.5-0.7
						c0.5-0.3,1.1-0.8,1.4-1.4c0.3-0.7,0.6-1.5,0.7-2.5c0.1-1.6-0.4-2.9-1.3-3.9C91.8,28,90.5,27.5,89.3,27.4z"/>
				</g>
			</g>
		</g>
		<path class="st3" d="M78.5,32C78.5,32,78.5,32,78.5,32c0.6,0,2.8,0,3.1,0l0,6c-1,0.5-4,0.7-5,0.7l0,0c0,0,0,0,0,0
			c-2.1,0-3.9-0.6-5.2-1.7c-0.5-0.5-1-1.1-1.3-1.9c-0.4-0.8-0.6-1.8-0.6-2.7c0-1.2,0.3-2.3,0.8-3.2c0.5-0.8,1.5-1.8,2.3-2.3
			c1.3-0.8,2.6-1,3.8-1c1.1,0,2.2,0.2,2.4,0.2c0.3,0.1,0.9,0.2,1.5,0.5c0,0,0,1,0,2c0,0-0.8-0.6-2-0.9c-0.7-0.2-1.1-0.3-2-0.2
			c-1.2,0.1-2.2,0.6-2.9,1.2c-0.8,0.7-1.5,1.7-1.5,3.2c0,0.9,0.1,1.5,0.4,2.3c0.4,0.8,0.8,1.3,0.9,1.3c1,1,2.2,1.5,3.6,1.5
			c0.2,0,2.2-0.1,2.7-0.3l0-2.5c0-1.2,0-1.1,0-1.2C79.4,33,79.3,32.6,78.5,32z"/>
		<path class="st3" d="M64.3,27.4h-1.8c0,0,0,9.5,0,10.2c0,0.7,0.8,1.1,0.8,1.1h-3.7c0.7-0.2,0.7-1.1,0.7-1.1V27.1c0,0,0-0.6-0.7-1
			h5.1c0,0,3.3,0.3,3.3,3.3c0,0,0,2.5-3,3.2c0,0,4,5.8,5.8,6.1h-3.1c0,0-1.1-0.2-3.1-3.4l-1.8-3c0,0-0.2-0.4,0.8-0.4
			c1.3,0,2.4-1.2,2.4-2.2S65.8,27.6,64.3,27.4z"/>
	</g>
</g>
</svg>
