<?xml version="1.0" encoding="utf-8"?>
<!-- Generator: Adobe Illustrator 22.1.0, SVG Export Plug-In . SVG Version: 6.00 Build 0)  -->
<svg version="1.1" id="Layer_1" xmlns="http://www.w3.org/2000/svg" xmlns:xlink="http://www.w3.org/1999/xlink" x="0px" y="0px"
	 viewBox="0 0 96 24.3" style="enable-background:new 0 0 96 24.3;" xml:space="preserve">
<style type="text/css">
	.Drop_x0020_Shadow{fill:none;}
	.Round_x0020_Corners_x0020_2_x0020_pt{fill:#FFFFFF;stroke:#000000;stroke-miterlimit:10;}
	.Live_x0020_Reflect_x0020_X{fill:none;}
	.Bevel_x0020_Soft{fill:url(#SVGID_1_);}
	.Dusk{fill:#FFFFFF;}
	.Foliage_GS{fill:#FFDD00;}
	.Pompadour_GS{fill-rule:evenodd;clip-rule:evenodd;fill:#44ADE2;}
	.st0{fill:#1E63AF;}
	.st1{fill:#FFFFFF;}
	.st2{fill:#F79548;}
</style>
<linearGradient id="SVGID_1_" gradientUnits="userSpaceOnUse" x1="0" y1="-35.85" x2="0.7071" y2="-35.1429">
	<stop  offset="0" style="stop-color:#DEDFE3"/>
	<stop  offset="0.1738" style="stop-color:#D8D9DD"/>
	<stop  offset="0.352" style="stop-color:#C9CACD"/>
	<stop  offset="0.5323" style="stop-color:#B4B5B8"/>
	<stop  offset="0.7139" style="stop-color:#989A9C"/>
	<stop  offset="0.8949" style="stop-color:#797C7E"/>
	<stop  offset="1" style="stop-color:#656B6C"/>
</linearGradient>
<g>
	<g>
		<path class="st0" d="M0,13.5C0,9.9,0,6.3,0,2.7c0,0,0-0.1,0-0.1C0.3,1.4,0.9,0.6,2,0.2C2.4,0,2.8,0,3.3,0c9.2,0,18.3,0,27.5,0
			C51.4,0,72,0,92.6,0c0.2,0,0.4,0,0.6,0C94.8,0.2,96,1.5,96,3.2c0,3.3,0,6.5,0,9.8c0,1-0.4,1.8-1.1,2.4c-0.6,0.6-1.4,0.8-2.3,0.8
			c-21.1,0-42.1,0-63.2,0c-8.7,0-17.5,0-26.2,0c-0.2,0-0.4,0-0.6,0c-1.3-0.2-2.3-1.1-2.6-2.5C0.1,13.6,0,13.5,0,13.5z M29.7,0.5
			c-0.1,0-0.1,0-0.2,0c-8.8,0-17.7,0-26.5,0c-0.2,0-0.3,0-0.5,0.1C1.3,0.8,0.5,1.9,0.5,3.2c0,3.2,0,6.4,0,9.7c0,0.3,0,0.6,0.1,0.9
			c0.3,1.1,1.3,1.9,2.4,1.9c8.8,0,17.7,0,26.5,0c0.1,0,0.1,0,0.2,0C29.7,10.6,29.7,5.6,29.7,0.5z M40.1,8.3
			C40.1,8.3,40.1,8.3,40.1,8.3c0,0.3,0,0.7,0,1c0,0.5,0.1,1,0.2,1.4c0.3,1.2,1,2,2.2,2.4c0.6,0.2,1.2,0.2,1.9,0.1
			c1.1-0.1,1.9-0.7,2.4-1.6c0.4-0.7,0.5-1.5,0.5-2.3c0-0.7,0-1.4,0-2c0-0.5-0.1-1.1-0.2-1.6c-0.3-1-0.9-1.7-1.9-2.1
			c-0.7-0.3-1.5-0.3-2.3-0.2c-0.6,0.1-1.2,0.4-1.6,0.8c-0.7,0.7-0.9,1.5-1,2.4C40.1,7.2,40.1,7.8,40.1,8.3z M55,10.6
			c0-0.7,0-1.4,0-2.1c0-0.3-0.1-0.4-0.4-0.4c-0.2,0-0.4,0-0.5,0c-0.2,0-0.3,0.1-0.3,0.3c0,0.4,0,0.9,0,1.3c0,0.7,0,1.4,0,2.2
			c0,0.1,0,0.2-0.1,0.2c-0.5,0-1,0.1-1.5,0.1c-0.9,0-1.5-0.4-1.9-1.2c-0.2-0.5-0.3-1-0.3-1.5c0-0.8,0-1.5,0-2.3
			c0-0.4,0.1-0.8,0.2-1.2c0.2-0.8,0.7-1.4,1.6-1.5c0.5-0.1,1,0,1.6,0c0.5,0,0.9,0,1.4,0.1c0.2,0,0.3,0,0.3-0.3c0-0.2,0-0.3,0-0.5
			c0-0.2-0.1-0.2-0.2-0.3c-0.4,0-0.8-0.1-1.2-0.1c-0.7-0.1-1.3-0.1-2,0c-0.8,0.1-1.5,0.5-2,1.2c-0.5,0.7-0.7,1.5-0.8,2.4
			c0,0.7,0,1.4,0,2.1c0,0.6,0.1,1.2,0.2,1.8c0.5,1.6,1.7,2.4,3.2,2.4c0.8,0,1.6,0,2.5-0.2c0.3,0,0.4-0.1,0.4-0.4
			C55,12,55,11.3,55,10.6z M88.1,13.3C88.1,13.3,88.1,13.3,88.1,13.3c0.6,0,1.1-0.1,1.7-0.3c1.9-0.6,2.2-3,1.1-4
			c-0.3-0.3-0.7-0.6-1.1-0.9c-0.7-0.5-1.4-0.9-2.1-1.3c-0.2-0.2-0.5-0.4-0.6-0.6c-0.4-0.6-0.1-1.5,0.6-1.6c0.3-0.1,0.7-0.1,1-0.1
			c0.8,0,1.6,0,2.3,0.1c0.2,0,0.3-0.1,0.3-0.3c0-0.1,0-0.2,0-0.3c0-0.3,0-0.4-0.4-0.4c0,0-0.1,0-0.1,0c-0.5,0-1-0.1-1.6-0.1
			c-0.6,0-1.3,0-1.9,0.1c-2,0.5-2.1,2.7-1.1,3.7c0.2,0.2,0.5,0.5,0.7,0.6c0.6,0.4,1.3,0.8,1.9,1.2c0.4,0.3,0.8,0.5,1.1,0.8
			c0.6,0.5,0.4,1.9-0.6,2.2c-0.4,0.1-0.9,0.2-1.3,0.1c-0.6,0-1.3,0-1.9-0.1c-0.2,0-0.3,0.1-0.3,0.3c0,0.1,0,0.3,0,0.4
			c0,0.2,0,0.3,0.3,0.3C86.8,13.2,87.4,13.3,88.1,13.3z M62.6,13.3C62.6,13.3,62.6,13.3,62.6,13.3c0.5,0,1.1-0.1,1.6-0.2
			c2-0.5,2.2-3,1.2-4c-0.3-0.3-0.7-0.6-1.1-0.9c-0.7-0.4-1.3-0.8-2-1.2c-0.3-0.2-0.5-0.4-0.7-0.6c-0.6-0.7-0.3-1.6,0.6-1.8
			c0.3-0.1,0.7-0.1,1-0.1c0.8,0,1.5,0,2.3,0.1c0.2,0,0.3-0.1,0.3-0.3c0-0.1,0-0.2,0-0.3c0-0.4,0-0.4-0.4-0.5c0,0-0.1,0-0.1,0
			c-0.5,0-1.1-0.1-1.6-0.1c-0.6,0-1.3,0-1.9,0.1c-1.7,0.4-1.9,1.8-1.6,2.9c0.2,0.6,0.6,1,1,1.3c0.6,0.4,1.2,0.8,1.9,1.2
			c0.4,0.3,0.8,0.6,1.2,0.9c0.2,0.1,0.3,0.4,0.4,0.6c0.1,0.8-0.1,1.6-1.1,1.7c-0.5,0.1-1,0.1-1.6,0.1c-0.5,0-0.9,0-1.4-0.1
			c-0.3,0-0.4,0.1-0.4,0.3c0,0.1,0,0.3,0,0.4c0,0.2,0.1,0.3,0.2,0.3C61.2,13.2,61.9,13.3,62.6,13.3z M78.6,8.3
			C78.6,8.3,78.6,8.3,78.6,8.3c0,0.4,0,0.7,0,1.1c0,0.5,0.1,1.1,0.2,1.6c0.3,1.1,1.1,1.9,2.2,2.2c0.7,0.2,1.4,0.1,2.1,0.1
			c0.4,0,0.8-0.1,1.1-0.1c0.2,0,0.3-0.1,0.3-0.3c0-0.1,0-0.3,0-0.4c0-0.3-0.1-0.3-0.4-0.3c-0.7,0-1.4,0.1-2.1,0.1
			c-0.9,0-1.6-0.4-2-1.2c-0.2-0.4-0.3-0.9-0.3-1.3c0-0.8,0-1.5,0-2.3c0-0.3,0-0.7,0.1-1c0.1-0.5,0.3-1,0.7-1.4
			c0.5-0.5,1.2-0.6,1.8-0.5c0.6,0,1.2,0.1,1.9,0.1c0.1,0,0.2-0.1,0.2-0.2c0-0.2,0-0.3,0-0.5c0-0.2,0-0.3-0.3-0.3
			c-0.8-0.1-1.7-0.2-2.5-0.2c-0.6,0-1.2,0.2-1.7,0.6c-0.8,0.6-1.2,1.5-1.3,2.5C78.6,7.1,78.6,7.7,78.6,8.3z M69.9,8.8
			c0,1.3,0,2.6,0,4c0,0.1,0,0.1,0,0.2c0,0.2,0.1,0.3,0.3,0.3c0.2,0,0.4,0,0.7,0c0.2,0,0.3-0.1,0.3-0.3c0-0.1,0-0.1,0-0.2
			c0-2.7,0-5.3,0-8c0-0.2,0-0.2,0.2-0.2c0.7,0,1.4,0,2.1,0c0.1,0,0.2,0,0.2,0c0.2,0,0.2-0.1,0.2-0.3c0-0.1,0-0.3,0-0.4
			c0-0.3-0.1-0.4-0.4-0.4c-2,0-4,0-6,0c-0.1,0-0.1,0-0.2,0c-0.2,0-0.3,0.1-0.3,0.3c0,0.2,0,0.4,0,0.5c0,0.1,0.1,0.2,0.2,0.2
			c0.1,0,0.2,0,0.3,0c0.7,0,1.4,0,2.1,0c0.2,0,0.2,0,0.2,0.2C69.9,6.1,69.9,7.4,69.9,8.8z M35.4,7.5c0-1.1,0-2.2,0-3.3
			c0-0.1,0-0.2,0-0.4c0-0.2-0.1-0.3-0.3-0.3c-0.1,0-0.3,0-0.4,0c-0.5,0-0.5,0.1-0.5,0.5c0,0,0,0,0,0.1c0,2.2,0,4.4,0,6.6
			c0,0.3,0,0.6,0.1,0.9c0.1,0.6,0.4,1.2,1,1.5c0.4,0.2,0.8,0.3,1.2,0.3c1,0,2,0,3-0.1c0.2,0,0.2-0.1,0.2-0.2c0-0.2,0-0.3,0-0.5
			c0-0.3,0-0.3-0.3-0.3c-0.8,0-1.6,0-2.4,0c-0.3,0-0.7,0-1-0.1c-0.3-0.1-0.5-0.3-0.5-0.6c0-0.2-0.1-0.3-0.1-0.5
			C35.4,9.8,35.4,8.7,35.4,7.5z M75.5,8.3c0,1.5,0,3,0,4.5c0,0.3,0.1,0.3,0.3,0.3c0.2,0,0.3,0,0.5,0c0.4,0,0.4-0.1,0.4-0.4
			c0-2.8,0-5.6,0-8.5c0-0.2,0-0.4,0-0.5c0-0.3-0.1-0.3-0.4-0.3c-0.2,0-0.3,0-0.5,0c-0.3,0-0.4,0.1-0.4,0.4
			C75.5,5.3,75.5,6.8,75.5,8.3z M58.3,8.3c0-1.5,0-3,0-4.6c0-0.2-0.1-0.3-0.3-0.3c-0.2,0-0.3,0-0.5,0c-0.4,0-0.4,0.1-0.4,0.4
			c0,3,0,5.9,0,8.9c0,0,0,0,0,0.1c0,0.3,0.1,0.4,0.4,0.4c0.2,0,0.3,0,0.5,0c0.3,0,0.4-0.1,0.4-0.4C58.3,11.3,58.3,9.8,58.3,8.3z"/>
		<path class="st1" d="M29.7,0.5c0,5.1,0,10.1,0,15.2c-0.1,0-0.1,0-0.2,0c-8.8,0-17.7,0-26.5,0c-1.1,0-2.1-0.8-2.4-1.9
			c-0.1-0.3-0.1-0.6-0.1-0.9c0-3.2,0-6.4,0-9.7c0-1.3,0.8-2.4,2.1-2.7c0.2,0,0.3-0.1,0.5-0.1c8.8,0,17.7,0,26.5,0
			C29.6,0.5,29.6,0.5,29.7,0.5z"/>
		<path class="st1" d="M40.1,8.3c0-0.6,0-1.1,0.1-1.7c0.1-0.9,0.4-1.7,1-2.4c0.5-0.4,1-0.7,1.6-0.8c0.8-0.1,1.5-0.1,2.3,0.2
			c1,0.4,1.6,1.1,1.9,2.1c0.2,0.5,0.2,1.1,0.2,1.6c0,0.7,0,1.4,0,2c0,0.8-0.1,1.6-0.5,2.3c-0.5,1-1.3,1.5-2.4,1.6
			c-0.6,0.1-1.3,0.1-1.9-0.1c-1.2-0.4-1.9-1.2-2.2-2.4c-0.1-0.5-0.1-0.9-0.2-1.4C40.1,9,40.1,8.7,40.1,8.3
			C40.1,8.3,40.1,8.3,40.1,8.3z M46,8.3C46,8.3,45.9,8.3,46,8.3c0-0.4,0-0.7,0-1.1c0-0.4-0.1-0.8-0.2-1.2c-0.2-0.8-0.7-1.3-1.5-1.5
			c-0.3-0.1-0.7-0.1-1.1-0.1c-0.6,0.1-1,0.3-1.4,0.8c-0.4,0.5-0.5,1.1-0.5,1.6c0,0.8,0,1.5,0,2.3c0,0.5,0,1,0.2,1.5
			c0.2,0.7,0.6,1.2,1.3,1.4c0.4,0.1,0.7,0.1,1.1,0.1c0.7-0.1,1.3-0.4,1.6-1c0.2-0.3,0.3-0.7,0.3-1C45.9,9.5,45.9,8.9,46,8.3z"/>
		<path class="st1" d="M55,10.6c0,0.7,0,1.4,0,2.1c0,0.3-0.1,0.4-0.4,0.4c-0.8,0.1-1.6,0.2-2.5,0.2c-1.5,0-2.8-0.9-3.2-2.4
			c-0.2-0.6-0.2-1.2-0.2-1.8c0-0.7,0-1.4,0-2.1c0-0.9,0.2-1.7,0.8-2.4c0.5-0.7,1.2-1,2-1.2c0.7-0.1,1.3-0.1,2,0
			c0.4,0,0.8,0.1,1.2,0.1c0.2,0,0.2,0.1,0.2,0.3c0,0.2,0,0.3,0,0.5c0,0.2,0,0.3-0.3,0.3c-0.5,0-0.9-0.1-1.4-0.1c-0.5,0-1,0-1.6,0
			c-0.9,0.1-1.4,0.7-1.6,1.5c-0.1,0.4-0.2,0.8-0.2,1.2c0,0.8,0,1.5,0,2.3c0,0.5,0.1,1,0.3,1.5c0.4,0.8,1,1.2,1.9,1.2
			c0.5,0,1,0,1.5-0.1c0.1,0,0.1-0.1,0.1-0.2c0-0.7,0-1.4,0-2.2c0-0.4,0-0.9,0-1.3c0-0.2,0.1-0.3,0.3-0.3c0.2,0,0.4,0,0.5,0
			c0.3,0,0.4,0.1,0.4,0.4C55,9.2,55,9.9,55,10.6z"/>
		<path class="st1" d="M88.1,13.3c-0.7-0.1-1.4-0.1-2-0.2c-0.2,0-0.3-0.1-0.3-0.3c0-0.1,0-0.3,0-0.4c0-0.2,0.1-0.3,0.3-0.3
			c0.6,0,1.3,0.1,1.9,0.1c0.4,0,0.9,0,1.3-0.1c1-0.3,1.1-1.7,0.6-2.2c-0.3-0.3-0.7-0.6-1.1-0.8c-0.6-0.4-1.3-0.8-1.9-1.2
			c-0.3-0.2-0.5-0.4-0.7-0.6c-1-1-0.9-3.2,1.1-3.7c0.6-0.1,1.3-0.2,1.9-0.1c0.5,0,1,0.1,1.6,0.1c0,0,0.1,0,0.1,0
			c0.3,0.1,0.4,0.1,0.4,0.4c0,0.1,0,0.2,0,0.3c0,0.2-0.1,0.3-0.3,0.3c-0.8,0-1.6-0.1-2.3-0.1c-0.3,0-0.7,0-1,0.1
			c-0.7,0.2-1,1-0.6,1.6c0.2,0.2,0.4,0.4,0.6,0.6c0.7,0.5,1.4,0.9,2.1,1.3c0.4,0.3,0.8,0.6,1.1,0.9c1.1,1,0.8,3.4-1.1,4
			C89.3,13.2,88.7,13.3,88.1,13.3C88.1,13.3,88.1,13.3,88.1,13.3z"/>
		<path class="st1" d="M62.6,13.3c-0.7-0.1-1.4-0.1-2.1-0.2c-0.2,0-0.3-0.1-0.2-0.3c0-0.1,0-0.3,0-0.4c0-0.3,0.1-0.3,0.4-0.3
			c0.5,0,0.9,0.1,1.4,0.1c0.5,0,1,0,1.6-0.1c1-0.2,1.2-0.9,1.1-1.7c0-0.2-0.2-0.4-0.4-0.6c-0.4-0.3-0.8-0.6-1.2-0.9
			c-0.6-0.4-1.3-0.8-1.9-1.2c-0.5-0.3-0.9-0.7-1-1.3c-0.3-1.1-0.1-2.5,1.6-2.9c0.6-0.2,1.3-0.2,1.9-0.1c0.5,0,1.1,0.1,1.6,0.1
			c0,0,0.1,0,0.1,0c0.4,0.1,0.4,0.1,0.4,0.5c0,0.1,0,0.2,0,0.3c0,0.2-0.1,0.3-0.3,0.3c-0.8,0-1.5-0.1-2.3-0.1c-0.3,0-0.7,0-1,0.1
			c-0.9,0.2-1.2,1.2-0.6,1.8C61.8,6.6,62,6.8,62.3,7c0.7,0.4,1.4,0.8,2,1.2c0.4,0.3,0.7,0.6,1.1,0.9c1,1,0.8,3.5-1.2,4
			C63.7,13.3,63.2,13.3,62.6,13.3C62.6,13.3,62.6,13.3,62.6,13.3z"/>
		<path class="st1" d="M78.6,8.3c0-0.6,0-1.2,0.1-1.8c0.1-1,0.5-1.9,1.3-2.5c0.5-0.4,1.1-0.6,1.7-0.6c0.9-0.1,1.7,0.1,2.5,0.2
			c0.2,0,0.3,0.1,0.3,0.3c0,0.2,0,0.3,0,0.5c0,0.2-0.1,0.2-0.2,0.2c-0.6,0-1.2-0.1-1.9-0.1c-0.7,0-1.3,0-1.8,0.5
			c-0.4,0.4-0.6,0.9-0.7,1.4c0,0.3-0.1,0.6-0.1,1c0,0.8,0,1.5,0,2.3c0,0.4,0.1,0.9,0.3,1.3c0.4,0.9,1.1,1.2,2,1.2
			c0.7,0,1.4-0.1,2.1-0.1c0.3,0,0.4,0,0.4,0.3c0,0.1,0,0.3,0,0.4c0,0.2-0.1,0.3-0.3,0.3c-0.4,0.1-0.8,0.1-1.1,0.1
			c-0.7,0-1.4,0.1-2.1-0.1c-1.2-0.3-1.9-1.1-2.2-2.2c-0.2-0.5-0.2-1-0.2-1.6C78.6,9,78.6,8.7,78.6,8.3C78.6,8.3,78.6,8.3,78.6,8.3z"
			/>
		<path class="st1" d="M69.9,8.8c0-1.3,0-2.7,0-4c0-0.2,0-0.2-0.2-0.2c-0.7,0-1.4,0-2.1,0c-0.1,0-0.2,0-0.3,0
			c-0.1,0-0.2-0.1-0.2-0.2c0-0.2,0-0.4,0-0.5c0-0.2,0.1-0.3,0.3-0.3c0.1,0,0.1,0,0.2,0c2,0,4,0,6,0c0.3,0,0.4,0.1,0.4,0.4
			c0,0.1,0,0.3,0,0.4c0,0.1-0.1,0.2-0.2,0.3c-0.1,0-0.2,0-0.2,0c-0.7,0-1.4,0-2.1,0c-0.2,0-0.2,0-0.2,0.2c0,2.7,0,5.3,0,8
			c0,0.1,0,0.1,0,0.2c0,0.2-0.1,0.3-0.3,0.3c-0.2,0-0.4,0-0.7,0c-0.2,0-0.3-0.1-0.3-0.3c0-0.1,0-0.1,0-0.2
			C69.9,11.4,69.9,10.1,69.9,8.8z"/>
		<path class="st1" d="M35.4,7.5c0,1.2,0,2.4,0,3.5c0,0.2,0,0.3,0.1,0.5c0.1,0.3,0.2,0.5,0.5,0.6c0.3,0.1,0.7,0.1,1,0.1
			c0.8,0,1.6,0,2.4,0c0.3,0,0.3,0,0.3,0.3c0,0.2,0,0.3,0,0.5c0,0.1-0.1,0.2-0.2,0.2c-1,0.1-2,0.1-3,0.1c-0.4,0-0.8-0.1-1.2-0.3
			c-0.6-0.3-0.9-0.8-1-1.5c0-0.3-0.1-0.6-0.1-0.9c0-2.2,0-4.4,0-6.6c0,0,0,0,0-0.1c0-0.5,0.1-0.5,0.5-0.5c0.1,0,0.3,0,0.4,0
			c0.2,0,0.3,0.1,0.3,0.3c0,0.1,0,0.2,0,0.4C35.4,5.3,35.4,6.4,35.4,7.5z"/>
		<path class="st1" d="M75.5,8.3c0-1.5,0-3,0-4.5c0-0.3,0.1-0.4,0.4-0.4c0.2,0,0.3,0,0.5,0c0.3,0,0.4,0.1,0.4,0.3c0,0.2,0,0.4,0,0.5
			c0,2.8,0,5.6,0,8.5c0,0.4-0.1,0.4-0.4,0.4c-0.2,0-0.3,0-0.5,0c-0.3,0-0.3-0.1-0.3-0.3C75.5,11.4,75.5,9.8,75.5,8.3z"/>
		<path class="st1" d="M58.3,8.3c0,1.5,0,3,0,4.5c0,0.3-0.1,0.4-0.4,0.4c-0.2,0-0.3,0-0.5,0c-0.3,0-0.4-0.1-0.4-0.4c0,0,0,0,0-0.1
			c0-3,0-5.9,0-8.9c0-0.4,0.1-0.4,0.4-0.4c0.2,0,0.3,0,0.5,0c0.2,0,0.3,0.1,0.3,0.3C58.3,5.3,58.3,6.8,58.3,8.3z"/>
		<path class="st0" d="M46,8.3c0,0.6,0,1.2-0.1,1.8c0,0.4-0.2,0.7-0.3,1c-0.3,0.6-0.9,0.9-1.6,1c-0.4,0-0.7,0-1.1-0.1
			c-0.7-0.2-1.1-0.7-1.3-1.4c-0.2-0.5-0.2-1-0.2-1.5c0-0.8,0-1.5,0-2.3c0-0.6,0.2-1.2,0.5-1.6c0.3-0.5,0.8-0.7,1.4-0.8
			c0.4,0,0.7,0,1.1,0.1c0.8,0.2,1.3,0.7,1.5,1.5c0.1,0.4,0.1,0.8,0.2,1.2C46,7.6,45.9,8,46,8.3C45.9,8.3,46,8.3,46,8.3z"/>
	</g>
	<g>
		<g>
			<path class="st2" d="M18.5,4.9h-2.9c-0.4,0-0.6,0.3-0.6,0.7V7h3.4c0.1,0,0.3,0.1,0.3,0.3v1.3c0,0.1-0.1,0.3-0.3,0.3H15v3.9
				c0,0.1-0.1,0.3-0.3,0.3H13c-0.1,0-0.3-0.1-0.3-0.3V5.9c0-2.5,1.5-3,3.2-3C17.2,3,18,3,18.5,3.1c0.2,0,0.3,0.1,0.3,0.3v1.3
				C18.8,4.8,18.6,4.9,18.5,4.9z"/>
			<path class="st2" d="M23.2,13c-1.1,0-2-0.1-2.7-0.3c-0.1,0-0.2-0.2-0.2-0.3v-1.3c0-0.2,0.1-0.3,0.3-0.3c0,0,0,0,0,0
				c0.6,0.1,1.9,0.2,2.6,0.2c0.6,0,1.1-0.2,1.1-0.9c0-0.3-0.1-0.5-0.8-1l-1.9-1.1c-1.2-0.7-1.6-1.5-1.6-2.6c0-1.4,0.8-2.6,3.3-2.6
				c1,0,2.3,0.1,2.9,0.3c0.1,0,0.2,0.1,0.2,0.3v1.4c0,0.1-0.1,0.2-0.3,0.2c0,0-0.7-0.1-0.7-0.1c-0.6,0-1.1-0.1-2.1-0.1
				c-1.2,0-1.2,0.7-0.9,1.1c0.2,0.2,0.3,0.3,0.9,0.6l1.8,1c1.3,0.8,1.6,1.5,1.5,2.6C26.7,11.5,25.9,13,23.2,13z"/>
		</g>
		<path class="st2" d="M7.2,9.4H5.8v3.2c0,0.1-0.1,0.3-0.3,0.3H3.8c-0.1,0-0.3-0.1-0.3-0.3V5.9c0-2.5,1.7-2.9,3.3-2.9
			c0.1,0,0.3,0,0.4,0h0c0.1,0,0.3,0,0.4,0c1.7,0,3.3,0.4,3.3,2.9v6.8c0,0.1-0.1,0.3-0.3,0.3H8.9c-0.1,0-0.3-0.1-0.3-0.3V9.4H7.2
			L7.2,9.4z M7.2,7.5h1.4v-2c0-0.4-0.3-0.6-0.7-0.6l-0.8,0h0l-0.8,0c-0.4,0-0.7,0.2-0.7,0.6v2H7.2L7.2,7.5z"/>
	</g>
	<g>
		<path class="st0" d="M55.7,21C55.7,21,55.7,21,55.7,21c0.5,0.3,0.6,0.7,0.5,1.1c0,0.8-0.6,1.1-1.1,1.1c-0.5,0-1.1,0-1.6,0
			c-0.3,0-0.3-0.1-0.3-0.4c0-1.2,0-2.4,0-3.6c0-0.3,0-0.3,0.3-0.4c0.6-0.1,1.2-0.1,1.8,0c0.6,0.1,0.9,0.4,0.9,1
			C56.3,20.3,56.1,20.7,55.7,21z M54,21.9c0,0.2,0,0.4,0,0.5c0,0,0,0.1,0.1,0.1c0.3,0,0.6,0,1-0.1c0.3-0.1,0.4-0.3,0.4-0.6
			c0-0.3-0.2-0.6-0.5-0.6c-0.3,0-0.6,0-1,0c0,0-0.1,0-0.1,0.1C54,21.5,54,21.7,54,21.9z M54,20.1c0,0.2,0,0.3,0,0.5
			c0,0,0,0.1,0.1,0.1c0.3,0,0.5,0,0.8,0c0.4,0,0.6-0.2,0.6-0.5c0-0.4-0.1-0.6-0.5-0.6c-0.3,0-0.5,0-0.8,0c-0.1,0-0.1,0-0.1,0.1
			C54,19.7,54,19.9,54,20.1z"/>
		<path class="st0" d="M88.5,22.6c-0.4,0-0.6-0.2-0.6-0.6c0-0.5,0-1.1,0-1.6c0-0.6,0-0.5-0.6-0.5c-0.1,0-0.2,0-0.2,0.2
			c0,0.7,0,1.4,0,2c0,0.6,0.4,1,1,1.1c0.3,0,0.7,0,1-0.1c0.1,0,0.1,0,0.2,0c0.3,0.1,0.6,0.1,1,0.1c0.5,0,0.8-0.3,1-0.7
			c0.1-0.2,0.1-0.4,0.1-0.7c0-0.5,0-1,0-1.5c0-0.5,0.1-0.4-0.4-0.4c-0.3,0-0.3,0-0.3,0.3c0,0.6,0,1.2,0,1.8c0,0.3-0.2,0.6-0.5,0.6
			c-0.2,0-0.4,0-0.6,0c0-0.1,0-0.2,0-0.2c0-0.8,0-1.5,0-2.3c0-0.2-0.1-0.2-0.2-0.2c-0.1,0-0.2,0-0.3,0c-0.2,0-0.2,0-0.2,0.2
			c0,0.7,0,1.4,0,2.1v0.4L88.5,22.6z"/>
		<path class="st0" d="M50.1,23.2c-0.2,0-0.4,0-0.6,0c-0.8,0-1.3-0.5-1.3-1.3c0-0.4,0-0.7,0-1.1c0.1-0.6,0.5-1,1.2-1
			c0.4,0,0.9,0.1,1.3,0.1c0.1,0,0.2,0.1,0.2,0.2c0,1,0,2,0,3c0,0.7-0.4,1.1-1.1,1.1c-0.4,0-0.8,0-1.2-0.1c-0.2,0-0.3-0.4-0.2-0.5
			c0,0,0.1,0,0.2,0c0.4,0,0.7,0,1.1,0.1C50,23.7,50.1,23.6,50.1,23.2z M50.1,21.5c0-0.3,0-0.6,0-0.9c0,0,0,0,0,0
			c0-0.1,0-0.2-0.2-0.2c-0.1,0-0.3,0-0.4,0c-0.3,0-0.6,0.2-0.6,0.5c0,0.4-0.1,0.8,0,1.1c0,0.4,0.3,0.5,0.7,0.5c0.1,0,0.3,0,0.4,0
			c0.1,0,0.1-0.1,0.1-0.2C50.1,22.1,50.1,21.8,50.1,21.5z"/>
		<path class="st0" d="M34.5,21.3c0,0.3,0,0.6,0,0.9c0,0.2,0.2,0.3,0.4,0.3c0.4,0,0.8,0,1.2,0c0.2,0,0.2,0.1,0.2,0.2
			c0,0.4,0.1,0.4-0.4,0.4c-0.4,0-0.9,0-1.4,0c-0.5,0-0.8-0.4-0.8-0.9c0-0.8,0-1.7,0-2.5c0-0.6,0.4-0.9,0.9-0.9c0.5,0,0.9,0,1.4,0
			c0.2,0,0.2,0.1,0.2,0.2c0,0.4,0.1,0.4-0.4,0.4c-0.3,0-0.6,0-0.9,0c-0.4,0-0.5,0.1-0.5,0.5c0,0.2,0,0.4,0,0.5c0,0.1,0,0.2,0.2,0.2
			c0.4,0,0.9,0,1.3,0c0.2,0,0.2,0.1,0.2,0.2c0,0.5,0.1,0.4-0.4,0.4c-0.4,0-0.7,0-1.1,0C34.7,21.2,34.6,21.3,34.5,21.3z"/>
		<path class="st0" d="M68.9,21.8c0,0.5,0.2,0.8,0.7,0.8c0.3,0,0.7,0,1,0c0.1,0,0.2,0,0.2,0.2c0,0.5,0.1,0.4-0.4,0.5
			c-0.4,0-0.8,0.1-1.2,0c-0.6-0.1-1-0.6-1-1.2c0-0.3,0-0.7,0-1c0.1-0.9,0.9-1.2,1.6-1.1c0.7,0.1,1.1,0.6,1.1,1.4c0,0.1,0,0.2,0,0.4
			c0,0.1-0.1,0.2-0.2,0.2c-0.6,0-1.1,0-1.7,0C69,21.8,68.9,21.8,68.9,21.8z M68.9,21.2c0.4,0,0.8,0,1.2,0c0-0.5-0.2-0.8-0.6-0.8
			C69.1,20.5,68.8,20.8,68.9,21.2z"/>
		<path class="st0" d="M39.6,21.5c0,0.4,0,0.9,0,1.3c0,0.2-0.1,0.2-0.2,0.3c-0.5,0.1-0.9,0.2-1.4,0.1c-0.6,0-1-0.4-1.1-1
			c-0.1-0.4-0.1-0.9,0-1.3c0.1-0.6,0.6-1,1.2-1c0.4,0,0.8,0.1,1.2,0.1c0.2,0,0.2,0.1,0.2,0.3C39.6,20.7,39.6,21.1,39.6,21.5z
			 M38.9,21.5c0-0.3,0-0.6,0-0.9c0-0.1,0-0.2-0.2-0.2c-0.2,0-0.3,0-0.5,0c-0.3,0-0.5,0.2-0.6,0.4c-0.1,0.4-0.1,0.9,0,1.3
			c0,0.2,0.2,0.4,0.4,0.4c0.2,0,0.4,0,0.6,0c0.1,0,0.2-0.1,0.2-0.2C38.9,22.1,38.9,21.8,38.9,21.5z"/>
		<path class="st0" d="M86.3,22.4c-0.1,0.5-0.6,0.8-1.1,0.8c-0.4,0-0.8,0-1.1-0.3c-0.3-0.2-0.4-0.5-0.4-0.9c0-0.4,0-0.8,0-1.2
			c0.2-0.8,0.8-1.1,1.6-1c0.7,0.1,1.1,0.6,1.1,1.4c0,0.1,0,0.2,0,0.3C86.4,21.5,86.4,22.1,86.3,22.4z M84.4,21.5
			c0,0.2,0,0.4,0.1,0.5c0.1,0.3,0.3,0.5,0.6,0.5c0.3,0,0.6-0.2,0.6-0.5c0-0.4,0-0.8,0-1.1c0-0.3-0.3-0.5-0.6-0.5
			c-0.3,0-0.5,0.2-0.6,0.5C84.4,21.2,84.4,21.4,84.4,21.5z"/>
		<path class="st0" d="M78.8,21.4c0-0.5,0-1,0-1.5c0-0.7,0.3-1.1,1.1-1.1c0.4,0,0.9,0,1.3,0c0.2,0,0.2,0.1,0.2,0.3
			c0,0.3,0.1,0.4-0.4,0.4c-0.3,0-0.6,0-0.9,0c-0.3,0-0.4,0.1-0.5,0.4c0,0.2,0,0.4,0,0.6c0,0.1,0.1,0.1,0.2,0.1c0.4,0,0.9,0,1.3,0
			c0.2,0,0.2,0,0.2,0.2c0,0.4,0.1,0.4-0.4,0.4c-0.4,0-0.7,0-1.1,0c-0.1,0-0.2,0-0.2,0.2c0,0.5,0,1,0,1.5c0,0.1,0,0.2-0.2,0.2
			c-0.1,0-0.3,0-0.4,0c-0.1,0-0.2-0.1-0.2-0.2C78.8,22.5,78.8,21.9,78.8,21.4z"/>
		<path class="st0" d="M47.5,23c0,0.1,0,0.2-0.2,0.2c-0.1,0-0.2,0-0.3,0c-0.2,0-0.2-0.1-0.2-0.2c0-0.6,0-1.3,0-1.9
			c0-0.1,0-0.1,0-0.2c0,0,0-0.1,0-0.1c-0.1-0.3-0.4-0.2-0.7-0.2c-0.2,0-0.4,0.1-0.4,0.3c0,0.1,0,0.2,0,0.3c0,0.6,0,1.2,0,1.9
			c0,0.2,0,0.2-0.2,0.2c-0.1,0-0.3,0-0.4,0c0,0-0.1-0.1-0.1-0.1c0-0.8,0-1.5,0-2.3c0-0.5,0.4-0.8,1-0.9c0.3,0,0.6,0,0.8,0
			c0.5,0.1,0.8,0.5,0.8,0.9c0,0.4,0,0.7,0,1.1C47.5,21.9,47.5,22.6,47.5,23z"/>
		<path class="st0" d="M64.8,21.9c0-0.3,0-0.7,0-1c0-0.6,0.5-1,1.1-1c0.2,0,0.5,0,0.7,0c0.5,0.1,0.9,0.5,0.9,1c0,0.7,0,1.4,0,2.1
			c0,0.1,0,0.2-0.2,0.2c-0.1,0-0.3,0-0.4,0c-0.1,0-0.2-0.1-0.2-0.2c0-0.6,0-1.3,0-1.9c0-0.1,0-0.1,0-0.2c0-0.3-0.2-0.5-0.5-0.5
			c-0.6,0-0.7,0.1-0.7,0.7c0,0.6,0,1.2,0,1.8c0,0.2,0,0.2-0.2,0.2c-0.1,0-0.2,0-0.3,0c-0.1,0-0.2-0.1-0.2-0.2
			C64.8,22.6,64.8,21.9,64.8,21.9z"/>
		<path class="st0" d="M56.9,21.1c0-0.3,0-0.6,0-0.9c0-0.2,0-0.2,0.2-0.2c0.1,0,0.2,0,0.3,0c0.1,0,0.2,0.1,0.2,0.2
			c0,0.6,0,1.2,0,1.7c0,0.1,0,0.3,0,0.4c0.1,0.2,0.2,0.4,0.5,0.4c0.4,0,0.5-0.1,0.6-0.3c0-0.1,0.1-0.3,0.1-0.4c0-0.6,0-1.1,0-1.7
			c0-0.2,0-0.2,0.2-0.2c0.1,0,0.2,0,0.4,0c0.1,0,0.2,0,0.2,0.2c0,0.6,0,1.3,0,1.9c0,0.7-0.5,1.2-1.3,1.2c-0.5,0-0.9-0.1-1.2-0.6
			c-0.2-0.3-0.2-0.6-0.2-0.9C56.9,21.5,56.9,21.3,56.9,21.1z"/>
		<path class="st0" d="M41.4,23.2c-0.4,0-0.5,0-0.9-0.1c-0.1,0-0.2-0.1-0.2-0.2c0-0.3,0-0.3,0.3-0.3c0.3,0,0.6,0,0.8,0
			c0.2,0,0.3,0,0.4-0.2c0-0.2-0.1-0.3-0.2-0.3c-0.3-0.2-0.6-0.4-0.9-0.6c-0.4-0.2-0.5-0.6-0.4-1c0-0.3,0.2-0.5,0.5-0.6
			c0.5-0.2,1.1-0.1,1.6,0c0,0,0.1,0,0.1,0.1c0,0,0,0.1,0,0.1c0,0.4,0.1,0.4-0.4,0.4c-0.2,0-0.5,0-0.7,0c-0.1,0-0.1,0-0.2,0
			c-0.1,0-0.2,0.1-0.2,0.2c0,0.1,0.1,0.2,0.1,0.2c0.2,0.2,0.5,0.3,0.7,0.4c0.1,0.1,0.3,0.2,0.4,0.3c0.5,0.4,0.5,1.3-0.3,1.5
			C41.8,23.2,41.6,23.2,41.4,23.2z"/>
		<path class="st0" d="M82.2,21c0-0.7,0-1.3,0-2c0-0.2,0-0.2,0.2-0.2c0.1,0,0.2,0,0.3,0c0.2,0,0.2,0.1,0.2,0.2c0,1.3,0,2.6,0,3.9
			c0,0.3,0,0.3-0.3,0.3c-0.1,0-0.2,0-0.3,0c-0.2,0-0.2,0-0.2-0.2c0-0.6,0-1.1,0-1.7C82.2,21.2,82.2,21.1,82.2,21z"/>
		<path class="st0" d="M43.3,21.5c0-0.5,0-1,0-1.4c0-0.1,0-0.2,0.2-0.2c0.1,0,0.3,0,0.4,0c0.1,0,0.2,0,0.2,0.2c0,1,0,2,0,3
			c0,0.1,0,0.2-0.2,0.2c-0.1,0-0.2,0-0.4,0c-0.2,0-0.2,0-0.2-0.2C43.3,22.5,43.3,22,43.3,21.5z"/>
		<path class="st0" d="M64,21.5c0,0.5,0,1,0,1.4c0,0.1,0,0.2-0.2,0.2c-0.1,0-0.2,0-0.3,0c-0.2,0-0.2-0.1-0.2-0.2c0-0.6,0-1.2,0-1.8
			c0-0.4,0-0.7,0-1.1c0-0.2,0-0.3,0.3-0.3c0.1,0,0.2,0,0.3,0c0.2,0,0.2,0.1,0.2,0.2C64,20.6,64,21,64,21.5z"/>
		<path class="st0" d="M63.6,18.7c0.4,0,0.4,0,0.4,0.4c0,0.4,0,0.3-0.4,0.3c-0.5,0-0.4,0.1-0.4-0.4C63.2,18.7,63.2,18.7,63.6,18.7
			C63.6,18.7,63.6,18.7,63.6,18.7z"/>
		<path class="st0" d="M43.7,19.4c-0.4,0-0.4,0-0.4-0.4c0,0,0-0.1,0-0.1c0-0.2,0-0.2,0.2-0.2c0.1,0,0.3,0,0.4,0c0.1,0,0.2,0,0.2,0.1
			c0,0.1,0,0.1,0,0.2C44.1,19.5,44.1,19.4,43.7,19.4z"/>
	</g>
	<path class="st0" d="M61.3,23.2c-0.4,0-0.5,0-0.9-0.1c-0.1,0-0.2-0.1-0.2-0.2c0-0.3,0-0.3,0.3-0.3c0.3,0,0.6,0,0.8,0
		c0.2,0,0.3,0,0.4-0.2c0-0.2-0.1-0.3-0.2-0.3c-0.3-0.2-0.6-0.4-0.9-0.6c-0.4-0.2-0.5-0.6-0.4-1c0-0.3,0.2-0.5,0.5-0.6
		c0.5-0.2,1.1-0.1,1.6,0c0,0,0.1,0,0.1,0.1c0,0,0,0.1,0,0.1c0,0.4,0.1,0.4-0.4,0.4c-0.2,0-0.5,0-0.7,0c-0.1,0-0.1,0-0.2,0
		c-0.1,0-0.2,0.1-0.2,0.2c0,0.1,0.1,0.2,0.1,0.2c0.2,0.2,0.5,0.3,0.7,0.4c0.1,0.1,0.3,0.2,0.4,0.3c0.5,0.4,0.5,1.3-0.3,1.5
		C61.7,23.2,61.6,23.2,61.3,23.2z"/>
	<path class="st0" d="M72.5,23.2c-0.4,0-0.5,0-0.9-0.1c-0.1,0-0.2-0.1-0.2-0.2c0-0.3,0-0.3,0.3-0.3c0.3,0,0.6,0,0.8,0
		c0.2,0,0.3,0,0.4-0.2c0-0.2-0.1-0.3-0.2-0.3c-0.3-0.2-0.6-0.4-0.9-0.6c-0.4-0.2-0.5-0.6-0.4-1c0-0.3,0.2-0.5,0.5-0.6
		c0.5-0.2,1.1-0.1,1.6,0c0,0,0.1,0,0.1,0.1c0,0,0,0.1,0,0.1c0,0.4,0.1,0.4-0.4,0.4c-0.2,0-0.5,0-0.7,0c-0.1,0-0.1,0-0.2,0
		c-0.1,0-0.2,0.1-0.2,0.2c0,0.1,0.1,0.2,0.1,0.2c0.2,0.2,0.5,0.3,0.7,0.4c0.1,0.1,0.3,0.2,0.4,0.3c0.5,0.4,0.5,1.3-0.3,1.5
		C73,23.2,72.8,23.2,72.5,23.2z"/>
	<path class="st0" d="M75.4,23.2c-0.4,0-0.5,0-0.9-0.1c-0.1,0-0.2-0.1-0.2-0.2c0-0.3,0-0.3,0.3-0.3c0.3,0,0.6,0,0.8,0
		c0.2,0,0.3,0,0.4-0.2c0-0.2-0.1-0.3-0.2-0.3c-0.3-0.2-0.6-0.4-0.9-0.6c-0.4-0.2-0.5-0.6-0.4-1c0-0.3,0.2-0.5,0.5-0.6
		c0.5-0.2,1.1-0.1,1.6,0c0,0,0.1,0,0.1,0.1c0,0,0,0.1,0,0.1c0,0.4,0.1,0.4-0.4,0.4c-0.2,0-0.5,0-0.7,0c-0.1,0-0.1,0-0.2,0
		c-0.1,0-0.2,0.1-0.2,0.2c0,0.1,0.1,0.2,0.1,0.2c0.2,0.2,0.5,0.3,0.7,0.4c0.1,0.1,0.3,0.2,0.4,0.3c0.5,0.4,0.5,1.3-0.3,1.5
		C75.8,23.2,75.7,23.2,75.4,23.2z"/>
</g>
</svg>
