<?xml version="1.0" encoding="utf-8"?>
<!-- Generator: Adobe Illustrator 22.1.0, SVG Export Plug-In . SVG Version: 6.00 Build 0)  -->
<svg version="1.1" id="Layer_1" xmlns="http://www.w3.org/2000/svg" xmlns:xlink="http://www.w3.org/1999/xlink" x="0px" y="0px"
	 viewBox="0 0 96 71.7" style="enable-background:new 0 0 96 71.7;" xml:space="preserve">
<style type="text/css">
	.Drop_x0020_Shadow{fill:none;}
	.Round_x0020_Corners_x0020_2_x0020_pt{fill:#FFFFFF;stroke:#000000;stroke-miterlimit:10;}
	.Live_x0020_Reflect_x0020_X{fill:none;}
	.Bevel_x0020_Soft{fill:url(#SVGID_1_);}
	.Dusk{fill:#FFFFFF;}
	.Foliage_GS{fill:#FFD800;}
	.Pompadour_GS{fill-rule:evenodd;clip-rule:evenodd;fill:#399CDB;}
	.st0{fill:#53B237;}
	.st1{fill:#2499DA;}
	.st2{fill:#FFFFFF;}
	.st3{fill:none;stroke:#FFFFFF;stroke-width:0.9114;stroke-miterlimit:10;}
	.st4{fill:#204E8D;}
	.st5{fill-rule:evenodd;clip-rule:evenodd;fill:#239ADB;}
</style>
<linearGradient id="SVGID_1_" gradientUnits="userSpaceOnUse" x1="0" y1="-12.15" x2="0.7071" y2="-11.4429">
	<stop  offset="0" style="stop-color:#D6D7DC"/>
	<stop  offset="0.1738" style="stop-color:#CFD0D5"/>
	<stop  offset="0.352" style="stop-color:#BEBEC2"/>
	<stop  offset="0.5323" style="stop-color:#A5A5A9"/>
	<stop  offset="0.7139" style="stop-color:#86888B"/>
	<stop  offset="0.8949" style="stop-color:#65696B"/>
	<stop  offset="1" style="stop-color:#525859"/>
</linearGradient>
<g>
	<ellipse class="st0" cx="48" cy="31.5" rx="48" ry="31.5"/>
	<ellipse class="st1" cx="48.1" cy="31.8" rx="37.3" ry="23.9"/>
	<path class="st0" d="M45.9,41.3c0,0,1-6.3,3.5-10.6l0.3-0.6c3.2,0.5,4.1,4.1,2.7,5.5c-1.4,1.4-2.6,3.6-3.6,5L45.9,41.3z"/>
	<g>
		<path class="st2" d="M48.9,40.6l-3,0.7c0,0,1-6.3,3.6-10.6l0.3-0.6c-3.2-0.5-6.6,0.2-11.3,2s-5.5,3-5.5,3l-1.4,2.2L31.3,38
			c-2.3,0.9-9.9,4.6-13.4,6.5c-3.5,2-5.7,2-5.7,2l-7-0.2c1.4,1.8,3.1,3.5,5.1,5c4.5-0.1,14.3-1,35.3-5.2c30.1-6,42.5-1.8,45.5-0.3
			c1-1.3,1.9-2.7,2.7-4.1C74.8,34.1,48.9,40.6,48.9,40.6z"/>
		<path class="st2" d="M45.6,48c-17.6,3.6-27.4,4.8-32.7,5.2c2,1.4,4.2,2.6,6.5,3.7c5.8-0.7,14.1-2.1,26.2-4.5
			c21.9-4.4,34.4-3.3,40.8-1.9c1.3-1.1,2.5-2.3,3.6-3.6C85.6,45.4,72.9,42.5,45.6,48z"/>
	</g>
	<g>
		<g>
			<g>
				<g>
					<path class="st3" d="M10.8,70.1c1.2-3.5,2.5-6.9,3.7-10.4c1.6-4.5,3.2-9.1,4.9-13.7c0.1-0.4,0.3-0.8,0.4-1.2
						c0.1-0.3,0.3-0.8,0.7-0.8c0.7,0,0.8,0.4,1,0.9c0.7,1.9,1.5,3.8,2.2,5.7c2.2,5.6,4.3,11.2,6.5,16.8c0.7,1.9-0.7,3.8-2.9,3.8
						c-0.7-0.1-1.5-0.4-2-1.4c-0.6-1.1-1.2-2.1-1.6-3.3c-0.4-0.9-1-1.4-1.9-1.4c-2.4,0-4.7,0.1-7.1,0.2c-0.5,0-1.1,0.6-1.4,1.1
						c-0.5,1.1-0.8,2.2-1.2,3.3c0,0-0.4,1.5-0.9,1.4C10.5,71.4,10.5,70.9,10.8,70.1z M18.4,64c0.6,0,1.4,0,2.1,0
						c1.5,0,2-0.7,1.5-2.2c-0.1-0.3-1.7-3.8-2.4-5.2c-0.4-0.9-0.8-0.9-1.2-1c-0.4,0-1.1,0.4-1.3,0.8c-0.8,1.8-1.4,3.8-2,5.7
						c-0.4,1.2,0.2,1.8,1.4,1.8C17.1,64.1,17.7,64,18.4,64z"/>
					<path class="st3" d="M87.6,71.2c-3,0-5.5,0.2-8.5,0c-1.9-0.1-3.3-1.2-3.3-3.8c0-3.3,0-6.6,0-9.9c0,0,0,0,0,0
						c0-3.3,0-7.1,0.1-10.5c0-0.9,0-1.6,0.8-2.3c0.9-0.7,2.2-0.9,3.3-0.4c1,0.5,1.4,1.1,1.4,2.6c0,6.3,0,12.6,0,18.9
						c0,1.6,0.4,2.8,2,3.6c0.5,0.2,1.1,0.2,1.7,0.2c1.1,0,2.7,0,2.8,0c0.3,0,1.1,0,1.1,0.8C88.9,71.3,88.2,71.2,87.6,71.2z"/>
				</g>
			</g>
			<path class="st3" d="M60.3,54.3c0-1.7,0-3.4,0-5.2c-0.1-1.5-0.7-2.4-1.6-3.2c-1.8-1.6-5.9-2-9.2-0.9c-2.7,0.9-3.7,2.3-3.7,5.1
				c0,2.8,0,5.5,0,8.3c0,0,0,0,0,0c0,3.1,0,6.2,0,9.2c0,1.6,0.8,2.5,2.2,3.1c3.3,1.4,6.7,1.4,9.9,0c1.6-0.7,2.4-2,2.4-3.9
				c-0.1-1.9,0-3.8-0.1-5.6c0-0.7,0.1-1.5-0.3-2.2c-0.7-1.1-2.1-1.7-3.3-1.2c-0.8,0.3-1.7,1.1-2.1,1.8c-0.5,0.8-0.3,1.7,0.5,2.3
				c0.5,0.4,1.3,0.8,1.8,1.1c1.5,0.9,2.2,1.3,2.1,3.7c-0.1,1-0.1,1.9-1.8,2.8c-1.3,0.5-1.5,0.4-2.4,0.3c-1.5-0.2-2.9-1.4-2.9-2.8
				c0-6,0-12,0-18c0-0.4,0.1-0.9,0.3-1.2c0.5-1.1,1.6-1.6,3.3-1.6c1.9,0,3.3,1.3,3.4,3v5.1c0,0-0.1,1.1,0.7,1.1
				C60.2,55.5,60.3,54.9,60.3,54.3z"/>
		</g>
		<g>
			<g>
				<g>
					<path class="st4" d="M10.8,70.1c1.2-3.5,2.5-6.9,3.7-10.4c1.6-4.5,3.2-9.1,4.9-13.7c0.1-0.4,0.3-0.8,0.4-1.2
						c0.1-0.3,0.3-0.8,0.7-0.8c0.7,0,0.8,0.4,1,0.9c0.7,1.9,1.5,3.8,2.2,5.7c2.2,5.6,4.3,11.2,6.5,16.8c0.7,1.9-0.7,3.8-2.9,3.8
						c-0.7-0.1-1.5-0.4-2-1.4c-0.6-1.1-1.2-2.1-1.6-3.3c-0.4-0.9-1-1.4-1.9-1.4c-2.4,0-4.7,0.1-7.1,0.2c-0.5,0-1.1,0.6-1.4,1.1
						c-0.5,1.1-0.8,2.2-1.2,3.3c0,0-0.4,1.5-0.9,1.4C10.5,71.4,10.5,70.9,10.8,70.1z M18.4,64c0.6,0,1.4,0,2.1,0
						c1.5,0,2-0.7,1.5-2.1c-0.1-0.3-1.7-3.8-2.4-5.2c-0.4-0.9-0.8-0.9-1.2-1c-0.4,0-1.1,0.4-1.3,0.8c-0.8,1.8-1.4,3.8-2,5.7
						c-0.4,1.2,0.2,1.8,1.4,1.8C17.1,64.1,17.7,64,18.4,64z"/>
					<path class="st4" d="M87.6,71.2c-3,0-5.5,0.2-8.5,0c-1.9-0.1-3.3-1.2-3.3-3.8c0-3.3,0-6.6,0-9.9c0,0,0,0,0,0
						c0-3.3,0-7.1,0.1-10.5c0-0.9,0-1.6,0.8-2.3c0.9-0.7,2.2-0.9,3.3-0.4c1,0.5,1.4,1.1,1.4,2.6c0,6.3,0,12.6,0,18.9
						c0,1.6,0.4,2.8,2,3.6c0.5,0.2,1.1,0.2,1.7,0.2c1.1,0,2.7,0,2.8,0c0.3,0,1.1,0,1.1,0.8C88.9,71.3,88.2,71.2,87.6,71.2z"/>
				</g>
			</g>
			<path class="st4" d="M60.3,54.3c0-1.7,0-3.4,0-5.2c-0.1-1.5-0.7-2.4-1.6-3.2c-1.8-1.6-5.9-2-9.2-0.9c-2.7,0.9-3.7,2.3-3.7,5.1
				c0,2.8,0,5.5,0,8.3c0,0,0,0,0,0c0,3.1,0,6.2,0,9.2c0,1.6,0.8,2.5,2.2,3.1c3.3,1.4,6.7,1.4,9.9,0c1.6-0.7,2.4-2,2.4-3.9
				c-0.1-1.9,0-3.8-0.1-5.6c0-0.7,0.1-1.5-0.3-2.2c-0.7-1.1-2.1-1.7-3.3-1.2c-0.8,0.3-1.7,1.1-2.1,1.8c-0.5,0.8-0.3,1.7,0.5,2.3
				c0.5,0.4,1.3,0.8,1.8,1.1c1.5,0.9,2.2,1.3,2.1,3.7c-0.1,1-0.1,1.9-1.8,2.8c-1.3,0.5-1.5,0.4-2.4,0.3c-1.5-0.2-2.9-1.4-2.9-2.8
				c0-6,0-12,0-18c0-0.4,0.1-0.9,0.3-1.2c0.5-1.1,1.6-1.6,3.3-1.6c1.9,0,3.3,1.3,3.4,3v5.1c0,0-0.1,1.1,0.7,1.1
				C60.2,55.5,60.3,54.9,60.3,54.3z"/>
		</g>
	</g>
	<g>
		<g>
			<rect x="38.5" y="30.2" class="st2" width="0.1" height="2.7"/>
		</g>
		<g>
			<path class="st2" d="M39.6,32.9h-0.2v-2.7h0.2V32.9z M39.1,32.9h-0.2v-2.7h0.2V32.9z"/>
		</g>
		<g>
			<path class="st2" d="M45.1,32.9h-0.2v-2.7h0.2V32.9z M44.6,32.9h-0.2v-2.7h0.2V32.9z M44.2,32.9h-0.2v-2.7h0.2V32.9z M43.7,32.9
				h-0.2v-2.7h0.2V32.9z M43.2,32.9H43v-2.7h0.2V32.9z M42.8,32.9h-0.2v-2.7h0.2V32.9z M42.3,32.9h-0.2v-2.7h0.2V32.9z M41.9,32.9
				h-0.2v-2.7h0.2V32.9z M41.4,32.9h-0.2v-2.7h0.2V32.9z M41,32.9h-0.2v-2.7H41V32.9z M40.5,32.9h-0.2v-2.7h0.2V32.9z M40,32.9h-0.2
				v-2.7H40V32.9z"/>
		</g>
	</g>
	<g id="XMLID_14_">
		<path id="XMLID_598_" class="st5" d="M42.3,34c0.1,0,0.2,0.1,0.2,0.1s-0.1,0.2-0.2,0.2c-0.1,0-0.2-0.1-0.2-0.1
			C42.1,34,42.2,34,42.3,34z M43.6,35.7c0.1-0.1,0-0.1,0-0.1c-0.1,0.1-0.2,0.3-0.5,0.4c-0.4,0.1-0.6,0.2-0.7,0.3c0,0,0,0,0,0l0,0
			c0,0,0,0,0,0c0-0.1-0.3-0.1-0.7-0.3c-0.3-0.1-0.4-0.2-0.5-0.3c0,0-0.1,0,0,0.1c-0.2-0.1-0.2-0.4,0-0.5c0,0,0,0.2,0.4,0.3
			c0,0-0.1,0-0.2,0c0.1,0.1,0.2,0.1,0.4,0.2c0.4,0.2,0.5-0.2,0.5-0.2l0-1.1l0,0l-0.4,0c-0.1,0-0.1,0-0.1-0.1c0,0,0-0.1,0.1-0.1
			l0.3,0l0.1,0l0-0.1c-0.2,0-0.3-0.1-0.3-0.2c0-0.1,0.2-0.3,0.4-0.3c0.2,0,0.4,0.1,0.4,0.2c0,0.1-0.1,0.2-0.3,0.3l0,0.1l0.4,0
			c0.1,0,0.1,0,0.1,0.1c0,0,0,0.1-0.1,0.1l-0.4,0l0,0l0.1,1.1c0,0,0.1,0.3,0.5,0.1c0.2-0.1,0.3-0.2,0.3-0.2c-0.1,0-0.1,0-0.2,0
			c0.3-0.1,0.3-0.4,0.3-0.4C43.8,35.3,43.8,35.6,43.6,35.7z"/>
	</g>
	<path class="st2" d="M63.9,13.8l6,1.7c0,0-0.8-0.8,6.1-1.6c0,0,0.8-2.6,1.4-4.4l0.6-0.2c0,0-1,4.2-1.1,4.8c0,0,0.5,0.1,0.6,0.7
		l4.3,0.2l-0.3,0.3l-3.9-0.1c0,0-0.8,0.8-1.8,1.3c0,0,6.3,1.1,8.7,1.4l0.2-0.5l0.4,0.1v0.5l0.4,0.2l-0.1,0.3l-3.9-0.2
		c0,0-0.2,1.8-2.1,1.7c0,0-1.2-0.4-0.5-1.8l-0.7-0.1c0,0-0.4,1.7-1.8,1.8c0,0-1.8-0.1-0.8-2l-2.1-0.2c0,0-2.1,1.5-3.9,1.5
		c-1.7,0-1.3-2.1-0.5-3l-0.3-0.2c0,0-0.5,1.2-1.7,1.1c-1.2-0.1-1.1-1.1-0.1-1.7l-0.6-0.2c0,0-0.4,1-1.4,0.9
		c-1.1-0.1-0.6-1.4,0.2-1.4c0.8-0.1-0.6-0.4-0.6-0.4l-0.2,0.1l-0.2,0V13.8z"/>
</g>
</svg>
