<?xml version="1.0" encoding="utf-8"?>
<!-- Generator: Adobe Illustrator 22.1.0, SVG Export Plug-In . SVG Version: 6.00 Build 0)  -->
<svg version="1.1" id="Layer_1" xmlns="http://www.w3.org/2000/svg" xmlns:xlink="http://www.w3.org/1999/xlink" x="0px" y="0px"
	 viewBox="0 0 96 91.6" style="enable-background:new 0 0 96 91.6;" xml:space="preserve">
<style type="text/css">
	.Drop_x0020_Shadow{fill:none;}
	.Round_x0020_Corners_x0020_2_x0020_pt{fill:#FFFFFF;stroke:#000000;stroke-miterlimit:10;}
	.Live_x0020_Reflect_x0020_X{fill:none;}
	.Bevel_x0020_Soft{fill:url(#SVGID_1_);}
	.Dusk{fill:#FFFFFF;}
	.Foliage_GS{fill:#FFDD00;}
	.Pompadour_GS{fill-rule:evenodd;clip-rule:evenodd;fill:#44ADE2;}
	.st0{fill:#00AEEF;}
	.st1{fill:#005BAA;}
</style>
<linearGradient id="SVGID_1_" gradientUnits="userSpaceOnUse" x1="0" y1="-2.195" x2="0.7071" y2="-1.4879">
	<stop  offset="0" style="stop-color:#DEDFE3"/>
	<stop  offset="0.1738" style="stop-color:#D8D9DD"/>
	<stop  offset="0.352" style="stop-color:#C9CACD"/>
	<stop  offset="0.5323" style="stop-color:#B4B5B8"/>
	<stop  offset="0.7139" style="stop-color:#989A9C"/>
	<stop  offset="0.8949" style="stop-color:#797C7E"/>
	<stop  offset="1" style="stop-color:#656B6C"/>
</linearGradient>
<g>
	<path class="st0" d="M38.1,51.8L27.8,41.4L17.3,51.8L6.9,41.4L48.4,0l41.4,41.4L79.6,51.8L69.2,41.4L58.8,51.9l10.3,10.3L58.8,72.5
		L48.2,62.2L38.1,72.5L27.7,62.2L38.1,51.8 M48.4,41.4l10.3-10.3L48.4,20.7L38.1,31.1L48.4,41.4 M48.4,31.1"/>
	<path class="st1" d="M9.1,77.6v5.6H7L9.1,77.6z M9.1,91.6h4.2V74.8H5.6L0,91.6h4.2L6.3,86h2.8V91.6z M70.8,91.6V80.4H61l-1.4,2.8
		v5.6l1.4,2.8H70.8z M63.8,88.8v-5.6h2.8v5.6H63.8z M19.6,91.6V74.8h-4.2v16.8H19.6z M89.7,83.2v8.4h-4.2v-8.4h-2.1v8.4h-4.2V80.4
		h15.4l1.4,2.8v8.4h-4.2v-8.4H89.7z M77.1,91.6V80.4l-4.2,0v11.2H77.1z M77.1,77.6v-2.8h-4.2v2.8H77.1z M25.2,86v-2.8H21V86H25.2z
		 M59.6,80.4v2.8h-2.1v8.4h-4.2v-8.4h-2.1v8.4H47v-8.4h-2.1v8.4H35l-1.4-2.8v-5.6h-2.8v8.4h-4.2V74.8h11.2v2.8h-7v2.8h7v8.4h2.8
		v-8.4H47v-2.8h4.2v2.8h2.1v-2.8h4.2v2.8H59.6z"/>
</g>
</svg>
