<?xml version="1.0" encoding="utf-8"?>
<!-- Generator: Adobe Illustrator 22.1.0, SVG Export Plug-In . SVG Version: 6.00 Build 0)  -->
<svg version="1.1" id="Layer_1" xmlns="http://www.w3.org/2000/svg" xmlns:xlink="http://www.w3.org/1999/xlink" x="0px" y="0px"
	 viewBox="0 0 96 53.7" style="enable-background:new 0 0 96 53.7;" xml:space="preserve">
<style type="text/css">
	.Drop_x0020_Shadow{fill:none;}
	.Round_x0020_Corners_x0020_2_x0020_pt{fill:#FFFFFF;stroke:#000000;stroke-miterlimit:10;}
	.Live_x0020_Reflect_x0020_X{fill:none;}
	.Bevel_x0020_Soft{fill:url(#SVGID_1_);}
	.Dusk{fill:#FFFFFF;}
	.Foliage_GS{fill:#FFD800;}
	.Pompadour_GS{fill-rule:evenodd;clip-rule:evenodd;fill:#399CDB;}
	.st0{fill:#C50B27;}
	.st1{fill:#616465;}
	.st2{fill:none;}
</style>
<linearGradient id="SVGID_1_" gradientUnits="userSpaceOnUse" x1="0" y1="-21.175" x2="0.7071" y2="-20.4679">
	<stop  offset="0" style="stop-color:#D6D7DC"/>
	<stop  offset="0.1738" style="stop-color:#CFD0D5"/>
	<stop  offset="0.352" style="stop-color:#BEBEC2"/>
	<stop  offset="0.5323" style="stop-color:#A5A5A9"/>
	<stop  offset="0.7139" style="stop-color:#86888B"/>
	<stop  offset="0.8949" style="stop-color:#65696B"/>
	<stop  offset="1" style="stop-color:#525859"/>
</linearGradient>
<g>
	<g>
		<path class="st0" d="M7.1,53.5c-0.1-0.5-0.2-0.8-0.3-1.2l-0.3-1H3.3l-0.3,1c-0.1,0.5-0.2,0.8-0.3,1.2H0c0.2-0.3,0.3-0.6,0.5-1.4
			L3,45.2c0.2-0.6,0.3-0.9,0.4-1.2h3c0.1,0.3,0.2,0.6,0.4,1.2l2.5,6.8c0.2,0.6,0.4,1.1,0.5,1.4H7.1z M4.9,46l-1.1,3.4h2.1L4.9,46z"
			/>
		<path class="st0" d="M10.5,53.5c0.1-0.5,0.1-1,0.1-1.7v-6.2c0-0.6,0-1.1-0.1-1.7c0.5,0,0.9,0,1.7,0h3.6c2.3,0,2.2,1.1,2.2,3.1
			c0,2,0,3.2-2.2,3.2h-2.9v1.5c0,0.7,0,1.2,0.1,1.7H10.5z M15.2,48.4c0.8,0,0.6-0.4,0.6-1.2s0.2-1.2-0.6-1.2h-2.3v2.4H15.2z"/>
		<path class="st0" d="M26.3,53.6c-0.5-0.1-0.9-0.1-1.9-0.1h-3.6c-0.9,0-1.2,0-1.7,0c0.1-0.5,0.1-0.9,0.1-1.7v-6.2
			c0-0.7,0-1.1-0.1-1.7c0.5,0,0.8,0,1.7,0h3.6c0.8,0,1.2,0,1.7-0.1v2.1C25.7,46,25.3,46,24.5,46h-3v1.7H24c0.8,0,1,0,1.7-0.1v2.1
			c-0.5-0.1-0.9-0.1-1.7-0.1h-2.5v1.9h2.9c0.9,0,1.4,0,1.9-0.1V53.6z"/>
		<path class="st0" d="M30.7,52.1c-0.3,0.5-0.5,0.9-0.8,1.4h-3c0.6-0.8,0.8-1,1.2-1.5l2.5-3.5l-2.1-3c-0.4-0.5-0.7-1-1.1-1.5h2.9
			c0.2,0.4,0.4,0.9,0.8,1.5l0.9,1.3l0.9-1.3c0.5-0.7,0.6-1.1,0.8-1.5h2.9c-0.4,0.5-0.7,0.9-1.1,1.4l-2.1,3l2.5,3.5
			c0.4,0.5,0.7,0.9,1.2,1.5h-3c-0.2-0.4-0.4-0.8-0.8-1.4L32,50.2L30.7,52.1z"/>
		<path class="st1" d="M52.9,53.5c-0.8,0-1.3,0-1.7,0c0.1-0.4,0.1-0.9,0.1-1.7v-6c0-0.8,0-1.3-0.1-1.8h2.5c-0.1,0.6-0.1,0.9-0.1,1.8
			v5.6h2.8c1,0,1.4,0,1.9-0.1v2.2c-0.4-0.1-1-0.1-1.9-0.1H52.9z"/>
		<path class="st1" d="M71.4,53.5c-0.9,0-1.3,0-1.8,0c0.1-0.5,0.1-0.9,0.1-1.7v-6.2c0-0.6,0-1.1-0.1-1.6c0.6,0,0.8,0,1.8,0h3.2
			c2,0,3.2,0.9,3.2,2.4c0,0.7-0.2,1.2-0.7,1.6c-0.3,0.2-0.5,0.3-1,0.5c0.6,0.1,0.9,0.3,1.3,0.5c0.5,0.4,0.8,1,0.8,1.8
			c0,1.6-1.3,2.6-3.4,2.6H71.4z M74.3,47.7c0.7,0,1.1-0.4,1.1-0.9c0-0.6-0.4-0.9-1.1-0.9h-2.2v1.8H74.3z M72.1,51.6h2.3
			c0.8,0,1.3-0.4,1.3-1.1c0-0.7-0.5-1-1.3-1h-2.3V51.6z"/>
		<path class="st1" d="M85.5,53.5c-0.1-0.5-0.2-0.8-0.3-1.2l-0.3-1h-3.3l-0.3,1c-0.1,0.5-0.2,0.8-0.3,1.2h-2.7
			c0.2-0.3,0.3-0.6,0.6-1.4l2.5-6.8c0.2-0.6,0.3-0.9,0.4-1.2h3c0.1,0.3,0.2,0.6,0.4,1.2l2.5,6.8c0.2,0.6,0.4,1.1,0.6,1.4H85.5z
			 M83.3,46l-1.1,3.4h2.2L83.3,46z"/>
		<path class="st1" d="M90.7,53.5c-0.8,0-1.3,0-1.7,0c0.1-0.4,0.1-0.9,0.1-1.7v-6c0-0.8,0-1.3-0.1-1.8h2.5c-0.1,0.6-0.1,0.9-0.1,1.8
			v5.6h2.8c1,0,1.4,0,1.9-0.1v2.2c-0.4-0.1-1-0.1-1.9-0.1H90.7z"/>
		<g>
			<path class="st1" d="M48,49.3l-1.7,0V48l4,0l0,5.6h-5.1c-0.8,0-1.5-0.2-2.1-0.7c-0.6-0.5-0.9-1.1-0.9-1.8v-4.5
				c0-0.7,0.3-1.3,0.9-1.8c0.6-0.5,1.3-0.7,2.1-0.7h4.2v2h-4.2c-0.2,0-0.3,0.1-0.4,0.2s-0.2,0.2-0.2,0.4V51c0,0.1,0.1,0.3,0.2,0.4
				s0.3,0.2,0.4,0.2H48L48,49.3z"/>
		</g>
		<path class="st1" d="M62.7,43.8h2.3c0.9,0,1.6,0.3,2.3,0.8c0.6,0.5,1,1.1,1,1.8V51c0,0.7-0.3,1.3-1,1.8c-0.6,0.5-1.4,0.8-2.3,0.8
			h-2.3c-0.9,0-1.6-0.3-2.3-0.8c-0.6-0.5-1-1.1-1-1.8v-4.6c0-0.7,0.3-1.3,1-1.8C61.1,44.1,61.9,43.8,62.7,43.8z M65.1,45.9h-2.3
			c-0.2,0-0.3,0.1-0.5,0.2c-0.1,0.1-0.2,0.2-0.2,0.4V51c0,0.1,0.1,0.3,0.2,0.4s0.3,0.2,0.5,0.2h2.3c0.2,0,0.3-0.1,0.5-0.2
			c0.1-0.1,0.2-0.2,0.2-0.4v-4.6c0-0.1-0.1-0.3-0.2-0.4C65.4,45.9,65.2,45.9,65.1,45.9z"/>
	</g>
	<g>
		<path class="st0" d="M35.1,24.2c-1.8-6.4,6.1-13.8,17.7-17.1c5-1.4,9.8-1.8,13.9-1.2c-4.6-1.4-10.8-1.4-17.2,0.5
			C37.9,9.7,30,17.6,31.8,23.9c1.2,4.3,6.6,6.8,13.5,7C40,30.2,36.1,27.8,35.1,24.2z"/>
		<path class="st0" d="M67.3,18.8c1.8,6.3-5.9,13.6-17.3,17c-4.9,1.4-9.7,1.8-13.7,1.3c4.5,1.4,10.6,1.3,16.9-0.6
			C64.6,33.1,72.4,25.3,70.6,19c-1.2-4.2-6.5-6.7-13.3-6.8C62.4,12.9,66.3,15.2,67.3,18.8z"/>
		<g>
			<path class="st2" d="M36,23.8l5.7-10.2C37.7,16.7,35.5,20.4,36,23.8z"/>
			<path class="st0" d="M54.1,6.8l-3.5-6.2c0,0-0.3-0.6-0.8-0.6c-0.4,0-0.8,0.6-0.8,0.6L43,11.4c2.8-1.7,6.1-3.2,9.8-4.3
				C53.2,7,53.7,6.9,54.1,6.8z"/>
			<path class="st0" d="M65.2,26.6c-1.2,1.6-2.9,3-4.9,4.4c1,1.8,1.7,3.1,1.9,3.4c0.7,1.2,3,1,3,1h5L65.2,26.6z"/>
			<path class="st0" d="M35.4,25l-5.8,10.4h5c0,0,2.2,0.2,3-1l2.7-4.9C37.9,28.4,36.2,26.9,35.4,25z"/>
			<polygon class="st1" points="49.8,0 49.8,0 49.8,0 			"/>
			<path class="st1" d="M64.6,25.5l-10-17.7c0,0,0,0,0,0C49.5,9,45,11.1,41.8,13.6L36,23.8c0,0.1,0.1,0.3,0.1,0.4
				c0.5,2.1,2,3.7,4.3,4.9l9.5-16.9c0,0,6.3,11.3,9.9,17.8C61.8,28.6,63.4,27.1,64.6,25.5z"/>
		</g>
	</g>
</g>
</svg>
