<?xml version="1.0" encoding="utf-8"?>
<!-- Generator: Adobe Illustrator 22.1.0, SVG Export Plug-In . SVG Version: 6.00 Build 0)  -->
<svg version="1.1" id="Plan_1" xmlns="http://www.w3.org/2000/svg" xmlns:xlink="http://www.w3.org/1999/xlink" x="0px" y="0px"
	 viewBox="0 0 96 90" style="enable-background:new 0 0 96 90;" xml:space="preserve">
<style type="text/css">
	.st0{fill:#00529B;}
	.st1{fill:#EF3E42;}
</style>
<g>
	<g>
		<path class="st0" d="M0,0.1V90h96V0.1H0z M70,84c-0.3-2.1-0.6-3.1-1-4.2l-3-9.7H52.5l-2.4,3.2l2.2,6.5c0.4,1.4,0.9,2.4,1.7,4.2
			h-7.6l-1.3-4.2L42,84h-6.1l-1.3-4.2L31.3,84h-5.7h-0.4c0.2-0.1,0.3-0.2,0.4-0.4c1.6-1.4,2.5-2.6,3.4-3.8l3.9-5.1l-1.5-4.6H17.9
			L7.5,84H0.9c2.5-2.1,3.1-2.8,4-4l19.9-26.3c0.3-0.4,0.5-0.7,0.7-1.1c0.4-0.6,0.7-1.3,0.9-2.2h6.4c0,1.4,0.2,2.2,0.5,3.3L38,68
			l2.3-3.1l-3.7-11.3c-0.3-0.8-0.6-1.9-1.3-3.2h7.8c0.2,1.3,0.4,2.3,0.8,3.4l1.4,4.4l3.4-4.5c0.8-1,1.8-2.2,2.3-3.3h6.8
			c-1.3,1.1-2.2,2.2-3,3.3l-7.6,10.1l1.3,4.2l10.9-14.2c0.3-0.4,0.6-0.8,0.9-1.2c0.4-0.6,0.7-1.3,0.9-2.1h6.4
			c0.1,1.1,0.2,2.1,0.6,3.1l8.2,26.2c0.4,1.4,0.7,2.3,1.7,4.2H70z"/>
		<polygon class="st0" points="21,66 30.2,66 27.4,57.5 		"/>
		<polygon class="st0" points="39.6,73.1 41.1,77.8 43.5,74.7 41.8,70.1 		"/>
		<polygon class="st0" points="55.8,66 64.7,66 61.9,57.5 		"/>
	</g>
	<polygon class="st1" points="52.5,48.7 58.2,48.7 94.9,0 89.3,0 	"/>
</g>
</svg>
