<?xml version="1.0" encoding="utf-8"?>
<!-- Generator: Adobe Illustrator 22.1.0, SVG Export Plug-In . SVG Version: 6.00 Build 0)  -->
<svg version="1.1" id="Layer_1" xmlns="http://www.w3.org/2000/svg" xmlns:xlink="http://www.w3.org/1999/xlink" x="0px" y="0px"
	 viewBox="0 0 96 55.9" style="enable-background:new 0 0 96 55.9;" xml:space="preserve">
<style type="text/css">
	.Drop_x0020_Shadow{fill:none;}
	.Round_x0020_Corners_x0020_2_x0020_pt{fill:#FFFFFF;stroke:#000000;stroke-miterlimit:10;}
	.Live_x0020_Reflect_x0020_X{fill:none;}
	.Bevel_x0020_Soft{fill:url(#SVGID_1_);}
	.Dusk{fill:#FFFFFF;}
	.Foliage_GS{fill:#FFDD00;}
	.Pompadour_GS{fill-rule:evenodd;clip-rule:evenodd;fill:#44ADE2;}
	.st0{fill:#274E9B;}
	.st1{fill:#FFCB05;}
</style>
<linearGradient id="SVGID_1_" gradientUnits="userSpaceOnUse" x1="0" y1="-20.05" x2="0.7071" y2="-19.3429">
	<stop  offset="0" style="stop-color:#DEDFE3"/>
	<stop  offset="0.1738" style="stop-color:#D8D9DD"/>
	<stop  offset="0.352" style="stop-color:#C9CACD"/>
	<stop  offset="0.5323" style="stop-color:#B4B5B8"/>
	<stop  offset="0.7139" style="stop-color:#989A9C"/>
	<stop  offset="0.8949" style="stop-color:#797C7E"/>
	<stop  offset="1" style="stop-color:#656B6C"/>
</linearGradient>
<g>
	<g>
		<g>
			<g>
				<path class="st0" d="M0.3,54.6C0.7,54.8,1.2,55,1.7,55c0.6,0,0.9-0.2,0.9-0.5c0-0.3-0.3-0.5-1-0.7c-0.9-0.3-1.6-0.7-1.6-1.4
					c0-0.8,0.8-1.5,2.1-1.5c0.6,0,1.1,0.1,1.4,0.2L3.4,52c-0.2-0.1-0.6-0.2-1.2-0.2c-0.6,0-0.8,0.2-0.8,0.5c0,0.3,0.3,0.4,1.1,0.7
					c1,0.3,1.5,0.8,1.5,1.4c0,0.8-0.7,1.5-2.3,1.5c-0.6,0-1.3-0.1-1.6-0.3L0.3,54.6z"/>
				<path class="st0" d="M1.7,55.9c-0.7,0-1.3-0.2-1.6-0.3l0,0l0.3-1l0,0c0.4,0.2,1,0.3,1.4,0.3c0.5,0,0.9-0.2,0.9-0.5
					c0-0.3-0.2-0.4-0.9-0.6c-1.1-0.3-1.6-0.8-1.6-1.5c0-0.9,0.9-1.5,2.2-1.5c0.5,0,1,0.1,1.5,0.2l0,0l-0.3,1l0,0
					c-0.4-0.2-0.8-0.2-1.2-0.2c-0.5,0-0.8,0.2-0.8,0.4c0,0.3,0.3,0.4,1,0.6c1,0.3,1.5,0.8,1.5,1.5C4,55.5,2.7,55.9,1.7,55.9z
					 M0.1,55.5c0.3,0.1,0.9,0.3,1.6,0.3c1.7,0,2.3-0.8,2.3-1.5c0-0.7-0.4-1.1-1.4-1.4c-0.8-0.2-1.1-0.4-1.1-0.7
					c0-0.2,0.2-0.5,0.9-0.5c0.4,0,0.8,0.1,1.2,0.2l0.3-0.8c-0.4-0.2-0.9-0.2-1.4-0.2c-1.3,0-2.1,0.6-2.1,1.4c0,0.6,0.5,1.1,1.5,1.4
					c0.6,0.2,1,0.4,1,0.7c0,0.4-0.4,0.6-0.9,0.6c-0.4,0-1-0.1-1.4-0.3L0.1,55.5z"/>
			</g>
			<g>
				<path class="st0" d="M9.5,50.9v1.9h2.1v-1.9h1.3v4.9h-1.3v-2H9.5v2H8.2v-4.9H9.5z"/>
				<path class="st0" d="M12.9,55.8h-1.4v-2h-2v2H8.2v-4.9h1.4v1.9h2v-1.9h1.4V55.8z M11.6,55.7h1.2V51h-1.2v1.9H9.4V51H8.2v4.8h1.2
					v-2h2.2V55.7z"/>
			</g>
			<g>
				<path class="st0" d="M18.7,50.9v4.9h-1.3v-4.9H18.7z"/>
				<path class="st0" d="M18.7,55.8h-1.4v-4.9h1.4V55.8z M17.4,55.7h1.2V51h-1.2V55.7z"/>
			</g>
			<g>
				<path class="st0" d="M23.2,51c0.4-0.1,1-0.1,1.7-0.1c0.8,0,1.4,0.1,1.7,0.4c0.4,0.2,0.6,0.6,0.6,1.1c0,0.5-0.2,0.9-0.5,1.2
					c-0.4,0.4-1.1,0.5-1.8,0.5c-0.2,0-0.3,0-0.4,0v1.7h-1.3V51z M24.4,53.2c0.1,0,0.2,0,0.4,0c0.7,0,1.1-0.3,1.1-0.8
					c0-0.4-0.4-0.7-1-0.7c-0.3,0-0.4,0-0.5,0V53.2z"/>
				<path class="st0" d="M24.5,55.8h-1.3V51l0,0c0.5-0.1,1-0.1,1.7-0.1c0.8,0,1.4,0.1,1.8,0.4c0.4,0.3,0.6,0.7,0.6,1.2
					c0,0.5-0.2,0.9-0.5,1.2c-0.4,0.3-1.1,0.5-1.9,0.5c-0.2,0-0.3,0-0.4,0V55.8z M23.2,55.7h1.2V54l0,0c0.1,0,0.3,0,0.4,0
					c0.8,0,1.4-0.2,1.8-0.5c0.3-0.3,0.5-0.7,0.5-1.1c0-0.4-0.2-0.8-0.6-1.1c-0.4-0.3-0.9-0.4-1.7-0.4c-0.7,0-1.2,0-1.7,0.1V55.7z
					 M24.9,53.3c-0.2,0-0.3,0-0.4,0l0,0v-1.5l0,0c0.1,0,0.2,0,0.5,0c0.7,0,1,0.3,1,0.7C26,52.9,25.6,53.3,24.9,53.3z M24.5,53.2
					c0.1,0,0.2,0,0.4,0c0.7,0,1.1-0.3,1.1-0.8c0-0.4-0.4-0.7-1-0.7c-0.3,0-0.4,0-0.5,0V53.2z"/>
			</g>
			<g>
				<path class="st0" d="M31.4,51c0.4-0.1,1-0.1,1.7-0.1c0.8,0,1.4,0.1,1.7,0.4c0.4,0.2,0.6,0.6,0.6,1.1c0,0.5-0.2,0.9-0.5,1.2
					c-0.4,0.4-1.1,0.5-1.8,0.5c-0.2,0-0.3,0-0.4,0v1.7h-1.3V51z M32.7,53.2c0.1,0,0.2,0,0.4,0c0.7,0,1.1-0.3,1.1-0.8
					c0-0.4-0.4-0.7-1-0.7c-0.3,0-0.4,0-0.5,0V53.2z"/>
				<path class="st0" d="M32.8,55.8h-1.3V51l0,0c0.5-0.1,1-0.1,1.7-0.1c0.8,0,1.4,0.1,1.8,0.4c0.4,0.3,0.6,0.7,0.6,1.2
					c0,0.5-0.2,0.9-0.5,1.2c-0.4,0.3-1.1,0.5-1.9,0.5c-0.2,0-0.3,0-0.4,0V55.8z M31.5,55.7h1.2V54l0,0c0.1,0,0.3,0,0.4,0
					c0.8,0,1.4-0.2,1.8-0.5c0.3-0.3,0.5-0.7,0.5-1.1c0-0.4-0.2-0.8-0.6-1.1c-0.4-0.3-0.9-0.4-1.7-0.4c-0.7,0-1.2,0-1.7,0.1V55.7z
					 M33.1,53.3c-0.2,0-0.3,0-0.4,0l0,0v-1.5l0,0c0.1,0,0.2,0,0.5,0c0.7,0,1,0.3,1,0.7C34.3,52.9,33.8,53.3,33.1,53.3z M32.8,53.2
					c0.1,0,0.2,0,0.4,0c0.7,0,1.1-0.3,1.1-0.8c0-0.4-0.4-0.7-1-0.7c-0.3,0-0.4,0-0.5,0V53.2z"/>
			</g>
			<g>
				<path class="st0" d="M41,50.9v4.9h-1.3v-4.9H41z"/>
				<path class="st0" d="M41,55.8h-1.4v-4.9H41V55.8z M39.8,55.7H41V51h-1.2V55.7z"/>
			</g>
			<g>
				<path class="st0" d="M45.5,55.8v-4.9H47l1.2,1.8c0.3,0.5,0.7,1.1,0.9,1.7h0c-0.1-0.6-0.1-1.3-0.1-2v-1.4h1.2v4.9h-1.3l-1.2-1.9
					c-0.3-0.5-0.7-1.1-1-1.7l0,0c0,0.6,0.1,1.3,0.1,2.1v1.5H45.5z"/>
				<path class="st0" d="M50.2,55.8h-1.4l0,0l-1.2-1.9c-0.2-0.3-0.6-1-0.9-1.6c0,0.6,0,1.3,0,2v1.5h-1.3v-4.9H47l0,0l1.2,1.8
					c0.3,0.5,0.6,1,0.9,1.5C49,53.7,49,53.1,49,52.3v-1.5h1.3V55.8z M48.9,55.7h1.3V51h-1.1v1.4c0,0.8,0,1.4,0.1,2l0,0h-0.1l0,0
					c-0.3-0.5-0.6-1.1-0.9-1.7L47,51h-1.4v4.8h1.1v-1.4c0-0.8,0-1.5-0.1-2.1l0,0l0.1,0l0,0c0.3,0.7,0.8,1.4,1,1.7L48.9,55.7z"/>
			</g>
			<g>
				<path class="st0" d="M59.4,55.6c-0.4,0.1-1.1,0.3-1.9,0.3c-1,0-1.8-0.2-2.3-0.7c-0.5-0.4-0.8-1.1-0.8-1.8c0-1.6,1.4-2.5,3.2-2.5
					c0.7,0,1.3,0.1,1.6,0.2L59,52c-0.3-0.1-0.7-0.2-1.3-0.2c-1.1,0-1.9,0.5-1.9,1.6c0,1,0.7,1.6,1.8,1.6c0.3,0,0.5,0,0.6-0.1v-1
					h-0.9V53h2.1V55.6z"/>
				<path class="st0" d="M57.5,55.9c-1,0-1.8-0.2-2.3-0.7c-0.5-0.4-0.8-1.1-0.8-1.8c0-1.6,1.3-2.6,3.3-2.6c0.7,0,1.3,0.1,1.6,0.2
					l0,0l0,0L59,52l0,0c-0.3-0.1-0.6-0.2-1.3-0.2c-1.2,0-1.8,0.6-1.8,1.5c0,0.9,0.7,1.6,1.7,1.6c0.3,0,0.5,0,0.6-0.1v-1h-0.9V53h2.2
					v2.6l0,0C59,55.7,58.3,55.9,57.5,55.9z M57.7,50.9c-1.9,0-3.2,1-3.2,2.5c0,0.7,0.3,1.3,0.8,1.7c0.5,0.4,1.3,0.6,2.3,0.6
					c0.7,0,1.4-0.1,1.9-0.3V53h-2v0.8h0.9v1.1l0,0c-0.1,0-0.4,0.1-0.6,0.1c-1.1,0-1.8-0.6-1.8-1.6c0-1,0.7-1.6,1.9-1.6
					c0.6,0,1,0.1,1.3,0.2l0.2-0.8C58.9,51,58.4,50.9,57.7,50.9z"/>
			</g>
			<g>
				<path class="st0" d="M68.9,50.9h1.3v3.9h2.3v0.9h-3.5V50.9z"/>
				<path class="st0" d="M72.5,55.8h-3.6v-4.9h1.4v3.9h2.3V55.8z M68.9,55.7h3.5v-0.8h-2.3V51h-1.2V55.7z"/>
			</g>
			<g>
				<path class="st0" d="M77.9,50.9v4.9h-1.3v-4.9H77.9z"/>
				<path class="st0" d="M77.9,55.8h-1.4v-4.9h1.4V55.8z M76.6,55.7h1.2V51h-1.2V55.7z"/>
			</g>
			<g>
				<path class="st0" d="M82.4,55.8v-4.9h1.5l1.2,1.8c0.3,0.5,0.7,1.1,0.9,1.7h0c-0.1-0.6-0.1-1.3-0.1-2v-1.4h1.2v4.9h-1.3l-1.2-1.9
					c-0.3-0.5-0.7-1.1-1-1.7l0,0c0,0.6,0.1,1.3,0.1,2.1v1.5H82.4z"/>
				<path class="st0" d="M87.1,55.8h-1.4l0,0l-1.2-1.9c-0.2-0.3-0.6-1-0.9-1.6c0,0.6,0,1.3,0,2v1.5h-1.3v-4.9h1.6l0,0l1.2,1.8
					c0.3,0.5,0.6,1,0.9,1.5c-0.1-0.5-0.1-1.1-0.1-1.9v-1.5h1.3V55.8z M85.8,55.7H87V51h-1.1v1.4c0,0.8,0,1.4,0.1,2l0,0H86l0,0
					c-0.3-0.5-0.6-1.1-0.9-1.7L83.9,51h-1.4v4.8h1.1v-1.4c0-0.8,0-1.5-0.1-2.1l0,0l0.1,0l0,0c0.3,0.7,0.8,1.4,1,1.7L85.8,55.7z"/>
			</g>
			<g>
				<path class="st0" d="M95,53.7h-2.1v1.2h2.3v0.9h-3.6v-4.9h3.5v0.9h-2.2v1H95V53.7z"/>
				<path class="st0" d="M95.2,55.8h-3.7v-4.9h3.6v1h-2.2v0.9H95v1h-2.1v1.1h2.3V55.8z M91.6,55.7h3.5v-0.8h-2.3v-1.2h2.1v-0.8h-2.1
					v-1.1H95V51h-3.4V55.7z"/>
			</g>
		</g>
		<g>
			<g>
				<path class="st0" d="M0.4,37.1h10.1v2.2H4.1v2.4h5.9v2.2H4.1v2.8h6.6v2.3H0.4V37.1z"/>
				<path class="st0" d="M11.9,37.1h6.1l2.9,7.6l3-7.6h5.8v11.8h-3.6v-9l-3.6,9h-3.6l-3.6-9v9h-3.4V37.1z"/>
				<path class="st0" d="M31.5,37.1h3.7v11.8h-3.7V37.1z"/>
				<path class="st0" d="M36.9,48.9V37.1h6.5c1.1,0,2.2,0.1,2.8,0.3c0.6,0.2,1.1,0.6,1.4,1.1c0.4,0.5,0.5,1.2,0.5,1.9
					c0,0.7,0,1-0.3,1.5c-0.3,0.5-0.6,0.7-1.2,1c-0.4,0.1-0.6,0.2-1.1,0.3c0.4,0.1,0.5,0.2,0.7,0.4c0.1,0.1,0.4,0.3,0.5,0.7
					c0.2,0.3,0.4,1.1,0.5,1.2l1.5,3.4h-4.1l-1.5-3.6c-0.2-0.5-0.5-0.8-0.7-0.9c-0.3-0.2-1.4-0.3-1.7-0.3h-0.3v4.8H36.9z M40.6,41.9
					h2c0.2,0,0.5-0.1,1-0.2c0.2,0,0.4-0.2,0.6-0.4c0.2-0.2,0.2-0.4,0.2-0.7c0-0.4-0.1-0.7-0.4-0.9c-0.2-0.2-0.7-0.3-1.4-0.3h-2V41.9
					z"/>
				<path class="st0" d="M56.2,40.1l-1.7,4.3l-1.8,4.5h-4.3l5.2-11.8h4.9l5.4,11.8h-4.5l-0.6-2L56.2,40.1z"/>
				<path class="st0" d="M61.9,37.1H73v2.4h-3.7v9.5h-3.7v-9.5h-3.7V37.1z"/>
				<path class="st0" d="M74.2,37.1h9.9v2.5h-6.2v1.9h5.8v2.4h-5.8v2.3h6.4v2.7H74.2V37.1z"/>
			</g>
			<g>
				<path class="st0" d="M85.4,45.9c0.9,0.4,3.1,0.8,4.5,0.8c1.5,0,2.4-0.2,2.4-1.1c0-1.2-0.8-1.1-2.6-1.5c-2.4-0.5-4.6-0.8-4.7-3.6
					c-0.1-2.8,2.8-3.8,6.1-3.8c1.6,0,3.2,0.3,4,0.6l0,2.4c-0.6-0.2-2.6-0.6-4-0.6c-1.4,0-2.1,0.3-2.1,1.2c0,1,1.5,1.1,3.4,1.6
					c2.2,0.6,3.7,1.3,3.6,3.8c-0.1,2.4-2.4,3.8-6.3,3.8c-1.6,0-3.5-0.4-4.3-0.7L85.4,45.9z"/>
			</g>
		</g>
	</g>
	<g>
		<path class="st1" d="M51.6,0c0,0.8-0.8,2.3-4.8,4c-6.8,2.8-10.1,8.2-10,8.1l0.8,9.1c0,0,1.2-2.3,3.2-3.1c0,0-0.9-1.2,0.1-2.3
			s3.2-4.2,10.9-7.5c0,0,1.2-0.2,0.9-1.9C52.4,4.3,51.9,1.3,51.6,0L51.6,0z"/>
		<path class="st1" d="M59.4,12.6c0.3,1.3,0.8,4.3,1.2,6.3c0.3,1.7-0.9,1.9-0.9,1.9s-10.8,3.8-14.2,12.9l-0.8-9.1
			c-0.2,0.1,3.1-5.3,10-8.1C58.7,14.9,59.4,13.4,59.4,12.6L59.4,12.6z"/>
		<path class="st1" d="M55.5,6.2c0,0.8-0.8,2.3-4.8,4c-6.8,2.8-10.1,8.2-10,8.1l0.8,9.1c0,0,1.2-2.3,3.2-3.1c0,0-0.9-1.2,0.1-2.3
			s3.2-4.2,10.9-7.5c0,0,1.2-0.2,0.9-1.9C56.4,10.6,55.8,7.6,55.5,6.2L55.5,6.2z"/>
	</g>
</g>
</svg>
