<?xml version="1.0" encoding="utf-8"?>
<!-- Generator: Adobe Illustrator 22.1.0, SVG Export Plug-In . SVG Version: 6.00 Build 0)  -->
<svg version="1.1" id="Layer_1" xmlns="http://www.w3.org/2000/svg" xmlns:xlink="http://www.w3.org/1999/xlink" x="0px" y="0px"
	 viewBox="0 0 96 89.3" style="enable-background:new 0 0 96 89.3;" xml:space="preserve">
<style type="text/css">
	.Drop_x0020_Shadow{fill:none;}
	.Round_x0020_Corners_x0020_2_x0020_pt{fill:#FFFFFF;stroke:#000000;stroke-miterlimit:10;}
	.Live_x0020_Reflect_x0020_X{fill:none;}
	.Bevel_x0020_Soft{fill:url(#SVGID_1_);}
	.Dusk{fill:#FFFFFF;}
	.Foliage_GS{fill:#FFDD00;}
	.Pompadour_GS{fill-rule:evenodd;clip-rule:evenodd;fill:#44ADE2;}
	.st0{fill:#01709F;}
	.st1{fill:none;stroke:#FFFFFF;stroke-width:0.2733;stroke-linecap:round;stroke-linejoin:round;stroke-miterlimit:3.864;}
	.st2{fill:none;stroke:#FFFFFF;stroke-width:0.2708;stroke-linecap:round;stroke-linejoin:round;stroke-miterlimit:3.864;}
	.st3{fill:#FFFFFF;}
	.st4{fill:none;stroke:#FFFFFF;stroke-width:5.820774e-02;stroke-linecap:round;stroke-linejoin:round;stroke-miterlimit:3.864;}
	.st5{fill:none;stroke:#FFFFFF;stroke-width:0.205;stroke-miterlimit:3.864;}
	.st6{fill:#087BAF;}
	.st7{fill:#0C87C0;}
	.st8{fill-rule:evenodd;clip-rule:evenodd;fill:#FFFFFF;}
</style>
<linearGradient id="SVGID_1_" gradientUnits="userSpaceOnUse" x1="0" y1="-3.325" x2="0.7071" y2="-2.6179">
	<stop  offset="0" style="stop-color:#DEDFE3"/>
	<stop  offset="0.1738" style="stop-color:#D8D9DD"/>
	<stop  offset="0.352" style="stop-color:#C9CACD"/>
	<stop  offset="0.5323" style="stop-color:#B4B5B8"/>
	<stop  offset="0.7139" style="stop-color:#989A9C"/>
	<stop  offset="0.8949" style="stop-color:#797C7E"/>
	<stop  offset="1" style="stop-color:#656B6C"/>
</linearGradient>
<g>
	<path class="st0" d="M12.3,8.8C12,8.9,6.8,15.5,5,19.6C39.3,5.6,68.9,68.4,43.2,89c2.6,0.4,9.3,0.5,12.4-0.6
		c0.4-0.3,1.2-0.8,1.6-1.2c20.4-23-8.8-85.5-44-78.7C12.8,8.6,12.4,8.8,12.3,8.8"/>
	<path class="st0" d="M86.9,8.7c-0.2-1-6.5-7.1-10.1-8.6C87.2,26.8,27.2,64.9,0.4,50.3c0,0,2.7,3,11.7,5.5c-2.7,0-7.4-1.1-12.1-3.2
		c3.6,2.4,5.9,4.1,12.2,5.5C8.8,58.4,4.7,57.2,0.6,55c1.7,1.5,5.5,4.5,11.6,5.8c-3.5,0.6-12.1-3.6-12.1-3.6C2,59,6.8,61.8,11.3,62.7
		c-5.4,0.1-11.2-3.2-11.2-3.2C23.4,81.5,92.3,33.4,86.9,8.7"/>
	<path d="M17.3,34.2C21.2,17.2,38,6.7,55,10.6c16.9,3.9,27.4,20.8,23.5,37.7c-3.9,16.9-20.8,27.4-37.7,23.5
		C23.9,67.9,13.4,51.1,17.3,34.2"/>
	<path class="st1" d="M17.6,37.5c1.7,15.8,22.4,21.1,35.6,18.5c13-1.6,30-14,22.5-28.6 M78.8,39C79.7,53.7,62.1,62.4,49.5,63
		c-12.9,1.1-31.1-4.9-32.6-19.7 M19.9,54.4c10.2,20.2,51.5,17.1,57.7-4.6 M67.6,64.9c-10.9,8.1-29.6,8.6-40.1-0.4 M38.6,19.1
		c-8.3,0.5-17.8,4.5-20.4,13.1 M22.5,23.4c3.2-5.3,11.1-6.5,16.8-5.7 M40.5,16.4c-3.9-1.4-8.7-2.1-12.2,0.7 M34.2,13.3
		c2.6-1.2,5.8,0.5,7.9,2.1 M43.9,14.7l-1-1.6l-0.8-1l-0.8-0.7l-0.7-0.3l-0.6,0 M45.7,10.2l0.3,4.1 M48.1,14.4l0.8-1.7l0.7-1.1
		l0.7-0.8l0.6-0.4l0.6-0.1 M57.6,11.7c-2.9-0.8-5.6,1.3-7.5,3.2 M51.8,15.6c3.5-2,8.5-3.2,12.2-1 M70.5,19.9
		c-4.4-4.6-11.6-4.8-17.4-3.2 M54,18c7.9-0.7,18.7,2.1,22,10.1 M78.8,39.2c-0.5-11.9-13.9-18.8-24.4-19.8 M74.4,57.1
		c5.6-13.5-10-29.4-20.9-34.8 M52.4,23.6C61.1,30.3,76.5,52,69,63.7 M61.7,69.1c9.6-7.4-5.3-38.1-11-44.5 M48.9,25.3
		c3,6.9,12.2,39.5,7.3,46 M50.1,72.2l-3.3-46.6 M44.8,25.6c-1.8,5.9-6.7,42.8-0.5,46.5 M39,71c-12.2-4.4-0.8-39.2,3.7-45.9 M41,24.4
		c-7.8,7.6-19.9,31.6-10.8,42 M25.3,62.3c-10.2-12,4-32.1,14.4-39 M38.8,22c-11.5,5-25.1,19-19,32.4 M16.9,43.3
		C16.2,31.4,28,23,38.4,20.6 M38.4,20.5c0.9,7.5,16.2,6.5,16-1.1C53.5,11.9,38.3,13,38.4,20.5z M54.3,20.9
		c11.6,3.2,27.4,15.2,23.4,28.9"/>
	<polyline class="st2" points="18.3,31.8 17.9,33.1 17.7,34.6 17.6,36.1 17.6,37.5 	"/>
	<path class="st1" d="M31.1,23.2c-0.1-14.6,29-16.6,31-2.1C62.1,35.7,33,37.7,31.1,23.2z M24.9,27.2c2.7,20.4,43.9,17.6,43.8-3
		C66,3.7,24.8,6.5,24.9,27.2z M68.3,17.7c12.8,11.7,2.3,26-11.6,29.9C44.1,51.8,22.1,47.9,20.3,32 M20.3,32
		c-0.4-4.7,1.9-9.2,5.1-12.4"/>
	<path class="st3" d="M21.4,55.4l0-0.1l-0.1-0.4l-0.3-0.7l-0.7-2l0.1-0.4l0-0.4l0-0.7L20,49.9l-0.5-0.5l-0.2-1l-0.4-1l-0.1-0.3
		L18.6,47c-1.9-2-1.5-6.4-1.3-9.1l0.1-0.3l0-0.1l0.3-0.9l0.7-2l1-1l0.4-0.1l0.6,0.3l0.8-0.8l0.6,0.2l0.5-0.4l0.2,1.4l0.8,0.4
		l1.4,1.9l0.3,0.1l0.2,0.5L25,37.3l-0.1,0.6l-0.6,0.2l0.1,0.8l0.7,1.3L25,40.8l0.6,1.3l0.3,0.1l0.3-0.6l0.8,0.1l0.7,1.3l3,2.1l0,1.1
		l-0.5,0.6L30,45.4l-0.1,0.8l0.5,2.8l-0.2,0.4l0.4,0.8l0,1.5l0.4,0.6l0.5,1.4l1.3,1.8l0.1,0.4L32.6,56l0.4,0.1l0.5,0.7l3.3,0.3
		l-0.1,0.6l-0.5,0.9L35,59.9l-0.9,0.5l-1.9,0.8l-0.9,0.7l-0.1,0.5l1,1.6l0.4,1.5l-1.9,0.1l0.9,1.1l-0.5,0L30.9,67
		c-3.7-2.2-6.1-4.4-8.3-8.2"/>
	<path class="st4" d="M21.4,55.4l0-0.1l-0.1-0.4l-0.3-0.7l-0.7-2l0.1-0.4l0-0.4l0-0.7L20,49.9l-0.5-0.5l-0.2-1l-0.4-1l-0.1-0.3
		L18.6,47c-1.9-2-1.5-6.4-1.3-9.1l0.1-0.3l0-0.1l0.3-0.9l0.7-2l1-1l0.4-0.1l0.6,0.3l0.8-0.8l0.6,0.2l0.5-0.4l0.2,1.4l0.8,0.4
		l1.4,1.9l0.3,0.1l0.2,0.5L25,37.3l-0.1,0.6l-0.6,0.2l0.1,0.8l0.7,1.3L25,40.8l0.6,1.3l0.3,0.1l0.3-0.6l0.8,0.1l0.7,1.3l3,2.1l0,1.1
		l-0.5,0.6L30,45.4l-0.1,0.8l0.5,2.8l-0.2,0.4l0.4,0.8l0,1.5l0.4,0.6l0.5,1.4l1.3,1.8l0.1,0.4L32.6,56l0.4,0.1l0.5,0.7l3.3,0.3
		l-0.1,0.6l-0.5,0.9L35,59.9l-0.9,0.5l-1.9,0.8l-0.9,0.7l-0.1,0.5l1,1.6l0.4,1.5l-1.9,0.1l0.9,1.1l-0.5,0L30.9,67
		c-3.7-2.2-6.1-4.4-8.3-8.2L21.4,55.4z"/>
	<polyline class="st3" points="66.6,58.2 67.2,58.8 68.8,57.9 69.1,58 69.7,57 69.6,56.8 70.2,55.2 70.5,55 70.1,54.9 69.9,54.1 
		70.4,53.2 69.5,53.1 68.9,54.5 68.4,54.9 68.1,55.9 66.8,57 66.8,57.2 66.6,57.4 	"/>
	<polygon class="st4" points="66.6,58.2 67.2,58.8 68.8,57.9 69.1,58 69.7,57 69.6,56.8 70.2,55.2 70.5,55 70.1,54.9 69.9,54.1 
		70.4,53.2 69.5,53.1 68.9,54.5 68.4,54.9 68.1,55.9 66.8,57 66.8,57.2 66.6,57.4 	"/>
	<polyline class="st3" points="76.1,52.3 76.3,51.1 75.4,51.9 75.3,51.7 75,52.2 74.5,52.1 74.9,51.2 75.3,50.8 75.4,51.4 
		75.7,51.4 76.3,49.7 76.9,49 78,47.8 78.2,48.2 77.9,49.2 77.5,49.5 76.8,51.3 	"/>
	<polygon class="st4" points="76.1,52.3 76.3,51.1 75.4,51.9 75.3,51.7 75,52.2 74.5,52.1 74.9,51.2 75.3,50.8 75.4,51.4 75.7,51.4 
		76.3,49.7 76.9,49 78,47.8 78.2,48.2 77.9,49.2 77.5,49.5 76.8,51.3 	"/>
	<path class="st3" d="M52.7,10.5C46,9.3,36,11,30.9,15.6l1.9-0.9l1.4-1.1l-0.6,0.7L32,15.4l-0.4,0.6l0.2,0.1l2.7-1.3l1.5-0.2
		l-0.3-0.3l1.1-0.6l0.5,0.3l2.1-0.7l-0.5-0.5l-1.6-0.2l0.7-0.4l1.1,0l3.2-0.7l0.8,0.1l0.1,0.3l-0.8,0.4L41.8,13l-0.4,0.2l-0.3,0.3
		l0.3,0.3l0.9,0l0.6-0.6l0.6,0.2l0.6,0.4l0.1,0l0.1-0.5l-0.7-0.2l0.2-0.3l1.4-0.1l0.8,0.2l0.8-0.2l1.1,0l0.2,0.2l1.8,0.7l1.5-0.1
		l0.8,0.6l1.3,0.9l0.3,0.6l2.4,0.8l0.2-0.5l1.1,0.5l0.3-0.3l-0.8-0.7l0.6,0l1.5,0.7l0.5-0.7l-1.1-0.8l2.6,1L60.4,15l-2-0.8l-2.3-0.6
		l-0.3-0.4l-1.4-1l-0.6,0l0-0.4l-0.4-0.4l0.2-0.1L53.2,11L52,10.5l1.2,0.1"/>
	<path class="st4" d="M52.7,10.5C46,9.3,36,11,30.9,15.6l1.9-0.9l1.4-1.1l-0.6,0.7L32,15.4l-0.4,0.6l0.2,0.1l2.7-1.3l1.5-0.2
		l-0.3-0.3l1.1-0.6l0.5,0.3l2.1-0.7l-0.5-0.5l-1.6-0.2l0.7-0.4l1.1,0l3.2-0.7l0.8,0.1l0.1,0.3l-0.8,0.4L41.8,13l-0.4,0.2l-0.3,0.3
		l0.3,0.3l0.9,0l0.6-0.6l0.6,0.2l0.6,0.4l0.1,0l0.1-0.5l-0.7-0.2l0.2-0.3l1.4-0.1l0.8,0.2l0.8-0.2l1.1,0l0.2,0.2l1.8,0.7l1.5-0.1
		l0.8,0.6l1.3,0.9l0.3,0.6l2.4,0.8l0.2-0.5l1.1,0.5l0.3-0.3l-0.8-0.7l0.6,0l1.5,0.7l0.5-0.7l-1.1-0.8l2.6,1L60.4,15l-2-0.8l-2.3-0.6
		l-0.3-0.4l-1.4-1l-0.6,0l0-0.4l-0.4-0.4l0.2-0.1L53.2,11L52,10.5l1.2,0.1L52.7,10.5z"/>
	<polyline class="st3" points="32.9,32.2 33,32.4 32.6,33 32.4,33.1 32.2,33.5 	"/>
	<polygon class="st5" points="32.9,32.2 33,32.4 32.6,33 32.4,33.1 32.2,33.5 	"/>
	<polyline class="st4" points="32.9,32.2 33,32.4 32.6,33 32.4,33.1 32.2,33.5 	"/>
	<polyline class="st3" points="32.2,33.5 32.1,34 31.2,34.4 30.9,34.6 31,34.9 31.5,35.4 32.1,35.5 32,36.4 31.7,37.1 32.1,37.4 
		31.4,38 30.8,38.4 30.8,38.8 30.9,39.4 30.5,39.1 29.9,39.3 30,39 29.6,38.5 29.4,38.9 29,38.3 28.6,39 28.8,39.7 28.7,39.9 
		28.5,39.3 28.1,39 28.1,38.2 28.1,37.6 28.5,37 28.4,36.6 28.2,35.5 28.4,34.6 28.1,34.5 28.3,34.2 28,33.9 27.6,34.5 27.5,35.9 
		27.8,37.6 27.4,37.1 27.2,37.8 26.6,38 27.1,36.9 26.8,34.9 27.1,34 27,33.5 26.6,33.5 26.2,33.4 25.7,32.6 25.5,32.9 25.3,33.1 
		24.1,33.1 23.9,33.6 23.1,33.7 22.8,33 22.5,32.9 22.7,31.9 22.6,31.5 23,30.8 24.1,29.9 24.4,29.4 24.7,29.5 25.2,31.3 26.3,30.4 
		26.7,28.8 27.5,29 27.6,29.7 28.5,29.6 28.7,29.6 29.6,29.4 29.9,29.7 30.7,29.4 31.4,28.6 32,28.7 31.5,29 31.5,29.3 31.1,29.3 
		30.8,29.5 31.1,30.3 31.1,30.9 32.1,31.1 32.3,31.6 32.9,32.2 	"/>
	<polygon class="st5" points="32.2,33.5 32.1,34 31.2,34.4 30.9,34.6 31,34.9 31.5,35.4 32.1,35.5 32,36.4 31.7,37.1 32.1,37.4 
		31.4,38 30.8,38.4 30.8,38.8 30.9,39.4 30.5,39.1 29.9,39.3 30,39 29.6,38.5 29.4,38.9 29,38.3 28.6,39 28.8,39.7 28.7,39.9 
		28.5,39.3 28.1,39 28.1,38.2 28.1,37.6 28.5,37 28.4,36.6 28.2,35.5 28.4,34.6 28.1,34.5 28.3,34.2 28,33.9 27.6,34.5 27.5,35.9 
		27.8,37.6 27.4,37.1 27.2,37.8 26.6,38 27.1,36.9 26.8,34.9 27.1,34 27,33.5 26.6,33.5 26.2,33.4 25.7,32.6 25.5,32.9 25.3,33.1 
		24.1,33.1 23.9,33.6 23.1,33.7 22.8,33 22.5,32.9 22.7,31.9 22.6,31.5 23,30.8 24.1,29.9 24.4,29.4 24.7,29.5 25.2,31.3 26.3,30.4 
		26.7,28.8 27.5,29 27.6,29.7 28.5,29.6 28.7,29.6 29.6,29.4 29.9,29.7 30.7,29.4 31.4,28.6 32,28.7 31.5,29 31.5,29.3 31.1,29.3 
		30.8,29.5 31.1,30.3 31.1,30.9 32.1,31.1 32.3,31.6 32.9,32.2 	"/>
	<polyline class="st4" points="32.2,33.5 32.1,34 31.2,34.4 30.9,34.6 31,34.9 31.5,35.4 32.1,35.5 32,36.4 31.7,37.1 32.1,37.4 
		31.4,38 30.8,38.4 30.8,38.8 30.9,39.4 30.5,39.1 29.9,39.3 30,39 29.6,38.5 29.4,38.9 29,38.3 28.6,39 28.8,39.7 28.7,39.9 
		28.5,39.3 28.1,39 28.1,38.2 28.1,37.6 28.5,37 28.4,36.6 28.2,35.5 28.4,34.6 28.1,34.5 28.3,34.2 28,33.9 27.6,34.5 27.5,35.9 
		27.8,37.6 27.4,37.1 27.2,37.8 26.6,38 27.1,36.9 26.8,34.9 27.1,34 27,33.5 26.6,33.5 26.2,33.4 25.7,32.6 25.5,32.9 25.3,33.1 
		24.1,33.1 23.9,33.6 23.1,33.7 22.8,33 22.5,32.9 22.7,31.9 22.6,31.5 23,30.8 24.1,29.9 24.4,29.4 24.7,29.5 25.2,31.3 26.3,30.4 
		26.7,28.8 27.5,29 27.6,29.7 28.5,29.6 28.7,29.6 29.6,29.4 29.9,29.7 30.7,29.4 31.4,28.6 32,28.7 31.5,29 31.5,29.3 31.1,29.3 
		30.8,29.5 31.1,30.3 31.1,30.9 32.1,31.1 32.3,31.6 32.9,32.2 	"/>
	<path class="st3" d="M32.9,32.2l-0.6-0.7l0.7-0.3l0,0.2l0.3-0.3l0.5-0.5l0.2,0l0,0.6l0.4-0.4l0.2-0.2l-0.2-0.1l0.3-0.4l0.6,0.1
		l0.4,0.4l0.6,0.1L36,30.3l0.1-0.2l-0.2-0.1l-1.1-0.3l0.2-0.2l-0.2-0.3l0.9-0.9L37,28l0.1-0.6l-0.4-0.2l-0.5,0.5l-1.3,0.2l-0.7,0.8
		l-0.1,0.5l-0.2,0.2l-0.6,0.1l-1,0.8L32,30l-0.3,0.2L31.5,30l1.2-1.7l0.2-0.4l-0.3,0.3L31.7,28l0.1-0.6l1.4-1.2l1.1,0.3l2.5-0.8
		l1.1-0.2l0.5,0.3l0.9-0.1l0,0.8l0.3,0.2l0.7,1.5l-0.8,0.5l0.1,0.3l0.9,0.2l0.5-1.2l0.6,0.6l1.3-0.3l0.1,0.4l1.4-0.6l1.3,0.9
		l0.2-0.3l-0.4-1.2l0.5-0.8l0.5,0.1l-0.1,0.6L46,29.7l0.5,0.2l0.5-0.7l-0.2-1.5l0.6-0.8l1.1,1l-0.1-0.8l-0.6-0.8l0.8-0.3l-0.3-0.3
		l0.7-0.9l0.9-0.5l0-0.6l1.6,0.1l0.2,0.4l-0.3,1.5l1.1-1.3l0.9-0.2l-0.1-0.5l0.9-0.2l0.7,0l0.8-0.4l0-0.3L55,22.3l0.7-0.8l0.9-0.1
		l0-0.8l0.9-0.1l-0.6-2l0.8-1.9l1.1,0.4l0.2,1l0.4,0.4l1-0.1l-0.1,0.3l1.7,1.5l-0.3,0.3c1.2,2.2,2.7,0.9,4.5,4.3l-2.6-1.2l-1.9-2.4
		l-0.3,0l0.5,0.7l-0.6,0.4l0.8,0.9l0.3,0l0,0.7l-0.6,0.2l-0.3,1.4l1,2.9l0.8-0.3l0-0.4l0.6,0l1.8,1.9l1.1,3.2l-0.1,0.8l-0.5,0
		l0.1,0.7l0,0l-0.1-0.1l-0.1-0.4l-0.5-0.5l0-0.4l0.3-0.3L65,30.8L64.7,32l-0.5-0.4L63.3,32l-1.2-0.8L61.7,31l-0.6,0.2l-0.5,0.6
		l0,0.4l0.4,0.2l0.3,1.1l-0.2,0.5L60.6,34l-0.1,0l-0.5,0.2l-0.2,0.5l-0.7,0.6l-0.1,0l-1.7,0.1l-0.5,0.4l-0.6-0.4l-0.9,0L55.1,36
		l0.2,0.7l-0.9,0.4l-0.3-0.2l-0.8,0.2l-1.1,1.2l-0.2,0.2l-0.4,0.3l0,0.7l-0.2,0.2l-0.7,0l0,1.1L49.8,41l0.4,0.8l0,0.6l0,0.2l-1.5,1
		l-0.6,0l-0.4,0.3l-0.1,0.3l-0.1,0.3l0.5,0.2l0,0.6l-0.5-0.1l-0.8,0.4L46.7,45l-0.3-0.3l-0.7,0.7l-0.6,0.1l-0.5-0.2l-0.4-0.1
		l-0.3,0.1l-0.2,0.5L43.1,46l-0.2,0.3l-0.5-0.2l-0.1-0.2l0-0.4l-1.6-1.1l-1.3,0.2l0,0.3l-1,0l-0.9-0.8l0-0.5L37,43.3l0.2-0.1
		l-0.1-0.4L36.5,43l-0.2,0.1L36,42.5l-0.1-0.1l-0.3-0.8l-0.1-0.3l-0.4-0.2l0.1-0.6l-0.3-0.5l-0.8-1.4l0.8-0.2L34.8,38l0.5-0.1
		l-0.3,0l-0.9-0.1l-0.3,0.1l-0.4-0.2l0.2,0.7l0.5,0.2l-0.1,0.2l-0.3-0.2l-0.6,0.1L33,37.9l0.5-0.1L33,37.3l0.1-0.3l-0.6,0l-0.4,0.4
		l-0.4-0.3l0.3-0.6l0-0.9l-0.6-0.1L31,34.9l-0.1-0.3l0.3-0.3l0.8-0.4l0.2-0.5l0.1-0.4l0.3-0.1l0.3-0.6"/>
	<path class="st4" d="M32.9,32.2l-0.6-0.7l0.7-0.3l0,0.2l0.3-0.3l0.5-0.5l0.2,0l0,0.6l0.4-0.4l0.2-0.2l-0.2-0.1l0.3-0.4l0.6,0.1
		l0.4,0.4l0.6,0.1L36,30.3l0.1-0.2l-0.2-0.1l-1.1-0.3l0.2-0.2l-0.2-0.3l0.9-0.9L37,28l0.1-0.6l-0.4-0.2l-0.5,0.5l-1.3,0.2l-0.7,0.8
		l-0.1,0.5l-0.2,0.2l-0.6,0.1l-1,0.8L32,30l-0.3,0.2L31.5,30l1.2-1.7l0.2-0.4l-0.3,0.3L31.7,28l0.1-0.6l1.4-1.2l1.1,0.3l2.5-0.8
		l1.1-0.2l0.5,0.3l0.9-0.1l0,0.8l0.3,0.2l0.7,1.5l-0.8,0.5l0.1,0.3l0.9,0.2l0.5-1.2l0.6,0.6l1.3-0.3l0.1,0.4l1.4-0.6l1.3,0.9
		l0.2-0.3l-0.4-1.2l0.5-0.8l0.5,0.1l-0.1,0.6L46,29.7l0.5,0.2l0.5-0.7l-0.2-1.5l0.6-0.8l1.1,1l-0.1-0.8l-0.6-0.8l0.8-0.3l-0.3-0.3
		l0.7-0.9l0.9-0.5l0-0.6l1.6,0.1l0.2,0.4l-0.3,1.5l1.1-1.3l0.9-0.2l-0.1-0.5l0.9-0.2l0.7,0l0.8-0.4l0-0.3L55,22.3l0.7-0.8l0.9-0.1
		l0-0.8l0.9-0.1l-0.6-2l0.8-1.9l1.1,0.4l0.2,1l0.4,0.4l1-0.1l-0.1,0.3l1.7,1.5l-0.3,0.3c1.2,2.2,2.7,0.9,4.5,4.3l-2.6-1.2l-1.9-2.4
		l-0.3,0l0.5,0.7l-0.6,0.4l0.8,0.9l0.3,0l0,0.7l-0.6,0.2l-0.3,1.4l1,2.9l0.8-0.3l0-0.4l0.6,0l1.8,1.9l1.1,3.2l-0.1,0.8l-0.5,0
		l0.1,0.7l0,0l-0.1-0.1l-0.1-0.4l-0.5-0.5l0-0.4l0.3-0.3L65,30.8L64.7,32l-0.5-0.4L63.3,32l-1.2-0.8L61.7,31l-0.6,0.2l-0.5,0.6
		l0,0.4l0.4,0.2l0.3,1.1l-0.2,0.5L60.6,34l-0.1,0l-0.5,0.2l-0.2,0.5l-0.7,0.6l-0.1,0l-1.7,0.1l-0.5,0.4l-0.6-0.4l-0.9,0L55.1,36
		l0.2,0.7l-0.9,0.4l-0.3-0.2l-0.8,0.2l-1.1,1.2l-0.2,0.2l-0.4,0.3l0,0.7l-0.2,0.2l-0.7,0l0,1.1L49.8,41l0.4,0.8l0,0.6l0,0.2l-1.5,1
		l-0.6,0l-0.4,0.3l-0.1,0.3l-0.1,0.3l0.5,0.2l0,0.6l-0.5-0.1l-0.8,0.4L46.7,45l-0.3-0.3l-0.7,0.7l-0.6,0.1l-0.5-0.2l-0.4-0.1
		l-0.3,0.1l-0.2,0.5L43.1,46l-0.2,0.3l-0.5-0.2l-0.1-0.2l0-0.4l-1.6-1.1l-1.3,0.2l0,0.3l-1,0l-0.9-0.8l0-0.5L37,43.3l0.2-0.1
		l-0.1-0.4L36.5,43l-0.2,0.1L36,42.5l-0.1-0.1l-0.3-0.8l-0.1-0.3l-0.4-0.2l0.1-0.6l-0.3-0.5l-0.8-1.4l0.8-0.2L34.8,38l0.5-0.1
		l-0.3,0l-0.9-0.1l-0.3,0.1l-0.4-0.2l0.2,0.7l0.5,0.2l-0.1,0.2l-0.3-0.2l-0.6,0.1L33,37.9l0.5-0.1L33,37.3l0.1-0.3l-0.6,0l-0.4,0.4
		l-0.4-0.3l0.3-0.6l0-0.9l-0.6-0.1L31,34.9l-0.1-0.3l0.3-0.3l0.8-0.4l0.2-0.5l0.1-0.4l0.3-0.1l0.3-0.6L32.9,32.2z"/>
	<path class="st3" d="M66.3,34.1l-0.1-0.4l-0.5-0.5l0-0.4l0.3-0.3L65,30.8L64.7,32l-0.5-0.4L63.3,32l-1.2-0.8L61.7,31l-0.6,0.2
		l-0.5,0.6l0,0.4l0.4,0.2l0.3,1.1l-0.2,0.5L60.6,34l-0.1,0l-0.5,0.2l-0.2,0.5l-0.7,0.6l-0.1,0l-1.7,0.1l-0.5,0.4l-0.6-0.4l-0.9,0
		L55.1,36l0.2,0.7l-0.9,0.4l-0.3-0.2l-0.8,0.2l-1.1,1.2l-0.2,0.2l-0.4,0.3l0,0.7l-0.2,0.2l-0.7,0l0,1.1L49.8,41l0.4,0.8l0,0.6l0,0.2
		l-1.5,1l-0.6,0l-0.4,0.3l-0.1,0.3l-0.1,0.3l0.5,0.2l0,0.6l-0.5-0.1l-0.8,0.4L46.7,45l-0.3-0.3l-0.7,0.7l-0.6,0.1l-0.5-0.2l-0.4-0.1
		l-0.3,0.1l-0.2,0.5L43.1,46l-0.2,0.3l-0.5-0.2l-0.1-0.2l0-0.4l-1.6-1.1l-1.3,0.2l0,0.3l-1,0l-0.9-0.8l0-0.5L37,43.3l0.2-0.1
		l-0.1-0.4L36.5,43l-0.2,0.1L36,42.5l-0.1-0.1l-0.3-0.8l-0.1-0.3l-0.4-0.2l-0.5,0.2l-1.3-0.7L33,39.9l-0.6-0.3l-0.8,0.1L31,39.3
		l0.1,0.4l-1.2-0.3l-0.4,0.8l0.2,0.3l-0.2,0.7l0.7,0.7l0.4-0.2l0.6,0.8l1.2,0.2c-0.8,2.5-1.9,1.2-1.6,3.5l0,0l-0.3,0.6l0.2,0.1
		l0.9,2.8l0,1.5l0.6,0.9l0.6,1.7l-0.1,0.5l0.3,1.3l0.6,0.2l1.9,0l1.7-0.3l0.4-0.4l0.9,0l1.4-0.8l1.1-1.6l-1.6-1.4l0-0.4l0.1-0.3
		l-0.2,0l-1,0.8l-1-0.2L37.3,51l0.1-0.6l-0.1-0.1L37,50.8l-0.8-2.2l0-0.8l0.3,0.1l0.1-0.2l0.9,1.7l1.4,1l0.9-0.2l0.4,0.8l2,0.5
		l2.3,0.1l0.8,0.8l1.2,1.5l1-0.6l0.8,3l1.7,2.9l0.6,0.3l1-1.1l0-2.5l0.9-0.5l1.3-1.6l0.6-0.5l0.2-0.8l0.9-0.3l0.8-0.9l0.4,0l0.5,0.8
		l1.2,0.9l0.2,1.1l0.5-0.1l0.5-1l0.5,0.3l0.8,1.5l0.3,1.2L61.3,57l1,0.4l0.3,0.8l0.4,0.4l1.1,0.1l0.3-0.3L64,58l-0.1-0.7l-0.6-0.2
		L62.4,57l-0.5-0.7l-0.2-2l1.4,0.3l0.4,0.3l0.4-0.1l0.3,0l0.1,0.6l0.6-1.2l0.9-1.1l-0.5-1.5l-1.8-1l0.2-0.9l0.4-0.7l0.6-0.4l0.4,0.5
		l0-0.6l0.9-0.9l0.1-0.6l1-0.8l0.6-1.9l-0.2-0.6l0.3-1.1l-0.2-1L67.3,41l-1.2-0.7l-0.4,0l-0.1-0.9l0.5-0.8L66,38.3l-0.6,0.2L65,39.2
		l-0.8-0.6l0.6-1.8l0.3,0.2l0.2,1l0.5-1.3l0.4-0.1l0.2,0.8l0.5-0.3l0.8,1.5l0.4-0.8l0-0.9l-1-0.7l-0.4,0L66.6,36l0.1-1l-0.3-0.8"/>
	<path class="st4" d="M66.3,34.1l-0.1-0.4l-0.5-0.5l0-0.4l0.3-0.3L65,30.8L64.7,32l-0.5-0.4L63.3,32l-1.2-0.8L61.7,31l-0.6,0.2
		l-0.5,0.6l0,0.4l0.4,0.2l0.3,1.1l-0.2,0.5L60.6,34l-0.1,0l-0.5,0.2l-0.2,0.5l-0.7,0.6l-0.1,0l-1.7,0.1l-0.5,0.4l-0.6-0.4l-0.9,0
		L55.1,36l0.2,0.7l-0.9,0.4l-0.3-0.2l-0.8,0.2l-1.1,1.2l-0.2,0.2l-0.4,0.3l0,0.7l-0.2,0.2l-0.7,0l0,1.1L49.8,41l0.4,0.8l0,0.6l0,0.2
		l-1.5,1l-0.6,0l-0.4,0.3l-0.1,0.3l-0.1,0.3l0.5,0.2l0,0.6l-0.5-0.1l-0.8,0.4L46.7,45l-0.3-0.3l-0.7,0.7l-0.6,0.1l-0.5-0.2l-0.4-0.1
		l-0.3,0.1l-0.2,0.5L43.1,46l-0.2,0.3l-0.5-0.2l-0.1-0.2l0-0.4l-1.6-1.1l-1.3,0.2l0,0.3l-1,0l-0.9-0.8l0-0.5L37,43.3l0.2-0.1
		l-0.1-0.4L36.5,43l-0.2,0.1L36,42.5l-0.1-0.1l-0.3-0.8l-0.1-0.3l-0.4-0.2l-0.5,0.2l-1.3-0.7L33,39.9l-0.6-0.3l-0.8,0.1L31,39.3
		l0.1,0.4l-1.2-0.3l-0.4,0.8l0.2,0.3l-0.2,0.7l0.7,0.7l0.4-0.2l0.6,0.8l1.2,0.2c-0.8,2.5-1.9,1.2-1.6,3.5l0,0l-0.3,0.6l0.2,0.1
		l0.9,2.8l0,1.5l0.6,0.9l0.6,1.7l-0.1,0.5l0.3,1.3l0.6,0.2l1.9,0l1.7-0.3l0.4-0.4l0.9,0l1.4-0.8l1.1-1.6l-1.6-1.4l0-0.4l0.1-0.3
		l-0.2,0l-1,0.8l-1-0.2L37.3,51l0.1-0.6l-0.1-0.1L37,50.8l-0.8-2.2l0-0.8l0.3,0.1l0.1-0.2l0.9,1.7l1.4,1l0.9-0.2l0.4,0.8l2,0.5
		l2.3,0.1l0.8,0.8l1.2,1.5l1-0.6l0.8,3l1.7,2.9l0.6,0.3l1-1.1l0-2.5l0.9-0.5l1.3-1.6l0.6-0.5l0.2-0.8l0.9-0.3l0.8-0.9l0.4,0l0.5,0.8
		l1.2,0.9l0.2,1.1l0.5-0.1l0.5-1l0.5,0.3l0.8,1.5l0.3,1.2L61.3,57l1,0.4l0.3,0.8l0.4,0.4l1.1,0.1l0.3-0.3L64,58l-0.1-0.7l-0.6-0.2
		L62.4,57l-0.5-0.7l-0.2-2l1.4,0.3l0.4,0.3l0.4-0.1l0.3,0l0.1,0.6l0.6-1.2l0.9-1.1l-0.5-1.5l-1.8-1l0.2-0.9l0.4-0.7l0.6-0.4l0.4,0.5
		l0-0.6l0.9-0.9l0.1-0.6l1-0.8l0.6-1.9l-0.2-0.6l0.3-1.1l-0.2-1L67.3,41l-1.2-0.7l-0.4,0l-0.1-0.9l0.5-0.8L66,38.3l-0.6,0.2L65,39.2
		l-0.8-0.6l0.6-1.8l0.3,0.2l0.2,1l0.5-1.3l0.4-0.1l0.2,0.8l0.5-0.3l0.8,1.5l0.4-0.8l0-0.9l-1-0.7l-0.4,0L66.6,36l0.1-1l-0.3-0.8
		L66.3,34.1z"/>
	<polyline class="st3" points="59,16.5 59,16.8 58.9,16.8 58.7,16.4 	"/>
	<polygon class="st5" points="59,16.5 59,16.8 58.9,16.8 58.7,16.4 	"/>
	<polyline class="st3" points="59,16.5 59,16.8 58.9,16.8 58.7,16.4 	"/>
	<polygon class="st4" points="59,16.5 59,16.8 58.9,16.8 58.7,16.4 	"/>
	<polyline class="st3" points="48.9,14.2 49.4,13.8 49.1,13.5 47.6,13.9 48.4,14.3 	"/>
	<polygon class="st5" points="48.9,14.2 49.4,13.8 49.1,13.5 47.6,13.9 48.4,14.3 	"/>
	<polyline class="st3" points="48.9,14.2 49.4,13.8 49.1,13.5 47.6,13.9 48.4,14.3 	"/>
	<polygon class="st4" points="48.9,14.2 49.4,13.8 49.1,13.5 47.6,13.9 48.4,14.3 	"/>
	<polyline class="st3" points="47.8,12.9 48.2,13.1 48.4,13.5 47.5,13.9 46.8,13.8 46.3,13.8 45.9,13.3 45.2,13.1 45.6,12.8 
		46.3,12.9 47.6,12.7 	"/>
	<polygon class="st5" points="47.8,12.9 48.2,13.1 48.4,13.5 47.5,13.9 46.8,13.8 46.3,13.8 45.9,13.3 45.2,13.1 45.6,12.8 
		46.3,12.9 47.6,12.7 	"/>
	<polyline class="st3" points="47.8,12.9 48.2,13.1 48.4,13.5 47.5,13.9 46.8,13.8 46.3,13.8 45.9,13.3 45.2,13.1 45.6,12.8 
		46.3,12.9 47.6,12.7 	"/>
	<polygon class="st4" points="47.8,12.9 48.2,13.1 48.4,13.5 47.5,13.9 46.8,13.8 46.3,13.8 45.9,13.3 45.2,13.1 45.6,12.8 
		46.3,12.9 47.6,12.7 	"/>
	<polyline class="st3" points="45.1,13.6 45.6,13.8 45.3,14.1 44.8,14.1 44.5,13.7 44.8,13.5 	"/>
	<polygon class="st5" points="45.1,13.6 45.6,13.8 45.3,14.1 44.8,14.1 44.5,13.7 44.8,13.5 	"/>
	<polyline class="st3" points="45.1,13.6 45.6,13.8 45.3,14.1 44.8,14.1 44.5,13.7 44.8,13.5 	"/>
	<polygon class="st4" points="45.1,13.6 45.6,13.8 45.3,14.1 44.8,14.1 44.5,13.7 44.8,13.5 	"/>
	<polyline class="st3" points="44.4,13.2 44.9,13 44.2,13 44,13 	"/>
	<polygon class="st5" points="44.4,13.2 44.9,13 44.2,13 44,13 	"/>
	<polyline class="st3" points="44.4,13.2 44.9,13 44.2,13 44,13 	"/>
	<polygon class="st4" points="44.4,13.2 44.9,13 44.2,13 44,13 	"/>
	<polyline class="st3" points="45.1,14.7 45.1,14.4 45.4,14.4 45.8,14.5 45.7,14.8 45.5,14.8 	"/>
	<polygon class="st5" points="45.1,14.7 45.1,14.4 45.4,14.4 45.8,14.5 45.7,14.8 45.5,14.8 	"/>
	<polyline class="st3" points="45.1,14.7 45.1,14.4 45.4,14.4 45.8,14.5 45.7,14.8 45.5,14.8 	"/>
	<polygon class="st4" points="45.1,14.7 45.1,14.4 45.4,14.4 45.8,14.5 45.7,14.8 45.5,14.8 	"/>
	<polyline class="st3" points="45,15.3 45.2,15.2 45.4,15.5 	"/>
	<polygon class="st5" points="45,15.3 45.2,15.2 45.4,15.5 	"/>
	<polyline class="st3" points="45,15.3 45.2,15.2 45.4,15.5 	"/>
	<polygon class="st4" points="45,15.3 45.2,15.2 45.4,15.5 	"/>
	<polyline class="st3" points="45.6,15.4 45.5,15.2 46.1,15.3 46.2,15.5 	"/>
	<polygon class="st5" points="45.6,15.4 45.5,15.2 46.1,15.3 46.2,15.5 	"/>
	<polyline class="st3" points="45.6,15.4 45.5,15.2 46.1,15.3 46.2,15.5 	"/>
	<polygon class="st4" points="45.6,15.4 45.5,15.2 46.1,15.3 46.2,15.5 	"/>
	<polyline class="st3" points="46.7,14.7 46.5,14.8 46.2,14.6 46.3,14.3 47.3,14.2 47.8,14.4 47.3,14.7 	"/>
	<polygon class="st5" points="46.7,14.7 46.5,14.8 46.2,14.6 46.3,14.3 47.3,14.2 47.8,14.4 47.3,14.7 	"/>
	<polyline class="st3" points="46.7,14.7 46.5,14.8 46.2,14.6 46.3,14.3 47.3,14.2 47.8,14.4 47.3,14.7 	"/>
	<polygon class="st4" points="46.7,14.7 46.5,14.8 46.2,14.6 46.3,14.3 47.3,14.2 47.8,14.4 47.3,14.7 	"/>
	<polyline class="st3" points="47.9,14.9 47.4,15 48.1,14.6 48.4,14.8 	"/>
	<polygon class="st5" points="47.9,14.9 47.4,15 48.1,14.6 48.4,14.8 	"/>
	<polyline class="st3" points="47.9,14.9 47.4,15 48.1,14.6 48.4,14.8 	"/>
	<polygon class="st4" points="47.9,14.9 47.4,15 48.1,14.6 48.4,14.8 	"/>
	<polyline class="st3" points="46.9,15.2 46.6,15.1 46.9,15 47,15.1 	"/>
	<polygon class="st5" points="46.9,15.2 46.6,15.1 46.9,15 47,15.1 	"/>
	<polyline class="st3" points="46.9,15.2 46.6,15.1 46.9,15 47,15.1 	"/>
	<polygon class="st4" points="46.9,15.2 46.6,15.1 46.9,15 47,15.1 	"/>
	<polyline class="st3" points="45.3,16.1 45.3,16.3 44.2,15.9 44.4,15.8 44.3,15.5 44.7,15.4 45.2,15.7 	"/>
	<polygon class="st5" points="45.3,16.1 45.3,16.3 44.2,15.9 44.4,15.8 44.3,15.5 44.7,15.4 45.2,15.7 	"/>
	<polyline class="st3" points="45.3,16.1 45.3,16.3 44.2,15.9 44.4,15.8 44.3,15.5 44.7,15.4 45.2,15.7 	"/>
	<polygon class="st4" points="45.3,16.1 45.3,16.3 44.2,15.9 44.4,15.8 44.3,15.5 44.7,15.4 45.2,15.7 	"/>
	<polyline class="st3" points="44.9,15 45.1,14.9 44.6,14.9 44.2,14.5 42.6,15 43,15.2 43.9,14.8 44.1,15 	"/>
	<polygon class="st5" points="44.9,15 45.1,14.9 44.6,14.9 44.2,14.5 42.6,15 43,15.2 43.9,14.8 44.1,15 	"/>
	<polyline class="st3" points="44.9,15 45.1,14.9 44.6,14.9 44.2,14.5 42.6,15 43,15.2 43.9,14.8 44.1,15 	"/>
	<polygon class="st4" points="44.9,15 45.1,14.9 44.6,14.9 44.2,14.5 42.6,15 43,15.2 43.9,14.8 44.1,15 	"/>
	<polyline class="st3" points="44.7,14.7 44.4,14.5 44.9,14.5 	"/>
	<polygon class="st5" points="44.7,14.7 44.4,14.5 44.9,14.5 	"/>
	<polyline class="st3" points="44.7,14.7 44.4,14.5 44.9,14.5 	"/>
	<polygon class="st4" points="44.7,14.7 44.4,14.5 44.9,14.5 	"/>
	<polyline class="st3" points="44.6,14.3 43.9,14.4 44.3,13.8 	"/>
	<polygon class="st5" points="44.6,14.3 43.9,14.4 44.3,13.8 	"/>
	<polyline class="st3" points="44.6,14.3 43.9,14.4 44.3,13.8 	"/>
	<polygon class="st4" points="44.6,14.3 43.9,14.4 44.3,13.8 	"/>
	<polyline class="st3" points="41.8,13 40.2,13.1 41.6,12.5 	"/>
	<polygon class="st5" points="41.8,13 40.2,13.1 41.6,12.5 	"/>
	<polyline class="st3" points="41.8,13 40.2,13.1 41.6,12.5 	"/>
	<polygon class="st4" points="41.8,13 40.2,13.1 41.6,12.5 	"/>
	<polyline class="st3" points="40.5,14.1 40.1,14 40.4,13.9 	"/>
	<polygon class="st5" points="40.5,14.1 40.1,14 40.4,13.9 	"/>
	<polyline class="st3" points="40.5,14.1 40.1,14 40.4,13.9 	"/>
	<polygon class="st4" points="40.5,14.1 40.1,14 40.4,13.9 	"/>
	<polyline class="st3" points="44.7,17.1 45.2,16.5 43.8,16 44.3,15.7 44.2,15.4 43.9,15.3 44.1,15 43.1,15.3 42.8,15.5 43.2,15.8 
		43,16.2 43.6,16.2 43.2,16.5 43.2,17.2 43.5,17.5 	"/>
	<polygon class="st4" points="44.7,17.1 45.2,16.5 43.8,16 44.3,15.7 44.2,15.4 43.9,15.3 44.1,15 43.1,15.3 42.8,15.5 43.2,15.8 
		43,16.2 43.6,16.2 43.2,16.5 43.2,17.2 43.5,17.5 	"/>
	<polyline class="st3" points="42.2,14.8 41.6,14.9 42.1,14.6 42.5,14.8 	"/>
	<polygon class="st5" points="42.2,14.8 41.6,14.9 42.1,14.6 42.5,14.8 	"/>
	<polyline class="st3" points="42.2,14.8 41.6,14.9 42.1,14.6 42.5,14.8 	"/>
	<polygon class="st4" points="42.2,14.8 41.6,14.9 42.1,14.6 42.5,14.8 	"/>
	<polyline class="st3" points="59.9,16.2 59.6,15.9 59.9,16 	"/>
	<polygon class="st5" points="59.9,16.2 59.6,15.9 59.9,16 	"/>
	<polyline class="st3" points="59.9,16.2 59.6,15.9 59.9,16 	"/>
	<polygon class="st4" points="59.9,16.2 59.6,15.9 59.9,16 	"/>
	<polyline class="st3" points="31.6,16 31.3,15.7 31.1,15.7 29.4,17.1 30.3,16.7 31.1,16 	"/>
	<polygon class="st5" points="31.6,16 31.3,15.7 31.1,15.7 29.4,17.1 30.3,16.7 31.1,16 	"/>
	<polyline class="st3" points="31.6,16 31.3,15.7 31.1,15.7 29.4,17.1 30.3,16.7 31.1,16 	"/>
	<polygon class="st4" points="31.6,16 31.3,15.7 31.1,15.7 29.4,17.1 30.3,16.7 31.1,16 	"/>
	<polyline class="st3" points="37.3,14.4 38.1,13.9 39,13.8 39.9,13.4 40,13.6 39.6,13.9 39.5,14.3 40.3,14.3 40.6,14.1 41.2,14.3 
		41.6,14 43.1,13.7 43.4,13.8 43.6,14.1 43.5,14.4 43.1,14.6 42.8,14.4 42.6,14.7 42.1,14.4 41.5,14.8 41.2,14.7 37.6,15.3 
		37.4,15.1 38.6,14.6 	"/>
	<polygon class="st5" points="37.3,14.4 38.1,13.9 39,13.8 39.9,13.4 40,13.6 39.6,13.9 39.5,14.3 40.3,14.3 40.6,14.1 41.2,14.3 
		41.6,14 43.1,13.7 43.4,13.8 43.6,14.1 43.5,14.4 43.1,14.6 42.8,14.4 42.6,14.7 42.1,14.4 41.5,14.8 41.2,14.7 37.6,15.3 
		37.4,15.1 38.6,14.6 	"/>
	<polyline class="st3" points="37.3,14.4 38.1,13.9 39,13.8 39.9,13.4 40,13.6 39.6,13.9 39.5,14.3 40.3,14.3 40.6,14.1 41.2,14.3 
		41.6,14 43.1,13.7 43.4,13.8 43.6,14.1 43.5,14.4 43.1,14.6 42.8,14.4 42.6,14.7 42.1,14.4 41.5,14.8 41.2,14.7 37.6,15.3 
		37.4,15.1 38.6,14.6 	"/>
	<polygon class="st4" points="37.3,14.4 38.1,13.9 39,13.8 39.9,13.4 40,13.6 39.6,13.9 39.5,14.3 40.3,14.3 40.6,14.1 41.2,14.3 
		41.6,14 43.1,13.7 43.4,13.8 43.6,14.1 43.5,14.4 43.1,14.6 42.8,14.4 42.6,14.7 42.1,14.4 41.5,14.8 41.2,14.7 37.6,15.3 
		37.4,15.1 38.6,14.6 	"/>
	<polyline class="st3" points="38.1,16.4 37.5,16.6 37.9,16.3 	"/>
	<polygon class="st5" points="38.1,16.4 37.5,16.6 37.9,16.3 	"/>
	<polyline class="st3" points="38.1,16.4 37.5,16.6 37.9,16.3 	"/>
	<polygon class="st4" points="38.1,16.4 37.5,16.6 37.9,16.3 	"/>
	<polyline class="st3" points="32.7,21.6 32.9,21.1 33.2,21.2 33.7,20.6 34.2,20.7 33.7,21.6 34.1,21.7 33.6,22.4 33.1,22.4 
		32.6,21.9 	"/>
	<polygon class="st5" points="32.7,21.6 32.9,21.1 33.2,21.2 33.7,20.6 34.2,20.7 33.7,21.6 34.1,21.7 33.6,22.4 33.1,22.4 
		32.6,21.9 	"/>
	<polyline class="st3" points="32.7,21.6 32.9,21.1 33.2,21.2 33.7,20.6 34.2,20.7 33.7,21.6 34.1,21.7 33.6,22.4 33.1,22.4 
		32.6,21.9 	"/>
	<polygon class="st4" points="32.7,21.6 32.9,21.1 33.2,21.2 33.7,20.6 34.2,20.7 33.7,21.6 34.1,21.7 33.6,22.4 33.1,22.4 
		32.6,21.9 	"/>
	<polyline class="st3" points="41.8,21.9 42,21.8 41.7,22.5 40.4,22.9 40.7,22.5 41.3,22.4 41.4,22.2 41,22.2 41.4,21.8 	"/>
	<polygon class="st5" points="41.8,21.9 42,21.8 41.7,22.5 40.4,22.9 40.7,22.5 41.3,22.4 41.4,22.2 41,22.2 41.4,21.8 	"/>
	<polyline class="st3" points="41.8,21.9 42,21.8 41.7,22.5 40.4,22.9 40.7,22.5 41.3,22.4 41.4,22.2 41,22.2 41.4,21.8 	"/>
	<polygon class="st4" points="41.8,21.9 42,21.8 41.7,22.5 40.4,22.9 40.7,22.5 41.3,22.4 41.4,22.2 41,22.2 41.4,21.8 	"/>
	<polyline class="st3" points="41.6,22.8 41.6,23.1 41.2,23.1 41.4,22.7 	"/>
	<polygon class="st5" points="41.6,22.8 41.6,23.1 41.2,23.1 41.4,22.7 	"/>
	<polyline class="st3" points="41.6,22.8 41.6,23.1 41.2,23.1 41.4,22.7 	"/>
	<polygon class="st4" points="41.6,22.8 41.6,23.1 41.2,23.1 41.4,22.7 	"/>
	<polyline class="st3" points="42.5,22 42.4,22.1 42.6,22.2 42.5,22.4 42,22.5 41.9,22.2 42,21.9 	"/>
	<polygon class="st5" points="42.5,22 42.4,22.1 42.6,22.2 42.5,22.4 42,22.5 41.9,22.2 42,21.9 	"/>
	<polyline class="st3" points="42.5,22 42.4,22.1 42.6,22.2 42.5,22.4 42,22.5 41.9,22.2 42,21.9 	"/>
	<polygon class="st4" points="42.5,22 42.4,22.1 42.6,22.2 42.5,22.4 42,22.5 41.9,22.2 42,21.9 	"/>
	<polyline class="st3" points="37.2,25.4 37.1,25.6 36.7,25.5 	"/>
	<polygon class="st5" points="37.2,25.4 37.1,25.6 36.7,25.5 	"/>
	<polyline class="st3" points="37.2,25.4 37.1,25.6 36.7,25.5 	"/>
	<polygon class="st4" points="37.2,25.4 37.1,25.6 36.7,25.5 	"/>
	<polyline class="st3" points="35.3,19.9 35.2,19.2 34.5,18.7 34.5,18 32.6,17.9 33.5,17.1 35.4,16.4 36.7,16.3 37.1,16.4 
		37.2,16.8 37.5,16.8 38.2,16.4 39.1,16.6 40.6,16.6 41.2,16.3 41.5,16 42.2,16 43,16.8 43.1,17.8 42.5,18.1 43.1,18.3 43,18.9 
		42.4,19.3 41.9,19.9 39.6,19.8 37.6,20.1 37.3,19.5 36.7,20.2 36.1,20.4 36.5,19.5 	"/>
	<polygon class="st4" points="35.3,19.9 35.2,19.2 34.5,18.7 34.5,18 32.6,17.9 33.5,17.1 35.4,16.4 36.7,16.3 37.1,16.4 37.2,16.8 
		37.5,16.8 38.2,16.4 39.1,16.6 40.6,16.6 41.2,16.3 41.5,16 42.2,16 43,16.8 43.1,17.8 42.5,18.1 43.1,18.3 43,18.9 42.4,19.3 
		41.9,19.9 39.6,19.8 37.6,20.1 37.3,19.5 36.7,20.2 36.1,20.4 36.5,19.5 	"/>
	<polyline class="st3" points="28.4,29.2 28.9,28.9 28.9,28.4 29.8,26.7 30.5,26.5 30.5,26 31,25.9 30.6,25.6 29.2,26.7 29.4,27 
		28.8,27.5 28.4,27.3 28,27.5 28,28.1 27.2,28 	"/>
	<polygon class="st4" points="28.4,29.2 28.9,28.9 28.9,28.4 29.8,26.7 30.5,26.5 30.5,26 31,25.9 30.6,25.6 29.2,26.7 29.4,27 
		28.8,27.5 28.4,27.3 28,27.5 28,28.1 27.2,28 	"/>
	<polyline class="st3" points="29.3,26.3 29.3,26 29.1,26.1 29.2,25.9 28.6,25.8 28.3,26.3 27.8,26.3 27.6,26.5 28,27.2 28.8,26.7 	
		"/>
	<polygon class="st4" points="29.3,26.3 29.3,26 29.1,26.1 29.2,25.9 28.6,25.8 28.3,26.3 27.8,26.3 27.6,26.5 28,27.2 28.8,26.7 	
		"/>
	<polyline class="st3" points="24.7,33.9 24.5,34.1 24.5,33.8 	"/>
	<polygon class="st5" points="24.7,33.9 24.5,34.1 24.5,33.8 	"/>
	<polyline class="st3" points="24.7,33.9 24.5,34.1 24.5,33.8 	"/>
	<polygon class="st4" points="24.7,33.9 24.5,34.1 24.5,33.8 	"/>
	<polyline class="st3" points="31.5,29.5 31.6,29.6 31.2,30 31.2,29.7 	"/>
	<polygon class="st5" points="31.5,29.5 31.6,29.6 31.2,30 31.2,29.7 	"/>
	<polyline class="st3" points="31.5,29.5 31.6,29.6 31.2,30 31.2,29.7 	"/>
	<polygon class="st4" points="31.5,29.5 31.6,29.6 31.2,30 31.2,29.7 	"/>
	<polyline class="st3" points="28.5,41.3 28.1,40.9 28.3,41.4 28.8,41.6 	"/>
	<polygon class="st5" points="28.5,41.3 28.1,40.9 28.3,41.4 28.8,41.6 	"/>
	<polyline class="st3" points="28.5,41.3 28.1,40.9 28.3,41.4 28.8,41.6 	"/>
	<polygon class="st4" points="28.5,41.3 28.1,40.9 28.3,41.4 28.8,41.6 	"/>
	<polyline class="st3" points="28.3,39.2 27.9,39.3 27.8,39.8 28.2,40.3 28.5,39.9 	"/>
	<polygon class="st5" points="28.3,39.2 27.9,39.3 27.8,39.8 28.2,40.3 28.5,39.9 	"/>
	<polyline class="st3" points="28.3,39.2 27.9,39.3 27.8,39.8 28.2,40.3 28.5,39.9 	"/>
	<polygon class="st4" points="28.3,39.2 27.9,39.3 27.8,39.8 28.2,40.3 28.5,39.9 	"/>
	<polyline class="st3" points="26.7,37.7 26.1,38.3 25.8,37.1 	"/>
	<polygon class="st5" points="26.7,37.7 26.1,38.3 25.8,37.1 	"/>
	<polyline class="st3" points="26.7,37.7 26.1,38.3 25.8,37.1 	"/>
	<polygon class="st4" points="26.7,37.7 26.1,38.3 25.8,37.1 	"/>
	<polyline class="st3" points="26.1,34.9 25.7,35.8 25.4,35.8 25.9,34.8 	"/>
	<polygon class="st5" points="26.1,34.9 25.7,35.8 25.4,35.8 25.9,34.8 	"/>
	<polyline class="st3" points="26.1,34.9 25.7,35.8 25.4,35.8 25.9,34.8 	"/>
	<polygon class="st4" points="26.1,34.9 25.7,35.8 25.4,35.8 25.9,34.8 	"/>
	<polyline class="st3" points="26.7,34.2 26.2,34.9 26.3,34.3 	"/>
	<polygon class="st5" points="26.7,34.2 26.2,34.9 26.3,34.3 	"/>
	<polyline class="st3" points="26.7,34.2 26.2,34.9 26.3,34.3 	"/>
	<polygon class="st4" points="26.7,34.2 26.2,34.9 26.3,34.3 	"/>
	<polyline class="st3" points="34.4,66.3 36,66.4 35.8,66.1 36.2,66.1 36.4,65.9 36.7,66.2 37.2,67 36.6,68.7 35.8,68.6 34.5,67.6 
		34.9,67.3 34.4,66.6 	"/>
	<polygon class="st5" points="34.4,66.3 36,66.4 35.8,66.1 36.2,66.1 36.4,65.9 36.7,66.2 37.2,67 36.6,68.7 35.8,68.6 34.5,67.6 
		34.9,67.3 34.4,66.6 	"/>
	<polyline class="st3" points="34.4,66.3 36,66.4 35.8,66.1 36.2,66.1 36.4,65.9 36.7,66.2 37.2,67 36.6,68.7 35.8,68.6 34.5,67.6 
		34.9,67.3 34.4,66.6 	"/>
	<polygon class="st4" points="34.4,66.3 36,66.4 35.8,66.1 36.2,66.1 36.4,65.9 36.7,66.2 37.2,67 36.6,68.7 35.8,68.6 34.5,67.6 
		34.9,67.3 34.4,66.6 	"/>
	<polyline class="st3" points="48.3,22.6 48.6,22.8 48.4,23 48.1,23 	"/>
	<polygon class="st5" points="48.3,22.6 48.6,22.8 48.4,23 48.1,23 	"/>
	<polyline class="st3" points="48.3,22.6 48.6,22.8 48.4,23 48.1,23 	"/>
	<polygon class="st4" points="48.3,22.6 48.6,22.8 48.4,23 48.1,23 	"/>
	<polyline class="st3" points="48.5,23 48.9,22.9 49.2,23.4 48.5,23.3 	"/>
	<polygon class="st5" points="48.5,23 48.9,22.9 49.2,23.4 48.5,23.3 	"/>
	<polyline class="st3" points="48.5,23 48.9,22.9 49.2,23.4 48.5,23.3 	"/>
	<polygon class="st4" points="48.5,23 48.9,22.9 49.2,23.4 48.5,23.3 	"/>
	<polyline class="st3" points="49.3,23.5 49.3,23 49.8,23.2 49.4,23.7 	"/>
	<polygon class="st5" points="49.3,23.5 49.3,23 49.8,23.2 49.4,23.7 	"/>
	<polyline class="st3" points="49.3,23.5 49.3,23 49.8,23.2 49.4,23.7 	"/>
	<polygon class="st4" points="49.3,23.5 49.3,23 49.8,23.2 49.4,23.7 	"/>
	<polyline class="st3" points="51.9,24.3 52,24.5 51.8,24.5 	"/>
	<polygon class="st5" points="51.9,24.3 52,24.5 51.8,24.5 	"/>
	<polyline class="st3" points="51.9,24.3 52,24.5 51.8,24.5 	"/>
	<polygon class="st4" points="51.9,24.3 52,24.5 51.8,24.5 	"/>
	<polyline class="st3" points="53.5,21.7 53.5,21.5 54.1,21.6 53.8,22.1 53.3,21.9 	"/>
	<polygon class="st5" points="53.5,21.7 53.5,21.5 54.1,21.6 53.8,22.1 53.3,21.9 	"/>
	<polyline class="st3" points="53.5,21.7 53.5,21.5 54.1,21.6 53.8,22.1 53.3,21.9 	"/>
	<polygon class="st4" points="53.5,21.7 53.5,21.5 54.1,21.6 53.8,22.1 53.3,21.9 	"/>
	<polyline class="st3" points="53.4,21.5 53.8,21.3 54.1,21.5 	"/>
	<polygon class="st5" points="53.4,21.5 53.8,21.3 54.1,21.5 	"/>
	<polyline class="st3" points="53.4,21.5 53.8,21.3 54.1,21.5 	"/>
	<polygon class="st4" points="53.4,21.5 53.8,21.3 54.1,21.5 	"/>
	<polyline class="st3" points="53.9,21.2 54.4,20.9 54.3,21.1 	"/>
	<polygon class="st5" points="53.9,21.2 54.4,20.9 54.3,21.1 	"/>
	<polyline class="st3" points="53.9,21.2 54.4,20.9 54.3,21.1 	"/>
	<polygon class="st4" points="53.9,21.2 54.4,20.9 54.3,21.1 	"/>
	<polyline class="st3" points="54.5,22 54.9,21.9 54.7,22.2 	"/>
	<polygon class="st5" points="54.5,22 54.9,21.9 54.7,22.2 	"/>
	<polyline class="st3" points="54.5,22 54.9,21.9 54.7,22.2 	"/>
	<polygon class="st4" points="54.5,22 54.9,21.9 54.7,22.2 	"/>
	<polyline class="st3" points="55.8,17.9 55.9,17.7 56.2,18 	"/>
	<polygon class="st5" points="55.8,17.9 55.9,17.7 56.2,18 	"/>
	<polyline class="st3" points="55.8,17.9 55.9,17.7 56.2,18 	"/>
	<polygon class="st4" points="55.8,17.9 55.9,17.7 56.2,18 	"/>
	<polyline class="st3" points="44.6,22.8 44.2,22.8 44.2,23.1 	"/>
	<polygon class="st5" points="44.6,22.8 44.2,22.8 44.2,23.1 	"/>
	<polyline class="st3" points="44.6,22.8 44.2,22.8 44.2,23.1 	"/>
	<polygon class="st4" points="44.6,22.8 44.2,22.8 44.2,23.1 	"/>
	<polyline class="st3" points="45.4,23 45.3,23.2 45.5,23.1 	"/>
	<polygon class="st5" points="45.4,23 45.3,23.2 45.5,23.1 	"/>
	<polyline class="st3" points="45.4,23 45.3,23.2 45.5,23.1 	"/>
	<polygon class="st4" points="45.4,23 45.3,23.2 45.5,23.1 	"/>
	<polyline class="st3" points="45.7,22.8 45.7,23.1 45.8,23 	"/>
	<polygon class="st5" points="45.7,22.8 45.7,23.1 45.8,23 	"/>
	<polyline class="st3" points="45.7,22.8 45.7,23.1 45.8,23 	"/>
	<polygon class="st4" points="45.7,22.8 45.7,23.1 45.8,23 	"/>
	<polyline class="st3" points="42.1,27.9 42.4,28.1 41.9,28.2 	"/>
	<polygon class="st5" points="42.1,27.9 42.4,28.1 41.9,28.2 	"/>
	<polyline class="st3" points="42.1,27.9 42.4,28.1 41.9,28.2 	"/>
	<polygon class="st4" points="42.1,27.9 42.4,28.1 41.9,28.2 	"/>
	<polyline class="st3" points="43.6,26.3 44,26.4 43.7,26.9 43.8,27.7 43.2,27.4 43.4,27.1 43,27 	"/>
	<polygon class="st5" points="43.6,26.3 44,26.4 43.7,26.9 43.8,27.7 43.2,27.4 43.4,27.1 43,27 	"/>
	<polyline class="st3" points="43.6,26.3 44,26.4 43.7,26.9 43.8,27.7 43.2,27.4 43.4,27.1 43,27 	"/>
	<polygon class="st4" points="43.6,26.3 44,26.4 43.7,26.9 43.8,27.7 43.2,27.4 43.4,27.1 43,27 	"/>
	<polyline class="st3" points="43.7,26 44.2,25.4 45,25 46,24.8 45.9,25.1 44.5,25.8 44.1,26.4 43.7,26.2 	"/>
	<polygon class="st5" points="43.7,26 44.2,25.4 45,25 46,24.8 45.9,25.1 44.5,25.8 44.1,26.4 43.7,26.2 	"/>
	<polyline class="st3" points="43.7,26 44.2,25.4 45,25 46,24.8 45.9,25.1 44.5,25.8 44.1,26.4 43.7,26.2 	"/>
	<polygon class="st4" points="43.7,26 44.2,25.4 45,25 46,24.8 45.9,25.1 44.5,25.8 44.1,26.4 43.7,26.2 	"/>
	<polyline class="st3" points="44,28 44.1,27.7 44.3,28.1 	"/>
	<polygon class="st5" points="44,28 44.1,27.7 44.3,28.1 	"/>
	<polyline class="st3" points="44,28 44.1,27.7 44.3,28.1 	"/>
	<polygon class="st4" points="44,28 44.1,27.7 44.3,28.1 	"/>
	<polyline class="st3" points="63.7,27 66.3,28.3 65.9,28.6 67.2,29.4 67.1,29.9 64.5,27.9 	"/>
	<polygon class="st5" points="63.7,27 66.3,28.3 65.9,28.6 67.2,29.4 67.1,29.9 64.5,27.9 	"/>
	<polyline class="st3" points="63.7,27 66.3,28.3 65.9,28.6 67.2,29.4 67.1,29.9 64.5,27.9 	"/>
	<polygon class="st4" points="63.7,27 66.3,28.3 65.9,28.6 67.2,29.4 67.1,29.9 64.5,27.9 	"/>
	<polyline class="st3" points="68.2,29.8 68.2,29.7 68.6,29.9 68.5,30.6 68.7,31 68.3,31.2 68.5,32.1 68,31.7 68,31 67.3,30.2 
		67.9,30.1 	"/>
	<polygon class="st5" points="68.2,29.8 68.2,29.7 68.6,29.9 68.5,30.6 68.7,31 68.3,31.2 68.5,32.1 68,31.7 68,31 67.3,30.2 
		67.9,30.1 	"/>
	<polyline class="st3" points="68.2,29.8 68.2,29.7 68.6,29.9 68.5,30.6 68.7,31 68.3,31.2 68.5,32.1 68,31.7 68,31 67.3,30.2 
		67.9,30.1 	"/>
	<polygon class="st4" points="68.2,29.8 68.2,29.7 68.6,29.9 68.5,30.6 68.7,31 68.3,31.2 68.5,32.1 68,31.7 68,31 67.3,30.2 
		67.9,30.1 	"/>
	<polyline class="st3" points="68.7,31.8 69.5,32.3 70.6,34.6 70.4,35.2 70.2,35.5 70.3,36.4 70,36.3 69.9,36 69.4,37.2 69.1,37.5 
		69.1,36.4 69.7,35.6 69.3,34.5 69.6,34.1 69.3,33.1 68.6,32.1 	"/>
	<polygon class="st5" points="68.7,31.8 69.5,32.3 70.6,34.6 70.4,35.2 70.2,35.5 70.3,36.4 70,36.3 69.9,36 69.4,37.2 69.1,37.5 
		69.1,36.4 69.7,35.6 69.3,34.5 69.6,34.1 69.3,33.1 68.6,32.1 	"/>
	<polyline class="st3" points="68.7,31.8 69.5,32.3 70.6,34.6 70.4,35.2 70.2,35.5 70.3,36.4 70,36.3 69.9,36 69.4,37.2 69.1,37.5 
		69.1,36.4 69.7,35.6 69.3,34.5 69.6,34.1 69.3,33.1 68.6,32.1 	"/>
	<polygon class="st4" points="68.7,31.8 69.5,32.3 70.6,34.6 70.4,35.2 70.2,35.5 70.3,36.4 70,36.3 69.9,36 69.4,37.2 69.1,37.5 
		69.1,36.4 69.7,35.6 69.3,34.5 69.6,34.1 69.3,33.1 68.6,32.1 	"/>
	<polyline class="st3" points="70,36.9 69.9,37.5 69.5,37.5 69.7,36.5 70,36.6 	"/>
	<polygon class="st5" points="70,36.9 69.9,37.5 69.5,37.5 69.7,36.5 70,36.6 	"/>
	<polyline class="st3" points="70,36.9 69.9,37.5 69.5,37.5 69.7,36.5 70,36.6 	"/>
	<polygon class="st4" points="70,36.9 69.9,37.5 69.5,37.5 69.7,36.5 70,36.6 	"/>
	<polyline class="st3" points="69.1,37.6 69,38.3 69.2,38.5 69.3,38.2 69.6,38.8 69.9,38.8 69.6,37.7 69.3,37.5 	"/>
	<polygon class="st5" points="69.1,37.6 69,38.3 69.2,38.5 69.3,38.2 69.6,38.8 69.9,38.8 69.6,37.7 69.3,37.5 	"/>
	<polyline class="st3" points="69.1,37.6 69,38.3 69.2,38.5 69.3,38.2 69.6,38.8 69.9,38.8 69.6,37.7 69.3,37.5 	"/>
	<polygon class="st4" points="69.1,37.6 69,38.3 69.2,38.5 69.3,38.2 69.6,38.8 69.9,38.8 69.6,37.7 69.3,37.5 	"/>
	<polyline class="st3" points="65.5,49.2 65.7,49.2 65.7,49.7 65.4,50.2 65,50.3 64.8,49.9 	"/>
	<polygon class="st5" points="65.5,49.2 65.7,49.2 65.7,49.7 65.4,50.2 65,50.3 64.8,49.9 	"/>
	<polyline class="st3" points="65.5,49.2 65.7,49.2 65.7,49.7 65.4,50.2 65,50.3 64.8,49.9 	"/>
	<polygon class="st4" points="65.5,49.2 65.7,49.2 65.7,49.7 65.4,50.2 65,50.3 64.8,49.9 	"/>
	<polyline class="st3" points="52,58.8 51.7,59.4 51.9,60 52.1,60.3 52.4,60.3 52.9,59.9 52.9,59.5 52,58.8 	"/>
	<polygon class="st5" points="52,58.8 51.7,59.4 51.9,60 52.1,60.3 52.4,60.3 52.9,59.9 52.9,59.5 52,58.8 	"/>
	<polyline class="st4" points="52,58.8 51.7,59.4 51.9,60 52.1,60.3 52.4,60.3 52.9,59.9 52.9,59.5 52,58.8 	"/>
	<polyline class="st3" points="66.4,47.3 66.5,47.4 66.7,47.1 	"/>
	<polygon class="st5" points="66.4,47.3 66.5,47.4 66.7,47.1 	"/>
	<polyline class="st4" points="66.4,47.3 66.5,47.4 66.7,47.1 66.4,47.3 	"/>
	<polyline class="st3" points="68.5,44 68.8,44.2 68.9,45.6 68.4,45.1 	"/>
	<polygon class="st5" points="68.5,44 68.8,44.2 68.9,45.6 68.4,45.1 	"/>
	<polyline class="st3" points="68.5,44 68.8,44.2 68.9,45.6 68.4,45.1 	"/>
	<polygon class="st4" points="68.5,44 68.8,44.2 68.9,45.6 68.4,45.1 	"/>
	<polyline class="st3" points="34.4,30.3 34.1,30.2 34,30.5 	"/>
	<polygon class="st5" points="34.4,30.3 34.1,30.2 34,30.5 	"/>
	<polyline class="st3" points="34.4,30.3 34.1,30.2 34,30.5 	"/>
	<polygon class="st4" points="34.4,30.3 34.1,30.2 34,30.5 	"/>
	<polyline class="st3" points="31.4,43 31.7,43 31.3,43.3 31,43.3 30.8,42.9 	"/>
	<polygon class="st5" points="31.4,43 31.7,43 31.3,43.3 31,43.3 30.8,42.9 	"/>
	<polyline class="st3" points="31.4,43 31.7,43 31.3,43.3 31,43.3 30.8,42.9 	"/>
	<polygon class="st4" points="31.4,43 31.7,43 31.3,43.3 31,43.3 30.8,42.9 	"/>
	<polyline class="st3" points="59.9,58.6 61.1,58.4 62.7,59 64.2,59.1 64.8,59.9 65.3,59.8 65.2,60.9 64.7,61.2 63.7,61 61,59.2 
		60.1,58.9 	"/>
	<polygon class="st5" points="59.9,58.6 61.1,58.4 62.7,59 64.2,59.1 64.8,59.9 65.3,59.8 65.2,60.9 64.7,61.2 63.7,61 61,59.2 
		60.1,58.9 	"/>
	<polyline class="st3" points="59.9,58.6 61.1,58.4 62.7,59 64.2,59.1 64.8,59.9 65.3,59.8 65.2,60.9 64.7,61.2 63.7,61 61,59.2 
		60.1,58.9 	"/>
	<polygon class="st4" points="59.9,58.6 61.1,58.4 62.7,59 64.2,59.1 64.8,59.9 65.3,59.8 65.2,60.9 64.7,61.2 63.7,61 61,59.2 
		60.1,58.9 	"/>
	<polyline class="st3" points="64.9,59.6 65.3,59.3 65.6,59.5 65.6,59.7 	"/>
	<polygon class="st5" points="64.9,59.6 65.3,59.3 65.6,59.5 65.6,59.7 	"/>
	<polyline class="st3" points="64.9,59.6 65.3,59.3 65.6,59.5 65.6,59.7 	"/>
	<polygon class="st4" points="64.9,59.6 65.3,59.3 65.6,59.5 65.6,59.7 	"/>
	<polyline class="st3" points="66.1,59.3 66.3,59.3 66.1,59.5 	"/>
	<polygon class="st5" points="66.1,59.3 66.3,59.3 66.1,59.5 	"/>
	<polyline class="st3" points="66.1,59.3 66.3,59.3 66.1,59.5 	"/>
	<polygon class="st4" points="66.1,59.3 66.3,59.3 66.1,59.5 	"/>
	<polyline class="st3" points="67.9,60.2 65.7,61.2 65,61.3 65.4,60.8 66.6,60.5 67.4,59.9 68.8,59.5 68.8,59.8 	"/>
	<polygon class="st5" points="67.9,60.2 65.7,61.2 65,61.3 65.4,60.8 66.6,60.5 67.4,59.9 68.8,59.5 68.8,59.8 	"/>
	<polyline class="st3" points="67.9,60.2 65.7,61.2 65,61.3 65.4,60.8 66.6,60.5 67.4,59.9 68.8,59.5 68.8,59.8 	"/>
	<polygon class="st4" points="67.9,60.2 65.7,61.2 65,61.3 65.4,60.8 66.6,60.5 67.4,59.9 68.8,59.5 68.8,59.8 	"/>
	<polyline class="st3" points="70,50.7 70.1,51 69.4,52.5 	"/>
	<polygon class="st5" points="70,50.7 70.1,51 69.4,52.5 	"/>
	<polyline class="st3" points="70,50.7 70.1,51 69.4,52.5 	"/>
	<polygon class="st4" points="70,50.7 70.1,51 69.4,52.5 	"/>
	<polyline class="st3" points="70.1,49.5 70.5,49.3 70.6,49.6 70.5,49.8 	"/>
	<polygon class="st5" points="70.1,49.5 70.5,49.3 70.6,49.6 70.5,49.8 	"/>
	<polyline class="st3" points="70.1,49.5 70.5,49.3 70.6,49.6 70.5,49.8 	"/>
	<polygon class="st4" points="70.1,49.5 70.5,49.3 70.6,49.6 70.5,49.8 	"/>
	<polyline class="st3" points="70,46.8 70.3,47.4 70.2,48.4 70.5,48.8 71.2,48.3 71.4,48.7 70.2,49.2 69.5,48.4 69.7,48.3 
		69.5,47.1 	"/>
	<polygon class="st5" points="70,46.8 70.3,47.4 70.2,48.4 70.5,48.8 71.2,48.3 71.4,48.7 70.2,49.2 69.5,48.4 69.7,48.3 69.5,47.1 
			"/>
	<polyline class="st3" points="70,46.8 70.3,47.4 70.2,48.4 70.5,48.8 71.2,48.3 71.4,48.7 70.2,49.2 69.5,48.4 69.7,48.3 
		69.5,47.1 	"/>
	<polygon class="st4" points="70,46.8 70.3,47.4 70.2,48.4 70.5,48.8 71.2,48.3 71.4,48.7 70.2,49.2 69.5,48.4 69.7,48.3 69.5,47.1 
			"/>
	<polyline class="st3" points="71.2,49 71.5,49.1 71.2,49.2 	"/>
	<polygon class="st5" points="71.2,49 71.5,49.1 71.2,49.2 	"/>
	<polyline class="st3" points="71.2,49 71.5,49.1 71.2,49.2 	"/>
	<polygon class="st4" points="71.2,49 71.5,49.1 71.2,49.2 	"/>
	<polyline class="st3" points="71.5,48.7 71.8,48.4 72.1,48.9 72,49 	"/>
	<polygon class="st5" points="71.5,48.7 71.8,48.4 72.1,48.9 72,49 	"/>
	<polyline class="st3" points="71.5,48.7 71.8,48.4 72.1,48.9 72,49 	"/>
	<polygon class="st4" points="71.5,48.7 71.8,48.4 72.1,48.9 72,49 	"/>
	<polyline class="st3" points="70.8,49.7 71.3,49.6 71,50.3 	"/>
	<polygon class="st5" points="70.8,49.7 71.3,49.6 71,50.3 	"/>
	<polyline class="st3" points="70.8,49.7 71.3,49.6 71,50.3 	"/>
	<polygon class="st4" points="70.8,49.7 71.3,49.6 71,50.3 	"/>
	<polyline class="st3" points="71.3,49.8 71.5,49.7 71.5,50.5 71.2,50.4 	"/>
	<polygon class="st5" points="71.3,49.8 71.5,49.7 71.5,50.5 71.2,50.4 	"/>
	<polyline class="st3" points="71.3,49.8 71.5,49.7 71.5,50.5 71.2,50.4 	"/>
	<polygon class="st4" points="71.3,49.8 71.5,49.7 71.5,50.5 71.2,50.4 	"/>
	<polyline class="st3" points="71.6,49.1 71.9,49 72,49.5 	"/>
	<polygon class="st5" points="71.6,49.1 71.9,49 72,49.5 	"/>
	<polyline class="st3" points="71.6,49.1 71.9,49 72,49.5 	"/>
	<polygon class="st4" points="71.6,49.1 71.9,49 72,49.5 	"/>
	<polyline class="st3" points="72.2,49.5 72.5,49.5 72.8,50.1 72.8,50.6 72.5,50.7 72.6,51.2 71.3,51.7 71.6,50.6 71.8,50.8 	"/>
	<polygon class="st5" points="72.2,49.5 72.5,49.5 72.8,50.1 72.8,50.6 72.5,50.7 72.6,51.2 71.3,51.7 71.6,50.6 71.8,50.8 	"/>
	<polyline class="st3" points="72.2,49.5 72.5,49.5 72.8,50.1 72.8,50.6 72.5,50.7 72.6,51.2 71.3,51.7 71.6,50.6 71.8,50.8 	"/>
	<polygon class="st4" points="72.2,49.5 72.5,49.5 72.8,50.1 72.8,50.6 72.5,50.7 72.6,51.2 71.3,51.7 71.6,50.6 71.8,50.8 	"/>
	<polyline class="st3" points="73.6,53.9 74.1,53.1 74.5,52.9 	"/>
	<polygon class="st5" points="73.6,53.9 74.1,53.1 74.5,52.9 	"/>
	<polyline class="st3" points="73.6,53.9 74.1,53.1 74.5,52.9 	"/>
	<polygon class="st4" points="73.6,53.9 74.1,53.1 74.5,52.9 	"/>
	<polyline class="st3" points="72.6,57 72.1,57.7 72.5,56.9 72.5,56.9 73.3,55.9 72.6,56.9 	"/>
	<polygon class="st4" points="72.6,57 72.1,57.7 72.5,56.9 72.5,56.9 73.3,55.9 72.6,56.9 	"/>
	<polyline class="st3" points="70.9,58.1 71.9,57.1 71.3,58 	"/>
	<polygon class="st5" points="70.9,58.1 71.9,57.1 71.3,58 	"/>
	<polyline class="st3" points="70.9,58.1 71.9,57.1 71.3,58 	"/>
	<polygon class="st4" points="70.9,58.1 71.9,57.1 71.3,58 	"/>
	<polyline class="st3" points="70.9,58.4 71.2,58.4 71,58.6 70.5,58.8 	"/>
	<polygon class="st5" points="70.9,58.4 71.2,58.4 71,58.6 70.5,58.8 	"/>
	<polyline class="st3" points="70.9,58.4 71.2,58.4 71,58.6 70.5,58.8 	"/>
	<polygon class="st4" points="70.9,58.4 71.2,58.4 71,58.6 70.5,58.8 	"/>
	<polyline class="st3" points="69.8,58.9 70.6,58.4 69.9,59.1 69.7,59.2 	"/>
	<polygon class="st5" points="69.8,58.9 70.6,58.4 69.9,59.1 69.7,59.2 	"/>
	<polyline class="st3" points="69.8,58.9 70.6,58.4 69.9,59.1 69.7,59.2 	"/>
	<polygon class="st4" points="69.8,58.9 70.6,58.4 69.9,59.1 69.7,59.2 	"/>
	<polyline class="st3" points="69.1,59.4 69.3,59.3 69.1,59.6 68.9,59.6 	"/>
	<polygon class="st5" points="69.1,59.4 69.3,59.3 69.1,59.6 68.9,59.6 	"/>
	<polyline class="st3" points="69.1,59.4 69.3,59.3 69.1,59.6 68.9,59.6 	"/>
	<polygon class="st4" points="69.1,59.4 69.3,59.3 69.1,59.6 68.9,59.6 	"/>
	<polyline class="st3" points="71.3,54.2 72.7,52.9 71.5,55.3 72,55.8 71.6,56.4 71.1,56.1 71.2,57 70.8,57.3 70.6,56.6 70.9,54.8 	
		"/>
	<polygon class="st5" points="71.3,54.2 72.7,52.9 71.5,55.3 72,55.8 71.6,56.4 71.1,56.1 71.2,57 70.8,57.3 70.6,56.6 70.9,54.8 	
		"/>
	<polyline class="st3" points="71.3,54.2 72.7,52.9 71.5,55.3 72,55.8 71.6,56.4 71.1,56.1 71.2,57 70.8,57.3 70.6,56.6 70.9,54.8 	
		"/>
	<polygon class="st4" points="71.3,54.2 72.7,52.9 71.5,55.3 72,55.8 71.6,56.4 71.1,56.1 71.2,57 70.8,57.3 70.6,56.6 70.9,54.8 	
		"/>
	<polyline class="st3" points="73.1,54.4 73.4,54.1 73.3,54.4 	"/>
	<polygon class="st5" points="73.1,54.4 73.4,54.1 73.3,54.4 	"/>
	<polyline class="st3" points="73.1,54.4 73.4,54.1 73.3,54.4 	"/>
	<polygon class="st4" points="73.1,54.4 73.4,54.1 73.3,54.4 	"/>
	<polyline class="st3" points="73.5,51.7 73.8,51.8 73.7,52.2 73.9,52.2 73.7,52.8 73.4,52.3 	"/>
	<polygon class="st5" points="73.5,51.7 73.8,51.8 73.7,52.2 73.9,52.2 73.7,52.8 73.4,52.3 	"/>
	<polyline class="st3" points="73.5,51.7 73.8,51.8 73.7,52.2 73.9,52.2 73.7,52.8 73.4,52.3 	"/>
	<polygon class="st4" points="73.5,51.7 73.8,51.8 73.7,52.2 73.9,52.2 73.7,52.8 73.4,52.3 	"/>
	<path class="st3" d="M76.8,52.6c-2.5,5.6-5.4,9.8-10.4,13.4l1.3-2.2l3-2.8l1.9-2.9l1-0.8l0.9-2l1.1-1.3l1.3-2.4l0.1-0.2L76.8,52.6"
		/>
	<path class="st4" d="M76.8,52.6c-2.5,5.6-5.4,9.8-10.4,13.4l1.3-2.2l3-2.8l1.9-2.9l1-0.8l0.9-2l1.1-1.3l1.3-2.4l0.1-0.2L76.8,52.6
		L76.8,52.6z"/>
	<polyline class="st3" points="44.3,22.7 44,22.7 44.4,22.8 	"/>
	<polygon class="st5" points="44.3,22.7 44,22.7 44.4,22.8 	"/>
	<polyline class="st3" points="44.3,22.7 44,22.7 44.4,22.8 	"/>
	<polygon class="st4" points="44.3,22.7 44,22.7 44.4,22.8 	"/>
	<polyline class="st3" points="57.3,32.5 57.8,33.7 57.4,35 56.9,35.3 57.3,34.1 	"/>
	<polygon class="st5" points="57.3,32.5 57.8,33.7 57.4,35 56.9,35.3 57.3,34.1 	"/>
	<polyline class="st3" points="57.3,32.5 57.8,33.7 57.4,35 56.9,35.3 57.3,34.1 	"/>
	<polygon class="st4" points="57.3,32.5 57.8,33.7 57.4,35 56.9,35.3 57.3,34.1 	"/>
	<polyline class="st3" points="47.8,40.1 49.4,40.1 47.6,40.6 47.7,41.2 47.3,40.6 	"/>
	<polygon class="st5" points="47.8,40.1 49.4,40.1 47.6,40.6 47.7,41.2 47.3,40.6 	"/>
	<polyline class="st3" points="47.8,40.1 49.4,40.1 47.6,40.6 47.7,41.2 47.3,40.6 	"/>
	<polygon class="st4" points="47.8,40.1 49.4,40.1 47.6,40.6 47.7,41.2 47.3,40.6 	"/>
	<polyline class="st3" points="37.8,42.8 38.1,42.8 37.6,41.8 37.4,41 37.4,40.2 37.9,39.3 38.1,39.6 38.4,39.5 38.3,39.3 
		38.5,39.3 39.2,39.2 39.8,39.4 40.3,40.6 39.4,40.3 39.1,40.6 38.6,40.5 38.8,41.3 39.3,41.7 39.2,42.1 39.2,42.3 39.5,42.1 
		39.9,42.7 39.7,43 39.2,42.6 39.1,43.2 39.5,43.8 39.3,44.6 39.3,44.9 38.3,44.9 37.4,44.1 37.4,43.5 	"/>
	<polygon class="st4" points="37.8,42.8 38.1,42.8 37.6,41.8 37.4,41 37.4,40.2 37.9,39.3 38.1,39.6 38.4,39.5 38.3,39.3 38.5,39.3 
		39.2,39.2 39.8,39.4 40.3,40.6 39.4,40.3 39.1,40.6 38.6,40.5 38.8,41.3 39.3,41.7 39.2,42.1 39.2,42.3 39.5,42.1 39.9,42.7 
		39.7,43 39.2,42.6 39.1,43.2 39.5,43.8 39.3,44.6 39.3,44.9 38.3,44.9 37.4,44.1 37.4,43.5 	"/>
	<polyline class="st3" points="42.1,41.7 42.8,41.1 42.6,40.4 42.9,40.1 42.4,40.1 41.6,40.9 41.5,41.6 	"/>
	<polygon class="st5" points="42.1,41.7 42.8,41.1 42.6,40.4 42.9,40.1 42.4,40.1 41.6,40.9 41.5,41.6 	"/>
	<polyline class="st3" points="42.1,41.7 42.8,41.1 42.6,40.4 42.9,40.1 42.4,40.1 41.6,40.9 41.5,41.6 	"/>
	<polygon class="st4" points="42.1,41.7 42.8,41.1 42.6,40.4 42.9,40.1 42.4,40.1 41.6,40.9 41.5,41.6 	"/>
	<polyline class="st3" points="36.9,30 36.9,30.7 36.4,30.8 36.5,30.2 	"/>
	<polygon class="st5" points="36.9,30 36.9,30.7 36.4,30.8 36.5,30.2 	"/>
	<polyline class="st3" points="36.9,30 36.9,30.7 36.4,30.8 36.5,30.2 	"/>
	<polygon class="st4" points="36.9,30 36.9,30.7 36.4,30.8 36.5,30.2 	"/>
	<polyline class="st3" points="49.1,12.5 50.3,12.5 49.6,12.1 48.8,12.2 48.6,12.4 	"/>
	<polygon class="st5" points="49.1,12.5 50.3,12.5 49.6,12.1 48.8,12.2 48.6,12.4 	"/>
	<polyline class="st3" points="49.1,12.5 50.3,12.5 49.6,12.1 48.8,12.2 48.6,12.4 	"/>
	<polygon class="st4" points="49.1,12.5 50.3,12.5 49.6,12.1 48.8,12.2 48.6,12.4 	"/>
	<polyline class="st3" points="48.5,11.7 46.9,11.6 48.8,11.3 49.4,11.5 	"/>
	<polygon class="st5" points="48.5,11.7 46.9,11.6 48.8,11.3 49.4,11.5 	"/>
	<polyline class="st3" points="48.5,11.7 46.9,11.6 48.8,11.3 49.4,11.5 	"/>
	<polygon class="st4" points="48.5,11.7 46.9,11.6 48.8,11.3 49.4,11.5 	"/>
	<polyline class="st3" points="43.6,10.8 42.8,10.7 43.9,10.7 	"/>
	<polygon class="st5" points="43.6,10.8 42.8,10.7 43.9,10.7 	"/>
	<polyline class="st3" points="43.6,10.8 42.8,10.7 43.9,10.7 	"/>
	<polygon class="st4" points="43.6,10.8 42.8,10.7 43.9,10.7 	"/>
	<polyline class="st3" points="30,63.8 29.5,63.3 29.3,62.5 29.3,62.4 29.9,63.2 	"/>
	<polygon class="st4" points="30,63.8 29.5,63.3 29.3,62.5 29.3,62.4 29.9,63.2 	"/>
	<polyline class="st3" points="27.7,61.2 27.2,60.3 26.9,59.2 27.1,59.6 27.3,60.4 28,61.4 	"/>
	<polygon class="st4" points="27.7,61.2 27.2,60.3 26.9,59.2 27.1,59.6 27.3,60.4 28,61.4 	"/>
	<polyline class="st3" points="27.9,58.8 27.9,58.6 28.7,58.9 28.8,58.9 29.1,59.3 28.9,59.3 28.9,59.4 28.9,59.4 28.5,59.7 
		28.7,59.8 28.4,59.9 27.9,59.5 27.9,58.9 	"/>
	<polygon class="st4" points="27.9,58.8 27.9,58.6 28.7,58.9 28.8,58.9 29.1,59.3 28.9,59.3 28.9,59.4 28.9,59.4 28.5,59.7 
		28.7,59.8 28.4,59.9 27.9,59.5 27.9,58.9 	"/>
	<polyline class="st3" points="29.6,57.7 29.9,58.7 29.5,58.1 	"/>
	<polygon class="st5" points="29.6,57.7 29.9,58.7 29.5,58.1 	"/>
	<polyline class="st3" points="29.6,57.7 29.9,58.7 29.5,58.1 	"/>
	<polygon class="st4" points="29.6,57.7 29.9,58.7 29.5,58.1 	"/>
	<polyline class="st3" points="27.6,57.6 27.6,57.8 27.3,57.8 	"/>
	<polygon class="st5" points="27.6,57.6 27.6,57.8 27.3,57.8 	"/>
	<polyline class="st4" points="27.6,57.6 27.6,57.8 27.3,57.8 	"/>
	<polyline class="st3" points="18.2,44.9 18.4,45.6 18.4,46.4 18.3,45.8 	"/>
	<polygon class="st4" points="18.2,44.9 18.4,45.6 18.4,46.4 18.3,45.8 	"/>
	<polyline class="st3" points="21.9,48.6 21.7,47.7 21.8,47.6 22.2,48.4 22,48.6 	"/>
	<polygon class="st4" points="21.9,48.6 21.7,47.7 21.8,47.6 22.2,48.4 22,48.6 	"/>
	<path class="st1" d="M77.3,33c-4.2-8.4-14-12.6-22.9-13.6"/>
	<path class="st6" d="M76.8,0.1c2.8,0,9.9,7.6,10,8.6C64.8,2,30.8,65.3,53.7,86.8c0.6,0.6,2.3,1.4,2.2,1.3c-1.7,1.2-9,1.4-12.3,0.9
		c-0.8-0.1-1.3-0.5-1.9-1.1C17.2,58.7,51.4,0.5,76.8,0.1"/>
	<path class="st7" d="M4.8,19.9c0.2-2.5,4.7-9.4,7.6-11.2c-0.2,0.2-0.4,0.6-0.4,0.9C9.2,28.2,45.7,57.8,80.5,52.6
		c0.5-0.2,1.6-3.7,1.6-3.7c3.6,3.5,8.4,4.1,13.9,2.6c-9.9,11.7-26.9,16.3-26.9,16.3s2.3-1.7,4.1-4.2C28.8,68,3.7,35.5,4.8,19.9"/>
	<path class="st3" d="M15,39.7c0.6,1,1.7,1.8,2.4,2.5c0.5-0.7,1-1.7,1.5-2.2c1.5,1.5,2.6,2.1,4.1,3.2c0.6-0.4,0.8-1,1.3-1.7
		c-1.7-1.2-2.9-2.2-4.4-3.6c0.3-0.5,0.8-1.1,1.1-1.6c1.6,1.6,2.9,2.6,4.7,4c0.5-0.6,0.9-1.1,1.4-1.8c-2.3-1.8-5.1-4.3-7.2-6.6
		C18.3,34.3,16.6,37.3,15,39.7"/>
	<path class="st3" d="M25.1,49.2c1.1,0.9,2.8,1.9,2.8,1.9l4.8-8.4c0,0-1.9-1.2-2.7-1.8C29.6,41.5,25.1,49.2,25.1,49.2"/>
	<path class="st3" d="M47.7,60.4c0,0,2.3,0.6,3.5,0.9c0.1-0.3,2.5-6.7,2.5-6.7c1.3,0.4,3.7,1,3.7,1l0.7-2.2c0,0-6.2-1.4-11-3.3
		c-0.1,0.3-0.8,2-0.8,2c1.7,0.7,3.9,1.4,3.9,1.4"/>
	<path class="st8" d="M67.4,62.7c0,0,2.2,0.1,3.7-0.1c-2.1-5.1-3-6.7-3.6-8.3c-1.4,0-2.2-0.1-4.1-0.3c-2.1,2.2-6.3,6.4-8.2,8
		c1.3,0.2,2,0.3,3.4,0.5c0.5-0.6,1.3-1.3,1.3-1.3c2.3,0.2,7,0.2,7,0.2 M66.1,59.5c-1.2,0-3.1,0-4.3-0.1c1-1,3-3.1,3-3.1
		S65.6,58.3,66.1,59.5"/>
	<path class="st8" d="M41.1,58.1l3.3,1.1c0,0-1-7.1-1.4-11c-0.9-0.3-2.6-1.2-3.7-1.8c-0.5,0.4-5.1,3.5-8.9,6
		c1.3,0.8,2.7,1.6,2.7,1.6l1.2-0.9c2.4,1.4,6.7,3.4,6.7,3.4 M40.4,53.8c0,0-2.4-1.2-3.7-1.9c0.9-0.8,3.2-2.5,3.2-2.5L40.4,53.8z"/>
</g>
</svg>
