<?xml version="1.0" encoding="utf-8"?>
<!-- Generator: Adobe Illustrator 22.1.0, SVG Export Plug-In . SVG Version: 6.00 Build 0)  -->
<svg version="1.1" id="Layer_1" xmlns="http://www.w3.org/2000/svg" xmlns:xlink="http://www.w3.org/1999/xlink" x="0px" y="0px"
	 viewBox="0 0 96 25.5" style="enable-background:new 0 0 96 25.5;" xml:space="preserve">
<style type="text/css">
	.Drop_x0020_Shadow{fill:none;}
	.Round_x0020_Corners_x0020_2_x0020_pt{fill:#FFFFFF;stroke:#000000;stroke-miterlimit:10;}
	.Live_x0020_Reflect_x0020_X{fill:none;}
	.Bevel_x0020_Soft{fill:url(#SVGID_1_);}
	.Dusk{fill:#FFFFFF;}
	.Foliage_GS{fill:#FFDD00;}
	.Pompadour_GS{fill-rule:evenodd;clip-rule:evenodd;fill:#44ADE2;}
	.st0{fill:#ED1C24;}
</style>
<linearGradient id="SVGID_1_" gradientUnits="userSpaceOnUse" x1="0" y1="-35.225" x2="0.7071" y2="-34.5179">
	<stop  offset="0" style="stop-color:#DEDFE3"/>
	<stop  offset="0.1738" style="stop-color:#D8D9DD"/>
	<stop  offset="0.352" style="stop-color:#C9CACD"/>
	<stop  offset="0.5323" style="stop-color:#B4B5B8"/>
	<stop  offset="0.7139" style="stop-color:#989A9C"/>
	<stop  offset="0.8949" style="stop-color:#797C7E"/>
	<stop  offset="1" style="stop-color:#656B6C"/>
</linearGradient>
<g>
	<g>
		<path d="M47,22.5h-1.1l0.3-0.7h3.2l-0.3,0.7H48l-1.2,3h-0.9L47,22.5z"/>
		<path d="M50.2,22.6l-0.5,1.1h1.2l0.5-1.1h0.7l-1.2,2.9h-0.7l0.5-1.2h-1.2L49,25.5h-0.7l1.2-2.9H50.2z"/>
		<path d="M54,24.3h-1.2L52.5,25h1.3l-0.2,0.5h-2.1l1.2-2.9h2l-0.2,0.5h-1.3L53,23.7h1.2L54,24.3z"/>
		<path d="M56.7,21.8h2.5L59,22.5h-1.6L57,23.3h1.5L58.2,24h-1.5l-0.6,1.5h-0.9L56.7,21.8z"/>
		<path d="M59.5,22.7c0.2,0,0.6-0.1,1-0.1c0.5,0,0.8,0.1,0.9,0.2c0.1,0.1,0.2,0.3,0,0.6c-0.2,0.4-0.6,0.6-0.9,0.7l0,0
			c0.2,0.1,0.2,0.3,0.2,0.5c0,0.3-0.1,0.7-0.1,0.8H60c0-0.1,0-0.3,0.1-0.7c0.1-0.4,0-0.5-0.3-0.5h-0.2L59,25.5h-0.7L59.5,22.7z
			 M59.7,23.9H60c0.4,0,0.6-0.2,0.8-0.4c0.1-0.3,0-0.4-0.4-0.4c-0.2,0-0.3,0-0.3,0L59.7,23.9z"/>
		<path d="M63.6,24.3h-1.2L62.1,25h1.3l-0.2,0.5h-2.1l1.2-2.9h2l-0.2,0.5h-1.3l-0.3,0.6h1.2L63.6,24.3z"/>
		<path d="M65.7,22.6l-1.2,2.9h-0.7l1.2-2.9H65.7z"/>
		<path d="M67.8,25.4c-0.3,0.1-0.7,0.2-1.1,0.2c-0.6,0-1-0.1-1.1-0.4c-0.2-0.3-0.2-0.6,0-1c0.4-1,1.4-1.5,2.5-1.5
			c0.4,0,0.7,0.1,0.8,0.1l-0.4,0.5c-0.1-0.1-0.3-0.1-0.7-0.1c-0.6,0-1.2,0.3-1.5,0.9c-0.3,0.6,0,0.9,0.6,0.9c0.2,0,0.3,0,0.4,0
			l0.3-0.6h-0.5l0.2-0.5h1.2L67.8,25.4z"/>
		<path d="M70.3,22.6l-0.5,1.1H71l0.5-1.1h0.7L71,25.5h-0.7l0.5-1.2h-1.2l-0.5,1.2h-0.7l1.3-2.9H70.3z"/>
		<path d="M73.3,23.2h-0.9l0.2-0.5h2.5l-0.2,0.5H74l-1,2.3h-0.7L73.3,23.2z"/>
		<path d="M78.4,23.9h-1.5l-0.4,0.9h1.7l-0.3,0.7h-2.6l1.7-3.7h2.6l-0.3,0.7h-1.6l-0.3,0.8h1.5L78.4,23.9z"/>
		<path d="M80.2,25.5L80.1,25c0-0.2,0-0.4,0-0.5h0c-0.1,0.2-0.3,0.3-0.5,0.5l-0.5,0.5h-0.8l1.6-1.5l-0.3-1.4h0.8l0,0.5
			c0,0.2,0,0.3,0,0.5h0c0.2-0.2,0.3-0.3,0.4-0.5l0.5-0.5h0.8L80.7,24l0.3,1.5H80.2z"/>
		<path d="M82.7,22.6c0.2,0,0.6-0.1,1-0.1c0.4,0,0.7,0.1,0.9,0.2c0.1,0.1,0.2,0.4,0,0.7c-0.1,0.3-0.3,0.5-0.6,0.7
			c-0.3,0.2-0.8,0.3-1.2,0.3c-0.1,0-0.2,0-0.2,0l-0.5,1h-0.7L82.7,22.6z M82.8,24c0.1,0,0.1,0,0.2,0c0.4,0,0.7-0.2,0.8-0.5
			c0.1-0.3,0-0.4-0.4-0.4c-0.1,0-0.2,0-0.3,0L82.8,24z"/>
		<path d="M85.5,22.7c0.3,0,0.6-0.1,1-0.1c0.5,0,0.8,0.1,0.9,0.2c0.1,0.1,0.1,0.3,0,0.6c-0.2,0.4-0.6,0.6-0.9,0.7l0,0
			c0.2,0.1,0.2,0.3,0.2,0.5c-0.1,0.3-0.1,0.7-0.1,0.8h-0.7c0-0.1,0-0.3,0.1-0.7c0.1-0.4,0-0.5-0.3-0.5h-0.2l-0.5,1.1h-0.7L85.5,22.7
			z M85.6,23.9h0.3c0.4,0,0.7-0.2,0.8-0.4c0.1-0.3,0-0.4-0.3-0.4c-0.2,0-0.3,0-0.3,0L85.6,23.9z"/>
		<path d="M89.5,24.3h-1.2L88,25h1.3l-0.3,0.5H87l1.3-2.9h2l-0.3,0.5h-1.3l-0.3,0.6h1.2L89.5,24.3z"/>
		<path d="M89.9,24.8c0.1,0.1,0.4,0.2,0.7,0.2c0.3,0,0.6-0.1,0.7-0.3c0.1-0.2,0-0.3-0.3-0.4c-0.5-0.2-0.7-0.4-0.5-0.9
			c0.2-0.5,0.9-0.9,1.6-0.9c0.4,0,0.6,0.1,0.8,0.1l-0.4,0.5c-0.1-0.1-0.3-0.1-0.6-0.1c-0.3,0-0.5,0.1-0.6,0.3
			c-0.1,0.2,0.1,0.3,0.4,0.4c0.5,0.2,0.6,0.5,0.4,0.9c-0.2,0.5-0.8,0.9-1.7,0.9c-0.4,0-0.7-0.1-0.8-0.2L89.9,24.8z"/>
		<path d="M92.5,24.8c0.1,0.1,0.4,0.2,0.7,0.2c0.3,0,0.6-0.1,0.7-0.3c0.1-0.2,0-0.3-0.3-0.4c-0.5-0.2-0.7-0.4-0.5-0.9
			c0.2-0.5,0.9-0.9,1.6-0.9c0.4,0,0.6,0.1,0.8,0.1L95,23.2c-0.1-0.1-0.3-0.1-0.6-0.1c-0.3,0-0.5,0.1-0.6,0.3
			c-0.1,0.2,0.1,0.3,0.4,0.4c0.5,0.2,0.6,0.5,0.4,0.9c-0.2,0.5-0.8,0.9-1.7,0.9c-0.4,0-0.7-0.1-0.8-0.2L92.5,24.8z"/>
	</g>
	<g>
		<path class="st0" d="M3.8,20.1H0L5.6,1.6h10.4l-0.8,3H8.6L7.2,8.9h6l-0.9,3.3l-5.9-0.1L3.8,20.1z"/>
		<path class="st0" d="M14.8,20.1h-3.6l4-13.8h3.4l-0.3,1.4C18.8,7.3,19.4,7,20,6.8c0.7-0.3,1.5-0.4,2.4-0.4h0.2l-0.9,3.3
			c0,0-1.1-0.1-1.8,0c-1.1,0.2-1.8,0.8-2.1,1.1c-0.3,0.3-0.5,0.8-0.7,1.3L14.8,20.1z"/>
		<path class="st0" d="M33.4,20.1h-3.5l4-13.6h3.5L33.4,20.1z"/>
		<path class="st0" d="M38.2,25.5c-0.5,0-1.3-0.1-1.8-0.2c-0.5-0.1-1-0.4-1.4-0.7c-0.4-0.3-0.7-0.7-0.8-1.3c-0.2-0.5-0.1-1.2,0-1.8
			l3.5,0.1c-0.1,0.1-0.2,1.1,0,1.3c0.5,0.6,1.3,0.4,1.7,0.1c0.4-0.2,0.4-0.3,0.7-0.6c0.2-0.3,0.4-0.8,0.5-1.2l0.6-2.1
			c-0.4,0.3-0.8,0.5-1.2,0.7c-0.5,0.2-1.2,0.4-1.8,0.4c-1.3,0-2.2-0.5-2.5-1.4c-0.1-0.3-0.3-0.7-0.3-1.2c0-0.4,0.2-1,0.4-1.8l1.4-5
			c0.3-1,0.7-2.1,0.9-2.5c0.4-0.9,1-1.6,2-2C40.7,6,41.3,6,42.1,6C42.5,6,43,6,43.3,6.2c0.3,0.1,0.5,0.3,0.7,0.4
			c0.2,0.1,0.4,0.4,0.5,0.6c0,0.1,0.1,0.2,0.1,0.2l0.3-1h3.7l-4.2,15.1c-0.1,0.5-0.3,0.9-0.7,1.4c-0.3,0.5-0.7,0.9-1.2,1.3
			c-0.5,0.4-1.4,0.7-2,1C39.8,25.4,39,25.5,38.2,25.5z M42.7,9.2c-0.5,0-0.8,0.1-1.1,0.4c-0.3,0.3-0.5,0.7-0.7,1.2l-1.4,4.9
			c-0.1,0.4-0.1,0.7,0,1c0.1,0.2,0.4,0.4,0.9,0.4c0.4,0,0.8-0.1,1.1-0.4c0.3-0.2,0.5-0.6,0.7-0.9l1.4-5.1c0.1-0.4,0.1-0.8-0.1-1.1
			C43.4,9.4,43.1,9.2,42.7,9.2z"/>
		<path class="st0" d="M56,20.1h-3.8l2.8-9.8c0.1-0.5,0.1-0.8,0-1.1c-0.1-0.2-0.4-0.4-0.8-0.4c-0.5,0-1,0.1-1.3,0.4
			c-0.3,0.3-0.5,0.7-0.7,1.3l-2.8,9.5l-3.6,0l6-20.1l3.5,0l-2,7.1c0.4-0.3,0.7-0.5,1.1-0.7C55,6.1,55.8,6,56.5,6
			c0.4,0,0.8,0.1,1.1,0.2c0.4,0.1,0.8,0.4,1,0.7c0.2,0.3,0.4,0.7,0.4,1.2c0.1,0.5,0,0.8-0.2,1.5L56,20.1z"/>
		<path class="st0" d="M63.6,20.1h-1.4c-0.7,0-1.6-0.1-2-0.3c-0.4-0.2-0.8-0.5-1-0.8c-0.2-0.3-0.3-0.7-0.4-1.1c0-0.4,0-0.8,0.1-1.1
			l2.4-8.2h-1.8l0.7-2.3H62L62.6,4l4.1-1.7l-1.2,4.1h1.8l-0.6,2.3h-1.8l-2.1,7.6c-0.1,0.3-0.2,0.8-0.1,0.9c0,0.1,0,0.3,0.2,0.4
			c0.1,0.1,0.3,0.1,0.5,0.1c0.2,0,0.5,0,0.8,0h0.2L63.6,20.1z"/>
		<g>
			<path class="st0" d="M31.1,7.2c-0.3-0.4-0.7-0.7-1.4-0.9c-0.5-0.2-1-0.3-1.8-0.3c-1-0.1-2,0.3-2.8,0.7c-0.8,0.4-1.4,0.9-2,1.5
				c-0.3,0.4-0.6,0.8-0.8,1.3c-0.2,0.5-0.4,1-0.6,1.6l-1.3,4.5c-0.2,0.6-0.2,1.1-0.3,1.5c0,0.6,0,1,0.1,1.3c0.2,0.6,0.7,1,1.3,1.4
				c0.6,0.4,1.4,0.6,2.4,0.6c0.7,0,1.8-0.1,2.4-0.3c0.6-0.2,1.2-0.5,1.7-0.9c1-0.8,1.4-1.8,1.7-3l0.2-0.7h-3.4l-0.2,0.6
				c-0.1,0.3-0.3,0.6-0.6,0.9c-0.2,0.3-0.6,0.4-1.1,0.4c-0.4,0-0.7-0.1-0.9-0.3c-0.2-0.2-0.2-0.5-0.1-0.8l0.7-2.3h6l1.1-3.3
				C31.8,9.1,31.8,8.1,31.1,7.2z M28.4,9.4l-0.7,2.1h-2.6l0.5-1.8c0.1-0.5,0.4-0.8,0.7-1.1c0.3-0.2,0.7-0.4,1.1-0.4
				c0.4,0,0.7,0.2,0.9,0.3C28.4,8.8,28.5,9.1,28.4,9.4z"/>
		</g>
		<polygon class="st0" points="38.4,3 34.9,3 35.8,0 39.3,0 		"/>
	</g>
	<g>
		<path d="M76.1,20.1h-9.9l4.4-15.6h9.7l-0.7,2.9h-6.4l-0.9,3h6.9l0.4-1.2l2.3,3.1l-4,2.9l0.3-1.4h-6.8l-0.7,3h6.2L76.1,20.1z"/>
		<polygon points="76.1,20.1 96,4.5 80.4,4.5 91.8,20.1 		"/>
	</g>
</g>
</svg>
