<?xml version="1.0" encoding="utf-8"?>
<!-- Generator: Adobe Illustrator 22.1.0, SVG Export Plug-In . SVG Version: 6.00 Build 0)  -->
<svg version="1.1" id="Layer_1" xmlns="http://www.w3.org/2000/svg" xmlns:xlink="http://www.w3.org/1999/xlink" x="0px" y="0px"
	 viewBox="0 0 96 29" style="enable-background:new 0 0 96 29;" xml:space="preserve">
<style type="text/css">
	.Drop_x0020_Shadow{fill:none;}
	.Round_x0020_Corners_x0020_2_x0020_pt{fill:#FFFFFF;stroke:#000000;stroke-miterlimit:10;}
	.Live_x0020_Reflect_x0020_X{fill:none;}
	.Bevel_x0020_Soft{fill:url(#SVGID_1_);}
	.Dusk{fill:#FFFFFF;}
	.Foliage_GS{fill:#FFDD00;}
	.Pompadour_GS{fill-rule:evenodd;clip-rule:evenodd;fill:#44ADE2;}
	.st0{fill:#32B888;}
	.st1{fill:#083050;}
</style>
<linearGradient id="SVGID_1_" gradientUnits="userSpaceOnUse" x1="0" y1="-33.5" x2="0.7071" y2="-32.7929">
	<stop  offset="0" style="stop-color:#DEDFE3"/>
	<stop  offset="0.1738" style="stop-color:#D8D9DD"/>
	<stop  offset="0.352" style="stop-color:#C9CACD"/>
	<stop  offset="0.5323" style="stop-color:#B4B5B8"/>
	<stop  offset="0.7139" style="stop-color:#989A9C"/>
	<stop  offset="0.8949" style="stop-color:#797C7E"/>
	<stop  offset="1" style="stop-color:#656B6C"/>
</linearGradient>
<g>
	<path class="st0" d="M82.9,15.8c-1.3,0-1.8-0.1-3.1,0c-1.3,0.1-2.7,0.1-2.9,2.1l0,0.1c2.4,0,3.7,0,5.9,0c0,0.9,0,1.6,0,2.4
		c-2.2,0-3.6,0-5.9,0c0.1,2,1.5,2,2.8,2.1c1.2,0.1,1.7,0,3.1,0c0,0.8,0,1.4,0,2.5c-2.4,0-3.4,0.1-5.5-0.3c-2.6-0.5-4-3.2-3.7-6.2
		c0.3-2.8,2.1-4.9,4.9-4.9c2.1,0,2.5,0,4.3,0L82.9,15.8z"/>
	<g>
		<g>
			<g>
				<g>
					<path class="st1" d="M3.1,24.9c-1.2,0-2.1,0-3.1,0c0-3.6,0.1-7.1,0.1-10.5c0-3.3,2.3-4.8,5.7-5c2.1-0.1,4.2,0,6.4,0
						c0,0.9,0,1.7,0,2.9c-2.2,0-4.4-0.1-6.5,0c-2.2,0.2-2.4,0.9-2.4,3.4c2.9,0,5.9,0,9,0c0,0.9,0,1.7,0,2.6c-2.9,0-5.9,0-9.1,0
						C3.1,20.7,3.1,22.7,3.1,24.9z"/>
					<path class="st1" d="M56.1,8.2c0,1.7,0,3.6,0,5.3c1.3,0,2.4,0,3.6,0c3,0.1,4.3,1.4,4.3,4.4c0,2.3,0,4.6,0,7c-1,0-1.9,0-3.1,0
						c0-2,0-4,0-6c0-2.6-0.2-2.8-2.8-2.8c-0.6,0-1.2,0-2,0c0,3,0,5.9,0,8.9c-1.1,0-1.9,0-2.9,0c0-1.1,0-2.1,0-3.2
						c0-2.5-0.1-8.1-0.1-10.6L56.1,8.2z"/>
					<path class="st1" d="M67.4,9.5c0.8,0,1.5,0,2.4,0c0,1.3,0,9.7,0,11.2c0.1,1.9,1,2,3.1,2c0,0.7,0,1.4,0,2.3c-1,0-2.1,0-3.1,0
						c-1.7,0-2.4-1.1-2.4-3.1C67.5,19.9,67.4,10.9,67.4,9.5z"/>
					<path class="st1" d="M19.5,18.4c0-2.5,0.3-2.3-3.3-2.3c0,2.8,0,5.7,0,8.7c-1.1,0-2,0-3,0c0-3.7,0-7.2,0-11.3c2.3,0,2.3,0,5.9,0
						c3.2,0,3,1.9,3,4.9C21.3,18.4,20.4,18.4,19.5,18.4z"/>
					<path class="st1" d="M34.9,13.5c1,0,1.9,0,2.8,0c0,3.8,0,7.5,0,11.4c-0.9,0-1.8,0-2.8,0C34.9,21.2,34.9,17.4,34.9,13.5z"/>
					<path class="st1" d="M37.8,12.1c-1,0-1.9,0-2.9,0c0-0.9,0-1.6,0-2.5c0.9,0,1.8,0,2.9,0C37.8,10.3,37.8,11.1,37.8,12.1z"/>
					<g>
						<path class="st1" d="M44.2,13.6c-3.3,0.4-4.9,2.9-4.6,6.7c0.3,2.9,2.3,4.7,5.5,4.7c0.8,0,1.7,0,2.5,0c0.3,1.5-0.5,1.7-1.5,1.7
							c-1.8,0-3.6,0-5.5,0c0,0.9,0,1.6,0,2.3c2.6,0,5.1-0.1,7.6-0.1c1.4,0,2.3-1.5,2.3-2.4c0-4.4,0.1-8.5,0.1-12.9
							C48.6,13.5,46.4,13.3,44.2,13.6z M47.7,16.1c0,2.2,0,4.2,0,6.4c0,0.1,0,0.2,0,0.2c-1.7,0.1-3.5,0.5-4.5-1
							c-0.9-1.4-0.9-3-0.4-4.4c0.9-1.8,2.9-1.5,4.8-1.5C47.7,16,47.7,16,47.7,16.1z"/>
						<path class="st1" d="M42.9,17.4c-0.6,1.4-0.6,3,0.4,4.4c1,1.5,2.8,1.1,4.5,1c0-0.1,0-0.2,0-0.2c-1.6,0.2-3.2,0.5-4.4-0.8
							c-1.1-1.2-1.1-2.8-0.3-4.3c1-2,2.9-1.1,4.7-1.3c0-0.1,0-0.1,0-0.2C45.8,15.9,43.8,15.5,42.9,17.4z"/>
					</g>
				</g>
				<path class="st1" d="M33,15.8c-1.3,0-2.6-0.1-3.8,0c-1.3,0.1-2.7,0.1-2.9,2.1l0,0.1c2.4,0,4.4,0,6.7,0c0,0.9,0,1.6,0,2.4
					c-2.2,0-4.4,0-6.6,0c0.1,2,1.5,2,2.8,2.1c1.2,0.1,2.5,0,3.8,0c0,0.8,0,1.4,0,2.5c-2.4,0-4.2,0.1-6.3-0.3c-2.6-0.5-4-3.2-3.7-6.2
					c0.3-2.8,2.1-4.9,4.9-4.9c2.1,0,3.3,0,5,0L33,15.8z"/>
			</g>
			<rect x="65.1" y="13.4" class="st1" width="7.8" height="2.6"/>
		</g>
	</g>
	<g>
		<polygon class="st0" points="88.4,19.2 84.4,24.9 87.8,24.9 90.1,21.7 92.4,24.9 95.9,24.9 91.8,19.2 96,13.4 92.6,13.4 
			90.1,16.8 87.6,13.4 84.2,13.4 		"/>
	</g>
	<path class="st0" d="M94.2-0.1c0,0-5.3,4.9-16,1.9S60,5.7,58.5,6.7c0,0,7.4-6.1,16.4-3.2S89.2,4.1,94.2-0.1z"/>
	<path class="st1" d="M88.4,4.1c0,0-5.4,3.3-12,1.1S69,2.8,62.1,5.6c0,0,4.9-1.5,8.1-0.3C73.6,6.5,79.8,10.7,88.4,4.1z"/>
</g>
</svg>
