<?xml version="1.0" encoding="utf-8"?>
<!-- Generator: Adobe Illustrator 22.1.0, SVG Export Plug-In . SVG Version: 6.00 Build 0)  -->
<svg version="1.1" id="Layer_1" xmlns="http://www.w3.org/2000/svg" xmlns:xlink="http://www.w3.org/1999/xlink" x="0px" y="0px"
	 viewBox="0 0 70.8 96" style="enable-background:new 0 0 70.8 96;" xml:space="preserve">
<style type="text/css">
	.Drop_x0020_Shadow{fill:none;}
	.Round_x0020_Corners_x0020_2_x0020_pt{fill:#FFFFFF;stroke:#000000;stroke-miterlimit:10;}
	.Live_x0020_Reflect_x0020_X{fill:none;}
	.Bevel_x0020_Soft{fill:url(#SVGID_1_);}
	.Dusk{fill:#FFFFFF;}
	.Foliage_GS{fill:#FFDD00;}
	.Pompadour_GS{fill-rule:evenodd;clip-rule:evenodd;fill:#44ADE2;}
	.st0{fill:#2E3192;}
	.st1{fill:#FFFFFF;}
</style>
<linearGradient id="SVGID_1_" gradientUnits="userSpaceOnUse" x1="-12.6" y1="0" x2="-11.8929" y2="0.7071">
	<stop  offset="0" style="stop-color:#DEDFE3"/>
	<stop  offset="0.1738" style="stop-color:#D8D9DD"/>
	<stop  offset="0.352" style="stop-color:#C9CACD"/>
	<stop  offset="0.5323" style="stop-color:#B4B5B8"/>
	<stop  offset="0.7139" style="stop-color:#989A9C"/>
	<stop  offset="0.8949" style="stop-color:#797C7E"/>
	<stop  offset="1" style="stop-color:#656B6C"/>
</linearGradient>
<g>
	<g>
		<g>
			<g>
				<path class="st0" d="M21.7,90.6h-3.5V90c0-0.2,0-0.4,0.1-0.5c0.1-0.1,0.2-0.3,0.2-0.3c0.1-0.1,0.2-0.1,0.4-0.2c0,0,0.1,0,0.1,0
					c0,0,0.1,0,0.2,0c0.1,0,0.1,0,0.2,0c0,0,0.1,0,0.1,0c0,0,0.1,0,0.2-0.1c0.1,0,0.2-0.1,0.2-0.2V90h1.7V90.6z M18.9,87.9
					c0.1,0,0.2,0,0.2,0.1c0.1,0.1,0.1,0.1,0.1,0.2c0,0.1,0,0.2-0.1,0.2c-0.1,0.1-0.1,0.1-0.2,0.1c-0.1,0-0.2,0-0.2-0.1
					c-0.1-0.1-0.1-0.1-0.1-0.2c0-0.1,0-0.1,0.1-0.2C18.7,87.9,18.8,87.9,18.9,87.9z M19.5,90v-0.5l-0.2,0c-0.2,0-0.3,0.1-0.4,0.2
					c-0.1,0.1-0.1,0.2-0.1,0.3H19.5z M19.7,87.9c0.1,0,0.2,0,0.2,0.1C20,88,20,88.1,20,88.2c0,0.1,0,0.2-0.1,0.2
					c-0.1,0.1-0.1,0.1-0.2,0.1c-0.1,0-0.2,0-0.2-0.1c-0.1-0.1-0.1-0.1-0.1-0.2c0-0.1,0-0.1,0.1-0.2C19.5,87.9,19.6,87.9,19.7,87.9z"
					/>
				<path class="st0" d="M23.8,90h0.4v0.6h-3l0.4-0.6h1.6v-0.4c0-0.2,0.1-0.3,0.2-0.4l0.3-0.2V90z M22,91.1c0.1,0,0.2,0,0.2,0.1
					c0.1,0.1,0.1,0.1,0.1,0.2c0,0.1,0,0.2-0.1,0.2c-0.1,0.1-0.1,0.1-0.2,0.1c-0.1,0-0.2,0-0.2-0.1c-0.1-0.1-0.1-0.1-0.1-0.2
					c0-0.1,0-0.2,0.1-0.2C21.8,91.1,21.9,91.1,22,91.1z M22.9,91.1c0.1,0,0.2,0,0.2,0.1c0.1,0.1,0.1,0.1,0.1,0.2
					c0,0.1,0,0.2-0.1,0.2c-0.1,0.1-0.1,0.1-0.2,0.1c-0.1,0-0.2,0-0.2-0.1c-0.1-0.1-0.1-0.1-0.1-0.2c0-0.1,0-0.2,0.1-0.2
					C22.7,91.1,22.8,91.1,22.9,91.1z"/>
				<path class="st0" d="M23.5,90.6l0.4-0.6h0.8v-2.3c0-0.1,0-0.2,0-0.2c0-0.1,0.1-0.1,0.1-0.1l0.4-0.2v3.2c0,0.1,0,0.1-0.1,0.2
					c-0.1,0-0.1,0.1-0.2,0.1H23.5z"/>
				<path class="st0" d="M26.4,91.1h1v-0.4h-1v-0.5c0-0.2,0-0.4,0.1-0.6c0.1-0.2,0.2-0.3,0.4-0.4c0.1,0,0.1-0.1,0.2-0.1
					c0.1,0,0.1,0,0.2,0c0.1,0,0.1,0,0.2,0c0.1,0,0.1,0,0.2,0l0.3-0.2v2.3c0,0.2-0.1,0.3-0.2,0.5c-0.2,0.1-0.3,0.2-0.5,0.2
					c-0.2,0-0.4-0.1-0.5-0.2C26.4,91.4,26.4,91.3,26.4,91.1z M27.4,90v-0.5c0,0-0.1,0-0.2,0c-0.1,0-0.1,0.1-0.2,0.1
					c0,0.1-0.1,0.1-0.1,0.3c0,0,0,0,0,0.1H27.4z"/>
				<path class="st0" d="M30.9,90h0.4v0.6h-2.5V90h1.6v-0.3c0-0.1,0-0.1-0.1-0.1c0,0-0.1,0-0.2,0H29v-0.8c0,0,0.1,0.1,0.1,0.1
					c0.1,0.1,0.2,0.1,0.3,0.1h0.9c0.1,0,0.3,0,0.4,0.1c0.1,0.1,0.2,0.2,0.2,0.4V90z"/>
				<path class="st0" d="M30.5,90.6l0.4-0.6h0.8v-2.3c0-0.1,0-0.2,0-0.2c0-0.1,0.1-0.1,0.1-0.1l0.4-0.2v3.2c0,0.1,0,0.1-0.1,0.2
					c-0.1,0-0.1,0.1-0.2,0.1H30.5z"/>
				<path class="st0" d="M33,90.6v-2.9c0-0.2,0.1-0.3,0.2-0.4l0.3-0.2v3.4H33z"/>
				<path class="st0" d="M35.8,90.6V90c0-0.2,0-0.4,0.1-0.5c0.1-0.1,0.2-0.3,0.2-0.3c0.1-0.1,0.2-0.1,0.4-0.2c0,0,0.1,0,0.1,0
					c0,0,0.1,0,0.2,0c0.1,0,0.1,0,0.2,0s0.1,0,0.1,0c0,0,0.1,0,0.2-0.1c0.1,0,0.2-0.1,0.2-0.2v1.5c0,0.1,0,0.2,0,0.3
					c0,0.1-0.1,0.1-0.2,0.1H35.8z M36.3,87.9c0.1,0,0.2,0,0.2,0.1c0.1,0.1,0.1,0.1,0.1,0.2c0,0.1,0,0.2-0.1,0.2
					c-0.1,0.1-0.1,0.1-0.2,0.1c-0.1,0-0.2,0-0.2-0.1C36,88.4,36,88.3,36,88.2c0-0.1,0-0.1,0.1-0.2C36.2,87.9,36.2,87.9,36.3,87.9z
					 M37,90v-0.5l-0.2,0c-0.2,0-0.3,0.1-0.4,0.2c-0.1,0.1-0.1,0.2-0.1,0.3H37z M37.2,87.9c0.1,0,0.2,0,0.2,0.1
					c0.1,0.1,0.1,0.1,0.1,0.2c0,0.1,0,0.2-0.1,0.2c-0.1,0.1-0.1,0.1-0.2,0.1c-0.1,0-0.2,0-0.2-0.1c-0.1-0.1-0.1-0.1-0.1-0.2
					c0-0.1,0-0.1,0.1-0.2C37,87.9,37.1,87.9,37.2,87.9z"/>
				<path class="st0" d="M37.1,90.6l0.1-0.6h3.2l-0.1-0.2c-0.1,0-0.1-0.1-0.2-0.3c-0.1-0.2-0.2-0.3-0.3-0.3c0,0-0.1,0-0.2,0.1
					c0,0,0,0-0.1,0.1V89c0,0,0.1-0.1,0.1-0.1c0.1-0.1,0.2-0.1,0.2-0.1c0.1,0,0.3,0.1,0.4,0.2c0.1,0.1,0.1,0.2,0.2,0.4
					c0.1,0.1,0.1,0.3,0.2,0.3c0.1,0.1,0.2,0.2,0.2,0.3c0.1,0,0.1,0.1,0.2,0.2c0,0,0,0,0.1,0v0.3c0,0.1,0,0.1-0.1,0.2
					c-0.1,0.1-0.1,0.1-0.2,0.1H37.1z"/>
				<path class="st0" d="M42.7,90h0.5v0.6c0,0.1,0,0.2,0.1,0.3c0.1,0.1,0.1,0.1,0.3,0.1c0.1,0,0.2,0,0.2-0.1
					c0.1-0.1,0.1-0.2,0.1-0.3v-2.8c0-0.1,0-0.2,0.1-0.2c0-0.1,0.1-0.1,0.2-0.2l0.3-0.2v3.6c0,0.2-0.1,0.4-0.3,0.6
					c-0.2,0.2-0.4,0.3-0.6,0.3s-0.5-0.1-0.6-0.3c-0.2-0.2-0.3-0.4-0.3-0.6V90z M42.7,89.7v-2.5l0.3,0.3c0.1,0.1,0.1,0.1,0.1,0.1
					c0.1,0.1,0.1,0.2,0.1,0.3v1.8H42.7z"/>
				<path class="st0" d="M46.9,89.7c0,0,0.1,0,0.1-0.1c0.1,0,0.1-0.1,0.1-0.1c0,0,0.1-0.1,0.1-0.1c0,0,0-0.1,0.1-0.1
					c0,0,0,0.1,0.1,0.1c0,0,0,0.1,0.1,0.1c0.1,0.1,0.1,0.1,0.2,0.1c0.2,0.1,0.3,0.2,0.4,0.4h1l-0.3,0.6H48c-0.1,0.1-0.2,0.3-0.3,0.3
					c-0.1,0.1-0.3,0.1-0.5,0.1c-0.2,0-0.3,0-0.4-0.1c-0.1-0.1-0.2-0.2-0.3-0.3h-2.3L44.2,90h2.4C46.6,89.9,46.7,89.8,46.9,89.7z
					 M47.5,90.3c0-0.1,0-0.1-0.1-0.2c-0.1-0.1-0.1-0.1-0.2-0.1c-0.1,0-0.1,0-0.2,0.1c-0.1,0-0.1,0.1-0.1,0.2c0,0.1,0,0.1,0.1,0.2
					c0.1,0.1,0.1,0.1,0.2,0.1c0.1,0,0.1,0,0.2-0.1C47.5,90.5,47.5,90.4,47.5,90.3z"/>
				<path class="st0" d="M50.4,90.2c0-0.1,0-2.5,0-2.5c0,0,0.1-0.1,0.2-0.2l0.3-0.3V90h0.7v0.6h-0.7"/>
				<path class="st0" d="M48.5,90.6l0.4-0.6H52v-2.3c0-0.1,0-0.2,0-0.2c0-0.1,0.1-0.1,0.1-0.1l0.4-0.2v3.2c0,0.1,0,0.1-0.1,0.2
					c-0.1,0-0.1,0.1-0.2,0.1H48.5z"/>
				<path class="st0" d="M56.4,90h0.7v0.6h-0.7v0.4c0,0.2-0.1,0.3-0.2,0.5c-0.2,0.1-0.3,0.2-0.5,0.2c-0.2,0-0.4-0.1-0.5-0.2
					c-0.2-0.1-0.2-0.3-0.2-0.5h1v-0.4h-1v-0.5c0-0.2,0-0.4,0.1-0.6c0.1-0.2,0.2-0.3,0.4-0.4c0.1,0,0.1-0.1,0.2-0.1
					c0.1,0,0.1,0,0.2,0c0.1,0,0.1,0,0.2,0c0.1,0,0.1,0,0.2,0l0.3-0.2V90z M55.9,90v-0.5c0,0-0.1,0-0.2,0c-0.1,0-0.1,0.1-0.2,0.1
					c0,0.1-0.1,0.1-0.1,0.3c0,0,0,0,0,0.1H55.9z"/>
				<path class="st0" d="M60.2,89h1.3c0.2,0,0.3,0,0.4,0.1c0.1,0.1,0.2,0.2,0.2,0.4v0.9c0,0.1,0,0.1-0.1,0.2
					c-0.1,0.1-0.1,0.1-0.2,0.1h-5.1L56.6,90h4.9v-0.3c0-0.1,0-0.1-0.1-0.2c-0.1,0-0.1-0.1-0.2-0.1h-2.5c0,0,0,0,0,0
					c0-0.1,0-0.1,0-0.2c0-0.1,0-0.1,0-0.1c0,0,0.1-0.1,0.1-0.1l2.8-1.3L61.6,88l-1.3,0.7c-0.1,0-0.1,0.1-0.2,0.1
					c-0.1,0-0.1,0.1-0.1,0.1c0,0,0,0,0,0.1C60.1,88.9,60.1,88.9,60.2,89C60.2,89,60.2,89,60.2,89z"/>
				<path class="st0" d="M64.6,90H65v0.6h-2.5V90h1.6v-0.3c0-0.1,0-0.1-0.1-0.1c0,0-0.1,0-0.2,0h-1.1v-0.8c0,0,0.1,0.1,0.1,0.1
					C63,89,63.1,89,63.2,89h0.9c0.1,0,0.3,0,0.4,0.1c0.1,0.1,0.2,0.2,0.2,0.4V90z"/>
				<path class="st0" d="M64.2,90.6l0.4-0.6h1.6v-0.4c0-0.2,0.1-0.3,0.2-0.4l0.3-0.2v1.3c0,0.1,0,0.1-0.1,0.2
					c-0.1,0-0.1,0.1-0.2,0.1H64.2z M65.5,91.1c0.1,0,0.2,0,0.2,0.1c0.1,0.1,0.1,0.1,0.1,0.2c0,0.1,0,0.2-0.1,0.2
					c-0.1,0.1-0.1,0.1-0.2,0.1c-0.1,0-0.2,0-0.2-0.1c-0.1-0.1-0.1-0.1-0.1-0.2c0-0.1,0-0.2,0.1-0.2C65.3,91.1,65.4,91.1,65.5,91.1z
					 M66.4,91.1c0.1,0,0.2,0,0.2,0.1c0.1,0.1,0.1,0.1,0.1,0.2c0,0.1,0,0.2-0.1,0.2c-0.1,0.1-0.1,0.1-0.2,0.1c-0.1,0-0.2,0-0.2-0.1
					c-0.1-0.1-0.1-0.1-0.1-0.2c0-0.1,0-0.2,0.1-0.2C66.2,91.1,66.3,91.1,66.4,91.1z"/>
				<path class="st0" d="M69,88.4l0.3-0.3v0.8c0.3,0,0.5,0.1,0.7,0.3c0.1,0.2,0.2,0.4,0.2,0.7v0.4c0,0.1,0,0.1-0.1,0.2
					c-0.1,0-0.1,0.1-0.2,0.1h-3.6l0.3-0.6h1.3c0-0.2,0.1-0.4,0.3-0.7c0.2-0.2,0.4-0.4,0.6-0.4v-0.2c0-0.1,0-0.1,0.1-0.2
					C68.8,88.5,68.9,88.4,69,88.4z M68.8,90v-0.5c-0.1,0-0.2,0.1-0.2,0.2c-0.1,0.1-0.1,0.2-0.1,0.3H68.8z M69.3,90h0.3
					c0-0.2,0-0.3-0.1-0.4c0-0.1-0.1-0.1-0.3-0.1V90z"/>
			</g>
			<g>
				<path class="st0" d="M2.7,90.6v0.8H2.4c-0.1,0-0.1,0-0.1-0.1c0-0.1,0-0.1,0-0.2v-0.6c0-0.1,0-0.2,0.1-0.3
					c0.1-0.1,0.2-0.1,0.4-0.1H3C3,90.1,3,90,3,90c0,0,0-0.1,0.1-0.2c0.1-0.1,0.1-0.2,0.2-0.2c0.1-0.1,0.2-0.1,0.3-0.1
					c0,0,0.1,0,0.1,0c0,0,0.1,0,0.1,0c0.1,0,0.1,0,0.1,0c0,0,0.1,0,0.1,0c0,0,0.1,0,0.1-0.1c0.1,0,0.1-0.1,0.2-0.1v1.1
					c0,0.1,0,0.1,0,0.2c0,0.1-0.1,0.1-0.1,0.1H2.7z M3.9,90.1v-0.4l-0.1,0c-0.1,0-0.2,0-0.3,0.1C3.4,90,3.4,90,3.4,90.1H3.9z"/>
				<path class="st0" d="M5.3,90c0.1,0,0.2,0,0.2,0.1c0.1,0.1,0.1,0.1,0.1,0.2c0,0.1,0,0.1-0.1,0.2c-0.1,0.1-0.1,0.1-0.2,0.1
					c-0.1,0-0.2,0-0.2-0.1C5,90.5,5,90.4,5,90.3c0-0.1,0-0.1,0.1-0.2C5.2,90.1,5.2,90,5.3,90z"/>
				<path class="st0" d="M6.5,90.6v0.8H6.2c-0.1,0-0.1,0-0.1-0.1c0-0.1,0-0.1,0-0.2v-0.6c0-0.1,0-0.2,0.1-0.3
					c0.1-0.1,0.2-0.1,0.4-0.1h0.2c0-0.1,0-0.1,0-0.1c0,0,0-0.1,0.1-0.2C6.9,89.7,7,89.6,7,89.6c0.1-0.1,0.2-0.1,0.3-0.1
					c0,0,0.1,0,0.1,0c0,0,0.1,0,0.1,0c0.1,0,0.1,0,0.1,0c0,0,0.1,0,0.1,0c0,0,0.1,0,0.1-0.1c0.1,0,0.1-0.1,0.2-0.1v1.1
					c0,0.1,0,0.1,0,0.2c0,0.1-0.1,0.1-0.1,0.1H6.5z M7.7,90.1v-0.4l-0.1,0c-0.1,0-0.2,0-0.3,0.1C7.2,90,7.2,90,7.2,90.1H7.7z"/>
				<path class="st0" d="M9.1,90c0.1,0,0.2,0,0.2,0.1c0.1,0.1,0.1,0.1,0.1,0.2c0,0.1,0,0.1-0.1,0.2c-0.1,0.1-0.1,0.1-0.2,0.1
					c-0.1,0-0.2,0-0.2-0.1c-0.1-0.1-0.1-0.1-0.1-0.2c0-0.1,0-0.1,0.1-0.2C8.9,90.1,9,90,9.1,90z"/>
				<path class="st0" d="M11.3,90.6H9.8v-0.5h1.3v-0.2c0,0,0-0.1-0.1-0.1c0,0-0.1,0-0.1,0h-0.8v-0.6c0,0,0,0.1,0.1,0.1
					c0.1,0.1,0.2,0.1,0.2,0.1h0.7c0.1,0,0.2,0,0.3,0.1s0.1,0.2,0.1,0.3v0.7c0,0.1,0,0.1-0.1,0.1C11.4,90.5,11.4,90.6,11.3,90.6z
					 M10.6,87.5c0.1,0,0.1,0,0.2,0.1c0,0,0.1,0.1,0.1,0.2c0,0.1,0,0.1-0.1,0.2c0,0-0.1,0.1-0.2,0.1c-0.1,0-0.1,0-0.2-0.1
					c0,0-0.1-0.1-0.1-0.2c0-0.1,0-0.1,0.1-0.2C10.5,87.5,10.6,87.5,10.6,87.5z"/>
				<path class="st0" d="M12.8,90c0.1,0,0.2,0,0.2,0.1c0.1,0.1,0.1,0.1,0.1,0.2c0,0.1,0,0.1-0.1,0.2c-0.1,0.1-0.1,0.1-0.2,0.1
					c-0.1,0-0.2,0-0.2-0.1c-0.1-0.1-0.1-0.1-0.1-0.2c0-0.1,0-0.1,0.1-0.2C12.6,90.1,12.7,90,12.8,90z"/>
				<path class="st0" d="M15.2,90.6c0,0.2-0.1,0.4-0.3,0.5c-0.1,0.1-0.2,0.1-0.3,0.2c-0.1,0-0.2,0.1-0.3,0.1c-0.1,0-0.2,0-0.3,0
					c-0.1,0-0.2-0.1-0.3-0.2c-0.1-0.1-0.1-0.1-0.2-0.2c0-0.1-0.1-0.2-0.1-0.2c0-0.1,0-0.2,0.1-0.3c0-0.1,0.1-0.1,0.2-0.2
					c0,0,0,0,0,0c0,0,0,0,0,0l0.1,0.4c0,0.1,0.1,0.2,0.1,0.2c0,0,0.1,0.1,0.1,0.1c0,0,0.1,0,0.2,0c0.1,0,0.2,0,0.3-0.1
					c0.1-0.1,0.1-0.1,0.1-0.2v-0.5c0-0.1,0.1-0.2,0.2-0.3l0.3-0.1v0.4h0.3v-0.3c0-0.1,0-0.1,0.1-0.1l0.3-0.2v0.6h0.3v-0.4
					c0,0,0-0.1,0-0.1c0,0,0,0,0.1-0.1l0.3-0.2v1c0,0.1,0,0.1-0.1,0.1c0,0-0.1,0-0.2,0H15.2z M15.2,88.1c0.1,0,0.1,0,0.2,0.1
					c0,0,0.1,0.1,0.1,0.2s0,0.1-0.1,0.2c0,0-0.1,0.1-0.2,0.1s-0.1,0-0.2-0.1c0,0-0.1-0.1-0.1-0.2c0-0.1,0-0.1,0.1-0.2
					C15.1,88.1,15.1,88.1,15.2,88.1z M15.6,87.7c0.1,0,0.1,0,0.2,0.1c0,0,0.1,0.1,0.1,0.2c0,0.1,0,0.1-0.1,0.2c0,0-0.1,0.1-0.2,0.1
					c-0.1,0-0.1,0-0.2-0.1c0,0-0.1-0.1-0.1-0.2c0-0.1,0-0.1,0.1-0.2C15.5,87.7,15.5,87.7,15.6,87.7z M16,88.1c0.1,0,0.1,0,0.2,0.1
					c0,0,0.1,0.1,0.1,0.2s0,0.1-0.1,0.2c0,0-0.1,0.1-0.2,0.1c-0.1,0-0.1,0-0.2-0.1c0,0-0.1-0.1-0.1-0.2s0-0.1,0.1-0.2
					C15.9,88.1,16,88.1,16,88.1z"/>
			</g>
		</g>
		<g>
			<path class="st0" d="M1.8,93.5h0.5v0.9h1v-0.9h0.5v2.4H3.3v-1h-1v1H1.8V93.5z"/>
			<path class="st0" d="M4.4,93.5h1.6V94H5v0.4h1V95H5v0.5h1.2v0.5H4.4V93.5z"/>
			<path class="st0" d="M6.6,93.5h0.8c0.2,0,0.4,0,0.5,0.1c0.2,0,0.3,0.1,0.5,0.2c0.1,0.1,0.2,0.2,0.3,0.4c0.1,0.2,0.1,0.3,0.1,0.6
				c0,0.2,0,0.4-0.1,0.5c-0.1,0.1-0.2,0.3-0.3,0.4c-0.1,0.1-0.3,0.2-0.4,0.2c-0.2,0.1-0.3,0.1-0.5,0.1H6.6V93.5z M7.1,95.4h0.3
				c0.1,0,0.2,0,0.3,0c0.1,0,0.2-0.1,0.3-0.1c0.1-0.1,0.1-0.1,0.2-0.2c0-0.1,0.1-0.2,0.1-0.3c0-0.1,0-0.2-0.1-0.3
				c0-0.1-0.1-0.2-0.2-0.2c-0.1-0.1-0.2-0.1-0.3-0.1c-0.1,0-0.2,0-0.3,0H7.1V95.4z"/>
			<path class="st0" d="M10.8,94.2c-0.1-0.1-0.1-0.1-0.2-0.1c-0.1,0-0.2-0.1-0.3-0.1c-0.1,0-0.2,0-0.3,0.1c-0.1,0-0.2,0.1-0.2,0.2
				c-0.1,0.1-0.1,0.2-0.1,0.2c0,0.1-0.1,0.2-0.1,0.3c0,0.1,0,0.2,0.1,0.3c0,0.1,0.1,0.2,0.1,0.2c0.1,0.1,0.1,0.1,0.2,0.2
				c0.1,0,0.2,0.1,0.3,0.1c0.1,0,0.2,0,0.3-0.1c0.1,0,0.2-0.1,0.2-0.2l0.4,0.3c-0.1,0.1-0.2,0.2-0.4,0.3C10.7,96,10.6,96,10.4,96
				c-0.2,0-0.4,0-0.5-0.1c-0.2-0.1-0.3-0.1-0.4-0.3c-0.1-0.1-0.2-0.2-0.3-0.4c-0.1-0.2-0.1-0.3-0.1-0.5c0-0.2,0-0.4,0.1-0.5
				c0.1-0.2,0.2-0.3,0.3-0.4c0.1-0.1,0.3-0.2,0.4-0.3c0.2-0.1,0.3-0.1,0.5-0.1c0.1,0,0.1,0,0.2,0c0.1,0,0.1,0,0.2,0.1
				c0.1,0,0.1,0.1,0.2,0.1c0.1,0,0.1,0.1,0.2,0.2L10.8,94.2z"/>
			<path class="st0" d="M11.5,94.7c0-0.2,0-0.4,0.1-0.5c0.1-0.2,0.2-0.3,0.3-0.4c0.1-0.1,0.3-0.2,0.4-0.3c0.2-0.1,0.3-0.1,0.5-0.1
				c0.2,0,0.4,0,0.5,0.1c0.2,0.1,0.3,0.1,0.4,0.3c0.1,0.1,0.2,0.2,0.3,0.4c0.1,0.2,0.1,0.3,0.1,0.5c0,0.2,0,0.4-0.1,0.5
				c-0.1,0.2-0.2,0.3-0.3,0.4c-0.1,0.1-0.3,0.2-0.4,0.3C13.1,96,13,96,12.8,96c-0.2,0-0.4,0-0.5-0.1c-0.2-0.1-0.3-0.1-0.4-0.3
				c-0.1-0.1-0.2-0.2-0.3-0.4C11.5,95.1,11.5,94.9,11.5,94.7z M12,94.7c0,0.1,0,0.2,0.1,0.3c0,0.1,0.1,0.2,0.2,0.2
				c0.1,0.1,0.1,0.1,0.2,0.2c0.1,0,0.2,0.1,0.3,0.1s0.2,0,0.3-0.1c0.1,0,0.2-0.1,0.2-0.2c0.1-0.1,0.1-0.1,0.2-0.2
				c0-0.1,0.1-0.2,0.1-0.3c0-0.1,0-0.2-0.1-0.3c0-0.1-0.1-0.2-0.2-0.2c-0.1-0.1-0.1-0.1-0.2-0.2C13,94,12.9,94,12.8,94
				s-0.2,0-0.3,0.1c-0.1,0-0.2,0.1-0.2,0.2c-0.1,0.1-0.1,0.2-0.2,0.2C12,94.5,12,94.6,12,94.7z"/>
			<path class="st0" d="M15.5,93.5h0.5v2.4h-0.5V93.5z"/>
			<path class="st0" d="M16.6,93.5h0.7l1,1.7h0v-1.7h0.5v2.4h-0.7l-1-1.7h0v1.7h-0.5V93.5z"/>
			<path class="st0" d="M19.9,94h-0.7v-0.5h1.9V94h-0.7v1.9h-0.5V94z"/>
			<path class="st0" d="M21.4,93.5h1.6V94H22v0.4h1V95h-1v0.5h1.2v0.5h-1.7V93.5z"/>
			<path class="st0" d="M23.6,93.5h0.9c0.1,0,0.2,0,0.3,0c0.1,0,0.2,0.1,0.3,0.1c0.1,0.1,0.1,0.1,0.2,0.2c0,0.1,0.1,0.2,0.1,0.4
				c0,0.2,0,0.3-0.1,0.4c-0.1,0.1-0.2,0.2-0.4,0.2l0.6,1h-0.6l-0.5-1h-0.3v1h-0.5V93.5z M24.1,94.5h0.3c0,0,0.1,0,0.2,0
				c0.1,0,0.1,0,0.1,0c0,0,0.1,0,0.1-0.1c0,0,0-0.1,0-0.2c0-0.1,0-0.1,0-0.1c0,0-0.1-0.1-0.1-0.1c0,0-0.1,0-0.1,0c0,0-0.1,0-0.1,0
				h-0.3V94.5z"/>
			<path class="st0" d="M25.9,93.5h0.7l1,1.7h0v-1.7h0.5v2.4h-0.7l-1-1.7h0v1.7h-0.5V93.5z"/>
			<path class="st0" d="M29.5,93.5h0.4l1,2.4h-0.6l-0.2-0.5h-0.9L29,95.9h-0.6L29.5,93.5z M29.7,94.2L29.4,95H30L29.7,94.2z"/>
			<path class="st0" d="M31.4,94h-0.7v-0.5h1.9V94h-0.7v1.9h-0.5V94z"/>
			<path class="st0" d="M32.9,93.5h0.5v2.4h-0.5V93.5z"/>
			<path class="st0" d="M33.9,94.7c0-0.2,0-0.4,0.1-0.5c0.1-0.2,0.2-0.3,0.3-0.4c0.1-0.1,0.3-0.2,0.4-0.3c0.2-0.1,0.3-0.1,0.5-0.1
				s0.4,0,0.5,0.1c0.2,0.1,0.3,0.1,0.4,0.3c0.1,0.1,0.2,0.2,0.3,0.4c0.1,0.2,0.1,0.3,0.1,0.5c0,0.2,0,0.4-0.1,0.5
				c-0.1,0.2-0.2,0.3-0.3,0.4c-0.1,0.1-0.3,0.2-0.4,0.3C35.5,96,35.4,96,35.2,96s-0.4,0-0.5-0.1c-0.2-0.1-0.3-0.1-0.4-0.3
				c-0.1-0.1-0.2-0.2-0.3-0.4C33.9,95.1,33.9,94.9,33.9,94.7z M34.4,94.7c0,0.1,0,0.2,0.1,0.3s0.1,0.2,0.2,0.2
				c0.1,0.1,0.1,0.1,0.2,0.2c0.1,0,0.2,0.1,0.3,0.1s0.2,0,0.3-0.1c0.1,0,0.2-0.1,0.2-0.2c0.1-0.1,0.1-0.1,0.2-0.2s0.1-0.2,0.1-0.3
				c0-0.1,0-0.2-0.1-0.3c0-0.1-0.1-0.2-0.2-0.2c-0.1-0.1-0.1-0.1-0.2-0.2c-0.1,0-0.2-0.1-0.3-0.1S35,94,34.9,94
				c-0.1,0-0.2,0.1-0.2,0.2c-0.1,0.1-0.1,0.2-0.2,0.2C34.4,94.5,34.4,94.6,34.4,94.7z"/>
			<path class="st0" d="M36.9,93.5h0.7l1,1.7h0v-1.7h0.5v2.4h-0.7l-1-1.7h0v1.7h-0.5V93.5z"/>
			<path class="st0" d="M40.5,93.5h0.4l1,2.4h-0.6l-0.2-0.5h-0.9L40,95.9h-0.6L40.5,93.5z M40.7,94.2L40.4,95H41L40.7,94.2z"/>
			<path class="st0" d="M42.3,93.5h0.5v1.9h1v0.5h-1.5V93.5z"/>
			<path class="st0" d="M46.4,94.1c0-0.1-0.1-0.1-0.2-0.1c-0.1,0-0.1,0-0.2,0c0,0-0.1,0-0.1,0c0,0-0.1,0-0.1,0c0,0-0.1,0-0.1,0.1
				c0,0,0,0.1,0,0.1c0,0.1,0,0.1,0.1,0.2c0.1,0,0.1,0.1,0.2,0.1c0.1,0,0.2,0.1,0.3,0.1c0.1,0,0.2,0.1,0.3,0.1
				c0.1,0.1,0.2,0.1,0.2,0.2c0.1,0.1,0.1,0.2,0.1,0.3c0,0.1,0,0.2-0.1,0.3c0,0.1-0.1,0.2-0.2,0.2c-0.1,0.1-0.2,0.1-0.3,0.1
				c-0.1,0-0.2,0-0.4,0c-0.2,0-0.3,0-0.4-0.1c-0.1,0-0.3-0.1-0.4-0.2l0.4-0.4c0.1,0.1,0.1,0.1,0.2,0.2c0.1,0,0.2,0.1,0.3,0.1
				c0,0,0.1,0,0.1,0c0,0,0.1,0,0.1,0c0,0,0.1,0,0.1-0.1c0,0,0-0.1,0-0.1c0-0.1,0-0.1-0.1-0.2C46.1,95,46,95,45.9,95
				c-0.1,0-0.2-0.1-0.3-0.1c-0.1,0-0.2-0.1-0.3-0.1c-0.1,0-0.2-0.1-0.2-0.2c-0.1-0.1-0.1-0.2-0.1-0.3c0-0.1,0-0.2,0.1-0.3
				c0.1-0.1,0.1-0.2,0.2-0.2c0.1-0.1,0.2-0.1,0.3-0.1c0.1,0,0.2,0,0.3,0c0.1,0,0.3,0,0.4,0.1c0.1,0,0.2,0.1,0.3,0.2L46.4,94.1z"/>
			<path class="st0" d="M47.2,93.5h0.5v0.9h1v-0.9h0.5v2.4h-0.5v-1h-1v1h-0.5V93.5z"/>
			<path class="st0" d="M49.8,93.5h0.5v2.4h-0.5V93.5z"/>
			<path class="st0" d="M50.9,93.5h0.9c0.1,0,0.2,0,0.4,0c0.1,0,0.2,0.1,0.3,0.1c0.1,0.1,0.1,0.1,0.2,0.2c0,0.1,0.1,0.2,0.1,0.4
				c0,0.1,0,0.3-0.1,0.4c0,0.1-0.1,0.2-0.2,0.2c-0.1,0.1-0.2,0.1-0.3,0.1c-0.1,0-0.2,0-0.4,0h-0.4v0.9h-0.5V93.5z M51.4,94.6h0.4
				c0,0,0.1,0,0.1,0s0.1,0,0.1,0c0,0,0.1-0.1,0.1-0.1c0,0,0-0.1,0-0.1c0-0.1,0-0.1,0-0.1c0,0-0.1-0.1-0.1-0.1c0,0-0.1,0-0.1,0
				c-0.1,0-0.1,0-0.2,0h-0.3V94.6z"/>
			<path class="st0" d="M53.1,93.5H54c0.1,0,0.2,0,0.4,0c0.1,0,0.2,0.1,0.3,0.1c0.1,0.1,0.1,0.1,0.2,0.2c0,0.1,0.1,0.2,0.1,0.4
				c0,0.1,0,0.3-0.1,0.4c0,0.1-0.1,0.2-0.2,0.2c-0.1,0.1-0.2,0.1-0.3,0.1c-0.1,0-0.2,0-0.4,0h-0.4v0.9h-0.5V93.5z M53.6,94.6H54
				c0,0,0.1,0,0.1,0s0.1,0,0.1,0c0,0,0.1-0.1,0.1-0.1c0,0,0-0.1,0-0.1c0-0.1,0-0.1,0-0.1c0,0-0.1-0.1-0.1-0.1c0,0-0.1,0-0.1,0
				c-0.1,0-0.1,0-0.2,0h-0.3V94.6z"/>
			<path class="st0" d="M55.3,93.5h0.5v2.4h-0.5V93.5z"/>
			<path class="st0" d="M56.3,93.5H57l1,1.7h0v-1.7h0.5v2.4h-0.7l-1-1.7h0v1.7h-0.5V93.5z"/>
			<path class="st0" d="M61.3,95.8c-0.2,0.1-0.3,0.1-0.5,0.2c-0.2,0-0.3,0.1-0.5,0.1c-0.2,0-0.4,0-0.5-0.1c-0.2-0.1-0.3-0.1-0.4-0.3
				c-0.1-0.1-0.2-0.2-0.3-0.4C59,95.1,59,94.9,59,94.7c0-0.2,0-0.4,0.1-0.5c0.1-0.2,0.2-0.3,0.3-0.4c0.1-0.1,0.3-0.2,0.4-0.3
				c0.2-0.1,0.3-0.1,0.5-0.1c0.2,0,0.4,0,0.5,0.1c0.2,0,0.3,0.1,0.4,0.2l-0.4,0.4c-0.1-0.1-0.2-0.1-0.2-0.2c-0.1,0-0.2-0.1-0.3-0.1
				c-0.1,0-0.2,0-0.3,0.1c-0.1,0-0.2,0.1-0.2,0.2c-0.1,0.1-0.1,0.2-0.2,0.2c0,0.1-0.1,0.2-0.1,0.3c0,0.1,0,0.2,0.1,0.3
				c0,0.1,0.1,0.2,0.2,0.2c0.1,0.1,0.1,0.1,0.2,0.2c0.1,0,0.2,0.1,0.3,0.1c0.1,0,0.2,0,0.3,0c0.1,0,0.2-0.1,0.2-0.1V95h-0.4v-0.5
				h0.9V95.8z"/>
			<path class="st0" d="M62.9,93.5h0.5v1.9h1v0.5h-1.5V93.5z"/>
			<path class="st0" d="M64.7,95.6c0,0,0-0.1,0-0.1c0,0,0-0.1,0.1-0.1c0,0,0.1-0.1,0.1-0.1c0,0,0.1,0,0.1,0s0.1,0,0.1,0
				c0,0,0.1,0,0.1,0.1c0,0,0.1,0.1,0.1,0.1c0,0,0,0.1,0,0.1c0,0,0,0.1,0,0.1c0,0,0,0.1-0.1,0.1c0,0-0.1,0.1-0.1,0.1c0,0-0.1,0-0.1,0
				s-0.1,0-0.1,0c0,0-0.1,0-0.1-0.1c0,0-0.1-0.1-0.1-0.1C64.7,95.7,64.7,95.7,64.7,95.6z"/>
			<path class="st0" d="M65.8,93.5h0.5v1.9h1v0.5h-1.5V93.5z"/>
			<path class="st0" d="M67.6,95.6c0,0,0-0.1,0-0.1c0,0,0-0.1,0.1-0.1c0,0,0.1-0.1,0.1-0.1c0,0,0.1,0,0.1,0c0,0,0.1,0,0.1,0
				c0,0,0.1,0,0.1,0.1c0,0,0.1,0.1,0.1,0.1c0,0,0,0.1,0,0.1c0,0,0,0.1,0,0.1c0,0,0,0.1-0.1,0.1c0,0-0.1,0.1-0.1,0.1c0,0-0.1,0-0.1,0
				c0,0-0.1,0-0.1,0c0,0-0.1,0-0.1-0.1c0,0-0.1-0.1-0.1-0.1C67.6,95.7,67.6,95.7,67.6,95.6z"/>
			<path class="st0" d="M70.3,94.2c-0.1-0.1-0.1-0.1-0.2-0.1C70.1,94,70,94,69.9,94c-0.1,0-0.2,0-0.3,0.1c-0.1,0-0.2,0.1-0.2,0.2
				c-0.1,0.1-0.1,0.2-0.1,0.2c0,0.1-0.1,0.2-0.1,0.3c0,0.1,0,0.2,0.1,0.3c0,0.1,0.1,0.2,0.1,0.2c0.1,0.1,0.1,0.1,0.2,0.2
				c0.1,0,0.2,0.1,0.3,0.1c0.1,0,0.2,0,0.3-0.1c0.1,0,0.2-0.1,0.2-0.2l0.4,0.3c-0.1,0.1-0.2,0.2-0.4,0.3C70.2,96,70.1,96,69.9,96
				c-0.2,0-0.4,0-0.5-0.1c-0.2-0.1-0.3-0.1-0.4-0.3c-0.1-0.1-0.2-0.2-0.3-0.4c-0.1-0.2-0.1-0.3-0.1-0.5c0-0.2,0-0.4,0.1-0.5
				c0.1-0.2,0.2-0.3,0.3-0.4c0.1-0.1,0.3-0.2,0.4-0.3c0.2-0.1,0.3-0.1,0.5-0.1c0.1,0,0.1,0,0.2,0s0.1,0,0.2,0.1
				c0.1,0,0.1,0.1,0.2,0.1c0.1,0,0.1,0.1,0.2,0.2L70.3,94.2z"/>
		</g>
	</g>
	<g>
		<g>
			<path class="st0" d="M42.5,63.8c-9.7,0-17.6-7.5-17.6-16.7s7.9-16.7,17.6-16.7S60.2,37.8,60.2,47S52.3,63.8,42.5,63.8z
				 M42.5,31.4c-9.1,0-16.5,7-16.5,15.6c0,8.6,7.4,15.6,16.5,15.6s16.5-7,16.5-15.6C59.1,38.4,51.7,31.4,42.5,31.4z"/>
		</g>
		<g>
			<path class="st0" d="M42.8,38.8c-4.7,0-9.2-0.6-13.4-1.9l0.3-1c4.1,1.2,8.4,1.8,13,1.8c4.4,0,8.6-0.6,12.5-1.7l0.3,1
				C51.6,38.2,47.3,38.8,42.8,38.8z"/>
		</g>
		<g>
			<path class="st0" d="M55.3,58.3c-4-1.2-8.5-1.8-13-1.8c-4.4,0-8.6,0.6-12.5,1.7l-0.3-1c4-1.1,8.3-1.7,12.8-1.7
				c4.7,0,9.2,0.6,13.4,1.9L55.3,58.3z"/>
		</g>
		<g>
			<path class="st0" d="M37.2,62.9c-3.1-4.1-4.9-9.6-4.9-15.3c0-6.3,2.1-12.3,5.8-16.5l0.8,0.7c-3.5,4-5.6,9.8-5.6,15.8
				c0,5.5,1.6,10.7,4.6,14.7L37.2,62.9z"/>
		</g>
		<g>
			<path class="st0" d="M47.8,62.9l-0.9-0.7c3-4,4.6-9.2,4.6-14.7c0-6-2-11.8-5.6-15.8l0.8-0.7c3.7,4.2,5.8,10.2,5.8,16.5
				C52.6,53.3,50.9,58.8,47.8,62.9z"/>
		</g>
		<g>
			<rect x="41.9" y="30.8" class="st0" width="1.2" height="32.4"/>
		</g>
		<g>
			<rect x="25.5" y="46.4" class="st0" width="34.1" height="1.2"/>
		</g>
		<g>
			<path class="st1" d="M55.4,49.5c0,0.9-0.7,1.6-1.6,1.6H31.7c-0.9,0-1.6-0.7-1.6-1.6v-4.2c0-0.9,0.7-1.6,1.6-1.6h22.1
				c0.9,0,1.6,0.7,1.6,1.6V49.5z"/>
			<path class="st0" d="M53.9,51.3H31.7c-1,0-1.8-0.8-1.8-1.8v-4.2c0-1,0.8-1.8,1.8-1.8h22.1c1,0,1.8,0.8,1.8,1.8v4.2
				C55.7,50.5,54.9,51.3,53.9,51.3z M31.7,44c-0.7,0-1.3,0.6-1.3,1.3v4.2c0,0.7,0.6,1.3,1.3,1.3h22.1c0.7,0,1.3-0.6,1.3-1.3v-4.2
				c0-0.7-0.6-1.3-1.3-1.3H31.7z"/>
		</g>
		<g>
			<g>
				<g>
					<path class="st0" d="M33.3,45.7v1.2h2.1v-1.2c0-0.2,0-0.3,0.1-0.4c0.1-0.1,0.2-0.1,0.3-0.1c0.1,0,0.2,0,0.3,0.1
						c0.1,0.1,0.1,0.2,0.1,0.4V49c0,0.2,0,0.3-0.1,0.4c-0.1,0.1-0.2,0.1-0.3,0.1c-0.1,0-0.2,0-0.3-0.1c-0.1-0.1-0.1-0.2-0.1-0.4
						v-1.4h-2.1V49c0,0.2,0,0.3-0.1,0.4c-0.1,0.1-0.2,0.1-0.3,0.1c-0.1,0-0.2,0-0.3-0.1c-0.1-0.1-0.1-0.2-0.1-0.4v-3.3
						c0-0.2,0-0.3,0.1-0.4c0.1-0.1,0.2-0.1,0.3-0.1c0.1,0,0.2,0,0.3,0.1C33.3,45.4,33.3,45.5,33.3,45.7z"/>
				</g>
				<g>
					<path class="st0" d="M39.3,45.9h-1.4v1h1.3c0.1,0,0.2,0,0.3,0.1c0.1,0.1,0.1,0.1,0.1,0.2s0,0.2-0.1,0.2
						c-0.1,0.1-0.1,0.1-0.3,0.1h-1.3v1.2h1.5c0.1,0,0.2,0,0.3,0.1c0.1,0.1,0.1,0.1,0.1,0.2c0,0.1,0,0.2-0.1,0.2
						c-0.1,0.1-0.2,0.1-0.3,0.1h-1.8c-0.2,0-0.3,0-0.4-0.1c-0.1-0.1-0.1-0.2-0.1-0.4v-3.2c0-0.1,0-0.2,0.1-0.3
						c0-0.1,0.1-0.1,0.2-0.2s0.2-0.1,0.3-0.1h1.7c0.1,0,0.2,0,0.3,0.1c0.1,0.1,0.1,0.1,0.1,0.2c0,0.1,0,0.2-0.1,0.2
						C39.5,45.9,39.4,45.9,39.3,45.9z"/>
				</g>
				<g>
					<path class="st0" d="M40.9,45.2h1c0.3,0,0.5,0,0.7,0.1c0.2,0.1,0.4,0.2,0.5,0.3c0.4,0.4,0.6,0.9,0.6,1.7c0,0.3,0,0.5-0.1,0.7
						s-0.1,0.4-0.2,0.6c-0.1,0.2-0.2,0.3-0.3,0.4c-0.1,0.1-0.2,0.2-0.3,0.2c-0.1,0.1-0.3,0.1-0.4,0.1s-0.3,0-0.5,0h-1
						c-0.1,0-0.3,0-0.3-0.1c-0.1,0-0.1-0.1-0.1-0.2c0-0.1,0-0.2,0-0.3v-3.1c0-0.2,0-0.3,0.1-0.4C40.6,45.3,40.7,45.2,40.9,45.2z
						 M41.2,45.9v2.8h0.6c0.1,0,0.2,0,0.3,0c0.1,0,0.2,0,0.2-0.1c0.1,0,0.1-0.1,0.2-0.1c0.3-0.2,0.4-0.7,0.4-1.2
						c0-0.4-0.1-0.7-0.2-0.9c-0.1-0.2-0.3-0.3-0.4-0.4c-0.2-0.1-0.4-0.1-0.6-0.1H41.2z"/>
				</g>
				<g>
					<path class="st0" d="M50.4,45.2c0.4,0,0.8,0.1,1,0.3c0.3,0.2,0.5,0.4,0.7,0.8c0.1,0.3,0.2,0.7,0.2,1.1c0,0.3,0,0.6-0.1,0.9
						c-0.1,0.3-0.2,0.5-0.4,0.7c-0.2,0.2-0.4,0.3-0.6,0.4c-0.2,0.1-0.5,0.2-0.8,0.2c-0.3,0-0.6-0.1-0.8-0.2
						c-0.2-0.1-0.4-0.3-0.6-0.4c-0.2-0.2-0.3-0.4-0.4-0.7c-0.1-0.3-0.1-0.6-0.1-0.9c0-0.3,0-0.6,0.1-0.9c0.1-0.3,0.2-0.5,0.4-0.7
						c0.2-0.2,0.4-0.3,0.6-0.4C49.8,45.2,50.1,45.2,50.4,45.2z M51.5,47.3c0-0.3,0-0.6-0.1-0.8c-0.1-0.2-0.2-0.4-0.4-0.5
						c-0.2-0.1-0.4-0.2-0.6-0.2c-0.2,0-0.3,0-0.4,0.1c-0.1,0.1-0.2,0.2-0.3,0.3c-0.1,0.1-0.2,0.3-0.2,0.5c-0.1,0.2-0.1,0.4-0.1,0.6
						c0,0.2,0,0.5,0.1,0.6c0.1,0.2,0.1,0.4,0.2,0.5c0.1,0.1,0.2,0.2,0.4,0.3c0.1,0.1,0.3,0.1,0.4,0.1c0.2,0,0.4-0.1,0.6-0.2
						c0.2-0.1,0.3-0.3,0.4-0.5C51.4,47.9,51.5,47.6,51.5,47.3z"/>
				</g>
			</g>
			<g>
				<path class="st0" d="M47.6,49c-0.1,0.1-0.3,0.3-0.5,0.4c-0.2,0.1-0.4,0.1-0.7,0.1c-0.2,0-0.4,0-0.6-0.1c-0.2,0-0.3-0.1-0.5-0.2
					c-0.1-0.1-0.3-0.2-0.4-0.4c-0.1-0.1-0.2-0.3-0.3-0.4c-0.1-0.2-0.1-0.3-0.2-0.5c0-0.2-0.1-0.4-0.1-0.6c0-0.3,0-0.6,0.1-0.9
					c0.1-0.3,0.2-0.5,0.4-0.7c0.2-0.2,0.4-0.3,0.6-0.4c0.2-0.1,0.5-0.1,0.7-0.1c0.3,0,0.6,0.1,0.8,0.2l0,0c0.2,0.1,0.3,0.3,0.3,0.4
					c0,0.1,0,0.2,0,0.2c0,0.1-0.1,0.1-0.2,0.2c-0.1,0-0.2,0-0.2,0c-0.1,0-0.1-0.1-0.2-0.2l-0.1,0c-0.1-0.1-0.3-0.2-0.5-0.2
					c-0.3,0-0.6,0.1-0.8,0.4c-0.2,0.3-0.3,0.6-0.3,1.1c0,0.3,0,0.6,0.1,0.8c0.1,0.2,0.2,0.4,0.4,0.5c0.2,0.1,0.3,0.2,0.5,0.2
					c0.2,0,0.4-0.1,0.6-0.2c0.1-0.1,0.2-0.2,0.2-0.2c0.1-0.1,0.2-0.2,0.2-0.2c0.1,0,0.2,0,0.3,0c0.1,0,0.1,0.1,0.2,0.2
					c0,0.1,0,0.2,0,0.3C47.8,48.8,47.7,49,47.6,49"/>
			</g>
		</g>
		<g>
			<g>
				<path class="st0" d="M23.2,47.1c0-10.1,8.8-18.3,19.6-18.3c4.6,0,8.9,1.5,12.2,4c-3.9-3.8-9.4-6.2-15.5-6.2
					c-11.9,0-21.6,9.2-21.6,20.5c0,11.3,9.7,20.5,21.6,20.5c6.1,0,11.6-2.4,15.5-6.2c-3.4,2.5-7.6,4-12.2,4
					C32,65.4,23.2,57.2,23.2,47.1z"/>
			</g>
		</g>
		<g>
			<g>
				<g>
					<path class="st0" d="M39.4,21.5l1.1,3.1c1.1,0.1,2.2,0.2,3.2,0.4c-2.3-5.9-3.6-13.5-4.2-22.8c-0.2-2.8-0.3-2.8-0.5,0
						c-0.5,9.3-1.9,16.9-4.2,22.8c1-0.2,2.1-0.3,3.1-0.4L39.4,21.5z"/>
				</g>
			</g>
			<g>
				<g>
					<path class="st0" d="M38.2,69.8c-1.1,0-2.2-0.1-3.2-0.2c2.3,3.9,3.6,8.9,4.2,15c0.2,1.8,0.3,1.8,0.5,0
						c0.5-6.2,1.9-11.2,4.2-15.1c-1,0.1-2.1,0.2-3.1,0.2L38.2,69.8z"/>
				</g>
			</g>
			<g>
				<g>
					<path class="st0" d="M16.2,46c0-1,0.1-2,0.2-2.9c-3.9,2.1-8.9,3.3-15,3.8c-1.8,0.1-1.8,0.3,0,0.4c6.2,0.5,11.2,1.7,15.1,3.8
						c-0.1-0.9-0.2-1.9-0.2-2.9L16.2,46z"/>
				</g>
			</g>
			<g>
				<g>
					<path class="st0" d="M24.9,33.5c0.6-0.7,1.3-1.3,1.9-1.9c-2.9-0.1-5.8-1.3-8.7-3.4c-0.9-0.6-0.9-0.5-0.3,0.3
						c2.3,2.7,3.6,5.5,3.9,8.4c0.5-0.7,1.1-1.3,1.7-2L24.9,33.5z"/>
				</g>
			</g>
			<g>
				<g>
					<path class="st0" d="M25.2,61.4c0.6,0.6,1.3,1.3,1.9,1.8c-2.6-0.1-5.1,0.7-7.5,2.4c-0.7,0.5-0.8,0.4-0.3-0.3
						c1.8-2.3,2.7-4.8,2.7-7.4c0.5,0.6,1.1,1.3,1.7,2L25.2,61.4z"/>
				</g>
			</g>
		</g>
	</g>
</g>
</svg>
