<svg id="99a148e0-73d9-4665-b47d-555aa72aa316" data-name="Layer 1" xmlns="http://www.w3.org/2000/svg" xmlns:xlink="http://www.w3.org/1999/xlink" viewBox="0 0 490 414">
  <defs>
    <style>
      .df033e72-0bde-45e5-9465-1a567c708a93 {
        fill: #ffc69f;
      }

      .ff420a01-68b2-4c0b-8573-53bf5ceca033 {
        fill: #f7c09a;
      }

      .db4f2d87-3f38-4393-864d-4e90563a707b {
        fill: #efba95;
      }

      .\39 f563f57-8fb1-4832-8331-b750b6aabe9f {
        fill: #ffb682;
      }

      .\38 7723b02-dd28-46c1-936e-b484f99dd850 {
        fill: #efb186;
      }

      .\36 90534cb-4ae7-4c73-8bd8-37cb8f77fcbc {
        fill: #d99b6f;
      }

      .d00040aa-bad9-4199-b1a8-18fb58f156f0 {
        fill: #e8a26f;
      }

      .\38 0787461-0616-4dbf-ab73-1d39f99e35e6 {
        fill: #efb68d;
      }

      .bb1fe9ba-3bef-4480-9e1d-6d172c345d5e {
        fill: #cc8e62;
      }

      .\31 cd7bf3d-e672-4205-8d4b-2e91b3e1e719 {
        fill: #d9b15e;
      }

      .be7a5dbc-a759-428b-9344-5db13efc3861 {
        fill: #d9a987;
      }

      .\33 61d8a33-8ab6-4683-9481-9a807e68a43c {
        fill: #c28b64;
      }

      .e128f696-58d3-47d8-a840-8f5ab5cf2d8b {
        fill: #454d5a;
      }

      .\35 f9f317f-c6be-4eb9-bdff-642250702704 {
        fill: gray;
      }

      .\38 522e87b-999f-4921-afee-363f3e8fed76 {
        fill: url(#6b52ace0-4c08-4056-be83-cbf365222546);
      }

      .\31 37df441-73e0-45be-9252-4dd0dc86e024 {
        fill: url(#d9fff48f-f28a-4af2-ac66-8a853ee8927a);
      }

      .\32 fa1056f-9603-4d3c-9b86-6e65ad2add67 {
        fill: url(#81f4ee29-3cbd-4b2d-8375-1d765121299b);
      }

      .\31 87c5769-c086-408d-b55b-4cc7721c4c71 {
        fill: #b7d2ee;
      }

      .ddc963ec-d88b-4a34-8c4a-a7051843efbb {
        fill: #98bade;
      }

      .\34 c3956fe-286d-45ad-b3c8-ee176d448c0b {
        fill: #c4c4c4;
      }

      .\37 c772c1d-8992-4ad0-a568-18bee23578e3 {
        fill: #ebebeb;
      }

      .d5fb3cf6-2d45-4b43-b266-6f643cce5629 {
        fill: #79a0c9;
      }

      .\38 8c80b71-7539-44f2-b8b0-cc5ae18d3f97 {
        fill: #f8e3cd;
      }

      .\30 05d3149-da9a-4cde-9ec6-470cee3744cb {
        fill: #edd4b9;
      }

      .bd0a2671-6f68-4bc9-9d66-e43e91adae8a {
        fill: #dcbc99;
      }

      .\30 32666a4-a6f5-4e6d-8879-292e1a76cb8b {
        fill: #e6dcd1;
      }

      .\31 14f17d3-41e2-424b-b942-ff69ea10da45 {
        fill: #fff8f1;
      }

      .ccafeb24-e605-46b3-acd2-d09d2f818298 {
        fill: #acacac;
      }
    </style>
    <linearGradient id="6b52ace0-4c08-4056-be83-cbf365222546" x1="5900.049" y1="493.186" x2="6745.781" y2="493.186" gradientTransform="matrix(0.211, 0, 0, -0.211, -966.247, 349.246)" gradientUnits="userSpaceOnUse">
      <stop offset="0" stop-color="#7999b8"/>
      <stop offset="1" stop-color="#31587f"/>
    </linearGradient>
    <linearGradient id="d9fff48f-f28a-4af2-ac66-8a853ee8927a" x1="5952.062" y1="810.699" x2="6752.28" y2="810.699" gradientTransform="matrix(0.211, 0, 0, -0.211, -966.247, 349.246)" gradientUnits="userSpaceOnUse">
      <stop offset="0.102" stop-color="#e4e4e4"/>
      <stop offset="1" stop-color="#878787"/>
    </linearGradient>
    <linearGradient id="81f4ee29-3cbd-4b2d-8375-1d765121299b" x1="5916.053" y1="1133.347" x2="6756.281" y2="1133.347" gradientTransform="matrix(0.211, 0, 0, -0.211, -966.247, 349.246)" gradientUnits="userSpaceOnUse">
      <stop offset="0" stop-color="#8eb2d5"/>
      <stop offset="1" stop-color="#3e658b"/>
    </linearGradient>
  </defs>
  <title>LCL</title>
  <g>
    <g>
      <g id="f23abb23-9af6-4a0b-bcfa-f4bf69eba8ae" data-name="&lt;Group&gt;">
        <g>
          <path class="df033e72-0bde-45e5-9465-1a567c708a93" d="M490,239.316v5.9l-5.666,3.278-18.865,10.86c-4.137.46-8.27.813-12.4,1.248l31.8-18.335Z"/>
          <path class="ff420a01-68b2-4c0b-8573-53bf5ceca033" d="M489.813,239.316l-5.13,2.95-31.8,18.335c-2.494.244-4.974.535-7.465.887-17.023,2.428-32.829,5.461-49.239,11.53-18.237,6.069-34.042,18.811-49.24,29.732-33.072,24.212-69.654,58.9-112.9,55.2l5.531-3.193,21.75-12.537,5.119-2.95,24.973-14.392,22.64-13.046,5.131-2.95,24.959-14.393,21.544-12.415,5.118-2.948,24.973-14.395,28.178-16.237,5.134-2.963,4.595-2.647c15.487-2.511,30.264-5.219,44.949-10.01Z"/>
          <polygon class="df033e72-0bde-45e5-9465-1a567c708a93" points="488.004 266.067 488.004 271.972 241.568 414 241.507 413.965 241.507 408.06 241.568 408.095 482.879 269.018 488.004 266.067"/>
          <path class="db4f2d87-3f38-4393-864d-4e90563a707b" d="M487.773,266.073l-5.125,2.952L241.338,408.1l-.061-.035-19.8-11.42-5.137-2.952,8.2-4.737v5.4l17.8,10.259.1-.062,18.031-10.367v-8.7l10.978-6.343v-5.963l-1.886-1.1,7.8-4.49,10.935,6.3.1-.058L306.375,363.5v-7.982l13.971-8.062v-4.636l5.5-3.162,4.273-2.46,11.012,6.35.1-.073L359.267,333.1v-7.967l13.971-8.054v-4.655l8.647-4.989,13.1,7.551.1-.059,18.074-10.408v-7.94l13.971-8.056v-5.853l-1.036-.6.627-.364c2.56.1,5.121.206,7.685.279l8.422,4.861.1-.062,18.137-10.439v-6.764l.291.17.131-.073,16.275-9.392Z"/>
          <path class="9f563f57-8fb1-4832-8331-b750b6aabe9f" d="M486.008,249.521v5.911l-1.944,1.116-.3-.521a97,97,0,0,1-13.848,2.78l10.967-6.324Z"/>
          <path class="87723b02-dd28-46c1-936e-b484f99dd850" d="M485.959,249.521l-5.13,2.963-10.967,6.324c-1.533.205-3.051.389-4.58.545l18.865-10.86Z"/>
          <path class="9f563f57-8fb1-4832-8331-b750b6aabe9f" d="M483.649,256.027l.3.521-6.638,3.825-16.257,9.382v-5.913l8.742-5.034A97,97,0,0,0,483.649,256.027Z"/>
          <path class="ff420a01-68b2-4c0b-8573-53bf5ceca033" d="M464.838,224.923l13.791,7.949c-14.685,4.792-29.463,7.5-44.949,10.01l20.38-11.746Z"/>
          <path class="87723b02-dd28-46c1-936e-b484f99dd850" d="M469.862,258.807l-8.742,5.034-.131.074-1.813-1.045,6.106-3.519C466.811,259.2,468.33,259.013,469.862,258.807Z"/>
          <path class="df033e72-0bde-45e5-9465-1a567c708a93" d="M465.282,259.352l-6.106,3.519-5.116,2.963-11.432,6.577-12.546,7.234-3.6,2.065c-3.261-.124-6.532-.232-9.764-.269L452.878,260.6C457.012,260.165,461.145,259.813,465.282,259.352Z"/>
          <polygon class="690534cb-4ae7-4c73-8bd8-37cb8f77fcbc" points="461.059 263.842 461.059 269.754 460.928 269.827 460.637 269.657 453.999 265.834 459.115 262.871 460.928 263.916 461.059 263.842"/>
          <polygon class="d00040aa-bad9-4199-b1a8-18fb58f156f0" points="461.059 269.696 461.059 276.368 443.096 286.706 443.096 272.433 454.46 265.895 461.059 269.696"/>
          <path class="87723b02-dd28-46c1-936e-b484f99dd850" d="M454.06,231.136l-20.38,11.746c-2.384.379-4.779.767-7.2,1.144l-15.576-8.971,24.971-14.392Z"/>
          <path class="80787461-0616-4dbf-ab73-1d39f99e35e6" d="M452.878,260.6,416.721,281.44c-14.252-.23-28.1.9-40,8.569-15.805,9.989-35.26,24.538-46.492,41.276l-36.122,20.823-50.456,29.08-.292-.17L223.81,369.743l-5.131-2.95,15.357-8.845c43.246,3.7,79.828-30.986,112.9-55.2,15.2-10.921,31-23.663,49.24-29.732,16.409-6.069,32.216-9.1,49.239-11.53C447.9,261.136,450.384,260.845,452.878,260.6Z"/>
          <polygon class="bb1fe9ba-3bef-4480-9e1d-6d172c345d5e" points="434.609 281.987 430.55 279.644 443.096 272.411 443.096 286.768 443 286.83 434.609 281.987"/>
          <path class="df033e72-0bde-45e5-9465-1a567c708a93" d="M436.11,214.363v5.911l-.681.389-24.971,14.392-5.13,2.95L395,243.962l-8.2,4.723-9.661,5.569-24.977,14.395-1.845,1.07-.2-.342a18.157,18.157,0,0,0-2.5-4.029l83.357-48.037Z"/>
          <path class="db4f2d87-3f38-4393-864d-4e90563a707b" d="M436.561,214.363l-5.127,2.948-83.357,48.037c-9.766-11.942-32.11-6.786-48.608-.767L317.4,254.254l5.13-2.948,24.958-14.393,5.315-3.058c12.56-1.468,24.622-2.863,37.9-7.56,12.876-4.71,24.463-11.19,36-17.613Z"/>
          <path class="db4f2d87-3f38-4393-864d-4e90563a707b" d="M430.082,279.644l4.059,2.343c-2.555-.073-5.106-.182-7.657-.278Z"/>
          <path class="87723b02-dd28-46c1-936e-b484f99dd850" d="M433.68,242.882l-4.595,2.647-2.6-1.5C428.9,243.649,431.3,243.261,433.68,242.882Z"/>
          <polygon class="690534cb-4ae7-4c73-8bd8-37cb8f77fcbc" points="426.485 244.026 429.085 245.529 423.951 248.492 422.908 247.885 417.774 244.92 413.52 242.471 405.779 238.005 410.909 235.055 426.485 244.026"/>
          <polygon class="9f563f57-8fb1-4832-8331-b750b6aabe9f" points="427.128 282.625 427.128 288.561 413.287 296.541 402.179 302.939 402.179 297.003 421.977 285.586 427.128 282.625"/>
          <polygon class="87723b02-dd28-46c1-936e-b484f99dd850" points="427.026 282.667 421.895 285.615 402.179 296.986 402.179 295.798 425.993 282.072 427.026 282.667"/>
          <path class="ff420a01-68b2-4c0b-8573-53bf5ceca033" d="M411.59,199.968l15.111,8.714c-11.538,6.423-23.126,12.9-36,17.613-13.273,4.7-25.335,6.092-37.9,7.56l22.884-13.191,5.116-2.95,24.974-14.393Z"/>
          <path class="df033e72-0bde-45e5-9465-1a567c708a93" d="M426.322,281.709l-.624.363L401.884,295.8l-1.157.668-5.116,2.95-.731.423-13.191,7.6-8.643,4.987-24.757,14.26v-3.253l-1.142-1.989,69.412-40C419.791,281.477,423.062,281.585,426.322,281.709Z"/>
          <polygon class="df033e72-0bde-45e5-9465-1a567c708a93" points="422.908 247.885 394.727 264.121 389.596 261.173 417.774 244.92 422.908 247.885"/>
          <polygon class="db4f2d87-3f38-4393-864d-4e90563a707b" points="417.411 244.92 389.233 261.173 377.234 254.254 386.895 248.685 394.995 253.358 395.091 253.296 413.157 242.894 413.157 242.471 417.411 244.92"/>
          <path class="db4f2d87-3f38-4393-864d-4e90563a707b" d="M416.721,281.44l-69.412,40-17.08,9.842c11.232-16.738,30.687-31.287,46.492-41.276C388.621,282.338,402.468,281.21,416.721,281.44Z"/>
          <polygon class="d00040aa-bad9-4199-b1a8-18fb58f156f0" points="413.157 242.489 413.157 242.91 395.193 253.253 395.193 243.972 405.459 238.049 413.157 242.489"/>
          <polygon class="d00040aa-bad9-4199-b1a8-18fb58f156f0" points="413.157 296.578 413.157 304.529 395.193 314.873 395.193 299.872 395.92 299.451 402.037 302.987 402.157 302.913 413.157 296.578"/>
          <polygon class="87723b02-dd28-46c1-936e-b484f99dd850" points="405.779 203.32 380.804 217.714 355.845 203.32 380.804 188.925 405.779 203.32"/>
          <polygon class="690534cb-4ae7-4c73-8bd8-37cb8f77fcbc" points="402.179 296.986 402.179 302.897 402.059 302.971 395.906 299.415 401.023 296.465 402.059 297.058 402.179 296.986"/>
          <polygon class="1cd7bf3d-e672-4205-8d4b-2e91b3e1e719" points="402.179 295.798 402.179 296.986 402.059 297.058 401.023 296.465 402.179 295.798"/>
          <polygon class="87723b02-dd28-46c1-936e-b484f99dd850" points="395.773 264.729 370.8 279.124 352.62 268.649 377.597 254.254 389.596 261.173 394.727 264.121 395.773 264.729"/>
          <polygon class="bb1fe9ba-3bef-4480-9e1d-6d172c345d5e" points="395.193 243.962 395.193 253.296 395.098 253.358 386.998 248.685 395.193 243.962"/>
          <polygon class="bb1fe9ba-3bef-4480-9e1d-6d172c345d5e" points="395.193 299.839 395.193 314.926 395.098 314.984 382.002 307.437 395.193 299.839"/>
          <polygon class="df033e72-0bde-45e5-9465-1a567c708a93" points="382.22 182.069 382.22 187.982 380.616 188.903 355.648 203.303 350.516 206.252 342.587 210.83 331.48 217.228 322.324 222.507 297.343 236.906 292.211 239.856 283.236 245.028 270.673 252.275 245.692 266.662 240.571 269.626 231.596 274.795 217.926 282.676 192.945 297.072 187.825 300.023 178.85 305.196 166.055 312.565 141.074 326.963 135.979 329.9 135.723 329.756 135.723 323.843 135.979 323.989 168.743 305.109 350.124 200.584 377.099 185.031 382.22 182.069"/>
          <path class="db4f2d87-3f38-4393-864d-4e90563a707b" d="M382.408,182.094l-5.12,2.961L350.323,200.6l-.349-.607c8.07-7.464,15.269-15.583,23.206-23.229Z"/>
          <polygon class="690534cb-4ae7-4c73-8bd8-37cb8f77fcbc" points="380.804 217.714 375.688 220.664 369.305 216.986 364.187 214.037 360.855 212.119 350.715 206.269 355.845 203.32 380.804 217.714"/>
          <polygon class="9f563f57-8fb1-4832-8331-b750b6aabe9f" points="373.238 312.35 373.238 317.095 359.341 325.106 348.289 331.479 348.289 326.721 373.238 312.35"/>
          <path class="ff420a01-68b2-4c0b-8573-53bf5ceca033" d="M365.8,172.426l7.379,4.246c-7.938,7.646-15.137,15.765-23.206,23.229l.349.607L169,305l-.182-.315c-12.56,2.828-23.5,5.656-36.474,6.068-6.98.328-13.13-.97-19.6-2.125l23.476-13.518.183-.108h.012c10.311-2.258,20.5-5.79,30.372-9.332,19.866-6.883,39.72-14.165,57.957-24.674,32.012-18.617,65.652-35.195,95.646-55.827C335.735,194.852,350.875,183.676,365.8,172.426Z"/>
          <polygon class="690534cb-4ae7-4c73-8bd8-37cb8f77fcbc" points="370.8 279.124 365.682 282.072 364.623 281.465 359.503 278.516 356.246 276.636 347.87 271.815 347.49 271.598 350.775 269.719 352.62 268.649 370.8 279.124"/>
          <polygon class="df033e72-0bde-45e5-9465-1a567c708a93" points="369.305 216.986 341.121 233.236 335.991 230.286 364.187 214.037 369.305 216.986"/>
          <path class="db4f2d87-3f38-4393-864d-4e90563a707b" d="M357.451,167.7l8.35,4.819c-14.926,11.25-30.066,22.426-45.409,32.742-29.994,20.632-63.634,37.21-95.646,55.827-18.237,10.51-38.091,17.791-57.957,24.674-9.873,3.542-20.06,7.074-30.372,9.332l21.557-12.428,5.13-2.963,24.973-14.381L210.7,252.276l5.131-2.961,24.972-14.393,21.532-12.4,5.119-2.948,24.972-14.391,28.193-16.253,5.121-2.948,24.973-14.393Z"/>
          <polygon class="df033e72-0bde-45e5-9465-1a567c708a93" points="364.623 281.465 343.092 293.88 337.971 290.93 359.503 278.516 364.623 281.465"/>
          <polygon class="db4f2d87-3f38-4393-864d-4e90563a707b" points="364.594 214.037 336.398 230.286 322.939 222.518 332.093 217.241 343.099 223.586 343.196 223.527 361.263 213.125 361.263 212.119 364.594 214.037"/>
          <polygon class="d00040aa-bad9-4199-b1a8-18fb58f156f0" points="361.263 212.135 361.263 213.136 343.299 223.477 343.299 210.868 351.181 206.318 361.263 212.135"/>
          <polygon class="db4f2d87-3f38-4393-864d-4e90563a707b" points="359.503 278.516 337.971 290.93 325.96 284.013 339.03 276.476 347.774 281.512 347.87 281.452 356.246 276.636 359.503 278.516"/>
          <polygon class="d00040aa-bad9-4199-b1a8-18fb58f156f0" points="359.267 325.133 359.267 333.099 341.303 343.429 341.303 330.793 344.072 329.201 348.146 331.543 348.362 331.421 359.267 325.133"/>
          <polygon class="d00040aa-bad9-4199-b1a8-18fb58f156f0" points="356.666 276.636 348.289 281.452 348.289 271.815 356.666 276.636"/>
          <path class="df033e72-0bde-45e5-9465-1a567c708a93" d="M318.257,282.655l30.032-17.306a18.157,18.157,0,0,1,2.5,4.029l.2.342L347.7,271.6l-8.46,4.879-13.07,7.537-24.96,14.393-5.13,2.948-1.69.972-6.772,3.908L273.443,314.4,248.471,328.8l-5.118,2.948-1.715,1-6.747,3.885L221.6,344.281,196.63,358.676l-5.131,2.948-.888.51v-5.911l19.2-11.066,53.484-30.816Z"/>
          <path class="87723b02-dd28-46c1-936e-b484f99dd850" d="M324.137,162.967l5.813-3.35,20.765,11.967-24.973,14.393-20.207-11.65c.023-.22.049-.448.061-.667Z"/>
          <polygon class="690534cb-4ae7-4c73-8bd8-37cb8f77fcbc" points="348.289 326.684 348.289 331.405 348.073 331.527 343.976 329.172 348.289 326.684"/>
          <path class="df033e72-0bde-45e5-9465-1a567c708a93" d="M348.289,323.431v3.253l-4.313,2.488-2.784,1.6-11.125,6.421-4.279,2.463-.294-.5a65.028,65.028,0,0,1,4.573-7.875l17.08-9.842Z"/>
          <path class="ff420a01-68b2-4c0b-8573-53bf5ceca033" d="M348.077,265.348l-30.032,17.306c-24.218-5.206-43.281,13.494-55,31.627l.037.06L209.6,345.157l-.656-1.142c5.822-18.133,19.95-34.71,36.4-48.23l20.437-11.772,5.119-2.963,24.972-14.391,3.6-2.077C315.967,258.563,338.311,253.406,348.077,265.348Z"/>
          <polygon class="bb1fe9ba-3bef-4480-9e1d-6d172c345d5e" points="348.289 271.815 348.289 281.452 348.193 281.512 339.449 276.476 347.91 271.598 348.289 271.815"/>
          <polygon class="87723b02-dd28-46c1-936e-b484f99dd850" points="344.04 234.922 347.49 236.913 322.532 251.306 297.559 236.913 322.532 222.518 335.991 230.286 341.121 233.236 344.04 234.922"/>
          <polygon class="87723b02-dd28-46c1-936e-b484f99dd850" points="344.138 294.487 319.179 308.88 301 298.406 325.96 284.013 337.971 290.93 343.092 293.88 344.138 294.487"/>
          <polygon class="bb1fe9ba-3bef-4480-9e1d-6d172c345d5e" points="342.301 210.845 342.301 223.527 342.205 223.586 331.199 217.241 342.301 210.845"/>
          <polygon class="bb1fe9ba-3bef-4480-9e1d-6d172c345d5e" points="341.303 330.773 341.303 343.48 341.207 343.553 330.179 337.194 341.303 330.773"/>
          <path class="df033e72-0bde-45e5-9465-1a567c708a93" d="M333.32,151.958v5.913l-3.036,1.746-5.813,3.35a17.837,17.837,0,0,0-1.385-5.121l5.1-2.938Z"/>
          <path class="db4f2d87-3f38-4393-864d-4e90563a707b" d="M332.987,151.958l-5.13,2.95-5.1,2.938c-3.453-7.974-12.3-14.43-21.227-16.531l6.489-3.749Z"/>
          <path class="df033e72-0bde-45e5-9465-1a567c708a93" d="M293.731,352.108l36.122-20.823a65.028,65.028,0,0,0-4.573,7.875l.294.5-5.509,3.166L295.4,357.048v-2.063Z"/>
          <path class="690534cb-4ae7-4c73-8bd8-37cb8f77fcbc" d="M325.583,185.977l-5.121,2.948-4.2-2.426-5.13-2.95-3.405-1.966-3.344-1.918v-.014a31.175,31.175,0,0,0,1-5.325Z"/>
          <path class="df033e72-0bde-45e5-9465-1a567c708a93" d="M324.137,162.967,305.6,173.659a31.611,31.611,0,0,0-.061-5.886l17.217-9.927A17.837,17.837,0,0,1,324.137,162.967Z"/>
          <path class="ff420a01-68b2-4c0b-8573-53bf5ceca033" d="M322.752,157.846l-17.217,9.927c-.715-6.761-3.768-12.987-9.872-15.511a22.852,22.852,0,0,0-10.455-1.555l14.65-8.432,1.667-.96C310.449,143.416,319.3,149.872,322.752,157.846Z"/>
          <polygon class="690534cb-4ae7-4c73-8bd8-37cb8f77fcbc" points="322.532 251.306 317.401 254.254 311.031 250.576 305.9 247.63 304.077 246.572 295.202 241.464 292.429 239.861 297.559 236.913 322.532 251.306"/>
          <polygon class="9f563f57-8fb1-4832-8331-b750b6aabe9f" points="320.346 342.716 320.346 347.455 306.413 355.494 295.397 361.84 295.397 357.103 320.346 342.716"/>
          <polygon class="690534cb-4ae7-4c73-8bd8-37cb8f77fcbc" points="319.179 308.88 314.047 311.831 312.999 311.225 307.869 308.275 302.544 305.202 295.869 301.354 301 298.406 319.179 308.88"/>
          <path class="db4f2d87-3f38-4393-864d-4e90563a707b" d="M318.045,282.655l-54.964,31.687-.037-.06C274.764,296.148,293.827,277.448,318.045,282.655Z"/>
          <polygon class="df033e72-0bde-45e5-9465-1a567c708a93" points="316.418 186.499 288.222 202.75 283.105 199.802 311.287 183.549 316.418 186.499"/>
          <polygon class="df033e72-0bde-45e5-9465-1a567c708a93" points="312.999 311.225 290.361 324.269 285.232 321.32 307.869 308.275 312.999 311.225"/>
          <polygon class="db4f2d87-3f38-4393-864d-4e90563a707b" points="302.605 184.619 307.882 181.584 311.287 183.549 283.105 199.802 271.663 193.209 281.913 187.3 289.926 191.923 290.023 191.863 302.605 184.619"/>
          <polygon class="df033e72-0bde-45e5-9465-1a567c708a93" points="311.031 250.576 289.5 262.993 284.37 260.032 305.9 247.63 311.031 250.576"/>
          <path class="d00040aa-bad9-4199-b1a8-18fb58f156f0" d="M307.882,181.584l-5.277,3.035a25.777,25.777,0,0,0,1.933-4.953Z"/>
          <polygon class="db4f2d87-3f38-4393-864d-4e90563a707b" points="307.869 308.275 285.232 321.32 273.232 314.402 287.408 306.235 294.083 310.083 294.18 310.021 302.544 305.202 307.869 308.275"/>
          <polygon class="d00040aa-bad9-4199-b1a8-18fb58f156f0" points="306.375 355.516 306.375 363.477 288.411 373.801 288.411 361.21 291.213 359.591 295.249 361.921 295.551 361.75 306.375 355.516"/>
          <polygon class="db4f2d87-3f38-4393-864d-4e90563a707b" points="305.9 247.63 284.37 260.032 270.898 252.276 283.457 245.032 295.102 251.743 295.202 251.681 304.077 246.572 305.9 247.63"/>
          <path class="df033e72-0bde-45e5-9465-1a567c708a93" d="M305.535,167.773a31.611,31.611,0,0,1,.061,5.886l-.621.351-5.118,2.95-9.834,5.668-8.111,4.671-10.249,5.909-23.744,13.68-.475-.825c-10.541,5.266-22.3,8.907-32.827,14.161q-.546.292-1.094.582Z"/>
          <path class="87723b02-dd28-46c1-936e-b484f99dd850" d="M304.975,174.01l.621-.351c-.013.22-.038.448-.061.667Z"/>
          <path class="db4f2d87-3f38-4393-864d-4e90563a707b" d="M305.535,167.773l-92.011,53.034c-11.818,6.276-24.024,12.513-36.6,17.223-14.589,5.656-29.593,11.323-44.583,16.989-4.9,2.1-27.306,7.2-26.31-1.055l1.083-.62,5.117-2.948L137.209,236l22.639-13.046,5.13-2.95,24.961-14.393,21.531-12.4,5.131-2.959,24.972-14.395,28.182-16.238,5.131-2.961,10.323-5.948a22.852,22.852,0,0,1,10.455,1.555C301.767,154.786,304.82,161.012,305.535,167.773Z"/>
          <path class="690534cb-4ae7-4c73-8bd8-37cb8f77fcbc" d="M304.975,174.01l.56.317a31.175,31.175,0,0,1-1,5.325l-4.681-2.692Z"/>
          <path class="d00040aa-bad9-4199-b1a8-18fb58f156f0" d="M304.379,179.5v.015a26.585,26.585,0,0,1-1.993,5.108L289.409,192.1v-9.524l10.142-5.846Z"/>
          <polygon class="d00040aa-bad9-4199-b1a8-18fb58f156f0" points="304.272 246.572 295.397 251.681 295.397 241.464 304.272 246.572"/>
          <polygon class="d00040aa-bad9-4199-b1a8-18fb58f156f0" points="302.764 305.202 294.399 310.021 294.399 302.327 296.089 301.354 302.764 305.202"/>
          <path class="87723b02-dd28-46c1-936e-b484f99dd850" d="M297.013,140.637l2.845,1.638-14.65,8.432a36.257,36.257,0,0,0-13.471,4.14l-22.323-12.863,24.973-14.395Z"/>
          <path class="87723b02-dd28-46c1-936e-b484f99dd850" d="M295.869,266.659,270.9,281.05l-2.565-1.477c5.64-3.41,11.234-6.421,16.6-8.982,2.649-1.215,6.165-2.769,10.2-4.358Z"/>
          <polygon class="690534cb-4ae7-4c73-8bd8-37cb8f77fcbc" points="295.397 357.048 295.397 361.732 295.093 361.904 291.032 359.559 295.397 357.048"/>
          <polygon class="df033e72-0bde-45e5-9465-1a567c708a93" points="296.395 354.852 296.395 356.934 291.99 359.468 289.145 361.112 277.954 367.564 270.042 372.12 244.841 386.646 243.798 387.246 243.503 387.075 243.503 381.122 243.798 381.294 294.714 351.948 296.395 354.852"/>
          <polygon class="bb1fe9ba-3bef-4480-9e1d-6d172c345d5e" points="295.397 241.464 295.397 251.681 295.298 251.743 283.653 245.032 292.624 239.861 295.397 241.464"/>
          <path class="87723b02-dd28-46c1-936e-b484f99dd850" d="M289.5,262.993l5.629,3.241c-4.036,1.588-7.552,3.143-10.2,4.358-5.362,2.561-10.955,5.571-16.6,8.982l-22.407-12.914L270.9,252.276l13.472,7.756Z"/>
          <polygon class="bb1fe9ba-3bef-4480-9e1d-6d172c345d5e" points="294.399 302.327 294.399 310.021 294.303 310.083 287.627 306.235 294.399 302.327"/>
          <polygon class="87723b02-dd28-46c1-936e-b484f99dd850" points="292.429 205.178 267.457 219.569 246.692 207.592 247.919 206.889 271.663 193.209 283.105 199.802 288.222 202.75 292.429 205.178"/>
          <polygon class="87723b02-dd28-46c1-936e-b484f99dd850" points="291.408 324.876 266.435 339.268 248.259 328.797 273.232 314.402 285.232 321.32 290.361 324.269 291.408 324.876"/>
          <polygon class="bb1fe9ba-3bef-4480-9e1d-6d172c345d5e" points="290.407 182.628 290.407 191.863 290.31 191.923 282.297 187.3 290.407 182.628"/>
          <polygon class="bb1fe9ba-3bef-4480-9e1d-6d172c345d5e" points="288.411 361.188 288.411 373.859 288.314 373.917 277.322 367.583 288.411 361.188"/>
          <path class="87723b02-dd28-46c1-936e-b484f99dd850" d="M285.208,150.708l-10.323,5.948-3.148-1.808A36.257,36.257,0,0,1,285.208,150.708Z"/>
          <polygon class="df033e72-0bde-45e5-9465-1a567c708a93" points="231.338 146.298 271.3 123.259 276.436 120.309 276.436 126.225 274.184 127.512 249.182 141.924 244.058 144.877 236.365 149.31 224.571 156.102 215.831 161.145 190.83 175.555 185.705 178.507 176.297 183.929 164.149 190.938 139.148 205.348 134.011 208.3 124.614 213.718 111.359 221.361 86.357 235.773 81.22 238.726 71.824 244.144 59.446 251.275 34.443 265.686 29.975 268.261 29.939 268.238 29.939 262.32 29.975 262.345 51.715 249.816 99.259 222.419 231.338 146.298"/>
          <path class="db4f2d87-3f38-4393-864d-4e90563a707b" d="M276.636,120.395l-5.13,2.947-39.915,23.012c10.492-10.014,21.847-22.015,29.386-34.977Z"/>
          <path class="690534cb-4ae7-4c73-8bd8-37cb8f77fcbc" d="M274.885,156.656l-5.131,2.961-3.135-1.808c1.653-1.068,3.366-2.063,5.118-2.961Z"/>
          <path class="690534cb-4ae7-4c73-8bd8-37cb8f77fcbc" d="M249.414,141.985l22.323,12.863c-1.752.9-3.465,1.893-5.118,2.961l-3.661-2.111-5.13-2.948-3.149-1.822L244.3,144.935Z"/>
          <polygon class="9f563f57-8fb1-4832-8331-b750b6aabe9f" points="271.446 373.219 271.446 379.108 260.355 385.517 246.532 393.474 246.497 393.45 246.497 387.576 246.532 387.589 266.337 376.164 271.446 373.219"/>
          <polygon class="87723b02-dd28-46c1-936e-b484f99dd850" points="271.493 373.2 266.374 376.15 246.532 387.597 246.497 387.584 246.497 387.57 244.624 386.492 269.597 372.097 271.493 373.2"/>
          <path class="690534cb-4ae7-4c73-8bd8-37cb8f77fcbc" d="M270.9,281.05l-5.119,2.963-2.371-1.358c1.641-1.07,3.283-2.088,4.925-3.081Z"/>
          <path class="690534cb-4ae7-4c73-8bd8-37cb8f77fcbc" d="M245.925,266.659l22.407,12.914c-1.642.994-3.284,2.012-4.925,3.081l-4.012-2.32-5.119-2.961-3.89-2.233-8.875-5.121-.705-.4Z"/>
          <polygon class="690534cb-4ae7-4c73-8bd8-37cb8f77fcbc" points="267.457 219.569 262.338 222.518 258.131 220.092 253.001 217.142 250.229 215.541 242.448 211.052 241.572 210.554 246.692 207.592 267.457 219.569"/>
          <polygon class="690534cb-4ae7-4c73-8bd8-37cb8f77fcbc" points="266.435 339.268 261.317 342.218 260.259 341.61 255.14 338.662 249.791 335.579 243.141 331.745 248.259 328.797 266.435 339.268"/>
          <polygon class="df033e72-0bde-45e5-9465-1a567c708a93" points="262.958 155.698 234.764 171.936 229.645 168.986 257.828 152.749 262.958 155.698"/>
          <path class="ff420a01-68b2-4c0b-8573-53bf5ceca033" d="M251.663,106l9.314,5.376c-7.539,12.962-18.894,24.963-29.386,34.977L99.665,222.387l-.547-.947c-18.139,0-40.875,9.187-46.941,28.312L30.462,262.265l-.037-.025-7.513-4.331c19.428-33.364,64.218-44.614,97.275-59.129a368.121,368.121,0,0,0,55.525-29.927c14.589-9.307,31.611-18.617,43.355-31.967a53.035,53.035,0,0,0,10.506-18.156l14.722-8.482Z"/>
          <polygon class="d00040aa-bad9-4199-b1a8-18fb58f156f0" points="260.468 385.576 260.468 394.178 242.505 404.506 242.505 391.09 246.664 393.478 246.699 393.502 260.468 385.576"/>
          <polygon class="df033e72-0bde-45e5-9465-1a567c708a93" points="260.259 341.61 238.507 354.148 233.39 351.199 255.14 338.662 260.259 341.61"/>
          <polygon class="df033e72-0bde-45e5-9465-1a567c708a93" points="259.396 280.335 236.758 293.382 231.64 290.421 254.277 277.374 259.396 280.335"/>
          <polygon class="df033e72-0bde-45e5-9465-1a567c708a93" points="258.131 220.092 236.599 232.507 231.469 229.546 253.001 217.142 258.131 220.092"/>
          <polygon class="db4f2d87-3f38-4393-864d-4e90563a707b" points="257.629 152.749 229.447 168.986 215.902 161.184 224.632 156.146 236.317 162.882 236.413 162.822 254.481 152.42 254.481 150.927 257.629 152.749"/>
          <polygon class="db4f2d87-3f38-4393-864d-4e90563a707b" points="255.14 338.662 233.39 351.199 221.39 344.281 234.679 336.625 241.33 340.445 241.426 340.387 249.791 335.579 255.14 338.662"/>
          <polygon class="d00040aa-bad9-4199-b1a8-18fb58f156f0" points="254.481 150.944 254.481 152.428 236.517 162.77 236.517 149.388 244.157 144.986 254.481 150.944"/>
          <polygon class="db4f2d87-3f38-4393-864d-4e90563a707b" points="254.277 277.374 231.64 290.421 218.169 282.667 231.835 274.789 241.414 280.312 241.512 280.252 250.387 275.141 254.277 277.374"/>
          <polygon class="db4f2d87-3f38-4393-864d-4e90563a707b" points="253.001 217.142 231.469 229.546 220.041 222.957 233.694 215.093 242.338 220.081 242.448 220.019 250.229 215.541 253.001 217.142"/>
          <polygon class="d00040aa-bad9-4199-b1a8-18fb58f156f0" points="250.383 275.141 241.507 280.252 241.507 270.02 250.383 275.141"/>
          <polygon class="d00040aa-bad9-4199-b1a8-18fb58f156f0" points="250.286 215.541 242.505 220.019 242.505 211.052 250.286 215.541"/>
          <polygon class="d00040aa-bad9-4199-b1a8-18fb58f156f0" points="249.872 335.579 241.507 340.387 241.507 332.74 243.222 331.745 249.872 335.579"/>
          <path class="df033e72-0bde-45e5-9465-1a567c708a93" d="M247.445,206.063l.475.825-1.228.7-5.12,2.962-7.878,4.539-13.653,7.864L195.069,237.35l-5.13,2.948-1.192.692-6.686,3.859-14.748,8.495L153.5,261.306l-1.3-2.244c-6.675,2.439-12.972,5.374-19.379,8.25l80.7-46.505q.547-.289,1.094-.582C225.147,214.971,236.9,211.33,247.445,206.063Z"/>
          <polygon class="690534cb-4ae7-4c73-8bd8-37cb8f77fcbc" points="246.497 387.611 246.497 393.508 242.304 391.102 224.331 380.749 208.269 371.481 203.127 368.524 200.349 366.917 191.1 361.591 196.243 358.636 218.554 371.493 218.554 372.684 243.291 386.941 243.584 387.112 244.62 386.515 246.497 387.596 246.497 387.611"/>
          <path class="db4f2d87-3f38-4393-864d-4e90563a707b" d="M243.141,297.048l2.2-1.263c-16.45,13.52-30.578,30.1-36.4,48.23l.656,1.142-19.2,11.066-.011.012-9.4-5.412a62.456,62.456,0,0,1,6.6-21.762l3.7-2.123L213.05,314.4l5.119-2.961Z"/>
          <path class="87723b02-dd28-46c1-936e-b484f99dd850" d="M244.3,110.248l-14.722,8.482a39.86,39.86,0,0,0,1.544-6.092l8.668-4.988Z"/>
          <polygon class="be7a5dbc-a759-428b-9344-5db13efc3861" points="243.503 381.063 243.503 387.026 218.554 372.646 218.554 371.445 218.554 366.684 223.741 369.666 243.503 381.063"/>
          <polygon class="87723b02-dd28-46c1-936e-b484f99dd850" points="243.141 297.048 218.169 311.441 193.196 297.058 218.169 282.667 231.64 290.421 236.758 293.382 243.141 297.048"/>
          <polygon class="bb1fe9ba-3bef-4480-9e1d-6d172c345d5e" points="242.505 211.052 242.505 220.019 242.395 220.081 233.751 215.093 241.629 210.554 242.505 211.052"/>
          <polygon class="bb1fe9ba-3bef-4480-9e1d-6d172c345d5e" points="242.505 391.065 242.505 404.582 242.408 404.644 224.542 394.346 224.542 388.89 224.542 380.718 242.505 391.065"/>
          <polygon class="87723b02-dd28-46c1-936e-b484f99dd850" points="241.572 175.855 216.6 190.25 191.13 175.577 216.101 161.184 229.645 168.986 234.764 171.936 241.572 175.855"/>
          <polygon class="bb1fe9ba-3bef-4480-9e1d-6d172c345d5e" points="241.507 270.02 241.507 280.252 241.41 280.312 231.83 274.789 240.802 269.621 241.507 270.02"/>
          <polygon class="bb1fe9ba-3bef-4480-9e1d-6d172c345d5e" points="241.507 332.74 241.507 340.387 241.41 340.445 234.76 336.625 241.507 332.74"/>
          <polygon class="be7a5dbc-a759-428b-9344-5db13efc3861" points="241.507 407.99 241.507 413.898 216.558 399.52 216.558 393.613 221.697 396.566 241.507 407.99"/>
          <polygon class="87723b02-dd28-46c1-936e-b484f99dd850" points="240.806 234.922 215.834 249.315 195.069 237.35 220.041 222.957 231.469 229.546 236.599 232.507 240.806 234.922"/>
          <polygon class="87723b02-dd28-46c1-936e-b484f99dd850" points="233.91 357.948 218.554 366.793 218.554 371.503 196.294 358.676 221.266 344.281 233.266 351.199 238.383 354.148 239.442 354.755 233.91 357.948"/>
          <polygon class="bb1fe9ba-3bef-4480-9e1d-6d172c345d5e" points="236.517 149.362 236.517 162.822 236.42 162.882 224.736 156.146 236.517 149.362"/>
          <path class="87723b02-dd28-46c1-936e-b484f99dd850" d="M214.813,122.043l16.3-9.4a39.86,39.86,0,0,1-1.544,6.092l-10.251,5.911Z"/>
          <path class="db4f2d87-3f38-4393-864d-4e90563a707b" d="M219.323,124.641l10.251-5.911a53.035,53.035,0,0,1-10.506,18.156c-11.745,13.35-28.766,22.659-43.355,31.967a368.121,368.121,0,0,1-55.525,29.927C87.131,213.3,42.341,224.545,22.913,257.909L16.1,253.989l.341-.593c2.408-6.991,6.407-12.83,11.051-18.206l2.3-1.323,21.762-12.537,5.131-2.961,24.959-14.381,22.639-13.046,5.131-2.963,24.96-14.382,1.263-.728c19.879,3.182,40.34-12.061,50.881-29.319l28.292-16.313Z"/>
          <polygon class="690534cb-4ae7-4c73-8bd8-37cb8f77fcbc" points="219.072 124.641 214.562 127.237 214.562 122.043 219.072 124.641"/>
          <polygon class="690534cb-4ae7-4c73-8bd8-37cb8f77fcbc" points="218.169 311.441 213.05 314.402 206.667 310.725 201.549 307.763 197.621 305.519 188.746 300.396 188.077 300.009 193.196 297.058 218.169 311.441"/>
          <polygon class="690534cb-4ae7-4c73-8bd8-37cb8f77fcbc" points="216.6 190.25 211.469 193.209 204.674 189.29 199.554 186.329 198.328 185.625 189.026 180.263 186.011 178.525 191.13 175.577 216.6 190.25"/>
          <polygon class="690534cb-4ae7-4c73-8bd8-37cb8f77fcbc" points="215.834 249.315 210.703 252.276 206.509 249.85 201.379 246.9 196.539 244.097 189.938 240.299 195.069 237.35 215.834 249.315"/>
          <path class="ff420a01-68b2-4c0b-8573-53bf5ceca033" d="M213.524,220.807l-80.7,46.505c-5.264,2.38-10.614,4.71-16.279,6.715-7.3,2.424-13.374,8.091-21.071,9.306-18.614,2.123-11.051-10.17-4.777-20.522l15.342-8.847c-1,8.252,21.411,3.156,26.31,1.055,14.99-5.667,29.994-11.333,44.583-16.989C189.5,233.32,201.706,227.083,213.524,220.807Z"/>
          <polygon class="df033e72-0bde-45e5-9465-1a567c708a93" points="208.163 371.491 187.714 383.288 187.617 383.226 187.617 377.315 187.714 377.377 203.032 368.541 208.163 371.491"/>
          <polygon class="df033e72-0bde-45e5-9465-1a567c708a93" points="206.667 310.725 202.084 313.371 184.917 323.261 179.786 320.311 201.549 307.763 206.667 310.725"/>
          <polygon class="df033e72-0bde-45e5-9465-1a567c708a93" points="206.509 249.85 183.87 262.896 178.741 259.935 201.379 246.9 206.509 249.85"/>
          <polygon class="df033e72-0bde-45e5-9465-1a567c708a93" points="204.674 189.29 183.141 201.695 178.023 198.745 199.554 186.329 204.674 189.29"/>
          <polygon class="db4f2d87-3f38-4393-864d-4e90563a707b" points="202.906 368.541 187.588 377.377 187.491 377.315 167.746 365.932 162.616 362.982 170.652 358.359 170.652 363.372 188.475 373.65 188.573 373.589 200.135 366.938 202.906 368.541"/>
          <polygon class="db4f2d87-3f38-4393-864d-4e90563a707b" points="201.549 307.763 179.786 320.311 166.315 312.546 179.105 305.179 188.649 310.676 188.746 310.618 197.621 305.519 201.549 307.763"/>
          <polygon class="db4f2d87-3f38-4393-864d-4e90563a707b" points="201.379 246.9 178.741 259.935 167.312 253.344 182.06 244.849 188.649 248.648 188.746 248.575 196.539 244.097 201.379 246.9"/>
          <polygon class="d00040aa-bad9-4199-b1a8-18fb58f156f0" points="200.178 366.938 188.615 373.589 188.615 361.319 190.05 362.145 190.062 362.134 190.95 361.624 200.178 366.938"/>
          <polygon class="db4f2d87-3f38-4393-864d-4e90563a707b" points="199.554 186.329 178.023 198.745 164.48 190.942 176.613 183.941 188.929 191.038 189.026 190.978 198.328 185.625 199.554 186.329"/>
          <polygon class="d00040aa-bad9-4199-b1a8-18fb58f156f0" points="197.916 185.625 188.615 190.978 188.615 180.263 197.916 185.625"/>
          <polygon class="d00040aa-bad9-4199-b1a8-18fb58f156f0" points="197.49 305.519 188.615 310.618 188.615 300.396 197.49 305.519"/>
          <polygon class="d00040aa-bad9-4199-b1a8-18fb58f156f0" points="196.408 244.097 188.615 248.575 188.615 240.991 189.807 240.299 196.408 244.097"/>
          <path class="87723b02-dd28-46c1-936e-b484f99dd850" d="M191.287,326.939l-3.7,2.123c.584-1.078,1.215-2.136,1.885-3.168Z"/>
          <path class="be7a5dbc-a759-428b-9344-5db13efc3861" d="M190.611,356.223v5.911l-.011.011-1.435-.825-8.474-4.887q.165-2.789.511-5.608l9.4,5.412Z"/>
          <polygon class="87723b02-dd28-46c1-936e-b484f99dd850" points="189.938 205.613 164.977 220.007 139.507 205.336 164.48 190.942 178.023 198.745 183.141 201.695 189.938 205.613"/>
          <path class="87723b02-dd28-46c1-936e-b484f99dd850" d="M184.917,323.261l4.559,2.633c-.67,1.032-1.3,2.089-1.885,3.168l-21.276,12.27-24.972-14.393,24.972-14.393,13.471,7.765Z"/>
          <polygon class="bb1fe9ba-3bef-4480-9e1d-6d172c345d5e" points="188.615 180.263 188.615 190.978 188.518 191.038 176.202 183.941 185.599 178.525 188.615 180.263"/>
          <polygon class="bb1fe9ba-3bef-4480-9e1d-6d172c345d5e" points="180.121 356.418 188.615 361.317 188.615 373.616 188.517 373.677 170.652 363.374 170.652 358.349 170.652 350.955 180.121 356.418"/>
          <polygon class="bb1fe9ba-3bef-4480-9e1d-6d172c345d5e" points="188.615 300.396 188.615 310.618 188.518 310.676 178.974 305.179 187.946 300.009 188.615 300.396"/>
          <polygon class="bb1fe9ba-3bef-4480-9e1d-6d172c345d5e" points="188.615 240.991 188.615 248.575 188.518 248.648 181.929 244.849 188.615 240.991"/>
          <polygon class="87723b02-dd28-46c1-936e-b484f99dd850" points="188.077 265.324 163.105 279.704 142.34 267.739 153.501 261.306 167.312 253.344 178.741 259.935 183.87 262.896 188.077 265.324"/>
          <polygon class="be7a5dbc-a759-428b-9344-5db13efc3861" points="187.617 377.328 187.617 383.256 162.668 368.881 162.668 362.952 167.814 365.911 187.617 377.328"/>
          <path class="ff420a01-68b2-4c0b-8573-53bf5ceca033" d="M166.315,341.332l21.276-12.27a62.456,62.456,0,0,0-6.6,21.762L170.546,344.8l-5.118-2.961Z"/>
          <path class="ff420a01-68b2-4c0b-8573-53bf5ceca033" d="M186.011,143.839l.511-.289c-10.541,17.258-31,32.5-50.881,29.319l20.268-11.686,5.13-2.95Z"/>
          <polygon class="87723b02-dd28-46c1-936e-b484f99dd850" points="186.011 143.839 161.038 158.234 160.881 158.136 155.761 155.188 180.722 140.795 186.011 143.839"/>
          <path class="be7a5dbc-a759-428b-9344-5db13efc3861" d="M170.78,344.8l10.443,6.019q-.346,2.821-.511,5.608l-9.446-5.451-5.6-3.228v-5.909Z"/>
          <path class="db4f2d87-3f38-4393-864d-4e90563a707b" d="M168.82,304.777l.182.315-32.753,18.873-.255-.145-19.587-11.287-5.13-2.961,1.471-.852c6.468,1.155,12.618,2.453,19.6,2.125C145.318,310.433,156.26,307.605,168.82,304.777Z"/>
          <polygon class="690534cb-4ae7-4c73-8bd8-37cb8f77fcbc" points="166.534 341.257 165.662 341.76 165.662 346.555 155.225 340.541 150.193 337.64 147.766 336.246 136.721 329.875 136.721 329.851 136.972 329.992 141.981 327.105 166.534 341.257"/>
          <polygon class="690534cb-4ae7-4c73-8bd8-37cb8f77fcbc" points="164.977 220.007 159.848 222.957 153.05 219.036 147.92 216.088 144.638 214.193 135.337 208.831 134.377 208.284 139.507 205.336 164.977 220.007"/>
          <polygon class="690534cb-4ae7-4c73-8bd8-37cb8f77fcbc" points="163.105 279.704 157.975 282.667 153.768 280.238 148.65 277.289 143.774 274.473 137.209 270.689 142.34 267.739 163.105 279.704"/>
          <polygon class="690534cb-4ae7-4c73-8bd8-37cb8f77fcbc" points="160.959 158.234 155.829 161.184 155.682 161.097 155.682 155.188 160.802 158.136 160.959 158.234"/>
          <polygon class="df033e72-0bde-45e5-9465-1a567c708a93" points="154.627 340.605 134.725 352.086 134.725 346.174 149.509 337.654 154.627 340.605"/>
          <polygon class="df033e72-0bde-45e5-9465-1a567c708a93" points="153.768 280.238 132.017 292.777 126.899 289.826 148.65 277.289 153.768 280.238"/>
          <path class="df033e72-0bde-45e5-9465-1a567c708a93" d="M152.171,259.062l1.3,2.244-11.161,6.433-5.131,2.95-1.216.716-6.662,3.834-13.873,8L90.458,297.618l-3.635,2.1v-5.911l45.969-26.5C139.2,264.436,145.5,261.5,152.171,259.062Z"/>
          <polygon class="df033e72-0bde-45e5-9465-1a567c708a93" points="153.05 219.036 130.412 232.082 125.282 229.132 147.92 216.088 153.05 219.036"/>
          <polygon class="db4f2d87-3f38-4393-864d-4e90563a707b" points="149.297 337.654 134.513 346.174 134.318 346.283 114.476 334.853 109.346 331.89 116.762 327.621 116.762 333.006 134.585 343.275 134.683 343.213 146.828 336.236 149.297 337.654"/>
          <polygon class="db4f2d87-3f38-4393-864d-4e90563a707b" points="148.65 277.289 126.899 289.826 115.458 283.237 129.331 275.238 135.895 279.014 135.993 278.952 143.774 274.473 148.65 277.289"/>
          <polygon class="db4f2d87-3f38-4393-864d-4e90563a707b" points="147.92 216.088 125.282 229.132 111.751 221.329 124.991 213.696 135.239 219.608 135.337 219.546 144.638 214.193 147.92 216.088"/>
          <polygon class="d00040aa-bad9-4199-b1a8-18fb58f156f0" points="146.871 336.236 134.725 343.213 134.725 329.232 135.637 329.757 146.871 336.236"/>
          <polygon class="d00040aa-bad9-4199-b1a8-18fb58f156f0" points="145.024 214.193 135.723 219.546 135.723 208.831 145.024 214.193"/>
          <polygon class="d00040aa-bad9-4199-b1a8-18fb58f156f0" points="143.504 274.473 135.723 278.952 135.723 271.405 136.939 270.689 143.504 274.473"/>
          <polygon class="87723b02-dd28-46c1-936e-b484f99dd850" points="137.209 236.002 112.236 250.396 86.778 235.724 111.751 221.329 125.282 229.132 130.412 232.082 137.209 236.002"/>
          <path class="87723b02-dd28-46c1-936e-b484f99dd850" d="M136.139,295.155l.084.048-23.476,13.518c-1.386-.241-2.785-.485-4.218-.7l-18.043-10.4,24.973-14.381,11.441,6.589,5.118,2.95Z"/>
          <polygon class="690534cb-4ae7-4c73-8bd8-37cb8f77fcbc" points="108.08 307.934 110.774 309.492 110.774 315.415 135.723 329.799 135.723 329.687 134.816 329.165 116.983 318.889 101.824 310.145 96.719 307.209 95.206 306.341 86.823 301.511 86.823 299.794 90.387 297.734 108.08 307.934"/>
          <polygon class="be7a5dbc-a759-428b-9344-5db13efc3861" points="135.723 323.86 135.723 329.826 110.774 315.443 110.774 309.514 110.774 309.478 115.952 312.467 135.723 323.86"/>
          <polygon class="bb1fe9ba-3bef-4480-9e1d-6d172c345d5e" points="135.723 271.405 135.723 278.952 135.625 279.014 129.061 275.238 135.723 271.405"/>
          <polygon class="bb1fe9ba-3bef-4480-9e1d-6d172c345d5e" points="135.723 208.831 135.723 219.546 135.625 219.608 125.377 213.696 134.763 208.284 135.723 208.831"/>
          <polygon class="bb1fe9ba-3bef-4480-9e1d-6d172c345d5e" points="134.725 329.228 134.725 343.242 134.627 343.304 116.762 333.01 116.762 327.613 116.762 318.876 134.725 329.228"/>
          <polygon class="be7a5dbc-a759-428b-9344-5db13efc3861" points="134.725 346.138 134.725 351.999 134.532 352.106 109.776 337.838 109.776 331.978 114.862 334.915 134.532 346.247 134.725 346.138"/>
          <polygon class="87723b02-dd28-46c1-936e-b484f99dd850" points="131.459 171.91 134.377 173.597 109.417 187.98 107.191 186.705 102.06 183.756 127.033 169.365 131.459 171.91"/>
          <path class="db4f2d87-3f38-4393-864d-4e90563a707b" d="M132.82,267.312l-45.969,26.5-.037.025L66.972,282.387l-5.118-2.948,23.5-13.557,5.338-3.071c-6.274,10.352-13.836,22.645,4.777,20.522,7.7-1.215,13.775-6.881,21.071-9.306C122.207,272.023,127.556,269.692,132.82,267.312Z"/>
          <path class="87723b02-dd28-46c1-936e-b484f99dd850" d="M113.243,308.721l-1.471.852v.035l-2.747-1.588C110.458,308.236,111.857,308.48,113.243,308.721Z"/>
          <polygon class="690534cb-4ae7-4c73-8bd8-37cb8f77fcbc" points="106.28 252.859 100.309 249.424 95.19 246.475 91.872 244.557 82.572 239.206 81.647 238.675 86.778 235.724 112.236 250.396 107.119 253.344 106.28 252.859"/>
          <polygon class="690534cb-4ae7-4c73-8bd8-37cb8f77fcbc" points="109.149 187.98 104.018 190.942 101.792 189.653 101.792 183.756 106.924 186.705 109.149 187.98"/>
          <polygon class="df033e72-0bde-45e5-9465-1a567c708a93" points="102.075 310.118 81.833 321.781 81.833 315.87 96.945 307.168 102.075 310.118"/>
          <polygon class="df033e72-0bde-45e5-9465-1a567c708a93" points="100.309 249.424 78.558 261.975 73.44 259.013 95.19 246.475 100.309 249.424"/>
          <path class="db4f2d87-3f38-4393-864d-4e90563a707b" d="M99.118,221.439l.547.947L52.177,249.751C58.243,230.626,80.979,221.439,99.118,221.439Z"/>
          <polygon class="db4f2d87-3f38-4393-864d-4e90563a707b" points="96.384 307.168 81.272 315.87 81.21 315.907 61.37 304.475 56.239 301.526 66.864 295.397 66.864 301.609 84.699 312.484 84.798 312.411 94.863 306.295 96.384 307.168"/>
          <polygon class="d00040aa-bad9-4199-b1a8-18fb58f156f0" points="94.893 306.295 84.827 312.411 84.827 300.494 86.468 301.441 94.893 306.295"/>
          <polygon class="db4f2d87-3f38-4393-864d-4e90563a707b" points="95.19 246.475 73.44 259.013 59.898 251.209 72.262 244.086 82.474 249.971 82.572 249.911 91.872 244.557 95.19 246.475"/>
          <polygon class="d00040aa-bad9-4199-b1a8-18fb58f156f0" points="92.131 244.557 82.831 249.911 82.831 239.206 92.131 244.557"/>
          <polygon class="690534cb-4ae7-4c73-8bd8-37cb8f77fcbc" points="86.823 299.705 86.823 301.286 85.197 300.347 67.435 290.106 48.806 279.373 43.726 276.44 42.004 275.453 32.286 269.851 30.937 269.072 30.937 268.233 30.973 268.256 35.365 265.725 61.874 281.003 61.874 285.362 86.786 299.728 86.823 299.705"/>
          <polygon class="be7a5dbc-a759-428b-9344-5db13efc3861" points="86.823 293.799 86.823 299.699 86.786 299.722 61.874 285.356 61.874 281.141 61.874 279.458 66.982 282.401 86.786 293.824 86.823 293.799"/>
          <polygon class="87723b02-dd28-46c1-936e-b484f99dd850" points="85.375 265.882 61.874 279.439 61.874 281.125 34.944 265.603 59.917 251.209 73.46 259.013 78.578 261.975 85.375 265.882"/>
          <polygon class="bb1fe9ba-3bef-4480-9e1d-6d172c345d5e" points="84.827 300.493 84.827 312.429 84.728 312.502 66.864 301.61 66.864 295.388 66.864 290.136 84.827 300.493"/>
          <polygon class="bb1fe9ba-3bef-4480-9e1d-6d172c345d5e" points="82.831 239.206 82.831 249.911 82.732 249.971 72.52 244.086 81.906 238.675 82.831 239.206"/>
          <polygon class="be7a5dbc-a759-428b-9344-5db13efc3861" points="81.833 315.856 81.833 321.747 81.771 321.784 56.884 307.437 56.884 301.56 61.997 304.499 81.771 315.893 81.833 315.856"/>
          <polygon class="87723b02-dd28-46c1-936e-b484f99dd850" points="81.647 203.988 56.688 218.369 54.437 217.083 49.307 214.12 74.28 199.74 81.647 203.988"/>
          <polygon class="690534cb-4ae7-4c73-8bd8-37cb8f77fcbc" points="56.281 218.369 51.15 221.329 48.9 220.032 48.9 214.12 54.031 217.083 56.281 218.369"/>
          <polygon class="df033e72-0bde-45e5-9465-1a567c708a93" points="48.416 279.317 27.992 291.089 27.943 291.064 27.943 285.155 27.992 285.178 43.286 276.356 48.416 279.317"/>
          <polygon class="db4f2d87-3f38-4393-864d-4e90563a707b" points="43.442 276.356 28.147 285.178 28.099 285.155 8.305 273.746 3.175 270.787 13.971 264.571 13.971 270.787 31.795 281.064 31.892 281.004 41.703 275.359 43.442 276.356"/>
          <polygon class="d00040aa-bad9-4199-b1a8-18fb58f156f0" points="41.746 275.359 31.935 281.004 31.935 269.703 41.746 275.359"/>
          <polygon class="bb1fe9ba-3bef-4480-9e1d-6d172c345d5e" points="20.333 263.013 30.569 268.914 31.935 269.702 31.935 281.03 31.837 281.09 13.971 270.788 13.971 264.558 13.971 259.352 20.333 263.013"/>
          <path class="690534cb-4ae7-4c73-8bd8-37cb8f77fcbc" d="M29.939,268.152v.765L19.727,263.03c.1-.207.182-.4.292-.595Z"/>
          <path class="be7a5dbc-a759-428b-9344-5db13efc3861" d="M29.939,262.241v5.911l-9.92-5.716c.741-1.555,1.543-3.072,2.407-4.526Z"/>
          <path class="87723b02-dd28-46c1-936e-b484f99dd850" d="M29.794,233.867l-2.3,1.323c.512-.595,1.022-1.176,1.544-1.76Z"/>
          <path class="87723b02-dd28-46c1-936e-b484f99dd850" d="M25.89,231.331l3.647,2.1c-.522.584-1.033,1.165-1.544,1.76l-22,12.681v.767l-5.07-2.915Z"/>
          <polygon class="be7a5dbc-a759-428b-9344-5db13efc3861" points="27.943 285.159 27.943 291.075 2.994 276.691 2.994 270.776 8.13 273.738 27.943 285.159"/>
          <path class="ff420a01-68b2-4c0b-8573-53bf5ceca033" d="M5.49,247.871l22-12.681c-4.644,5.376-8.643,11.215-11.051,18.206l-.341.593-5.483-3.17Z"/>
          <path class="be7a5dbc-a759-428b-9344-5db13efc3861" d="M16.6,253.989l6.809,3.921c-.864,1.454-1.667,2.971-2.407,4.526L5.988,253.781v-5.911l5.13,2.948Z"/>
          <path class="690534cb-4ae7-4c73-8bd8-37cb8f77fcbc" d="M4.99,253.791l14.777,8.517c-.108.192-.191.382-.287.586l-6.246-3.6L0,251.666v-5.807l4.99,2.869Z"/>
        </g>
      </g>
      <g>
        <ellipse class="361d8a33-8ab6-4683-9481-9a807e68a43c" cx="234.679" cy="365.699" rx="3.326" ry="1.838"/>
        <ellipse class="e128f696-58d3-47d8-a840-8f5ab5cf2d8b" cx="234.852" cy="365.91" rx="2.944" ry="1.626"/>
        <ellipse class="5f9f317f-c6be-4eb9-bdff-642250702704" cx="234.853" cy="365.812" rx="2.564" ry="1.418"/>
      </g>
      <g>
        <ellipse class="361d8a33-8ab6-4683-9481-9a807e68a43c" cx="244.685" cy="371.503" rx="3.326" ry="1.837"/>
        <ellipse class="e128f696-58d3-47d8-a840-8f5ab5cf2d8b" cx="244.858" cy="371.714" rx="2.944" ry="1.626"/>
        <ellipse class="5f9f317f-c6be-4eb9-bdff-642250702704" cx="244.858" cy="371.615" rx="2.564" ry="1.418"/>
      </g>
      <g>
        <ellipse class="361d8a33-8ab6-4683-9481-9a807e68a43c" cx="284.325" cy="335.183" rx="3.327" ry="1.837"/>
        <ellipse class="e128f696-58d3-47d8-a840-8f5ab5cf2d8b" cx="284.497" cy="335.394" rx="2.944" ry="1.626"/>
        <ellipse class="5f9f317f-c6be-4eb9-bdff-642250702704" cx="284.498" cy="335.296" rx="2.564" ry="1.417"/>
      </g>
      <g>
        <ellipse class="361d8a33-8ab6-4683-9481-9a807e68a43c" cx="294.332" cy="340.987" rx="3.326" ry="1.837"/>
        <ellipse class="e128f696-58d3-47d8-a840-8f5ab5cf2d8b" cx="294.504" cy="341.199" rx="2.944" ry="1.626"/>
        <ellipse class="5f9f317f-c6be-4eb9-bdff-642250702704" cx="294.504" cy="341.1" rx="2.564" ry="1.417"/>
      </g>
      <g>
        <ellipse class="361d8a33-8ab6-4683-9481-9a807e68a43c" cx="341.292" cy="303.446" rx="3.326" ry="1.839"/>
        <ellipse class="e128f696-58d3-47d8-a840-8f5ab5cf2d8b" cx="341.465" cy="303.657" rx="2.944" ry="1.627"/>
        <ellipse class="5f9f317f-c6be-4eb9-bdff-642250702704" cx="341.464" cy="303.56" rx="2.564" ry="1.418"/>
      </g>
      <g>
        <ellipse class="361d8a33-8ab6-4683-9481-9a807e68a43c" cx="351.298" cy="309.25" rx="3.326" ry="1.838"/>
        <ellipse class="e128f696-58d3-47d8-a840-8f5ab5cf2d8b" cx="351.47" cy="309.461" rx="2.945" ry="1.627"/>
        <ellipse class="5f9f317f-c6be-4eb9-bdff-642250702704" cx="351.47" cy="309.363" rx="2.565" ry="1.418"/>
      </g>
      <g>
        <ellipse class="361d8a33-8ab6-4683-9481-9a807e68a43c" cx="392.68" cy="274.472" rx="3.326" ry="1.839"/>
        <ellipse class="e128f696-58d3-47d8-a840-8f5ab5cf2d8b" cx="392.856" cy="274.684" rx="2.947" ry="1.628"/>
        <ellipse class="5f9f317f-c6be-4eb9-bdff-642250702704" cx="392.856" cy="274.585" rx="2.563" ry="1.417"/>
      </g>
      <g>
        <ellipse class="361d8a33-8ab6-4683-9481-9a807e68a43c" cx="402.688" cy="280.276" rx="3.324" ry="1.838"/>
        <ellipse class="e128f696-58d3-47d8-a840-8f5ab5cf2d8b" cx="402.862" cy="280.488" rx="2.945" ry="1.627"/>
        <ellipse class="5f9f317f-c6be-4eb9-bdff-642250702704" cx="402.862" cy="280.39" rx="2.565" ry="1.417"/>
      </g>
      <g>
        <ellipse class="361d8a33-8ab6-4683-9481-9a807e68a43c" cx="454.171" cy="239.982" rx="3.324" ry="1.838"/>
        <ellipse class="e128f696-58d3-47d8-a840-8f5ab5cf2d8b" cx="454.345" cy="240.192" rx="2.945" ry="1.627"/>
        <ellipse class="5f9f317f-c6be-4eb9-bdff-642250702704" cx="454.346" cy="240.094" rx="2.563" ry="1.418"/>
      </g>
      <g>
        <ellipse class="361d8a33-8ab6-4683-9481-9a807e68a43c" cx="464.178" cy="245.786" rx="3.326" ry="1.837"/>
        <ellipse class="e128f696-58d3-47d8-a840-8f5ab5cf2d8b" cx="464.352" cy="245.996" rx="2.945" ry="1.626"/>
        <ellipse class="5f9f317f-c6be-4eb9-bdff-642250702704" cx="464.352" cy="245.898" rx="2.565" ry="1.417"/>
      </g>
      <g>
        <ellipse class="361d8a33-8ab6-4683-9481-9a807e68a43c" cx="182.587" cy="339.922" rx="3.326" ry="1.837"/>
        <ellipse class="e128f696-58d3-47d8-a840-8f5ab5cf2d8b" cx="182.76" cy="340.134" rx="2.944" ry="1.627"/>
        <ellipse class="5f9f317f-c6be-4eb9-bdff-642250702704" cx="182.76" cy="340.037" rx="2.565" ry="1.417"/>
      </g>
      <g>
        <ellipse class="361d8a33-8ab6-4683-9481-9a807e68a43c" cx="192.594" cy="345.726" rx="3.326" ry="1.838"/>
        <ellipse class="e128f696-58d3-47d8-a840-8f5ab5cf2d8b" cx="192.767" cy="345.937" rx="2.944" ry="1.627"/>
        <ellipse class="5f9f317f-c6be-4eb9-bdff-642250702704" cx="192.767" cy="345.84" rx="2.565" ry="1.418"/>
      </g>
      <g>
        <ellipse class="361d8a33-8ab6-4683-9481-9a807e68a43c" cx="128.7" cy="307.775" rx="3.326" ry="1.838"/>
        <ellipse class="e128f696-58d3-47d8-a840-8f5ab5cf2d8b" cx="128.874" cy="307.986" rx="2.944" ry="1.627"/>
        <ellipse class="5f9f317f-c6be-4eb9-bdff-642250702704" cx="128.874" cy="307.888" rx="2.565" ry="1.417"/>
      </g>
      <g>
        <ellipse class="361d8a33-8ab6-4683-9481-9a807e68a43c" cx="138.708" cy="313.578" rx="3.326" ry="1.838"/>
        <ellipse class="e128f696-58d3-47d8-a840-8f5ab5cf2d8b" cx="138.88" cy="313.79" rx="2.944" ry="1.627"/>
        <ellipse class="5f9f317f-c6be-4eb9-bdff-642250702704" cx="138.881" cy="313.692" rx="2.565" ry="1.417"/>
      </g>
      <g>
        <ellipse class="361d8a33-8ab6-4683-9481-9a807e68a43c" cx="77.567" cy="278.022" rx="3.326" ry="1.838"/>
        <ellipse class="e128f696-58d3-47d8-a840-8f5ab5cf2d8b" cx="77.74" cy="278.233" rx="2.944" ry="1.627"/>
        <ellipse class="5f9f317f-c6be-4eb9-bdff-642250702704" cx="77.74" cy="278.136" rx="2.565" ry="1.417"/>
      </g>
      <g>
        <ellipse class="361d8a33-8ab6-4683-9481-9a807e68a43c" cx="87.574" cy="283.826" rx="3.326" ry="1.838"/>
        <ellipse class="e128f696-58d3-47d8-a840-8f5ab5cf2d8b" cx="87.746" cy="284.037" rx="2.944" ry="1.626"/>
        <ellipse class="5f9f317f-c6be-4eb9-bdff-642250702704" cx="87.748" cy="283.94" rx="2.564" ry="1.418"/>
      </g>
      <g>
        <ellipse class="361d8a33-8ab6-4683-9481-9a807e68a43c" cx="22.492" cy="245.746" rx="3.326" ry="1.837"/>
        <ellipse class="e128f696-58d3-47d8-a840-8f5ab5cf2d8b" cx="22.664" cy="245.958" rx="2.944" ry="1.626"/>
        <ellipse class="5f9f317f-c6be-4eb9-bdff-642250702704" cx="22.664" cy="245.86" rx="2.564" ry="1.417"/>
      </g>
      <g>
        <ellipse class="361d8a33-8ab6-4683-9481-9a807e68a43c" cx="32.499" cy="251.55" rx="3.326" ry="1.838"/>
        <ellipse class="e128f696-58d3-47d8-a840-8f5ab5cf2d8b" cx="32.671" cy="251.761" rx="2.945" ry="1.627"/>
        <ellipse class="5f9f317f-c6be-4eb9-bdff-642250702704" cx="32.671" cy="251.663" rx="2.564" ry="1.418"/>
      </g>
      <g>
        <ellipse class="361d8a33-8ab6-4683-9481-9a807e68a43c" cx="82.572" cy="217.725" rx="3.326" ry="1.837"/>
        <ellipse class="e128f696-58d3-47d8-a840-8f5ab5cf2d8b" cx="82.744" cy="217.936" rx="2.944" ry="1.626"/>
        <ellipse class="5f9f317f-c6be-4eb9-bdff-642250702704" cx="82.745" cy="217.839" rx="2.564" ry="1.418"/>
      </g>
      <g>
        <ellipse class="361d8a33-8ab6-4683-9481-9a807e68a43c" cx="190.4" cy="158.186" rx="3.325" ry="1.838"/>
        <ellipse class="e128f696-58d3-47d8-a840-8f5ab5cf2d8b" cx="190.572" cy="158.397" rx="2.944" ry="1.627"/>
        <ellipse class="5f9f317f-c6be-4eb9-bdff-642250702704" cx="190.572" cy="158.298" rx="2.564" ry="1.416"/>
      </g>
      <g>
        <ellipse class="361d8a33-8ab6-4683-9481-9a807e68a43c" cx="137.209" cy="187.276" rx="3.326" ry="1.838"/>
        <ellipse class="e128f696-58d3-47d8-a840-8f5ab5cf2d8b" cx="137.381" cy="187.487" rx="2.944" ry="1.628"/>
        <ellipse class="5f9f317f-c6be-4eb9-bdff-642250702704" cx="137.382" cy="187.388" rx="2.564" ry="1.417"/>
      </g>
      <g>
        <ellipse class="361d8a33-8ab6-4683-9481-9a807e68a43c" cx="137.382" cy="248.865" rx="3.326" ry="1.839"/>
        <ellipse class="e128f696-58d3-47d8-a840-8f5ab5cf2d8b" cx="137.554" cy="249.077" rx="2.944" ry="1.628"/>
        <ellipse class="5f9f317f-c6be-4eb9-bdff-642250702704" cx="137.554" cy="248.977" rx="2.564" ry="1.417"/>
      </g>
      <g>
        <ellipse class="361d8a33-8ab6-4683-9481-9a807e68a43c" cx="192.594" cy="219.547" rx="3.326" ry="1.837"/>
        <ellipse class="e128f696-58d3-47d8-a840-8f5ab5cf2d8b" cx="192.766" cy="219.757" rx="2.944" ry="1.626"/>
        <ellipse class="5f9f317f-c6be-4eb9-bdff-642250702704" cx="192.767" cy="219.66" rx="2.564" ry="1.417"/>
      </g>
      <g>
        <ellipse class="361d8a33-8ab6-4683-9481-9a807e68a43c" cx="244.685" cy="190.977" rx="3.326" ry="1.839"/>
        <ellipse class="e128f696-58d3-47d8-a840-8f5ab5cf2d8b" cx="244.858" cy="191.189" rx="2.944" ry="1.627"/>
        <ellipse class="5f9f317f-c6be-4eb9-bdff-642250702704" cx="244.858" cy="191.09" rx="2.564" ry="1.418"/>
      </g>
      <g>
        <ellipse class="361d8a33-8ab6-4683-9481-9a807e68a43c" cx="244.788" cy="120.477" rx="3.326" ry="1.837"/>
        <ellipse class="e128f696-58d3-47d8-a840-8f5ab5cf2d8b" cx="244.96" cy="120.688" rx="2.945" ry="1.626"/>
        <ellipse class="5f9f317f-c6be-4eb9-bdff-642250702704" cx="244.961" cy="120.59" rx="2.564" ry="1.417"/>
      </g>
      <g>
        <ellipse class="361d8a33-8ab6-4683-9481-9a807e68a43c" cx="254.794" cy="126.281" rx="3.326" ry="1.838"/>
        <ellipse class="e128f696-58d3-47d8-a840-8f5ab5cf2d8b" cx="254.967" cy="126.493" rx="2.944" ry="1.626"/>
        <ellipse class="5f9f317f-c6be-4eb9-bdff-642250702704" cx="254.967" cy="126.393" rx="2.564" ry="1.417"/>
      </g>
      <g>
        <ellipse class="361d8a33-8ab6-4683-9481-9a807e68a43c" cx="304.348" cy="149.847" rx="3.326" ry="1.838"/>
        <ellipse class="e128f696-58d3-47d8-a840-8f5ab5cf2d8b" cx="304.521" cy="150.059" rx="2.945" ry="1.627"/>
        <ellipse class="5f9f317f-c6be-4eb9-bdff-642250702704" cx="304.521" cy="149.959" rx="2.565" ry="1.418"/>
      </g>
      <g>
        <ellipse class="361d8a33-8ab6-4683-9481-9a807e68a43c" cx="314.355" cy="155.65" rx="3.326" ry="1.837"/>
        <ellipse class="e128f696-58d3-47d8-a840-8f5ab5cf2d8b" cx="314.527" cy="155.862" rx="2.944" ry="1.626"/>
        <ellipse class="5f9f317f-c6be-4eb9-bdff-642250702704" cx="314.529" cy="155.764" rx="2.564" ry="1.418"/>
      </g>
      <g>
        <ellipse class="361d8a33-8ab6-4683-9481-9a807e68a43c" cx="352.256" cy="179.191" rx="3.326" ry="1.838"/>
        <ellipse class="e128f696-58d3-47d8-a840-8f5ab5cf2d8b" cx="352.428" cy="179.403" rx="2.945" ry="1.626"/>
        <ellipse class="5f9f317f-c6be-4eb9-bdff-642250702704" cx="352.43" cy="179.305" rx="2.565" ry="1.417"/>
      </g>
      <g>
        <ellipse class="361d8a33-8ab6-4683-9481-9a807e68a43c" cx="362.261" cy="184.996" rx="3.326" ry="1.838"/>
        <ellipse class="e128f696-58d3-47d8-a840-8f5ab5cf2d8b" cx="362.434" cy="185.207" rx="2.947" ry="1.627"/>
        <ellipse class="5f9f317f-c6be-4eb9-bdff-642250702704" cx="362.437" cy="185.108" rx="2.565" ry="1.417"/>
      </g>
      <g>
        <ellipse class="361d8a33-8ab6-4683-9481-9a807e68a43c" cx="408.519" cy="211.285" rx="3.326" ry="1.837"/>
        <ellipse class="e128f696-58d3-47d8-a840-8f5ab5cf2d8b" cx="408.692" cy="211.497" rx="2.945" ry="1.627"/>
        <ellipse class="5f9f317f-c6be-4eb9-bdff-642250702704" cx="408.693" cy="211.397" rx="2.565" ry="1.418"/>
      </g>
      <g>
        <ellipse class="361d8a33-8ab6-4683-9481-9a807e68a43c" cx="418.524" cy="217.09" rx="3.326" ry="1.836"/>
        <ellipse class="e128f696-58d3-47d8-a840-8f5ab5cf2d8b" cx="418.698" cy="217.301" rx="2.947" ry="1.625"/>
        <ellipse class="5f9f317f-c6be-4eb9-bdff-642250702704" cx="418.698" cy="217.203" rx="2.563" ry="1.417"/>
      </g>
      <g>
        <ellipse class="361d8a33-8ab6-4683-9481-9a807e68a43c" cx="351.821" cy="249.96" rx="3.326" ry="1.835"/>
        <ellipse class="e128f696-58d3-47d8-a840-8f5ab5cf2d8b" cx="351.993" cy="250.17" rx="2.946" ry="1.625"/>
        <ellipse class="5f9f317f-c6be-4eb9-bdff-642250702704" cx="351.993" cy="250.073" rx="2.563" ry="1.417"/>
      </g>
      <g>
        <ellipse class="361d8a33-8ab6-4683-9481-9a807e68a43c" cx="301" cy="279.705" rx="3.327" ry="1.837"/>
        <ellipse class="e128f696-58d3-47d8-a840-8f5ab5cf2d8b" cx="301.173" cy="279.916" rx="2.944" ry="1.627"/>
        <ellipse class="5f9f317f-c6be-4eb9-bdff-642250702704" cx="301.172" cy="279.817" rx="2.564" ry="1.416"/>
      </g>
      <g>
        <ellipse class="361d8a33-8ab6-4683-9481-9a807e68a43c" cx="245.949" cy="310.78" rx="3.327" ry="1.837"/>
        <ellipse class="e128f696-58d3-47d8-a840-8f5ab5cf2d8b" cx="246.121" cy="310.991" rx="2.945" ry="1.626"/>
        <ellipse class="5f9f317f-c6be-4eb9-bdff-642250702704" cx="246.121" cy="310.893" rx="2.564" ry="1.418"/>
      </g>
      <g>
        <ellipse class="361d8a33-8ab6-4683-9481-9a807e68a43c" cx="191.129" cy="279.572" rx="3.327" ry="1.838"/>
        <ellipse class="e128f696-58d3-47d8-a840-8f5ab5cf2d8b" cx="191.302" cy="279.783" rx="2.945" ry="1.626"/>
        <ellipse class="5f9f317f-c6be-4eb9-bdff-642250702704" cx="191.302" cy="279.685" rx="2.565" ry="1.417"/>
      </g>
      <g>
        <ellipse class="361d8a33-8ab6-4683-9481-9a807e68a43c" cx="243.359" cy="250.17" rx="3.326" ry="1.837"/>
        <ellipse class="e128f696-58d3-47d8-a840-8f5ab5cf2d8b" cx="243.532" cy="250.381" rx="2.944" ry="1.626"/>
        <ellipse class="5f9f317f-c6be-4eb9-bdff-642250702704" cx="243.534" cy="250.282" rx="2.565" ry="1.417"/>
      </g>
      <g>
        <ellipse class="361d8a33-8ab6-4683-9481-9a807e68a43c" cx="297.069" cy="221.202" rx="3.326" ry="1.836"/>
        <ellipse class="e128f696-58d3-47d8-a840-8f5ab5cf2d8b" cx="297.242" cy="221.413" rx="2.944" ry="1.626"/>
        <ellipse class="5f9f317f-c6be-4eb9-bdff-642250702704" cx="297.242" cy="221.315" rx="2.564" ry="1.416"/>
      </g>
    </g>
    <g id="905e5cce-b16f-4610-b579-9245cc486185" data-name="car3 0 Layer12 0 FILL">
      <path class="8522e87b-999f-4921-afee-363f3e8fed76" d="M290.9,223.494q-11.819-6.763-17.993-14.847A31.753,31.753,0,0,1,266,190.366v62.346q1.319,18.757,24.746,32.388,25.538,14.847,62.42,14.9,24.008,0,43.689-6.234a109.072,109.072,0,0,0,20-8.612q12.241-6.816,19.048-14.952a36.966,36.966,0,0,0,7.387-13.737V195.809a36.156,36.156,0,0,1-3.957,8.559,38.3,38.3,0,0,1-3.113,4.227q-6.859,8.083-19.048,14.847-26.7,14.847-63.687,14.847Q316.6,238.235,290.9,223.494Z"/>
      <path class="137df441-73e0-45be-9252-4dd0dc86e024" d="M280.3,142.233q-11.925-9.775-14.3-21.715v69.848a31.753,31.753,0,0,0,6.912,18.281q6.173,8.084,17.993,14.847,25.7,14.741,62.579,14.794,36.988,0,63.687-14.847,12.189-6.763,19.048-14.847a38.3,38.3,0,0,0,3.113-4.227,36.156,36.156,0,0,0,3.957-8.559V118.088q-2.216,11.254-12.294,20.606-1.319,1.215-2.8,2.43a80.9,80.9,0,0,1-11.872,7.925,2.789,2.789,0,0,0-.422.264l-1.583.845a113.3,113.3,0,0,1-11.081,5.072q-22.319,8.665-50.6,8.665-32.133-.053-55.666-11.254-1.319-.687-2.585-1.321-2.111-1.109-4.168-2.325a81.151,81.151,0,0,1-9.92-6.763"/>
      <path class="2fa1056f-9603-4d3c-9b86-6e65ad2add67" d="M296.973,90.243q-3.43-1.638-6.648-3.54-3.272-1.9-6.121-3.91a54.407,54.407,0,0,1-11.4-10.514A32.538,32.538,0,0,1,266,57.7v62.821q2.374,11.941,14.3,21.715a81.151,81.151,0,0,0,9.92,6.763q2.058,1.215,4.168,2.325,1.267.634,2.585,1.321,23.533,11.2,55.666,11.254,28.282,0,50.6-8.665a113.3,113.3,0,0,0,11.081-5.072l1.583-.845a2.789,2.789,0,0,1,.422-.264,80.9,80.9,0,0,0,11.872-7.925q1.477-1.215,2.8-2.43,10.078-9.352,12.294-20.606V56.323a34.874,34.874,0,0,1-4.96,11.729,48.64,48.64,0,0,1-3.113,4.121q-.528.581-1,1.109a59.245,59.245,0,0,1-8.865,7.873,92.39,92.39,0,0,1-8.917,5.6l-2.111,1.162q-5.382,2.747-11.081,5.019-22.266,8.665-50.5,8.665Q320.505,101.55,296.973,90.243Z"/>
      <path class="187c5769-c086-408d-b55b-4cc7721c4c71" d="M419.281,14.9q-2.427-1.426-4.96-2.694A97.137,97.137,0,0,0,403.24,7.45,125.11,125.11,0,0,0,368.785.423Q362.928,0,356.755,0a158.4,158.4,0,0,0-25.063,1.9,117.933,117.933,0,0,0-34.719,10.99q-1.952.951-3.852,2.008Q269.218,28.161,266,46.5V57.7a32.538,32.538,0,0,0,6.807,14.583,54.407,54.407,0,0,0,11.4,10.514q2.85,2.007,6.121,3.91,3.219,1.9,6.648,3.54,23.533,11.306,55.772,11.359,28.229,0,50.5-8.665,5.7-2.271,11.081-5.019l2.111-1.162a92.39,92.39,0,0,0,8.917-5.6,59.245,59.245,0,0,0,8.865-7.873q.475-.528,1-1.109a48.64,48.64,0,0,0,3.113-4.121,34.874,34.874,0,0,0,4.96-11.729,32.724,32.724,0,0,0,.686-5.548q.528-13.473-9.761-24.41A65.339,65.339,0,0,0,419.281,14.9m-7.018,6.182q1.055.528,2.058,1.11,15.618,8.559,20.05,19.6a24.221,24.221,0,0,1,1.583,11.782A25.975,25.975,0,0,1,429.306,68a54.412,54.412,0,0,1-14.985,11.465q-1,.528-2.058,1.057-23.8,12.311-57.461,12.311-33.716,0-57.566-12.311-20.42-10.567-23.322-24.885-.211-1.057-.316-2.061a23.984,23.984,0,0,1-.158-2.747q0-17.436,23.8-29.746Q321.086,8.771,354.8,8.771,388.466,8.771,412.263,21.081Z"/>
      <path class="ddc963ec-d88b-4a34-8c4a-a7051843efbb" d="M414.321,27.686q-1-.581-2.058-1.109-23.8-12.311-57.461-12.311-33.716,0-57.566,12.311-21.9,11.307-23.638,27,.105,1,.316,2.061,2.9,14.318,23.322,24.885Q321.086,92.832,354.8,92.832q33.664,0,57.461-12.311,1.055-.528,2.058-1.057A54.412,54.412,0,0,0,429.306,68a25.975,25.975,0,0,0,6.648-14.424,24.61,24.61,0,0,0-1.583-6.287q-4.432-11.043-20.05-19.6m-21.844,6.922a29.987,29.987,0,0,1,10.764,1.8,4.821,4.821,0,0,0,.633.264,23.043,23.043,0,0,1,2.48,1.215q5.593,3.276,5.488,7.873v.106l-.053,3.91a4.211,4.211,0,0,1,.053.687v.581a1.728,1.728,0,0,0-.053.37v.264q-.053.317-.106.581a9.707,9.707,0,0,1-4.01,5.548,20.557,20.557,0,0,1-1.952,1.215,23.043,23.043,0,0,1-2.48,1.215,30.769,30.769,0,0,1-11.661,2.061,27.142,27.142,0,0,1-13.824-3.276,13.177,13.177,0,0,1-1.372-.9q-3.482-2.43-4.063-5.547v-.159a9.009,9.009,0,0,1-.106-1.374,2.7,2.7,0,0,0,.052-.528V46.6a5.265,5.265,0,0,1-.052-.74q.052-.476.106-.951.739-4.069,6.015-7.027A28.936,28.936,0,0,1,392.476,34.607Z"/>
      <path class="4c3956fe-286d-45ad-b3c8-ee176d448c0b" d="M372.32,47.394a.921.921,0,0,1-.053-.264v3.381l.053,1.9v.159q.58,3.117,4.063,5.547a13.177,13.177,0,0,0,1.372.9,27.142,27.142,0,0,0,13.824,3.276,30.769,30.769,0,0,0,11.661-2.061,23.043,23.043,0,0,0,2.48-1.215,20.557,20.557,0,0,0,1.952-1.215,9.707,9.707,0,0,0,4.01-5.548q.053-.264.106-.581v-1.9l.053-3.91q-.053.634-.158,1.215a5.733,5.733,0,0,1-.317,1.109,10.391,10.391,0,0,1-.528,1.11,12.2,12.2,0,0,1-3.166,3.329,20.618,20.618,0,0,1-1.952,1.215,23.048,23.048,0,0,1-2.48,1.215,30.763,30.763,0,0,1-11.661,2.061,27.136,27.136,0,0,1-13.824-3.276,13.177,13.177,0,0,1-1.372-.9,9.442,9.442,0,0,1-3.641-4.227A4.452,4.452,0,0,1,372.32,47.394Z"/>
      <path class="7c772c1d-8992-4ad0-a568-18bee23578e3" d="M403.24,36.4a29.987,29.987,0,0,0-10.764-1.8,28.936,28.936,0,0,0-14.141,3.276q-5.276,2.959-6.015,7.027-.053.475-.106.951a5.265,5.265,0,0,0,.052.74v.528a.921.921,0,0,0,.053.264,4.452,4.452,0,0,0,.422,1.321,9.442,9.442,0,0,0,3.641,4.227,13.177,13.177,0,0,0,1.372.9,27.136,27.136,0,0,0,13.824,3.276,30.763,30.763,0,0,0,11.661-2.061,23.048,23.048,0,0,0,2.48-1.215,20.618,20.618,0,0,0,1.952-1.215,12.2,12.2,0,0,0,3.166-3.329,10.391,10.391,0,0,0,.528-1.11,5.733,5.733,0,0,0,.317-1.109q.105-.582.158-1.215v-.106q.105-4.6-5.488-7.873a23.043,23.043,0,0,0-2.48-1.215A4.821,4.821,0,0,1,403.24,36.4Z"/>
      <path class="d5fb3cf6-2d45-4b43-b266-6f643cce5629" d="M412.263,26.576q1.055.528,2.058,1.109,15.618,8.559,20.05,19.6a24.61,24.61,0,0,1,1.583,6.287,24.221,24.221,0,0,0-1.583-11.782q-4.432-11.043-20.05-19.6-1-.581-2.058-1.11Q388.466,8.771,354.8,8.771q-33.716,0-57.566,12.311-23.8,12.311-23.8,29.746a23.984,23.984,0,0,0,.158,2.747q1.741-15.692,23.638-27Q321.086,14.266,354.8,14.266,388.466,14.266,412.263,26.576Z"/>
    </g>
    <g id="6512dc5d-9807-453a-a976-85236d5200e3" data-name="car3 0 Layer9 0 FILL">
      <path class="88c80b71-7539-44f2-b8b0-cc5ae18d3f97" d="M94.3,137.091,50.266,162.676,155,223.174l45.051-25.9L94.3,137.091M154.911,102l-44.563,25.807,106.109,60.1.488-.311L260,162.9v-.089Z"/>
      <path class="005d3149-da9a-4cde-9ec6-470cee3744cb" d="M50.266,162.676l-.266.089v95.944l105,58.544V223.174l-104.734-60.5m38.01,35.771q-.045-2.155,1.569-1.257l15.372,8.62a3.185,3.185,0,0,1,1.658,3.053l.269,20.338q.045,2.2-1.613,1.3l-15.372-8.62a3.186,3.186,0,0,1-1.658-3.053l-.224-20.3M108.4,210.04q-.045-2.155,1.569-1.257l15.372,8.62A3.291,3.291,0,0,1,127,220.456l.269,20.338q0,2.2-1.613,1.3l-15.372-8.575a3.437,3.437,0,0,1-1.658-3.143l-.224-20.441m37.982,18.995A3.314,3.314,0,0,1,148,232.037l.269,20.387q0,2.205-1.617,1.26l-15.41-8.6a3.254,3.254,0,0,1-1.617-3.105l-.27-20.387q-.045-2.205,1.617-1.26l15.41,8.6m.475,2.564a1.138,1.138,0,0,0-.535-1.071L131.035,221.9q-.579-.312-.535.447l.223,20.181a1.228,1.228,0,0,0,.579,1.071l15.288,8.528q.579.312.535-.4l-.267-19.846m-8.663,2-.695-.488v8l-1.75-1.2v-8l-1.5-.533,1.862-4.264,2.084,6.485m2.616,1.51-.976-.578,1.951-4.264,2.084,6.485-1.12-.489v7.951L141,243.34v-7.954m3.8,12.663q-.133.133-.355,0l-10.908-6.13a.848.848,0,0,1-.4-.444,1.181,1.181,0,0,1-.177-.578.469.469,0,0,1,.177-.4.432.432,0,0,1,.222-.089l11.263,6.308a2.867,2.867,0,0,1,.177.311,1.178,1.178,0,0,1,.177.578.6.6,0,0,1-.177.444m-34.81-37.741q-.536-.358-.492.4l.223,20.28a1.083,1.083,0,0,0,.581.985l15.329,8.6q.536.314.492-.447l-.223-20.235a1.122,1.122,0,0,0-.581-1.03l-15.329-8.551m7.7,7.092.089.089a10.983,10.983,0,0,1,3.991,4.442,13.018,13.018,0,0,1,1.729,6.307v.53a2.014,2.014,0,0,1-.272-.635,4.912,4.912,0,0,0-1.629-1.768,2.59,2.59,0,0,1-.453-.136,1.168,1.168,0,0,0-1.177.091,1.623,1.623,0,0,0-.362.589.565.565,0,0,0-.136.227,3.986,3.986,0,0,0-.5-1.5,3.274,3.274,0,0,0-.724-1v7.193s.893.518,1.1.666a.127.127,0,0,0,.089.044l.044-.044a.929.929,0,0,0,.044-.355.553.553,0,0,1,.177-.4.6.6,0,0,1,.443-.177.669.669,0,0,1,.4.177.553.553,0,0,1,.177.4,1.378,1.378,0,0,1-.576,1.333,1.163,1.163,0,0,1-1.375.089.039.039,0,0,0-.044-.045,3.138,3.138,0,0,1-1.02-1.11,5.2,5.2,0,0,1-.334-1.421l-.089-7.016a.73.73,0,0,0-.712.223,1.191,1.191,0,0,0-.489,1.025,10.307,10.307,0,0,0-.356-.98,3.936,3.936,0,0,0-.267-.669,4.572,4.572,0,0,0-1.557-1.694,2.28,2.28,0,0,0-.445-.178,1.21,1.21,0,0,0-1.157.134,1.484,1.484,0,0,0-.178.223V221.8q-.044-3.154,1.641-4.442a3.285,3.285,0,0,1,3.769-.044l.266.089m-27.934-18.73q-.536-.313-.492.448l.268,20.28a1,1,0,0,0,.536.985l15.329,8.6q.536.313.491-.4l-.223-20.28a1.192,1.192,0,0,0-.581-1.03l-15.329-8.6m6.508,16.642a5.9,5.9,0,0,1-1.856-1.954,5.777,5.777,0,0,1-1.109-3.109c-.029-.119-.535-.355-.535-.355l-.047-5.977q0-.188.094-.188a.392.392,0,0,1,.375,0l6.937,3.9a1.379,1.379,0,0,1,.328.376.691.691,0,0,1,.188.376v5.514a3.993,3.993,0,0,1,.2.578,1.8,1.8,0,0,1-1.109,1.866,3.339,3.339,0,0,1-1.714-.133v3.109s.458.77.783,1.244a5.841,5.841,0,0,1,.754,1.688l-5.321-2.887a1.219,1.219,0,0,1,.754-.933,3.342,3.342,0,0,1,1.28.044Z"/>
      <path class="bd0a2671-6f68-4bc9-9d66-e43e91adae8a" d="M200.5,197.33l-.355-.178L155,223.1V318l45.5-25.371V197.652m16.625-9.908v95.321L260,259.134V163.15Z"/>
      <path class="032666a4-a6f5-4e6d-8879-292e1a76cb8b" d="M200.5,196.876v95.951l16.625-9.287V187.947l-.49-.313Z"/>
      <path class="114f17d3-41e2-424b-b942-ff69ea10da45" d="M200.051,197.278l.355-.178,16.051-9.195-106.109-60.1L94.3,137.091Z"/>
      <path class="ccafeb24-e605-46b3-acd2-d09d2f818298" d="M147.738,232.179a3.22,3.22,0,0,0-1.571-3.017L131.2,220.811q-1.615-.918-1.571,1.224l.262,19.806a3.162,3.162,0,0,0,1.571,3.017l14.971,8.351q1.571.918,1.571-1.224l-.262-20.11m-1.136-1.294a1.111,1.111,0,0,1,.522,1.046l.261,19.744q.043.7-.522.392l-14.923-8.325a1.2,1.2,0,0,1-.565-1.046l-.218-19.7q-.044-.741.522-.436l14.923,8.325m-2.156,17.467q.222.133.355,0a.6.6,0,0,0,.177-.444,1.178,1.178,0,0,0-.177-.578,2.867,2.867,0,0,0-.177-.311l-11.263-6.308a.432.432,0,0,0-.222.089.469.469,0,0,0-.177.4,1.181,1.181,0,0,0,.177.578.848.848,0,0,0,.4.444l10.908,6.13m-4.612-13.237,1.165.578v7.951l1.75,1.155v-7.951l1.12.489-2.084-6.485-1.951,4.264m-2.527-1.421.887.488-2.084-6.485-1.862,4.264.627.533v8l2.625,1.2v-7.755m-27.347-24.413q-1.571-.874-1.528,1.224l.218,19.806a3.347,3.347,0,0,0,1.615,3.061l14.971,8.351q1.571.874,1.571-1.268l-.262-19.806a3.2,3.2,0,0,0-1.615-2.973l-14.971-8.395m0,1.882q-.043-.741.479-.392l14.923,8.325a1.092,1.092,0,0,1,.566,1l.218,19.7q.043.741-.479.436L110.941,231.8a1.054,1.054,0,0,1-.566-.959l-.218-20.029m7.732,6.673-.089-.089-.266-.089a3.285,3.285,0,0,0-3.769.044q-1.685,1.288-1.641,4.442v.239a1.509,1.509,0,0,1,.181-.227,1.231,1.231,0,0,1,1.177-.136,2.319,2.319,0,0,1,.453.181,4.651,4.651,0,0,1,1.584,1.723,4,4,0,0,1,.272.68,10.484,10.484,0,0,1,.362,1,1.211,1.211,0,0,1,.5-1.043.743.743,0,0,1,.724-.227v7.006a5.2,5.2,0,0,0,.334,1.421,3.138,3.138,0,0,0,1.02,1.11.039.039,0,0,1,.044.045,1.163,1.163,0,0,0,1.375-.089,1.378,1.378,0,0,0,.576-1.333.553.553,0,0,0-.177-.4.669.669,0,0,0-.4-.177.6.6,0,0,0-.443.177.553.553,0,0,0-.177.4.929.929,0,0,1-.044.355l-.044.044a.127.127,0,0,1-.089-.044c-.207-.148-1.1-.666-1.1-.666v-.888l-.092-6.341a3.332,3.332,0,0,1,.737,1.015,4.056,4.056,0,0,1,.507,1.523.575.575,0,0,1,.138-.231,1.652,1.652,0,0,1,.368-.6,1.189,1.189,0,0,1,1.2-.092,2.635,2.635,0,0,0,.461.138,5,5,0,0,1,1.658,1.8,2.05,2.05,0,0,0,.276.646v-.567a13.018,13.018,0,0,0-1.729-6.307,10.983,10.983,0,0,0-3.991-4.442M90.028,197.625q-1.571-.874-1.528,1.224l.218,19.85a3.1,3.1,0,0,0,1.615,2.973l14.971,8.395q1.615.874,1.571-1.268l-.262-19.806A3.1,3.1,0,0,0,105,206.02l-14.971-8.395m-.914,1.842q-.043-.743.48-.437l14.965,8.391a1.163,1.163,0,0,1,.567,1.005l.218,19.8q.044.7-.48.393L89.9,220.227a.977.977,0,0,1-.524-.962l-.262-19.858m5.405,13.951a12.181,12.181,0,0,0,1.856,1.954l.049,2.981a1.571,1.571,0,0,0-1.264-.049,1.336,1.336,0,0,0-.826,1.022l5.833,3.165a6.4,6.4,0,0,0-.826-1.85,7.03,7.03,0,0,0-1.215-1.364V216.2a3.339,3.339,0,0,0,1.714.133,1.8,1.8,0,0,0,1.109-1.866,3.993,3.993,0,0,0-.2-.578l-.046-5.541a.683.683,0,0,0-.185-.371,1.363,1.363,0,0,0-.324-.371l-6.856-3.851a.387.387,0,0,0-.371,0q-.093,0-.093.186v5.952s.506.237.535.355A5.777,5.777,0,0,0,94.519,213.357Z"/>
    </g>
  </g>
</svg>
