<svg id="44f261eb-1d96-4315-90e9-316ce4c5f654" data-name="Layer 1" xmlns="http://www.w3.org/2000/svg" viewBox="0 0 421 433">
  <defs>
    <style>
      .bdd5aed9-7d09-4f92-944e-ce360369c3fd {
        fill: #f8e3cd;
      }

      .\30 dcdb3e9-1fed-4bdd-8d76-77acdd043596 {
        fill: #dcbc99;
      }

      .\36 1cda0f5-844b-4293-8f71-79ee1abd808a {
        fill: gray;
      }

      .\39 94d3dac-5096-4f96-97c6-c4d6e692af4c {
        fill: #edd4b9;
      }

      .fd306ad1-5a5a-4023-b72c-508fd60379e1 {
        fill: #ede3d9;
      }

      .aa41828b-a634-4013-b5a7-84a007f7408a {
        fill: #fff8f1;
      }

      .a7fa7b07-7f32-4030-8b90-b9eea2550a15 {
        fill: #e6dcd1;
      }

      .\30 820bb80-eba3-43e1-9ce9-faa76702da0a {
        fill: #acacac;
      }
    </style>
  </defs>
  <title>LCL</title>
  <g>
    <g id="16f932b2-5787-4589-a98b-91e27acb5d45" data-name="car3 0 Layer10 0 FILL">
      <path class="bdd5aed9-7d09-4f92-944e-ce360369c3fd" d="M91.863,146.621l69.112,39.863L321.647,93.369,254.1,54.064,91.863,146.621M0,93.572v.1l65.984,38.088.807.406L229.431,39.711,161.126,0Z"/>
      <path class="0dcdb3e9-1fed-4bdd-8d76-77acdd043596" d="M161,373.353l.3.152L322,281.672V93.594l-.353-.2L161,186.492V373.527m79.6-102.7q2.455-1.44,2.4,1.9l-.358,31.418a5.2,5.2,0,0,1-2.506,4.782L216.455,322.2q-2.506,1.44-2.455-1.954l.358-31.418a5.13,5.13,0,0,1,2.557-4.731L240.6,270.83m5.761.158a5.025,5.025,0,0,1,2.6-4.722L272.5,253.022q2.553-1.386,2.5,1.9l-.357,31.362a5.071,5.071,0,0,1-2.6,4.774L248.5,304.352q-2.553,1.386-2.5-2l.357-31.692M209.6,288.631q2.455-1.44,2.4,1.954l-.358,31.366a5.13,5.13,0,0,1-2.506,4.782L185.455,340q-2.506,1.44-2.455-1.9l.409-31.418a5.076,5.076,0,0,1,2.506-4.782L209.6,288.631m.763,2.843q.051-1.185-.769-.669l-23.719,13.288A1.828,1.828,0,0,0,185,305.74l-.359,31.417q-.051,1.133.769.67l23.719-13.288a1.912,1.912,0,0,0,.871-1.648l.359-31.26m-15.041,19.724-1.318.731-.136,11.1-2.864,1.6.091-11.1-1.318.777,2.909-9.048,2.636,5.94m4.248-2.643-1.413.761,3.229-9.94,2.875,6.542-1.258.812V319.21l-3,1.826V308.609m5.973,12.578a2.032,2.032,0,0,1-.656.659l-16.749,9.433q-.353.2-.5,0a.819.819,0,0,1-.3-.659,1.641,1.641,0,0,1,.3-.913,1.348,1.348,0,0,1,.3-.457l17.2-9.687a.463.463,0,0,1,.4.1.654.654,0,0,1,.252.609,1.873,1.873,0,0,1-.252.913m42.9-52.719a1.616,1.616,0,0,0-.873,1.548l-.411,31.534q-.051,1.135.821.671l23.666-13.367a1.758,1.758,0,0,0,.924-1.6l.359-31.534q.051-1.084-.821-.619l-23.666,13.367m6.676,1.546a.988.988,0,0,1,.2-.507,1.191,1.191,0,0,1,.5-.507l10.039-5.68q.353-.152.5-.051a.272.272,0,0,1,.2.3l-.108,8.837a3.421,3.421,0,0,1-.054.544A9.492,9.492,0,0,1,265,278.117v-.14l-3,2.942v4.818a7.68,7.68,0,0,1,2.239-.051,1.967,1.967,0,0,1,1.16,1.42l-8.072,4.514a7.186,7.186,0,0,1,1.11-2.638A23.637,23.637,0,0,1,260,287.055l.054-4.653a4.6,4.6,0,0,1-3.424.273,3.083,3.083,0,0,1-1.793-3.169q.054-.437.163-.929l.1-8.919m-13.742,4.014q.051-1.133-.769-.67l-23.719,13.288a1.735,1.735,0,0,0-.871,1.545l-.359,31.469q-.051,1.133.769.67l23.719-13.288a1.736,1.736,0,0,0,.871-1.545l.359-31.488m-20.4,26.943c-.135.338-.956.963-.956.963v-.51a21.3,21.3,0,0,1,2.734-9.956,16.952,16.952,0,0,1,6.241-7,.6.6,0,0,0,.155-.1l.412-.207q3.456-1.815,5.931.1,2.578,2.022,2.527,7v.357a1.3,1.3,0,0,0-.306-.307,1.819,1.819,0,0,0-1.783-.2,5.036,5.036,0,0,0-.612.307,6.253,6.253,0,0,0-2.446,2.664q-.255.512-.459.973a10.973,10.973,0,0,0-.459,1.537,2.34,2.34,0,0,0-.764-1.639,1.609,1.609,0,0,0-1.172-.359V305.06a7.845,7.845,0,0,1-.418,2.181,4.634,4.634,0,0,1-1.564,1.724.045.045,0,0,0-.05.051,1.841,1.841,0,0,1-2.119-.1,2.221,2.221,0,0,1-.858-2.079.833.833,0,0,1,.252-.609.859.859,0,0,1,1.312,0,.833.833,0,0,1,.252.609,1.088,1.088,0,0,0,.1.558l.051.051.1-.051a7.032,7.032,0,0,0,.94-1.065v.051l1-1.369v-9.687a4.874,4.874,0,0,0-2.445,3.8.629.629,0,0,0-.1-.355,2.785,2.785,0,0,0-.656-.862,1.719,1.719,0,0,0-1.766-.152,2.122,2.122,0,0,0-.605.2A6.954,6.954,0,0,0,220.956,300.6Z"/>
      <path class="61cda0f5-844b-4293-8f71-79ee1abd808a" d="M211.355,290.781q.051-3.366-2.384-1.938L185.486,302A5.034,5.034,0,0,0,183,306.742l-.406,31.159q-.051,3.315,2.435,1.887l23.486-13.157A5.087,5.087,0,0,0,211,321.888l.355-31.256m-2.1.828q.8-.5.747.651l-.349,30.541a1.858,1.858,0,0,1-.847,1.6l-23.058,12.917q-.8.45-.747-.651l.349-30.541a1.777,1.777,0,0,1,.847-1.6l23.058-12.917m-3.936,30.387a2.032,2.032,0,0,0,.656-.659,1.873,1.873,0,0,0,.252-.913.654.654,0,0,0-.252-.609.463.463,0,0,0-.4-.1l-17.2,9.687a1.348,1.348,0,0,0-.3.457,1.641,1.641,0,0,0-.3.913.819.819,0,0,0,.3.659q.151.2.5,0l16.749-9.433m-6.672-12.342,1.355-.73-.145,11.822L203,318.846l.145-11.822,1.355-.779-2.758-6.276-3.1,9.535m-4.5,2.333,1.426-.791-2.852-6.427-3.148,9.79,1.426-.841-.1,12.015,3.1-1.73.148-12.247m55.43-45.215A4.974,4.974,0,0,0,247,271.065l-.354,31.046q-.05,3.354,2.477,1.982l23.3-13.16A5.02,5.02,0,0,0,275,286.207l.354-31.046q.05-3.252-2.477-1.88l-23.3,13.11m-1.179,3.885a1.568,1.568,0,0,1,.846-1.5L272.2,255.806q.847-.45.8.6L272.651,287a1.706,1.706,0,0,1-.9,1.552L248.8,301.518q-.847.451-.8-.651l.4-30.21m6.8-1.15a.988.988,0,0,0-.2.507l-.11,8.539q-.11.5-.165.939a3.117,3.117,0,0,0,1.813,3.2A4.645,4.645,0,0,0,260,282.42v4.635a23.637,23.637,0,0,0-1.563,1.927,7.186,7.186,0,0,0-1.11,2.638l8.072-4.514a1.967,1.967,0,0,0-1.16-1.42,7.68,7.68,0,0,0-2.239.051v-4.818l3-2.942v-.051s1.862-3.33,1.862-4.818A4.072,4.072,0,0,1,267,272.6l.1-9.027a.272.272,0,0,0-.2-.3q-.151-.1-.5.051L256.356,269a1.191,1.191,0,0,0-.5.507m-12.5,3.463q.05-3.309-2.38-1.883l-23.443,13.133A5.078,5.078,0,0,0,215,288.9l-.354,31.1q-.051,3.36,2.43,1.934l23.443-13.133A5.151,5.151,0,0,0,243,304.073l.354-31.418m-3.1,1q.8-.451.747.651l-.349,30.591a1.687,1.687,0,0,1-.847,1.5l-23.058,12.917q-.8.451-.747-.651l.349-30.591a1.687,1.687,0,0,1,.846-1.5l23.058-12.917M220,301.612q.205-.464.41-.979a7.069,7.069,0,0,1,2.513-2.681,2.157,2.157,0,0,1,.615-.206,1.748,1.748,0,0,1,1.795.155,2.831,2.831,0,0,1,.667.876.639.639,0,0,1,.1.361,7.539,7.539,0,0,1,.82-2.32A8.132,8.132,0,0,1,228,295.271v9.738l1,1.369v-.051s-1.638.862-1.94,1.065l-.1.051-.051-.051a1.088,1.088,0,0,1-.1-.558.833.833,0,0,0-.252-.609.859.859,0,0,0-1.312,0,.833.833,0,0,0-.252.609,2.221,2.221,0,0,0,.858,2.079,1.841,1.841,0,0,0,2.119.1.045.045,0,0,1,.05-.051,4.634,4.634,0,0,0,1.564-1.724A7.845,7.845,0,0,0,230,305.06l.15-10.861a1.579,1.579,0,0,1,1.15.352,2.3,2.3,0,0,1,.75,1.608,10.767,10.767,0,0,1,.45-1.508q.2-.452.45-.955a6.136,6.136,0,0,1,2.4-2.614,4.942,4.942,0,0,1,.6-.3,1.785,1.785,0,0,1,1.75.2,1.277,1.277,0,0,1,.3.3v-.4q.051-4.978-2.527-7-2.475-1.918-5.931-.1l-.412.207a.6.6,0,0,1-.155.1,16.952,16.952,0,0,0-6.241,7A21.3,21.3,0,0,0,220,301.05Z"/>
      <path class="994d3dac-5096-4f96-97c6-c4d6e692af4c" d="M91.507,146,91,146.3V333.968L161,374V186.079L91.507,146M66,132.606v-.862L0,93.646v187.6l66,37.793Z"/>
      <path class="fd306ad1-5a5a-4023-b72c-508fd60379e1" d="M91,147.645,66.8,133.654l-.8.45v183.63l25,14.341V147.645Z"/>
      <path class="aa41828b-a634-4013-b5a7-84a007f7408a" d="M254.1,54.064,229.431,39.711,66.791,132.167l24.567,14.2.5.254Z"/>
    </g>
    <g id="4d22d7a7-29b9-468d-8f3d-dcc2221c97f4" data-name="car3 0 Layer9 0 FILL">
      <path class="bdd5aed9-7d09-4f92-944e-ce360369c3fd" d="M231.625,226.964,181.3,256.1,301,325l51.487-29.493L231.625,226.964M300.9,187l-50.929,29.391,121.267,68.445.558-.354L421,256.356v-.1Z"/>
      <path class="994d3dac-5096-4f96-97c6-c4d6e692af4c" d="M181.3,256.1l-.3.1v109.27l120,66.675V325L181.3,256.1m43.44,40.739q-.051-2.455,1.793-1.432l17.568,9.817A3.625,3.625,0,0,1,246,308.7l.307,23.163q.051,2.505-1.844,1.483L226.9,323.533a3.626,3.626,0,0,1-1.9-3.477l-.256-23.119m23,13.109q-.051-2.454,1.793-1.432l17.568,9.817a3.745,3.745,0,0,1,1.9,3.477l.307,23.162q0,2.505-1.844,1.483L249.9,336.787a3.911,3.911,0,0,1-1.9-3.579l-.256-23.279m43.408,21.633A3.771,3.771,0,0,1,293,335.1l.308,23.219q0,2.512-1.848,1.435l-17.611-9.79A3.7,3.7,0,0,1,272,346.425l-.308-23.219q-.051-2.512,1.848-1.435l17.611,9.79m.543,2.92a1.3,1.3,0,0,0-.611-1.22l-17.472-9.712q-.662-.356-.611.509l.255,22.984a1.4,1.4,0,0,0,.662,1.22l17.472,9.712q.662.356.611-.458l-.306-22.6m-9.9,2.281-.794-.556v9.106l-2-1.366v-9.106l-1.716-.607,2.128-4.856,2.382,7.386m2.99,1.72-1.115-.658,2.23-4.856,2.382,7.386L287,340.23v9.055l-2-1.315v-9.059m4.345,14.421q-.152.152-.405,0l-12.466-6.981a.967.967,0,0,1-.456-.506,1.341,1.341,0,0,1-.2-.658.533.533,0,0,1,.2-.455.5.5,0,0,1,.253-.1l12.872,7.184a3.262,3.262,0,0,1,.2.354,1.338,1.338,0,0,1,.2.658.686.686,0,0,1-.2.506M249.562,310.35q-.613-.408-.562.459l.255,23.1a1.232,1.232,0,0,0,.664,1.122l17.519,9.789q.613.357.562-.51l-.255-23.046a1.277,1.277,0,0,0-.664-1.173l-17.519-9.738m8.8,8.077.1.1a12.525,12.525,0,0,1,4.561,5.059A14.787,14.787,0,0,1,265,330.771v.6a2.29,2.29,0,0,1-.31-.723,5.6,5.6,0,0,0-1.862-2.014,2.967,2.967,0,0,1-.517-.155,1.339,1.339,0,0,0-1.345.1,1.848,1.848,0,0,0-.414.671.643.643,0,0,0-.155.258,4.528,4.528,0,0,0-.569-1.7,3.73,3.73,0,0,0-.828-1.136v8.192s1.02.59,1.257.759a.146.146,0,0,0,.1.051l.051-.051a1.055,1.055,0,0,0,.051-.4.629.629,0,0,1,.2-.455.688.688,0,0,1,.507-.2.766.766,0,0,1,.456.2.628.628,0,0,1,.2.455,1.567,1.567,0,0,1-.659,1.518,1.333,1.333,0,0,1-1.571.1.045.045,0,0,0-.051-.051,3.578,3.578,0,0,1-1.165-1.265,5.905,5.905,0,0,1-.382-1.619l-.1-7.991a.837.837,0,0,0-.814.254,1.355,1.355,0,0,0-.559,1.167,11.712,11.712,0,0,0-.407-1.117,4.473,4.473,0,0,0-.305-.761,5.214,5.214,0,0,0-1.78-1.929,2.611,2.611,0,0,0-.509-.2,1.387,1.387,0,0,0-1.322.152,1.691,1.691,0,0,0-.2.254v-.3q-.05-3.592,1.875-5.059,1.774-1.366,4.307-.051l.3.1M226.562,297.1q-.613-.357-.562.51l.306,23.1a1.139,1.139,0,0,0,.613,1.122l17.519,9.789q.613.357.562-.459l-.255-23.1a1.356,1.356,0,0,0-.664-1.173L226.562,297.1M234,316.049a6.726,6.726,0,0,1-2.122-2.226,6.564,6.564,0,0,1-1.267-3.541c-.034-.135-.611-.4-.611-.4l-.054-6.807q0-.214.107-.214a.449.449,0,0,1,.429,0l7.928,4.439a1.573,1.573,0,0,1,.375.428.785.785,0,0,1,.214.428v6.28a4.537,4.537,0,0,1,.226.658,2.047,2.047,0,0,1-1.267,2.125,3.828,3.828,0,0,1-1.959-.152V320.6s.524.877.9,1.417a6.64,6.64,0,0,1,.861,1.922l-6.081-3.288a1.389,1.389,0,0,1,.861-1.062,3.833,3.833,0,0,1,1.463.051Z"/>
      <path class="0dcdb3e9-1fed-4bdd-8d76-77acdd043596" d="M353,295.571l-.406-.2L301,324.922V433l52-28.9V295.937m19-11.285v108.56l49-27.253V256.643Z"/>
      <path class="a7fa7b07-7f32-4030-8b90-b9eea2550a15" d="M353,295.054V404.331l19-10.577V284.884l-.56-.356Z"/>
      <path class="aa41828b-a634-4013-b5a7-84a007f7408a" d="M352.486,295.511l.405-.2,18.344-10.472L249.969,216.391l-18.344,10.573Z"/>
      <path class="0820bb80-eba3-43e1-9ce9-faa76702da0a" d="M292.7,335.259a3.664,3.664,0,0,0-1.8-3.436L273.8,322.313q-1.846-1.046-1.8,1.394l.3,22.557a3.6,3.6,0,0,0,1.8,3.436l17.109,9.511q1.8,1.046,1.8-1.394l-.3-22.9m-1.3-1.474a1.264,1.264,0,0,1,.6,1.191l.3,22.486q.049.794-.6.447l-17.055-9.481a1.364,1.364,0,0,1-.646-1.191l-.249-22.437q-.05-.844.6-.5L291.4,333.44m-2.464,19.893q.253.152.405,0a.686.686,0,0,0,.2-.506,1.338,1.338,0,0,0-.2-.658,3.262,3.262,0,0,0-.2-.354l-12.872-7.184a.5.5,0,0,0-.253.1.533.533,0,0,0-.2.455,1.341,1.341,0,0,0,.2.658.967.967,0,0,0,.456.506l12.466,6.981m-5.27-15.075,1.331.658v9.055l2,1.315V340.23l1.28.557L285.9,333.4l-2.23,4.856m-2.888-1.619,1.013.556-2.382-7.386-2.128,4.856.716.607v9.106l3,1.366v-8.832m-31.254-27.8q-1.8-1-1.746,1.394l.249,22.557a3.809,3.809,0,0,0,1.846,3.486l17.109,9.511q1.8,1,1.8-1.444l-.3-22.557a3.647,3.647,0,0,0-1.846-3.386l-17.109-9.561m.006,2.143q-.049-.844.547-.447l17.055,9.481a1.243,1.243,0,0,1,.646,1.142l.249,22.436q.049.844-.547.5l-17.055-9.53a1.2,1.2,0,0,1-.646-1.092l-.249-22.81m8.837,7.6-.1-.1-.3-.1q-2.534-1.315-4.307.051-1.926,1.467-1.875,5.059v.272a1.72,1.72,0,0,1,.207-.258,1.411,1.411,0,0,1,1.345-.155,2.656,2.656,0,0,1,.517.207,5.3,5.3,0,0,1,1.81,1.962,4.55,4.55,0,0,1,.31.775,11.914,11.914,0,0,1,.414,1.136,1.378,1.378,0,0,1,.569-1.187.851.851,0,0,1,.828-.258v7.979a5.905,5.905,0,0,0,.382,1.619,3.578,3.578,0,0,0,1.165,1.265.045.045,0,0,1,.051.051,1.333,1.333,0,0,0,1.571-.1,1.567,1.567,0,0,0,.659-1.518.628.628,0,0,0-.2-.455.766.766,0,0,0-.456-.2.688.688,0,0,0-.507.2.629.629,0,0,0-.2.455,1.055,1.055,0,0,1-.051.4l-.051.051a.146.146,0,0,1-.1-.051c-.237-.169-1.257-.759-1.257-.759v-1.012l-.105-7.222a3.8,3.8,0,0,1,.842,1.156,4.608,4.608,0,0,1,.579,1.734.655.655,0,0,1,.158-.263,1.88,1.88,0,0,1,.421-.683,1.362,1.362,0,0,1,1.368-.105,3.019,3.019,0,0,0,.526.158,5.7,5.7,0,0,1,1.895,2.049,2.33,2.33,0,0,0,.316.736v-.645a14.787,14.787,0,0,0-1.976-7.183,12.525,12.525,0,0,0-4.561-5.059m-31.717-22.622q-1.8-1-1.746,1.394l.249,22.607a3.531,3.531,0,0,0,1.846,3.386l17.109,9.561q1.846,1,1.8-1.444l-.3-22.557a3.53,3.53,0,0,0-1.846-3.386l-17.109-9.561M225.7,298q-.05-.846.549-.5l17.1,9.557a1.324,1.324,0,0,1,.648,1.145l.249,22.548q.05.8-.548.448l-17.1-9.557a1.112,1.112,0,0,1-.6-1.1l-.3-22.616m6.178,15.888A13.9,13.9,0,0,0,234,316.049l.056,3.4a1.8,1.8,0,0,0-1.445-.055,1.523,1.523,0,0,0-.944,1.165l6.667,3.605a7.28,7.28,0,0,0-.944-2.107A8.015,8.015,0,0,0,236,320.5v-3.437a3.828,3.828,0,0,0,1.959.152,2.047,2.047,0,0,0,1.267-2.125,4.537,4.537,0,0,0-.226-.658l-.053-6.311a.776.776,0,0,0-.212-.423,1.554,1.554,0,0,0-.371-.423l-7.835-4.386a.444.444,0,0,0-.424,0q-.106,0-.106.211v6.779s.578.27.611.4A6.564,6.564,0,0,0,231.878,313.824Z"/>
    </g>
  </g>
</svg>
