<svg id="a554a61f-4f1d-4d53-a6d8-f106eaa15c81" data-name="Layer 4" xmlns="http://www.w3.org/2000/svg" viewBox="0 0 500 500">
  <defs>
    <style>
      .\36 a500fd9-3682-45a3-b75f-13d708650cfb {
        fill: #091a23;
      }

      .e435c038-5052-4c4a-9563-12910ae1a455 {
        fill: #142836;
      }

      .\31 9f79810-9df1-45d7-9b0d-a92a3874e135 {
        fill: #fff;
      }

      .\30 a06cd46-2831-474d-858c-ac6a1936707f {
        fill: #cfdde8;
      }

      .a188dcf6-da42-47bf-ba77-92c6430dd514 {
        fill: #00a2df;
      }
    </style>
  </defs>
  <title>Transport Mode</title>
  <g id="b2f17a41-686b-4105-b189-266cf7887f84" data-name="train">
    <g id="49ba2dbf-4664-4b6e-a2ea-033daec155bc" data-name="&lt;Group&gt;">
      <g id="78201f17-5de3-4f57-91ba-73214ca4b0c3" data-name="&lt;Group&gt;">
        <g id="2bda4808-4342-4b7a-a225-0c76506cc6c2" data-name="&lt;Group&gt;">
          <g id="6864a330-3a9a-4660-8466-0217d9468bad" data-name="&lt;Group&gt;">
            <g id="f00c94ad-75c2-4fb0-963a-183c14223b24" data-name="&lt;Group&gt;">
              <path id="6b11d034-db73-42f7-aa45-c7cfbbe94e3d" data-name="&lt;Path&gt;" class="6a500fd9-3682-45a3-b75f-13d708650cfb" d="M475.87,303.13a10,10,0,0,1-13.7,3.43,10.07,10.07,0,0,1-3.42-13.77,10,10,0,0,1,13.7-3.43A10.07,10.07,0,0,1,475.87,303.13Z"/>
            </g>
          </g>
        </g>
        <g id="4aa73158-1f21-4234-843b-107d94ec5986" data-name="&lt;Group&gt;">
          <g id="0e28ac3c-cc97-47e7-b00f-1247df1ef8be" data-name="&lt;Group&gt;">
            <g id="a9f25245-049b-4193-9dd2-f35cb47dec09" data-name="&lt;Group&gt;">
              <path id="fcb4d3aa-c554-4f11-a68f-0ea9439516fc" data-name="&lt;Path&gt;" class="6a500fd9-3682-45a3-b75f-13d708650cfb" d="M417.24,303.13a10,10,0,0,1-13.7,3.43,10.07,10.07,0,0,1-3.42-13.77,10,10,0,0,1,13.7-3.43A10.07,10.07,0,0,1,417.24,303.13Z"/>
            </g>
          </g>
        </g>
      </g>
      <g id="d82bf1cb-9f4d-41df-9d2d-99f38cb0ba87" data-name="&lt;Group&gt;">
        <g id="fe8e0c91-7a52-4c17-b449-f39c4f759a87" data-name="&lt;Group&gt;">
          <rect id="e152e395-ecd2-4929-aeff-12d90bb9196d" data-name="&lt;Rectangle&gt;" class="6a500fd9-3682-45a3-b75f-13d708650cfb" x="394.1" y="286.42" width="87.79" height="8.58"/>
        </g>
      </g>
      <g id="4907a9d3-741a-4af4-97e1-991349e551f3" data-name="&lt;Group&gt;">
        <g id="a897db5c-6d64-4d64-8c66-787b2f98bd3d" data-name="&lt;Group&gt;">
          <polygon id="9e2ed10e-91f2-4191-9ecd-2169bc59ecc0" data-name="&lt;Path&gt;" class="6a500fd9-3682-45a3-b75f-13d708650cfb" points="452.84 300.75 423.15 300.75 417.2 286.42 458.79 286.42 452.84 300.75"/>
        </g>
      </g>
    </g>
    <g id="c22ef36c-4307-4f2c-90da-0fda4c5807a7" data-name="&lt;Group&gt;">
      <g id="2deb6341-7e87-40c3-a728-fd7705adf7fa" data-name="&lt;Group&gt;">
        <g id="5179acb8-1554-41bc-957a-02c36331cc54" data-name="&lt;Group&gt;">
          <g id="210a4410-c67d-4f1a-ab10-cec05cb43317" data-name="&lt;Group&gt;">
            <g id="0584d4ca-98ac-4eca-9cc3-9e2880edc84c" data-name="&lt;Group&gt;">
              <path id="d9bb8f99-9f01-40c1-bca8-e7400995c67c" data-name="&lt;Path&gt;" class="6a500fd9-3682-45a3-b75f-13d708650cfb" d="M349.24,303.13a10,10,0,0,1-13.7,3.43,10.07,10.07,0,0,1-3.42-13.77,10,10,0,0,1,13.7-3.43A10.07,10.07,0,0,1,349.24,303.13Z"/>
            </g>
          </g>
        </g>
        <g id="77a940ff-db46-4291-a7f3-7cd161c87505" data-name="&lt;Group&gt;">
          <g id="f24bda44-a37c-4776-b6ba-90a88b011e34" data-name="&lt;Group&gt;">
            <g id="77d9aef7-8c53-4038-9c73-0cea8b06dc18" data-name="&lt;Group&gt;">
              <path id="17c6c862-fcc1-4fdf-9aaf-507174c3630c" data-name="&lt;Path&gt;" class="6a500fd9-3682-45a3-b75f-13d708650cfb" d="M290.6,303.13a10,10,0,0,1-13.7,3.43,10.07,10.07,0,0,1-3.42-13.77,10,10,0,0,1,13.7-3.43A10.07,10.07,0,0,1,290.6,303.13Z"/>
            </g>
          </g>
        </g>
      </g>
      <g id="bded0ce2-f03f-4906-b0d1-412cbcdcdb51" data-name="&lt;Group&gt;">
        <g id="5365de45-ab06-4cbd-9648-131a7e68316e" data-name="&lt;Group&gt;">
          <rect id="47d1d738-6e3f-4ddb-b8f7-853a3e856dc3" data-name="&lt;Rectangle&gt;" class="6a500fd9-3682-45a3-b75f-13d708650cfb" x="267.47" y="286.42" width="87.79" height="8.58"/>
        </g>
      </g>
      <g id="f4371dde-f051-4267-90ff-c739d595e9c7" data-name="&lt;Group&gt;">
        <g id="b937917b-3191-42c6-a99e-d01b16a083eb" data-name="&lt;Group&gt;">
          <polygon id="af02694c-d134-423b-ad0f-842d73a7a964" data-name="&lt;Path&gt;" class="6a500fd9-3682-45a3-b75f-13d708650cfb" points="326.21 300.75 296.51 300.75 290.57 286.42 332.15 286.42 326.21 300.75"/>
        </g>
      </g>
    </g>
    <g id="9de3e4dd-3272-449e-bffa-6115f4b4ac58" data-name="&lt;Group&gt;">
      <g id="be0b673f-9538-4cae-8868-744b16353d58" data-name="&lt;Group&gt;">
        <g id="c4cfe685-1f38-4fb7-adf0-64f515fdb4c9" data-name="&lt;Group&gt;">
          <g id="9021aac8-cb97-47a1-9f87-066ac21f932a" data-name="&lt;Group&gt;">
            <g id="109016fc-2425-47a9-b917-3678399046fa" data-name="&lt;Group&gt;">
              <g id="b550b77e-719a-4fac-b56a-98a2d4fae4f6" data-name="&lt;Group&gt;">
                <path id="30f94cdd-ed51-4c37-a858-447ccaa024b0" data-name="&lt;Path&gt;" class="6a500fd9-3682-45a3-b75f-13d708650cfb" d="M235.75,303.13a10,10,0,0,1-13.7,3.43,10.07,10.07,0,0,1-3.42-13.77,10,10,0,0,1,13.7-3.43A10.07,10.07,0,0,1,235.75,303.13Z"/>
              </g>
            </g>
          </g>
          <g id="945c4ec6-0386-4631-9b27-bbd1b9afce56" data-name="&lt;Group&gt;">
            <g id="6c8dc400-bbfa-41ac-8818-4af636d5ee75" data-name="&lt;Group&gt;">
              <g id="46e0edce-d0fc-4676-8b73-adfcc9c82586" data-name="&lt;Group&gt;">
                <path id="07b25199-7a7b-4c02-a65d-d02c99a978bc" data-name="&lt;Path&gt;" class="6a500fd9-3682-45a3-b75f-13d708650cfb" d="M177.12,303.13a10,10,0,0,1-13.7,3.43A10.07,10.07,0,0,1,160,292.79a10,10,0,0,1,13.7-3.43A10.07,10.07,0,0,1,177.12,303.13Z"/>
              </g>
            </g>
          </g>
        </g>
        <g id="54bacea6-e7bf-44d9-a405-763022076474" data-name="&lt;Group&gt;">
          <g id="f5baa55a-392b-4c0c-8401-07d0bb545062" data-name="&lt;Group&gt;">
            <rect id="e80079c3-46a2-422e-8a5f-9259b35b3eec" data-name="&lt;Rectangle&gt;" class="6a500fd9-3682-45a3-b75f-13d708650cfb" x="153.98" y="286.42" width="87.79" height="8.58"/>
          </g>
        </g>
        <g id="97f6f304-68c1-4c9e-9cd3-37b86edf3533" data-name="&lt;Group&gt;">
          <g id="d2f95f6b-54e7-4a84-ae3a-6e13545c16d6" data-name="&lt;Group&gt;">
            <polygon id="306e6ced-6156-49cc-9ca8-bc30284b2649" data-name="&lt;Path&gt;" class="6a500fd9-3682-45a3-b75f-13d708650cfb" points="212.72 300.75 183.03 300.75 177.09 286.42 218.67 286.42 212.72 300.75"/>
          </g>
        </g>
      </g>
      <g id="654230ab-2fa8-4469-aede-df773caa49dd" data-name="&lt;Group&gt;">
        <g id="33eb6137-67c0-40c8-ad93-bfe5bfd41ae0" data-name="&lt;Group&gt;">
          <g id="103f8211-1f2d-4cc1-a736-9fa97836f46b" data-name="&lt;Group&gt;">
            <g id="4cd641f2-55eb-4884-b403-e59ec0d21bad" data-name="&lt;Group&gt;">
              <g id="764d3eb7-dd0e-4c39-9ce8-7c067da09a75" data-name="&lt;Group&gt;">
                <path id="cdd073ae-295b-490c-88d0-fd8d5f65c2a0" data-name="&lt;Path&gt;" class="6a500fd9-3682-45a3-b75f-13d708650cfb" d="M89.07,303.13a10,10,0,0,1-13.7,3.43,10.07,10.07,0,0,1-3.42-13.77,10,10,0,0,1,13.7-3.43A10.07,10.07,0,0,1,89.07,303.13Z"/>
              </g>
            </g>
          </g>
          <g id="d45ad286-83c5-4761-9d03-cee6850c6895" data-name="&lt;Group&gt;">
            <g id="6f97a7a3-56b8-4012-926f-b7dd6847a24a" data-name="&lt;Group&gt;">
              <g id="d61dcd98-7a91-4bd7-b3a2-e3bb0ff421ed" data-name="&lt;Group&gt;">
                <path id="b4c27f26-ee1b-488a-b337-65df29c862aa" data-name="&lt;Path&gt;" class="6a500fd9-3682-45a3-b75f-13d708650cfb" d="M30.43,303.13a10,10,0,0,1-13.7,3.43,10.07,10.07,0,0,1-3.42-13.77A10,10,0,0,1,27,289.36,10.07,10.07,0,0,1,30.43,303.13Z"/>
              </g>
            </g>
          </g>
        </g>
        <g id="07c5131b-caec-4faa-875e-db1262a6d2b5" data-name="&lt;Group&gt;">
          <g id="a3cdf0a2-8c33-40bd-a536-77fa26458df6" data-name="&lt;Group&gt;">
            <rect id="ee5877fe-d21b-406f-a9c5-a48f4714405f" data-name="&lt;Rectangle&gt;" class="6a500fd9-3682-45a3-b75f-13d708650cfb" x="7.3" y="286.42" width="87.79" height="8.58"/>
          </g>
        </g>
        <g id="4e41798b-15cc-44eb-b3c4-0d81600004d5" data-name="&lt;Group&gt;">
          <g id="516d5177-34dd-4555-8669-da25e9f10291" data-name="&lt;Group&gt;">
            <polygon id="7660be45-c883-4c20-b694-7621f51840ac" data-name="&lt;Path&gt;" class="6a500fd9-3682-45a3-b75f-13d708650cfb" points="66.04 300.75 36.34 300.75 30.4 286.42 71.98 286.42 66.04 300.75"/>
          </g>
        </g>
      </g>
      <g id="b100c3ec-11ed-4f7c-8e14-23cf2ae22286" data-name="&lt;Group&gt;">
        <g id="ee78af62-5b66-4cd4-9012-cba33900693d" data-name="&lt;Group&gt;">
          <polygon id="e86ee885-2d6f-46c3-97a8-1aa9a051fd2d" data-name="&lt;Path&gt;" class="6a500fd9-3682-45a3-b75f-13d708650cfb" points="144.84 300.75 103.77 300.75 97.83 286.42 150.78 286.42 144.84 300.75"/>
        </g>
      </g>
      <g id="31f66e35-db16-4427-890c-2126dcd8345f" data-name="&lt;Group&gt;">
        <g id="b3cc8866-3f75-42b2-beeb-994fc10ad2b9" data-name="&lt;Group&gt;">
          <g id="65e6353f-a566-4e98-a369-006ea4d0d9bd" data-name="&lt;Group&gt;">
            <g id="cbfd5ce7-28ff-436d-bd32-cd38dc360f94" data-name="&lt;Group&gt;">
              <rect id="c41b4c6a-c705-49d9-88cf-d725ce9edc13" data-name="&lt;Rectangle&gt;" class="e435c038-5052-4c4a-9563-12910ae1a455" x="249.11" y="282.79" width="4.55" height="4.97"/>
            </g>
          </g>
          <g id="43ebcaf1-7963-43c5-9d36-9d36c43d2ffe" data-name="&lt;Group&gt;">
            <g id="cd34eaf0-c3c5-4825-887b-152ae07149be" data-name="&lt;Group&gt;">
              <rect id="46a4cc50-e62e-43e8-a34b-86118c463fda" data-name="&lt;Rectangle&gt;" class="e435c038-5052-4c4a-9563-12910ae1a455" x="253.65" y="280.12" width="1.91" height="10.31" transform="translate(509.22 570.55) rotate(180)"/>
            </g>
          </g>
        </g>
        <g id="9f1b18e8-559f-4aa9-abdd-4d1196c723ce" data-name="&lt;Group&gt;">
          <g id="8324b060-1a8d-40b4-bb52-a6499d111d33" data-name="&lt;Group&gt;">
            <g id="4dd00876-24b6-47f3-b903-d7347abd809f" data-name="&lt;Group&gt;">
              <rect id="06b482e2-6d26-403c-b51e-a570566dcb4d" data-name="&lt;Rectangle&gt;" class="19f79810-9df1-45d7-9b0d-a92a3874e135" y="197.81" width="250.42" height="82.31"/>
            </g>
          </g>
          <g id="f5092c70-d934-4eee-ac85-2d3f2edeb00c" data-name="&lt;Group&gt;">
            <g id="5285542f-0912-479b-9a23-efd0250d06e6" data-name="&lt;Group&gt;">
              <rect id="dce8e971-f777-4460-b485-ff359b31a340" data-name="&lt;Path&gt;" class="0a06cd46-2831-474d-858c-ac6a1936707f" x="14.7" y="208.78" width="2.73" height="60.37"/>
            </g>
            <g id="2145d06d-6b2e-4cbf-ac76-7c38f7e8eed4" data-name="&lt;Group&gt;">
              <rect id="3df26f6e-ad83-42a2-b7b5-7a3fab5ee4ca" data-name="&lt;Path&gt;" class="0a06cd46-2831-474d-858c-ac6a1936707f" x="34.55" y="208.78" width="2.73" height="60.37"/>
            </g>
            <g id="4cb1fcdb-71ab-4bb1-a0ca-f39727f3fa8d" data-name="&lt;Group&gt;">
              <rect id="5384774c-03c5-4d3d-9e03-36046f61207c" data-name="&lt;Path&gt;" class="0a06cd46-2831-474d-858c-ac6a1936707f" x="54.39" y="208.78" width="2.73" height="60.37"/>
            </g>
            <g id="aa222159-6073-4056-a30e-7ec962fc60bf" data-name="&lt;Group&gt;">
              <rect id="9c877665-91e3-4954-b157-4a4677b68982" data-name="&lt;Path&gt;" class="0a06cd46-2831-474d-858c-ac6a1936707f" x="74.23" y="208.78" width="2.73" height="60.37"/>
            </g>
            <g id="fffd0af1-bf60-416f-86db-1bbee7c50573" data-name="&lt;Group&gt;">
              <rect id="f91a2679-9702-4d39-80cd-2bbd9dfee4e9" data-name="&lt;Path&gt;" class="0a06cd46-2831-474d-858c-ac6a1936707f" x="94.08" y="208.78" width="2.73" height="60.37"/>
            </g>
            <g id="1246b51f-1624-4618-b015-43bb89819953" data-name="&lt;Group&gt;">
              <rect id="4e5e2510-f8c3-424d-bdaf-b7ad44b96a59" data-name="&lt;Path&gt;" class="0a06cd46-2831-474d-858c-ac6a1936707f" x="113.92" y="208.78" width="2.73" height="60.37"/>
            </g>
            <g id="943fa4eb-6964-43ee-8e21-4743c7aa793e" data-name="&lt;Group&gt;">
              <rect id="a6261278-c122-400d-b3f8-3586069ba6f1" data-name="&lt;Path&gt;" class="0a06cd46-2831-474d-858c-ac6a1936707f" x="133.77" y="208.78" width="2.73" height="60.37"/>
            </g>
            <g id="68f142af-b4b0-4b56-9d72-5e209eb36a88" data-name="&lt;Group&gt;">
              <rect id="6a97f731-eaa6-4a55-a016-c331741a8330" data-name="&lt;Path&gt;" class="0a06cd46-2831-474d-858c-ac6a1936707f" x="153.61" y="208.78" width="2.73" height="60.37"/>
            </g>
            <g id="97c7c54c-da25-422f-a3bf-efbb5ac92ef9" data-name="&lt;Group&gt;">
              <rect id="789d2336-7f35-44ac-9e90-2b649e13499c" data-name="&lt;Path&gt;" class="0a06cd46-2831-474d-858c-ac6a1936707f" x="173.46" y="208.78" width="2.73" height="60.37"/>
            </g>
            <g id="c500068e-2a34-48b1-971a-bb81c2b7a0fb" data-name="&lt;Group&gt;">
              <rect id="aa732d17-9d18-42a3-ac2a-32f4512b8b55" data-name="&lt;Path&gt;" class="0a06cd46-2831-474d-858c-ac6a1936707f" x="193.3" y="208.78" width="2.73" height="60.37"/>
            </g>
            <g id="541d4e29-19ba-42de-8af6-45f406af2f6f" data-name="&lt;Group&gt;">
              <rect id="5b659a1c-4c5b-4ab0-a55a-76421f345359" data-name="&lt;Path&gt;" class="0a06cd46-2831-474d-858c-ac6a1936707f" x="213.15" y="208.78" width="2.73" height="60.37"/>
            </g>
            <g id="adffc896-21b3-4a67-95c5-2f4885d05c85" data-name="&lt;Group&gt;">
              <rect id="d25217c3-adb2-4fac-b95a-54ceab47ca84" data-name="&lt;Path&gt;" class="0a06cd46-2831-474d-858c-ac6a1936707f" x="232.99" y="208.78" width="2.73" height="60.37"/>
            </g>
          </g>
        </g>
        <g id="101adc18-3ca9-41c6-9d81-9f6dec76f15b" data-name="&lt;Group&gt;">
          <g id="da5dd9bb-39bd-48ad-a180-45ae0a047d45" data-name="&lt;Group&gt;">
            <rect id="c537ac59-f8ed-4cb8-ac5e-91bf1faad8d6" data-name="&lt;Rectangle&gt;" class="a188dcf6-da42-47bf-ba77-92c6430dd514" y="280.12" width="250.42" height="10.31"/>
          </g>
        </g>
      </g>
    </g>
    <g id="fcbff850-bbad-4eb3-bb2e-f40e0a2868ba" data-name="&lt;Group&gt;">
      <g id="971cb4a6-59ee-4623-b593-391967d8762c" data-name="&lt;Group&gt;">
        <g id="c4b243f5-d2ea-487b-ab0b-b7e314ba5701" data-name="&lt;Group&gt;">
          <g id="9be21b07-0875-49cf-8159-d5e62668f1dc" data-name="&lt;Group&gt;">
            <rect id="8482ae63-edab-4b77-bbda-83942f7f948b" data-name="&lt;Rectangle&gt;" class="e435c038-5052-4c4a-9563-12910ae1a455" x="259.89" y="282.79" width="4.55" height="4.97" transform="translate(524.32 570.55) rotate(180)"/>
          </g>
        </g>
        <g id="bfe266b1-71ef-4eba-8078-7cbfc01d9652" data-name="&lt;Group&gt;">
          <g id="71b99788-c4a1-48db-870d-aa7a5b699822" data-name="&lt;Group&gt;">
            <rect id="567b45c3-1a35-40d9-a504-e1cd94d1e7db" data-name="&lt;Rectangle&gt;" class="e435c038-5052-4c4a-9563-12910ae1a455" x="257.98" y="280.12" width="1.91" height="10.31"/>
          </g>
        </g>
      </g>
      <g id="e28f4d58-bb10-4a60-9a97-9202620b5a35" data-name="&lt;Group&gt;">
        <g id="019189c1-9ad2-45ab-b25b-8e85232ebc5d" data-name="&lt;Group&gt;">
          <g id="cbea2009-a7a8-4c11-9627-2c7faa053d08" data-name="&lt;Group&gt;">
            <path id="b24e2091-0100-4769-965a-73ccbb314abb" data-name="&lt;Rectangle&gt;" class="6a500fd9-3682-45a3-b75f-13d708650cfb" d="M346.66,192h57.67a6.64,6.64,0,0,1,6.64,6.64v3.13a0,0,0,0,1,0,0H343.56a0,0,0,0,1,0,0V195.1A3.1,3.1,0,0,1,346.66,192Z"/>
          </g>
        </g>
        <g id="21f68667-6859-4819-8ab7-5df897612426" data-name="&lt;Group&gt;">
          <g id="548f39db-e093-4501-bdc1-1aaac8695a2d" data-name="&lt;Group&gt;">
            <g id="76565eaf-e115-4962-819a-8d9570dc9d06" data-name="&lt;Group&gt;">
              <rect id="1e0b8efc-bc87-4f09-9c6c-335bc08f4f4e" data-name="&lt;Rectangle&gt;" class="6a500fd9-3682-45a3-b75f-13d708650cfb" x="335.86" y="271.75" width="70.91" height="23.09"/>
            </g>
          </g>
          <g id="4a76cb88-d19d-4f91-868f-fe6bd1136d00" data-name="&lt;Group&gt;">
            <g id="00b400cd-ebad-488a-b20f-bde752d0d2f4" data-name="&lt;Group&gt;">
              <rect id="5101ba22-538d-435e-a4e9-2ca3e9420111" data-name="&lt;Rectangle&gt;" class="6a500fd9-3682-45a3-b75f-13d708650cfb" x="467.98" y="271.75" width="21.8" height="23.09"/>
            </g>
          </g>
          <g id="f2463a5f-82b0-4eda-8a8e-f8f9ae029830" data-name="&lt;Group&gt;">
            <g id="d543abe6-f56b-4fa6-9272-364f6bc8a0be" data-name="&lt;Group&gt;">
              <path id="b2883831-7c09-4835-9d70-52fbd9b986e6" data-name="&lt;Path&gt;" class="a188dcf6-da42-47bf-ba77-92c6430dd514" d="M500,265.44c0,8.54-4.48,22.16-10.22,23a9.56,9.56,0,0,1-1.15.08H263.09V197.82H429c12.59,0,24.83,6,34.8,17.2l10.43,11.66,7.47,8.35,12.92,14.45a17.12,17.12,0,0,1,2.48,3.59,1.69,1.69,0,0,1,.13.25A26.39,26.39,0,0,1,500,265.44Z"/>
            </g>
          </g>
          <g id="fe5fc6ec-fd13-4564-ae62-f02cc6536a18" data-name="&lt;Group&gt;">
            <g id="d2bbe7ca-6b26-4aaa-9bfe-64b6bd5719e7" data-name="&lt;Group&gt;">
              <path id="be7d2fb3-59fa-489c-92d5-b347fe360417" data-name="&lt;Path&gt;" class="19f79810-9df1-45d7-9b0d-a92a3874e135" d="M349.69,253.27a1.37,1.37,0,0,1-1.36-1.37V236a1.36,1.36,0,1,1,2.73,0V251.9A1.37,1.37,0,0,1,349.69,253.27Z"/>
            </g>
            <g id="05cfd4c1-a305-4a0a-b3a6-0cd05b9612e4" data-name="&lt;Group&gt;">
              <path id="302b0f66-a19e-4afb-a79d-3f7eb6067804" data-name="&lt;Path&gt;" class="19f79810-9df1-45d7-9b0d-a92a3874e135" d="M356.19,253.27a1.37,1.37,0,0,1-1.36-1.37V236a1.36,1.36,0,1,1,2.73,0V251.9A1.37,1.37,0,0,1,356.19,253.27Z"/>
            </g>
            <g id="ce82f832-36e1-4fe6-a4ca-838eb9a5f5b2" data-name="&lt;Group&gt;">
              <path id="434af181-88c9-4436-819e-c1421ecfc3b3" data-name="&lt;Path&gt;" class="19f79810-9df1-45d7-9b0d-a92a3874e135" d="M362.69,253.27a1.37,1.37,0,0,1-1.36-1.37V236a1.36,1.36,0,1,1,2.73,0V251.9A1.37,1.37,0,0,1,362.69,253.27Z"/>
            </g>
            <g id="73639e75-68e2-41d4-b67d-34af10367900" data-name="&lt;Group&gt;">
              <path id="4de8940c-842a-4928-a30e-0c780118e760" data-name="&lt;Path&gt;" class="19f79810-9df1-45d7-9b0d-a92a3874e135" d="M369.18,253.27a1.37,1.37,0,0,1-1.36-1.37V236a1.36,1.36,0,1,1,2.73,0V251.9A1.37,1.37,0,0,1,369.18,253.27Z"/>
            </g>
            <g id="ca56e1dc-3b5e-46aa-87c3-ab087c909900" data-name="&lt;Group&gt;">
              <path id="741eed2e-44db-4fc9-acb5-8216d50a402e" data-name="&lt;Path&gt;" class="19f79810-9df1-45d7-9b0d-a92a3874e135" d="M375.68,253.27a1.37,1.37,0,0,1-1.36-1.37V236a1.36,1.36,0,1,1,2.73,0V251.9A1.37,1.37,0,0,1,375.68,253.27Z"/>
            </g>
            <g id="eb55a099-59b5-4574-b0b9-a35c1927ddf2" data-name="&lt;Group&gt;">
              <path id="754499c0-5ca6-4d79-adf7-c3c3d71b515c" data-name="&lt;Path&gt;" class="19f79810-9df1-45d7-9b0d-a92a3874e135" d="M382.18,253.27a1.37,1.37,0,0,1-1.36-1.37V236a1.36,1.36,0,1,1,2.73,0V251.9A1.37,1.37,0,0,1,382.18,253.27Z"/>
            </g>
            <g id="440bcb32-b418-4538-92e1-e9aa976160e3" data-name="&lt;Group&gt;">
              <path id="e59fedbe-4587-46c2-a3d2-7dab6ba325ff" data-name="&lt;Path&gt;" class="19f79810-9df1-45d7-9b0d-a92a3874e135" d="M388.68,253.27a1.37,1.37,0,0,1-1.36-1.37V236a1.36,1.36,0,1,1,2.73,0V251.9A1.37,1.37,0,0,1,388.68,253.27Z"/>
            </g>
            <g id="9c543db3-1da6-4c66-9aa0-eba9de5f71f7" data-name="&lt;Group&gt;">
              <path id="1e9f163f-d6bd-4937-b7b1-0934bae887db" data-name="&lt;Path&gt;" class="19f79810-9df1-45d7-9b0d-a92a3874e135" d="M395.18,253.27a1.37,1.37,0,0,1-1.36-1.37V236a1.36,1.36,0,1,1,2.73,0V251.9A1.37,1.37,0,0,1,395.18,253.27Z"/>
            </g>
          </g>
        </g>
        <g id="f8639264-f38a-4221-a304-58df9aef0eb7" data-name="&lt;Group&gt;">
          <g id="f16848e2-e864-4e94-bf5f-74717e2d6d0b" data-name="&lt;Group&gt;">
            <path id="2c038d51-897a-44f0-b18f-fd0bf95d3bc3" data-name="&lt;Path&gt;" class="6a500fd9-3682-45a3-b75f-13d708650cfb" d="M438.23,211.38H272.38a1.14,1.14,0,0,1,0-2.29H438.23a1.14,1.14,0,0,1,0,2.29Z"/>
          </g>
        </g>
        <g id="84ac98ba-4bd4-401d-8a7f-eec58bd3af75" data-name="&lt;Group&gt;">
          <g id="e21cf214-18a9-494a-a208-c6512fcb8545" data-name="&lt;Group&gt;">
            <path id="8e7e007c-4852-4585-9179-fe96da3a31f3" data-name="&lt;Path&gt;" class="6a500fd9-3682-45a3-b75f-13d708650cfb" d="M490.53,281.1H272.38a1.14,1.14,0,0,1,0-2.29H490.53a1.14,1.14,0,0,1,0,2.29Z"/>
          </g>
        </g>
        <g id="d464c58e-69e8-40d3-9566-abd2a71229c1" data-name="&lt;Group&gt;">
          <g id="550c8557-30f8-4a0d-a7d5-19f4869b309f" data-name="&lt;Group&gt;">
            <g id="ffc86bcd-fb19-4a1e-972f-3b45bec87eeb" data-name="&lt;Group&gt;">
              <rect id="9c731973-076c-425f-9bd8-dae27deda652" data-name="&lt;Rectangle&gt;" class="6a500fd9-3682-45a3-b75f-13d708650cfb" x="278.06" y="235.03" width="18.19" height="18.29" rx="0.96" ry="0.96"/>
            </g>
          </g>
          <g id="51d2d8d6-c732-49a7-9438-def53f97fa8e" data-name="&lt;Group&gt;">
            <g id="fcee73c7-ebb8-455b-9d69-02ee76ae5ef1" data-name="&lt;Group&gt;">
              <rect id="e031a024-f3ae-455a-966a-5261f056c26f" data-name="&lt;Rectangle&gt;" class="6a500fd9-3682-45a3-b75f-13d708650cfb" x="299.1" y="235.03" width="18.19" height="18.29" rx="0.96" ry="0.96"/>
            </g>
          </g>
          <g id="d419853e-80c8-4482-8f1e-cfc47228ca8d" data-name="&lt;Group&gt;">
            <g id="5a6cdc25-89e7-4e5b-b7f3-28bf89194f95" data-name="&lt;Group&gt;">
              <rect id="ffd4566d-f51e-465c-a069-d522ee87727a" data-name="&lt;Rectangle&gt;" class="6a500fd9-3682-45a3-b75f-13d708650cfb" x="320.13" y="235.03" width="18.19" height="18.29" rx="0.96" ry="0.96"/>
            </g>
          </g>
          <g id="b5c41916-3842-4e56-9151-94e825928f97" data-name="&lt;Group&gt;">
            <g id="8f89a112-34bc-40ec-a217-2a5eb12d6693" data-name="&lt;Group&gt;">
              <path id="b8224ce5-0862-44d5-87fc-a4ac2bd0207b" data-name="&lt;Path&gt;" class="19f79810-9df1-45d7-9b0d-a92a3874e135" d="M497.19,253.31H454.72a1.14,1.14,0,0,1-1.14-1.14v-16a1.14,1.14,0,0,1,1.14-1.14h26.95l12.92,14.45a17.12,17.12,0,0,1,2.48,3.59A1.69,1.69,0,0,1,497.19,253.31Z"/>
            </g>
          </g>
        </g>
        <g id="7518c4a0-4a96-44b1-a09c-91f9f66e051d" data-name="&lt;Group&gt;">
          <g id="e49714b2-1b35-4996-b8af-3ecd1ab531bc" data-name="&lt;Group&gt;">
            <rect id="002b9313-2d93-4a32-ae26-78bee1668895" data-name="&lt;Rectangle&gt;" class="6a500fd9-3682-45a3-b75f-13d708650cfb" x="428.38" y="235.03" width="14.81" height="28.31"/>
          </g>
        </g>
      </g>
    </g>
  </g>
</svg>
