<?xml version="1.0" encoding="utf-8"?>
<!-- Generator: Adobe Illustrator 23.0.1, SVG Export Plug-In . SVG Version: 6.00 Build 0)  -->
<svg version="1.1" id="Layer_1" xmlns="http://www.w3.org/2000/svg" xmlns:xlink="http://www.w3.org/1999/xlink" x="0px" y="0px"
	 viewBox="0 0 76 137" style="enable-background:new 0 0 76 137;" xml:space="preserve">
<style type="text/css">
	.st0{fill:#808285;}
</style>
<path class="st0" d="M67.2,70.3c-5.7-5.2-14.5-9.2-26.1-12c-7.9-1.9-13.5-4.1-16.6-6.8c-3.1-2.6-4.6-6-4.6-10.4c0-5,1.6-8.8,5-11.5
	c3.4-2.8,8.2-4.2,14.4-4.2c5.9,0,10.5,1.4,13.5,4.1c3.1,2.7,5,7.1,5.8,12.8l0.2,1.4h15.9l-0.1-1.6c-0.5-9.2-3.9-16.6-10.3-21.9
	c-4.8-4-10.9-6.5-18.1-7.5V0H30.1v13c-6.1,1.1-11.5,3.6-16,7.2C7.4,25.7,4,32.8,4,41.4c0,7.5,2.6,13.8,7.9,18.7
	c5.2,4.8,13,8.5,23.2,10.9c9.2,2.2,15.8,4.8,19.5,7.8c3.6,2.9,5.4,6.8,5.4,11.7c0,6-1.9,10.6-5.7,13.9c-3.9,3.4-9.3,5.1-16.3,5.1
	c-6.9,0-12.4-1.7-16.1-5.1c-3.8-3.3-5.7-8-5.7-14.2l-0.1-1.5H0.3L0,92.7c0.1,7.5,3.6,14.3,10.4,20.2c5.7,4.8,12.3,7.8,19.6,9.1v15
	h16.3v-15c7.4-1.2,13.7-4,18.8-8.3C72.3,107.6,76,99.7,76,90.2C76,82.3,73,75.6,67.2,70.3z"/>
</svg>
