<svg id="260ad989-7da5-4b31-905a-0c7f55d35ae6" data-name="Layer 1" xmlns="http://www.w3.org/2000/svg" xmlns:xlink="http://www.w3.org/1999/xlink" viewBox="0 0 471 466">
  <defs>
    <style>
      .d95a2390-3b36-4cbe-8263-e031bd8ba5c4 {
        fill: url(#d37ca9e1-35e7-4c7a-ad4e-f6fddab82175);
      }

      .a7f447d4-cbf9-461e-a60c-1caf6df01a86 {
        fill: url(#35b5af37-c44a-49e2-90aa-e95269967562);
      }

      .\36 b079e3c-bf0a-41be-a66c-b1d0fa077e96 {
        fill: url(#e4b941a7-2a01-41be-909f-59f0cfbc51bd);
      }

      .d98e7aaa-23a1-43cb-9b05-52074dd1b894 {
        fill: #b7d2ee;
      }

      .caebc339-78a9-45c5-8a5a-89d3c75e7e50 {
        fill: #98bade;
      }

      .\31 292aba7-7d89-4c28-9357-305de2f18890 {
        fill: #c4c4c4;
      }

      .\37 393ad79-45d8-4dbf-b885-77383bfbc5e9 {
        fill: #ebebeb;
      }

      .cf69bc82-c2fe-4f27-8ff9-78d81cd0899d {
        fill: #79a0c9;
      }

      .\38 783ba64-dbd1-4539-ae77-9d91e82e0c39 {
        fill: url(#6de92d5f-0e3e-41eb-9fcb-a4bc9f3700d0);
      }

      .\31 a4b0c7c-ed51-4652-8a20-fd758c3ab6ee {
        fill: url(#8d626879-49f2-44a3-afd6-03f86c048d0c);
      }

      .\38 3d3a74b-a59c-47c9-8717-6b82c8ec5ebb {
        fill: url(#79cf731b-14da-46e8-a707-bdad8fa8fbd1);
      }

      .ab25361f-ca10-44b3-b77a-15de81a457e5 {
        fill: #e89393;
      }

      .a5a0735d-0917-46d8-b051-77f849cca7ab {
        fill: #d87979;
      }

      .f8173fa9-f736-43c2-b8b5-b8ae14aecead {
        fill: #b45959;
      }
    </style>
    <linearGradient id="d37ca9e1-35e7-4c7a-ad4e-f6fddab82175" x1="2546.216" y1="-73.209" x2="3667.524" y2="-73.209" gradientTransform="matrix(0.211, 0, 0, -0.211, -520.462, 377.099)" gradientUnits="userSpaceOnUse">
      <stop offset="0" stop-color="#7999b8"/>
      <stop offset="1" stop-color="#31587f"/>
    </linearGradient>
    <linearGradient id="35b5af37-c44a-49e2-90aa-e95269967562" x1="2615.178" y1="352.259" x2="3676.141" y2="352.259" gradientTransform="matrix(0.211, 0, 0, -0.211, -520.462, 377.099)" gradientUnits="userSpaceOnUse">
      <stop offset="0.102" stop-color="#e4e4e4"/>
      <stop offset="1" stop-color="#878787"/>
    </linearGradient>
    <linearGradient id="e4b941a7-2a01-41be-909f-59f0cfbc51bd" x1="2567.435" y1="784.607" x2="3681.446" y2="784.607" gradientTransform="matrix(0.211, 0, 0, -0.211, -520.462, 377.099)" gradientUnits="userSpaceOnUse">
      <stop offset="0" stop-color="#8eb2d5"/>
      <stop offset="1" stop-color="#3e658b"/>
    </linearGradient>
    <linearGradient id="6de92d5f-0e3e-41eb-9fcb-a4bc9f3700d0" x1="3659.96" y1="230.109" x2="4781.257" y2="230.109" gradientTransform="matrix(0.211, 0, 0, -0.211, -520.462, 377.099)" gradientUnits="userSpaceOnUse">
      <stop offset="0" stop-color="#c66262"/>
      <stop offset="1" stop-color="#932d2d"/>
    </linearGradient>
    <linearGradient id="8d626879-49f2-44a3-afd6-03f86c048d0c" x1="3728.921" y1="655.577" x2="4789.873" y2="655.577" xlink:href="#35b5af37-c44a-49e2-90aa-e95269967562"/>
    <linearGradient id="79cf731b-14da-46e8-a707-bdad8fa8fbd1" x1="3681.178" y1="1087.925" x2="4795.178" y2="1087.925" gradientTransform="matrix(0.211, 0, 0, -0.211, -520.462, 377.099)" gradientUnits="userSpaceOnUse">
      <stop offset="0" stop-color="#c66262"/>
      <stop offset="1" stop-color="#993535"/>
    </linearGradient>
  </defs>
  <title>LCL</title>
  <g>
    <g id="b694f6c5-0031-4a94-8de3-2466f30963eb" data-name="car3 0 Layer12 0 FILL">
      <path class="d95a2390-3b36-4cbe-8263-e031bd8ba5c4" d="M33.02,363.482q-15.67-9.063-23.855-19.895A42.82,42.82,0,0,1,0,319.091v83.543q1.749,25.134,32.81,43.4Q66.669,465.93,115.569,466q31.831,0,57.925-8.354a143.812,143.812,0,0,0,26.514-11.541q16.23-9.133,25.254-20.036a49.705,49.705,0,0,0,9.794-18.408V326.384a48.692,48.692,0,0,1-5.247,11.469,51.3,51.3,0,0,1-4.128,5.664q-9.095,10.832-25.254,19.895-35.4,19.894-84.439,19.895Q67.089,383.235,33.02,363.482Z"/>
      <path class="a7f447d4-cbf9-461e-a60c-1caf6df01a86" d="M18.958,254.593Q3.148,241.495,0,225.494v93.6a42.82,42.82,0,0,0,9.164,24.5q8.185,10.832,23.855,19.895,34.069,19.753,82.969,19.824,49.04,0,84.439-19.895,16.16-9.063,25.254-19.895a51.3,51.3,0,0,0,4.128-5.664,48.692,48.692,0,0,0,5.247-11.469V222.237q-2.938,15.08-16.3,27.612-1.749,1.628-3.708,3.257a107.184,107.184,0,0,1-15.74,10.62,3.692,3.692,0,0,0-.56.354l-2.1,1.133a149.458,149.458,0,0,1-14.691,6.8Q152.367,283.62,114.87,283.62q-42.6-.07-73.8-15.08-1.749-.921-3.428-1.77-2.8-1.486-5.526-3.115a107.551,107.551,0,0,1-13.152-9.062"/>
      <path class="6b079e3c-bf0a-41be-a66c-b1d0fa077e96" d="M41.065,184.926q-4.547-2.2-8.814-4.744-4.338-2.548-8.115-5.239A72.439,72.439,0,0,1,9.024,160.854,43.811,43.811,0,0,1,0,141.314v84.181q3.148,16,18.958,29.1a107.551,107.551,0,0,0,13.152,9.062q2.729,1.628,5.526,3.115,1.679.85,3.428,1.77,31.2,15.009,73.8,15.08,37.5,0,67.089-11.611a149.458,149.458,0,0,0,14.691-6.8l2.1-1.133a3.692,3.692,0,0,1,.56-.354,107.184,107.184,0,0,0,15.74-10.62q1.959-1.628,3.708-3.257,13.362-12.532,16.3-27.612V139.472a47,47,0,0,1-6.576,15.717,65.12,65.12,0,0,1-4.127,5.523q-.7.779-1.329,1.487a78.829,78.829,0,0,1-11.753,10.549,122.31,122.31,0,0,1-11.823,7.5l-2.8,1.557q-7.136,3.682-14.691,6.726-29.522,11.612-66.949,11.611Q72.266,200.077,41.065,184.926Z"/>
      <path class="d98e7aaa-23a1-43cb-9b05-52074dd1b894" d="M203.226,83.965q-3.218-1.911-6.576-3.61a128.068,128.068,0,0,0-14.691-6.372,164.355,164.355,0,0,0-45.682-9.416Q128.511,64,120.327,64A207.844,207.844,0,0,0,87.1,66.549,155.182,155.182,0,0,0,41.065,81.275q-2.588,1.275-5.107,2.69Q4.267,101.736,0,126.3v15.01a43.811,43.811,0,0,0,9.024,19.541,72.439,72.439,0,0,0,15.111,14.089q3.778,2.69,8.115,5.239,4.268,2.549,8.814,4.744,31.2,15.151,73.945,15.222,37.427,0,66.949-11.611,7.556-3.044,14.691-6.726l2.8-1.557a122.31,122.31,0,0,0,11.823-7.5A78.829,78.829,0,0,0,223.024,162.2q.63-.708,1.329-1.487a65.12,65.12,0,0,0,4.127-5.523,47,47,0,0,0,6.576-15.717,44.3,44.3,0,0,0,.91-7.434q.7-18.054-12.942-32.709a86.75,86.75,0,0,0-19.8-15.364m-9.3,8.284q1.4.708,2.728,1.487Q217.357,105.205,223.234,120a32.783,32.783,0,0,1,2.1,15.788,34.976,34.976,0,0,1-8.814,19.328q-7.136,8.284-19.868,15.364-1.329.708-2.728,1.416-31.551,16.5-76.184,16.5-44.7,0-76.323-16.5-27.073-14.16-30.921-33.347-.279-1.416-.419-2.761a32.477,32.477,0,0,1-.21-3.682q0-23.364,31.551-39.86,31.621-16.5,76.323-16.5Q162.371,75.753,193.922,92.249Z"/>
      <path class="caebc339-78a9-45c5-8a5a-89d3c75e7e50" d="M196.65,101.1q-1.329-.779-2.728-1.487-31.551-16.5-76.184-16.5-44.7,0-76.323,16.5-29.032,15.151-31.341,36.178.14,1.346.419,2.761,3.848,19.187,30.921,33.347,31.621,16.5,76.323,16.5,44.633,0,76.184-16.5,1.4-.708,2.728-1.416,12.732-7.08,19.868-15.364a34.976,34.976,0,0,0,8.814-19.328,33.264,33.264,0,0,0-2.1-8.425q-5.877-14.8-26.584-26.267m-28.962,9.275a39.38,39.38,0,0,1,14.271,2.407,6.355,6.355,0,0,0,.84.354,30.417,30.417,0,0,1,3.288,1.628q7.415,4.39,7.276,10.549v.142l-.07,5.239a5.7,5.7,0,0,1,.07.92v.779a2.339,2.339,0,0,0-.07.5v.354q-.07.425-.14.779-.91,4.106-5.317,7.434a27.21,27.21,0,0,1-2.588,1.629,30.418,30.418,0,0,1-3.288,1.629,40.412,40.412,0,0,1-15.46,2.761q-10.843,0-18.329-4.39a17.454,17.454,0,0,1-1.819-1.2q-4.617-3.257-5.387-7.434v-.212a12.2,12.2,0,0,1-.14-1.841,3.662,3.662,0,0,0,.07-.708v-5.239a7.129,7.129,0,0,1-.07-.991q.07-.637.14-1.274.979-5.452,7.975-9.417Q156.844,110.374,167.688,110.374Z"/>
      <path class="1292aba7-7d89-4c28-9357-305de2f18890" d="M140.964,127.508a1.245,1.245,0,0,1-.07-.354v4.531l.07,2.549v.212q.769,4.177,5.387,7.434a17.454,17.454,0,0,0,1.819,1.2q7.485,4.389,18.329,4.39a40.412,40.412,0,0,0,15.46-2.761,30.418,30.418,0,0,0,3.288-1.629,27.21,27.21,0,0,0,2.588-1.629q4.408-3.327,5.317-7.434.07-.354.14-.779v-2.549l.07-5.239q-.07.85-.21,1.629a7.746,7.746,0,0,1-.42,1.487,13.991,13.991,0,0,1-.7,1.487,16.282,16.282,0,0,1-4.2,4.461,27.292,27.292,0,0,1-2.588,1.628,30.425,30.425,0,0,1-3.288,1.629,40.4,40.4,0,0,1-15.46,2.761q-10.843,0-18.329-4.39a17.454,17.454,0,0,1-1.819-1.2,12.617,12.617,0,0,1-4.827-5.664A6.011,6.011,0,0,1,140.964,127.508Z"/>
      <path class="7393ad79-45d8-4dbf-b885-77383bfbc5e9" d="M181.959,112.781a39.38,39.38,0,0,0-14.271-2.407q-10.844,0-18.749,4.389-7,3.965-7.975,9.417-.07.637-.14,1.274a7.129,7.129,0,0,0,.07.991v.708a1.245,1.245,0,0,0,.07.354,6.011,6.011,0,0,0,.559,1.77,12.617,12.617,0,0,0,4.827,5.664,17.454,17.454,0,0,0,1.819,1.2q7.485,4.39,18.329,4.39a40.4,40.4,0,0,0,15.46-2.761,30.425,30.425,0,0,0,3.288-1.629,27.292,27.292,0,0,0,2.588-1.628,16.282,16.282,0,0,0,4.2-4.461,13.991,13.991,0,0,0,.7-1.487,7.746,7.746,0,0,0,.42-1.487q.14-.779.21-1.629v-.142q.14-6.16-7.276-10.549a30.417,30.417,0,0,0-3.288-1.628A6.355,6.355,0,0,1,181.959,112.781Z"/>
      <path class="cf69bc82-c2fe-4f27-8ff9-78d81cd0899d" d="M193.922,99.612q1.4.708,2.728,1.487,20.707,11.47,26.584,26.267a33.264,33.264,0,0,1,2.1,8.425,32.783,32.783,0,0,0-2.1-15.788q-5.877-14.8-26.584-26.267-1.329-.779-2.728-1.487-31.551-16.5-76.184-16.5-44.7,0-76.323,16.5-31.551,16.5-31.551,39.86a32.477,32.477,0,0,0,.21,3.682q2.308-21.028,31.341-36.178,31.621-16.5,76.323-16.5Q162.371,83.116,193.922,99.612Z"/>
    </g>
    <g id="4a74cb2b-9b23-4f98-81fc-3bc35375523d" data-name="car3 0 Layer7 0 FILL">
      <path class="8783ba64-dbd1-4539-ae77-9d91e82e0c39" d="M470.054,262.384a48.7,48.7,0,0,1-5.247,11.469q-1.679,2.549-3.638,5.1-1.819,2.195-3.917,4.318a98.678,98.678,0,0,1-21.827,16.143q-35.4,19.894-84.438,19.895-48.9-.071-82.968-19.824a91.347,91.347,0,0,1-17.069-12.39,59.322,59.322,0,0,1-6.786-7.5,42.82,42.82,0,0,1-9.164-24.5v83.543q1.749,25.134,32.81,43.4,33.859,19.9,82.758,19.965,49.04,0,84.438-19.895,29.1-16.425,35.048-38.444Z"/>
      <path class="1a4b0c7c-ed51-4652-8a20-fd758c3ab6ee" d="M453.754,185.849q-2.029,1.841-4.2,3.682-2.939,2.337-6.156,4.6-4.267,2.832-9.095,5.593a3.658,3.658,0,0,0-.559.354q-5.807,3.186-11.963,5.947-2.378.991-4.827,1.982-4.967,1.982-10.214,3.611-25.674,8-56.875,8-42.534-.07-73.664-15.009a.2.2,0,0,0-.14-.071q-1.749-.921-3.428-1.77-2.8-1.487-5.527-3.115-2.868-1.7-5.526-3.469-4.127-2.761-7.625-5.593-15.81-13.1-18.958-29.1v93.6a42.82,42.82,0,0,0,9.164,24.5,59.322,59.322,0,0,0,6.786,7.5,91.347,91.347,0,0,0,17.069,12.39q34.069,19.753,82.968,19.824,49.04,0,84.438-19.895a98.678,98.678,0,0,0,21.827-16.143q2.1-2.124,3.917-4.318,1.959-2.549,3.638-5.1a48.7,48.7,0,0,0,5.247-11.469V158.237q-2.939,15.08-16.3,27.612"/>
      <path class="83d3a74b-a59c-47c9-8717-6b82c8ec5ebb" d="M459.77,96.217q-.84.991-1.749,1.982-1.119,1.2-2.308,2.478a86.107,86.107,0,0,1-9.444,8.071,122.316,122.316,0,0,1-11.823,7.5q-6.156,3.4-12.662,6.3-2.378.992-4.827,1.982-4.967,1.983-10.214,3.611-25.6,8-56.735,8-42.674-.071-73.8-15.151a.2.2,0,0,0-.14-.071q-4.548-2.195-8.815-4.743-4.337-2.549-8.115-5.239a81.348,81.348,0,0,1-8.185-6.656,63.758,63.758,0,0,1-6.926-7.434A46.166,46.166,0,0,1,236.4,82.907a39.212,39.212,0,0,1-1.4-5.593v84.181q3.148,16,18.958,29.1,3.5,2.832,7.625,5.593,2.658,1.77,5.526,3.469,2.729,1.628,5.527,3.115,1.679.85,3.428,1.77a.2.2,0,0,1,.14.071q31.13,14.939,73.664,15.009,31.2,0,56.875-8,5.247-1.629,10.214-3.611,2.448-.992,4.827-1.982,6.157-2.762,11.963-5.947a3.658,3.658,0,0,1,.559-.354q4.827-2.761,9.095-5.593,3.218-2.266,6.156-4.6,2.169-1.841,4.2-3.682,13.361-12.531,16.3-27.612V75.472a47.008,47.008,0,0,1-6.576,15.717A60.334,60.334,0,0,1,459.77,96.217Z"/>
      <path class="ab25361f-ca10-44b3-b77a-15de81a457e5" d="M438.224,19.965a123.869,123.869,0,0,0-16.44-8.071q-2.378-.992-4.827-1.912-4.967-1.84-10.214-3.328A172.444,172.444,0,0,0,371.275.566Q363.51,0,355.325,0A207.842,207.842,0,0,0,322.1,2.549a155.373,155.373,0,0,0-45.332,14.372l-.56.283a.2.2,0,0,0-.14.071q-2.588,1.275-5.107,2.69Q239.268,37.736,235,62.3V77.313a39.212,39.212,0,0,0,1.4,5.593,46.166,46.166,0,0,0,7.625,13.947,63.758,63.758,0,0,0,6.926,7.434,81.348,81.348,0,0,0,8.185,6.656q3.778,2.69,8.115,5.239,4.267,2.548,8.815,4.743a.2.2,0,0,1,.14.071q31.13,15.08,73.8,15.151,31.13,0,56.735-8,5.247-1.629,10.214-3.611,2.448-.991,4.827-1.982,6.506-2.9,12.662-6.3a122.316,122.316,0,0,0,11.823-7.5,86.107,86.107,0,0,0,9.444-8.071Q456.9,99.4,458.021,98.2q.91-.991,1.749-1.982a60.334,60.334,0,0,0,3.708-5.027,47.008,47.008,0,0,0,6.576-15.717,44.335,44.335,0,0,0,.909-7.434q.63-15.647-9.514-28.674-1.609-2.053-3.428-4.036a86.728,86.728,0,0,0-19.8-15.364m-16.44,4.6q3.568,1.628,7,3.4a80.889,80.889,0,0,1,19.8,13.877q9.094,8.992,11.193,19.541a32.439,32.439,0,0,1,.63,6.443q0,12.673-9.374,23.364-7.835,8.921-22.246,16.426-3.428,1.77-7,3.4-29.382,13.1-69.187,13.1-44.7,0-76.323-16.5-22.386-11.753-28.892-26.833a6.542,6.542,0,0,1-.35-.849,32.477,32.477,0,0,1-2.308-12.107q0-23.364,31.551-39.86,31.62-16.5,76.323-16.5Q392.4,11.47,421.784,24.568Z"/>
      <path class="a5a0735d-0917-46d8-b051-77f849cca7ab" d="M459.77,61.383q-4.058-10.2-15.111-18.762a93.955,93.955,0,0,0-14.2-8.992q-4.2-2.195-8.675-4.106-28.822-12.39-67.508-12.39-44.7,0-76.323,16.5-31.55,16.5-31.55,39.86a33.187,33.187,0,0,0,.629,6.443,6.542,6.542,0,0,0,.35.849q6.506,15.081,28.892,26.833,31.62,16.5,76.323,16.5,39.805,0,69.187-13.1,3.568-1.628,7-3.4,14.411-7.505,22.246-16.426Q460.4,80.5,460.4,67.826a32.439,32.439,0,0,0-.63-6.443m-44.353-13.1q.769.212,1.539.5a6.393,6.393,0,0,0,.839.354,30.427,30.427,0,0,1,3.288,1.628l.7.425q6.716,4.248,6.576,10.124v.142l-.07,5.239a5.652,5.652,0,0,1,.07.92v.779a2.339,2.339,0,0,0-.07.5v.354q-.07.425-.14.779v.141q-.979,4.036-5.317,7.292-.49.354-1.049.708a11.522,11.522,0,0,1-.98.637l-.559.283a30.46,30.46,0,0,1-3.288,1.629,36.085,36.085,0,0,1-10.214,2.478,47.033,47.033,0,0,1-5.247.283q-10.843,0-18.328-4.39a17.47,17.47,0,0,1-1.819-1.2q-4.617-3.257-5.386-7.434v-.212a12.254,12.254,0,0,1-.14-1.841,3.637,3.637,0,0,0,.07-.708V62.445a7.07,7.07,0,0,1-.07-.991q.07-.637.14-1.274a10.819,10.819,0,0,1,2.239-4.744,18.593,18.593,0,0,1,5.736-4.673q7.905-4.389,18.749-4.389a37.642,37.642,0,0,1,4.058.212A35.381,35.381,0,0,1,415.418,48.285Z"/>
      <path class="1292aba7-7d89-4c28-9357-305de2f18890" d="M428.15,63.083a7.744,7.744,0,0,1-.42,1.487,13.984,13.984,0,0,1-.7,1.487q-.35.566-.7,1.062a17.291,17.291,0,0,1-3.5,3.4q-.49.354-1.049.708-.769.5-1.539.921a30.536,30.536,0,0,1-3.288,1.629,1.532,1.532,0,0,0-.49.212,39.171,39.171,0,0,1-9.724,2.265,47.022,47.022,0,0,1-5.247.283q-10.843,0-18.328-4.39a17.462,17.462,0,0,1-1.819-1.2,12.616,12.616,0,0,1-4.827-5.664,6.012,6.012,0,0,1-.56-1.77,1.244,1.244,0,0,1-.07-.354v4.531l.07,2.549v.212q.769,4.177,5.386,7.434a17.47,17.47,0,0,0,1.819,1.2q7.485,4.389,18.328,4.39a47.033,47.033,0,0,0,5.247-.283,36.085,36.085,0,0,0,10.214-2.478,30.46,30.46,0,0,0,3.288-1.629l.559-.283a11.522,11.522,0,0,0,.98-.637q.56-.354,1.049-.708,4.337-3.257,5.317-7.292v-.141q.07-.355.14-.779V66.694l.07-5.239Q428.29,62.3,428.15,63.083Z"/>
      <path class="7393ad79-45d8-4dbf-b885-77383bfbc5e9" d="M416.957,48.781q-.77-.283-1.539-.5a35.381,35.381,0,0,0-8.674-1.7,37.642,37.642,0,0,0-4.058-.212q-10.843,0-18.749,4.389a18.593,18.593,0,0,0-5.736,4.673,10.819,10.819,0,0,0-2.239,4.744q-.07.637-.14,1.274a7.07,7.07,0,0,0,.07.991v.708a1.244,1.244,0,0,0,.07.354,6.012,6.012,0,0,0,.56,1.77,12.616,12.616,0,0,0,4.827,5.664,17.462,17.462,0,0,0,1.819,1.2q7.485,4.389,18.328,4.39a47.022,47.022,0,0,0,5.247-.283,39.171,39.171,0,0,0,9.724-2.265,1.532,1.532,0,0,1,.49-.212,30.536,30.536,0,0,0,3.288-1.629q.769-.425,1.539-.921.56-.354,1.049-.708a17.291,17.291,0,0,0,3.5-3.4q.35-.5.7-1.062a13.984,13.984,0,0,0,.7-1.487,7.744,7.744,0,0,0,.42-1.487q.14-.779.21-1.629v-.142q.14-5.876-6.576-10.124l-.7-.425a30.427,30.427,0,0,0-3.288-1.628A6.393,6.393,0,0,1,416.957,48.781Z"/>
      <path class="f8173fa9-f736-43c2-b8b5-b8ae14aecead" d="M428.78,27.966q-3.428-1.77-7-3.4Q392.4,11.469,352.6,11.47q-44.7,0-76.323,16.5-31.551,16.5-31.551,39.86a32.477,32.477,0,0,0,2.308,12.107,33.187,33.187,0,0,1-.629-6.443q0-23.364,31.55-39.86,31.62-16.5,76.323-16.5,38.686,0,67.508,12.39,4.477,1.911,8.675,4.106a93.955,93.955,0,0,1,14.2,8.992q11.053,8.566,15.111,18.762-2.1-10.55-11.193-19.541A80.889,80.889,0,0,0,428.78,27.966Z"/>
    </g>
  </g>
</svg>
