<svg id="aeb7b743-4609-4a0d-9d6d-5417b0b6e4c7" data-name="Trains" xmlns="http://www.w3.org/2000/svg" viewBox="0 0 200 200">
  <defs>
    <style>
      .eccc3c92-4b2d-4f82-9fc0-963f1d8dbc7b {
        fill: #6a6a6b;
      }

      .d479bf27-753a-43d0-aa19-1c6417b96a05 {
        fill: #202020;
      }

      .\33 eaf9889-41a7-472f-87a6-308aadc9cc05 {
        fill: #535359;
      }

      .\33 d8051a8-aeb2-4aae-85cc-5ab2765fe016 {
        fill: #9c9ca7;
      }

      .\39 673c8c1-3a05-4f1f-9f60-3bd2370b2b8b {
        fill: #9d9da7;
      }

      .\34 3b4e274-b955-488e-8d42-941bad48da57 {
        fill: #2e2e31;
      }

      .\33 dfd836b-1bc3-4334-a0ac-a54b1381a303 {
        fill: #5a5a60;
      }

      .f484690e-f30a-4722-b5f0-a3bde33ad6d6 {
        fill: #5d5d64;
      }

      .c852faaa-2d06-4d69-8c0b-351ebfb009e4 {
        fill: #333336;
      }

      .fae732d6-e4f3-4d12-9825-166e5e3907a9 {
        fill: #9d9da8;
      }

      .db00b9ff-ebd2-400b-982f-bca16f8a46a6 {
        fill: #323235;
      }
    </style>
  </defs>
  <title>Container Types_Faltrack</title>
  <g>
    <path class="eccc3c92-4b2d-4f82-9fc0-963f1d8dbc7b" d="M146.512,178.917a1.813,1.813,0,0,0-.086.309c-.005.048.053.1.082.155h-.934c-1.238-.747-2.453-1.534-3.721-2.225a2.358,2.358,0,0,1-1.469-1.914c.249-.686-.311-1.677.426-2.073.628-.337,1.261.158,1.511.9a5.691,5.691,0,0,1-.234.646,1.674,1.674,0,0,0,.483,2.068.686.686,0,0,0,.619.15c1.076-.631-.769-1.011-.162-1.652a2.148,2.148,0,0,0,.286-.621c1.087-.174,1.709.947,2.722.98C146.284,176.72,145.545,177.942,146.512,178.917Z"/>
    <path class="d479bf27-753a-43d0-aa19-1c6417b96a05" d="M199.3,78.03c-.654.215-.284,1.037-.793,1.338-.132-.338-.178-.766-.417-.991-.336-.318-.471.074-.587.346-.155.364.574,1.23-.5,1.043-.673-.117-.422-.858-.553-1.332l.127-2.706,1.347-.517c.512.013.781.718,1.379.484Z"/>
    <path class="3eaf9889-41a7-472f-87a6-308aadc9cc05" d="M57.354,78.475q20.953,9.784,41.908,19.566,20.344,9.484,40.7,18.943c-.326,6.649-.6,13.3-.993,19.947-.34,5.79-.993,11.568-1.136,17.361-.065,2.642-1.381,3.509-3.479,4.05-.771.332-1.568-.864-2.33.04-6.265-2.935-12.148-6.578-18.231-9.849q-20.424-10.983-40.782-22.089C53.847,115.99,34.751,105.412,15.517,95.089a9.073,9.073,0,0,1-4.893-5.982.373.373,0,0,1,0-.331c1.013-.15,2.433.126,1.812-1.733,10.926-3.895,22.069-7.113,33.11-10.651.556.417,1.118.777,1.789.21l2.236.005c1.039-.126,1.672.868,2.633.957l1.442-.011,1.817.568C55.937,79.064,56.608,78.971,57.354,78.475Z"/>
    <path class="3d8051a8-aeb2-4aae-85cc-5ab2765fe016" d="M10.624,89.107a9.073,9.073,0,0,0,4.893,5.982c19.234,10.323,38.33,20.9,57.495,31.354q20.358,11.1,40.782,22.089c6.083,3.271,11.966,6.914,18.231,9.849,1.479,1.463,3.367,2.08,5.7,3.127-1.05-1.8-2.913-1.681-3.372-3.166,2.1-.541,3.414-1.408,3.479-4.05.143-5.793.8-11.571,1.136-17.361.39-6.645.667-13.3.993-19.947.3-6.224.639-12.446.863-18.673.065-1.8,1.163-1.688,2.354-1.657.973.919,2.278.571,3.407.895l.818.338c.788,1.027,2.056,1.132,3.121,1.628-.236,4.255-.462,8.51-.711,12.764-.562,9.6-1.147,19.194-1.7,28.793q-1,17.3-1.962,34.6l-.116-.052c-1.013-.033-1.635-1.153-2.722-.98l-.993-.592c-.25-.742-.883-1.237-1.511-.9-.737.4-.177,1.386-.426,2.073a6.8,6.8,0,0,1-3.215-1.991c-.209-.928.306-2.1-.792-2.728a56.756,56.756,0,0,0-8.038-4.317,2.679,2.679,0,0,0-.493-.478q-10.215-5.741-20.442-11.462a3.7,3.7,0,0,0-2.415-.665q-.027-.421-.052-.845l.125-.153-.107.173c-1.692-.518-2.895-2.008-4.673-2.354-6.543-3.986-13.287-7.614-20.036-11.232-1.266-1.771-3.278-2.178-5.16-2.824-2.053-1.23-4.081-2.505-6.164-3.682-4.958-2.8-10.086-5.326-14.972-8.213-6.119-3.616-12.31-7.086-18.533-10.509a14.314,14.314,0,0,0-4.232-2.316c-5.147-3.2-10.442-6.127-15.835-8.884-1.076-1.318-2.708-1.638-4.144-2.309-.463-2.88.464-5.931-1.073-8.678l.175.044-.166,0-.468-.206.088-2.734.665-.072A.347.347,0,0,0,10.624,89.107ZM41.38,114.984c1.406,1.4,3.334,1.915,4.988,2.9.582.345,1.335,1.374,1.918.386a1.862,1.862,0,0,0-.528-2.675c-1.2-.655-2.291-1.625-3.78-1.626a5.925,5.925,0,0,0-3.38-2.011C40.91,113.112,39.985,114.288,41.38,114.984Zm46.759,26.081q3.5,2.027,6.994,4.052c.519.3,1.077.916,1.657.449.5-.406.172-1.17.223-1.775a1.569,1.569,0,0,0-1.031-1.626c-1.846-.97-3.67-1.979-5.5-2.973-.9-.343-1.576-1.206-2.753-1.167C87.866,139.076,87.185,140.156,88.139,141.065Z"/>
    <path class="9673c8c1-3a05-4f1f-9f60-3bd2370b2b8b" d="M8.616,100.519c-1.214-.353-2.431-.273-3.681-1.035-1.782-1.087-1.7-2.173-1.621-3.965.187-4-.087-8.034-.252-12.05C2.821,77.587,2.5,71.709,2.23,65.829Q1.578,51.559.959,37.288c-.034-.773.047-1.551.075-2.326l2.628.974.743.3c.455,1.105,1.483,1.716,2.223,2.576.288,8.908.546,17.818.874,26.725.256,6.966.6,13.929.9,20.893q.02.473.04.945a11.733,11.733,0,0,0,.129,3.734C8.423,94.248,9.042,97.381,8.616,100.519Z"/>
    <path class="43b4e274-b955-488e-8d42-941bad48da57" d="M53.6,77.555l-1.442.011q-.059-19.374-.124-38.747c-.016-3.731-.108-7.462-.166-11.192l2.188-.062v-.012c-.144.286-.232.569.039.836.74.347.585,1.017.567,1.622C54.327,41.343,54.87,52.674,54.7,64c-.05,3.414.415,6.821.034,10.228-.461.031-1-.137-1.232.48Zm-.089-4.188a1.463,1.463,0,0,0-.009-.452c-.077-.225-.232-.225-.309,0a.735.735,0,0,0,0,.447C53.271,73.587,53.4,73.58,53.512,73.367Z"/>
    <path class="3dfd836b-1bc3-4334-a0ac-a54b1381a303" d="M35.416,113.941c6.223,3.423,12.414,6.893,18.533,10.509,4.886,2.887,10.014,5.413,14.972,8.213,2.083,1.177,4.111,2.452,6.164,3.682-.038.571.037,1.186-.605,1.515-5.266-2.927-10.551-5.822-15.795-8.789-7.958-4.5-15.887-9.051-23.829-13.581C34.914,114.928,34.806,114.3,35.416,113.941Z"/>
    <path class="f484690e-f30a-4722-b5f0-a3bde33ad6d6" d="M196.548,75.728q-.063,1.353-.126,2.706a1.3,1.3,0,0,1-.389.046c.079-1.939-1.145-.973-1.8-.7-7.412,3.1-14.767,6.35-22.208,9.383-5.861,2.389-11.531,5.246-17.573,7.188q-.184-.058-.372-.1l-.135-1.111a103.3,103.3,0,0,1,10.4-4.534c6.58-2.782,13.178-5.521,19.759-8.3,1.112-.47,2.35-.732,2.894-2.12a1.924,1.924,0,0,1,1.541-.878c1.887.093,2.4-1.1,2.734-2.56,1.522-.138,2.706,1.249,4.264.947l0,0c.094.158.178.368.359.068Z"/>
    <path class="3eaf9889-41a7-472f-87a6-308aadc9cc05" d="M3.661,35.936l-2.628-.974c-.869-3.453-.123-4.415,3.3-3.954a12.528,12.528,0,0,0,4.551-.644c12.242-2.766,24.472-5.591,36.7-8.4l.524.444c-.671.856-1.732.578-2.584.781-7.2,1.713-14.458,3.159-21.622,4.992-4.841,1.239-9.837,1.852-14.55,3.6C3.636,32.661,3.636,32.661,3.661,35.936Z"/>
    <path class="3dfd836b-1bc3-4334-a0ac-a54b1381a303" d="M104.989,153.579a3.712,3.712,0,0,1,2.414.667q10.226,5.721,20.442,11.462a2.643,2.643,0,0,1,.493.479q-.029,1.01-.057,2.017c-6.252-3-12.143-6.649-18.177-10.041-1.741-.979-3.44-2.032-5.158-3.052Z"/>
    <path class="3dfd836b-1bc3-4334-a0ac-a54b1381a303" d="M80.245,139.168c6.749,3.619,13.493,7.246,20.036,11.232l-.04,2q-8.144-4.486-16.285-8.977c-1.423-.788-2.815-1.633-4.221-2.452C79.788,140.335,79.537,139.616,80.245,139.168Z"/>
    <path class="3dfd836b-1bc3-4334-a0ac-a54b1381a303" d="M15.349,102.741c5.393,2.758,10.688,5.689,15.835,8.885q-.05.845-.1,1.691c-5.538-2.837-10.924-5.943-16.256-9.145C14.835,103.634,14.764,103.068,15.349,102.741Z"/>
    <path class="f484690e-f30a-4722-b5f0-a3bde33ad6d6" d="M128.282,168.2q.028-1.008.057-2.017a56.644,56.644,0,0,1,8.038,4.316c1.1.627.583,1.8.792,2.728A45.411,45.411,0,0,1,128.282,168.2Z"/>
    <path class="eccc3c92-4b2d-4f82-9fc0-963f1d8dbc7b" d="M146.586,97.549c-1.129-.324-2.435.024-3.407-.895,1.639-.706,1.876-2.488,2.843-3.709,1.358,1.607,3.607,1.579,5.166,2.817l-.368,3.762a1.247,1.247,0,0,1-.3-.01c-1.065-.5-2.333-.6-3.121-1.628,1.064-.388,1.139-1.149.729-2.046a.787.787,0,0,0-.938-.509C146.073,95.779,146.642,96.764,146.586,97.549Z"/>
    <path class="c852faaa-2d06-4d69-8c0b-351ebfb009e4" d="M8.616,100.519c.426-3.138-.193-6.27-.043-9.407l.681.532c.237.376.394.376.451-.1l-.032.041.468.206-.01-.041c1.538,2.747.611,5.8,1.073,8.678l-1.739.664Z"/>
    <path class="3dfd836b-1bc3-4334-a0ac-a54b1381a303" d="M46.11,22.411l-.524-.444c1.553-2.141,3.382-1.279,5.2-.479-1.665.821-1.573,2.308-1.444,3.808l-1.964-.188C46.69,24.336,47.8,22.714,46.11,22.411Z"/>
    <path class="f484690e-f30a-4722-b5f0-a3bde33ad6d6" d="M80.245,139.168c-.709.447-.458,1.166-.509,1.8l-5.256-3.108c.642-.329.567-.945.605-1.515C76.967,136.991,78.979,137.4,80.245,139.168Z"/>
    <path class="f484690e-f30a-4722-b5f0-a3bde33ad6d6" d="M100.242,152.4l.04-2c1.778.346,2.981,1.837,4.673,2.354l-.018-.02q.026.423.052.845-.02.764-.042,1.531A17,17,0,0,1,100.242,152.4Z"/>
    <path class="f484690e-f30a-4722-b5f0-a3bde33ad6d6" d="M9.465,101.1l1.739-.664c1.437.671,3.069.991,4.145,2.309-.584.327-.513.893-.521,1.43A32.4,32.4,0,0,1,9.465,101.1Z"/>
    <path class="c852faaa-2d06-4d69-8c0b-351ebfb009e4" d="M151.189,95.762c-1.559-1.238-3.808-1.21-5.166-2.817.7-.157,1-1.144,1.889-.889.449.606.559,1.489,1.355,1.806,1.082.43,2.31,1.338,2.861-.647l1.821-.075q.067.555.134,1.112A6.8,6.8,0,0,0,151.189,95.762Z"/>
    <path class="eccc3c92-4b2d-4f82-9fc0-963f1d8dbc7b" d="M31.084,113.316q.05-.845.1-1.691a14.308,14.308,0,0,1,4.232,2.316c-.609.364-.5.987-.559,1.55A10.963,10.963,0,0,1,31.084,113.316Z"/>
    <path class="d479bf27-753a-43d0-aa19-1c6417b96a05" d="M49.347,25.3c-.129-1.5-.222-2.988,1.444-3.808,2.463.312.838,2.217,1.291,3.313l-2.347.647Z"/>
    <path class="f484690e-f30a-4722-b5f0-a3bde33ad6d6" d="M49.735,25.447l2.347-.647c.551,1.01,2.235,1.193,2.016,2.764l-2.186.062A4.229,4.229,0,0,1,49.735,25.447Z"/>
    <path class="eccc3c92-4b2d-4f82-9fc0-963f1d8dbc7b" d="M152.128,93.215c-.551,1.985-1.779,1.077-2.861.647-.8-.317-.907-1.2-1.355-1.806C149.63,91.306,150.771,92.652,152.128,93.215Z"/>
    <path class="eccc3c92-4b2d-4f82-9fc0-963f1d8dbc7b" d="M196.548,75.728l-.651.033a2.331,2.331,0,0,1-.36-.068l0,0c-.647-.8-1.966-.763-2.342-1.894,2-.984,3.356.191,4.7,1.409Z"/>
    <path class="eccc3c92-4b2d-4f82-9fc0-963f1d8dbc7b" d="M53.548,74.71c.233-.616.771-.449,1.232-.48l2.574,4.245c-.746.5-1.416.588-1.895-.353A5.491,5.491,0,0,0,53.548,74.71Z"/>
    <path class="c852faaa-2d06-4d69-8c0b-351ebfb009e4" d="M193.2,73.8c.377,1.131,1.7,1.1,2.342,1.894-1.559.3-2.742-1.085-4.264-.947C191.588,73.766,192.345,73.686,193.2,73.8Z"/>
    <path class="f484690e-f30a-4722-b5f0-a3bde33ad6d6" d="M54.136,28.389c-.271-.267-.183-.55-.039-.836C54.217,27.826,54.968,28.071,54.136,28.389Z"/>
    <path class="c852faaa-2d06-4d69-8c0b-351ebfb009e4" d="M196.033,78.48a1.29,1.29,0,0,0,.389-.046c.13.474-.121,1.215.552,1.332,1.077.187.348-.68.5-1.043.116-.272.251-.664.587-.346.238.225.285.654.417.991-1.253,13.71-2.535,27.417-3.749,41.13-.73,8.249-1.35,16.507-2.028,24.761a53.089,53.089,0,0,0-.566,6.647.863.863,0,0,1-1.276.857l-1.034-2.428c.537-6.489,1.048-12.981,1.618-19.468.685-7.8,1.451-15.588,2.126-23.387.7-8.03,1.323-16.065,1.98-24.1C195.776,81.754,194.991,80.027,196.033,78.48Z"/>
    <path class="3eaf9889-41a7-472f-87a6-308aadc9cc05" d="M188.562,153.556c-2.937.814-5.306,2.715-7.893,4.184-10.463,5.941-20.881,11.962-31.315,17.954l-.048-1.468c.117-.8-.394-1.889.6-2.324,2.362-1.036,3.856-3.485,6.608-3.906a8.035,8.035,0,0,0,2.269-1.159c9.248-4.959,18.009-10.78,27.4-15.494C186.806,152.261,189.314,151.152,188.562,153.556Z"/>
    <path class="eccc3c92-4b2d-4f82-9fc0-963f1d8dbc7b" d="M188.562,153.556c.752-2.4-1.757-1.3-2.385-2.213q.1-.989.206-1.978c1.229.031,2.119,1.275,3.444.968l1.034,2.429C190.146,153.175,189.884,154.9,188.562,153.556Z"/>
    <path class="d479bf27-753a-43d0-aa19-1c6417b96a05" d="M149.306,174.225l.048,1.468c.2,2.084-1.207,2.746-2.843,3.2-.967-.974-.228-2.2-.476-3.276l.116.052C147.848,176.6,148.278,174.759,149.306,174.225Z"/>
    <path class="c852faaa-2d06-4d69-8c0b-351ebfb009e4" d="M142.321,174.049l.993.592a2.145,2.145,0,0,1-.286.621c-.607.64,1.238,1.02.162,1.652a.686.686,0,0,1-.619-.15,1.674,1.674,0,0,1-.483-2.068A5.691,5.691,0,0,0,142.321,174.049Z"/>
    <path class="fae732d6-e4f3-4d12-9825-166e5e3907a9" d="M45.541,76.393a1.984,1.984,0,0,0,1.432-2.046c-.182-13.92-.288-27.841-.452-41.761-.02-1.7-.263-3.4-.4-5.1,1.455-.247,1.387-1.3,1.263-2.383l1.965.189.388.151a4.228,4.228,0,0,0,2.176,2.179c.056,3.731.149,7.461.165,11.192q.083,19.373.124,38.747c-.961-.09-1.593-1.083-2.634-.957-.082-.946-.162-1.891-.288-3.383L47.331,76.6C46.66,77.17,46.1,76.81,45.541,76.393Z"/>
    <path class="db00b9ff-ebd2-400b-982f-bca16f8a46a6" d="M8.872,37.5c1.417,1.281.881,3.059.947,4.563.459,10.533.759,21.072,1.1,31.61.124,3.876.187,7.754.349,11.628.03.713-.314,1.9,1.166,1.743.621,1.859-.8,1.583-1.812,1.733l0,0L9.679,87.68c0-.084.008-.168.019-.252-.055-.381-.036-.8-.474-.992l-.82,0c-.3-6.964-.648-13.927-.9-20.893-.328-8.907-.586-17.817-.873-26.725C7.393,38.4,8.495,38.57,8.872,37.5Z"/>
    <path class="eccc3c92-4b2d-4f82-9fc0-963f1d8dbc7b" d="M134.354,158.341c.458,1.485,2.321,1.365,3.372,3.166-2.334-1.046-4.222-1.663-5.7-3.127C132.786,157.478,133.583,158.673,134.354,158.341Z"/>
    <path class="db00b9ff-ebd2-400b-982f-bca16f8a46a6" d="M47.331,76.6l1.946-3.378c.127,1.492.207,2.438.288,3.383Z"/>
    <path class="3d8051a8-aeb2-4aae-85cc-5ab2765fe016" d="M53.548,74.71a5.491,5.491,0,0,1,1.911,3.412l-1.817-.568Q53.6,76.132,53.548,74.71Z"/>
    <path class="43b4e274-b955-488e-8d42-941bad48da57" d="M10.624,89.107a.353.353,0,0,1-.2-.325l.194-.009,0,0A.373.373,0,0,0,10.624,89.107Z"/>
    <path class="43b4e274-b955-488e-8d42-941bad48da57" d="M149.306,174.225c-1.028.534-1.459,2.37-3.155,1.448q.98-17.3,1.962-34.6c.554-9.6,1.139-19.195,1.7-28.793.249-4.254.475-8.509.711-12.764a1.24,1.24,0,0,0,.3.01c1.087-.226,1.951-.541,1.355-1.989-.238-.579-.082-1.421.654-1.512,1.027-.127.5.885.735,1.356a8.9,8.9,0,0,0,.526.759c.586-1.389.26-2.618.366-3.787,6.043-1.942,11.713-4.8,17.573-7.188,7.441-3.033,14.8-6.278,22.208-9.383.651-.273,1.875-1.239,1.8.7-1.042,1.547-.256,3.273-.481,4.9-3.448.987-6.588,2.722-9.881,4.084q-15.734,6.758-31.478,13.493c-.925.393-.735,1.112-.792,1.729-.212,2.308-.37,4.623-.488,6.939-.228,4.473-.416,8.947-.621,13.421-.3,4.636-.872,9.272-1,13.894-.238,8.294-.76,16.558-1.445,24.82-.077.925.108,1.354,1.163.767,7.259-4.041,14.52-8.078,21.821-12.041,4.7-2.55,9.187-5.5,14.178-7.492a20.039,20.039,0,0,0-.62,6.371q-.1.989-.207,1.978c-9.387,4.714-18.148,10.534-27.4,15.494A8.035,8.035,0,0,1,156.513,168c-2.752.422-4.247,2.871-6.608,3.906C148.912,172.337,149.423,173.422,149.306,174.225Z"/>
    <path class="3eaf9889-41a7-472f-87a6-308aadc9cc05" d="M90.479,139.193c1.833.994,3.658,2,5.5,2.973a1.569,1.569,0,0,1,1.031,1.626c-.051.605.281,1.369-.223,1.775-.58.467-1.138-.149-1.657-.449q-3.5-2.022-6.994-4.052C88.718,140.19,90.1,140.316,90.479,139.193Z"/>
    <path class="3eaf9889-41a7-472f-87a6-308aadc9cc05" d="M43.978,113.965c1.489,0,2.582.971,3.78,1.626a1.862,1.862,0,0,1,.528,2.675c-.583.987-1.336-.041-1.918-.386-1.654-.981-3.582-1.492-4.988-2.9A5.568,5.568,0,0,1,43.978,113.965Z"/>
    <path class="c852faaa-2d06-4d69-8c0b-351ebfb009e4" d="M43.978,113.965a5.568,5.568,0,0,0-2.6,1.019c-1.395-.7-.47-1.871-.782-3.03A5.925,5.925,0,0,1,43.978,113.965Z"/>
    <path class="43b4e274-b955-488e-8d42-941bad48da57" d="M9.7,87.429a2.494,2.494,0,0,0-.019.253q.04.588.081,1.172l-.088,2.734.032-.041a1.521,1.521,0,0,1-.451.1l-.681-.532a11.757,11.757,0,0,1-.128-3.734H9.2Z"/>
    <path class="db00b9ff-ebd2-400b-982f-bca16f8a46a6" d="M90.479,139.193c-.381,1.123-1.761,1-2.34,1.872-.954-.909-.273-1.99-.413-3.039C88.9,137.988,89.581,138.85,90.479,139.193Z"/>
    <path class="43b4e274-b955-488e-8d42-941bad48da57" d="M146.586,97.549c.056-.785-.514-1.769.608-2.217a.787.787,0,0,1,.938.509c.41.9.335,1.657-.729,2.046Z"/>
    <path class="3eaf9889-41a7-472f-87a6-308aadc9cc05" d="M9.76,88.855q-.04-.585-.081-1.172.469.543.937,1.091l-.194.009Z"/>
    <path class="43b4e274-b955-488e-8d42-941bad48da57" d="M10.131,91.754l.01.041.166,0Z"/>
    <path class="f484690e-f30a-4722-b5f0-a3bde33ad6d6" d="M104.955,152.755l.107-.173-.125.153Z"/>
    <path class="d479bf27-753a-43d0-aa19-1c6417b96a05" d="M3.661,35.936c-.025-3.274-.025-3.274,3.694-4.156a9.443,9.443,0,0,1-.474,3.735,5.95,5.95,0,0,0-2.477.724Z"/>
    <path class="3dfd836b-1bc3-4334-a0ac-a54b1381a303" d="M4.4,36.239a5.947,5.947,0,0,1,2.477-.724l1.49,1.015.5.971c-.378,1.07-1.479.9-2.244,1.314C5.887,37.955,4.859,37.344,4.4,36.239Z"/>
    <path class="c852faaa-2d06-4d69-8c0b-351ebfb009e4" d="M9.2,87.377H8.445q-.02-.473-.04-.945l.82,0Z"/>
    <path class="3eaf9889-41a7-472f-87a6-308aadc9cc05" d="M53.513,73.367c-.11.213-.242.221-.319,0a.735.735,0,0,1,0-.447c.078-.225.232-.225.309,0A1.486,1.486,0,0,1,53.513,73.367Z"/>
    <path class="d479bf27-753a-43d0-aa19-1c6417b96a05" d="M154.456,94.351c-.106,1.169.221,2.4-.366,3.787a8.9,8.9,0,0,1-.526-.759c-.239-.471.292-1.483-.735-1.356-.736.091-.892.932-.654,1.512.6,1.448-.268,1.763-1.355,1.989q.185-1.881.368-3.762a6.805,6.805,0,0,1,2.895-1.509C154.209,94.279,154.333,94.313,154.456,94.351Z"/>
    <path class="c852faaa-2d06-4d69-8c0b-351ebfb009e4" d="M195.537,75.693a2.331,2.331,0,0,0,.36.068C195.715,76.062,195.631,75.851,195.537,75.693Z"/>
    <path class="43b4e274-b955-488e-8d42-941bad48da57" d="M8.371,36.53l-1.49-1.015a9.445,9.445,0,0,0,.474-3.735c4.713-1.743,9.709-2.357,14.55-3.6,7.164-1.833,14.426-3.279,21.622-4.992.852-.2,1.913.075,2.584-.781,1.687.3.58,1.925,1.273,2.7.124,1.083.191,2.136-1.264,2.383q-15.63,3.7-31.26,7.4C12.689,35.406,10.533,35.981,8.371,36.53Z"/>
    <path class="3d8051a8-aeb2-4aae-85cc-5ab2765fe016" d="M9.253,91.643a1.521,1.521,0,0,0,.451-.1C9.648,92.02,9.49,92.019,9.253,91.643Z"/>
    <path class="fae732d6-e4f3-4d12-9825-166e5e3907a9" d="M185.671,87.465c3.293-1.362,6.433-3.1,9.881-4.084-.657,8.033-1.285,16.068-1.98,24.1-.675,7.8-1.441,15.589-2.126,23.387-.57,6.487-1.081,12.978-1.618,19.468-1.325.307-2.214-.937-3.444-.968a20.112,20.112,0,0,1,.619-6.371c.684-.155,1.933-.282.883-1.212-.876-.776-2.233-1.99-3.576-.334-.62.765-1.341.768-1.41-.252-.213-3.175-2.332-4.424-4.942-5.289-.189-.063-.705.208-.511-.321.082-.224.478-.332.731-.493,1.617-.3,3.654-.074,3.88-2.422.488-5.067.848-10.147,1.277-15.22.435-5.142.923-10.28,1.325-15.425C185.04,97.176,185.337,92.319,185.671,87.465Z"/>
    <path class="3eaf9889-41a7-472f-87a6-308aadc9cc05" d="M9.2,87.377l.024-.94c.438.2.419.611.474.992Z"/>
    <path class="3eaf9889-41a7-472f-87a6-308aadc9cc05" d="M152.292,123.047l25.887,12.047c-.253.161-.648.269-.731.493-.195.529.322.258.511.321,2.61.865,4.728,2.114,4.942,5.289.068,1.019.79,1.017,1.41.252,1.343-1.656,2.7-.443,3.576.334,1.05.931-.2,1.057-.883,1.212-4.989,2-9.479,4.942-14.176,7.492-7.3,3.963-14.562,8-21.821,12.041-1.055.587-1.24.159-1.163-.767.684-8.262,1.206-16.525,1.445-24.82C151.42,132.319,151.992,127.683,152.292,123.047Z"/>
  </g>
</svg>
