<svg id="88f651c0-e409-4980-a48b-ccc370cdc488" data-name="Layer 1" xmlns="http://www.w3.org/2000/svg" viewBox="0 0 44 44"><defs><style>.\35 d60ea05-bb80-446b-9425-8e23ecb8144c{fill:#00a2df;}.\30 952c754-ad4d-4773-9c1c-9e24f848af84,.bd50613f-d285-4933-a87c-6de9ed919b87{fill:#fff;}.bd50613f-d285-4933-a87c-6de9ed919b87{stroke:#00a2df;stroke-miterlimit:10;stroke-width:2px;}</style></defs><title>ic_air</title><circle class="5d60ea05-bb80-446b-9425-8e23ecb8144c" cx="22" cy="22" r="22"/><path id="9fc06e97-d9bf-4e60-8b19-83c2438ee36d" data-name="&lt;Path&gt;" class="bd50613f-d285-4933-a87c-6de9ed919b87" d="M22,22"/><path id="bf3b5581-5d7c-4c90-8da6-a81eefbfc39b" data-name="&lt;Path&gt;" class="bd50613f-d285-4933-a87c-6de9ed919b87" d="M22,22"/><g id="6af15840-26f9-4975-810a-954417cabc51" data-name="plane"><path id="26d27e60-4dd1-4d8e-a891-0168c07ba5d2" data-name="&lt;Path&gt;" class="0952c754-ad4d-4773-9c1c-9e24f848af84" d="M32.313,20.66l-17.82,4.775a3,3,0,0,1-1.978-.149l-1.382-.6-.622-2.321L31.278,16.8a2.292,2.292,0,0,1,2.932,1.285h0A2.292,2.292,0,0,1,32.313,20.66Z"/><polygon id="1fe9238d-49b2-4796-8d91-3485e29340c1" data-name="&lt;Path&gt;" class="0952c754-ad4d-4773-9c1c-9e24f848af84" points="15.599 22.032 10.769 23.326 9.734 19.463 12.124 18.823 15.599 22.032"/><g id="c5209f2a-dcf1-4122-bf9c-cd0df0a95e1b" data-name="&lt;Group&gt;"><polygon id="4659b711-ccd2-44fa-9396-460eed40de83" data-name="&lt;Path&gt;" class="0952c754-ad4d-4773-9c1c-9e24f848af84" points="20.669 23.78 27.369 21.985 28.415 19.634 19.048 12.826 15.46 13.787 20.826 21.667 20.669 23.78"/><polygon id="708dfe49-f81c-4a30-a9f4-90aa1b0ae52d" data-name="&lt;Path&gt;" class="0952c754-ad4d-4773-9c1c-9e24f848af84" points="20.512 25.892 20.119 31.174 23.707 30.213 26.322 24.335 20.512 25.892"/></g></g></svg>