<?xml version="1.0" encoding="utf-8"?>
<!-- Generator: Adobe Illustrator 23.0.1, SVG Export Plug-In . SVG Version: 6.00 Build 0)  -->
<svg version="1.1" id="Layer_1" xmlns="http://www.w3.org/2000/svg" xmlns:xlink="http://www.w3.org/1999/xlink" x="0px" y="0px"
	 viewBox="0 0 24 24" style="enable-background:new 0 0 24 24;" xml:space="preserve">
<defs>
<style type="text/css">
	.st0{fill:#FFFFFF;}
	.st1{fill:#00a1df;}
	.circle{
        animation:ripple 1s cubic-bezier(0.43, 0.52, 0.9, 0.78) infinite;
		fill: #def6ff;
        stroke: #00a1df;
      }
      .circle2{
        animation:ripple 1.5s cubic-bezier(0.43, 0.52, 0.9, 0.78) infinite;
      }
      @keyframes ripple {
        0% {
          rx: 5;
          ry: 1;
        }
        50% {
          rx: 11;
          ry: 2;
        }
        100% {
          rx: 12;
          ry: 2;
          opacity: 0; 
        }
      }
</style>
</defs>
<g>
	<ellipse cx="12.1" cy="19" rx="4" ry="1.8" xmlns="http://www.w3.org/2000/svg" id="6a23d917-265c-47a1-ba9f-ceae9a4f1e4e" data-name="&lt;Path&gt;" class="circle 102b2c85-9439-4dc1-a78c-a7906e7a53e3" d="M5,21V18.828A8.78,8.78,0,0,0,2.182,20c.939.739,4.291,2,9.818,2s8.879-1.261,9.818-2A8.78,8.78,0,0,0,19,18.828V21Z"/>
	<path class="st0" d="M12,4.1C9,4.2,6.6,6.7,6.7,9.7c0,1.9,2.9,5.4,5.3,7.7c2.4-2.2,5.3-5.6,5.3-7.7C17.4,6.7,15,4.2,12,4.1z M12,11
		c-1.3,0-2.3-1-2.3-2.3s1-2.3,2.3-2.3s2.3,1,2.3,2.3S13.3,11,12,11z"/>
	<circle class="st0" cx="12" cy="8.7" r="0.8"/>
	<path class="st1" d="M12,6.4c-1.3,0-2.3,1-2.3,2.3s1,2.3,2.3,2.3s2.3-1,2.3-2.3S13.3,6.4,12,6.4z M12,9.5c-0.4,0-0.8-0.3-0.8-0.8
		c0-0.4,0.3-0.8,0.8-0.8s0.8,0.3,0.8,0.8C12.8,9.1,12.4,9.5,12,9.5z"/>
	<path class="st1" d="M12,2.6C8.2,2.7,5.1,5.8,5.1,9.7c0,3.9,6.9,9.7,6.9,9.7s6.9-5.8,6.9-9.7C18.9,5.8,15.8,2.7,12,2.6z M12,17.4
		C9.5,15,6.7,11.6,6.7,9.7C6.6,6.7,9,4.2,12,4.1c3,0.1,5.4,2.5,5.3,5.5C17.3,11.7,14.4,15.1,12,17.4z"/>
</g>
</svg>
