<svg id="6f1ea8e2-3d3b-444f-8106-feb2cb0cc7b0" data-name="Layer 1" xmlns="http://www.w3.org/2000/svg" viewBox="0 0 44 44"><defs><style>.\34 2ea81d8-72f6-417b-a5c4-163b9b450647{fill:#3f5165;}.\34 90dcd21-44ac-41a5-8a52-c541a090b59c{fill:#fff;}</style></defs><title>ic_truck</title><circle class="42ea81d8-72f6-417b-a5c4-163b9b450647" cx="22" cy="22" r="22"/><path id="c3cddbc9-d326-4daf-afdb-c5f7a30af323" data-name="&lt;Path&gt;" class="490dcd21-44ac-41a5-8a52-c541a090b59c" d="M-68.74,1.6h-2c0-4-2.5-6.5-6.5-6.5v-2A8.138,8.138,0,0,1-68.74,1.6Z" transform="translate(100.24 21.399)"/><g id="675a9f39-3196-45b8-b94a-9b6373f709bf" data-name="&lt;Group&gt;"><path class="490dcd21-44ac-41a5-8a52-c541a090b59c" d="M-84.24,3.6a3.5,3.5,0,0,0-3.5,3.5,3.5,3.5,0,0,0,3.5,3.5,3.5,3.5,0,0,0,3.5-3.5A3.5,3.5,0,0,0-84.24,3.6Zm0,5.25A1.749,1.749,0,0,1-85.99,7.1a1.75,1.75,0,0,1,1.75-1.75A1.751,1.751,0,0,1-82.49,7.1,1.75,1.75,0,0,1-84.24,8.851Z" transform="translate(100.24 21.399)"/></g><g id="c81990b1-13c3-4f7f-9eb8-7b8c98e8b332" data-name="&lt;Group&gt;"><g id="4f058638-eb0f-4639-a6e5-5e68029d1387" data-name="&lt;Group&gt;"><path class="490dcd21-44ac-41a5-8a52-c541a090b59c" d="M-76.24-9.4H-87a3.24,3.24,0,0,0-3.24,3.241V6.6h4.331a1.744,1.744,0,0,1,1.669-1.25A1.744,1.744,0,0,1-82.572,6.6h6.332Z" transform="translate(100.24 21.399)"/></g></g><g id="7c5d5360-e18a-494f-9a7b-e555efe149a4" data-name="&lt;Group&gt;"><path class="490dcd21-44ac-41a5-8a52-c541a090b59c" d="M-72.24,3.6a3.5,3.5,0,0,0-3.5,3.5,3.5,3.5,0,0,0,3.5,3.5,3.5,3.5,0,0,0,3.5-3.5A3.5,3.5,0,0,0-72.24,3.6Zm0,5.25A1.749,1.749,0,0,1-73.99,7.1a1.75,1.75,0,0,1,1.75-1.75A1.751,1.751,0,0,1-70.49,7.1,1.75,1.75,0,0,1-72.24,8.851Z" transform="translate(100.24 21.399)"/></g><g id="fb1a63b5-30c9-4629-b49b-198b842af52a" data-name="&lt;Group&gt;"><path id="33d7d766-0766-48f2-a4e8-a16f3f4f453d" data-name="&lt;Compound Path&gt;" class="490dcd21-44ac-41a5-8a52-c541a090b59c" d="M-68.24,1.6v3h-1.207a3.718,3.718,0,0,0-2.793-1.25A3.719,3.719,0,0,0-75.034,4.6h-1.472l-.428-3h8.694m2-2h-13l1,7h4.331a1.744,1.744,0,0,1,1.669-1.25A1.744,1.744,0,0,1-70.572,6.6h4.332v-7Z" transform="translate(100.24 21.399)"/></g></svg>