<svg id="d26b190b-8cb8-40aa-8a75-6b3663da5acd" data-name="Layer 1" xmlns="http://www.w3.org/2000/svg" viewBox="0 0 44 44"><defs><style>.f1bff393-ae0e-4811-9415-3d06d9f916fb{fill:#738593;}.\32 2f7ddd9-e84e-44e5-8531-1a2307afca46,.\33 050870c-03ce-4b97-87c9-eb208beb40a4{fill:#fff;}.\32 2f7ddd9-e84e-44e5-8531-1a2307afca46{stroke:#00a2df;stroke-miterlimit:10;stroke-width:2px;}</style></defs><title>ic_warehouse</title><circle class="f1bff393-ae0e-4811-9415-3d06d9f916fb" cx="22" cy="22" r="22"/><path id="52f1eccc-886d-4d16-ae0c-d39a33b73083" data-name="&lt;Path&gt;" class="22f7ddd9-e84e-44e5-8531-1a2307afca46" d="M22,22"/><path id="98f696ca-f57c-459d-a6d7-d10b2cb4fd22" data-name="&lt;Path&gt;" class="22f7ddd9-e84e-44e5-8531-1a2307afca46" d="M22,22"/><path id="5d58a875-a3bf-4cab-84a2-3b38a7fa0389" data-name="&lt;Compound Path&gt;" class="3050870c-03ce-4b97-87c9-eb208beb40a4" d="M32.148,16.735,22,11.277,11.852,16.735A4,4,0,0,0,10,20.11v9.167a3.983,3.983,0,0,0,2,3.446V20.277H32V32.723a3.983,3.983,0,0,0,2-3.446V20.11A4,4,0,0,0,32.148,16.735ZM25,17.277H19v-2h6Z"/><rect id="ffaeb6f4-8d90-4dce-a0b8-574dbdfdfbef" data-name="&lt;Path&gt;" class="3050870c-03ce-4b97-87c9-eb208beb40a4" x="20" y="28.277" width="4" height="4"/><rect id="23aeeaf9-c99f-49a0-9d9d-4df3970d1fcd" data-name="&lt;Path&gt;" class="3050870c-03ce-4b97-87c9-eb208beb40a4" x="15" y="28.277" width="4" height="4"/><rect id="65553909-b87c-4ce2-8a4b-49a66519d059" data-name="&lt;Path&gt;" class="3050870c-03ce-4b97-87c9-eb208beb40a4" x="15" y="22.277" width="4" height="4"/><rect id="da62df69-639c-4429-84c0-52cc10734547" data-name="&lt;Path&gt;" class="3050870c-03ce-4b97-87c9-eb208beb40a4" x="20" y="22.277" width="4" height="4"/><rect id="a6541108-5d4a-485a-bb91-b6324e618ea7" data-name="&lt;Path&gt;" class="3050870c-03ce-4b97-87c9-eb208beb40a4" x="25" y="28.277" width="4" height="4"/></svg>