<?xml version="1.0" encoding="utf-8"?>
<!-- Generator: Adobe Illustrator 16.0.0, SVG Export Plug-In . SVG Version: 6.00 Build 0)  -->
<!DOCTYPE svg PUBLIC "-//W3C//DTD SVG 1.1//EN" "http://www.w3.org/Graphics/SVG/1.1/DTD/svg11.dtd">
<svg version="1.1" id="Layer_1" xmlns="http://www.w3.org/2000/svg" xmlns:xlink="http://www.w3.org/1999/xlink" x="0px" y="0px"
	 width="16px" height="16px" viewBox="0 0 16 16" enable-background="new 0 0 16 16" xml:space="preserve">
<g>
	<defs>
		<rect id="SVGID_1_" width="16" height="16"/>
	</defs>
	<clipPath id="SVGID_2_">
		<use xlink:href="#SVGID_1_"  overflow="visible"/>
	</clipPath>
	<path clip-path="url(#SVGID_2_)" fill="#738593" d="M4.996,16c-0.1-0.049-0.211-0.08-0.296-0.148
		c-0.207-0.169-0.264-0.443-0.17-0.726c0.059-0.177,0.165-0.319,0.293-0.449c0.977-0.99,1.955-1.979,2.929-2.973
		c0.115-0.116,0.214-0.242,0.366-0.313c0.144-0.066,0.287-0.099,0.442-0.058c0.033,0.009,0.069,0.011,0.104,0.011
		c1.722-0.001,3.445-0.002,5.167-0.006c0.13-0.001,0.261-0.012,0.39-0.031c0.328-0.049,0.475-0.205,0.519-0.548
		c0.013-0.094,0.019-0.189,0.019-0.284c0.005-2.773,0.009-5.545,0.01-8.32c0-0.108-0.013-0.218-0.033-0.324
		c-0.068-0.335-0.223-0.484-0.563-0.517c-0.297-0.027-0.597-0.038-0.895-0.038c-3.695-0.002-7.39,0-11.085,0.004
		c-0.152,0-0.305,0.019-0.453,0.05C1.408,1.398,1.226,1.64,1.226,1.988c0.001,1.981,0.003,3.96,0.004,5.941
		c0,0.879,0.001,1.759,0.004,2.638c0,0.079,0.01,0.156,0.025,0.232c0.05,0.261,0.204,0.424,0.456,0.475
		C1.856,11.304,2,11.325,2.143,11.326c1.064,0.003,2.128,0.001,3.192-0.001c0.177,0,0.347,0.024,0.503,0.116
		c0.26,0.154,0.375,0.484,0.263,0.771c-0.087,0.225-0.276,0.306-0.488,0.341c-0.094,0.016-0.19,0.019-0.284,0.02
		c-0.956,0.002-1.911,0.004-2.866,0.005c-0.318,0-0.636-0.001-0.955-0.006c-0.767-0.012-1.417-0.628-1.494-1.414
		C0.012,11.135,0.005,11.114,0,11.093V1.126c0.005-0.024,0.013-0.048,0.017-0.072C0.056,0.809,0.155,0.596,0.33,0.423
		c0.192-0.19,0.425-0.3,0.682-0.356C1.152,0.037,1.295,0.022,1.436,0h13.209c0.015,0.005,0.029,0.013,0.045,0.015
		c0.716,0.095,1.264,0.707,1.293,1.451c0.011,0.271,0.004,0.543,0.007,0.814c0,0.031,0.006,0.06,0.01,0.09v6.302
		c-0.003,0.053-0.008,0.105-0.008,0.158c-0.002,0.706-0.001,1.411-0.007,2.117c-0.001,0.147-0.013,0.298-0.045,0.44
		c-0.17,0.728-0.746,1.184-1.486,1.185c-1.847,0.003-3.693,0.005-5.541,0.005c-0.064,0-0.11,0.019-0.156,0.066
		c-0.948,0.964-1.9,1.926-2.845,2.892C5.7,15.752,5.481,15.947,5.175,16H4.996z"/>
	<path clip-path="url(#SVGID_2_)" fill="#738593" d="M4.612,7.249c-0.51,0.001-0.923-0.42-0.923-0.94s0.413-0.945,0.92-0.945
		c0.506-0.001,0.924,0.424,0.924,0.942C5.534,6.826,5.122,7.247,4.612,7.249"/>
	<path clip-path="url(#SVGID_2_)" fill="#738593" d="M7.991,7.249c-0.51-0.002-0.922-0.425-0.92-0.944
		C7.072,5.787,7.49,5.362,7.996,5.364c0.511,0.002,0.922,0.429,0.919,0.954C8.911,6.834,8.497,7.251,7.991,7.249"/>
	<path clip-path="url(#SVGID_2_)" fill="#738593" d="M11.373,7.249c-0.51-0.003-0.924-0.428-0.92-0.945
		c0.003-0.519,0.42-0.943,0.927-0.94c0.509,0.002,0.919,0.426,0.917,0.947C12.296,6.833,11.884,7.251,11.373,7.249"/>
</g>
</svg>
