<svg id="5e8092de-ea89-4db9-a300-f23565846ec2" data-name="Layer 1" xmlns="http://www.w3.org/2000/svg" viewBox="0 0 24 24">
  <defs>
    <style>
      .\36 730a6dc-32b7-40b7-87a1-029c3f8fa453 {
        fill: #fff;
      }

      .\34 4074291-8e41-4144-bc1d-55205175d8f9 {
        fill: #738593;
      }
    </style>
  </defs>
  <title>Icons</title>
  <g id="e995f712-d96d-412d-9678-5f9781a8da5d" data-name="login">
    <path id="bd4fc64e-6f24-4ee3-b7ce-62f8c0bad23f" data-name="&lt;Rectangle&gt;" class="6730a6dc-32b7-40b7-87a1-029c3f8fa453" d="M10,2H21a0,0,0,0,1,0,0V19a3,3,0,0,1-3,3H7a0,0,0,0,1,0,0V5A3,3,0,0,1,10,2Z"/>
    <path class="44074291-8e41-4144-bc1d-55205175d8f9" d="M10,2A2.991,2.991,0,0,0,7.184,4H19V19a1,1,0,0,1-1,1H7v2H18a3,3,0,0,0,3-3V2Z"/>
    <rect id="6d8cfd83-0782-4d81-b4a7-d61570558dee" data-name="&lt;Path&gt;" class="44074291-8e41-4144-bc1d-55205175d8f9" x="4" y="11" width="6" height="2"/>
    <path id="f172d785-f163-4dee-8e38-bb2a80fd42ff" data-name="&lt;Path&gt;" class="44074291-8e41-4144-bc1d-55205175d8f9" d="M8,8l3.635,3.216a1.023,1.023,0,0,1,0,1.567L8,16"/>
  </g>
</svg>
