<svg id="0e47a156-633f-4efa-8248-f565d63c2397" data-name="Layer 1" xmlns="http://www.w3.org/2000/svg" viewBox="0 0 24 24">
  <defs>
    <style>
      .c3beaf7f-bdb2-41b6-beec-ba173cb53ae8 {
        fill: none;
      }

      .\37 348b21c-f041-4e95-9b12-1870adbb9a32 {
        fill: #8998a3;
      }
    </style>
  </defs>
  <title>Icons</title>
  <g id="bb43615e-e1c6-4e32-9545-bcddc5914e56" data-name="insurance">
    <g>
      <path class="c3beaf7f-bdb2-41b6-beec-ba173cb53ae8" d="M9.333,12A2.584,2.584,0,0,1,12,9.5,2.584,2.584,0,0,1,14.667,12a2.584,2.584,0,0,1,2.667-2.5,2.815,2.815,0,0,1,.422.035A4.99,4.99,0,0,0,13,6H11A4.99,4.99,0,0,0,6.245,9.535,2.816,2.816,0,0,1,6.667,9.5,2.584,2.584,0,0,1,9.333,12Z"/>
      <path class="7348b21c-f041-4e95-9b12-1870adbb9a32" d="M4,12v2a2.349,2.349,0,0,1,.229-.991A2.36,2.36,0,0,1,4,12Z"/>
      <path class="7348b21c-f041-4e95-9b12-1870adbb9a32" d="M14.667,12a2.361,2.361,0,0,1-.224,1,2.361,2.361,0,0,1,.224,1,2.361,2.361,0,0,1,.224-1A2.361,2.361,0,0,1,14.667,12Z"/>
      <path class="7348b21c-f041-4e95-9b12-1870adbb9a32" d="M9.333,12a2.361,2.361,0,0,1-.224,1,2.361,2.361,0,0,1,.224,1,2.361,2.361,0,0,1,.224-1A2.361,2.361,0,0,1,9.333,12Z"/>
      <path class="7348b21c-f041-4e95-9b12-1870adbb9a32" d="M13,4H11a7,7,0,0,0-7,7v1a2.417,2.417,0,0,1,1-1.95,2.738,2.738,0,0,1,1.24-.515A4.99,4.99,0,0,1,11,6h2a4.99,4.99,0,0,1,4.755,3.535A2.738,2.738,0,0,1,19,10.05,2.417,2.417,0,0,1,20,12V11A7,7,0,0,0,13,4Z"/>
      <path class="7348b21c-f041-4e95-9b12-1870adbb9a32" d="M20,14V12a2.36,2.36,0,0,1-.229,1.009A2.349,2.349,0,0,1,20,14Z"/>
      <path class="7348b21c-f041-4e95-9b12-1870adbb9a32" d="M5,12.05a2.757,2.757,0,0,1,1.662-.55A2.672,2.672,0,0,1,9.109,13a2.361,2.361,0,0,0,.224-1A2.584,2.584,0,0,0,6.667,9.5a2.816,2.816,0,0,0-.422.035A2.738,2.738,0,0,0,5,10.05,2.417,2.417,0,0,0,4,12a2.36,2.36,0,0,0,.229,1.009A2.467,2.467,0,0,1,5,12.05Z"/>
      <path class="7348b21c-f041-4e95-9b12-1870adbb9a32" d="M19,10.05a2.738,2.738,0,0,0-1.24-.515,2.815,2.815,0,0,0-.422-.035A2.584,2.584,0,0,0,14.667,12a2.361,2.361,0,0,0,.224,1,2.672,2.672,0,0,1,2.443-1.5A2.757,2.757,0,0,1,19,12.05a2.467,2.467,0,0,1,.775.959A2.36,2.36,0,0,0,20,12,2.417,2.417,0,0,0,19,10.05Z"/>
      <path class="7348b21c-f041-4e95-9b12-1870adbb9a32" d="M12,9.5A2.584,2.584,0,0,0,9.333,12a2.361,2.361,0,0,0,.224,1,2.739,2.739,0,0,1,4.885,0,2.361,2.361,0,0,0,.224-1A2.584,2.584,0,0,0,12,9.5Z"/>
    </g>
    <path id="52dcc13a-4189-4fce-b75a-478a7998770d" data-name="&lt;Path&gt;" class="7348b21c-f041-4e95-9b12-1870adbb9a32" d="M10.114,21H9.886A2.9,2.9,0,0,1,7,18.1H9a.9.9,0,0,0,.886.9h.229A.9.9,0,0,0,11,18.1V14h2v4.1A2.9,2.9,0,0,1,10.114,21Z"/>
  </g>
</svg>
