<svg id="c81dd9e7-2f3e-464d-9f69-1c124011dc06" data-name="Layer 1" xmlns="http://www.w3.org/2000/svg" viewBox="0 0 24 24">
  <defs>
    <style>
      .ed727c19-e8ed-499d-bd34-a8a917915c1a {
        fill: #00a2df;
      }

      .\38 7ef366a-76c7-4540-9e54-a1d9d90e1a4d {
        fill: none;
        stroke: #00a2df;
        stroke-miterlimit: 10;
        stroke-width: 2px;
      }
    </style>
  </defs>  
  <g id="ff7f9fcb-191b-4db9-8a83-9370a3d02b10" data-name="billing">
    <path class="ed727c19-e8ed-499d-bd34-a8a917915c1a" d="M19,2V20.263L18,19.6l-1.109.74L15,21.6l-1.891-1.26L12,19.6l-1.109.74L9,21.6l-1.891-1.26L6,19.6l-1,.667V4A2,2,0,0,1,7,2H19m2-2H7A4,4,0,0,0,3,4V24l3-2,3,2,3-2,3,2,3-2,3,2V0Z"/>
    <line class="87ef366a-76c7-4540-9e54-a1d9d90e1a4d" x1="11" y1="16" x2="17" y2="16"/>
    <line class="87ef366a-76c7-4540-9e54-a1d9d90e1a4d" x1="11" y1="11" x2="17" y2="11"/>
    <line class="87ef366a-76c7-4540-9e54-a1d9d90e1a4d" x1="11" y1="6" x2="17" y2="6"/>
    <line class="87ef366a-76c7-4540-9e54-a1d9d90e1a4d" x1="9" y1="16" x2="7" y2="16"/>
    <line class="87ef366a-76c7-4540-9e54-a1d9d90e1a4d" x1="9" y1="11" x2="7" y2="11"/>
    <line class="87ef366a-76c7-4540-9e54-a1d9d90e1a4d" x1="9" y1="6" x2="7" y2="6"/>
  </g>
</svg>
