<svg id="09da9ef4-560b-4c50-b937-a692aefeb8bf" data-name="Layer 1" xmlns="http://www.w3.org/2000/svg" viewBox="0 0 24 24">
  <defs>
    <style>
      .\30 8e70ac6-3b25-4896-a4c1-816f324b7343 {
        fill: #738593;
      }
    </style>
  </defs>
  
  <g id="223f8ac6-5de0-4d9c-9a46-3d1e08347961" data-name="support">
    <path class="08e70ac6-3b25-4896-a4c1-816f324b7343" d="M12,2A10,10,0,1,1,2,12,10.011,10.011,0,0,1,12,2m0-2A12,12,0,1,0,24,12,12,12,0,0,0,12,0Z"/>
    <g>
      <path class="08e70ac6-3b25-4896-a4c1-816f324b7343" d="M5.08,13H2V11H5.08a6.937,6.937,0,0,1,.6-2H0v6H5.683A6.937,6.937,0,0,1,5.08,13Z"/>
      <path class="08e70ac6-3b25-4896-a4c1-816f324b7343" d="M11,5.08V2h2V5.08a6.939,6.939,0,0,1,2,.6V0H9V5.683A6.939,6.939,0,0,1,11,5.08Z"/>
      <path class="08e70ac6-3b25-4896-a4c1-816f324b7343" d="M18.317,9a6.937,6.937,0,0,1,.6,2H22v2H18.92a6.937,6.937,0,0,1-.6,2H24V9Z"/>
      <path class="08e70ac6-3b25-4896-a4c1-816f324b7343" d="M13,18.92V22H11V18.92a6.937,6.937,0,0,1-2-.6V24h6V18.317A6.937,6.937,0,0,1,13,18.92Z"/>
    </g>
    <path class="08e70ac6-3b25-4896-a4c1-816f324b7343" d="M12,7a5,5,0,1,1-5,5,5.006,5.006,0,0,1,5-5m0-2a7,7,0,1,0,7,7,7,7,0,0,0-7-7Z"/>
  </g>
</svg>
