<svg id="fbfd7d34-d3c9-4c28-905c-23c42e2c9ae6" data-name="Layer 1" xmlns="http://www.w3.org/2000/svg" viewBox="0 0 44 44">
  <defs>
    <style>
      .\30 b82acf2-a7b4-4870-a589-e18c864a9070 {
        fill: #e7edf2;
      }

      .\39 44a5720-3558-409a-9269-b8e107341756 {
        fill: #00a2df;
      }

      .e3e64dcd-394a-4bb3-8e2e-de87ea880053 {
        fill: #cee6ea;
      }

      .\33 c25e17d-d891-4000-925e-1c7e86dee9e1 {
        fill: #fff;
      }
    </style>
  </defs>
  
  <g id="4c1ce85e-1010-483a-941c-0404df13c406" data-name="wallet">
    <path class="0b82acf2-a7b4-4870-a589-e18c864a9070" d="M6,43H4a4,4,0,0,1-4-4V19H6Z"/>
    <path class="944a5720-3558-409a-9269-b8e107341756" d="M38,19V42H4a2,2,0,0,1-2-2V19H38m2-2H0V40a4,4,0,0,0,4,4H40V17Z"/>
    <g>
      <path class="0b82acf2-a7b4-4870-a589-e18c864a9070" d="M3.79,18A2.9,2.9,0,0,1,1,15a2.9,2.9,0,0,1,2.79-3H35v6Z"/>
      <path class="944a5720-3558-409a-9269-b8e107341756" d="M34,13v4H3.789A1.906,1.906,0,0,1,2,15a1.906,1.906,0,0,1,1.789-2H34m2-2H3.789A3.9,3.9,0,0,0,0,15a3.9,3.9,0,0,0,3.789,4H36V11Z"/>
    </g>
    <path class="944a5720-3558-409a-9269-b8e107341756" d="M38,26v8H26a4,4,0,0,1,0-8H38m2-2H26a6,6,0,0,0-6,6h0a6,6,0,0,0,6,6H40V24Z"/>
    <path class="944a5720-3558-409a-9269-b8e107341756" d="M27,29a1,1,0,1,1-1,1,1,1,0,0,1,1-1m0-2a3,3,0,1,0,3,3,3,3,0,0,0-3-3Z"/>
    <g>
      <polygon class="e3e64dcd-394a-4bb3-8e2e-de87ea880053" points="8.293 18 19 6.47 29.707 18 8.293 18"/>
      <path class="944a5720-3558-409a-9269-b8e107341756" d="M19,7.939,27.414,17H10.586L19,7.939M19,5,6,19H32L19,5Z"/>
    </g>
    <path class="944a5720-3558-409a-9269-b8e107341756" d="M20.384,12.384A1.632,1.632,0,0,1,19,13a1.632,1.632,0,0,1-1.384-.616L13,17H25Z"/>
    <path class="3c25e17d-d891-4000-925e-1c7e86dee9e1" d="M19.923,14a1.264,1.264,0,0,1-1.846,0L15,17h8Z"/>
    <rect class="944a5720-3558-409a-9269-b8e107341756" x="34" width="2" height="5"/>
    <rect class="944a5720-3558-409a-9269-b8e107341756" x="38.596" y="1.904" width="2" height="5" transform="translate(14.711 -26.709) rotate(45)"/>
    <rect class="944a5720-3558-409a-9269-b8e107341756" x="40.5" y="6.5" width="2" height="5" transform="translate(50.5 -32.5) rotate(90)"/>
  </g>
</svg>
