
<svg id="b1317f11-92b2-4fe7-b9b7-f7347d5965ce" data-name="Layer 1" xmlns="http://www.w3.org/2000/svg" viewBox="0 0 16 16">
  <defs>
    <style>
      .e81d3206-aafd-409f-8b0c-2b6826922766 {
        fill: #fff;
      }

      .\35 625662d-fc96-4a60-8cdc-d6d1934d7651 {
        fill: #fff;
      }
    </style>
  </defs>
  <title>iconx16</title>
  <g id="bd7b2ffc-e30d-421d-8d45-c357208e125a" data-name="sucess">
    <g id="3156f19b-9492-47f2-b828-b3acf53006ca" data-name="custom_clearance">
      <g id="f4e93677-c57e-4258-95d7-e91b784ee37e" data-name="&lt;Group&gt;">
        <polygon class="e81d3206-aafd-409f-8b0c-2b6826922766" points="10.469 5 7.2 8.098 5.531 6.516 4 7.967 7.2 11 12 6.451 10.469 5"/>
        <polygon class="5625662d-fc96-4a60-8cdc-d6d1934d7651" points="10.469 5 7.2 8.098 5.531 6.516 4 7.967 7.2 11 12 6.451 10.469 5"/>
      </g>
    </g>
    <path class="5625662d-fc96-4a60-8cdc-d6d1934d7651" d="M8,2A6,6,0,1,1,2,8,6.007,6.007,0,0,1,8,2M8,0a8,8,0,1,0,8,8A8,8,0,0,0,8,0Z"/>
  </g>
</svg>
