<svg id="4eb14671-64cd-4a7c-8119-0ccc34f02c1b" data-name="Layer 1" xmlns="http://www.w3.org/2000/svg" viewBox="0 0 24 24">
  <defs>
    <style>
      .\35 df62b4f-7fa7-472c-a81b-13e442f1b8b8 {
        fill: #738593;
      }

      .\39 6c2fd3a-25f1-4ed1-8a2b-4ef22152f29e {
        fill: #fff;
      }
    </style>
  </defs>
  <title>Icons</title>
  <g id="515c8437-a442-4870-9d1c-5aebfe9aaed3" data-name="monitoring">
    <g id="b356ef28-c119-45dd-817e-e0a099b48c5b" data-name="&lt;Group&gt;">
      <path id="4716bb74-e190-4621-ace8-4130a6a3057e" data-name="&lt;Path&gt;" class="5df62b4f-7fa7-472c-a81b-13e442f1b8b8" d="M12,20h0c-3.812-1-7-4.062-7-7V8H5A7.982,7.982,0,0,0,11.395,4.8l.594-.8.6.8A8.011,8.011,0,0,0,19,8h0v5C19,15.938,15.813,18.917,12,20Z"/>
    </g>
    <g id="25b98c3f-1fc3-4d62-9b12-fc0075ef74be" data-name="&lt;Group&gt;">
      <path id="1df7a059-d08f-410d-8e35-65ee10318e45" data-name="&lt;Path&gt;" class="5df62b4f-7fa7-472c-a81b-13e442f1b8b8" d="M12,18h0c-2.723-.75-5-3.047-5-5.25V9H7a5.615,5.615,0,0,0,4.568-2.4l.424-.6.431.6A5.635,5.635,0,0,0,17,9h0V12.75C17,14.953,14.723,17.188,12,18Z"/>
      <path id="4482e50d-348a-486a-8975-d02503baab74" data-name="&lt;Compound Path&gt;" class="96c2fd3a-25f1-4ed1-8a2b-4ef22152f29e" d="M11.994,7.673A6.691,6.691,0,0,0,16,9.922V12.75c0,1.6-1.775,3.436-4.01,4.2C9.8,16.243,8,14.369,8,12.75V9.922a6.668,6.668,0,0,0,3.994-2.249m0-1.673-.424.6A5.615,5.615,0,0,1,7,9V12.75c0,2.2,2.277,4.5,5,5.25h0c2.723-.812,5-3.047,5-5.25V9h0a5.635,5.635,0,0,1-4.574-2.4L11.992,6Z"/>
    </g>
  </g>
</svg>
