<svg id="d794d026-15ed-415d-bbd3-7ab1bf5620c2" data-name="Layer 1" xmlns="http://www.w3.org/2000/svg" viewBox="0 0 16 16">
  <defs>
    <style>
      .\35 85cd1e7-56a5-43ee-9fae-832a03affe9f {
        fill: #fff;
      }

      .\39 a1beb42-04f2-4347-9bf0-a110c75e88a0 {
        fill: #738593;
      }
    </style>
  </defs>
  <title>iconx16</title>
  <g id="2d706ca6-5a25-4ba0-8e6e-5ce1f8d32270" data-name="error">
    <g>
      <polygon class="585cd1e7-56a5-43ee-9fae-832a03affe9f" points="11 6.451 9.553 5 8.021 6.565 6.451 5 5 6.447 6.601 8.015 5 9.649 6.465 11 8.038 9.422 9.649 11 11 9.535 9.458 7.998 11 6.451"/>
      <polygon class="9a1beb42-04f2-4347-9bf0-a110c75e88a0" points="11 6.451 9.553 5 8.021 6.565 6.451 5 5 6.447 6.601 8.015 5 9.649 6.465 11 8.038 9.422 9.649 11 11 9.535 9.458 7.998 11 6.451"/>
    </g>
    <path class="9a1beb42-04f2-4347-9bf0-a110c75e88a0" d="M8,2A6,6,0,1,1,2,8,6.007,6.007,0,0,1,8,2M8,0a8,8,0,1,0,8,8A8,8,0,0,0,8,0Z"/>
  </g>
</svg>
