<svg id="a5bc161c-ea65-43cd-8107-b9314ecf3b39" data-name="Layer 1" xmlns="http://www.w3.org/2000/svg" viewBox="0 0 44 44"><defs><style>.bebe4cb7-0ea4-4f93-8ee3-70a7ee4fbf9e{fill:#fff;}.a0cd7aaf-6a9d-413a-b828-1cce6ae1a9a9{fill:#00a2df;}</style></defs><title>iconx44</title><circle class="bebe4cb7-0ea4-4f93-8ee3-70a7ee4fbf9e" cx="22" cy="22" r="21"/><path class="a0cd7aaf-6a9d-413a-b828-1cce6ae1a9a9" d="M22,2A20,20,0,1,1,2,22,20,20,0,0,1,22,2m0-2A22,22,0,1,0,44,22,22,22,0,0,0,22,0Z"/><g id="95df6d4a-32ab-49aa-929b-a0bccdd43a10" data-name="ship2"><path id="e9caf472-1e21-4e8d-b070-ac050ba00791" data-name="&lt;Path&gt;" class="a0cd7aaf-6a9d-413a-b828-1cce6ae1a9a9" d="M28.4,31H15.26a3,3,0,0,1-2.1-.86L10,27l0-2H34l-3.1,4.66A3,3,0,0,1,28.4,31Z"/><rect id="15bec3bb-3775-400a-9e75-c56d3250e799" data-name="&lt;Rectangle&gt;" class="a0cd7aaf-6a9d-413a-b828-1cce6ae1a9a9" x="12" y="21" width="6" height="3"/><rect id="6ca5ce72-e341-48e7-861e-61f174e2c6d5" data-name="&lt;Rectangle&gt;" class="a0cd7aaf-6a9d-413a-b828-1cce6ae1a9a9" x="19" y="21" width="6" height="3"/><rect id="29d62ecb-3abc-4fd9-a779-65577c03328a" data-name="&lt;Rectangle&gt;" class="a0cd7aaf-6a9d-413a-b828-1cce6ae1a9a9" x="19" y="17" width="6" height="3"/><rect id="27db472a-2fde-4b53-987b-1a68a5cb28d2" data-name="&lt;Rectangle&gt;" class="a0cd7aaf-6a9d-413a-b828-1cce6ae1a9a9" x="26" y="21" width="6" height="3"/><rect id="e0a199b5-6dcf-4b1d-9c24-19431de9cfe2" data-name="&lt;Rectangle&gt;" class="a0cd7aaf-6a9d-413a-b828-1cce6ae1a9a9" x="12" y="17" width="6" height="3"/><rect id="7d39998d-6290-431b-8d9b-258f7479b74c" data-name="&lt;Rectangle&gt;" class="a0cd7aaf-6a9d-413a-b828-1cce6ae1a9a9" x="19" y="13" width="6" height="3"/></g></svg>