<svg id="938364f1-cee0-4e40-a2b2-7b06fbf0c4b6" data-name="Layer 1" xmlns="http://www.w3.org/2000/svg" viewBox="0 0 24 24">
  <defs>
    <style>
      .\31 2f18174-89eb-418f-970b-b8b03e643295 {
        fill: #00a2df;
      }
    </style>
  </defs>
  
  <g id="cc013ae8-f8be-41bb-bb66-30c1744f3b3a" data-name="analytics">
    <path class="12f18174-89eb-418f-970b-b8b03e643295" d="M3,20a1,1,0,1,1-1,1,1,1,0,0,1,1-1m0-2a3,3,0,1,0,3,3,3,3,0,0,0-3-3Z"/>
    <path class="12f18174-89eb-418f-970b-b8b03e643295" d="M7,10a1,1,0,1,1-1,1,1,1,0,0,1,1-1M7,8a3,3,0,1,0,3,3A3,3,0,0,0,7,8Z"/>
    <rect class="12f18174-89eb-418f-970b-b8b03e643295" x="2.307" y="15" width="5.385" height="2.001" transform="translate(-11.712 14.699) rotate(-68.193)"/>
    <path class="12f18174-89eb-418f-970b-b8b03e643295" d="M17,12a1,1,0,1,1-1,1,1,1,0,0,1,1-1m0-2a3,3,0,1,0,3,3,3,3,0,0,0-3-3Z"/>
    <path class="12f18174-89eb-418f-970b-b8b03e643295" d="M21,2a1,1,0,1,1-1,1,1,1,0,0,1,1-1m0-2a3,3,0,1,0,3,3,3,3,0,0,0-3-3Z"/>
    <rect class="12f18174-89eb-418f-970b-b8b03e643295" x="16.307" y="7" width="5.385" height="2.001" transform="translate(4.514 22.669) rotate(-68.193)"/>
    <rect class="12f18174-89eb-418f-970b-b8b03e643295" x="11" y="9.307" width="2" height="5.385" transform="translate(-3.598 18.685) rotate(-68.199)"/>
  </g>
</svg>
