<svg id="c2109bf6-315e-4a76-bdd8-3c116b7d7fad" data-name="Layer 1" xmlns="http://www.w3.org/2000/svg" viewBox="0 0 24 24">
  <defs>
    <style>
      .\32 2bdb0ef-3c91-44dd-9a3a-a9f411c48240 {
        fill: #fff;
      }
    </style>
  </defs>
  
  <g>
    <path id="7f2b4b5f-226f-4453-905d-0389a0df4eed" data-name="&lt;Compound Path&gt;" class="22bdb0ef-3c91-44dd-9a3a-a9f411c48240" d="M22.148,6.457,12,1,1.852,6.457A4,4,0,0,0,0,9.832V19a3.983,3.983,0,0,0,2,3.445V10H22V22.445A3.983,3.983,0,0,0,24,19V9.832A4,4,0,0,0,22.148,6.457ZM15,7H9V5h6Z"/>
    <rect id="7811ed65-6d33-45af-8473-3144cf48fa40" data-name="&lt;Path&gt;" class="22bdb0ef-3c91-44dd-9a3a-a9f411c48240" x="10" y="18" width="4" height="4"/>
    <rect id="19016c86-0843-4d06-b008-b82f207287c2" data-name="&lt;Path&gt;" class="22bdb0ef-3c91-44dd-9a3a-a9f411c48240" x="5" y="18" width="4" height="4"/>
    <rect id="eb85e96e-0ed9-4e9a-ad04-15539f7b51c8" data-name="&lt;Path&gt;" class="22bdb0ef-3c91-44dd-9a3a-a9f411c48240" x="5" y="12" width="4" height="4"/>
    <rect id="7a18d66f-3fa7-4a7a-9954-bd2cedd5b9ec" data-name="&lt;Path&gt;" class="22bdb0ef-3c91-44dd-9a3a-a9f411c48240" x="10" y="12" width="4" height="4"/>
    <rect id="759e4419-9094-4ba9-9a73-0253f8739933" data-name="&lt;Path&gt;" class="22bdb0ef-3c91-44dd-9a3a-a9f411c48240" x="15" y="18" width="4" height="4"/>
  </g>
</svg>
