<svg id="29ed0112-4bdc-461f-a7b1-1543f205fc17" data-name="Layer 1" xmlns="http://www.w3.org/2000/svg" viewBox="0 0 24 24">
  <defs>
    <style>
      .dab1c0f6-a1d0-4780-9ca0-37ee009cd367 {
        fill: #00a1df;
      }
    </style>
  </defs>
  
  <g id="19900aba-a63c-4a4b-b087-ac05c2afdf0b" data-name="users">
    <path id="2aa6c80d-5d32-4815-9a35-71dc74f96b34" data-name="&lt;Compound Path&gt;" class="dab1c0f6-a1d0-4780-9ca0-37ee009cd367" d="M10,18v2a2,2,0,0,1-2,2H2V20a2,2,0,0,1,2-2h6m2-2H4a4,4,0,0,0-4,4v4H8a4,4,0,0,0,4-4V16Z"/>
    <path id="9c28e70d-ba1c-4734-92f7-ee223d8fbc4c" data-name="&lt;Compound Path&gt;" class="dab1c0f6-a1d0-4780-9ca0-37ee009cd367" d="M7.3,7A1.2,1.2,0,0,1,8.5,8.2V9.8A1.2,1.2,0,0,1,7.3,11H5.7A1.2,1.2,0,0,1,4.5,9.8V8.2A1.2,1.2,0,0,1,5.7,7H7.3m0-2H5.7A3.2,3.2,0,0,0,2.5,8.2V9.8A3.2,3.2,0,0,0,5.7,13H7.3a3.2,3.2,0,0,0,3.2-3.2V8.2A3.2,3.2,0,0,0,7.3,5Z"/>
    <path id="d04a621e-115e-4ed1-a64d-a326731835b5" data-name="&lt;Compound Path&gt;" class="dab1c0f6-a1d0-4780-9ca0-37ee009cd367" d="M22,12v2a2,2,0,0,1-2,2H14V14a2,2,0,0,1,2-2h6m2-2H16a4,4,0,0,0-4,4v4h8a4,4,0,0,0,4-4V10Z"/>
    <path id="47c15b02-f732-45d0-9b31-ab713aae72e3" data-name="&lt;Compound Path&gt;" class="dab1c0f6-a1d0-4780-9ca0-37ee009cd367" d="M18.8,2A1.2,1.2,0,0,1,20,3.2V4.8A1.2,1.2,0,0,1,18.8,6H17.2A1.2,1.2,0,0,1,16,4.8V3.2A1.2,1.2,0,0,1,17.2,2h1.6m0-2H17.2A3.2,3.2,0,0,0,14,3.2V4.8A3.2,3.2,0,0,0,17.2,8h1.6A3.2,3.2,0,0,0,22,4.8V3.2A3.2,3.2,0,0,0,18.8,0Z"/>
  </g>
</svg>
