<svg id="ccf65ba4-8d36-4986-a243-c7ce50ecc8da" data-name="Layer 1" xmlns="http://www.w3.org/2000/svg" viewBox="0 0 44 44"><defs><style>.\36 7c72450-61b3-41ee-bf65-343a8081f017{fill:#fff;}.\34 96dcb55-954c-4610-adea-11d4ce975ce2{fill:#00a2df;}</style></defs><title>iconx44</title><circle class="67c72450-61b3-41ee-bf65-343a8081f017" cx="22" cy="22" r="21"/><path class="496dcb55-954c-4610-adea-11d4ce975ce2" d="M22,2A20,20,0,1,1,2,22,20,20,0,0,1,22,2m0-2A22,22,0,1,0,44,22,22,22,0,0,0,22,0Z"/><path class="496dcb55-954c-4610-adea-11d4ce975ce2" d="M22,10a10,10,0,0,0-9.82,10.11C12.18,25.69,22,34,22,34s9.82-8.31,9.82-13.89A10,10,0,0,0,22,10Zm0,13a4,4,0,1,1,4-4A4,4,0,0,1,22,23Z"/></svg>