<svg id="6ec4389f-645b-498e-8b30-03621c347439" data-name="Layer 1" xmlns="http://www.w3.org/2000/svg" viewBox="0 0 24 24">
  <defs>
    <style>
      .\37 394c080-d9dd-45b7-95dd-576da68853b2 {
        fill: #00a2df;
      }

      .c66c7c8c-9e41-4fa7-8f74-5331c3f6447d {
        fill: none;
      }
    </style>
  </defs>
  <title>Icons</title>
  <g id="f099a983-4b8a-4a27-a9ef-33700914685a" data-name="track">
    <g id="7f44a9bb-2122-4f1c-a4ad-5fa3f0d5cb1b" data-name="&lt;Group&gt;">
      <circle id="dd475ead-7a0e-44cd-b1cc-b8185c2086cc" data-name="&lt;Path&gt;" class="7394c080-d9dd-45b7-95dd-576da68853b2" cx="12" cy="9" r="2.5"/>
    </g>
    <path id="c76ca9ad-cf8f-43b2-acf5-a878456a2c1d" data-name="&lt;Path&gt;" class="c66c7c8c-9e41-4fa7-8f74-5331c3f6447d" d="M6,19V17.69a9.057,9.057,0,0,0-2.265.977c.783.616,3.617,1.667,8.224,1.667s7.5-1.051,8.286-1.667A8.832,8.832,0,0,0,18,17.69V19Z"/>
    <path id="c3cada1b-523b-4f4b-81b7-6c7bc4e0b24f" data-name="&lt;Path&gt;" class="7394c080-d9dd-45b7-95dd-576da68853b2" d="M18,16v1.716a8.59,8.59,0,0,1,2.224.971c-.775.612-3.595,1.656-8.16,1.656S4.59,19.3,3.814,18.687A8.191,8.191,0,0,1,6,17.716V16c-2,.6-4.013,1.58-4.013,2.687C1.987,20.517,6.523,22,12,22s10-1.483,10-3.313C22,17.58,20,16.6,18,16Z"/>
    <path id="ad47ae62-0cae-40df-87e6-f01c84b2ce6e" data-name="&lt;Compound Path&gt;" class="7394c080-d9dd-45b7-95dd-576da68853b2" d="M12,4a5.546,5.546,0,0,1,5.5,5.579c0,1.909-2.9,5.335-5.5,7.754-2.6-2.419-5.5-5.845-5.5-7.754A5.546,5.546,0,0,1,12,4m0-2A7.54,7.54,0,0,0,4.5,9.579C4.5,13.765,12,20,12,20s7.5-6.235,7.5-10.421A7.54,7.54,0,0,0,12,2Z"/>
  </g>
</svg>
