<svg id="d2f8bf63-099b-4906-920f-e287faf882f3" data-name="Layer 1" xmlns="http://www.w3.org/2000/svg" viewBox="0 0 24 24">
  <defs>
    <style>
      .ba09f076-458d-4893-8d3e-00473f8f63cb {
        fill: #abb6be;
      }
    </style>
  </defs>
  <title>Icons_Share</title>
  <path class="ba09f076-458d-4893-8d3e-00473f8f63cb" d="M16,15a2.982,2.982,0,0,0-2.2.979L8.9,12.743A2.977,2.977,0,0,0,9,12c0-.042-.011-.082-.012-.124L14.21,8.395A2.991,2.991,0,1,0,13,6a2.977,2.977,0,0,0,.1.731L8.213,9.989A3,3,0,1,0,7.781,14.4l5.234,3.456c0,.048-.014.093-.014.141a3,3,0,1,0,3-3Z"/>
</svg>
