<svg id="3cf4fdb9-a5b9-4cf8-826f-ee6bdbe1c067" data-name="Layer 1" xmlns="http://www.w3.org/2000/svg" viewBox="0 0 24 24">
  <defs>
    <style>
      .\39 c10789f-8a91-4c27-afdc-2ec3a8c86612 {
        fill: #738593;
      }
    </style>
  </defs>
  <title>Icons</title>
  <path id="db8696b4-80f5-4033-8413-867eaa9a7988" data-name="premium" class="9c10789f-8a91-4c27-afdc-2ec3a8c86612" d="M12,7.156l.781,1.674a3.15,3.15,0,0,0,2.38,1.785l1.945.3-1.514,1.56a3.179,3.179,0,0,0-.852,2.711l.336,2.071L13.53,16.4a3.15,3.15,0,0,0-3.061,0l-1.545.859.336-2.071a3.179,3.179,0,0,0-.852-2.711l-1.514-1.56,1.945-.3a3.15,3.15,0,0,0,2.38-1.785L12,7.156M12,4a1.14,1.14,0,0,0-1.046.668L9.406,7.984a1.156,1.156,0,0,1-.871.655l-3.554.546a1.163,1.163,0,0,0-.652,1.959l2.643,2.724a1.165,1.165,0,0,1,.313,1l-.614,3.784A1.162,1.162,0,0,0,7.813,20a1.143,1.143,0,0,0,.558-.148l3.07-1.706a1.149,1.149,0,0,1,1.118,0l3.07,1.706a1.143,1.143,0,0,0,.558.148,1.162,1.162,0,0,0,1.14-1.351l-.614-3.784a1.165,1.165,0,0,1,.313-1l2.643-2.724a1.163,1.163,0,0,0-.652-1.959l-3.554-.546a1.156,1.156,0,0,1-.871-.655L13.046,4.668A1.14,1.14,0,0,0,12,4Z"/>
</svg>
