<svg id="3c55c8ce-f9b2-4a03-9fc6-1fbafa08fdf9" data-name="Layer 1" xmlns="http://www.w3.org/2000/svg" viewBox="0 0 5.918 35.004">
  <defs>
    <style>
      .\32 789a2cb-f0b7-4820-99dd-527a13034b77 {
        fill: #09a5e0;
      }
    </style>
  </defs>
  <title>icon_route</title>
  <path class="2789a2cb-f0b7-4820-99dd-527a13034b77" d="M24.141,5.264A1,1,0,0,1,26,5.99a1.076,1.076,0,0,1-1.311.637.934.934,0,0,1-.6-1.234l.039-.106.007-.015,0-.009M22.872,9.415a1,1,0,0,1,1.936.5c-.009.035-.019.07-.028.107a1,1,0,1,1-1.937-.5l.03-.109m-.937,4.121a1,1,0,1,1,1.961.389c-.007.035-.015.07-.022.107a1,1,0,1,1-1.961-.387l.022-.109m-.717,4.145a1,1,0,0,1,1.98.293l-.017.109a1,1,0,1,1-1.98-.291l.017-.111M20.7,21.849a1,1,0,1,1,1.989.206l-.011.107a1,1,0,0,1-1.989-.2l.011-.109m-.345,4.177a1,1,0,1,1,2,.124c0,.035-.006.072-.007.109a1,1,0,1,1-2-.122l.007-.111m-.178,4.182a1,1,0,1,1,2,.048c0,.035,0,.072,0,.109a1,1,0,1,1-2-.044l0-.113m-.019,4.184a1,1,0,0,1,2-.028v.109a1,1,0,1,1-2,.03l0-.111m.133,4.179a1,1,0,0,1,2-.1l.006.111a1,1,0,0,1-2,.1l-.006-.113" transform="translate(-20.155 -4.627)"/>
</svg>
