<svg id="5a4234f7-08d1-4718-af2b-52a309610d21" data-name="Layer 1" xmlns="http://www.w3.org/2000/svg" viewBox="0 0 24 24">
  <defs>
    <style>
      .\38 ec6ddf8-5874-4c41-9ba2-1112b140e8fb {
        fill: none;
      }

      .\38 9e62e2d-d522-41fa-9d1c-cec154651d68 {
        fill: #738593;
      }
    </style>
  </defs>
  
  <path id="b4a91f59-54e0-44fc-84bf-06ed1eb03541" data-name="&lt;Path&gt;" class="8ec6ddf8-5874-4c41-9ba2-1112b140e8fb" d="M8,11a3.966,3.966,0,0,1-.141,1A3.966,3.966,0,0,1,8,13a3.966,3.966,0,0,1,.141-1A3.966,3.966,0,0,1,8,11Z"/>
  <path id="992b8f3c-0a68-4b7b-8ab4-e8f682622d41" data-name="&lt;Path&gt;" class="8ec6ddf8-5874-4c41-9ba2-1112b140e8fb" d="M16,11a3.966,3.966,0,0,1-.141,1A3.966,3.966,0,0,1,16,13a3.966,3.966,0,0,1,.141-1A3.966,3.966,0,0,1,16,11Z"/>
  <g>
    <g>
      <path id="4c2eda42-e770-4628-bf2d-7487d032ac59" data-name="&lt;Path&gt;" class="89e62e2d-d522-41fa-9d1c-cec154651d68" d="M4,9a3.991,3.991,0,0,1,3.859,3A3.994,3.994,0,1,0,0,11a3.966,3.966,0,0,0,.141,1A3.991,3.991,0,0,1,4,9Z"/>
      <path id="b93282f0-6531-4281-a29c-da2f1d23a30e" data-name="&lt;Path&gt;" class="89e62e2d-d522-41fa-9d1c-cec154651d68" d="M12,9a3.991,3.991,0,0,1,3.859,3,4,4,0,1,0-7.717,0A3.991,3.991,0,0,1,12,9Z"/>
      <path id="7b351ec8-4ce7-46bd-9b4a-c4ad005c7e15" data-name="&lt;Path&gt;" class="89e62e2d-d522-41fa-9d1c-cec154651d68" d="M20,9a3.991,3.991,0,0,1,3.859,3,4,4,0,1,0-7.717,0A3.991,3.991,0,0,1,20,9Z"/>
      <g id="a68ae47a-4547-49f6-a3b6-d88beade022c" data-name="&lt;Group&gt;">
        <path id="8192693b-809f-4234-9565-7c71194d15fe" data-name="&lt;Path&gt;" class="89e62e2d-d522-41fa-9d1c-cec154651d68" d="M15.859,12h.283a4.013,4.013,0,0,1,1.242-2H14.617A4.013,4.013,0,0,1,15.859,12Z"/>
        <path id="260fb05a-44e9-4890-96f0-ba59dcbd6f7a" data-name="&lt;Path&gt;" class="89e62e2d-d522-41fa-9d1c-cec154651d68" d="M9.383,10H6.617a4.013,4.013,0,0,1,1.242,2h.283A4.013,4.013,0,0,1,9.383,10Z"/>
        <path id="33ee93b4-bb0d-4646-b8c8-52b832e7f765" data-name="&lt;Path&gt;" class="89e62e2d-d522-41fa-9d1c-cec154651d68" d="M15,0H9A9,9,0,0,0,0,9v3H.141A4.016,4.016,0,0,1,2,9.545V9A7.008,7.008,0,0,1,9,2h6a7.008,7.008,0,0,1,7,7v.547A4.016,4.016,0,0,1,23.859,12H24V9A9,9,0,0,0,15,0Z"/>
      </g>
    </g>
    <path id="acf94a56-eb9c-47de-a3c9-bdab2d94bd43" data-name="&lt;Path&gt;" class="89e62e2d-d522-41fa-9d1c-cec154651d68" d="M10,24A2.808,2.808,0,0,1,7,21H9C9,22,9.449,22,10,22a1,1,0,0,0,1-1V12h2V21A3,3,0,0,1,10,24Z"/>
  </g>
</svg>
