<svg id="9bd368d5-7783-4c68-a0fa-ab48620ceb61" data-name="Layer 1" xmlns="http://www.w3.org/2000/svg" viewBox="0 0 44 44"><defs><style>.\34 1e25bef-70da-405c-bf00-32bde7d951f8{fill:#fff;}.\38 138d6eb-8e34-4296-8e67-8109ec4b2474{fill:#00a2df;}</style></defs><title>iconx44</title><circle class="41e25bef-70da-405c-bf00-32bde7d951f8" cx="22" cy="22" r="21"/><path class="8138d6eb-8e34-4296-8e67-8109ec4b2474" d="M22,2A20,20,0,1,1,2,22,20,20,0,0,1,22,2m0-2A22,22,0,1,0,44,22,22,22,0,0,0,22,0Z"/><path id="97581028-187b-4608-8280-d5094396b8b9" data-name="&lt;Path&gt;" class="8138d6eb-8e34-4296-8e67-8109ec4b2474" d="M31.5,23h-2c0-4-2.5-6.5-6.5-6.5v-2A8.14,8.14,0,0,1,31.5,23Z"/><path id="de2b8d3b-407f-4c71-80ce-4bcaecab1878" data-name="&lt;Compound Path&gt;" class="8138d6eb-8e34-4296-8e67-8109ec4b2474" d="M16,25a3.5,3.5,0,1,0,3.5,3.5A3.5,3.5,0,0,0,16,25Zm0,5.25a1.75,1.75,0,1,1,1.75-1.75A1.75,1.75,0,0,1,16,30.25Z"/><g id="f78f2e3b-34f7-4091-8087-5cfc0c99269b" data-name="&lt;Group&gt;"><path id="33aec764-18ba-46c9-8900-671b32e7d620" data-name="&lt;Path&gt;" class="8138d6eb-8e34-4296-8e67-8109ec4b2474" d="M24,12H13.24A3.24,3.24,0,0,0,10,15.24V28h4.33a1.74,1.74,0,0,1,3.34,0H24Z"/></g><path id="72361cf5-f28d-4da9-a5e2-3ae3ff8748d3" data-name="&lt;Compound Path&gt;" class="8138d6eb-8e34-4296-8e67-8109ec4b2474" d="M28,25a3.5,3.5,0,1,0,3.5,3.5A3.5,3.5,0,0,0,28,25Zm0,5.25a1.75,1.75,0,1,1,1.75-1.75A1.75,1.75,0,0,1,28,30.25Z"/><g id="8c695fb7-c1f8-4c94-8ca8-a474ff7623ab" data-name="&lt;Group&gt;"><path id="a3864bce-cec1-4037-ba04-90cbcdfd9e66" data-name="&lt;Compound Path&gt;" class="8138d6eb-8e34-4296-8e67-8109ec4b2474" d="M32,23v3H30.79a3.74,3.74,0,0,0-5.58,0H23.73l-.42-3H32m2-2H21l1,7h4.33a1.74,1.74,0,0,1,3.34,0H34V21Z"/></g></svg>