<svg id="70ce84ac-1017-4024-b304-4e6bb6cd3ad0" data-name="Layer 1" xmlns="http://www.w3.org/2000/svg" viewBox="0 0 24 24">
  <defs>
    <style>
      .\38 e4ebfd4-0a61-4899-bd62-267ba9adaffc {
        fill: #738593;
      }
    </style>
  </defs>
  <title>Icons</title>
  <g id="c234fd2f-c595-4b36-abd6-12bf606195ba" data-name="danger">
    <path id="79f63a07-5887-43d4-8ec4-bc9259b6a5f3" data-name="&lt;Path&gt;" class="8e4ebfd4-0a61-4899-bd62-267ba9adaffc" d="M16.135,16.518a6.228,6.228,0,0,1-.474.9l4.428-1.362c.249-.076.6.758,1.263.556a.876.876,0,0,0,.584-1.169c-.149-.374-.818-.38-.919-.638s.418-.628.271-1a1.056,1.056,0,0,0-1.281-.594c-.657.2-.28,1.021-.6,1.12l-2.694.829Z"/>
    <path id="cb11f0ce-a209-481a-b2cc-c2697cec4571" data-name="&lt;Compound Path&gt;" class="8e4ebfd4-0a61-4899-bd62-267ba9adaffc" d="M7.738,13.275A1.99,1.99,0,0,1,9,14.36a2.265,2.265,0,0,0,1.089,1.189A4.764,4.764,0,0,0,11.905,16h.208a4.708,4.708,0,0,0,1.813-.443A2.207,2.207,0,0,0,15.015,14.4a1.975,1.975,0,0,1,1.264-1.078c.5-.2.928-.357.964-1.166.087-1.41,2.373-1.965,2.066-5.269C19.016,3.732,16.619,2,12.339,2h-.662C7.4,2,5,3.724,4.707,6.876c-.307,3.3,1.979,3.863,2.066,5.273C6.81,12.957,7.242,13.08,7.738,13.275Zm5.086-3.9a1.92,1.92,0,0,1,2.109-1.72c1.181,0,2.392.917,2.138,2a2.26,2.26,0,0,1-2.138,1.995A1.906,1.906,0,0,1,12.824,9.371Zm-.815,2.559a2.4,2.4,0,0,1,1.216,1.028c.3.471-.584.73-1.216.757-.631-.028-1.517-.286-1.215-.757A2.4,2.4,0,0,1,12.009,11.929ZM9.084,7.65a1.92,1.92,0,0,1,2.109,1.72,1.907,1.907,0,0,1-2.109,2.271,2.259,2.259,0,0,1-2.137-2C6.692,8.566,7.9,7.65,9.084,7.65Z"/>
    <path id="f1810dad-cd26-420b-9327-14e34aca3c65" data-name="&lt;Path&gt;" class="8e4ebfd4-0a61-4899-bd62-267ba9adaffc" d="M2.648,16.613c.658.2,1.014-.632,1.263-.556l4.646,1.429a6.032,6.032,0,0,1-.517-.968l-.55-1.3-2.9-.892c-.32-.1.057-.917-.6-1.12a1.056,1.056,0,0,0-1.281.594c-.148.374.37.751.271,1s-.771.264-.919.637A.876.876,0,0,0,2.648,16.613Z"/>
    <path id="abfe2651-7a72-41a3-8614-bee167f7a23d" data-name="&lt;Path&gt;" class="8e4ebfd4-0a61-4899-bd62-267ba9adaffc" d="M21.352,18.551c-.658-.2-.94.646-1.26.549l-4.608-1.418a4.582,4.582,0,0,1-1.64,1.431l5.566,1.712c.25.077-.059.926.6,1.129a1.056,1.056,0,0,0,1.281-.593c.148-.374-.372-.746-.27-1s.77-.264.918-.638A.877.877,0,0,0,21.352,18.551Z"/>
    <path id="ce0b48ca-a61e-4588-ba91-d6fe7c2bc924" data-name="&lt;Path&gt;" class="8e4ebfd4-0a61-4899-bd62-267ba9adaffc" d="M8.659,17.637,3.908,19.1c-.32.1-.6-.751-1.259-.549a.876.876,0,0,0-.585,1.169c.148.374.819.385.919.637s-.419.629-.271,1a1.055,1.055,0,0,0,1.281.593c.658-.2.349-1.051.6-1.128l5.673-1.745A4.616,4.616,0,0,1,8.659,17.637Z"/>
    <path id="f3c9a37c-950b-4903-ae89-2780ddf9f06f" data-name="&lt;Path&gt;" class="8e4ebfd4-0a61-4899-bd62-267ba9adaffc" d="M12.077,16.65a6,6,0,0,1-2.854-.527,3.27,3.27,0,0,0,2.863,2.289,3.275,3.275,0,0,0,2.867-2.291A6.083,6.083,0,0,1,12.077,16.65Z"/>
  </g>
</svg>
