<svg id="dd9835d9-4ebb-463b-8ce6-59048e695fe3" data-name="Layer 1" xmlns="http://www.w3.org/2000/svg" viewBox="0 0 24 24">
  <defs>
    <style>
      .\34 49ec461-6fea-4afc-b562-9b45ca510e33 {
        fill: #00a2df;
      }
    </style>
  </defs>
  <title>Icons</title>
  <g id="81cb5815-0b11-46de-a48c-9bab13390e27" data-name="box2">
    <polygon id="c3f96ecd-c9ca-4e2b-8ca0-7f1d2cb9cded" data-name="&lt;Path&gt;" class="449ec461-6fea-4afc-b562-9b45ca510e33" points="19 11 16 11 16 3 19 4.147 19 11"/>
    <path id="b97d9d15-c527-437b-8615-fedcf1e49eb5" data-name="&lt;Compound Path&gt;" class="449ec461-6fea-4afc-b562-9b45ca510e33" d="M12.076,2.2l8.694,3.622A2,2,0,0,1,22,7.667v8.667a2,2,0,0,1-1.231,1.846L12,21.833,3.231,18.179A2,2,0,0,1,2,16.333V8.472A1.989,1.989,0,0,1,3.106,6.683L12.076,2.2M12,0,2.211,4.894A4,4,0,0,0,0,8.472v7.861a4,4,0,0,0,2.462,3.692L12,24l9.538-3.974A4,4,0,0,0,24,16.333V7.667a4,4,0,0,0-2.462-3.692L12,0Z"/>
    <rect id="83ba74f6-9b27-475c-8fb4-83c78c7b7a8a" data-name="&lt;Path&gt;" class="449ec461-6fea-4afc-b562-9b45ca510e33" x="11" y="2" width="2" height="20"/>
  </g>
</svg>
