<svg id="f86ede54-b22c-4b2b-a9f1-d349555f2f22" data-name="Layer 1" xmlns="http://www.w3.org/2000/svg" viewBox="0 0 24 24">
  <defs>
    <style>
      .\32 5a621b5-12cd-4b5c-a905-03a8cbb066cf {
        fill: #738593;
      }

      .\35 0a7c27b-bc2c-4449-8539-12fe33b050c7 {
        fill: #e9f1f4;
      }
    </style>
  </defs>
  
  <g id="6df653ad-40b1-4ca4-bb98-04b012dd7110" data-name="saved_booking">
    <g id="6a50a4a0-9dff-45ff-aac1-2484a4586206" data-name="summary">
      <path class="25a621b5-12cd-4b5c-a905-03a8cbb066cf" d="M16,2V20a2,2,0,0,1-2,2H2V4A2,2,0,0,1,4,2H16m2-2H4A4,4,0,0,0,0,4V24H14a4,4,0,0,0,4-4V0Z"/>
    </g>
    <g>
      <path class="50a7c27b-bc2c-4449-8539-12fe33b050c7" d="M16.042,18a.629.629,0,0,1-.448-.188l-1.787-1.8-.154-.118a2.486,2.486,0,0,1-.266-.219l-3.3-3.32a3.755,3.755,0,0,1,0-5.286,3.612,3.612,0,0,1,5.138,0L16,7.852l.779-.779a3.612,3.612,0,0,1,5.138,0,3.755,3.755,0,0,1,0,5.286L16.49,17.812A.627.627,0,0,1,16.042,18Z"/>
      <path class="25a621b5-12cd-4b5c-a905-03a8cbb066cf" d="M19.348,7a2.609,2.609,0,0,1,1.86.778,2.753,2.753,0,0,1,0,3.876l-5.165,5.19-1.48-1.487-.091-.091-.1-.079-.113-.086a1.847,1.847,0,0,1-.16-.125l-3.305-3.321a2.753,2.753,0,0,1,0-3.876,2.612,2.612,0,0,1,3.72,0l.07.07L16,9.273l1.418-1.425.07-.07A2.609,2.609,0,0,1,19.348,7m0-2A4.61,4.61,0,0,0,16.07,6.368l-.07.07-.07-.07a4.612,4.612,0,0,0-6.556,0h0a4.766,4.766,0,0,0,0,6.7l3.305,3.321a4.61,4.61,0,0,0,.465.382l1.741,1.75a1.627,1.627,0,0,0,2.312,0l5.427-5.453a4.766,4.766,0,0,0,0-6.7A4.61,4.61,0,0,0,19.348,5Z"/>
    </g>
  </g>
</svg>
