<svg id="5ffe961a-5709-42ec-8291-00e434369516" data-name="Layer 1" xmlns="http://www.w3.org/2000/svg" viewBox="0 0 24 24">
  <defs>
    <style>
      .baaa194e-c9e0-48a0-82ed-42ebdd5b7e0d {
        fill: #738593;
      }

      .\38 907e614-566e-49c7-a540-8e4337b57e0e {
        fill: #fff;
      }
    </style>
  </defs>
  <title>Icons</title>
  <g id="45021d61-480a-4da0-981e-fd53c21ae30e" data-name="quality_sampling">
    <path id="4f40bfeb-94d3-470c-a588-61a6d0980b8d" data-name="&lt;Compound Path&gt;" class="baaa194e-c9e0-48a0-82ed-42ebdd5b7e0d" d="M12,20a1.4,1.4,0,0,1-.951-.369L9.806,18.49,8.1,18.72a1.406,1.406,0,0,1-1.567-1.137L6.24,16.023,4.771,15.28a1.4,1.4,0,0,1-.615-1.892L4.867,12l-.712-1.388A1.4,1.4,0,0,1,4.771,8.72L6.24,7.977l.288-1.561A1.4,1.4,0,0,1,8.1,5.279l1.711.231,1.243-1.145a1.411,1.411,0,0,1,1.9,0L14.194,5.51,15.9,5.279a1.408,1.408,0,0,1,1.567,1.137l.288,1.561,1.469.743a1.4,1.4,0,0,1,.615,1.892L19.133,12l.712,1.388a1.4,1.4,0,0,1-.615,1.892l-1.469.743-.288,1.561A1.4,1.4,0,0,1,15.9,18.72l-1.711-.231-1.243,1.145A1.4,1.4,0,0,1,12,20Zm.475-15.123L12,5.4h0Z"/>
    <g id="3a637142-5336-4d14-aadb-64b68bc663b4" data-name="&lt;Group&gt;">
      <path id="fe82a85f-d15e-408f-8351-8738a14a9fc4" data-name="&lt;Path&gt;" class="8907e614-566e-49c7-a540-8e4337b57e0e" d="M12.523,8.334,13.3,9.992a.578.578,0,0,0,.436.327l1.777.273a.582.582,0,0,1,.326.98l-1.322,1.362a.583.583,0,0,0-.157.5l.307,1.892a.578.578,0,0,1-.849.6l-1.535-.853a.575.575,0,0,0-.559,0l-1.535.853a.578.578,0,0,1-.849-.6l.307-1.892a.583.583,0,0,0-.157-.5L8.165,11.572a.582.582,0,0,1,.326-.98l1.777-.273a.578.578,0,0,0,.436-.327l.774-1.658A.576.576,0,0,1,12.523,8.334Z"/>
    </g>
  </g>
</svg>
