<svg id="8f1b99c2-8623-4de4-bb80-c18c7ba5cd76" data-name="Layer 1" xmlns="http://www.w3.org/2000/svg" viewBox="0 0 44 44"><defs><style>.\32 b06fcbb-18f8-448f-97c5-6e7d44e98ba1{fill:#fff;}.\38 9fa7ac5-890e-44de-9c53-8fbd319f27cd{fill:#00a2df;}</style></defs><title>iconx44</title><circle class="2b06fcbb-18f8-448f-97c5-6e7d44e98ba1" cx="22" cy="22" r="21"/><path class="89fa7ac5-890e-44de-9c53-8fbd319f27cd" d="M22,2A20,20,0,1,1,2,22,20,20,0,0,1,22,2m0-2A22,22,0,1,0,44,22,22,22,0,0,0,22,0Z"/><g id="18beefa3-0da7-44b6-8f13-b6ec2380ee38" data-name="plane"><path id="e0ca9507-8093-4afc-b97a-9b8668737e68" data-name="&lt;Path&gt;" class="89fa7ac5-890e-44de-9c53-8fbd319f27cd" d="M32.37,17.41l-16,9.23a3,3,0,0,1-2,.36L13,26.78l-1.2-2.08L30.37,14a2.28,2.28,0,0,1,3.16.48h0A2.29,2.29,0,0,1,32.37,17.41Z"/><polygon id="23d0ba11-88d6-4391-b790-86e4a51e4c71" data-name="&lt;Path&gt;" class="89fa7ac5-890e-44de-9c53-8fbd319f27cd" points="16.58 23.06 12.25 25.56 10.25 22.1 12.39 20.86 16.58 23.06"/><g id="2c386614-d0eb-42ff-a1d1-b3e8957095bf" data-name="&lt;Group&gt;"><polygon id="cc28d011-3ee1-49d1-b06b-6332a993c6c3" data-name="&lt;Path&gt;" class="89fa7ac5-890e-44de-9c53-8fbd319f27cd" points="21.93 23.44 27.93 19.97 28.34 17.43 17.53 13.28 14.31 15.13 21.53 21.36 21.93 23.44"/><polygon id="77265fa4-4eed-4d84-8d75-64858ada022b" data-name="&lt;Path&gt;" class="89fa7ac5-890e-44de-9c53-8fbd319f27cd" points="22.32 25.52 23.31 30.72 26.53 28.87 27.53 22.51 22.32 25.52"/></g></g></svg>