<svg id="652c1b0d-27c5-4db8-bd29-8f993eb710dd" data-name="Layer 1" xmlns="http://www.w3.org/2000/svg" viewBox="0 0 24 24">
  <defs>
    <style>
      .ae30e64a-d532-418e-ba2c-ce21298908de {
        fill: none;
      }

      .bddf4c23-7b37-4079-a085-287a8b718793 {
        fill: #00a2df;
      }
    </style>
  </defs>
  <title>Icons</title>
  <g id="5d9ad246-35d5-4116-8908-0b1f95f1864c" data-name="protection">
    <g id="799711a2-6d53-452a-aa28-80e3899e2257" data-name="&lt;Group&gt;">
      <path id="805e043d-a330-48f2-b015-121084b5c728" data-name="&lt;Path&gt;" class="ae30e64a-d532-418e-ba2c-ce21298908de" d="M8,11a3.966,3.966,0,0,1-.141,1A3.966,3.966,0,0,1,8,13a3.966,3.966,0,0,1,.141-1A3.966,3.966,0,0,1,8,11Z"/>
      <path id="3fc2edee-7e73-466a-9896-666bf0b2c99b" data-name="&lt;Path&gt;" class="ae30e64a-d532-418e-ba2c-ce21298908de" d="M16,11a3.966,3.966,0,0,1-.141,1A3.966,3.966,0,0,1,16,13a3.966,3.966,0,0,1,.141-1A3.966,3.966,0,0,1,16,11Z"/>
      <path id="fcf2878b-f1ee-49c7-9e99-69e4a21d1ba4" data-name="&lt;Path&gt;" class="bddf4c23-7b37-4079-a085-287a8b718793" d="M4,9a3.991,3.991,0,0,1,3.859,3A3.994,3.994,0,1,0,0,11a3.966,3.966,0,0,0,.141,1A3.991,3.991,0,0,1,4,9Z"/>
      <path id="d499987f-9d28-45c6-bb20-8c6d3e23776e" data-name="&lt;Path&gt;" class="bddf4c23-7b37-4079-a085-287a8b718793" d="M12,9a3.991,3.991,0,0,1,3.859,3,4,4,0,1,0-7.717,0A3.991,3.991,0,0,1,12,9Z"/>
      <path id="d3c8323d-9b72-49a2-86a6-4e697fe6ca6d" data-name="&lt;Path&gt;" class="bddf4c23-7b37-4079-a085-287a8b718793" d="M20,9a3.991,3.991,0,0,1,3.859,3,4,4,0,1,0-7.717,0A3.991,3.991,0,0,1,20,9Z"/>
      <g id="10282c08-e206-434e-9c9b-041fe0b1faa3" data-name="&lt;Group&gt;">
        <path id="a5e54770-b42d-4c81-aa0b-4319d6dc019c" data-name="&lt;Path&gt;" class="bddf4c23-7b37-4079-a085-287a8b718793" d="M15.859,12h.283a4.013,4.013,0,0,1,1.242-2H14.617A4.013,4.013,0,0,1,15.859,12Z"/>
        <path id="1cf99bfd-ac18-4232-88ac-a8a7832f3585" data-name="&lt;Path&gt;" class="bddf4c23-7b37-4079-a085-287a8b718793" d="M9.383,10H6.617a4.013,4.013,0,0,1,1.242,2h.283A4.013,4.013,0,0,1,9.383,10Z"/>
        <path id="1b912043-8e85-4aa3-a007-7e06ff11d7ea" data-name="&lt;Path&gt;" class="bddf4c23-7b37-4079-a085-287a8b718793" d="M15,0H9A9,9,0,0,0,0,9v3H.141A4.016,4.016,0,0,1,2,9.547V9A7.008,7.008,0,0,1,9,2h6a7.008,7.008,0,0,1,7,7v.547A4.016,4.016,0,0,1,23.859,12H24V9A9,9,0,0,0,15,0Z"/>
      </g>
    </g>
    <path id="f7c97d11-ad39-46b4-b06e-5b265883dee1" data-name="&lt;Path&gt;" class="bddf4c23-7b37-4079-a085-287a8b718793" d="M10,24.006A2.808,2.808,0,0,1,7,21H9c0,1,.449,1.006,1,1.006a1,1,0,0,0,1-1V12h2v9.008A3,3,0,0,1,10,24.006Z"/>
  </g>
</svg>
