<svg id="1570b050-3f8b-4401-a2cc-543789f52d24" data-name="Layer 1" xmlns="http://www.w3.org/2000/svg" viewBox="0 0 16 16">
  <defs>
    <style>
      .\38 59245ad-1392-4290-8db4-ed73cbf84cac {
        fill: #fcb201;
      }
    </style>
  </defs>
  
  <path id="efab1402-e7bb-43d8-8ff7-d464bf7fd55b" data-name="premium" class="859245ad-1392-4290-8db4-ed73cbf84cac" d="M8,3.156,8.781,4.83a3.15,3.15,0,0,0,2.38,1.785l1.945.3-1.514,1.56a3.179,3.179,0,0,0-.852,2.711l.336,2.071L9.53,12.4a3.15,3.15,0,0,0-3.061,0l-1.545.859.336-2.071a3.179,3.179,0,0,0-.852-2.711L2.894,6.914l1.945-.3A3.15,3.15,0,0,0,7.219,4.83L8,3.156M8,0A1.14,1.14,0,0,0,6.954.668L5.406,3.984a1.156,1.156,0,0,1-.871.655L.982,5.184A1.163,1.163,0,0,0,.33,7.143L2.973,9.867a1.165,1.165,0,0,1,.313,1l-.614,3.784A1.162,1.162,0,0,0,3.813,16a1.143,1.143,0,0,0,.558-.148l3.07-1.706a1.149,1.149,0,0,1,1.118,0l3.07,1.706a1.143,1.143,0,0,0,.558.148,1.162,1.162,0,0,0,1.14-1.351l-.614-3.784a1.165,1.165,0,0,1,.313-1L15.67,7.143a1.163,1.163,0,0,0-.652-1.959l-3.554-.546a1.156,1.156,0,0,1-.871-.655L9.046.668A1.14,1.14,0,0,0,8,0Z"/>
</svg>