<svg id="1f699660-666a-461d-9456-0f18e81cbc86" data-name="Layer 1" xmlns="http://www.w3.org/2000/svg" viewBox="0 0 24 24">
  <defs>
    <style>
      .a3406e12-f8d7-4092-87f8-90bebd7c1a00 {
        fill: #738593;
      }

      .cb5b4483-13f5-47de-9835-5093777b759d {
        fill: none;
        stroke: #738593;
        stroke-miterlimit: 10;
        stroke-width: 2px;
      }
    </style>
  </defs>
  <title>icon</title>
  <g id="c1a45456-ad6d-4714-be29-80907f888d6a" data-name="humidity">
    <path class="a3406e12-f8d7-4092-87f8-90bebd7c1a00" d="M12,2.589c4.28,5.294,7,10.02,7,12.212A7.11,7.11,0,0,1,12,22a7.11,7.11,0,0,1-7-7.2c0-2.192,2.72-6.917,7-12.212M12,0a.981.981,0,0,0-.757.359C9.075,2.961,3,10.626,3,14.8A9.1,9.1,0,0,0,12,24a9.1,9.1,0,0,0,9-9.2C21,10.626,14.925,2.961,12.757.359A.981.981,0,0,0,12,0Z"/>
    <path class="cb5b4483-13f5-47de-9835-5093777b759d" d="M8,15a4,4,0,0,0,4,4"/>
  </g>
</svg>
