<?xml version="1.0" encoding="utf-8"?>
<!-- Generator: Adobe Illustrator 23.0.1, SVG Export Plug-In . SVG Version: 6.00 Build 0)  -->
<svg version="1.1" id="Layer_1" xmlns="http://www.w3.org/2000/svg" xmlns:xlink="http://www.w3.org/1999/xlink" x="0px" y="0px"
	 viewBox="0 0 24 24" style="enable-background:new 0 0 24 24;" xml:space="preserve">
<style type="text/css">
	.st0{fill:none;}
	.st1{fill:#fff;}
	.st2{fill:#FFFFFF;}
</style>
<g>
	<path class="st0" d="M6.91,17.01C6.89,17,6.87,16.99,6.85,16.98c-0.1-0.05-0.2-0.1-0.31-0.13c-0.03-0.01-0.07-0.02-0.1-0.03
		c-0.07-0.02-0.14-0.03-0.2-0.04c-0.05-0.01-0.1-0.01-0.16-0.02c-0.06,0-0.12,0-0.18,0c-0.06,0-0.11,0.01-0.16,0.02
		c-0.06,0.01-0.12,0.02-0.18,0.04c-0.05,0.01-0.09,0.03-0.14,0.04c-0.06,0.02-0.13,0.05-0.19,0.08C5.19,16.96,5.15,16.98,5.12,17
		c-0.06,0.04-0.12,0.08-0.18,0.12c-0.03,0.02-0.06,0.04-0.08,0.07c-0.06,0.05-0.12,0.11-0.17,0.17c-0.02,0.02-0.04,0.04-0.05,0.06
		c-0.06,0.07-0.11,0.15-0.15,0.23c-0.01,0.01-0.01,0.03-0.02,0.04c-0.05,0.1-0.09,0.2-0.12,0.3c-0.05,0.16-0.08,0.33-0.08,0.5
		c0,0.97,0.78,1.75,1.75,1.75s1.75-0.78,1.75-1.75c0-0.17-0.03-0.34-0.08-0.5h0C7.55,17.58,7.27,17.23,6.91,17.01z"/>
	<path class="st0" d="M18.91,17.01c-0.02-0.01-0.04-0.02-0.06-0.03c-0.1-0.05-0.2-0.1-0.31-0.13c-0.03-0.01-0.07-0.02-0.1-0.03
		c-0.07-0.02-0.14-0.03-0.2-0.04c-0.05-0.01-0.1-0.01-0.16-0.02c-0.06,0-0.12,0-0.18,0c-0.06,0-0.11,0.01-0.16,0.02
		c-0.06,0.01-0.12,0.02-0.18,0.04c-0.05,0.01-0.09,0.03-0.14,0.04c-0.06,0.02-0.13,0.05-0.19,0.08c-0.04,0.02-0.07,0.04-0.11,0.06
		c-0.06,0.04-0.12,0.08-0.18,0.12c-0.03,0.02-0.06,0.04-0.08,0.07c-0.06,0.05-0.12,0.11-0.17,0.17c-0.02,0.02-0.04,0.04-0.05,0.06
		c-0.06,0.07-0.11,0.15-0.15,0.23c-0.01,0.01-0.01,0.03-0.02,0.04c-0.05,0.1-0.09,0.2-0.12,0.3c-0.05,0.16-0.08,0.33-0.08,0.5
		c0,0.97,0.78,1.75,1.75,1.75s1.75-0.78,1.75-1.75c0-0.17-0.03-0.34-0.08-0.5h0C19.55,17.58,19.27,17.23,18.91,17.01z"/>
	<path class="st0" d="M19.26,11C18.62,8.48,16.74,6.88,14,6.56V11H19.26z"/>
	<path class="st0" d="M14,16h1.21c0.09-0.1,0.19-0.2,0.3-0.3c1.54-1.38,3.91-1.25,5.29,0.3H22v-3h-8V16z"/>
	<path class="st1" d="M24,11h-2.66C20.62,7.46,17.62,4.8,14,4.52V2H3.24C1.45,2,0,3.45,0,5.24V18h2.55
		c-0.02,0.16-0.05,0.33-0.05,0.5C2.5,20.43,4.07,22,6,22s3.5-1.57,3.5-3.5c0-0.17-0.03-0.34-0.05-0.5h4.39H14h0.55
		c-0.02,0.16-0.05,0.33-0.05,0.5c0,1.93,1.57,3.5,3.5,3.5s3.5-1.57,3.5-3.5c0-0.17-0.03-0.34-0.05-0.5H24V11z M19.26,11H14V6.56
		C16.74,6.88,18.62,8.48,19.26,11z M7.75,18.5c0,0.97-0.78,1.75-1.75,1.75s-1.75-0.78-1.75-1.75c0-0.18,0.03-0.34,0.08-0.5
		c0.03-0.11,0.07-0.21,0.12-0.3c0.01-0.01,0.01-0.03,0.02-0.04c0.04-0.08,0.1-0.16,0.15-0.23c0.02-0.02,0.03-0.04,0.05-0.06
		c0.05-0.06,0.11-0.12,0.17-0.17c0.03-0.02,0.05-0.05,0.08-0.07c0.06-0.05,0.12-0.09,0.18-0.12c0.03-0.02,0.07-0.04,0.11-0.06
		c0.06-0.03,0.12-0.06,0.19-0.08c0.04-0.02,0.09-0.03,0.14-0.04c0.06-0.02,0.12-0.03,0.18-0.04c0.05-0.01,0.11-0.01,0.16-0.02
		c0.06,0,0.12-0.01,0.18,0c0.05,0,0.1,0.01,0.16,0.02c0.07,0.01,0.14,0.02,0.2,0.04c0.04,0.01,0.07,0.02,0.1,0.03
		c0.11,0.04,0.21,0.08,0.31,0.13c0.02,0.01,0.04,0.02,0.06,0.03c0.36,0.22,0.64,0.57,0.76,0.99h0C7.72,18.16,7.75,18.33,7.75,18.5z
		 M12.12,16.05H8.5C7.86,15.4,6.98,15,6,15s-1.86,0.4-2.5,1.05H1.72V6.4c0-1.35,1.08-2.45,2.41-2.45h7.99V16.05z M19.75,18.5
		c0,0.97-0.78,1.75-1.75,1.75s-1.75-0.78-1.75-1.75c0-0.18,0.03-0.34,0.08-0.5c0.03-0.11,0.07-0.21,0.12-0.3
		c0.01-0.01,0.01-0.03,0.02-0.04c0.04-0.08,0.1-0.16,0.15-0.23c0.02-0.02,0.03-0.04,0.05-0.06c0.05-0.06,0.11-0.12,0.17-0.17
		c0.03-0.02,0.05-0.05,0.08-0.07c0.06-0.05,0.12-0.09,0.18-0.12c0.03-0.02,0.07-0.04,0.11-0.06c0.06-0.03,0.12-0.06,0.19-0.08
		c0.04-0.02,0.09-0.03,0.14-0.04c0.06-0.02,0.12-0.03,0.18-0.04c0.05-0.01,0.11-0.01,0.16-0.02c0.06,0,0.12-0.01,0.18,0
		c0.05,0,0.1,0.01,0.16,0.02c0.07,0.01,0.14,0.02,0.2,0.04c0.04,0.01,0.07,0.02,0.1,0.03c0.11,0.04,0.21,0.08,0.31,0.13
		c0.02,0.01,0.04,0.02,0.06,0.03c0.36,0.22,0.64,0.57,0.76,0.99h0C19.72,18.16,19.75,18.33,19.75,18.5z M22,16h-1.21
		c-1.38-1.54-3.75-1.68-5.29-0.3c-0.1,0.09-0.2,0.19-0.3,0.3H14v-3h8V16z"/>
	<path class="st2" d="M1.72,6.4v9.65H3.5C4.14,15.4,5.02,15,6,15s1.86,0.4,2.5,1.05h3.62V3.95H4.13C2.8,3.95,1.72,5.05,1.72,6.4z"/>
</g>
<g>
</g>
<g>
</g>
<g>
</g>
<g>
</g>
<g>
</g>
<g>
</g>
</svg>
