<svg id="6388dae9-4423-4ae6-957a-5b34754753d5" data-name="Layer 1" xmlns="http://www.w3.org/2000/svg" viewBox="0 0 24 24">
  <defs>
    <style>
      .b09852d7-8939-4f8d-ab59-aae28bb6ddf3 {
        fill: #738593;
      }
    </style>
  </defs>
  <title>Icons</title>
  <g id="9df26f73-d311-40bb-af1a-4a0449d1950f" data-name="fire">
    <path id="7bc8814e-29d1-4212-84a5-ce131485205b" data-name="&lt;Path&gt;" class="b09852d7-8939-4f8d-ab59-aae28bb6ddf3" d="M14.718,10.675A4.52,4.52,0,0,1,17.643,8.21c-.121.4-.244.77-.347,1.147a3.856,3.856,0,0,0,.3,2.852,8.266,8.266,0,0,1,.694,1.562,4.806,4.806,0,0,1-1.079,4.788,4.505,4.505,0,0,1-2.626,1.283,3.622,3.622,0,0,1-.771.051c.1-.1.192-.207.289-.309a3.769,3.769,0,0,0,1.02-3.229,7.358,7.358,0,0,1-.034-1.219,2.6,2.6,0,0,1,.637-1.52c.033-.041.067-.081.1-.123.006-.008,0-.023.009-.061a3.415,3.415,0,0,0-1.945,1.412,3.264,3.264,0,0,0-.591-2.476,4.388,4.388,0,0,0-2.1-1.5c.1.253.2.472.268.7a2.27,2.27,0,0,1-.381,2.108c-.279.381-.589.741-.886,1.108a3.616,3.616,0,0,0-.816,1.489,2.87,2.87,0,0,0,.328,2c.265.5.6.957.9,1.432.052.081.116.154.174.231L10.757,20c-.317-.056-.64-.091-.95-.173a5.65,5.65,0,0,1-4.218-4.788,5.731,5.731,0,0,1,.163-2.767,4.221,4.221,0,0,1,.913-1.485,3.326,3.326,0,0,0,1.146,3.467c-.025-.068-.051-.137-.076-.205a4.57,4.57,0,0,1,.657-4.617,9.231,9.231,0,0,1,.915-.891c.279-.268.581-.517.833-.808a2.772,2.772,0,0,0,.4-3.278A2.309,2.309,0,0,1,10.35,4c.346.163.7.312,1.038.49a6.782,6.782,0,0,1,2.5,2.154A5.2,5.2,0,0,1,14.718,10.675Z"/>
  </g>
</svg>
