<svg id="94cd22a0-6b3c-49e5-a5c7-cd06376175f8" data-name="Layer 1" xmlns="http://www.w3.org/2000/svg" viewBox="0 0 16 16">
  <defs>
    <style>
      .\31 eb5c2fe-c36d-4924-8422-09b81681a52c {
        fill: #fff;
      }

      .\36 cf10350-8c87-47f3-9ece-92c781589d76 {
        fill: #fff;
      }
    </style>
  </defs>
  <title>icon</title>
  <g id="9563ceec-2775-4019-baca-e2fbb811fb25" data-name="error">
    <g>
      <polygon class="1eb5c2fe-c36d-4924-8422-09b81681a52c" points="11 6.451 9.553 5 8.021 6.565 6.451 5 5 6.447 6.601 8.015 5 9.649 6.465 11 8.038 9.422 9.649 11 11 9.535 9.458 7.998 11 6.451"/>
      <polygon class="6cf10350-8c87-47f3-9ece-92c781589d76" points="11 6.451 9.553 5 8.021 6.565 6.451 5 5 6.447 6.601 8.015 5 9.649 6.465 11 8.038 9.422 9.649 11 11 9.535 9.458 7.998 11 6.451"/>
    </g>
    <path class="6cf10350-8c87-47f3-9ece-92c781589d76" d="M8,2A6,6,0,1,1,2,8,6.007,6.007,0,0,1,8,2M8,0a8,8,0,1,0,8,8A8,8,0,0,0,8,0Z"/>
  </g>
</svg>
