<?xml version="1.0" encoding="utf-8"?>
<!-- Generator: Adobe Illustrator 23.0.1, SVG Export Plug-In . SVG Version: 6.00 Build 0)  -->
<svg version="1.1" id="Layer_1" xmlns="http://www.w3.org/2000/svg" xmlns:xlink="http://www.w3.org/1999/xlink" x="0px" y="0px"
	 viewBox="0 0 24 24" style="enable-background:new 0 0 24 24;" xml:space="preserve">
<style type="text/css">
	.st0{fill:#B9C2C8;}
	.st1{fill:#B9C2C8;stroke:#FFFFFF;stroke-width:0.5;stroke-miterlimit:10;}
</style>
<g>
	<g>
		<path class="st0" d="M22,22v-0.56C21.39,21.8,20.7,22,20,22H22z"/>
		<path class="st0" d="M2,22h2c-0.7,0-1.39-0.2-2-0.56V22z"/>
	</g>
	<path id="e1fcf746-792d-4354-8bc6-17314b2a5e3d" class="st0" d="M22.15,5.46L12,0L1.85,5.46C0.7,6.19,0,7.46,0,8.83V18
		c0,1.42,0.77,2.74,2,3.44V9h20v12.44c1.23-0.71,2-2.02,2-3.44V8.83C24,7.46,23.3,6.19,22.15,5.46z M15,6H9V4h6V6z"/>
	<rect x="10" y="17" class="st0" width="4" height="4"/>
	<rect id="f420b0a4-076a-4ee1-91c5-b7e42da4e2e9" x="5" y="17" class="st0" width="4" height="4"/>
	<rect x="5" y="11" class="st0" width="4" height="4"/>
	<rect x="10" y="11" class="st0" width="4" height="4"/>
	<rect id="e6df87d8-dd93-41a6-9184-dc1ac2ad8c81" x="15" y="17" class="st0" width="4" height="4"/>
</g>
<g>
	<rect x="-2.76" y="12" transform="matrix(0.7078 -0.7064 0.7064 0.7078 -5.6769 12.2748)" class="st1" width="29.53" height="2"/>
</g>
<g>
</g>
<g>
</g>
<g>
</g>
<g>
</g>
<g>
</g>
<g>
</g>
</svg>
