<?xml version="1.0" encoding="utf-8"?>
<!-- Generator: Adobe Illustrator 16.0.0, SVG Export Plug-In . SVG Version: 6.00 Build 0)  -->
<!DOCTYPE svg PUBLIC "-//W3C//DTD SVG 1.1//EN" "http://www.w3.org/Graphics/SVG/1.1/DTD/svg11.dtd">
<svg version="1.1" id="Layer_1" xmlns="http://www.w3.org/2000/svg" xmlns:xlink="http://www.w3.org/1999/xlink" x="0px" y="0px"
	 width="12px" height="20px" viewBox="0 0 12 20" enable-background="new 0 0 12 20" xml:space="preserve">
<g>
	<defs>
		<rect id="SVGID_1_" width="12" height="20"/>
	</defs>
	<clipPath id="SVGID_2_">
		<use xlink:href="#SVGID_1_"  overflow="visible"/>
	</clipPath>
	<path clip-path="url(#SVGID_2_)" fill="#738593" d="M10,20H2c-1.104,0-2-0.896-2-2V2c0-1.104,0.896-2,2-2h8c1.104,0,2,0.896,2,2v16
		C12,19.104,11.104,20,10,20"/>
	<rect x="2" y="2" clip-path="url(#SVGID_2_)" fill="#FFFFFF" width="8" height="10"/>
	<path clip-path="url(#SVGID_2_)" fill="#FFFFFF" d="M8,16c0,1.104-0.896,2-2,2c-1.104,0-2-0.896-2-2s0.896-2,2-2
		C7.104,14,8,14.896,8,16"/>
</g>
</svg>
