<?xml version="1.0" encoding="utf-8"?>
<!-- Generator: Adobe Illustrator 23.0.1, SVG Export Plug-In . SVG Version: 6.00 Build 0)  -->
<svg version="1.1" id="Layer_1" xmlns="http://www.w3.org/2000/svg" xmlns:xlink="http://www.w3.org/1999/xlink" x="0px" y="0px"
	 viewBox="0 0 31 31" style="enable-background:new 0 0 31 31;" xml:space="preserve">
<style type="text/css">
	.st0{fill:#27AAE1;}
	.st1{fill:#FFFFFF;}
	.st2{fill:none;stroke:#FFFFFF;stroke-width:1.7037;stroke-miterlimit:10;}
</style>
<g>
	<path class="st0" d="M28.43,19.82v3.61H17.08v-3.61H28.43 M31,17.25H14.51V26H31V17.25L31,17.25z"/>
</g>
<polygon class="st0" points="18.44,26 0.06,26 0.06,8.06 18.44,9.22 "/>
<g>
	<path class="st1" d="M22.77,30.04c-1.83,0-3.32-1.49-3.32-3.32s1.49-3.32,3.32-3.32c1.83,0,3.32,1.49,3.32,3.32
		S24.6,30.04,22.77,30.04z"/>
	<path class="st0" d="M22.77,24.37c1.3,0,2.35,1.05,2.35,2.35s-1.05,2.35-2.35,2.35s-2.35-1.05-2.35-2.35S21.48,24.37,22.77,24.37
		 M22.77,22.44c-2.36,0-4.28,1.92-4.28,4.28S20.41,31,22.77,31s4.28-1.92,4.28-4.28S25.14,22.44,22.77,22.44L22.77,22.44z"/>
</g>
<g>
	<g>
		<path class="st1" d="M9.84-2.04C5-2.04,1.07,1.88,1.07,6.73S5,15.5,9.84,15.5s8.77-3.93,8.77-8.77S14.69-2.04,9.84-2.04z
			 M9.84,13.34c-3.65,0-6.61-2.96-6.61-6.61s2.96-6.61,6.61-6.61c3.65,0,6.61,2.96,6.61,6.61S13.49,13.34,9.84,13.34z"/>
	</g>
	<g>
		
			<ellipse transform="matrix(0.3827 -0.9239 0.9239 0.3827 -0.1399 13.2461)" class="st0" cx="9.84" cy="6.73" rx="6.61" ry="6.61"/>
	</g>
</g>
<polyline class="st2" points="9.44,2.31 9.44,6.92 13.46,6.92 "/>
<g>
	<path class="st0" d="M18.41,11.37c3.65,0,6.61,2.96,6.61,6.61h2.16c0-4.84-3.93-8.77-8.77-8.77V11.37z"/>
</g>
<g>
	<path class="st1" d="M7.92,30.04c-1.83,0-3.32-1.49-3.32-3.32s1.49-3.32,3.32-3.32c1.83,0,3.32,1.49,3.32,3.32
		S9.75,30.04,7.92,30.04z"/>
	<path class="st0" d="M7.92,24.37c1.3,0,2.35,1.05,2.35,2.35s-1.05,2.35-2.35,2.35s-2.35-1.05-2.35-2.35S6.62,24.37,7.92,24.37
		 M7.92,22.44c-2.36,0-4.28,1.92-4.28,4.28S5.55,31,7.92,31s4.28-1.92,4.28-4.28S10.28,22.44,7.92,22.44L7.92,22.44z"/>
</g>
<g>
</g>
<g>
</g>
<g>
</g>
<g>
</g>
<g>
</g>
<g>
</g>
</svg>
