<svg xmlns="http://www.w3.org/2000/svg" viewBox="0 0 200 200">
  <defs>
    <style>
      .e0c0c9a7-1868-46ed-b270-454681cfcf0d {
        isolation: isolate;
      }

      .\39 2e80054-c0b6-4828-a759-785420108ca8 {
        fill: #961805;
      }

      .\30 a004c37-c4c4-4bd5-a307-bed1115f6e2a {
        fill: #db4b39;
      }

      .\32 c64fb4f-52bb-4a08-8c45-dc84fe3817ab {
        fill: #e85643;
      }

      .\31 829936d-78c6-4438-949d-76e194b949f6 {
        fill: #bf2b16;
      }

      .\30 a785e01-ca03-43ef-b335-7780bb76a447 {
        fill: #ab1c05;
      }

      .c4f4fbd9-4007-4b98-ac6d-e3418f559685 {
        fill: #d93b26;
      }

      .f4f7946a-8bb9-4f97-87f0-365f4ccf3176 {
        opacity: 0.4;
        mix-blend-mode: soft-light;
      }
    </style>
  </defs>
  <title>Container Types</title>
  <g class="e0c0c9a7-1868-46ed-b270-454681cfcf0d">
    <g id="e2abe047-54aa-4558-90a0-ea3dd4eeec9b" data-name="Trains">
      <g id="856197b2-7b97-495a-846f-fe38db906739" data-name="Opentop">
        <polygon class="92e80054-c0b6-4828-a759-785420108ca8" points="41.61 24 41.58 59.94 167.81 132.18 199.12 114.2 41.61 24"/>
        <polygon class="0a004c37-c4c4-4bd5-a307-bed1115f6e2a" points="44.18 61.42 33.72 67.94 156.85 138.64 167.81 132.18 44.18 61.42"/>
        <polygon class="92e80054-c0b6-4828-a759-785420108ca8" points="44.18 61.42 33.72 67.94 2.4 49.97 41.61 25.53 44.18 61.42"/>
        <polygon class="2c64fb4f-52bb-4a08-8c45-dc84fe3817ab" points="41.61 24.14 0 49.97 2.42 49.97 41.61 25.53 197.57 114.2 200 114.2 41.61 24.14"/>
        <g>
          <g>
            <polygon class="1829936d-78c6-4438-949d-76e194b949f6" points="154.26 171.85 5.01 86.16 5.01 53.88 154.26 140.97 154.26 171.85"/>
            <polygon class="92e80054-c0b6-4828-a759-785420108ca8" points="6.23 53.19 6.23 85.46 41.58 105.76 40.37 106.46 5.01 86.16 5.01 53.88 6.23 53.19"/>
            <polygon class="92e80054-c0b6-4828-a759-785420108ca8" points="44.19 74.99 44.19 107.26 79.55 127.56 78.33 128.26 42.98 107.96 42.98 75.68 44.19 74.99"/>
            <polygon class="92e80054-c0b6-4828-a759-785420108ca8" points="82.16 96.79 82.16 129.06 117.51 149.36 116.3 150.06 80.95 129.76 80.95 97.48 82.16 96.79"/>
            <polygon class="0a785e01-ca03-43ef-b335-7780bb76a447" points="82.16 103.35 117.51 123.65 116.3 124.34 80.95 104.04 82.16 103.35"/>
            <polygon class="0a785e01-ca03-43ef-b335-7780bb76a447" points="44.19 81.55 79.55 101.85 78.33 102.54 42.98 82.24 44.19 81.55"/>
            <polygon class="0a785e01-ca03-43ef-b335-7780bb76a447" points="6.23 59.75 41.58 80.05 40.37 80.74 5.01 60.45 6.23 59.75"/>
            <polygon class="92e80054-c0b6-4828-a759-785420108ca8" points="120.12 118.58 120.12 150.86 155.48 171.16 154.26 171.85 118.91 151.56 118.91 119.28 120.12 118.58"/>
            <path class="c4f4fbd9-4007-4b98-ac6d-e3418f559685" d="M1.84,52.06l.56,2.43V87.3L7.08,90l3.42.61L148.78,170l3.42,3.32,4.68,2.69V143.19l.57-1.78ZM116.3,117.78v6.56L80.95,104V97.48ZM78.33,96v6.56L43,82.24V75.68Zm-38-21.8v6.56L5,60.45V53.88ZM5,86.16V62.39l35.35,20.3v23.77ZM43,108V84.19l35.35,20.3v23.77Zm38,21.8V106l35.35,20.3v23.77Zm38,21.8V127.78l35.35,20.3v23.77Zm35.35-5.41-35.35-20.3v-6.56l35.35,20.3Z"/>
            <polygon class="c4f4fbd9-4007-4b98-ac6d-e3418f559685" points="0 52.4 156.85 142.46 156.85 140.03 0 49.97 0 52.4"/>
            <polygon class="0a785e01-ca03-43ef-b335-7780bb76a447" points="120.12 125.15 154.26 144.75 154.26 146.14 118.91 125.84 120.12 125.15"/>
          </g>
          <polygon class="2c64fb4f-52bb-4a08-8c45-dc84fe3817ab" points="197.57 114.2 156.85 138.64 2.42 49.97 0 49.97 156.85 140.03 200 114.2 197.57 114.2"/>
          <g>
            <polygon class="92e80054-c0b6-4828-a759-785420108ca8" points="199.27 151.09 157.01 175.53 157.01 142.72 157.58 140.94 199.84 116.5 199.27 118.28 199.27 151.09"/>
            <polygon class="f4f7946a-8bb9-4f97-87f0-365f4ccf3176" points="157.45 141.41 156.88 143.19 199.12 118.75 199.68 116.97 157.45 141.41"/>
            <polygon class="92e80054-c0b6-4828-a759-785420108ca8" points="200 116.63 156.85 142.46 156.85 140.03 200 114.2 200 116.63"/>
          </g>
        </g>
      </g>
    </g>
  </g>
</svg>
