<svg id="575ecc6f-3a99-4299-911c-80b001db40c0" data-name="Layer 1" xmlns="http://www.w3.org/2000/svg" viewBox="0 0 490 308">
  <defs>
    <style>
      .\37 ae8f91a-db96-4766-b5f1-ff38d973b9f3 {
        fill: #ffc69f;
      }

      .\37 ad8b721-fc8b-4c13-a0be-fabe98fe049d {
        fill: #f7c09a;
      }

      .f8027473-e77e-4d7e-a6b8-067523478f3f {
        fill: #efba95;
      }

      .c317fe2e-f1e1-4e6f-b22a-e4aa6bec1c10 {
        fill: #ffb682;
      }

      .a1d11815-206f-4089-9865-13392905ebcc {
        fill: #efb186;
      }

      .\33 9436bff-63eb-4535-9ccd-3e15832b164e {
        fill: #d99b6f;
      }

      .\33 f699648-adf0-464a-b3ad-a2b89aaab2f8 {
        fill: #e8a26f;
      }

      .\30 2bd50c9-efe6-4fed-8128-eff1d1b08468 {
        fill: #efb68d;
      }

      .a6863443-5186-4341-b122-5ad214ec21ac {
        fill: #cc8e62;
      }

      .\32 9fa775c-9a26-4d58-b3c0-40d09f7009eb {
        fill: #d9b15e;
      }

      .\38 5dbd37f-dca4-41d0-b83d-72c773135e00 {
        fill: #d9a987;
      }

      .ff1e988f-22ee-44e7-a885-c0d4fe40d038 {
        fill: #c28b64;
      }

      .\39 015baf1-e8ae-473c-a9dd-7fdbed96d8b5 {
        fill: #454d5a;
      }

      .\32 9b3b452-2de3-4186-a7ec-cf1684bc93b4 {
        fill: gray;
      }
    </style>
  </defs>
  <title>LCL</title>
  <g>
    <g id="afe47e68-493f-4892-a87a-087db058e9dc" data-name="&lt;Group&gt;">
      <g>
        <path class="7ae8f91a-db96-4766-b5f1-ff38d973b9f3" d="M490,133.316v5.9l-5.666,3.278-18.865,10.86c-4.137.46-8.27.813-12.4,1.248l31.8-18.335Z"/>
        <path class="7ad8b721-fc8b-4c13-a0be-fabe98fe049d" d="M489.813,133.316l-5.13,2.95-31.8,18.335c-2.494.244-4.974.535-7.465.887-17.023,2.428-32.829,5.461-49.239,11.53-18.237,6.069-34.042,18.811-49.24,29.732-33.072,24.212-69.654,58.9-112.9,55.2l5.531-3.193,21.75-12.537,5.119-2.95,24.973-14.392,22.64-13.046,5.131-2.95,24.959-14.393,21.544-12.415,5.118-2.948,24.973-14.395,28.178-16.237,5.134-2.963,4.595-2.647c15.487-2.511,30.264-5.219,44.949-10.01Z"/>
        <polygon class="7ae8f91a-db96-4766-b5f1-ff38d973b9f3" points="488.004 160.067 488.004 165.972 241.568 308 241.507 307.965 241.507 302.06 241.568 302.095 482.879 163.018 488.004 160.067"/>
        <path class="f8027473-e77e-4d7e-a6b8-067523478f3f" d="M487.773,160.073l-5.125,2.952L241.338,302.1l-.061-.035-19.8-11.42-5.137-2.952,8.2-4.737v5.4l17.8,10.259.1-.062,18.031-10.367v-8.7l10.978-6.343v-5.963l-1.886-1.1,7.8-4.49,10.935,6.3.1-.058L306.375,257.5v-7.982l13.971-8.062v-4.636l5.5-3.162,4.273-2.46,11.012,6.35.1-.073L359.267,227.1v-7.967l13.971-8.054v-4.655l8.647-4.989,13.1,7.551.1-.059,18.074-10.408v-7.94l13.971-8.056v-5.853l-1.036-.6.627-.364c2.56.1,5.121.206,7.685.279l8.422,4.861.1-.062,18.137-10.439v-6.764l.291.17.131-.073,16.275-9.392Z"/>
        <path class="c317fe2e-f1e1-4e6f-b22a-e4aa6bec1c10" d="M486.008,143.521v5.911l-1.944,1.116-.3-.521a97,97,0,0,1-13.848,2.78l10.967-6.324Z"/>
        <path class="a1d11815-206f-4089-9865-13392905ebcc" d="M485.959,143.521l-5.13,2.963-10.967,6.324c-1.533.205-3.051.389-4.58.545l18.865-10.86Z"/>
        <path class="c317fe2e-f1e1-4e6f-b22a-e4aa6bec1c10" d="M483.649,150.027l.3.521-6.638,3.825-16.257,9.382v-5.913l8.742-5.034A97,97,0,0,0,483.649,150.027Z"/>
        <path class="7ad8b721-fc8b-4c13-a0be-fabe98fe049d" d="M464.838,118.923l13.791,7.949c-14.685,4.792-29.463,7.5-44.949,10.01l20.38-11.746Z"/>
        <path class="a1d11815-206f-4089-9865-13392905ebcc" d="M469.862,152.807l-8.742,5.034-.131.074-1.813-1.045,6.106-3.519C466.811,153.2,468.33,153.013,469.862,152.807Z"/>
        <path class="7ae8f91a-db96-4766-b5f1-ff38d973b9f3" d="M465.282,153.352l-6.106,3.519-5.116,2.963-11.432,6.577-12.546,7.234-3.6,2.065c-3.261-.124-6.532-.232-9.764-.269L452.878,154.6C457.012,154.165,461.145,153.813,465.282,153.352Z"/>
        <polygon class="39436bff-63eb-4535-9ccd-3e15832b164e" points="461.059 157.842 461.059 163.754 460.928 163.827 460.637 163.657 453.999 159.834 459.115 156.871 460.928 157.916 461.059 157.842"/>
        <polygon class="3f699648-adf0-464a-b3ad-a2b89aaab2f8" points="461.059 163.696 461.059 170.368 443.096 180.706 443.096 166.433 454.46 159.895 461.059 163.696"/>
        <path class="a1d11815-206f-4089-9865-13392905ebcc" d="M454.06,125.136l-20.38,11.746c-2.384.379-4.779.767-7.2,1.144l-15.576-8.971,24.971-14.392Z"/>
        <path class="02bd50c9-efe6-4fed-8128-eff1d1b08468" d="M452.878,154.6,416.721,175.44c-14.252-.23-28.1.9-40,8.569-15.805,9.989-35.26,24.538-46.492,41.276l-36.122,20.823-50.456,29.08-.292-.17L223.81,263.743l-5.131-2.95,15.357-8.845c43.246,3.7,79.828-30.986,112.9-55.2,15.2-10.921,31-23.663,49.24-29.732,16.409-6.069,32.216-9.1,49.239-11.53C447.9,155.136,450.384,154.845,452.878,154.6Z"/>
        <polygon class="a6863443-5186-4341-b122-5ad214ec21ac" points="434.609 175.987 430.55 173.644 443.096 166.411 443.096 180.768 443 180.83 434.609 175.987"/>
        <path class="7ae8f91a-db96-4766-b5f1-ff38d973b9f3" d="M436.11,108.363v5.911l-.681.389-24.971,14.392-5.13,2.95L395,137.962l-8.2,4.723-9.661,5.569-24.977,14.395-1.845,1.07-.2-.342a18.157,18.157,0,0,0-2.5-4.029l83.357-48.037Z"/>
        <path class="f8027473-e77e-4d7e-a6b8-067523478f3f" d="M436.561,108.363l-5.127,2.948-83.357,48.037c-9.766-11.942-32.11-6.786-48.608-.767L317.4,148.254l5.13-2.948,24.958-14.393,5.315-3.058c12.56-1.468,24.622-2.863,37.9-7.56,12.876-4.71,24.463-11.19,36-17.613Z"/>
        <path class="f8027473-e77e-4d7e-a6b8-067523478f3f" d="M430.082,173.644l4.059,2.343c-2.555-.073-5.106-.182-7.657-.278Z"/>
        <path class="a1d11815-206f-4089-9865-13392905ebcc" d="M433.68,136.882l-4.595,2.647-2.6-1.5C428.9,137.649,431.3,137.261,433.68,136.882Z"/>
        <polygon class="39436bff-63eb-4535-9ccd-3e15832b164e" points="426.485 138.026 429.085 139.529 423.951 142.492 422.908 141.885 417.774 138.92 413.52 136.471 405.779 132.005 410.909 129.055 426.485 138.026"/>
        <polygon class="c317fe2e-f1e1-4e6f-b22a-e4aa6bec1c10" points="427.128 176.625 427.128 182.561 413.287 190.541 402.179 196.939 402.179 191.003 421.977 179.586 427.128 176.625"/>
        <polygon class="a1d11815-206f-4089-9865-13392905ebcc" points="427.026 176.667 421.895 179.615 402.179 190.986 402.179 189.798 425.993 176.072 427.026 176.667"/>
        <path class="7ad8b721-fc8b-4c13-a0be-fabe98fe049d" d="M411.59,93.968l15.111,8.714c-11.538,6.423-23.126,12.9-36,17.613-13.273,4.7-25.335,6.092-37.9,7.56l22.884-13.191,5.116-2.95L405.779,97.32Z"/>
        <path class="7ae8f91a-db96-4766-b5f1-ff38d973b9f3" d="M426.322,175.709l-.624.363L401.884,189.8l-1.157.668-5.116,2.95-.731.423-13.191,7.6-8.643,4.987-24.757,14.26v-3.253l-1.142-1.989,69.412-40C419.791,175.477,423.062,175.585,426.322,175.709Z"/>
        <polygon class="7ae8f91a-db96-4766-b5f1-ff38d973b9f3" points="422.908 141.885 394.727 158.121 389.596 155.173 417.774 138.92 422.908 141.885"/>
        <polygon class="f8027473-e77e-4d7e-a6b8-067523478f3f" points="417.411 138.92 389.233 155.173 377.234 148.254 386.895 142.685 394.995 147.358 395.091 147.296 413.157 136.894 413.157 136.471 417.411 138.92"/>
        <path class="f8027473-e77e-4d7e-a6b8-067523478f3f" d="M416.721,175.44l-69.412,40-17.08,9.842c11.232-16.738,30.687-31.287,46.492-41.276C388.621,176.338,402.468,175.21,416.721,175.44Z"/>
        <polygon class="3f699648-adf0-464a-b3ad-a2b89aaab2f8" points="413.157 136.489 413.157 136.91 395.193 147.253 395.193 137.972 405.459 132.049 413.157 136.489"/>
        <polygon class="3f699648-adf0-464a-b3ad-a2b89aaab2f8" points="413.157 190.578 413.157 198.529 395.193 208.873 395.193 193.872 395.92 193.451 402.037 196.987 402.157 196.913 413.157 190.578"/>
        <polygon class="a1d11815-206f-4089-9865-13392905ebcc" points="405.779 97.32 380.804 111.714 355.845 97.32 380.804 82.925 405.779 97.32"/>
        <polygon class="39436bff-63eb-4535-9ccd-3e15832b164e" points="402.179 190.986 402.179 196.897 402.059 196.971 395.906 193.415 401.023 190.465 402.059 191.058 402.179 190.986"/>
        <polygon class="29fa775c-9a26-4d58-b3c0-40d09f7009eb" points="402.179 189.798 402.179 190.986 402.059 191.058 401.023 190.465 402.179 189.798"/>
        <polygon class="a1d11815-206f-4089-9865-13392905ebcc" points="395.773 158.729 370.8 173.124 352.62 162.649 377.597 148.254 389.596 155.173 394.727 158.121 395.773 158.729"/>
        <polygon class="a6863443-5186-4341-b122-5ad214ec21ac" points="395.193 137.962 395.193 147.296 395.098 147.358 386.998 142.685 395.193 137.962"/>
        <polygon class="a6863443-5186-4341-b122-5ad214ec21ac" points="395.193 193.839 395.193 208.926 395.098 208.984 382.002 201.437 395.193 193.839"/>
        <polygon class="7ae8f91a-db96-4766-b5f1-ff38d973b9f3" points="382.22 76.069 382.22 81.982 380.616 82.903 355.648 97.303 350.516 100.252 342.587 104.83 331.48 111.228 322.324 116.507 297.343 130.906 292.211 133.856 283.236 139.028 270.673 146.275 245.692 160.662 240.571 163.626 231.596 168.795 217.926 176.676 192.945 191.072 187.825 194.023 178.85 199.196 166.055 206.565 141.074 220.963 135.979 223.9 135.723 223.756 135.723 217.843 135.979 217.989 168.743 199.109 350.124 94.584 377.099 79.031 382.22 76.069"/>
        <path class="f8027473-e77e-4d7e-a6b8-067523478f3f" d="M382.408,76.094l-5.12,2.961L350.323,94.6l-.349-.607c8.07-7.464,15.269-15.583,23.206-23.229Z"/>
        <polygon class="39436bff-63eb-4535-9ccd-3e15832b164e" points="380.804 111.714 375.688 114.664 369.305 110.986 364.187 108.037 360.855 106.119 350.715 100.269 355.845 97.32 380.804 111.714"/>
        <polygon class="c317fe2e-f1e1-4e6f-b22a-e4aa6bec1c10" points="373.238 206.35 373.238 211.095 359.341 219.106 348.289 225.479 348.289 220.721 373.238 206.35"/>
        <path class="7ad8b721-fc8b-4c13-a0be-fabe98fe049d" d="M365.8,66.426l7.379,4.246c-7.938,7.646-15.137,15.765-23.206,23.229l.349.607L169,199l-.182-.315c-12.56,2.828-23.5,5.656-36.474,6.068-6.98.328-13.13-.97-19.6-2.125l23.476-13.518.183-.108h.012c10.311-2.258,20.5-5.79,30.372-9.332,19.866-6.883,39.72-14.165,57.957-24.674,32.012-18.617,65.652-35.195,95.646-55.827C335.735,88.852,350.875,77.676,365.8,66.426Z"/>
        <polygon class="39436bff-63eb-4535-9ccd-3e15832b164e" points="370.8 173.124 365.682 176.072 364.623 175.465 359.503 172.516 356.246 170.636 347.87 165.815 347.49 165.598 350.775 163.719 352.62 162.649 370.8 173.124"/>
        <polygon class="7ae8f91a-db96-4766-b5f1-ff38d973b9f3" points="369.305 110.986 341.121 127.236 335.991 124.286 364.187 108.037 369.305 110.986"/>
        <path class="f8027473-e77e-4d7e-a6b8-067523478f3f" d="M357.451,61.7l8.35,4.819c-14.926,11.25-30.066,22.426-45.409,32.742-29.994,20.632-63.634,37.21-95.646,55.827-18.237,10.51-38.091,17.791-57.957,24.674-9.873,3.542-20.06,7.074-30.372,9.332l21.557-12.428,5.13-2.963,24.973-14.381L210.7,146.276l5.131-2.961,24.972-14.393,21.532-12.4,5.119-2.948,24.972-14.391,28.193-16.253,5.121-2.948,24.973-14.393Z"/>
        <polygon class="7ae8f91a-db96-4766-b5f1-ff38d973b9f3" points="364.623 175.465 343.092 187.88 337.971 184.93 359.503 172.516 364.623 175.465"/>
        <polygon class="f8027473-e77e-4d7e-a6b8-067523478f3f" points="364.594 108.037 336.398 124.286 322.939 116.518 332.093 111.241 343.099 117.586 343.196 117.527 361.263 107.125 361.263 106.119 364.594 108.037"/>
        <polygon class="3f699648-adf0-464a-b3ad-a2b89aaab2f8" points="361.263 106.135 361.263 107.136 343.299 117.477 343.299 104.868 351.181 100.318 361.263 106.135"/>
        <polygon class="f8027473-e77e-4d7e-a6b8-067523478f3f" points="359.503 172.516 337.971 184.93 325.96 178.013 339.03 170.476 347.774 175.512 347.87 175.452 356.246 170.636 359.503 172.516"/>
        <polygon class="3f699648-adf0-464a-b3ad-a2b89aaab2f8" points="359.267 219.133 359.267 227.099 341.303 237.429 341.303 224.793 344.072 223.201 348.146 225.543 348.362 225.421 359.267 219.133"/>
        <polygon class="3f699648-adf0-464a-b3ad-a2b89aaab2f8" points="356.666 170.636 348.289 175.452 348.289 165.815 356.666 170.636"/>
        <path class="7ae8f91a-db96-4766-b5f1-ff38d973b9f3" d="M318.257,176.655l30.032-17.306a18.157,18.157,0,0,1,2.5,4.029l.2.342L347.7,165.6l-8.46,4.879-13.07,7.537-24.96,14.393-5.13,2.948-1.69.972-6.772,3.908L273.443,208.4,248.471,222.8l-5.118,2.948-1.715,1-6.747,3.885L221.6,238.281,196.63,252.676l-5.131,2.948-.888.51v-5.911l19.2-11.066,53.484-30.816Z"/>
        <path class="a1d11815-206f-4089-9865-13392905ebcc" d="M324.137,56.967l5.813-3.35,20.765,11.967L325.743,79.977l-20.207-11.65c.023-.22.049-.448.061-.667Z"/>
        <polygon class="39436bff-63eb-4535-9ccd-3e15832b164e" points="348.289 220.684 348.289 225.405 348.073 225.527 343.976 223.172 348.289 220.684"/>
        <path class="7ae8f91a-db96-4766-b5f1-ff38d973b9f3" d="M348.289,217.431v3.253l-4.313,2.488-2.784,1.6-11.125,6.421-4.279,2.463-.294-.5a65.028,65.028,0,0,1,4.573-7.875l17.08-9.842Z"/>
        <path class="7ad8b721-fc8b-4c13-a0be-fabe98fe049d" d="M348.077,159.348l-30.032,17.306c-24.218-5.206-43.281,13.494-55,31.627l.037.06L209.6,239.157l-.656-1.142c5.822-18.133,19.95-34.71,36.4-48.23l20.437-11.772,5.119-2.963,24.972-14.391,3.6-2.077C315.967,152.563,338.311,147.406,348.077,159.348Z"/>
        <polygon class="a6863443-5186-4341-b122-5ad214ec21ac" points="348.289 165.815 348.289 175.452 348.193 175.512 339.449 170.476 347.91 165.598 348.289 165.815"/>
        <polygon class="a1d11815-206f-4089-9865-13392905ebcc" points="344.04 128.922 347.49 130.913 322.532 145.306 297.559 130.913 322.532 116.518 335.991 124.286 341.121 127.236 344.04 128.922"/>
        <polygon class="a1d11815-206f-4089-9865-13392905ebcc" points="344.138 188.487 319.179 202.88 301 192.406 325.96 178.013 337.971 184.93 343.092 187.88 344.138 188.487"/>
        <polygon class="a6863443-5186-4341-b122-5ad214ec21ac" points="342.301 104.845 342.301 117.527 342.205 117.586 331.199 111.241 342.301 104.845"/>
        <polygon class="a6863443-5186-4341-b122-5ad214ec21ac" points="341.303 224.773 341.303 237.48 341.207 237.553 330.179 231.194 341.303 224.773"/>
        <path class="7ae8f91a-db96-4766-b5f1-ff38d973b9f3" d="M333.32,45.958v5.913l-3.036,1.746-5.813,3.35a17.837,17.837,0,0,0-1.385-5.121l5.1-2.938Z"/>
        <path class="f8027473-e77e-4d7e-a6b8-067523478f3f" d="M332.987,45.958l-5.13,2.95-5.1,2.938c-3.453-7.974-12.3-14.43-21.227-16.531l6.489-3.749Z"/>
        <path class="7ae8f91a-db96-4766-b5f1-ff38d973b9f3" d="M293.731,246.108l36.122-20.823a65.028,65.028,0,0,0-4.573,7.875l.294.5-5.509,3.166L295.4,251.048v-2.063Z"/>
        <path class="39436bff-63eb-4535-9ccd-3e15832b164e" d="M325.583,79.977l-5.121,2.948-4.2-2.426-5.13-2.95-3.405-1.966-3.344-1.918v-.014a31.175,31.175,0,0,0,1-5.325Z"/>
        <path class="7ae8f91a-db96-4766-b5f1-ff38d973b9f3" d="M324.137,56.967,305.6,67.659a31.611,31.611,0,0,0-.061-5.886l17.217-9.927A17.837,17.837,0,0,1,324.137,56.967Z"/>
        <path class="7ad8b721-fc8b-4c13-a0be-fabe98fe049d" d="M322.752,51.846l-17.217,9.927c-.715-6.761-3.768-12.987-9.872-15.511a22.852,22.852,0,0,0-10.455-1.555l14.65-8.432,1.667-.96C310.449,37.416,319.3,43.872,322.752,51.846Z"/>
        <polygon class="39436bff-63eb-4535-9ccd-3e15832b164e" points="322.532 145.306 317.401 148.254 311.031 144.576 305.9 141.63 304.077 140.572 295.202 135.464 292.429 133.861 297.559 130.913 322.532 145.306"/>
        <polygon class="c317fe2e-f1e1-4e6f-b22a-e4aa6bec1c10" points="320.346 236.716 320.346 241.455 306.413 249.494 295.397 255.84 295.397 251.103 320.346 236.716"/>
        <polygon class="39436bff-63eb-4535-9ccd-3e15832b164e" points="319.179 202.88 314.047 205.831 312.999 205.225 307.869 202.275 302.544 199.202 295.869 195.354 301 192.406 319.179 202.88"/>
        <path class="f8027473-e77e-4d7e-a6b8-067523478f3f" d="M318.045,176.655l-54.964,31.687-.037-.06C274.764,190.148,293.827,171.448,318.045,176.655Z"/>
        <polygon class="7ae8f91a-db96-4766-b5f1-ff38d973b9f3" points="316.418 80.499 288.222 96.75 283.105 93.802 311.287 77.549 316.418 80.499"/>
        <polygon class="7ae8f91a-db96-4766-b5f1-ff38d973b9f3" points="312.999 205.225 290.361 218.269 285.232 215.32 307.869 202.275 312.999 205.225"/>
        <polygon class="f8027473-e77e-4d7e-a6b8-067523478f3f" points="302.605 78.619 307.882 75.584 311.287 77.549 283.105 93.802 271.663 87.209 281.913 81.3 289.926 85.923 290.023 85.863 302.605 78.619"/>
        <polygon class="7ae8f91a-db96-4766-b5f1-ff38d973b9f3" points="311.031 144.576 289.5 156.993 284.37 154.032 305.9 141.63 311.031 144.576"/>
        <path class="3f699648-adf0-464a-b3ad-a2b89aaab2f8" d="M307.882,75.584l-5.277,3.035a25.777,25.777,0,0,0,1.933-4.953Z"/>
        <polygon class="f8027473-e77e-4d7e-a6b8-067523478f3f" points="307.869 202.275 285.232 215.32 273.232 208.402 287.408 200.235 294.083 204.083 294.18 204.021 302.544 199.202 307.869 202.275"/>
        <polygon class="3f699648-adf0-464a-b3ad-a2b89aaab2f8" points="306.375 249.516 306.375 257.477 288.411 267.801 288.411 255.21 291.213 253.591 295.249 255.921 295.551 255.75 306.375 249.516"/>
        <polygon class="f8027473-e77e-4d7e-a6b8-067523478f3f" points="305.9 141.63 284.37 154.032 270.898 146.276 283.457 139.032 295.102 145.743 295.202 145.681 304.077 140.572 305.9 141.63"/>
        <path class="7ae8f91a-db96-4766-b5f1-ff38d973b9f3" d="M305.535,61.773a31.611,31.611,0,0,1,.061,5.886l-.621.351-5.118,2.95-9.834,5.668L281.913,81.3l-10.249,5.909-23.744,13.68-.475-.825c-10.541,5.266-22.3,8.907-32.827,14.161q-.546.292-1.094.582Z"/>
        <path class="a1d11815-206f-4089-9865-13392905ebcc" d="M304.975,68.01l.621-.351c-.013.22-.038.448-.061.667Z"/>
        <path class="f8027473-e77e-4d7e-a6b8-067523478f3f" d="M305.535,61.773l-92.011,53.034c-11.818,6.276-24.024,12.513-36.6,17.223-14.589,5.656-29.593,11.323-44.583,16.989-4.9,2.1-27.306,7.2-26.31-1.055l1.083-.62,5.117-2.948L137.209,130l22.639-13.046,5.13-2.95,24.961-14.393,21.531-12.4L216.6,84.25l24.972-14.395,28.182-16.238,5.131-2.961,10.323-5.948a22.852,22.852,0,0,1,10.455,1.555C301.767,48.786,304.82,55.012,305.535,61.773Z"/>
        <path class="39436bff-63eb-4535-9ccd-3e15832b164e" d="M304.975,68.01l.56.317a31.175,31.175,0,0,1-1,5.325l-4.681-2.692Z"/>
        <path class="3f699648-adf0-464a-b3ad-a2b89aaab2f8" d="M304.379,73.5v.015a26.585,26.585,0,0,1-1.993,5.108L289.409,86.1V76.573l10.142-5.846Z"/>
        <polygon class="3f699648-adf0-464a-b3ad-a2b89aaab2f8" points="304.272 140.572 295.397 145.681 295.397 135.464 304.272 140.572"/>
        <polygon class="3f699648-adf0-464a-b3ad-a2b89aaab2f8" points="302.764 199.202 294.399 204.021 294.399 196.327 296.089 195.354 302.764 199.202"/>
        <path class="a1d11815-206f-4089-9865-13392905ebcc" d="M297.013,34.637l2.845,1.638-14.65,8.432a36.257,36.257,0,0,0-13.471,4.14L249.414,35.985,274.386,21.59Z"/>
        <path class="a1d11815-206f-4089-9865-13392905ebcc" d="M295.869,160.659,270.9,175.05l-2.565-1.477c5.64-3.41,11.234-6.421,16.6-8.982,2.649-1.215,6.165-2.769,10.2-4.358Z"/>
        <polygon class="39436bff-63eb-4535-9ccd-3e15832b164e" points="295.397 251.048 295.397 255.732 295.093 255.904 291.032 253.559 295.397 251.048"/>
        <polygon class="7ae8f91a-db96-4766-b5f1-ff38d973b9f3" points="296.395 248.852 296.395 250.934 291.99 253.468 289.145 255.112 277.954 261.564 270.042 266.12 244.841 280.646 243.798 281.246 243.503 281.075 243.503 275.122 243.798 275.294 294.714 245.948 296.395 248.852"/>
        <polygon class="a6863443-5186-4341-b122-5ad214ec21ac" points="295.397 135.464 295.397 145.681 295.298 145.743 283.653 139.032 292.624 133.861 295.397 135.464"/>
        <path class="a1d11815-206f-4089-9865-13392905ebcc" d="M289.5,156.993l5.629,3.241c-4.036,1.588-7.552,3.143-10.2,4.358-5.362,2.561-10.955,5.571-16.6,8.982l-22.407-12.914L270.9,146.276l13.472,7.756Z"/>
        <polygon class="a6863443-5186-4341-b122-5ad214ec21ac" points="294.399 196.327 294.399 204.021 294.303 204.083 287.627 200.235 294.399 196.327"/>
        <polygon class="a1d11815-206f-4089-9865-13392905ebcc" points="292.429 99.178 267.457 113.569 246.692 101.592 247.919 100.889 271.663 87.209 283.105 93.802 288.222 96.75 292.429 99.178"/>
        <polygon class="a1d11815-206f-4089-9865-13392905ebcc" points="291.408 218.876 266.435 233.268 248.259 222.797 273.232 208.402 285.232 215.32 290.361 218.269 291.408 218.876"/>
        <polygon class="a6863443-5186-4341-b122-5ad214ec21ac" points="290.407 76.628 290.407 85.863 290.31 85.923 282.297 81.3 290.407 76.628"/>
        <polygon class="a6863443-5186-4341-b122-5ad214ec21ac" points="288.411 255.188 288.411 267.859 288.314 267.917 277.322 261.583 288.411 255.188"/>
        <path class="a1d11815-206f-4089-9865-13392905ebcc" d="M285.208,44.708l-10.323,5.948-3.148-1.808A36.257,36.257,0,0,1,285.208,44.708Z"/>
        <polygon class="7ae8f91a-db96-4766-b5f1-ff38d973b9f3" points="231.338 40.298 271.3 17.259 276.436 14.309 276.436 20.225 274.184 21.512 249.182 35.924 244.058 38.877 236.365 43.31 224.571 50.102 215.831 55.145 190.83 69.555 185.705 72.507 176.297 77.929 164.149 84.938 139.148 99.348 134.011 102.3 124.614 107.718 111.359 115.361 86.357 129.773 81.22 132.726 71.824 138.144 59.446 145.275 34.443 159.686 29.975 162.261 29.939 162.238 29.939 156.32 29.975 156.345 51.715 143.816 99.259 116.419 231.338 40.298"/>
        <path class="f8027473-e77e-4d7e-a6b8-067523478f3f" d="M276.636,14.395l-5.13,2.947L231.591,40.353c10.492-10.014,21.847-22.015,29.386-34.977Z"/>
        <path class="39436bff-63eb-4535-9ccd-3e15832b164e" d="M274.885,50.656l-5.131,2.961-3.135-1.808c1.653-1.068,3.366-2.063,5.118-2.961Z"/>
        <path class="39436bff-63eb-4535-9ccd-3e15832b164e" d="M249.414,35.985l22.323,12.863c-1.752.9-3.465,1.893-5.118,2.961L262.958,49.7l-5.13-2.948-3.149-1.822L244.3,38.935Z"/>
        <polygon class="c317fe2e-f1e1-4e6f-b22a-e4aa6bec1c10" points="271.446 267.219 271.446 273.108 260.355 279.517 246.532 287.474 246.497 287.45 246.497 281.576 246.532 281.589 266.337 270.164 271.446 267.219"/>
        <polygon class="a1d11815-206f-4089-9865-13392905ebcc" points="271.493 267.2 266.374 270.15 246.532 281.597 246.497 281.584 246.497 281.57 244.624 280.492 269.597 266.097 271.493 267.2"/>
        <path class="39436bff-63eb-4535-9ccd-3e15832b164e" d="M270.9,175.05l-5.119,2.963-2.371-1.358c1.641-1.07,3.283-2.088,4.925-3.081Z"/>
        <path class="39436bff-63eb-4535-9ccd-3e15832b164e" d="M245.925,160.659l22.407,12.914c-1.642.994-3.284,2.012-4.925,3.081l-4.012-2.32-5.119-2.961-3.89-2.233-8.875-5.121-.705-.4Z"/>
        <polygon class="39436bff-63eb-4535-9ccd-3e15832b164e" points="267.457 113.569 262.338 116.518 258.131 114.092 253.001 111.142 250.229 109.541 242.448 105.052 241.572 104.554 246.692 101.592 267.457 113.569"/>
        <polygon class="39436bff-63eb-4535-9ccd-3e15832b164e" points="266.435 233.268 261.317 236.218 260.259 235.61 255.14 232.662 249.791 229.579 243.141 225.745 248.259 222.797 266.435 233.268"/>
        <polygon class="7ae8f91a-db96-4766-b5f1-ff38d973b9f3" points="262.958 49.698 234.764 65.936 229.645 62.986 257.828 46.749 262.958 49.698"/>
        <path class="7ad8b721-fc8b-4c13-a0be-fabe98fe049d" d="M251.663,0l9.314,5.376c-7.539,12.962-18.894,24.963-29.386,34.977L99.665,116.387l-.547-.947c-18.139,0-40.875,9.187-46.941,28.312L30.462,156.265l-.037-.025-7.513-4.331C42.341,118.545,87.131,107.3,120.188,92.78a368.121,368.121,0,0,0,55.525-29.927c14.589-9.307,31.611-18.617,43.355-31.967A53.035,53.035,0,0,0,229.574,12.73L244.3,4.248Z"/>
        <polygon class="3f699648-adf0-464a-b3ad-a2b89aaab2f8" points="260.468 279.576 260.468 288.178 242.505 298.506 242.505 285.09 246.664 287.478 246.699 287.502 260.468 279.576"/>
        <polygon class="7ae8f91a-db96-4766-b5f1-ff38d973b9f3" points="260.259 235.61 238.507 248.148 233.39 245.199 255.14 232.662 260.259 235.61"/>
        <polygon class="7ae8f91a-db96-4766-b5f1-ff38d973b9f3" points="259.396 174.335 236.758 187.382 231.64 184.421 254.277 171.374 259.396 174.335"/>
        <polygon class="7ae8f91a-db96-4766-b5f1-ff38d973b9f3" points="258.131 114.092 236.599 126.507 231.469 123.546 253.001 111.142 258.131 114.092"/>
        <polygon class="f8027473-e77e-4d7e-a6b8-067523478f3f" points="257.629 46.749 229.447 62.986 215.902 55.184 224.632 50.146 236.317 56.882 236.413 56.822 254.481 46.42 254.481 44.927 257.629 46.749"/>
        <polygon class="f8027473-e77e-4d7e-a6b8-067523478f3f" points="255.14 232.662 233.39 245.199 221.39 238.281 234.679 230.625 241.33 234.445 241.426 234.387 249.791 229.579 255.14 232.662"/>
        <polygon class="3f699648-adf0-464a-b3ad-a2b89aaab2f8" points="254.481 44.944 254.481 46.428 236.517 56.77 236.517 43.388 244.157 38.986 254.481 44.944"/>
        <polygon class="f8027473-e77e-4d7e-a6b8-067523478f3f" points="254.277 171.374 231.64 184.421 218.169 176.667 231.835 168.789 241.414 174.312 241.512 174.252 250.387 169.141 254.277 171.374"/>
        <polygon class="f8027473-e77e-4d7e-a6b8-067523478f3f" points="253.001 111.142 231.469 123.546 220.041 116.957 233.694 109.093 242.338 114.081 242.448 114.019 250.229 109.541 253.001 111.142"/>
        <polygon class="3f699648-adf0-464a-b3ad-a2b89aaab2f8" points="250.383 169.141 241.507 174.252 241.507 164.02 250.383 169.141"/>
        <polygon class="3f699648-adf0-464a-b3ad-a2b89aaab2f8" points="250.286 109.541 242.505 114.019 242.505 105.052 250.286 109.541"/>
        <polygon class="3f699648-adf0-464a-b3ad-a2b89aaab2f8" points="249.872 229.579 241.507 234.387 241.507 226.74 243.222 225.745 249.872 229.579"/>
        <path class="7ae8f91a-db96-4766-b5f1-ff38d973b9f3" d="M247.445,100.063l.475.825-1.228.7-5.12,2.962-7.878,4.539-13.653,7.864L195.069,131.35l-5.13,2.948-1.192.692-6.686,3.859-14.748,8.495L153.5,155.306l-1.3-2.244c-6.675,2.439-12.972,5.374-19.379,8.25l80.7-46.505q.547-.289,1.094-.582C225.147,108.971,236.9,105.33,247.445,100.063Z"/>
        <polygon class="39436bff-63eb-4535-9ccd-3e15832b164e" points="246.497 281.611 246.497 287.508 242.304 285.102 224.331 274.749 208.269 265.481 203.127 262.524 200.349 260.917 191.1 255.591 196.243 252.636 218.554 265.493 218.554 266.684 243.291 280.941 243.584 281.112 244.62 280.515 246.497 281.596 246.497 281.611"/>
        <path class="f8027473-e77e-4d7e-a6b8-067523478f3f" d="M243.141,191.048l2.2-1.263c-16.45,13.52-30.578,30.1-36.4,48.23l.656,1.142-19.2,11.066-.011.012-9.4-5.412a62.456,62.456,0,0,1,6.6-21.762l3.7-2.123L213.05,208.4l5.119-2.961Z"/>
        <path class="a1d11815-206f-4089-9865-13392905ebcc" d="M244.3,4.248,229.574,12.73a39.86,39.86,0,0,0,1.544-6.092l8.668-4.988Z"/>
        <polygon class="85dbd37f-dca4-41d0-b83d-72c773135e00" points="243.503 275.063 243.503 281.026 218.554 266.646 218.554 265.445 218.554 260.684 223.741 263.666 243.503 275.063"/>
        <polygon class="a1d11815-206f-4089-9865-13392905ebcc" points="243.141 191.048 218.169 205.441 193.196 191.058 218.169 176.667 231.64 184.421 236.758 187.382 243.141 191.048"/>
        <polygon class="a6863443-5186-4341-b122-5ad214ec21ac" points="242.505 105.052 242.505 114.019 242.395 114.081 233.751 109.093 241.629 104.554 242.505 105.052"/>
        <polygon class="a6863443-5186-4341-b122-5ad214ec21ac" points="242.505 285.065 242.505 298.582 242.408 298.644 224.542 288.346 224.542 282.89 224.542 274.718 242.505 285.065"/>
        <polygon class="a1d11815-206f-4089-9865-13392905ebcc" points="241.572 69.855 216.6 84.25 191.13 69.577 216.101 55.184 229.645 62.986 234.764 65.936 241.572 69.855"/>
        <polygon class="a6863443-5186-4341-b122-5ad214ec21ac" points="241.507 164.02 241.507 174.252 241.41 174.312 231.83 168.789 240.802 163.621 241.507 164.02"/>
        <polygon class="a6863443-5186-4341-b122-5ad214ec21ac" points="241.507 226.74 241.507 234.387 241.41 234.445 234.76 230.625 241.507 226.74"/>
        <polygon class="85dbd37f-dca4-41d0-b83d-72c773135e00" points="241.507 301.99 241.507 307.898 216.558 293.52 216.558 287.613 221.697 290.566 241.507 301.99"/>
        <polygon class="a1d11815-206f-4089-9865-13392905ebcc" points="240.806 128.922 215.834 143.315 195.069 131.35 220.041 116.957 231.469 123.546 236.599 126.507 240.806 128.922"/>
        <polygon class="a1d11815-206f-4089-9865-13392905ebcc" points="233.91 251.948 218.554 260.793 218.554 265.503 196.294 252.676 221.266 238.281 233.266 245.199 238.383 248.148 239.442 248.755 233.91 251.948"/>
        <polygon class="a6863443-5186-4341-b122-5ad214ec21ac" points="236.517 43.362 236.517 56.822 236.42 56.882 224.736 50.146 236.517 43.362"/>
        <path class="a1d11815-206f-4089-9865-13392905ebcc" d="M214.813,16.043l16.3-9.4a39.86,39.86,0,0,1-1.544,6.092l-10.251,5.911Z"/>
        <path class="f8027473-e77e-4d7e-a6b8-067523478f3f" d="M219.323,18.641l10.251-5.911a53.035,53.035,0,0,1-10.506,18.156c-11.745,13.35-28.766,22.659-43.355,31.967A368.121,368.121,0,0,1,120.188,92.78C87.131,107.3,42.341,118.545,22.913,151.909L16.1,147.989l.341-.593c2.408-6.991,6.407-12.83,11.051-18.206l2.3-1.323,21.762-12.537,5.131-2.961L81.647,97.988l22.639-13.046,5.131-2.963L134.377,67.6l1.263-.728c19.879,3.182,40.34-12.061,50.881-29.319l28.292-16.313Z"/>
        <polygon class="39436bff-63eb-4535-9ccd-3e15832b164e" points="219.072 18.641 214.562 21.237 214.562 16.043 219.072 18.641"/>
        <polygon class="39436bff-63eb-4535-9ccd-3e15832b164e" points="218.169 205.441 213.05 208.402 206.667 204.725 201.549 201.763 197.621 199.519 188.746 194.396 188.077 194.009 193.196 191.058 218.169 205.441"/>
        <polygon class="39436bff-63eb-4535-9ccd-3e15832b164e" points="216.6 84.25 211.469 87.209 204.674 83.29 199.554 80.329 198.328 79.625 189.026 74.263 186.011 72.525 191.13 69.577 216.6 84.25"/>
        <polygon class="39436bff-63eb-4535-9ccd-3e15832b164e" points="215.834 143.315 210.703 146.276 206.509 143.85 201.379 140.9 196.539 138.097 189.938 134.299 195.069 131.35 215.834 143.315"/>
        <path class="7ad8b721-fc8b-4c13-a0be-fabe98fe049d" d="M213.524,114.807l-80.7,46.505c-5.264,2.38-10.614,4.71-16.279,6.715-7.3,2.424-13.374,8.091-21.071,9.306-18.614,2.123-11.051-10.17-4.777-20.522l15.342-8.847c-1,8.252,21.411,3.156,26.31,1.055,14.99-5.667,29.994-11.333,44.583-16.989C189.5,127.32,201.706,121.083,213.524,114.807Z"/>
        <polygon class="7ae8f91a-db96-4766-b5f1-ff38d973b9f3" points="208.163 265.491 187.714 277.288 187.617 277.226 187.617 271.315 187.714 271.377 203.032 262.541 208.163 265.491"/>
        <polygon class="7ae8f91a-db96-4766-b5f1-ff38d973b9f3" points="206.667 204.725 202.084 207.371 184.917 217.261 179.786 214.311 201.549 201.763 206.667 204.725"/>
        <polygon class="7ae8f91a-db96-4766-b5f1-ff38d973b9f3" points="206.509 143.85 183.87 156.896 178.741 153.935 201.379 140.9 206.509 143.85"/>
        <polygon class="7ae8f91a-db96-4766-b5f1-ff38d973b9f3" points="204.674 83.29 183.141 95.695 178.023 92.745 199.554 80.329 204.674 83.29"/>
        <polygon class="f8027473-e77e-4d7e-a6b8-067523478f3f" points="202.906 262.541 187.588 271.377 187.491 271.315 167.746 259.932 162.616 256.982 170.652 252.359 170.652 257.372 188.475 267.65 188.573 267.589 200.135 260.938 202.906 262.541"/>
        <polygon class="f8027473-e77e-4d7e-a6b8-067523478f3f" points="201.549 201.763 179.786 214.311 166.315 206.546 179.105 199.179 188.649 204.676 188.746 204.618 197.621 199.519 201.549 201.763"/>
        <polygon class="f8027473-e77e-4d7e-a6b8-067523478f3f" points="201.379 140.9 178.741 153.935 167.312 147.344 182.06 138.849 188.649 142.648 188.746 142.575 196.539 138.097 201.379 140.9"/>
        <polygon class="3f699648-adf0-464a-b3ad-a2b89aaab2f8" points="200.178 260.938 188.615 267.589 188.615 255.319 190.05 256.145 190.062 256.134 190.95 255.624 200.178 260.938"/>
        <polygon class="f8027473-e77e-4d7e-a6b8-067523478f3f" points="199.554 80.329 178.023 92.745 164.48 84.942 176.613 77.941 188.929 85.038 189.026 84.978 198.328 79.625 199.554 80.329"/>
        <polygon class="3f699648-adf0-464a-b3ad-a2b89aaab2f8" points="197.916 79.625 188.615 84.978 188.615 74.263 197.916 79.625"/>
        <polygon class="3f699648-adf0-464a-b3ad-a2b89aaab2f8" points="197.49 199.519 188.615 204.618 188.615 194.396 197.49 199.519"/>
        <polygon class="3f699648-adf0-464a-b3ad-a2b89aaab2f8" points="196.408 138.097 188.615 142.575 188.615 134.991 189.807 134.299 196.408 138.097"/>
        <path class="a1d11815-206f-4089-9865-13392905ebcc" d="M191.287,220.939l-3.7,2.123c.584-1.078,1.215-2.136,1.885-3.168Z"/>
        <path class="85dbd37f-dca4-41d0-b83d-72c773135e00" d="M190.611,250.223v5.911l-.011.011-1.435-.825-8.474-4.887q.165-2.789.511-5.608l9.4,5.412Z"/>
        <polygon class="a1d11815-206f-4089-9865-13392905ebcc" points="189.938 99.613 164.977 114.007 139.507 99.336 164.48 84.942 178.023 92.745 183.141 95.695 189.938 99.613"/>
        <path class="a1d11815-206f-4089-9865-13392905ebcc" d="M184.917,217.261l4.559,2.633c-.67,1.032-1.3,2.089-1.885,3.168l-21.276,12.27-24.972-14.393,24.972-14.393,13.471,7.765Z"/>
        <polygon class="a6863443-5186-4341-b122-5ad214ec21ac" points="188.615 74.263 188.615 84.978 188.518 85.038 176.202 77.941 185.599 72.525 188.615 74.263"/>
        <polygon class="a6863443-5186-4341-b122-5ad214ec21ac" points="180.121 250.418 188.615 255.317 188.615 267.616 188.517 267.677 170.652 257.374 170.652 252.349 170.652 244.955 180.121 250.418"/>
        <polygon class="a6863443-5186-4341-b122-5ad214ec21ac" points="188.615 194.396 188.615 204.618 188.518 204.676 178.974 199.179 187.946 194.009 188.615 194.396"/>
        <polygon class="a6863443-5186-4341-b122-5ad214ec21ac" points="188.615 134.991 188.615 142.575 188.518 142.648 181.929 138.849 188.615 134.991"/>
        <polygon class="a1d11815-206f-4089-9865-13392905ebcc" points="188.077 159.324 163.105 173.704 142.34 161.739 153.501 155.306 167.312 147.344 178.741 153.935 183.87 156.896 188.077 159.324"/>
        <polygon class="85dbd37f-dca4-41d0-b83d-72c773135e00" points="187.617 271.328 187.617 277.256 162.668 262.881 162.668 256.952 167.814 259.911 187.617 271.328"/>
        <path class="7ad8b721-fc8b-4c13-a0be-fabe98fe049d" d="M166.315,235.332l21.276-12.27a62.456,62.456,0,0,0-6.6,21.762L170.546,238.8l-5.118-2.961Z"/>
        <path class="7ad8b721-fc8b-4c13-a0be-fabe98fe049d" d="M186.011,37.839l.511-.289c-10.541,17.258-31,32.5-50.881,29.319l20.268-11.686,5.13-2.95Z"/>
        <polygon class="a1d11815-206f-4089-9865-13392905ebcc" points="186.011 37.839 161.038 52.234 160.881 52.136 155.761 49.188 180.722 34.795 186.011 37.839"/>
        <path class="85dbd37f-dca4-41d0-b83d-72c773135e00" d="M170.78,238.8l10.443,6.019q-.346,2.821-.511,5.608l-9.446-5.451-5.6-3.228v-5.909Z"/>
        <path class="f8027473-e77e-4d7e-a6b8-067523478f3f" d="M168.82,198.777l.182.315-32.753,18.873-.255-.145-19.587-11.287-5.13-2.961,1.471-.852c6.468,1.155,12.618,2.453,19.6,2.125C145.318,204.433,156.26,201.605,168.82,198.777Z"/>
        <polygon class="39436bff-63eb-4535-9ccd-3e15832b164e" points="166.534 235.257 165.662 235.76 165.662 240.555 155.225 234.541 150.193 231.64 147.766 230.246 136.721 223.875 136.721 223.851 136.972 223.992 141.981 221.105 166.534 235.257"/>
        <polygon class="39436bff-63eb-4535-9ccd-3e15832b164e" points="164.977 114.007 159.848 116.957 153.05 113.036 147.92 110.088 144.638 108.193 135.337 102.831 134.377 102.284 139.507 99.336 164.977 114.007"/>
        <polygon class="39436bff-63eb-4535-9ccd-3e15832b164e" points="163.105 173.704 157.975 176.667 153.768 174.238 148.65 171.289 143.774 168.473 137.209 164.689 142.34 161.739 163.105 173.704"/>
        <polygon class="39436bff-63eb-4535-9ccd-3e15832b164e" points="160.959 52.234 155.829 55.184 155.682 55.097 155.682 49.188 160.802 52.136 160.959 52.234"/>
        <polygon class="7ae8f91a-db96-4766-b5f1-ff38d973b9f3" points="154.627 234.605 134.725 246.086 134.725 240.174 149.509 231.654 154.627 234.605"/>
        <polygon class="7ae8f91a-db96-4766-b5f1-ff38d973b9f3" points="153.768 174.238 132.017 186.777 126.899 183.826 148.65 171.289 153.768 174.238"/>
        <path class="7ae8f91a-db96-4766-b5f1-ff38d973b9f3" d="M152.171,153.062l1.3,2.244-11.161,6.433-5.131,2.95-1.216.716-6.662,3.834-13.873,8L90.458,191.618l-3.635,2.1v-5.911l45.969-26.5C139.2,158.436,145.5,155.5,152.171,153.062Z"/>
        <polygon class="7ae8f91a-db96-4766-b5f1-ff38d973b9f3" points="153.05 113.036 130.412 126.082 125.282 123.132 147.92 110.088 153.05 113.036"/>
        <polygon class="f8027473-e77e-4d7e-a6b8-067523478f3f" points="149.297 231.654 134.513 240.174 134.318 240.283 114.476 228.853 109.346 225.89 116.762 221.621 116.762 227.006 134.585 237.275 134.683 237.213 146.828 230.236 149.297 231.654"/>
        <polygon class="f8027473-e77e-4d7e-a6b8-067523478f3f" points="148.65 171.289 126.899 183.826 115.458 177.237 129.331 169.238 135.895 173.014 135.993 172.952 143.774 168.473 148.65 171.289"/>
        <polygon class="f8027473-e77e-4d7e-a6b8-067523478f3f" points="147.92 110.088 125.282 123.132 111.751 115.329 124.991 107.696 135.239 113.608 135.337 113.546 144.638 108.193 147.92 110.088"/>
        <polygon class="3f699648-adf0-464a-b3ad-a2b89aaab2f8" points="146.871 230.236 134.725 237.213 134.725 223.232 135.637 223.757 146.871 230.236"/>
        <polygon class="3f699648-adf0-464a-b3ad-a2b89aaab2f8" points="145.024 108.193 135.723 113.546 135.723 102.831 145.024 108.193"/>
        <polygon class="3f699648-adf0-464a-b3ad-a2b89aaab2f8" points="143.504 168.473 135.723 172.952 135.723 165.405 136.939 164.689 143.504 168.473"/>
        <polygon class="a1d11815-206f-4089-9865-13392905ebcc" points="137.209 130.002 112.236 144.396 86.778 129.724 111.751 115.329 125.282 123.132 130.412 126.082 137.209 130.002"/>
        <path class="a1d11815-206f-4089-9865-13392905ebcc" d="M136.139,189.155l.084.048-23.476,13.518c-1.386-.241-2.785-.485-4.218-.7l-18.043-10.4,24.973-14.381,11.441,6.589,5.118,2.95Z"/>
        <polygon class="39436bff-63eb-4535-9ccd-3e15832b164e" points="108.08 201.934 110.774 203.492 110.774 209.415 135.723 223.799 135.723 223.687 134.816 223.165 116.983 212.889 101.824 204.145 96.719 201.209 95.206 200.341 86.823 195.511 86.823 193.794 90.387 191.734 108.08 201.934"/>
        <polygon class="85dbd37f-dca4-41d0-b83d-72c773135e00" points="135.723 217.86 135.723 223.826 110.774 209.443 110.774 203.514 110.774 203.478 115.952 206.467 135.723 217.86"/>
        <polygon class="a6863443-5186-4341-b122-5ad214ec21ac" points="135.723 165.405 135.723 172.952 135.625 173.014 129.061 169.238 135.723 165.405"/>
        <polygon class="a6863443-5186-4341-b122-5ad214ec21ac" points="135.723 102.831 135.723 113.546 135.625 113.608 125.377 107.696 134.763 102.284 135.723 102.831"/>
        <polygon class="a6863443-5186-4341-b122-5ad214ec21ac" points="134.725 223.228 134.725 237.242 134.627 237.304 116.762 227.01 116.762 221.613 116.762 212.876 134.725 223.228"/>
        <polygon class="85dbd37f-dca4-41d0-b83d-72c773135e00" points="134.725 240.138 134.725 245.999 134.532 246.106 109.776 231.838 109.776 225.978 114.862 228.915 134.532 240.247 134.725 240.138"/>
        <polygon class="a1d11815-206f-4089-9865-13392905ebcc" points="131.459 65.91 134.377 67.597 109.417 81.98 107.191 80.705 102.06 77.756 127.033 63.365 131.459 65.91"/>
        <path class="f8027473-e77e-4d7e-a6b8-067523478f3f" d="M132.82,161.312l-45.969,26.5-.037.025L66.972,176.387l-5.118-2.948,23.5-13.557,5.338-3.071c-6.274,10.352-13.836,22.645,4.777,20.522,7.7-1.215,13.775-6.881,21.071-9.306C122.207,166.023,127.556,163.692,132.82,161.312Z"/>
        <path class="a1d11815-206f-4089-9865-13392905ebcc" d="M113.243,202.721l-1.471.852v.035l-2.747-1.588C110.458,202.236,111.857,202.48,113.243,202.721Z"/>
        <polygon class="39436bff-63eb-4535-9ccd-3e15832b164e" points="106.28 146.859 100.309 143.424 95.19 140.475 91.872 138.557 82.572 133.206 81.647 132.675 86.778 129.724 112.236 144.396 107.119 147.344 106.28 146.859"/>
        <polygon class="39436bff-63eb-4535-9ccd-3e15832b164e" points="109.149 81.98 104.018 84.942 101.792 83.653 101.792 77.756 106.924 80.705 109.149 81.98"/>
        <polygon class="7ae8f91a-db96-4766-b5f1-ff38d973b9f3" points="102.075 204.118 81.833 215.781 81.833 209.87 96.945 201.168 102.075 204.118"/>
        <polygon class="7ae8f91a-db96-4766-b5f1-ff38d973b9f3" points="100.309 143.424 78.558 155.975 73.44 153.013 95.19 140.475 100.309 143.424"/>
        <path class="f8027473-e77e-4d7e-a6b8-067523478f3f" d="M99.118,115.439l.547.947L52.177,143.751C58.243,124.626,80.979,115.439,99.118,115.439Z"/>
        <polygon class="f8027473-e77e-4d7e-a6b8-067523478f3f" points="96.384 201.168 81.272 209.87 81.21 209.907 61.37 198.475 56.239 195.526 66.864 189.397 66.864 195.609 84.699 206.484 84.798 206.411 94.863 200.295 96.384 201.168"/>
        <polygon class="3f699648-adf0-464a-b3ad-a2b89aaab2f8" points="94.893 200.295 84.827 206.411 84.827 194.494 86.468 195.441 94.893 200.295"/>
        <polygon class="f8027473-e77e-4d7e-a6b8-067523478f3f" points="95.19 140.475 73.44 153.013 59.898 145.209 72.262 138.086 82.474 143.971 82.572 143.911 91.872 138.557 95.19 140.475"/>
        <polygon class="3f699648-adf0-464a-b3ad-a2b89aaab2f8" points="92.131 138.557 82.831 143.911 82.831 133.206 92.131 138.557"/>
        <polygon class="39436bff-63eb-4535-9ccd-3e15832b164e" points="86.823 193.705 86.823 195.286 85.197 194.347 67.435 184.106 48.806 173.373 43.726 170.44 42.004 169.453 32.286 163.851 30.937 163.072 30.937 162.233 30.973 162.256 35.365 159.725 61.874 175.003 61.874 179.362 86.786 193.728 86.823 193.705"/>
        <polygon class="85dbd37f-dca4-41d0-b83d-72c773135e00" points="86.823 187.799 86.823 193.699 86.786 193.722 61.874 179.356 61.874 175.141 61.874 173.458 66.982 176.401 86.786 187.824 86.823 187.799"/>
        <polygon class="a1d11815-206f-4089-9865-13392905ebcc" points="85.375 159.882 61.874 173.439 61.874 175.125 34.944 159.603 59.917 145.209 73.46 153.013 78.578 155.975 85.375 159.882"/>
        <polygon class="a6863443-5186-4341-b122-5ad214ec21ac" points="84.827 194.493 84.827 206.429 84.728 206.502 66.864 195.61 66.864 189.388 66.864 184.136 84.827 194.493"/>
        <polygon class="a6863443-5186-4341-b122-5ad214ec21ac" points="82.831 133.206 82.831 143.911 82.732 143.971 72.52 138.086 81.906 132.675 82.831 133.206"/>
        <polygon class="85dbd37f-dca4-41d0-b83d-72c773135e00" points="81.833 209.856 81.833 215.747 81.771 215.784 56.884 201.437 56.884 195.56 61.997 198.499 81.771 209.893 81.833 209.856"/>
        <polygon class="a1d11815-206f-4089-9865-13392905ebcc" points="81.647 97.988 56.688 112.369 54.437 111.083 49.307 108.12 74.28 93.74 81.647 97.988"/>
        <polygon class="39436bff-63eb-4535-9ccd-3e15832b164e" points="56.281 112.369 51.15 115.329 48.9 114.032 48.9 108.12 54.031 111.083 56.281 112.369"/>
        <polygon class="7ae8f91a-db96-4766-b5f1-ff38d973b9f3" points="48.416 173.317 27.992 185.089 27.943 185.064 27.943 179.155 27.992 179.178 43.286 170.356 48.416 173.317"/>
        <polygon class="f8027473-e77e-4d7e-a6b8-067523478f3f" points="43.442 170.356 28.147 179.178 28.099 179.155 8.305 167.746 3.175 164.787 13.971 158.571 13.971 164.787 31.795 175.064 31.892 175.004 41.703 169.359 43.442 170.356"/>
        <polygon class="3f699648-adf0-464a-b3ad-a2b89aaab2f8" points="41.746 169.359 31.935 175.004 31.935 163.703 41.746 169.359"/>
        <polygon class="a6863443-5186-4341-b122-5ad214ec21ac" points="20.333 157.013 30.569 162.914 31.935 163.702 31.935 175.03 31.837 175.09 13.971 164.788 13.971 158.558 13.971 153.352 20.333 157.013"/>
        <path class="39436bff-63eb-4535-9ccd-3e15832b164e" d="M29.939,162.152v.765L19.727,157.03c.1-.207.182-.4.292-.595Z"/>
        <path class="85dbd37f-dca4-41d0-b83d-72c773135e00" d="M29.939,156.241v5.911l-9.92-5.716c.741-1.555,1.543-3.072,2.407-4.526Z"/>
        <path class="a1d11815-206f-4089-9865-13392905ebcc" d="M29.794,127.867l-2.3,1.323c.512-.595,1.022-1.176,1.544-1.76Z"/>
        <path class="a1d11815-206f-4089-9865-13392905ebcc" d="M25.89,125.331l3.647,2.1c-.522.584-1.033,1.165-1.544,1.76l-22,12.681v.767l-5.07-2.915Z"/>
        <polygon class="85dbd37f-dca4-41d0-b83d-72c773135e00" points="27.943 179.159 27.943 185.075 2.994 170.691 2.994 164.776 8.13 167.738 27.943 179.159"/>
        <path class="7ad8b721-fc8b-4c13-a0be-fabe98fe049d" d="M5.49,141.871l22-12.681c-4.644,5.376-8.643,11.215-11.051,18.206l-.341.593-5.483-3.17Z"/>
        <path class="85dbd37f-dca4-41d0-b83d-72c773135e00" d="M16.6,147.989l6.809,3.921c-.864,1.454-1.667,2.971-2.407,4.526L5.988,147.781v-5.911l5.13,2.948Z"/>
        <path class="39436bff-63eb-4535-9ccd-3e15832b164e" d="M4.99,147.791l14.777,8.517c-.108.192-.191.382-.287.586l-6.246-3.6L0,145.666v-5.807l4.99,2.869Z"/>
      </g>
    </g>
    <g>
      <ellipse class="ff1e988f-22ee-44e7-a885-c0d4fe40d038" cx="234.679" cy="259.699" rx="3.326" ry="1.838"/>
      <ellipse class="9015baf1-e8ae-473c-a9dd-7fdbed96d8b5" cx="234.852" cy="259.91" rx="2.944" ry="1.626"/>
      <ellipse class="29b3b452-2de3-4186-a7ec-cf1684bc93b4" cx="234.853" cy="259.812" rx="2.564" ry="1.418"/>
    </g>
    <g>
      <ellipse class="ff1e988f-22ee-44e7-a885-c0d4fe40d038" cx="244.685" cy="265.503" rx="3.326" ry="1.837"/>
      <ellipse class="9015baf1-e8ae-473c-a9dd-7fdbed96d8b5" cx="244.858" cy="265.714" rx="2.944" ry="1.626"/>
      <ellipse class="29b3b452-2de3-4186-a7ec-cf1684bc93b4" cx="244.858" cy="265.615" rx="2.564" ry="1.418"/>
    </g>
    <g>
      <ellipse class="ff1e988f-22ee-44e7-a885-c0d4fe40d038" cx="284.325" cy="229.183" rx="3.327" ry="1.837"/>
      <ellipse class="9015baf1-e8ae-473c-a9dd-7fdbed96d8b5" cx="284.497" cy="229.394" rx="2.944" ry="1.626"/>
      <ellipse class="29b3b452-2de3-4186-a7ec-cf1684bc93b4" cx="284.498" cy="229.296" rx="2.564" ry="1.417"/>
    </g>
    <g>
      <ellipse class="ff1e988f-22ee-44e7-a885-c0d4fe40d038" cx="294.332" cy="234.987" rx="3.326" ry="1.837"/>
      <ellipse class="9015baf1-e8ae-473c-a9dd-7fdbed96d8b5" cx="294.504" cy="235.199" rx="2.944" ry="1.626"/>
      <ellipse class="29b3b452-2de3-4186-a7ec-cf1684bc93b4" cx="294.504" cy="235.1" rx="2.564" ry="1.417"/>
    </g>
    <g>
      <ellipse class="ff1e988f-22ee-44e7-a885-c0d4fe40d038" cx="341.292" cy="197.446" rx="3.326" ry="1.839"/>
      <ellipse class="9015baf1-e8ae-473c-a9dd-7fdbed96d8b5" cx="341.465" cy="197.657" rx="2.944" ry="1.627"/>
      <ellipse class="29b3b452-2de3-4186-a7ec-cf1684bc93b4" cx="341.464" cy="197.56" rx="2.564" ry="1.418"/>
    </g>
    <g>
      <ellipse class="ff1e988f-22ee-44e7-a885-c0d4fe40d038" cx="351.298" cy="203.25" rx="3.326" ry="1.838"/>
      <ellipse class="9015baf1-e8ae-473c-a9dd-7fdbed96d8b5" cx="351.47" cy="203.461" rx="2.945" ry="1.627"/>
      <ellipse class="29b3b452-2de3-4186-a7ec-cf1684bc93b4" cx="351.47" cy="203.363" rx="2.565" ry="1.418"/>
    </g>
    <g>
      <ellipse class="ff1e988f-22ee-44e7-a885-c0d4fe40d038" cx="392.68" cy="168.472" rx="3.326" ry="1.839"/>
      <ellipse class="9015baf1-e8ae-473c-a9dd-7fdbed96d8b5" cx="392.856" cy="168.684" rx="2.947" ry="1.628"/>
      <ellipse class="29b3b452-2de3-4186-a7ec-cf1684bc93b4" cx="392.856" cy="168.585" rx="2.563" ry="1.417"/>
    </g>
    <g>
      <ellipse class="ff1e988f-22ee-44e7-a885-c0d4fe40d038" cx="402.688" cy="174.276" rx="3.324" ry="1.838"/>
      <ellipse class="9015baf1-e8ae-473c-a9dd-7fdbed96d8b5" cx="402.862" cy="174.488" rx="2.945" ry="1.627"/>
      <ellipse class="29b3b452-2de3-4186-a7ec-cf1684bc93b4" cx="402.862" cy="174.39" rx="2.565" ry="1.417"/>
    </g>
    <g>
      <ellipse class="ff1e988f-22ee-44e7-a885-c0d4fe40d038" cx="454.171" cy="133.982" rx="3.324" ry="1.838"/>
      <ellipse class="9015baf1-e8ae-473c-a9dd-7fdbed96d8b5" cx="454.345" cy="134.192" rx="2.945" ry="1.627"/>
      <ellipse class="29b3b452-2de3-4186-a7ec-cf1684bc93b4" cx="454.346" cy="134.094" rx="2.563" ry="1.418"/>
    </g>
    <g>
      <ellipse class="ff1e988f-22ee-44e7-a885-c0d4fe40d038" cx="464.178" cy="139.786" rx="3.326" ry="1.837"/>
      <ellipse class="9015baf1-e8ae-473c-a9dd-7fdbed96d8b5" cx="464.352" cy="139.996" rx="2.945" ry="1.626"/>
      <ellipse class="29b3b452-2de3-4186-a7ec-cf1684bc93b4" cx="464.352" cy="139.898" rx="2.565" ry="1.417"/>
    </g>
    <g>
      <ellipse class="ff1e988f-22ee-44e7-a885-c0d4fe40d038" cx="182.587" cy="233.922" rx="3.326" ry="1.837"/>
      <ellipse class="9015baf1-e8ae-473c-a9dd-7fdbed96d8b5" cx="182.76" cy="234.134" rx="2.944" ry="1.627"/>
      <ellipse class="29b3b452-2de3-4186-a7ec-cf1684bc93b4" cx="182.76" cy="234.037" rx="2.565" ry="1.417"/>
    </g>
    <g>
      <ellipse class="ff1e988f-22ee-44e7-a885-c0d4fe40d038" cx="192.594" cy="239.726" rx="3.326" ry="1.838"/>
      <ellipse class="9015baf1-e8ae-473c-a9dd-7fdbed96d8b5" cx="192.767" cy="239.937" rx="2.944" ry="1.627"/>
      <ellipse class="29b3b452-2de3-4186-a7ec-cf1684bc93b4" cx="192.767" cy="239.84" rx="2.565" ry="1.418"/>
    </g>
    <g>
      <ellipse class="ff1e988f-22ee-44e7-a885-c0d4fe40d038" cx="128.7" cy="201.775" rx="3.326" ry="1.838"/>
      <ellipse class="9015baf1-e8ae-473c-a9dd-7fdbed96d8b5" cx="128.874" cy="201.986" rx="2.944" ry="1.627"/>
      <ellipse class="29b3b452-2de3-4186-a7ec-cf1684bc93b4" cx="128.874" cy="201.888" rx="2.565" ry="1.417"/>
    </g>
    <g>
      <ellipse class="ff1e988f-22ee-44e7-a885-c0d4fe40d038" cx="138.708" cy="207.578" rx="3.326" ry="1.838"/>
      <ellipse class="9015baf1-e8ae-473c-a9dd-7fdbed96d8b5" cx="138.88" cy="207.79" rx="2.944" ry="1.627"/>
      <ellipse class="29b3b452-2de3-4186-a7ec-cf1684bc93b4" cx="138.881" cy="207.692" rx="2.565" ry="1.417"/>
    </g>
    <g>
      <ellipse class="ff1e988f-22ee-44e7-a885-c0d4fe40d038" cx="77.567" cy="172.022" rx="3.326" ry="1.838"/>
      <ellipse class="9015baf1-e8ae-473c-a9dd-7fdbed96d8b5" cx="77.74" cy="172.233" rx="2.944" ry="1.627"/>
      <ellipse class="29b3b452-2de3-4186-a7ec-cf1684bc93b4" cx="77.74" cy="172.136" rx="2.565" ry="1.417"/>
    </g>
    <g>
      <ellipse class="ff1e988f-22ee-44e7-a885-c0d4fe40d038" cx="87.574" cy="177.826" rx="3.326" ry="1.838"/>
      <ellipse class="9015baf1-e8ae-473c-a9dd-7fdbed96d8b5" cx="87.746" cy="178.037" rx="2.944" ry="1.626"/>
      <ellipse class="29b3b452-2de3-4186-a7ec-cf1684bc93b4" cx="87.748" cy="177.94" rx="2.564" ry="1.418"/>
    </g>
    <g>
      <ellipse class="ff1e988f-22ee-44e7-a885-c0d4fe40d038" cx="22.492" cy="139.746" rx="3.326" ry="1.837"/>
      <ellipse class="9015baf1-e8ae-473c-a9dd-7fdbed96d8b5" cx="22.664" cy="139.958" rx="2.944" ry="1.626"/>
      <ellipse class="29b3b452-2de3-4186-a7ec-cf1684bc93b4" cx="22.664" cy="139.86" rx="2.564" ry="1.417"/>
    </g>
    <g>
      <ellipse class="ff1e988f-22ee-44e7-a885-c0d4fe40d038" cx="32.499" cy="145.55" rx="3.326" ry="1.838"/>
      <ellipse class="9015baf1-e8ae-473c-a9dd-7fdbed96d8b5" cx="32.671" cy="145.761" rx="2.945" ry="1.627"/>
      <ellipse class="29b3b452-2de3-4186-a7ec-cf1684bc93b4" cx="32.671" cy="145.663" rx="2.564" ry="1.418"/>
    </g>
    <g>
      <ellipse class="ff1e988f-22ee-44e7-a885-c0d4fe40d038" cx="82.572" cy="111.725" rx="3.326" ry="1.837"/>
      <ellipse class="9015baf1-e8ae-473c-a9dd-7fdbed96d8b5" cx="82.744" cy="111.936" rx="2.944" ry="1.626"/>
      <ellipse class="29b3b452-2de3-4186-a7ec-cf1684bc93b4" cx="82.745" cy="111.839" rx="2.564" ry="1.418"/>
    </g>
    <g>
      <ellipse class="ff1e988f-22ee-44e7-a885-c0d4fe40d038" cx="190.4" cy="52.186" rx="3.325" ry="1.838"/>
      <ellipse class="9015baf1-e8ae-473c-a9dd-7fdbed96d8b5" cx="190.572" cy="52.397" rx="2.944" ry="1.627"/>
      <ellipse class="29b3b452-2de3-4186-a7ec-cf1684bc93b4" cx="190.572" cy="52.298" rx="2.564" ry="1.416"/>
    </g>
    <g>
      <ellipse class="ff1e988f-22ee-44e7-a885-c0d4fe40d038" cx="137.209" cy="81.276" rx="3.326" ry="1.838"/>
      <ellipse class="9015baf1-e8ae-473c-a9dd-7fdbed96d8b5" cx="137.381" cy="81.487" rx="2.944" ry="1.628"/>
      <ellipse class="29b3b452-2de3-4186-a7ec-cf1684bc93b4" cx="137.382" cy="81.388" rx="2.564" ry="1.417"/>
    </g>
    <g>
      <ellipse class="ff1e988f-22ee-44e7-a885-c0d4fe40d038" cx="137.382" cy="142.865" rx="3.326" ry="1.839"/>
      <ellipse class="9015baf1-e8ae-473c-a9dd-7fdbed96d8b5" cx="137.554" cy="143.077" rx="2.944" ry="1.628"/>
      <ellipse class="29b3b452-2de3-4186-a7ec-cf1684bc93b4" cx="137.554" cy="142.977" rx="2.564" ry="1.417"/>
    </g>
    <g>
      <ellipse class="ff1e988f-22ee-44e7-a885-c0d4fe40d038" cx="192.594" cy="113.547" rx="3.326" ry="1.837"/>
      <ellipse class="9015baf1-e8ae-473c-a9dd-7fdbed96d8b5" cx="192.766" cy="113.757" rx="2.944" ry="1.626"/>
      <ellipse class="29b3b452-2de3-4186-a7ec-cf1684bc93b4" cx="192.767" cy="113.66" rx="2.564" ry="1.417"/>
    </g>
    <g>
      <ellipse class="ff1e988f-22ee-44e7-a885-c0d4fe40d038" cx="244.685" cy="84.977" rx="3.326" ry="1.839"/>
      <ellipse class="9015baf1-e8ae-473c-a9dd-7fdbed96d8b5" cx="244.858" cy="85.189" rx="2.944" ry="1.627"/>
      <ellipse class="29b3b452-2de3-4186-a7ec-cf1684bc93b4" cx="244.858" cy="85.09" rx="2.564" ry="1.418"/>
    </g>
    <g>
      <ellipse class="ff1e988f-22ee-44e7-a885-c0d4fe40d038" cx="244.788" cy="14.477" rx="3.326" ry="1.837"/>
      <ellipse class="9015baf1-e8ae-473c-a9dd-7fdbed96d8b5" cx="244.96" cy="14.688" rx="2.945" ry="1.626"/>
      <ellipse class="29b3b452-2de3-4186-a7ec-cf1684bc93b4" cx="244.961" cy="14.59" rx="2.564" ry="1.417"/>
    </g>
    <g>
      <ellipse class="ff1e988f-22ee-44e7-a885-c0d4fe40d038" cx="254.794" cy="20.281" rx="3.326" ry="1.838"/>
      <ellipse class="9015baf1-e8ae-473c-a9dd-7fdbed96d8b5" cx="254.967" cy="20.493" rx="2.944" ry="1.626"/>
      <ellipse class="29b3b452-2de3-4186-a7ec-cf1684bc93b4" cx="254.967" cy="20.393" rx="2.564" ry="1.417"/>
    </g>
    <g>
      <ellipse class="ff1e988f-22ee-44e7-a885-c0d4fe40d038" cx="304.348" cy="43.847" rx="3.326" ry="1.838"/>
      <ellipse class="9015baf1-e8ae-473c-a9dd-7fdbed96d8b5" cx="304.521" cy="44.059" rx="2.945" ry="1.627"/>
      <ellipse class="29b3b452-2de3-4186-a7ec-cf1684bc93b4" cx="304.521" cy="43.959" rx="2.565" ry="1.418"/>
    </g>
    <g>
      <ellipse class="ff1e988f-22ee-44e7-a885-c0d4fe40d038" cx="314.355" cy="49.65" rx="3.326" ry="1.837"/>
      <ellipse class="9015baf1-e8ae-473c-a9dd-7fdbed96d8b5" cx="314.527" cy="49.862" rx="2.944" ry="1.626"/>
      <ellipse class="29b3b452-2de3-4186-a7ec-cf1684bc93b4" cx="314.529" cy="49.764" rx="2.564" ry="1.418"/>
    </g>
    <g>
      <ellipse class="ff1e988f-22ee-44e7-a885-c0d4fe40d038" cx="352.256" cy="73.191" rx="3.326" ry="1.838"/>
      <ellipse class="9015baf1-e8ae-473c-a9dd-7fdbed96d8b5" cx="352.428" cy="73.403" rx="2.945" ry="1.626"/>
      <ellipse class="29b3b452-2de3-4186-a7ec-cf1684bc93b4" cx="352.43" cy="73.305" rx="2.565" ry="1.417"/>
    </g>
    <g>
      <ellipse class="ff1e988f-22ee-44e7-a885-c0d4fe40d038" cx="362.261" cy="78.996" rx="3.326" ry="1.838"/>
      <ellipse class="9015baf1-e8ae-473c-a9dd-7fdbed96d8b5" cx="362.434" cy="79.207" rx="2.947" ry="1.627"/>
      <ellipse class="29b3b452-2de3-4186-a7ec-cf1684bc93b4" cx="362.437" cy="79.108" rx="2.565" ry="1.417"/>
    </g>
    <g>
      <ellipse class="ff1e988f-22ee-44e7-a885-c0d4fe40d038" cx="408.519" cy="105.285" rx="3.326" ry="1.837"/>
      <ellipse class="9015baf1-e8ae-473c-a9dd-7fdbed96d8b5" cx="408.692" cy="105.497" rx="2.945" ry="1.627"/>
      <ellipse class="29b3b452-2de3-4186-a7ec-cf1684bc93b4" cx="408.693" cy="105.397" rx="2.565" ry="1.418"/>
    </g>
    <g>
      <ellipse class="ff1e988f-22ee-44e7-a885-c0d4fe40d038" cx="418.524" cy="111.09" rx="3.326" ry="1.836"/>
      <ellipse class="9015baf1-e8ae-473c-a9dd-7fdbed96d8b5" cx="418.698" cy="111.301" rx="2.947" ry="1.625"/>
      <ellipse class="29b3b452-2de3-4186-a7ec-cf1684bc93b4" cx="418.698" cy="111.203" rx="2.563" ry="1.417"/>
    </g>
    <g>
      <ellipse class="ff1e988f-22ee-44e7-a885-c0d4fe40d038" cx="351.821" cy="143.96" rx="3.326" ry="1.835"/>
      <ellipse class="9015baf1-e8ae-473c-a9dd-7fdbed96d8b5" cx="351.993" cy="144.17" rx="2.946" ry="1.625"/>
      <ellipse class="29b3b452-2de3-4186-a7ec-cf1684bc93b4" cx="351.993" cy="144.073" rx="2.563" ry="1.417"/>
    </g>
    <g>
      <ellipse class="ff1e988f-22ee-44e7-a885-c0d4fe40d038" cx="301" cy="173.705" rx="3.327" ry="1.837"/>
      <ellipse class="9015baf1-e8ae-473c-a9dd-7fdbed96d8b5" cx="301.173" cy="173.916" rx="2.944" ry="1.627"/>
      <ellipse class="29b3b452-2de3-4186-a7ec-cf1684bc93b4" cx="301.172" cy="173.817" rx="2.564" ry="1.416"/>
    </g>
    <g>
      <ellipse class="ff1e988f-22ee-44e7-a885-c0d4fe40d038" cx="245.949" cy="204.78" rx="3.327" ry="1.837"/>
      <ellipse class="9015baf1-e8ae-473c-a9dd-7fdbed96d8b5" cx="246.121" cy="204.991" rx="2.945" ry="1.626"/>
      <ellipse class="29b3b452-2de3-4186-a7ec-cf1684bc93b4" cx="246.121" cy="204.893" rx="2.564" ry="1.418"/>
    </g>
    <g>
      <ellipse class="ff1e988f-22ee-44e7-a885-c0d4fe40d038" cx="191.129" cy="173.572" rx="3.327" ry="1.838"/>
      <ellipse class="9015baf1-e8ae-473c-a9dd-7fdbed96d8b5" cx="191.302" cy="173.783" rx="2.945" ry="1.626"/>
      <ellipse class="29b3b452-2de3-4186-a7ec-cf1684bc93b4" cx="191.302" cy="173.685" rx="2.565" ry="1.417"/>
    </g>
    <g>
      <ellipse class="ff1e988f-22ee-44e7-a885-c0d4fe40d038" cx="243.359" cy="144.17" rx="3.326" ry="1.837"/>
      <ellipse class="9015baf1-e8ae-473c-a9dd-7fdbed96d8b5" cx="243.532" cy="144.381" rx="2.944" ry="1.626"/>
      <ellipse class="29b3b452-2de3-4186-a7ec-cf1684bc93b4" cx="243.534" cy="144.282" rx="2.565" ry="1.417"/>
    </g>
    <g>
      <ellipse class="ff1e988f-22ee-44e7-a885-c0d4fe40d038" cx="297.069" cy="115.202" rx="3.326" ry="1.836"/>
      <ellipse class="9015baf1-e8ae-473c-a9dd-7fdbed96d8b5" cx="297.242" cy="115.413" rx="2.944" ry="1.626"/>
      <ellipse class="29b3b452-2de3-4186-a7ec-cf1684bc93b4" cx="297.242" cy="115.315" rx="2.564" ry="1.416"/>
    </g>
  </g>
</svg>
