<svg xmlns="http://www.w3.org/2000/svg" viewBox="0 0 200 200">
  <defs>
    <style>
      .\39 520415b-3666-4a8a-8ab3-d497ee36cd1a {
        isolation: isolate;
      }

      .\33 2af9d96-d3bb-4f3e-ad14-c5013d3b796c {
        fill: #4780b5;
      }

      .c3d40e44-0154-4949-b825-947acd285a6d {
        fill: #306da6;
      }

      .\37 9bc289a-b629-46db-971a-0ebaa58cc008, .d382e30a-843d-465d-8863-d3bfa4763e79 {
        fill: #231f20;
      }

      .\38 ea605af-69fb-41f0-82c3-fb9b632acbe0 {
        fill: #2566a1;
      }

      .\31 7a791a1-feee-46b4-8077-586153b63191, .d0c48d00-a8b5-4243-ad0a-920558562669 {
        fill: #fff;
      }

      .d0c48d00-a8b5-4243-ad0a-920558562669 {
        opacity: 0.2;
      }

      .\31 7a791a1-feee-46b4-8077-586153b63191, .\35 88f3454-5e4c-481d-b1e1-9875f1727721, .\35 c6fb774-524b-4be4-b73c-394ec841509f, .\37 e37b67f-b0c3-4c06-afdc-192321c33f5d, .d0c48d00-a8b5-4243-ad0a-920558562669, .d382e30a-843d-465d-8863-d3bfa4763e79 {
        mix-blend-mode: soft-light;
      }

      .\37 e37b67f-b0c3-4c06-afdc-192321c33f5d {
        opacity: 0.4;
      }

      .\37 e5fe555-c1e7-4934-9709-1b8fc67e312c {
        fill: #367aba;
      }

      .\32 94ca4f8-2590-402d-9fe4-4b671f412024 {
        fill: #2d669c;
      }

      .\30 7bc324e-1778-43aa-94f9-cb0f348483b2 {
        fill: #dfe6ed;
      }

      .\31 bf2a985-b07b-48dd-9ebf-1a5d98cdf0a1 {
        fill: #c6ccd3;
      }

      .\31 6b024e4-7597-44b1-85cd-96b51b1d95a7 {
        fill: #9ca1a6;
      }

      .f6b188bd-d5f7-4328-b3fe-f998a6da8c32 {
        fill: #b5b9bf;
      }

      .af5c7566-84ee-44f2-96fa-9ad081af2711 {
        fill: #a0a6ab;
      }

      .efad9747-ae4e-4c1d-81c7-664916647dc6 {
        fill: #acb2b8;
      }

      .\36 c4b3211-2530-4b06-b573-946ce7bfb457 {
        fill: #a7adb3;
      }

      .\36 3e2828f-deb3-4911-b167-65ce10d68270 {
        fill: #a5abb0;
      }

      .a625a2f5-2fc9-49e0-b75a-2a6adfa3ba90 {
        fill: #8c9296;
      }

      .\35 c6fb774-524b-4be4-b73c-394ec841509f, .d382e30a-843d-465d-8863-d3bfa4763e79 {
        opacity: 0.3;
      }

      .\36 d267980-66d4-4445-9547-2c528ea5684c {
        fill: #d0d7de;
      }

      .\39 64afdac-ed55-41eb-8916-6f7bd1619dbc {
        fill: #91969b;
      }

      .\34 f7294c2-fef6-4759-ba0f-f2141b474653 {
        fill: #b1b7bd;
      }

      .d39389d4-0f60-4d32-b4da-394571e018f8 {
        fill: #969ca1;
      }

      .\31 3ef6249-4ba6-4ca7-8e4f-2ede02a3e507 {
        fill: #a1a7ac;
      }

      .\33 fc56ff6-0a13-4b6f-b9c5-123c60d4f32c {
        fill: #c6cdd4;
      }

      .c447070e-7d06-4e5a-bff7-d280dc62f7cc {
        fill: #7c8085;
      }

      .\33 a102a04-82b8-4399-adbe-b62241f9e314 {
        fill: #8a8e93;
      }

      .\34 03ab6d0-dc50-4e3e-80b5-59fa3aec1155 {
        fill: #1c5c96;
      }

      .\33 52368d4-09b5-4885-9336-17e0d23e3637 {
        fill: #1d5f9c;
      }

      .bbc07577-492a-4543-a68a-305a267888a0 {
        fill: #3477b5;
      }

      .\35 88f3454-5e4c-481d-b1e1-9875f1727721 {
        opacity: 0.5;
      }

      .e096eaae-35ba-41fc-9b18-97a6df1110a4 {
        fill: #6097c0;
      }

      .\37 d76fde5-5d13-4aca-8f7f-27c82e24e2d9 {
        fill: #3374b0;
      }

      .\31 7a791a1-feee-46b4-8077-586153b63191 {
        opacity: 0.8;
      }
    </style>
  </defs>
  <title>Container Types</title>
  <g class="9520415b-3666-4a8a-8ab3-d497ee36cd1a">
    <g id="200cee03-5e74-4943-b0a3-a4ab22118e4c" data-name="Trains">
      <g id="6103a4ca-4c41-45cc-954f-3f29dac583d0" data-name="Standard">
        <g>
          <polygon class="32af9d96-d3bb-4f3e-ad14-c5013d3b796c" points="0.61 46.07 43.38 24.31 199.39 103.67 156.61 125.43 0.61 46.07"/>
          <g>
            <polygon class="c3d40e44-0154-4949-b825-947acd285a6d" points="156.61 175.69 199.39 153.93 199.39 103.67 156.61 125.43 156.61 175.69"/>
            <g>
              <polygon class="79bc289a-b629-46db-971a-0ebaa58cc008" points="158.39 126.67 197.61 106.72 197.61 152.69 158.39 172.64 158.39 126.67"/>
              <polygon class="8ea605af-69fb-41f0-82c3-fb9b632acbe0" points="178 162.29 158.75 172.09 158.75 126.86 178 117.06 178 162.29"/>
              <polygon class="c3d40e44-0154-4949-b825-947acd285a6d" points="197.25 152.5 178 162.29 178 117.06 197.25 107.27 197.25 152.5"/>
              <g>
                <g>
                  <path class="d0c48d00-a8b5-4243-ad0a-920558562669" d="M181.05,121l8.85-4.5,4.29-2.18c.23-.12.42,0,.42.28v2.52a.83.83,0,0,1-.13.41.77.77,0,0,1-.29.29l-13.15,6.69c-.23.12-.42,0-.42-.28v-2.52A.86.86,0,0,1,181.05,121Z"/>
                  <path class="7e37b67f-b0c3-4c06-afdc-192321c33f5d" d="M193.18,117.56l-12.36,6.29a.3.3,0,0,1-.19,0v-2.21a.86.86,0,0,1,.42-.71l12.52-6.37v2.3A.81.81,0,0,1,193.18,117.56Z"/>
                </g>
                <g>
                  <path class="d0c48d00-a8b5-4243-ad0a-920558562669" d="M181.05,131.23l8.85-4.5,4.29-2.18c.23-.12.42,0,.42.28v2.52a.83.83,0,0,1-.13.41.77.77,0,0,1-.29.29l-13.15,6.69c-.23.12-.42,0-.42-.28v-2.52A.86.86,0,0,1,181.05,131.23Z"/>
                  <path class="7e37b67f-b0c3-4c06-afdc-192321c33f5d" d="M193.18,127.83l-12.36,6.29a.3.3,0,0,1-.19,0v-2.21a.86.86,0,0,1,.42-.71l12.52-6.37v2.3A.81.81,0,0,1,193.18,127.83Z"/>
                </g>
                <g>
                  <path class="d0c48d00-a8b5-4243-ad0a-920558562669" d="M181.05,141.51l8.85-4.5,4.29-2.18c.23-.12.42,0,.42.28v2.52a.83.83,0,0,1-.13.41.77.77,0,0,1-.29.29L181.05,145c-.23.12-.42,0-.42-.28v-2.52A.86.86,0,0,1,181.05,141.51Z"/>
                  <path class="7e37b67f-b0c3-4c06-afdc-192321c33f5d" d="M193.18,138.11l-12.36,6.29a.31.31,0,0,1-.19,0v-2.21a.86.86,0,0,1,.42-.71l12.52-6.37v2.3A.81.81,0,0,1,193.18,138.11Z"/>
                </g>
                <g>
                  <path class="d0c48d00-a8b5-4243-ad0a-920558562669" d="M181.05,151.78l8.85-4.5,4.29-2.18c.23-.12.42,0,.42.28v2.52a.83.83,0,0,1-.13.41.77.77,0,0,1-.29.29l-13.15,6.69c-.23.12-.42,0-.42-.28v-2.52A.86.86,0,0,1,181.05,151.78Z"/>
                  <path class="7e37b67f-b0c3-4c06-afdc-192321c33f5d" d="M193.18,148.38l-12.36,6.29a.3.3,0,0,1-.19,0v-2.21a.86.86,0,0,1,.42-.71l12.52-6.37v2.3A.81.81,0,0,1,193.18,148.38Z"/>
                </g>
                <g>
                  <path class="d0c48d00-a8b5-4243-ad0a-920558562669" d="M161.8,130.75l8.85-4.5,4.29-2.18c.23-.12.42,0,.42.28v2.52a.83.83,0,0,1-.13.41.77.77,0,0,1-.29.29l-13.15,6.69c-.23.12-.42,0-.42-.28v-2.52A.86.86,0,0,1,161.8,130.75Z"/>
                  <path class="7e37b67f-b0c3-4c06-afdc-192321c33f5d" d="M173.93,127.35l-12.36,6.29a.31.31,0,0,1-.19,0v-2.21a.86.86,0,0,1,.42-.71l12.52-6.37v2.3A.81.81,0,0,1,173.93,127.35Z"/>
                </g>
                <g>
                  <path class="d0c48d00-a8b5-4243-ad0a-920558562669" d="M161.8,141l8.85-4.5,4.29-2.18c.23-.12.42,0,.42.28v2.52a.83.83,0,0,1-.13.41.77.77,0,0,1-.29.29l-13.15,6.69c-.23.12-.42,0-.42-.28v-2.52A.86.86,0,0,1,161.8,141Z"/>
                  <path class="7e37b67f-b0c3-4c06-afdc-192321c33f5d" d="M173.93,137.63l-12.36,6.29a.3.3,0,0,1-.19,0v-2.21a.86.86,0,0,1,.42-.71l12.52-6.37V137A.81.81,0,0,1,173.93,137.63Z"/>
                </g>
                <g>
                  <path class="d0c48d00-a8b5-4243-ad0a-920558562669" d="M161.8,151.3l8.85-4.5,4.29-2.18c.23-.12.42,0,.42.28v2.52a.83.83,0,0,1-.13.41.77.77,0,0,1-.29.29l-13.15,6.69c-.23.12-.42,0-.42-.28V152A.86.86,0,0,1,161.8,151.3Z"/>
                  <path class="7e37b67f-b0c3-4c06-afdc-192321c33f5d" d="M173.93,147.9l-12.36,6.29a.31.31,0,0,1-.19,0V152a.86.86,0,0,1,.42-.71l12.52-6.37v2.3A.81.81,0,0,1,173.93,147.9Z"/>
                </g>
                <g>
                  <path class="d0c48d00-a8b5-4243-ad0a-920558562669" d="M161.8,161.57l8.85-4.5,4.29-2.18c.23-.12.42,0,.42.28v2.52a.83.83,0,0,1-.13.42.77.77,0,0,1-.29.29l-13.15,6.69c-.23.12-.42,0-.42-.28v-2.52A.86.86,0,0,1,161.8,161.57Z"/>
                  <path class="7e37b67f-b0c3-4c06-afdc-192321c33f5d" d="M173.93,158.17l-12.36,6.29a.3.3,0,0,1-.19,0v-2.21a.86.86,0,0,1,.42-.71l12.52-6.37v2.3A.81.81,0,0,1,173.93,158.17Z"/>
                </g>
              </g>
              <g>
                <polygon class="7e5fe555-c1e7-4934-9709-1b8fc67e312c" points="177.37 162.75 178.9 161.97 178.9 116.74 177.37 117.52 177.37 162.75"/>
                <polygon class="294ca4f8-2590-402d-9fe4-4b671f412024" points="177.37 162.75 177.37 117.52 177.23 117.45 177.23 162.68 177.37 162.75"/>
                <polygon class="32af9d96-d3bb-4f3e-ad14-c5013d3b796c" points="178.9 116.74 177.37 117.52 177.23 117.45 178.77 116.67 178.9 116.74"/>
              </g>
            </g>
            <g>
              <g>
                <path class="07bc324e-1778-43aa-94f9-cb0f348483b2" d="M158.82,169.4l-1.16.59a.58.58,0,0,1-.46,0l-.5-.26,1.58-.81.5.26C158.93,169.24,158.94,169.34,158.82,169.4Z"/>
                <path class="1bf2a985-b07b-48dd-9ebf-1a5d98cdf0a1" d="M158.9,169.3a.12.12,0,0,1-.08.1l-1.16.59a.58.58,0,0,1-.46,0l-.5-.26v.81l.5.26a.57.57,0,0,0,.46,0l1.16-.59a.12.12,0,0,0,.08-.1S158.9,169.3,158.9,169.3Z"/>
              </g>
              <path class="16b024e4-7597-44b1-85cd-96b51b1d95a7" d="M157.68,169.41l.38.19a.43.43,0,0,0,.35,0l.42-.21c.12-.06.1-.17,0-.23l-.5-.26-.69.35A.14.14,0,0,0,157.68,169.41Z"/>
              <g>
                <path class="07bc324e-1778-43aa-94f9-cb0f348483b2" d="M160.32,165.88l-2.67,1.36c-.09,0-.08.13,0,.18l.38.19a.44.44,0,0,0,.35,0l2.5-1.27c.09,0,.08-.13,0-.18Z"/>
                <path class="1bf2a985-b07b-48dd-9ebf-1a5d98cdf0a1" d="M161,166.26a.09.09,0,0,1-.06.08l-2.5,1.27a.44.44,0,0,1-.35,0l-.38-.19c-.06,0-.09-.07-.09-.1v1.89s0,.07.09.1l.38.19a.44.44,0,0,0,.35,0l2.5-1.27a.09.09,0,0,0,.06-.08S161,166.26,161,166.26Z"/>
                <path class="f6b188bd-d5f7-4328-b3fe-f998a6da8c32" d="M157.6,167.31s0,.07.09.1l.38.19a.44.44,0,0,0,.35,0v1.89a.44.44,0,0,1-.35,0l-.38-.19c-.06,0-.09-.07-.09-.1v-1.89Z"/>
              </g>
              <path class="af5c7566-84ee-44f2-96fa-9ad081af2711" d="M158.79,167.17l-.5-.26-.63.32c-.09,0-.08.13,0,.18l.38.19a.44.44,0,0,0,.35,0l.42-.21C158.94,167.34,158.93,167.24,158.79,167.17Z"/>
              <g>
                <path class="07bc324e-1778-43aa-94f9-cb0f348483b2" d="M158.82,166.49l-1.16.59a.57.57,0,0,1-.46,0l-.5-.26,1.58-.81.5.26C158.93,166.32,158.94,166.43,158.82,166.49Z"/>
                <path class="1bf2a985-b07b-48dd-9ebf-1a5d98cdf0a1" d="M158.9,166.38a.12.12,0,0,1-.08.1l-1.16.59a.57.57,0,0,1-.46,0l-.5-.26v.81l.5.26a.57.57,0,0,0,.46,0l1.16-.59a.12.12,0,0,0,.08-.1S158.9,166.38,158.9,166.38Z"/>
              </g>
            </g>
            <g>
              <g>
                <path class="07bc324e-1778-43aa-94f9-cb0f348483b2" d="M158.83,133.06l-1.16.59a.57.57,0,0,1-.46,0l-.5-.26,1.58-.81.5.26C158.93,132.9,158.94,133,158.83,133.06Z"/>
                <path class="1bf2a985-b07b-48dd-9ebf-1a5d98cdf0a1" d="M158.9,133a.12.12,0,0,1-.08.1l-1.16.59a.57.57,0,0,1-.46,0l-.5-.26v.81l.5.26a.57.57,0,0,0,.46,0l1.16-.59a.12.12,0,0,0,.08-.1Z"/>
              </g>
              <path class="16b024e4-7597-44b1-85cd-96b51b1d95a7" d="M157.68,133.07l.38.19a.44.44,0,0,0,.35,0l.42-.21c.12-.06.1-.17,0-.23l-.5-.26-.69.35A.14.14,0,0,0,157.68,133.07Z"/>
              <g>
                <path class="07bc324e-1778-43aa-94f9-cb0f348483b2" d="M160.33,129.54l-2.67,1.36c-.09,0-.08.13,0,.18l.38.19a.43.43,0,0,0,.35,0l2.5-1.27c.09,0,.08-.13,0-.18Z"/>
                <path class="1bf2a985-b07b-48dd-9ebf-1a5d98cdf0a1" d="M161,129.92a.09.09,0,0,1-.06.08l-2.5,1.27a.43.43,0,0,1-.35,0l-.38-.19c-.06,0-.09-.07-.09-.1v1.89s0,.07.09.1l.38.19a.43.43,0,0,0,.35,0l2.5-1.27a.09.09,0,0,0,.06-.08S161,129.92,161,129.92Z"/>
                <path class="f6b188bd-d5f7-4328-b3fe-f998a6da8c32" d="M157.6,131s0,.07.09.1l.38.19a.43.43,0,0,0,.35,0v1.89a.43.43,0,0,1-.35,0l-.38-.19c-.06,0-.09-.07-.09-.1V131Z"/>
              </g>
              <path class="af5c7566-84ee-44f2-96fa-9ad081af2711" d="M158.79,130.83l-.5-.26-.63.32c-.09,0-.08.13,0,.18l.38.19a.43.43,0,0,0,.35,0l.42-.21C158.94,131,158.93,130.9,158.79,130.83Z"/>
              <g>
                <path class="07bc324e-1778-43aa-94f9-cb0f348483b2" d="M158.83,130.15l-1.16.59a.57.57,0,0,1-.46,0l-.5-.26,1.58-.81.5.26C158.93,130,158.94,130.09,158.83,130.15Z"/>
                <path class="1bf2a985-b07b-48dd-9ebf-1a5d98cdf0a1" d="M158.9,130a.12.12,0,0,1-.08.1l-1.16.59a.57.57,0,0,1-.46,0l-.5-.26v.81l.5.26a.58.58,0,0,0,.46,0l1.16-.59a.12.12,0,0,0,.08-.1S158.9,130,158.9,130Z"/>
              </g>
            </g>
            <g>
              <g>
                <path class="07bc324e-1778-43aa-94f9-cb0f348483b2" d="M199.83,112.25l-1.16.59a.58.58,0,0,1-.46,0l-.5-.26,1.58-.81.5.26C199.93,112.08,199.95,112.19,199.83,112.25Z"/>
                <path class="1bf2a985-b07b-48dd-9ebf-1a5d98cdf0a1" d="M199.91,112.14a.12.12,0,0,1-.08.1l-1.16.59a.58.58,0,0,1-.46,0l-.5-.26v.81l.5.26a.57.57,0,0,0,.46,0l1.16-.59a.12.12,0,0,0,.08-.1S199.91,112.14,199.91,112.14Z"/>
              </g>
              <path class="16b024e4-7597-44b1-85cd-96b51b1d95a7" d="M199.15,112.55v-.72l-1.44.73.5.26a.58.58,0,0,0,.46,0l.42-.21A.09.09,0,0,0,199.15,112.55Z"/>
              <g>
                <path class="07bc324e-1778-43aa-94f9-cb0f348483b2" d="M195.67,111.6l2.67-1.36a.43.43,0,0,1,.35,0l.38.19c.1.05.11.13,0,.18l-2.5,1.27a.43.43,0,0,1-.35,0Z"/>
                <path class="efad9747-ae4e-4c1d-81c7-664916647dc6" d="M196.24,111.89v1.89a.43.43,0,0,0,.35,0V111.9A.43.43,0,0,1,196.24,111.89Z"/>
                <polygon class="6c4b3211-2530-4b06-b573-946ce7bfb457" points="196.24 111.89 195.67 111.6 195.67 113.49 196.24 113.78 196.24 111.89 196.24 111.89"/>
                <path class="1bf2a985-b07b-48dd-9ebf-1a5d98cdf0a1" d="M199.15,110.55a.09.09,0,0,1-.06.07l-2.5,1.27v1.89l2.5-1.27a.09.09,0,0,0,.06-.08Z"/>
              </g>
              <path class="af5c7566-84ee-44f2-96fa-9ad081af2711" d="M198.67,110.84l.42-.21c.09,0,.08-.13,0-.18l-.38-.19a.43.43,0,0,0-.35,0l-.52.27-.11-.05v.11l.5.26A.57.57,0,0,0,198.67,110.84Z"/>
              <g>
                <path class="07bc324e-1778-43aa-94f9-cb0f348483b2" d="M199.83,109.33l-1.16.59a.57.57,0,0,1-.46,0l-.5-.26,1.58-.81.5.26C199.93,109.17,199.95,109.27,199.83,109.33Z"/>
                <path class="1bf2a985-b07b-48dd-9ebf-1a5d98cdf0a1" d="M199.91,109.23a.12.12,0,0,1-.08.1l-1.16.59a.57.57,0,0,1-.46,0l-.5-.26v.81l.5.26a.58.58,0,0,0,.46,0l1.16-.59a.12.12,0,0,0,.08-.1S199.91,109.23,199.91,109.23Z"/>
              </g>
            </g>
            <g>
              <g>
                <path class="07bc324e-1778-43aa-94f9-cb0f348483b2" d="M199.83,148.55l-1.16.59a.57.57,0,0,1-.46,0l-.5-.26,1.58-.81.5.26C199.93,148.39,199.95,148.49,199.83,148.55Z"/>
                <path class="1bf2a985-b07b-48dd-9ebf-1a5d98cdf0a1" d="M199.91,148.45a.12.12,0,0,1-.08.1l-1.16.59a.57.57,0,0,1-.46,0l-.5-.26v.81l.5.26a.58.58,0,0,0,.46,0l1.16-.59a.12.12,0,0,0,.08-.1Z"/>
              </g>
              <path class="16b024e4-7597-44b1-85cd-96b51b1d95a7" d="M199.15,148.85v-.72l-1.44.73.5.26a.57.57,0,0,0,.46,0l.42-.21A.09.09,0,0,0,199.15,148.85Z"/>
              <g>
                <path class="07bc324e-1778-43aa-94f9-cb0f348483b2" d="M195.67,147.91l2.67-1.36a.43.43,0,0,1,.35,0l.38.19c.1.05.11.13,0,.18l-2.5,1.27a.44.44,0,0,1-.35,0Z"/>
                <path class="1bf2a985-b07b-48dd-9ebf-1a5d98cdf0a1" d="M196.24,148.19a.44.44,0,0,0,.35,0l2.5-1.27a.09.09,0,0,0,.06-.07v1.89a.09.09,0,0,1-.06.08l-2.5,1.27a.44.44,0,0,1-.35,0l-.56-.29v-1.89Z"/>
                <path class="63e2828f-deb3-4911-b167-65ce10d68270" d="M196.24,148.19v1.89a.44.44,0,0,0,.35,0v-1.89A.44.44,0,0,1,196.24,148.19Z"/>
                <polygon class="a625a2f5-2fc9-49e0-b75a-2a6adfa3ba90" points="196.24 148.19 195.67 147.91 195.67 149.8 196.24 150.08 196.24 148.19 196.24 148.19"/>
              </g>
              <path class="af5c7566-84ee-44f2-96fa-9ad081af2711" d="M198.67,147.14l.42-.21c.09,0,.08-.13,0-.18l-.38-.19a.43.43,0,0,0-.35,0l-.52.27-.11-.05v.11l.5.26A.57.57,0,0,0,198.67,147.14Z"/>
              <g>
                <path class="07bc324e-1778-43aa-94f9-cb0f348483b2" d="M199.83,145.64l-1.16.59a.57.57,0,0,1-.46,0l-.5-.26,1.58-.81.5.26C199.93,145.47,199.95,145.58,199.83,145.64Z"/>
                <path class="1bf2a985-b07b-48dd-9ebf-1a5d98cdf0a1" d="M199.91,145.54a.12.12,0,0,1-.08.1l-1.16.59a.57.57,0,0,1-.46,0l-.5-.26v.81l.5.26a.57.57,0,0,0,.46,0l1.16-.59a.12.12,0,0,0,.08-.1Z"/>
              </g>
            </g>
            <path class="5c6fb774-524b-4be4-b73c-394ec841509f" d="M185.14,147.16V147l.93-.47V160.7l.76-.42V112.21l-.76.38v32.36l-.93.47v-.16c0-.57-.4-.84-.89-.59l-.26.13a1.82,1.82,0,0,0-.89,1.49v1.9c0,.57.4.84.89.59l.26-.13A1.82,1.82,0,0,0,185.14,147.16Zm-.33.17a1.15,1.15,0,0,1-.56.94l-.26.13c-.31.16-.56,0-.56-.37v-1.9a1.15,1.15,0,0,1,.56-.94l.26-.13c.31-.16.56,0,.56.37Z"/>
            <path class="5c6fb774-524b-4be4-b73c-394ec841509f" d="M171.7,158.48v1.9c0,.57.4.84.89.59l.26-.13a1.82,1.82,0,0,0,.89-1.49v-.16l.93-.47v7.78l.76-.38V116.9l-.76.38v39.85l-.93.47v-.16c0-.57-.4-.84-.89-.59l-.26.13A1.82,1.82,0,0,0,171.7,158.48Zm.33-.17a1.15,1.15,0,0,1,.56-.94l.26-.13c.31-.16.56,0,.56.37v1.9a1.15,1.15,0,0,1-.56.94l-.26.13c-.31.16-.56,0-.56-.37Z"/>
            <path class="5c6fb774-524b-4be4-b73c-394ec841509f" d="M168.5,120.41v49.23l.75-.38V155.37l1-.5v-.27l1.44-.73v.43c0,.57.4.84.89.59l.26-.13a1.82,1.82,0,0,0,.89-1.49v-1.9c0-.57-.4-.84-.89-.59l-.26.13a1.82,1.82,0,0,0-.89,1.49v.43l-1.44.73v-.27l-1,.5V120ZM172,152.22a1.15,1.15,0,0,1,.56-.94l.26-.13c.31-.16.56,0,.56.37v1.9a1.15,1.15,0,0,1-.56.94l-.26.13c-.31.16-.56,0-.56-.37Z"/>
            <path class="5c6fb774-524b-4be4-b73c-394ec841509f" d="M180.67,114.22l-.76.38v49.23l.75-.38v-7.5l1-.5v-.27l1.44-.73v.43c0,.57.4.84.89.59l.26-.13a1.82,1.82,0,0,0,.89-1.49v-1.9c0-.57-.4-.84-.89-.59l-.26.13a1.82,1.82,0,0,0-.89,1.49v.43l-1.44.73v-.27l-1,.5Zm2.77,38.58a1.15,1.15,0,0,1,.56-.94l.26-.13c.31-.16.56,0,.56.37V154a1.15,1.15,0,0,1-.56.94l-.26.13c-.31.16-.56,0-.56-.37Z"/>
            <g>
              <g>
                <path class="6d267980-66d4-4445-9547-2c528ea5684c" d="M174.73,120.23l.92.47a1.71,1.71,0,0,0,1.37,0c.35-.18.31-.49-.1-.7l-.92-.47Z"/>
                <path class="964afdac-ed55-41eb-8916-6f7bd1619dbc" d="M176.63,120.56a.82.82,0,0,1-.66,0c-.2-.1-.22-.25,0-.34a.82.82,0,0,1,.66,0C176.78,120.32,176.8,120.47,176.63,120.56Z"/>
                <path class="4f7294c2-fef6-4759-ba0f-f2141b474653" d="M177.25,120.45a.36.36,0,0,1-.24.3,1.71,1.71,0,0,1-1.37,0l-.92-.47v.45l.92.47a1.7,1.7,0,0,0,1.37.05.36.36,0,0,0,.24-.3C177.25,120.76,177.25,120.45,177.25,120.45Z"/>
              </g>
              <g>
                <path class="6d267980-66d4-4445-9547-2c528ea5684c" d="M174.73,162l.92.47a1.7,1.7,0,0,0,1.37.05c.35-.18.31-.49-.1-.7l-.92-.47Z"/>
                <path class="964afdac-ed55-41eb-8916-6f7bd1619dbc" d="M176.63,162.28a.82.82,0,0,1-.66,0c-.2-.1-.22-.25,0-.34a.82.82,0,0,1,.66,0C176.78,162,176.8,162.2,176.63,162.28Z"/>
                <path class="964afdac-ed55-41eb-8916-6f7bd1619dbc" d="M177.25,162.18a.36.36,0,0,1-.24.3,1.71,1.71,0,0,1-1.37-.05l-.92-.47v.45l.92.47a1.7,1.7,0,0,0,1.37,0,.36.36,0,0,0,.24-.3C177.25,162.48,177.25,162.18,177.25,162.18Z"/>
              </g>
              <path class="4f7294c2-fef6-4759-ba0f-f2141b474653" d="M176.63,162.28s0-41,0-41a1.88,1.88,0,0,1-.76-.06v41l.07,0A.82.82,0,0,0,176.63,162.28Z"/>
              <path class="4f7294c2-fef6-4759-ba0f-f2141b474653" d="M176,117.48l-.09,0v3l.07,0a.82.82,0,0,0,.66,0s0-3.06,0-3.06A1,1,0,0,1,176,117.48Z"/>
              <g>
                <polygon class="d39389d4-0f60-4d32-b4da-394571e018f8" points="174.92 158.53 175.35 158.75 175.35 157.17 174.92 156.95 174.92 158.53"/>
                <polygon class="13ef6249-4ba6-4ca7-8e4f-2ede02a3e507" points="175.35 158.75 176.33 158.26 176.33 156.67 175.35 157.17 175.35 158.75"/>
                <g>
                  <polygon class="6d267980-66d4-4445-9547-2c528ea5684c" points="173.9 158.07 175.24 157.39 175.03 157.28 173.9 157.85 173.9 158.07"/>
                  <polygon class="63e2828f-deb3-4911-b167-65ce10d68270" points="173.9 159.11 175.24 158.43 175.24 157.39 173.9 158.07 173.9 159.11"/>
                </g>
                <path class="6d267980-66d4-4445-9547-2c528ea5684c" d="M176,156.58a.17.17,0,0,1-.09-.13l-1,.5.43.22,1-.5A.65.65,0,0,1,176,156.58Z"/>
                <path class="63e2828f-deb3-4911-b167-65ce10d68270" d="M171.87,158.78v1.9c0,.57.4.84.89.59l.26-.13a1.82,1.82,0,0,0,.89-1.49v-1.9c0-.57-.4-.84-.89-.59l-.26.13A1.82,1.82,0,0,0,171.87,158.78Zm.33-.17a1.15,1.15,0,0,1,.56-.94l.26-.13c.31-.16.56,0,.56.37v1.9a1.15,1.15,0,0,1-.56.94l-.26.13c-.31.16-.56,0-.56-.37Z"/>
                <path class="a625a2f5-2fc9-49e0-b75a-2a6adfa3ba90" d="M173.15,157.69v1.9a1.15,1.15,0,0,1-.56.94l-.26.13-.1,0a.34.34,0,0,0,.53.18l.26-.13a1.15,1.15,0,0,0,.56-.94v-1.9c0-.32-.2-.49-.46-.41A.61.61,0,0,1,173.15,157.69Z"/>
                <path class="3fc56ff6-0a13-4b6f-b9c5-123c60d4f32c" d="M171.87,160.69v-1.9a1.82,1.82,0,0,1,.89-1.49l.26-.13a.63.63,0,0,1,.59,0l-.44-.23a.63.63,0,0,0-.58,0l-.26.13a1.82,1.82,0,0,0-.89,1.49v1.9a.66.66,0,0,0,.31.63l.44.22A.66.66,0,0,1,171.87,160.69Z"/>
              </g>
              <g>
                <polygon class="964afdac-ed55-41eb-8916-6f7bd1619dbc" points="176.73 164.58 177.29 164.86 177.28 164.24 176.73 163.96 176.73 164.58"/>
                <path class="6d267980-66d4-4445-9547-2c528ea5684c" d="M177.1,164.55c.25-.05.13-.12,0-.11a2.18,2.18,0,0,0-1.24.35c-.16.11-.09.29.16.39a.89.89,0,0,0,.75,0,.16.16,0,0,0,0-.26C176.65,164.76,176.75,164.62,177.1,164.55Z"/>
                <path class="964afdac-ed55-41eb-8916-6f7bd1619dbc" d="M176.82,165a.17.17,0,0,1-.08.14.89.89,0,0,1-.75,0c-.16-.06-.25-.16-.25-.25s0,.57,0,.62.09.18.25.25a.89.89,0,0,0,.75,0,.17.17,0,0,0,.09-.14S176.82,165,176.82,165Z"/>
                <path class="c447070e-7d06-4e5a-bff7-d280dc62f7cc" d="M177.25,164.49s0,0-.14.06c-.3.06-.41.17-.37.29a1.16,1.16,0,0,1,.09.43.83.83,0,0,1,.28-.1c.1,0,.15,0,.14-.06S177.25,164.49,177.25,164.49Z"/>
                <path class="6d267980-66d4-4445-9547-2c528ea5684c" d="M178.15,164l-.77-.39-.65.33.55.28c.14.18.05.32-.3.39s-.13.12,0,.11a2.18,2.18,0,0,0,1.24-.35C178.4,164.28,178.35,164.12,178.15,164Z"/>
                <path class="964afdac-ed55-41eb-8916-6f7bd1619dbc" d="M178.34,164.24a.18.18,0,0,1-.09.14,2.18,2.18,0,0,1-1.24.35c-.1,0-.17,0-.17,0v.62s.08,0,.18,0a2.18,2.18,0,0,0,1.24-.35.18.18,0,0,0,.09-.14C178.34,164.77,178.34,164.24,178.34,164.24Z"/>
                <path class="c447070e-7d06-4e5a-bff7-d280dc62f7cc" d="M177.31,164.28s0,.23,0,.23A.14.14,0,0,0,177.31,164.28Z"/>
              </g>
              <g>
                <polygon class="964afdac-ed55-41eb-8916-6f7bd1619dbc" points="176.73 116.25 177.29 116.53 177.28 115.91 176.73 115.63 176.73 116.25"/>
                <path class="6d267980-66d4-4445-9547-2c528ea5684c" d="M177.1,116.22c.25-.05.13-.12,0-.11a2.18,2.18,0,0,0-1.24.35c-.16.11-.09.29.16.39a.89.89,0,0,0,.75,0,.16.16,0,0,0,0-.26C176.65,116.43,176.75,116.29,177.1,116.22Z"/>
                <path class="4f7294c2-fef6-4759-ba0f-f2141b474653" d="M176.82,116.68a.17.17,0,0,1-.08.14.89.89,0,0,1-.75,0c-.16-.06-.25-.16-.25-.25s0,.57,0,.62.09.18.25.25a.89.89,0,0,0,.75,0,.17.17,0,0,0,.09-.14S176.82,116.68,176.82,116.68Z"/>
                <path class="c447070e-7d06-4e5a-bff7-d280dc62f7cc" d="M177.25,116.16s0,0-.14.06c-.3.06-.41.17-.37.29a1.16,1.16,0,0,1,.09.43.83.83,0,0,1,.28-.1c.1,0,.15,0,.14-.06S177.25,116.16,177.25,116.16Z"/>
                <path class="6d267980-66d4-4445-9547-2c528ea5684c" d="M178.15,115.69l-.77-.39-.65.33.55.28c.14.18.05.32-.3.39s-.13.12,0,.11a2.18,2.18,0,0,0,1.24-.35C178.4,115.95,178.35,115.79,178.15,115.69Z"/>
                <path class="4f7294c2-fef6-4759-ba0f-f2141b474653" d="M178.34,115.91a.18.18,0,0,1-.09.14,2.18,2.18,0,0,1-1.24.35c-.1,0-.17,0-.17,0V117s.08,0,.18,0a2.18,2.18,0,0,0,1.24-.35.18.18,0,0,0,.09-.14C178.34,116.44,178.34,115.91,178.34,115.91Z"/>
                <path class="c447070e-7d06-4e5a-bff7-d280dc62f7cc" d="M177.31,116s0,.23,0,.23A.14.14,0,0,0,177.31,116Z"/>
              </g>
              <path class="4f7294c2-fef6-4759-ba0f-f2141b474653" d="M176.66,163a1.88,1.88,0,0,1-.76-.06v2a.17.17,0,0,0,.09.13.67.67,0,0,0,.53.06c.09,0,.13-.08.13-.13Z"/>
            </g>
            <g>
              <g>
                <path class="6d267980-66d4-4445-9547-2c528ea5684c" d="M186.16,114.42l.92.47a1.7,1.7,0,0,0,1.37.05c.35-.18.31-.49-.1-.7l-.92-.47Z"/>
                <path class="964afdac-ed55-41eb-8916-6f7bd1619dbc" d="M188.07,114.74a.82.82,0,0,1-.66,0c-.2-.1-.22-.25,0-.34a.82.82,0,0,1,.66,0C188.21,114.51,188.23,114.66,188.07,114.74Z"/>
                <path class="964afdac-ed55-41eb-8916-6f7bd1619dbc" d="M188.68,114.63a.36.36,0,0,1-.24.3,1.7,1.7,0,0,1-1.37-.05l-.92-.47v.45l.92.47a1.7,1.7,0,0,0,1.37,0,.36.36,0,0,0,.24-.3C188.68,114.94,188.68,114.63,188.68,114.63Z"/>
              </g>
              <g>
                <path class="6d267980-66d4-4445-9547-2c528ea5684c" d="M186.16,156.15l.92.47a1.7,1.7,0,0,0,1.37.05c.35-.18.31-.49-.1-.7l-.92-.47Z"/>
                <path class="964afdac-ed55-41eb-8916-6f7bd1619dbc" d="M188.07,156.47a.82.82,0,0,1-.66,0c-.2-.1-.22-.25,0-.34a.82.82,0,0,1,.66,0C188.21,156.24,188.23,156.39,188.07,156.47Z"/>
                <path class="4f7294c2-fef6-4759-ba0f-f2141b474653" d="M188.68,156.36a.36.36,0,0,1-.24.3,1.7,1.7,0,0,1-1.37-.05l-.92-.47v.45l.92.47a1.7,1.7,0,0,0,1.37.05.36.36,0,0,0,.24-.3C188.68,156.67,188.68,156.36,188.68,156.36Z"/>
              </g>
              <path class="4f7294c2-fef6-4759-ba0f-f2141b474653" d="M188.07,156.47s0-41,0-41a1.88,1.88,0,0,1-.76-.06v41l.07,0A.82.82,0,0,0,188.07,156.47Z"/>
              <path class="4f7294c2-fef6-4759-ba0f-f2141b474653" d="M187.42,111.67l-.09,0v3.05l.07,0a.82.82,0,0,0,.66,0s0-3.06,0-3.06A1,1,0,0,1,187.42,111.67Z"/>
              <g>
                <polygon class="a625a2f5-2fc9-49e0-b75a-2a6adfa3ba90" points="186.35 146.34 186.78 146.56 186.78 144.98 186.35 144.76 186.35 146.34"/>
                <polygon class="13ef6249-4ba6-4ca7-8e4f-2ede02a3e507" points="186.78 146.56 187.76 146.06 187.76 144.48 186.78 144.98 186.78 146.56"/>
                <g>
                  <polygon class="6d267980-66d4-4445-9547-2c528ea5684c" points="185.34 145.88 186.67 145.2 186.46 145.09 185.34 145.66 185.34 145.88"/>
                  <polygon class="63e2828f-deb3-4911-b167-65ce10d68270" points="185.34 146.92 186.67 146.24 186.67 145.2 185.34 145.88 185.34 146.92"/>
                </g>
                <path class="6d267980-66d4-4445-9547-2c528ea5684c" d="M187.43,144.39a.17.17,0,0,1-.09-.13l-1,.5.43.22,1-.5A.65.65,0,0,1,187.43,144.39Z"/>
                <path class="63e2828f-deb3-4911-b167-65ce10d68270" d="M183.3,146.59v1.9c0,.57.4.84.89.59l.26-.13a1.82,1.82,0,0,0,.89-1.49v-1.9c0-.57-.4-.84-.89-.59l-.26.13A1.82,1.82,0,0,0,183.3,146.59Zm.33-.17a1.15,1.15,0,0,1,.56-.94l.26-.13c.31-.16.56,0,.56.37v1.9a1.15,1.15,0,0,1-.56.94l-.26.13c-.31.16-.56,0-.56-.37Z"/>
                <path class="a625a2f5-2fc9-49e0-b75a-2a6adfa3ba90" d="M184.58,145.5v1.9a1.15,1.15,0,0,1-.56.94l-.26.13-.1,0a.34.34,0,0,0,.53.18l.26-.13a1.15,1.15,0,0,0,.56-.94v-1.9c0-.32-.2-.49-.46-.41A.61.61,0,0,1,184.58,145.5Z"/>
                <path class="3fc56ff6-0a13-4b6f-b9c5-123c60d4f32c" d="M183.3,148.5v-1.9a1.82,1.82,0,0,1,.89-1.49l.26-.13a.63.63,0,0,1,.59,0l-.44-.23a.63.63,0,0,0-.58,0l-.26.13a1.82,1.82,0,0,0-.89,1.49v1.9a.66.66,0,0,0,.31.63l.44.22A.66.66,0,0,1,183.3,148.5Z"/>
              </g>
              <g>
                <polygon class="964afdac-ed55-41eb-8916-6f7bd1619dbc" points="188.16 158.77 188.72 159.05 188.72 158.43 188.16 158.15 188.16 158.77"/>
                <path class="6d267980-66d4-4445-9547-2c528ea5684c" d="M188.53,158.74c.25-.05.13-.12,0-.11a2.18,2.18,0,0,0-1.24.35c-.16.11-.09.29.16.39a.89.89,0,0,0,.75,0,.16.16,0,0,0,0-.26C188.09,159,188.18,158.81,188.53,158.74Z"/>
                <path class="964afdac-ed55-41eb-8916-6f7bd1619dbc" d="M188.25,159.2a.17.17,0,0,1-.08.14.89.89,0,0,1-.75,0c-.16-.06-.25-.16-.25-.25s0,.57,0,.62.09.18.25.25a.89.89,0,0,0,.75,0,.17.17,0,0,0,.09-.14S188.25,159.2,188.25,159.2Z"/>
                <path class="c447070e-7d06-4e5a-bff7-d280dc62f7cc" d="M188.68,158.67s0,0-.14.06c-.3.06-.41.17-.37.29a1.16,1.16,0,0,1,.09.43.83.83,0,0,1,.28-.1c.1,0,.15,0,.14-.06S188.68,158.67,188.68,158.67Z"/>
                <path class="6d267980-66d4-4445-9547-2c528ea5684c" d="M189.58,158.21l-.77-.39-.65.33.55.28c.14.18.05.32-.3.39s-.13.12,0,.11a2.18,2.18,0,0,0,1.24-.35C189.84,158.46,189.79,158.31,189.58,158.21Z"/>
                <path class="964afdac-ed55-41eb-8916-6f7bd1619dbc" d="M189.78,158.43a.18.18,0,0,1-.09.14,2.18,2.18,0,0,1-1.24.35c-.1,0-.17,0-.17,0v.62s.08,0,.18,0a2.18,2.18,0,0,0,1.24-.35.17.17,0,0,0,.09-.14C189.78,159,189.78,158.43,189.78,158.43Z"/>
                <path class="c447070e-7d06-4e5a-bff7-d280dc62f7cc" d="M188.75,158.47s0,.23,0,.23A.14.14,0,0,0,188.75,158.47Z"/>
              </g>
              <g>
                <polygon class="964afdac-ed55-41eb-8916-6f7bd1619dbc" points="188.16 110.44 188.72 110.72 188.72 110.1 188.16 109.81 188.16 110.44"/>
                <path class="6d267980-66d4-4445-9547-2c528ea5684c" d="M188.53,110.41c.25-.05.13-.12,0-.11a2.18,2.18,0,0,0-1.24.35c-.16.11-.09.29.16.39a.89.89,0,0,0,.75,0,.16.16,0,0,0,0-.26C188.09,110.62,188.18,110.48,188.53,110.41Z"/>
                <path class="4f7294c2-fef6-4759-ba0f-f2141b474653" d="M188.25,110.87a.17.17,0,0,1-.08.14.89.89,0,0,1-.75,0c-.16-.06-.25-.16-.25-.25s0,.57,0,.62.09.18.25.25a.89.89,0,0,0,.75,0,.17.17,0,0,0,.09-.14S188.25,110.87,188.25,110.87Z"/>
                <path class="c447070e-7d06-4e5a-bff7-d280dc62f7cc" d="M188.68,110.34s0,0-.14.06c-.3.06-.41.17-.37.29a1.16,1.16,0,0,1,.09.43.83.83,0,0,1,.28-.1c.1,0,.15,0,.14-.06S188.68,110.34,188.68,110.34Z"/>
                <path class="6d267980-66d4-4445-9547-2c528ea5684c" d="M189.58,109.88l-.77-.39-.65.33.55.28c.14.18.05.32-.3.39s-.13.12,0,.11a2.18,2.18,0,0,0,1.24-.35C189.84,110.13,189.79,110,189.58,109.88Z"/>
                <path class="4f7294c2-fef6-4759-ba0f-f2141b474653" d="M189.78,110.1a.18.18,0,0,1-.09.14,2.18,2.18,0,0,1-1.24.35c-.1,0-.17,0-.17,0v.62s.08,0,.18,0a2.18,2.18,0,0,0,1.24-.35.18.18,0,0,0,.09-.14C189.78,110.63,189.78,110.1,189.78,110.1Z"/>
                <path class="c447070e-7d06-4e5a-bff7-d280dc62f7cc" d="M188.75,110.14s0,.23,0,.23A.14.14,0,0,0,188.75,110.14Z"/>
              </g>
              <path class="4f7294c2-fef6-4759-ba0f-f2141b474653" d="M188.09,157.21a1.88,1.88,0,0,1-.76-.06v2a.17.17,0,0,0,.09.13.67.67,0,0,0,.53.06c.09,0,.13-.08.13-.13Z"/>
            </g>
            <g>
              <g>
                <path class="6d267980-66d4-4445-9547-2c528ea5684c" d="M180,159.28l.92.47a1.71,1.71,0,0,0,1.37.05c.35-.18.31-.49-.1-.7l-.92-.47Z"/>
                <path class="964afdac-ed55-41eb-8916-6f7bd1619dbc" d="M181.91,159.6a.82.82,0,0,1-.66,0c-.19-.1-.22-.25,0-.34a.82.82,0,0,1,.66,0C182.06,159.36,182.08,159.51,181.91,159.6Z"/>
                <path class="964afdac-ed55-41eb-8916-6f7bd1619dbc" d="M182.53,159.49a.36.36,0,0,1-.24.3,1.71,1.71,0,0,1-1.37-.05l-.92-.47v.45l.92.47a1.71,1.71,0,0,0,1.37.05.36.36,0,0,0,.24-.3C182.53,159.8,182.53,159.49,182.53,159.49Z"/>
              </g>
              <g>
                <path class="6d267980-66d4-4445-9547-2c528ea5684c" d="M180,117.55l.92.47a1.71,1.71,0,0,0,1.37.05c.35-.18.31-.49-.1-.7l-.92-.47Z"/>
                <path class="964afdac-ed55-41eb-8916-6f7bd1619dbc" d="M181.91,117.87a.82.82,0,0,1-.66,0c-.19-.1-.22-.25,0-.34a.82.82,0,0,1,.66,0C182.06,117.64,182.08,117.79,181.91,117.87Z"/>
                <path class="4f7294c2-fef6-4759-ba0f-f2141b474653" d="M182.53,117.76a.36.36,0,0,1-.24.3,1.71,1.71,0,0,1-1.37-.05l-.92-.47V118l.92.47a1.71,1.71,0,0,0,1.37.05.36.36,0,0,0,.24-.3C182.53,118.07,182.53,117.76,182.53,117.76Z"/>
              </g>
              <g>
                <path class="63e2828f-deb3-4911-b167-65ce10d68270" d="M185.5,150.81l-.26.13a1.82,1.82,0,0,0-.89,1.49v1.9c0,.57.4.84.89.59l.26-.13a1.82,1.82,0,0,0,.89-1.49v-1.9C186.39,150.82,186,150.56,185.5,150.81Zm.56,2.66a1.15,1.15,0,0,1-.56.94l-.26.13c-.31.16-.56,0-.56-.37v-1.9a1.15,1.15,0,0,1,.56-.94l.26-.13c.31-.16.56,0,.56.37Z"/>
                <path class="a625a2f5-2fc9-49e0-b75a-2a6adfa3ba90" d="M185.63,151.34v1.9a1.15,1.15,0,0,1-.56.94l-.26.13-.1,0a.34.34,0,0,0,.53.18l.26-.13a1.15,1.15,0,0,0,.56-.94v-1.9c0-.32-.2-.49-.46-.41A.61.61,0,0,1,185.63,151.34Z"/>
                <path class="3fc56ff6-0a13-4b6f-b9c5-123c60d4f32c" d="M184.35,154.34v-1.9a1.82,1.82,0,0,1,.89-1.49l.26-.13a.62.62,0,0,1,.6,0l-.45-.23a.63.63,0,0,0-.58,0l-.26.13a1.82,1.82,0,0,0-.89,1.49v1.9a.66.66,0,0,0,.31.63l.43.22A.66.66,0,0,1,184.35,154.34Z"/>
              </g>
              <path class="4f7294c2-fef6-4759-ba0f-f2141b474653" d="M181.91,159.6s0-41,0-41a1.88,1.88,0,0,1-.76-.06v41l.07,0A.82.82,0,0,0,181.91,159.6Z"/>
              <path class="4f7294c2-fef6-4759-ba0f-f2141b474653" d="M181.39,114.84l-.22,0v3l.07,0a.82.82,0,0,0,.66,0s0-3.06,0-3.06A1,1,0,0,1,181.39,114.84Z"/>
              <g>
                <polygon class="3fc56ff6-0a13-4b6f-b9c5-123c60d4f32c" points="182.91 153.33 181.93 153.83 181.93 153.39 182.48 153.11 182.91 153.33"/>
                <g>
                  <path class="3fc56ff6-0a13-4b6f-b9c5-123c60d4f32c" d="M184.24,152.81l-1.34.68v-.16a10,10,0,0,1,1.12-.63Z"/>
                  <polygon class="63e2828f-deb3-4911-b167-65ce10d68270" points="184.25 153.85 182.91 154.53 182.91 153.49 184.25 152.81 184.25 153.85"/>
                </g>
                <polygon class="13ef6249-4ba6-4ca7-8e4f-2ede02a3e507" points="182.91 154.91 181.93 155.41 181.93 153.83 182.91 153.33 182.91 154.91"/>
              </g>
              <g>
                <g>
                  <path class="964afdac-ed55-41eb-8916-6f7bd1619dbc" d="M182.09,162.34c0,.08-.06.15-.19.19a1,1,0,0,1-.51,0,1,1,0,0,0-.28,0v.62a1,1,0,0,1,.28,0,1,1,0,0,0,.51,0c.12,0,.19-.12.19-.19S182.09,162.34,182.09,162.34Z"/>
                  <path class="3a102a04-82b8-4399-adbe-b62241f9e314" d="M180.71,162.72c-.09.12-.21.07-.21,0v.62c0,.07.12.12.21,0a.55.55,0,0,1,.4-.19v-.62A.55.55,0,0,0,180.71,162.72Z"/>
                  <path class="6d267980-66d4-4445-9547-2c528ea5684c" d="M181.2,162.07c-.38.14-.62.31-.69.63,0,.08.11.14.21,0a.67.67,0,0,1,.68-.17,1,1,0,0,0,.51,0c.23-.08.25-.25.06-.38A1,1,0,0,0,181.2,162.07Z"/>
                </g>
                <path class="964afdac-ed55-41eb-8916-6f7bd1619dbc" d="M181.08,162.66c-.07.34-.32.51-.7.65a1,1,0,0,1-.76-.08l-.72-.36v.62l.77.39a1,1,0,0,0,.71.06c.38-.14.62-.31.69-.63C181.08,163.21,181.08,162.66,181.08,162.66Z"/>
                <path class="6d267980-66d4-4445-9547-2c528ea5684c" d="M180.87,162.66a.67.67,0,0,1-.68.17l-.12,0-.52-.26-.65.33.77.39a1,1,0,0,0,.71.06c.38-.14.62-.31.69-.63C181.09,162.59,181,162.53,180.87,162.66Z"/>
              </g>
              <g>
                <g>
                  <path class="4f7294c2-fef6-4759-ba0f-f2141b474653" d="M182.09,114c0,.08-.06.15-.19.19a1,1,0,0,1-.51,0,1,1,0,0,0-.28,0v.62a1,1,0,0,1,.28,0,1,1,0,0,0,.51,0c.12,0,.19-.12.19-.19S182.09,114,182.09,114Z"/>
                  <path class="3a102a04-82b8-4399-adbe-b62241f9e314" d="M180.71,114.39c-.09.12-.21.07-.21,0V115c0,.07.12.12.21,0a.55.55,0,0,1,.4-.19v-.62A.55.55,0,0,0,180.71,114.39Z"/>
                  <path class="6d267980-66d4-4445-9547-2c528ea5684c" d="M181.2,113.74c-.38.14-.62.31-.69.63,0,.08.11.14.21,0a.67.67,0,0,1,.68-.17,1,1,0,0,0,.51,0c.23-.08.25-.25.06-.38A1,1,0,0,0,181.2,113.74Z"/>
                </g>
                <path class="964afdac-ed55-41eb-8916-6f7bd1619dbc" d="M181.08,114.33c-.07.34-.32.51-.7.65a1,1,0,0,1-.76-.08l-.72-.36v.62l.77.39a1,1,0,0,0,.71.06c.38-.14.62-.31.69-.63C181.08,114.87,181.08,114.33,181.08,114.33Z"/>
                <path class="6d267980-66d4-4445-9547-2c528ea5684c" d="M180.87,114.33a.67.67,0,0,1-.68.17l-.12,0-.52-.26-.65.33.77.39a1,1,0,0,0,.71.06c.38-.14.62-.31.69-.63C181.09,114.26,181,114.2,180.87,114.33Z"/>
              </g>
              <path class="4f7294c2-fef6-4759-ba0f-f2141b474653" d="M181.18,160.29v2c0,.06.06.13.17.17a.62.62,0,0,0,.52,0,.12.12,0,0,0,.06-.1s0-2,0-2A1.88,1.88,0,0,1,181.18,160.29Z"/>
            </g>
            <g>
              <g>
                <path class="6d267980-66d4-4445-9547-2c528ea5684c" d="M168.61,165.08l.92.47a1.71,1.71,0,0,0,1.37.05c.35-.18.31-.49-.1-.7l-.92-.47Z"/>
                <path class="964afdac-ed55-41eb-8916-6f7bd1619dbc" d="M170.52,165.4a.82.82,0,0,1-.66,0c-.19-.1-.22-.25,0-.34a.82.82,0,0,1,.66,0C170.67,165.16,170.69,165.31,170.52,165.4Z"/>
                <path class="964afdac-ed55-41eb-8916-6f7bd1619dbc" d="M171.14,165.29a.36.36,0,0,1-.24.3,1.71,1.71,0,0,1-1.37-.05l-.92-.47v.45l.92.47a1.71,1.71,0,0,0,1.37.05.36.36,0,0,0,.24-.3C171.14,165.6,171.14,165.29,171.14,165.29Z"/>
              </g>
              <g>
                <path class="6d267980-66d4-4445-9547-2c528ea5684c" d="M168.61,123.35l.92.47a1.71,1.71,0,0,0,1.37.05c.35-.18.31-.49-.1-.7l-.92-.47Z"/>
                <path class="964afdac-ed55-41eb-8916-6f7bd1619dbc" d="M170.52,123.67a.82.82,0,0,1-.66,0c-.19-.1-.22-.25,0-.34a.82.82,0,0,1,.66,0C170.67,123.44,170.69,123.59,170.52,123.67Z"/>
                <path class="4f7294c2-fef6-4759-ba0f-f2141b474653" d="M171.14,123.56a.36.36,0,0,1-.24.3,1.71,1.71,0,0,1-1.37-.05l-.92-.47v.45l.92.47a1.71,1.71,0,0,0,1.37.05.36.36,0,0,0,.24-.3C171.14,123.87,171.14,123.56,171.14,123.56Z"/>
              </g>
              <g>
                <path class="63e2828f-deb3-4911-b167-65ce10d68270" d="M174.11,150.23l-.26.13a1.82,1.82,0,0,0-.89,1.49v1.9c0,.57.4.84.89.59l.26-.13a1.82,1.82,0,0,0,.89-1.49v-1.9C175,150.25,174.6,150,174.11,150.23Zm.56,2.66a1.15,1.15,0,0,1-.56.94l-.26.13c-.31.16-.56,0-.56-.37v-1.9a1.15,1.15,0,0,1,.56-.94l.26-.13c.31-.16.56,0,.56.37Z"/>
                <path class="a625a2f5-2fc9-49e0-b75a-2a6adfa3ba90" d="M174.24,150.77v1.9a1.15,1.15,0,0,1-.56.94l-.26.13-.1,0a.34.34,0,0,0,.53.18l.26-.13a1.15,1.15,0,0,0,.56-.94V151c0-.32-.2-.49-.46-.41A.61.61,0,0,1,174.24,150.77Z"/>
                <path class="3fc56ff6-0a13-4b6f-b9c5-123c60d4f32c" d="M173,153.76v-1.9a1.82,1.82,0,0,1,.89-1.49l.26-.13a.62.62,0,0,1,.6,0l-.45-.23a.63.63,0,0,0-.58,0l-.26.13a1.82,1.82,0,0,0-.89,1.49v1.9a.66.66,0,0,0,.31.63l.43.22A.66.66,0,0,1,173,153.76Z"/>
              </g>
              <path class="4f7294c2-fef6-4759-ba0f-f2141b474653" d="M170.52,165.4s0-41,0-41a1.88,1.88,0,0,1-.76-.06v41l.07,0A.82.82,0,0,0,170.52,165.4Z"/>
              <path class="4f7294c2-fef6-4759-ba0f-f2141b474653" d="M170,120.64l-.22,0v3l.07,0a.82.82,0,0,0,.66,0s0-3.06,0-3.06A1,1,0,0,1,170,120.64Z"/>
              <g>
                <polygon class="6d267980-66d4-4445-9547-2c528ea5684c" points="171.52 152.75 170.54 153.25 170.54 152.81 171.09 152.53 171.52 152.75"/>
                <g>
                  <path class="6d267980-66d4-4445-9547-2c528ea5684c" d="M172.85,152.23l-1.34.68v-.16a10,10,0,0,1,1.12-.63Z"/>
                  <polygon class="63e2828f-deb3-4911-b167-65ce10d68270" points="172.85 153.28 171.52 153.96 171.52 152.91 172.85 152.23 172.85 153.28"/>
                </g>
                <polygon class="13ef6249-4ba6-4ca7-8e4f-2ede02a3e507" points="171.52 154.34 170.54 154.83 170.54 153.25 171.52 152.75 171.52 154.34"/>
              </g>
              <g>
                <g>
                  <path class="964afdac-ed55-41eb-8916-6f7bd1619dbc" d="M170.7,168.14c0,.08-.06.15-.19.19a1,1,0,0,1-.51,0,1,1,0,0,0-.28,0V169a1,1,0,0,1,.28,0,1,1,0,0,0,.51,0c.12,0,.19-.12.19-.19S170.7,168.14,170.7,168.14Z"/>
                  <path class="3a102a04-82b8-4399-adbe-b62241f9e314" d="M169.32,168.52c-.09.12-.21.07-.21,0v.62c0,.07.12.12.21,0a.55.55,0,0,1,.4-.19v-.62A.55.55,0,0,0,169.32,168.52Z"/>
                  <path class="6d267980-66d4-4445-9547-2c528ea5684c" d="M169.81,167.87c-.38.14-.62.31-.69.63,0,.08.11.14.21,0a.67.67,0,0,1,.68-.17,1,1,0,0,0,.51,0c.23-.08.25-.25.06-.38A1,1,0,0,0,169.81,167.87Z"/>
                </g>
                <path class="964afdac-ed55-41eb-8916-6f7bd1619dbc" d="M169.69,168.46c-.07.34-.32.51-.7.65a1,1,0,0,1-.76-.08l-.72-.36v.62l.77.39a1,1,0,0,0,.71.06c.38-.14.62-.31.69-.63C169.68,169,169.69,168.46,169.69,168.46Z"/>
                <path class="6d267980-66d4-4445-9547-2c528ea5684c" d="M169.48,168.46a.67.67,0,0,1-.68.17l-.12,0-.52-.26-.65.33.77.39a1,1,0,0,0,.71.06c.38-.14.62-.31.69-.63C169.7,168.39,169.57,168.33,169.48,168.46Z"/>
              </g>
              <g>
                <g>
                  <path class="4f7294c2-fef6-4759-ba0f-f2141b474653" d="M170.7,119.81c0,.08-.06.15-.19.19a1,1,0,0,1-.51,0,1,1,0,0,0-.28,0v.62a1,1,0,0,1,.28,0,1,1,0,0,0,.51,0c.12,0,.19-.12.19-.19S170.7,119.81,170.7,119.81Z"/>
                  <path class="3a102a04-82b8-4399-adbe-b62241f9e314" d="M169.32,120.19c-.09.12-.21.07-.21,0v.62c0,.07.12.12.21,0a.55.55,0,0,1,.4-.19V120A.55.55,0,0,0,169.32,120.19Z"/>
                  <path class="6d267980-66d4-4445-9547-2c528ea5684c" d="M169.81,119.54c-.38.14-.62.31-.69.63,0,.08.11.14.21,0A.67.67,0,0,1,170,120a1,1,0,0,0,.51,0c.23-.08.25-.25.06-.38A1,1,0,0,0,169.81,119.54Z"/>
                </g>
                <path class="4f7294c2-fef6-4759-ba0f-f2141b474653" d="M169.69,120.13c-.07.34-.32.51-.7.65a1,1,0,0,1-.76-.08l-.72-.36v.62l.77.39a1,1,0,0,0,.71.06c.38-.14.62-.31.69-.63C169.68,120.67,169.69,120.13,169.69,120.13Z"/>
                <path class="6d267980-66d4-4445-9547-2c528ea5684c" d="M169.48,120.13a.67.67,0,0,1-.68.17l-.12,0-.52-.26-.65.33.77.39a1,1,0,0,0,.71.06c.38-.14.62-.31.69-.63C169.7,120.06,169.57,120,169.48,120.13Z"/>
              </g>
              <path class="4f7294c2-fef6-4759-ba0f-f2141b474653" d="M169.79,166.09v2c0,.06.06.13.17.17a.62.62,0,0,0,.52,0,.12.12,0,0,0,.06-.1s0-2,0-2A1.88,1.88,0,0,1,169.79,166.09Z"/>
            </g>
          </g>
          <polygon class="403ab6d0-dc50-4e3e-80b5-59fa3aec1155" points="156.61 125.43 156.61 175.69 0.61 96.33 0.61 46.07 156.61 125.43"/>
          <g>
            <polygon class="32af9d96-d3bb-4f3e-ad14-c5013d3b796c" points="43.38 24 46.26 25.45 45.95 25.62 43.38 24.31 40.81 25.62 40.5 25.46 43.38 24"/>
            <polygon class="352368d4-09b5-4885-9336-17e0d23e3637" points="40.5 25.46 40.5 25.78 40.81 25.62 40.5 25.46"/>
            <polygon class="352368d4-09b5-4885-9336-17e0d23e3637" points="46.26 25.45 46.26 25.78 45.95 25.62 46.26 25.45"/>
          </g>
          <g>
            <polygon class="8ea605af-69fb-41f0-82c3-fb9b632acbe0" points="0 46.07 0 48.22 2.88 49.68 2.88 47.53 0 46.07"/>
            <polygon class="32af9d96-d3bb-4f3e-ad14-c5013d3b796c" points="2.88 47.53 3.19 47.38 0.61 46.07 3.19 44.76 2.88 44.6 0 46.07 2.88 47.53"/>
            <polygon class="5c6fb774-524b-4be4-b73c-394ec841509f" points="3.19 47.38 3.19 49.53 2.88 49.68 2.88 47.53 3.19 47.38"/>
            <g>
              <path class="5c6fb774-524b-4be4-b73c-394ec841509f" d="M1.44,47.07c-.44-.22-.8,0-.8.4a1.52,1.52,0,0,0,.8,1.22c.44.22.8,0,.8-.4A1.52,1.52,0,0,0,1.44,47.07Z"/>
              <path class="352368d4-09b5-4885-9336-17e0d23e3637" d="M1.69,48.55a1.52,1.52,0,0,1-.8-1.22A.53.53,0,0,1,1,47a.74.74,0,0,1,.42.09,1.52,1.52,0,0,1,.8,1.22.53.53,0,0,1-.12.36A.74.74,0,0,1,1.69,48.55Z"/>
            </g>
          </g>
          <g>
            <g>
              <polygon class="bbc07577-492a-4543-a68a-305a267888a0" points="159.85 124.14 159.85 126.55 156.61 128.19 156.61 125.78 159.85 124.14"/>
              <polygon class="8ea605af-69fb-41f0-82c3-fb9b632acbe0" points="153.38 124.14 153.38 126.55 156.61 128.19 156.61 125.78 153.38 124.14"/>
              <polygon class="32af9d96-d3bb-4f3e-ad14-c5013d3b796c" points="153.72 123.96 156.61 125.43 159.5 123.96 159.85 124.14 156.61 125.78 153.38 124.14 153.72 123.96"/>
            </g>
            <g>
              <path class="5c6fb774-524b-4be4-b73c-394ec841509f" d="M155,125.25c-.5-.25-.9-.05-.9.45a1.71,1.71,0,0,0,.9,1.37c.49.25.9,0,.9-.45A1.71,1.71,0,0,0,155,125.25Z"/>
              <path class="352368d4-09b5-4885-9336-17e0d23e3637" d="M155.28,126.92a1.71,1.71,0,0,1-.9-1.37.6.6,0,0,1,.14-.4.83.83,0,0,1,.47.1,1.71,1.71,0,0,1,.89,1.37.6.6,0,0,1-.14.41A.83.83,0,0,1,155.28,126.92Z"/>
            </g>
            <g>
              <path class="588f3454-5e4c-481d-b1e1-9875f1727721" d="M158.23,125.25c.5-.25.9-.05.9.45a1.71,1.71,0,0,1-.9,1.37c-.49.25-.9,0-.9-.45A1.71,1.71,0,0,1,158.23,125.25Z"/>
              <path class="c3d40e44-0154-4949-b825-947acd285a6d" d="M157.94,126.92a1.71,1.71,0,0,0,.9-1.37.6.6,0,0,0-.14-.4.83.83,0,0,0-.47.1,1.71,1.71,0,0,0-.89,1.37.6.6,0,0,0,.14.41A.83.83,0,0,0,157.94,126.92Z"/>
            </g>
          </g>
          <g>
            <polygon class="bbc07577-492a-4543-a68a-305a267888a0" points="200 103.67 200 105.82 197.12 107.28 197.12 105.14 200 103.67"/>
            <polygon class="32af9d96-d3bb-4f3e-ad14-c5013d3b796c" points="196.81 104.98 199.38 103.67 196.8 102.37 197.12 102.2 200 103.67 197.12 105.14 196.81 104.98"/>
            <polygon class="352368d4-09b5-4885-9336-17e0d23e3637" points="196.81 104.98 196.81 107.13 197.12 107.28 197.12 105.14 196.81 104.98"/>
            <g>
              <path class="588f3454-5e4c-481d-b1e1-9875f1727721" d="M198.56,104.67c.44-.22.8,0,.8.4a1.52,1.52,0,0,1-.8,1.22c-.44.22-.8,0-.8-.4A1.52,1.52,0,0,1,198.56,104.67Z"/>
              <path class="c3d40e44-0154-4949-b825-947acd285a6d" d="M198.31,106.15a1.52,1.52,0,0,0,.8-1.22.53.53,0,0,0-.12-.36.74.74,0,0,0-.42.09,1.52,1.52,0,0,0-.8,1.22.53.53,0,0,0,.12.36A.74.74,0,0,0,198.31,106.15Z"/>
            </g>
          </g>
          <g>
            <polygon class="8ea605af-69fb-41f0-82c3-fb9b632acbe0" points="0 94.19 0 96.34 2.88 97.8 2.88 95.65 0 94.19"/>
            <polygon class="e096eaae-35ba-41fc-9b18-97a6df1110a4" points="2.88 95.65 3.19 95.5 0.61 94.19 0.61 93.88 0 94.19 2.88 95.65"/>
            <polygon class="7d76fde5-5d13-4aca-8f7f-27c82e24e2d9" points="3.19 95.5 3.19 97.64 2.88 97.8 2.88 95.65 3.19 95.5"/>
            <g>
              <path class="5c6fb774-524b-4be4-b73c-394ec841509f" d="M1.44,95.19c-.44-.22-.8,0-.8.4a1.52,1.52,0,0,0,.8,1.22c.44.22.8,0,.8-.4A1.52,1.52,0,0,0,1.44,95.19Z"/>
              <path class="352368d4-09b5-4885-9336-17e0d23e3637" d="M1.69,96.67a1.52,1.52,0,0,1-.8-1.22A.53.53,0,0,1,1,95.09a.74.74,0,0,1,.42.09,1.52,1.52,0,0,1,.8,1.22.53.53,0,0,1-.12.36A.74.74,0,0,1,1.69,96.67Z"/>
            </g>
          </g>
          <g>
            <g>
              <polygon class="bbc07577-492a-4543-a68a-305a267888a0" points="159.49 172.39 159.49 174.53 156.61 176 156.61 173.85 159.49 172.39"/>
              <polygon class="8ea605af-69fb-41f0-82c3-fb9b632acbe0" points="153.73 172.39 153.73 174.53 156.61 176 156.61 173.85 153.73 172.39"/>
              <polygon class="32af9d96-d3bb-4f3e-ad14-c5013d3b796c" points="154.04 172.23 156.61 173.54 159.19 172.23 159.49 172.39 156.61 173.85 153.73 172.39 154.04 172.23"/>
            </g>
            <g>
              <path class="5c6fb774-524b-4be4-b73c-394ec841509f" d="M155.17,173.38c-.44-.22-.8,0-.8.4a1.52,1.52,0,0,0,.8,1.22c.44.22.8,0,.8-.4A1.52,1.52,0,0,0,155.17,173.38Z"/>
              <path class="352368d4-09b5-4885-9336-17e0d23e3637" d="M155.43,174.87a1.52,1.52,0,0,1-.8-1.22.53.53,0,0,1,.12-.36.74.74,0,0,1,.42.09,1.52,1.52,0,0,1,.8,1.22.53.53,0,0,1-.12.36A.74.74,0,0,1,155.43,174.87Z"/>
            </g>
            <g>
              <path class="588f3454-5e4c-481d-b1e1-9875f1727721" d="M158.05,173.38c.44-.22.8,0,.8.4a1.52,1.52,0,0,1-.8,1.22c-.44.22-.8,0-.8-.4A1.52,1.52,0,0,1,158.05,173.38Z"/>
              <path class="c3d40e44-0154-4949-b825-947acd285a6d" d="M157.8,174.87a1.52,1.52,0,0,0,.8-1.22.53.53,0,0,0-.12-.36.74.74,0,0,0-.42.09,1.52,1.52,0,0,0-.8,1.22.53.53,0,0,0,.12.36A.74.74,0,0,0,157.8,174.87Z"/>
            </g>
          </g>
          <g>
            <polygon class="bbc07577-492a-4543-a68a-305a267888a0" points="200 151.78 200 153.93 197.12 155.39 197.12 153.24 200 151.78"/>
            <polygon class="32af9d96-d3bb-4f3e-ad14-c5013d3b796c" points="196.81 153.09 199.38 151.78 199.39 151.47 200 151.78 197.12 153.24 196.81 153.09"/>
            <polygon class="403ab6d0-dc50-4e3e-80b5-59fa3aec1155" points="196.81 153.09 196.81 155.23 197.12 155.39 197.12 153.24 196.81 153.09"/>
            <g>
              <path class="588f3454-5e4c-481d-b1e1-9875f1727721" d="M198.56,152.78c.44-.22.8,0,.8.4a1.52,1.52,0,0,1-.8,1.22c-.44.22-.8,0-.8-.4A1.52,1.52,0,0,1,198.56,152.78Z"/>
              <path class="c3d40e44-0154-4949-b825-947acd285a6d" d="M198.31,154.26a1.52,1.52,0,0,0,.8-1.22.53.53,0,0,0-.12-.36.74.74,0,0,0-.42.09,1.52,1.52,0,0,0-.8,1.22.53.53,0,0,0,.12.36A.74.74,0,0,0,198.31,154.26Z"/>
            </g>
          </g>
        </g>
        <polygon class="d382e30a-843d-465d-8863-d3bfa4763e79" points="0 96.34 0 94.19 0.61 93.88 0.61 48.53 0 48.22 0 46.07 2.88 47.53 3.19 47.38 153.73 123.94 153.38 124.11 156.61 125.76 156.61 173.54 154.04 172.23 153.73 172.39 153.73 174.23 3.19 97.64 2.88 97.8 0 96.34"/>
        <g>
          <g>
            <polygon class="5c6fb774-524b-4be4-b73c-394ec841509f" points="4.73 49.75 4.73 95.87 6.56 96.8 6.56 50.67 4.73 49.75"/>
            <polygon class="d0c48d00-a8b5-4243-ad0a-920558562669" points="3.77 49.26 3.77 96.36 4.73 95.87 4.73 49.75 3.77 49.26"/>
            <polygon class="17a791a1-feee-46b4-8077-586153b63191" points="4.73 95.87 3.77 96.36 6.56 97.78 6.56 96.8 4.73 95.87"/>
          </g>
          <g>
            <polygon class="5c6fb774-524b-4be4-b73c-394ec841509f" points="10.17 52.52 10.17 98.64 12 99.57 12 53.44 10.17 52.52"/>
            <polygon class="d0c48d00-a8b5-4243-ad0a-920558562669" points="9.21 52.02 9.21 99.13 10.17 98.64 10.17 52.52 9.21 52.02"/>
            <polygon class="17a791a1-feee-46b4-8077-586153b63191" points="10.17 98.64 9.21 99.13 12 100.55 12 99.57 10.17 98.64"/>
          </g>
          <g>
            <polygon class="5c6fb774-524b-4be4-b73c-394ec841509f" points="15.61 55.28 15.61 101.41 17.44 102.33 17.44 56.21 15.61 55.28"/>
            <polygon class="d0c48d00-a8b5-4243-ad0a-920558562669" points="14.65 54.79 14.65 101.9 15.61 101.41 15.61 55.28 14.65 54.79"/>
            <polygon class="17a791a1-feee-46b4-8077-586153b63191" points="15.61 101.41 14.65 101.9 17.44 103.31 17.44 102.33 15.61 101.41"/>
          </g>
          <g>
            <polygon class="5c6fb774-524b-4be4-b73c-394ec841509f" points="21.05 58.05 21.05 104.17 22.88 105.1 22.88 58.98 21.05 58.05"/>
            <polygon class="d0c48d00-a8b5-4243-ad0a-920558562669" points="20.09 57.56 20.09 104.66 21.05 104.17 21.05 58.05 20.09 57.56"/>
            <polygon class="17a791a1-feee-46b4-8077-586153b63191" points="21.05 104.17 20.09 104.66 22.88 106.08 22.88 105.1 21.05 104.17"/>
          </g>
          <g>
            <polygon class="5c6fb774-524b-4be4-b73c-394ec841509f" points="26.5 60.82 26.5 106.94 28.32 107.87 28.32 61.75 26.5 60.82"/>
            <polygon class="d0c48d00-a8b5-4243-ad0a-920558562669" points="25.53 60.33 25.53 107.43 26.5 106.94 26.5 60.82 25.53 60.33"/>
            <polygon class="17a791a1-feee-46b4-8077-586153b63191" points="26.5 106.94 25.53 107.43 28.32 108.85 28.32 107.87 26.5 106.94"/>
          </g>
          <g>
            <polygon class="5c6fb774-524b-4be4-b73c-394ec841509f" points="31.94 63.59 31.94 109.71 33.76 110.64 33.76 64.51 31.94 63.59"/>
            <polygon class="d0c48d00-a8b5-4243-ad0a-920558562669" points="30.97 63.1 30.97 110.2 31.94 109.71 31.94 63.59 30.97 63.1"/>
            <polygon class="17a791a1-feee-46b4-8077-586153b63191" points="31.94 109.71 30.97 110.2 33.76 111.62 33.76 110.64 31.94 109.71"/>
          </g>
          <g>
            <polygon class="5c6fb774-524b-4be4-b73c-394ec841509f" points="37.38 66.35 37.38 112.48 39.2 113.41 39.2 67.28 37.38 66.35"/>
            <polygon class="d0c48d00-a8b5-4243-ad0a-920558562669" points="36.41 65.86 36.41 112.97 37.38 112.48 37.38 66.35 36.41 65.86"/>
            <polygon class="17a791a1-feee-46b4-8077-586153b63191" points="37.38 112.48 36.41 112.97 39.2 114.39 39.2 113.41 37.38 112.48"/>
          </g>
          <g>
            <polygon class="5c6fb774-524b-4be4-b73c-394ec841509f" points="42.82 69.12 42.82 115.24 44.64 116.17 44.64 70.05 42.82 69.12"/>
            <polygon class="d0c48d00-a8b5-4243-ad0a-920558562669" points="41.85 68.63 41.85 115.73 42.82 115.24 42.82 69.12 41.85 68.63"/>
            <polygon class="17a791a1-feee-46b4-8077-586153b63191" points="42.82 115.24 41.85 115.73 44.64 117.15 44.64 116.17 42.82 115.24"/>
          </g>
          <g>
            <polygon class="5c6fb774-524b-4be4-b73c-394ec841509f" points="48.26 71.89 48.26 118.01 50.08 118.94 50.08 72.82 48.26 71.89"/>
            <polygon class="d0c48d00-a8b5-4243-ad0a-920558562669" points="47.29 71.4 47.29 118.5 48.26 118.01 48.26 71.89 47.29 71.4"/>
            <polygon class="17a791a1-feee-46b4-8077-586153b63191" points="48.26 118.01 47.29 118.5 50.08 119.92 50.08 118.94 48.26 118.01"/>
          </g>
          <g>
            <polygon class="5c6fb774-524b-4be4-b73c-394ec841509f" points="53.7 74.66 53.7 120.78 55.52 121.71 55.52 75.58 53.7 74.66"/>
            <polygon class="d0c48d00-a8b5-4243-ad0a-920558562669" points="52.73 74.17 52.73 121.27 53.7 120.78 53.7 74.66 52.73 74.17"/>
            <polygon class="17a791a1-feee-46b4-8077-586153b63191" points="53.7 120.78 52.73 121.27 55.52 122.69 55.52 121.71 53.7 120.78"/>
          </g>
          <g>
            <polygon class="5c6fb774-524b-4be4-b73c-394ec841509f" points="59.14 77.42 59.14 123.55 60.96 124.48 60.96 78.35 59.14 77.42"/>
            <polygon class="d0c48d00-a8b5-4243-ad0a-920558562669" points="58.17 76.94 58.17 124.04 59.14 123.55 59.14 77.42 58.17 76.94"/>
            <polygon class="17a791a1-feee-46b4-8077-586153b63191" points="59.14 123.55 58.17 124.04 60.96 125.46 60.96 124.48 59.14 123.55"/>
          </g>
          <g>
            <polygon class="5c6fb774-524b-4be4-b73c-394ec841509f" points="64.58 80.19 64.58 126.31 66.4 127.24 66.4 81.12 64.58 80.19"/>
            <polygon class="d0c48d00-a8b5-4243-ad0a-920558562669" points="63.62 79.7 63.62 126.81 64.58 126.32 64.58 80.19 63.62 79.7"/>
            <polygon class="17a791a1-feee-46b4-8077-586153b63191" points="64.58 126.31 63.62 126.81 66.4 128.22 66.4 127.24 64.58 126.31"/>
          </g>
          <g>
            <polygon class="5c6fb774-524b-4be4-b73c-394ec841509f" points="70.02 82.96 70.02 129.08 71.84 130.01 71.84 83.89 70.02 82.96"/>
            <polygon class="d0c48d00-a8b5-4243-ad0a-920558562669" points="69.06 82.47 69.06 129.57 70.02 129.08 70.02 82.96 69.06 82.47"/>
            <polygon class="17a791a1-feee-46b4-8077-586153b63191" points="70.02 129.08 69.06 129.57 71.84 130.99 71.84 130.01 70.02 129.08"/>
          </g>
          <g>
            <polygon class="5c6fb774-524b-4be4-b73c-394ec841509f" points="75.46 85.73 75.46 131.85 77.28 132.78 77.28 86.66 75.46 85.73"/>
            <polygon class="d0c48d00-a8b5-4243-ad0a-920558562669" points="74.5 85.24 74.5 132.34 75.46 131.85 75.46 85.73 74.5 85.24"/>
            <polygon class="17a791a1-feee-46b4-8077-586153b63191" points="75.46 131.85 74.5 132.34 77.28 133.76 77.28 132.78 75.46 131.85"/>
          </g>
          <g>
            <polygon class="5c6fb774-524b-4be4-b73c-394ec841509f" points="80.9 88.5 80.9 134.62 82.73 135.55 82.73 89.42 80.9 88.5"/>
            <polygon class="d0c48d00-a8b5-4243-ad0a-920558562669" points="79.94 88.01 79.94 135.11 80.9 134.62 80.9 88.5 79.94 88.01"/>
            <polygon class="17a791a1-feee-46b4-8077-586153b63191" points="80.9 134.62 79.94 135.11 82.73 136.53 82.73 135.55 80.9 134.62"/>
          </g>
          <g>
            <polygon class="5c6fb774-524b-4be4-b73c-394ec841509f" points="86.34 91.26 86.34 137.39 88.17 138.31 88.17 92.19 86.34 91.26"/>
            <polygon class="d0c48d00-a8b5-4243-ad0a-920558562669" points="85.38 90.77 85.38 137.88 86.34 137.39 86.34 91.26 85.38 90.77"/>
            <polygon class="17a791a1-feee-46b4-8077-586153b63191" points="86.34 137.39 85.38 137.88 88.17 139.3 88.17 138.31 86.34 137.39"/>
          </g>
          <g>
            <polygon class="5c6fb774-524b-4be4-b73c-394ec841509f" points="91.78 94.03 91.78 140.15 93.61 141.08 93.61 94.96 91.78 94.03"/>
            <polygon class="d0c48d00-a8b5-4243-ad0a-920558562669" points="90.82 93.54 90.82 140.65 91.78 140.16 91.78 94.03 90.82 93.54"/>
            <polygon class="17a791a1-feee-46b4-8077-586153b63191" points="91.78 140.15 90.82 140.65 93.61 142.06 93.61 141.08 91.78 140.15"/>
          </g>
          <g>
            <polygon class="5c6fb774-524b-4be4-b73c-394ec841509f" points="97.22 96.8 97.22 142.92 99.05 143.85 99.05 97.73 97.22 96.8"/>
            <polygon class="d0c48d00-a8b5-4243-ad0a-920558562669" points="96.26 96.31 96.26 143.41 97.22 142.92 97.22 96.8 96.26 96.31"/>
            <polygon class="17a791a1-feee-46b4-8077-586153b63191" points="97.22 142.92 96.26 143.41 99.05 144.83 99.05 143.85 97.22 142.92"/>
          </g>
          <g>
            <polygon class="5c6fb774-524b-4be4-b73c-394ec841509f" points="102.66 99.57 102.66 145.69 104.49 146.62 104.49 100.5 102.66 99.57"/>
            <polygon class="d0c48d00-a8b5-4243-ad0a-920558562669" points="101.7 99.08 101.7 146.18 102.66 145.69 102.66 99.57 101.7 99.08"/>
            <polygon class="17a791a1-feee-46b4-8077-586153b63191" points="102.66 145.69 101.7 146.18 104.49 147.6 104.49 146.62 102.66 145.69"/>
          </g>
          <g>
            <polygon class="5c6fb774-524b-4be4-b73c-394ec841509f" points="108.1 102.33 108.1 148.46 109.93 149.39 109.93 103.26 108.1 102.33"/>
            <polygon class="d0c48d00-a8b5-4243-ad0a-920558562669" points="107.14 101.84 107.14 148.95 108.1 148.46 108.1 102.33 107.14 101.84"/>
            <polygon class="17a791a1-feee-46b4-8077-586153b63191" points="108.1 148.46 107.14 148.95 109.93 150.37 109.93 149.39 108.1 148.46"/>
          </g>
          <g>
            <polygon class="5c6fb774-524b-4be4-b73c-394ec841509f" points="113.55 105.1 113.55 151.23 115.37 152.15 115.37 106.03 113.55 105.1"/>
            <polygon class="d0c48d00-a8b5-4243-ad0a-920558562669" points="112.58 104.61 112.58 151.72 113.55 151.23 113.55 105.1 112.58 104.61"/>
            <polygon class="17a791a1-feee-46b4-8077-586153b63191" points="113.55 151.23 112.58 151.72 115.37 153.13 115.37 152.15 113.55 151.23"/>
          </g>
          <g>
            <polygon class="5c6fb774-524b-4be4-b73c-394ec841509f" points="118.98 107.87 118.98 153.99 120.81 154.92 120.81 108.8 118.98 107.87"/>
            <polygon class="d0c48d00-a8b5-4243-ad0a-920558562669" points="118.02 107.38 118.02 154.48 118.98 153.99 118.98 107.87 118.02 107.38"/>
            <polygon class="17a791a1-feee-46b4-8077-586153b63191" points="118.98 153.99 118.02 154.48 120.81 155.9 120.81 154.92 118.98 153.99"/>
          </g>
          <g>
            <polygon class="5c6fb774-524b-4be4-b73c-394ec841509f" points="124.43 110.64 124.43 156.76 126.25 157.69 126.25 111.57 124.43 110.64"/>
            <polygon class="d0c48d00-a8b5-4243-ad0a-920558562669" points="123.46 110.15 123.46 157.25 124.43 156.76 124.43 110.64 123.46 110.15"/>
            <polygon class="17a791a1-feee-46b4-8077-586153b63191" points="124.43 156.76 123.46 157.25 126.25 158.67 126.25 157.69 124.43 156.76"/>
          </g>
          <g>
            <polygon class="5c6fb774-524b-4be4-b73c-394ec841509f" points="129.87 113.41 129.87 159.53 131.69 160.46 131.69 114.33 129.87 113.41"/>
            <polygon class="d0c48d00-a8b5-4243-ad0a-920558562669" points="128.9 112.92 128.9 160.02 129.87 159.53 129.87 113.41 128.9 112.92"/>
            <polygon class="17a791a1-feee-46b4-8077-586153b63191" points="129.87 159.53 128.9 160.02 131.69 161.44 131.69 160.46 129.87 159.53"/>
          </g>
          <g>
            <polygon class="5c6fb774-524b-4be4-b73c-394ec841509f" points="135.31 116.17 135.31 162.3 137.13 163.22 137.13 117.1 135.31 116.17"/>
            <polygon class="d0c48d00-a8b5-4243-ad0a-920558562669" points="134.34 115.68 134.34 162.79 135.31 162.3 135.31 116.17 134.34 115.68"/>
            <polygon class="17a791a1-feee-46b4-8077-586153b63191" points="135.31 162.3 134.34 162.79 137.13 164.21 137.13 163.22 135.31 162.3"/>
          </g>
          <g>
            <polygon class="5c6fb774-524b-4be4-b73c-394ec841509f" points="140.75 118.94 140.75 165.06 142.57 165.99 142.57 119.87 140.75 118.94"/>
            <polygon class="d0c48d00-a8b5-4243-ad0a-920558562669" points="139.78 118.45 139.78 165.56 140.75 165.06 140.75 118.94 139.78 118.45"/>
            <polygon class="17a791a1-feee-46b4-8077-586153b63191" points="140.75 165.06 139.78 165.56 142.57 166.97 142.57 165.99 140.75 165.06"/>
          </g>
          <g>
            <polygon class="5c6fb774-524b-4be4-b73c-394ec841509f" points="146.19 121.71 146.19 167.83 148.01 168.76 148.01 122.64 146.19 121.71"/>
            <polygon class="d0c48d00-a8b5-4243-ad0a-920558562669" points="145.22 121.22 145.22 168.32 146.19 167.83 146.19 121.71 145.22 121.22"/>
            <polygon class="17a791a1-feee-46b4-8077-586153b63191" points="146.19 167.83 145.22 168.32 148.01 169.74 148.01 168.76 146.19 167.83"/>
          </g>
          <g>
            <polygon class="5c6fb774-524b-4be4-b73c-394ec841509f" points="151.63 124.48 151.63 170.6 153.45 171.53 153.45 125.41 151.63 124.48"/>
            <polygon class="d0c48d00-a8b5-4243-ad0a-920558562669" points="150.66 123.99 150.66 171.09 151.63 170.6 151.63 124.48 150.66 123.99"/>
            <polygon class="17a791a1-feee-46b4-8077-586153b63191" points="151.63 170.6 150.66 171.09 153.45 172.51 153.45 171.53 151.63 170.6"/>
          </g>
        </g>
      </g>
    </g>
  </g>
</svg>
