<svg xmlns="http://www.w3.org/2000/svg" viewBox="0 0 200 200">
  <defs>
    <style>
      .faf0f576-4b2c-402b-ad5b-e93bd79ff2b8 {
        isolation: isolate;
      }

      .\32 3836483-13d6-4638-9b71-b2e3eea59727 {
        fill: #383838;
      }

      .\34 dd5bbdf-220f-46ef-9d8b-03324310a662 {
        fill: #262626;
      }

      .\38 2b5344d-0a6f-4c5b-a5ee-6b6c4387a444 {
        fill: #303238;
      }

      .beb081f6-28a0-4afb-906a-056da7cf6264 {
        fill: #164e88;
      }

      .\36 e0fcc1e-8b5c-4f2b-8692-32bc74772009 {
        fill: #0f457d;
      }

      .d694d670-cad2-4666-b5f1-dca326223cd1 {
        opacity: 0.3;
      }

      .\31 0dd62d6-3a4a-45b1-b99d-2b2f2014121d, .d694d670-cad2-4666-b5f1-dca326223cd1 {
        mix-blend-mode: soft-light;
      }

      .\33 e685c4f-64f7-4867-ae02-e96130319f80 {
        fill: #e4e9ef;
      }

      .\36 832c683-d62f-42d7-a595-2a0058165404 {
        fill: #1f5996;
      }

      .\38 6b358d0-5272-46a2-9f54-9c704e6d9acc {
        fill: #276cab;
      }

      .\31 0dd62d6-3a4a-45b1-b99d-2b2f2014121d {
        fill: #fff;
        opacity: 0.2;
      }

      .\33 6b8b2fb-3db8-44ce-87ea-ac93fffc6550 {
        fill: #231f20;
      }

      .\33 f2376d2-91cc-484e-888b-d07e5a1291b8 {
        fill: #4f4c4e;
      }

      .\31 fdd57a9-8c02-4bf9-91ce-83c5b157b608 {
        fill: #d1cda1;
      }

      .b2010b44-f8bd-497a-8512-fd950e37234b {
        fill: #c2bf93;
      }

      .\32 bb124c9-ace1-43fe-b815-cd62b043ebef {
        fill: #f5f2d8;
      }

      .\34 2632a47-7173-419e-87dd-6067c29031d2 {
        fill: #dbd8b1;
      }

      .\38 0a350e2-2653-4e24-9989-5b10bd615162 {
        fill: #a8a680;
      }

      .\36 61eea1d-8e25-4cf1-934a-8dcc4762dd5c {
        fill: #077634;
      }

      .\35 a9a3679-c1a0-4ee3-8f54-6ba0064e5761 {
        fill: #025020;
      }

      .\37 9148850-482f-44fa-87e8-a433d25f7854 {
        fill: #db9200;
      }

      .\31 59662cc-ecfb-434d-a7b5-dde813feb662 {
        fill: #fab100;
      }
    </style>
  </defs>
  <title>Container Types</title>
  <g class="faf0f576-4b2c-402b-ad5b-e93bd79ff2b8">
    <g id="bd56d5af-4a06-4cd1-a7ce-27b2dbb00ec8" data-name="Trains">
      <g id="5959317f-cf5d-4941-b768-690f962930f4" data-name="Oil">
        <g>
          <polygon class="23836483-13d6-4638-9b71-b2e3eea59727" points="112.44 115.64 100 123.48 100 139.1 100.39 139.34 100.47 123.77 112.44 116.14 112.44 115.64"/>
          <polygon class="4dd5bbdf-220f-46ef-9d8b-03324310a662" points="112.44 116.14 100.39 123.73 100.39 139.34 100.86 139.05 100.86 124.02 112.44 116.73 112.44 116.14"/>
        </g>
        <g>
          <polygon class="23836483-13d6-4638-9b71-b2e3eea59727" points="77.39 63.16 77 63.41 77.47 79.33 77.86 79.08 77.86 64.05 92.66 73.37 92.73 88.94 93.13 88.69 93.13 73.67 107.92 82.99 108 98.56 108.39 98.31 108.39 83.28 123.19 92.61 123.27 108.18 123.66 107.93 123.66 92.9 138.46 102.22 138.53 117.79 138.93 117.55 138.93 102.52 153.72 111.84 153.8 127.41 154.19 127.16 154.19 112.14 168.99 121.46 169.06 137.03 169.46 136.78 169.46 121.75 184.26 131.07 184.33 146.65 184.73 146.4 184.73 131.37 199.52 140.69 199.6 156.26 199.99 156.01 199.99 140.4 77.39 63.16"/>
          <polygon class="4dd5bbdf-220f-46ef-9d8b-03324310a662" points="77 63.41 77 79.03 77.47 79.33 77.47 64.3 92.26 73.62 92.26 88.65 92.73 88.94 92.73 73.92 107.53 83.24 107.53 98.26 108 98.56 108 83.53 122.8 92.85 122.8 107.88 123.27 108.18 123.27 93.15 138.06 102.47 138.06 117.5 138.53 117.79 138.53 102.77 153.33 112.09 153.33 127.12 153.8 127.41 153.8 112.38 168.6 121.7 168.6 136.73 169.06 137.03 169.06 122 183.86 131.32 183.86 146.35 184.33 146.65 184.33 131.62 199.13 140.94 199.13 155.97 199.6 156.26 199.6 140.64 77 63.41"/>
        </g>
        <g>
          <polygon class="82b5344d-0a6f-4c5b-a5ee-6b6c4387a444" points="32.46 50.48 0 70.92 135.81 156.48 166.75 135.07 32.46 50.48"/>
          <polygon class="beb081f6-28a0-4afb-906a-056da7cf6264" points="0 70.92 0 73.35 162.59 175.77 162.59 173.34 0 70.92"/>
          <polygon class="6e0fcc1e-8b5c-4f2b-8692-32bc74772009" points="166.15 169.18 166.15 171.61 172.62 175.68 172.62 173.25 166.15 169.18"/>
          <polygon class="beb081f6-28a0-4afb-906a-056da7cf6264" points="172.62 173.25 172.62 175.68 199.99 158.44 199.99 156.01 172.62 173.25"/>
          <polygon class="d694d670-cad2-4666-b5f1-dca326223cd1" points="199.99 158.44 199.99 156.78 173.48 173.49 173.48 175.14 199.99 158.44"/>
          <polygon class="82b5344d-0a6f-4c5b-a5ee-6b6c4387a444" points="166.75 135.07 134.29 155.52 161.06 172.39 166.15 169.18 172.62 173.25 199.99 156.01 166.75 135.07"/>
        </g>
        <g>
          <g>
            <path class="3e685c4f-64f7-4867-ae02-e96130319f80" d="M44.08,25.14a11.21,11.21,0,0,0-1.51-.52,19.8,19.8,0,0,0-2.45-.5A15,15,0,0,0,37.74,24c-10.05.53-19.16,9.06-22.93,19-3.55,9.32-4.27,22.4,3.46,29.6A22.62,22.62,0,0,0,20,74c-2.78-2.25-4.47-6.4-4.48-12.1,0-12.55,8.06-27.84,18.07-34.15,4.66-2.94,8.92-3.4,12.14-1.8C45.19,25.67,44.58,25.37,44.08,25.14Z"/>
            <path class="3e685c4f-64f7-4867-ae02-e96130319f80" d="M45.75,26l.76.42A8.39,8.39,0,0,0,45.75,26Z"/>
            <path class="3e685c4f-64f7-4867-ae02-e96130319f80" d="M20,74a8.67,8.67,0,0,0,.81.59Z"/>
          </g>
          <g>
            <path class="3e685c4f-64f7-4867-ae02-e96130319f80" d="M188.4,128.41c-.07-5.08-1.32-10.29-4.33-14-.51-.63-1.22-1.44-1.78-2a20,20,0,0,0-2.56-2c-3.3-2.09-7.86-1.8-12.9,1.38-10,6.31-18.1,21.6-18.07,34.15,0,6.23,2,10.62,5.29,12.68,9.67,6.13,21.49-.48,27.71-9.16A35.66,35.66,0,0,0,188.4,128.41Z"/>
            <path class="6832c683-d62f-42d7-a595-2a0058165404" d="M187.45,131.43c-.17-5.72-2.36-11.73-7-14.67-2.67-1.7-6.38-1.46-10.46,1.12-8.12,5.12-14.68,17.52-14.66,27.7,0,5.06,1.65,8.62,4.29,10.29,13,8.22,26.7-8.46,27.76-21.85A24,24,0,0,0,187.45,131.43Z"/>
          </g>
          <g>
            <path class="86b358d0-5272-46a2-9f54-9c704e6d9acc" d="M46.51,26.39c-3.3-2.09-7.86-1.8-12.9,1.38C27.85,31.4,22.73,38,19.42,45.36a47,47,0,0,0-2.79,8l133.22,83.92a47,47,0,0,1,2.79-8c3.31-7.34,8.43-13.95,14.19-17.58,5-3.17,9.6-3.47,12.9-1.38Z"/>
            <path class="beb081f6-28a0-4afb-906a-056da7cf6264" d="M148.77,145.85a35.65,35.65,0,0,1,1.09-8.53L16.63,53.4a35.64,35.64,0,0,0-1.09,8.52c0,6.23,2,10.62,5.29,12.68l133.22,83.93C150.8,156.47,148.78,152.09,148.77,145.85Z"/>
            <path class="10dd62d6-3a4a-45b1-b99d-2b2f2014121d" d="M29.9,30.6a42.65,42.65,0,0,0-8.71,11.23l133.22,83.92a42.64,42.64,0,0,1,8.72-11.23Z"/>
            <ellipse class="86b358d0-5272-46a2-9f54-9c704e6d9acc" cx="100.82" cy="70.27" rx="11.33" ry="8.38"/>
          </g>
        </g>
        <g>
          <path class="36b8b2fb-3db8-44ce-87ea-ac93fffc6550" d="M64.95,36.34C57.64,31.74,45.8,39.2,38.49,53s-7.3,28.72,0,33.33a8.8,8.8,0,0,0,3.88,1.31l-3.43-2.16c-7.06-4.44-7.06-18.86,0-32.19S57.44,32.75,64.5,37.19l.11.08,3.32,2.09A9.73,9.73,0,0,0,64.95,36.34Z"/>
          <path class="3f2376d2-91cc-484e-888b-d07e5a1291b8" d="M64.1,35.81c-7.3-4.6-19.15,2.86-26.45,16.66s-7.3,28.72,0,33.33l.85.54c-7.3-4.6-7.3-19.52,0-33.33S57.64,31.74,64.95,36.34Z"/>
        </g>
        <g>
          <path class="36b8b2fb-3db8-44ce-87ea-ac93fffc6550" d="M150.16,90.05c-7.3-4.6-19.15,2.86-26.45,16.66s-7.3,28.72,0,33.33a8.8,8.8,0,0,0,3.88,1.31l-3.43-2.16c-7.06-4.44-7.06-18.86,0-32.19s18.49-20.54,25.55-16.09l.11.08,3.32,2.09A9.73,9.73,0,0,0,150.16,90.05Z"/>
          <path class="3f2376d2-91cc-484e-888b-d07e5a1291b8" d="M149.31,89.51c-7.3-4.6-19.15,2.86-26.45,16.66s-7.3,28.72,0,33.33l.85.54c-7.3-4.6-7.3-19.52,0-33.33s19.15-21.26,26.45-16.66Z"/>
        </g>
        <path class="82b5344d-0a6f-4c5b-a5ee-6b6c4387a444" d="M101.64,72.6,91.8,68.28v2.61c0,3.13,8.43,8.27,11.66,3.61Z"/>
        <g>
          <polygon class="23836483-13d6-4638-9b71-b2e3eea59727" points="0.4 55.06 0 55.31 0.47 71.22 0.86 70.97 0.86 55.94 15.66 65.26 15.73 80.83 16.13 80.59 16.13 65.56 30.93 74.88 31 90.45 31.4 90.2 31.4 75.18 46.19 84.5 46.27 100.07 46.66 99.82 46.66 84.79 61.46 94.11 61.53 109.69 61.93 109.44 61.93 94.41 76.73 103.73 76.8 119.3 77.2 119.06 77.2 104.03 91.99 113.35 92.07 128.92 92.46 128.67 92.46 113.64 107.26 122.97 107.33 138.54 107.73 138.29 107.73 123.26 122.53 132.58 122.6 148.16 123 147.91 123 132.29 0.4 55.06"/>
          <polygon class="4dd5bbdf-220f-46ef-9d8b-03324310a662" points="0 55.31 0 70.92 0.47 71.22 0.47 56.19 15.27 65.51 15.27 80.54 15.73 80.83 15.73 65.81 30.53 75.13 30.53 90.16 31 90.45 31 75.42 45.8 84.75 45.8 99.77 46.27 100.07 46.27 85.04 61.07 94.36 61.07 109.39 61.53 109.69 61.53 94.66 76.33 103.98 76.33 119.01 76.8 119.3 76.8 104.28 91.6 113.6 91.6 128.63 92.07 128.92 92.07 113.89 106.86 123.22 106.86 138.24 107.33 138.54 107.33 123.51 122.13 132.83 122.13 147.86 122.6 148.16 122.6 132.54 0 55.31"/>
        </g>
        <g>
          <polygon class="23836483-13d6-4638-9b71-b2e3eea59727" points="199.6 140.15 172.23 157.39 172.23 173.01 172.62 173.26 172.62 157.64 185.88 149.39 185.88 164.41 186.27 164.66 186.34 149.09 199.14 141.03 199.14 156.06 199.53 156.31 200 140.4 199.6 140.15"/>
          <polygon class="23836483-13d6-4638-9b71-b2e3eea59727" points="172.23 157.39 166.41 175.75 166.8 176 172.62 157.64 172.23 157.39"/>
          <polygon class="4dd5bbdf-220f-46ef-9d8b-03324310a662" points="172.62 157.64 172.62 173.26 173.09 172.97 173.09 157.94 186.27 149.63 186.27 164.66 186.74 164.37 186.74 149.34 199.53 141.28 199.53 156.31 200 156.01 200 140.4 172.62 157.64"/>
          <polygon class="4dd5bbdf-220f-46ef-9d8b-03324310a662" points="172.62 157.64 166.8 176 167.46 175.59 173.09 157.94 172.62 157.64"/>
        </g>
        <g>
          <polygon class="23836483-13d6-4638-9b71-b2e3eea59727" points="141.39 143.88 141 144.13 141.39 144.47 141.47 160.04 141.86 159.79 141.86 144.76 154.69 152.75 154.69 168.37 155.08 168.12 155.08 152.5 141.39 143.88"/>
          <polygon class="23836483-13d6-4638-9b71-b2e3eea59727" points="155.08 152.5 161.46 172.14 161.06 172.39 154.69 152.75 155.08 152.5"/>
          <polygon class="4dd5bbdf-220f-46ef-9d8b-03324310a662" points="141 144.13 141 159.74 141.47 160.04 141.47 145.01 154.22 153.05 154.22 168.07 154.69 168.37 154.69 152.75 141 144.13"/>
          <polygon class="4dd5bbdf-220f-46ef-9d8b-03324310a662" points="154.69 152.75 161.06 172.39 160.41 171.97 154.22 153.05 154.69 152.75"/>
        </g>
        <g>
          <polyline class="23836483-13d6-4638-9b71-b2e3eea59727" points="138.34 141.98 122.6 132.06 122.2 132.31 122.67 148.22 123.07 147.97 123.07 132.94 137.87 142.27 137.94 157.84 138.33 157.59 138.33 142.56"/>
          <polyline class="4dd5bbdf-220f-46ef-9d8b-03324310a662" points="137.91 142.2 122.2 132.31 122.2 147.93 122.67 148.22 122.67 133.19 137.47 142.51 137.47 157.54 137.94 157.84 137.94 142.81"/>
        </g>
        <g>
          <g>
            <polygon class="1fdd57a9-8c02-4bf9-91ce-83c5b157b608" points="80.54 88.47 79.32 88.6 79.41 88.32 80.16 88.24 80.54 88.47"/>
            <path class="b2010b44-f8bd-497a-8512-fd950e37234b" d="M79.32,88.6l-.15.54L80.38,89l.16-.54Z"/>
          </g>
          <g>
            <polygon class="1fdd57a9-8c02-4bf9-91ce-83c5b157b608" points="78.92 98.42 77.12 99.55 76.76 99.32 78.55 98.19 78.92 98.42"/>
            <polygon class="b2010b44-f8bd-497a-8512-fd950e37234b" points="78.92 98.9 77.12 100.03 77.12 99.55 78.92 98.42 78.92 98.9"/>
          </g>
          <g>
            <polygon class="1fdd57a9-8c02-4bf9-91ce-83c5b157b608" points="80.34 107.42 77.55 109.18 77.55 109.64 80.71 107.65 80.34 107.42"/>
            <path class="b2010b44-f8bd-497a-8512-fd950e37234b" d="M80.71,107.65l-3.16,2v.48L80.9,108Z"/>
          </g>
          <g>
            <polygon class="1fdd57a9-8c02-4bf9-91ce-83c5b157b608" points="86.28 103.06 84.49 104.19 84.12 103.96 85.92 102.83 86.28 103.06"/>
            <polygon class="b2010b44-f8bd-497a-8512-fd950e37234b" points="86.28 103.54 84.49 104.67 84.49 104.19 86.28 103.06 86.28 103.54"/>
          </g>
          <g>
            <path class="2bb124c9-ace1-43fe-b815-cd62b043ebef" d="M84.17,105.11l0-1.33,0-.67c0-.11,0-.22,0-.33l0-.35A47,47,0,0,1,86.76,91a57.54,57.54,0,0,1,5.41-11.26,48.72,48.72,0,0,1,7.35-9.1l-.71-.45a48.72,48.72,0,0,0-7.35,9.1A57.54,57.54,0,0,0,86.05,90.5,47,47,0,0,0,83.58,102l0,.35c0,.11,0,.22,0,.33l0,.67,0,1.33V134l.71.45Z"/>
            <path class="42632a47-7173-419e-87dd-6067c29031d2" d="M92.17,79.69A57.54,57.54,0,0,0,86.76,91a47,47,0,0,0-2.47,11.48l0,.35c0,.11,0,.22,0,.33l0,.67,0,1.33v29.31l.74-.47V104.65l0-1.29,0-.64c0-.11,0-.21,0-.32l0-.33A45.28,45.28,0,0,1,87.4,91a55.53,55.53,0,0,1,5.22-10.85,47.2,47.2,0,0,1,6.9-8.59v-1A48.72,48.72,0,0,0,92.17,79.69Z"/>
          </g>
          <g>
            <polygon class="1fdd57a9-8c02-4bf9-91ce-83c5b157b608" points="87.71 112.06 84.91 113.82 84.91 114.28 88.08 112.29 87.71 112.06"/>
            <path class="b2010b44-f8bd-497a-8512-fd950e37234b" d="M88.08,112.29l-3.16,2v.48l3.35-2.11Z"/>
          </g>
          <g>
            <polygon class="1fdd57a9-8c02-4bf9-91ce-83c5b157b608" points="87.9 93.11 86.69 93.24 86.77 92.96 87.53 92.88 87.9 93.11"/>
            <path class="b2010b44-f8bd-497a-8512-fd950e37234b" d="M86.69,93.24l-.15.54,1.21-.13.16-.54Z"/>
          </g>
          <g>
            <polygon class="80a350e2-2653-4e24-9989-5b10bd615162" points="91.64 83.09 91.11 82.72 91.12 82.7 92.01 83.33 91.64 83.09"/>
            <path class="b2010b44-f8bd-497a-8512-fd950e37234b" d="M91.4,82.2l-.28.5.89.63.28-.5Z"/>
          </g>
          <g>
            <path class="42632a47-7173-419e-87dd-6067c29031d2" d="M84.81,75a57.53,57.53,0,0,0-5.41,11.26,46.94,46.94,0,0,0-2.47,11.48l0,.35c0,.11,0,.22,0,.33l0,.67,0,1.33v29.31l.74-.47V100l0-1.29,0-.64c0-.11,0-.21,0-.32l0-.33A45.27,45.27,0,0,1,80,86.36a55.52,55.52,0,0,1,5.22-10.85,47.18,47.18,0,0,1,6.9-8.59V66A48.71,48.71,0,0,0,84.81,75Z"/>
            <path class="2bb124c9-ace1-43fe-b815-cd62b043ebef" d="M76.81,100.47l0-1.33,0-.67c0-.11,0-.22,0-.33l0-.35a47,47,0,0,1,2.47-11.48A57.53,57.53,0,0,1,84.81,75,48.71,48.71,0,0,1,92.15,66l-.71-.45a48.72,48.72,0,0,0-7.35,9.1,57.53,57.53,0,0,0-5.41,11.26,47,47,0,0,0-2.47,11.48l0,.35c0,.11,0,.22,0,.33l0,.67,0,1.33v29.31l.71.45Z"/>
          </g>
          <polygon class="1fdd57a9-8c02-4bf9-91ce-83c5b157b608" points="90.28 67.87 90.53 68.59 96.59 72.44 96.93 72.06 90.28 67.87"/>
          <g>
            <polygon class="1fdd57a9-8c02-4bf9-91ce-83c5b157b608" points="83.47 130.18 83.47 129.24 77.55 125.52 76.81 125.98 83.47 130.18"/>
            <polygon class="2bb124c9-ace1-43fe-b815-cd62b043ebef" points="83.47 130.94 76.81 126.75 76.81 125.98 83.47 130.18 83.47 130.94"/>
          </g>
          <g>
            <polygon class="1fdd57a9-8c02-4bf9-91ce-83c5b157b608" points="83.47 124.98 83.47 124.05 77.55 120.32 76.81 120.79 83.47 124.98"/>
            <polygon class="2bb124c9-ace1-43fe-b815-cd62b043ebef" points="83.47 125.75 76.81 121.56 76.81 120.79 83.47 124.98 83.47 125.75"/>
          </g>
          <g>
            <polygon class="1fdd57a9-8c02-4bf9-91ce-83c5b157b608" points="83.47 119.79 83.47 118.86 77.55 115.13 76.81 115.59 83.47 119.79"/>
            <polygon class="2bb124c9-ace1-43fe-b815-cd62b043ebef" points="83.47 120.56 76.81 116.36 76.81 115.59 83.47 119.79 83.47 120.56"/>
          </g>
          <g>
            <polygon class="1fdd57a9-8c02-4bf9-91ce-83c5b157b608" points="83.47 114.59 83.47 113.66 77.55 109.93 76.81 110.4 83.47 114.59"/>
            <polygon class="2bb124c9-ace1-43fe-b815-cd62b043ebef" points="83.47 115.36 76.81 111.17 76.81 110.4 83.47 114.59 83.47 115.36"/>
          </g>
          <polygon class="1fdd57a9-8c02-4bf9-91ce-83c5b157b608" points="83.47 109.4 83.47 108.47 77.55 104.74 76.81 105.2 83.47 109.4"/>
          <polygon class="2bb124c9-ace1-43fe-b815-cd62b043ebef" points="83.47 110.17 76.81 105.97 76.81 105.2 83.47 109.4 83.47 110.17"/>
          <g>
            <polygon class="1fdd57a9-8c02-4bf9-91ce-83c5b157b608" points="83.48 104.21 83.51 103.3 77.55 99.54 76.81 100.01 83.48 104.21"/>
            <polygon class="2bb124c9-ace1-43fe-b815-cd62b043ebef" points="83.47 104.97 76.81 100.78 76.81 100.01 83.48 104.21 83.47 104.97"/>
          </g>
          <g>
            <polygon class="1fdd57a9-8c02-4bf9-91ce-83c5b157b608" points="83.98 98.66 84.09 97.99 78.05 94.19 77.33 94.43 83.98 98.66"/>
            <polygon class="2bb124c9-ace1-43fe-b815-cd62b043ebef" points="77.19 95.28 83.85 99.48 83.98 98.66 77.33 94.43 77.19 95.28"/>
          </g>
          <g>
            <polygon class="1fdd57a9-8c02-4bf9-91ce-83c5b157b608" points="85.32 92.79 85.44 92.38 79.34 88.56 78.66 88.6 85.32 92.79"/>
            <path class="2bb124c9-ace1-43fe-b815-cd62b043ebef" d="M85.08,93.66l-6.66-4.19.24-.84,6.66,4.17C85.23,93.09,85.16,93.36,85.08,93.66Z"/>
          </g>
          <g>
            <polygon class="1fdd57a9-8c02-4bf9-91ce-83c5b157b608" points="87.46 86.89 87.54 86.71 81.4 82.88 80.81 82.7 87.46 86.89"/>
            <polygon class="2bb124c9-ace1-43fe-b815-cd62b043ebef" points="87.1 87.76 80.45 83.53 80.81 82.7 87.46 86.89 87.1 87.76"/>
          </g>
          <polygon class="2bb124c9-ace1-43fe-b815-cd62b043ebef" points="83.63 77.02 83.17 77.84 89.83 82.03 90.29 81.21 83.63 77.02"/>
          <g>
            <polygon class="1fdd57a9-8c02-4bf9-91ce-83c5b157b608" points="86.5 72.53 86.89 73.08 92.99 76.96 93.16 76.73 86.5 72.53"/>
            <polygon class="2bb124c9-ace1-43fe-b815-cd62b043ebef" points="87.03 71.8 86.5 72.53 93.16 76.73 93.69 75.99 87.03 71.8"/>
          </g>
          <polygon class="2bb124c9-ace1-43fe-b815-cd62b043ebef" points="90.86 67.24 90.28 67.87 96.93 72.06 97.52 71.43 90.86 67.24"/>
        </g>
        <g>
          <g>
            <polygon class="661eea1d-8e25-4cf1-934a-8dcc4762dd5c" points="98.81 54.94 84.65 63.86 101.64 74.57 115.8 65.65 98.81 54.94"/>
            <polygon class="5a9a3679-c1a0-4ee3-8f54-6ba0064e5761" points="115.8 65.65 101.64 74.57 101.64 75.62 115.8 66.7 115.8 65.65"/>
            <polygon class="5a9a3679-c1a0-4ee3-8f54-6ba0064e5761" points="84.65 63.86 101.64 74.57 101.64 75.62 84.65 64.91 84.65 63.86"/>
          </g>
          <g>
            <ellipse class="4dd5bbdf-220f-46ef-9d8b-03324310a662" cx="100.22" cy="64.75" rx="5.89" ry="3.71"/>
            <path class="79148850-482f-44fa-87e8-a433d25f7854" d="M93,60.84v1.37c0,2.5,3.22,4.53,7.19,4.53s7.19-2,7.19-4.53V60.84Z"/>
            <ellipse class="159662cc-ecfb-434d-a7b5-dde813feb662" cx="100.22" cy="60.84" rx="7.19" ry="4.53"/>
          </g>
        </g>
      </g>
    </g>
  </g>
</svg>
