<?xml version="1.0" encoding="utf-8"?>
<!-- Generator: Adobe Illustrator 23.0.1, SVG Export Plug-In . SVG Version: 6.00 Build 0)  -->
<svg version="1.1" id="Layer_1" xmlns="http://www.w3.org/2000/svg" xmlns:xlink="http://www.w3.org/1999/xlink" x="0px" y="0px"
	 viewBox="0 0 32 32" style="enable-background:new 0 0 32 32;" xml:space="preserve">
<style type="text/css">
	.st0{fill:none;}
	.st1{fill:#14AAE1;}
</style>
<g>
	<g>
		<path class="st0" d="M18.45,14.81V5.39c0-1.7-0.75-3.07-2.44-3.07s-2.5,1.37-2.5,3.07v9.43"/>
	</g>
	<g>
		<path class="st0" d="M13.5,17.24c-2.23,0.97-3.79,3.19-3.79,5.77c0,3.47,2.82,6.29,6.29,6.29s6.29-2.82,6.29-6.29
			c0-2.61-1.59-4.85-3.86-5.8"/>
	</g>
</g>
<g>
	<circle class="st1" cx="16" cy="23.08" r="4.06"/>
	<g>
		<path class="st1" d="M21.56,15.62l-0.13-0.1V4.57C21.43,2.04,18.68,0,16,0c-2.68,0-5.43,2.04-5.43,4.57l-0.13,11.06
			c-2.6,1.84-3.62,4.46-3.62,7.52C6.81,28.03,10.8,32,16,32h0c5.2,0,9.19-3.97,9.19-8.85C25.19,20.08,24.16,17.47,21.56,15.62z
			 M16,29.1c-3.42,0-6.2-2.78-6.2-6.2c0-2.54,1.54-4.73,3.74-5.68l0-11.67c0-1.67,0.79-3.02,2.46-3.02s2.41,1.35,2.41,3.02l0,11.65
			c2.23,0.94,3.79,3.15,3.79,5.71C22.2,26.32,19.42,29.1,16,29.1z"/>
	</g>
</g>
<g>
</g>
<g>
</g>
<g>
</g>
<g>
</g>
<g>
</g>
</svg>
